<?xml version="1.0" encoding="utf-8"?>
<!-- Generator: Adobe Illustrator 25.4.1, SVG Export Plug-In . SVG Version: 6.00 Build 0)  -->
<svg version="1.1" id="Laag_1" xmlns="http://www.w3.org/2000/svg" xmlns:xlink="http://www.w3.org/1999/xlink" x="0px" y="0px"
	 viewBox="0 0 1050 1050" style="enable-background:new 0 0 1050 1050;" xml:space="preserve">
<style type="text/css">
	.st0{fill:#27C0E3;}
	.st1{clip-path:url(#SVGID_00000111897595879891170170000008223251673999489961_);}
	.st2{fill:#D1CDC8;}
	.st3{fill:#896248;}
	.st4{fill:#FFFFFF;}
	.st5{fill:url(#SVGID_00000058579407509233302380000009725549948550943916_);}
	.st6{fill:#CBC5BC;}
</style>
<g>
	<g>
		<circle id="SVGID_1_" class="st0" cx="525" cy="525" r="525"/>
	</g>
	<g>
		<g>
			<defs>
				<circle id="SVGID_00000091737325706534908550000016617115040619467654_" cx="525" cy="525" r="525"/>
			</defs>
			<clipPath id="SVGID_00000070100158376643462790000002734561674676098472_">
				<use xlink:href="#SVGID_00000091737325706534908550000016617115040619467654_"  style="overflow:visible;"/>
			</clipPath>
			<g style="clip-path:url(#SVGID_00000070100158376643462790000002734561674676098472_);">
				<g id="Lijnen">
					<path class="st2" d="M280.6,872.4l-84.2,102.3c0,0,54.5,95.6,57.4,97.6l48.8-4.8L273,970.9l46.9-93.7L280.6,872.4z"/>
					<polygon class="st2" points="400.1,1069.4 444.1,1072.3 463.2,1019.7 430.7,1012 					"/>
					<path class="st2" d="M848.7,911.6l-27.7-1l2.9,97.5c0,0-63.1,69.8-67,70.8l70.8-12.4l32.5-85.1L848.7,911.6z"/>
					<path class="st2" d="M934.7,991c0,0-76.5,70.8-77.5,73.6l30.6,8.6l70.8-64.1L934.7,991z"/>
				</g>
				<g id="Hand">
					<polygon class="st3" points="59.9,852.4 79.1,839.4 92.4,826.2 94.8,805.8 110.6,711.2 129.1,657.7 141,636.1 156.2,634 
						180.6,620.3 210.4,599.4 249.6,566.5 295.2,549.9 310.1,542.8 344.6,536.5 401.9,536 401.4,545.1 391.1,563.2 375.3,573.5 
						352,579.4 324.2,610.2 331.2,633.9 317.7,654.8 334.7,677.2 363.1,657.9 388.8,648.8 408.9,649.3 420.9,658.5 420.2,667.8 
						410.3,676.9 369,715.6 355.1,732.4 338.8,736.7 326.1,735.9 317,730.2 307.4,724.2 309.6,737.2 317.5,769 320.1,788.8 
						311.2,799 255.6,869.8 152.6,954.8 90.2,957 56.8,948.4 61.8,937.3 58.5,900.8 					"/>
					<path class="st4" d="M-30.7,890.3L14.6,868c0,0,49.8-19.4,49.4-18.2s-5.7,9.7-5.7,9.7l3.8,70.6l-1.4,9.6L57,949l17.4,4
						l30.8,3.6l48.2-2.8L79,1062l-145,0.4L-30.7,890.3z"/>
				</g>
				<g id="Outline">
					
						<linearGradient id="SVGID_00000119799055408493552090000004770875356949187210_" gradientUnits="userSpaceOnUse" x1="519.1945" y1="-1661.8491" x2="519.1945" y2="-2551.2" gradientTransform="matrix(1 0 0 -1 0 -1498)">
						<stop  offset="0" style="stop-color:#434AFF"/>
						<stop  offset="1" style="stop-color:#140F3F"/>
					</linearGradient>
					<path style="fill:url(#SVGID_00000119799055408493552090000004770875356949187210_);" d="M1053.4,1033.2
						c-20.1-11.3-39.4-24.2-62.8-28.6c-7.3-1.4-14.8-5.6-20.7-10.3c-13-10.3-25.3-21.6-37.6-32.8c-19.1-17.5-39.1-33.7-62.7-44.9
						c-4.4-2.2-8.4-5.3-11.8-8.9c-14-14.5-27.8-29.2-41.3-44.2c-6.8-7.7-13.1-15.9-18.8-24.5c-2.4-3.6-3.3-8.5-3.9-13
						c-1-8.7-2.5-17-8.6-24c-11.2-13-23.4-24.2-41.2-26.8c-3.6-0.5-4.9-2.5-4.2-5.8c1.5-7.3,2.3-14.9,4.9-21.7
						c6.9-17.9,13.4-35.8,14.7-55.2c0.5-7.9,1.8-15.7,2.8-23.9c3.6,1.2,6.4,2.1,9.2,2.9c5.2,1.3,10.7-0.6,14-4.7
						c7.5-9.1,9-20.3,10.4-31.2c1.7-13.3,2.9-26.7,6.7-39.8c5.2-17.7,10-35.5,7.6-54.5c-1.7-13.9-4.9-27.1-11.2-39.6
						c-3.4-6.7-7.8-8.4-14.2-4.7c-3.5,2.2-6.6,4.9-9.3,8c-2.5,2.6-4.5,5.8-7.4,9.6c0-3-0.1-4.7,0-6.3c3.5-35.8,7.5-71.6,10.4-107.4
						c1-12.6,2-26.2-1.5-38.1c-12.2-42.5-23.8-85.3-41.6-125.9c-0.7-2-1.9-3.9-3.3-5.4c-11.4-10.8-23.9-19.4-39.2-24.7
						c-34-11.8-69.8-16.6-103.2-30.4c-32.1-13.2-66-15.3-100.2-9.5c-13.2,2.2-26.1,6.3-39,10.2c-6.3,2-12.4,4.6-18.2,7.8
						c-18.6,9.9-35.3,22.6-51.4,36.2c-8.6,7.3-17.6,14.3-26.4,21.4c-1.3,1.1-2.6,2-4,2.9c-17.8,9.8-35.7,19.3-53.3,29.4
						c-4.4,2.5-7.9,6.5-11.3,10.3c-8.9,9.8-8.5,22.5-10.4,34.5c-0.9,5.7-0.8,11.6-1.9,17.3c-3.7,18.5-3.4,36.7,3.6,54.4
						c7.7,19.7,14.2,39.7,16.7,60.9c2.1,17.8,5.8,35.4,12.6,52.2c4,9.9,7.2,20,10.7,30.1c0.6,1.7,1,3.4,1.6,5.4l-10.5,3.9
						c30.8-5.2,62.1-7.1,93.3-5.6c-4.3,15.2-11.1,27.4-26.4,31.9c-7.7,2.3-16,2.8-24,4.1c-5.4,0.9-10.7,1.8-16.1,2.6l0,0
						c-8.2,0-16.5,0-25.4,0l8.7,3.5c-13.1,6-24.8,13.9-39.9,11.9l0.4,1.6l10.2,2.5l-18.2,15.6c-4.5,3.9-9,7.9-13.7,11.6
						c-1.8,1.5-4.1,2.5-6.4,2.9c-14.2,1.1-28.3,2-42.4,3.1c-3.3,0.2-6.6,0.9-11.1,1.5c1.6,0.7,1.9,1,2.2,1
						c25.8-0.7,51.6-1.5,77.4-1.8c3.6,0,8.7,1.5,10.5,4.1c2.3,3.3,2.2,8.4,2.8,12.8s0.9,8.8,1.3,13.2l1.5-0.1
						c-0.5-6.2-1-12.5-1.4-18.8c-0.1-1.2,0-3.2,0.6-3.4c1.3-0.5,2.8-0.4,4,0.2c3.2,1.8,6.1,4,8.8,6.5c12.6,12.8,23.5,27.1,33.4,42.2
						c7.1,10.8,15.8,20.4,23.7,30.7c0.7,0.9,1.4,2.6,1,3.3c-3.4,6.5-7.3,12.3-15.2,14.1c-19.3,4.4-33.1-1.6-42.8-18.6
						c-1.2-2.2-2-4.7-3.7-6.5c-3.8-4.3-8.3-7.9-11.8-12.3c-8.8-11.3-16.3-23.6-27.6-32.7c-3.4-3-7.8-4.6-12.3-4.6
						c-6.8,0.1-13.6-0.4-20.5-0.4c-13.3-0.1-26.6,0-39.8,0c0,0.6,0,1.2,0,1.7c2.4,0,4.9-0.1,7.4,0c16.4,0.9,32.9,1.6,49.3,3
						c3.9,0.3,7.9,2.5,11.1,4.9c5.5,4.1,10.6,8.6,15.2,13.6c4.2,4.6,9.4,8,11.8,14.8c2.2,6.3,8.8,10.4,12.9,16.1
						c5,6.9,8.6,14.7,10.7,22.9c3.2,12.1,6,24.2,8.8,36.4c0.9,3.7,1.4,7.5,1.3,11.4c-0.4,7.9-6.4,12.7-14,10.7
						c-4-1.1-7.7-3.2-10.7-6c-8.7-8.1-15.9-17.4-19.8-29c-1.2-3.8-3.3-7.2-5.2-11.3l-1.7,2.6c-20-10.4-23.5-30.6-30.2-49.2
						c0.6,6.3,1.1,12.7,1.7,18.6c-4.9,0.8-9.6,0.5-13.5,2.3c-10.2,4.7-20.6,4.5-31.3,3.2c-6.3-0.8-12.7-1.4-19-2.1
						c1.5,1.1,3.2,1.8,5.1,2.2c7.9,1.9,15.9,3.7,23.8,5.9c1.5,0.6,2.7,1.8,3.1,3.3c2.7,16.8,5.3,33.5,7.8,50.3
						c2.1,14.7,4.2,29.3,6,44.1c0.4,3.3,0.7,8-1.1,9.9c-7.7,8-16.2,15.2-24.4,22.7l0.7-2.3l-0.5-0.2l-18.9,27.3
						c3.5-2.1,6.7-4.6,9.5-7.6c4.5-4.7,8.7-9.6,13.3-14.2c6.7-6.9,13.6-13.7,20.6-20.3c2.8-2.4,4.2-6.1,3.7-9.8
						c-1.6-15.6-3.3-31.1-4.6-46.7c-0.3-2.9,0.1-5.9,1.4-8.6c7.7-14.1,15.7-28,23.7-42c0.8,0.4,1.9,0.6,2.3,1.2
						c4.3,7,10.9,12.3,18.6,15.1c2.4,1.1,4.2,3.1,5.1,5.5c4.3,12.6,12,22.9,21.4,32c4.9,4.7,10.6,7.9,17.9,7.5
						c0.9,0,1.8,0.9,2.7,1.4c4.6-4.6,9.8-8.9,10.2-16c0.3-3.6,0.1-7.2-0.6-10.8c-2.8-12.2-5.9-24.2-8.9-36.3c-0.4-1.7-0.7-3.4-1.2-6
						c4.2,1.8,7.6,3.5,11.2,4.7c11.5,4.3,24.3,3.4,35-2.5c2.3-1.2,3.8-4,5.3-6.3c1.7-2.4,3-5.1,5.1-8.7c1,3,1.6,4.9,2.1,6.7
						c7.1,23.2,12.5,47,25.2,68.1c2.9,4.6,6.1,9,9.5,13.3c1.4,1.8,4.4,3.4,4.5,5.2c0.4,8.2,0.2,16.5-0.2,24.8c0,0.8-2.2,1.7-3.5,2.3
						c-6.1,2.7-12.5,4.9-18.2,8.1c-10.1,5.7-21.1,7.7-32.4,8.8c-13.7,1.5-27.4,3.4-41.1,4.8c-1.6,0.2-3.4-1.4-5.1-2
						c-1.6-0.7-3.2-1.3-4.9-1.6c-10.5-1.1-20.5,1.7-30.3,4.8c-3.9,1.4-7.9,2.2-12,2.5c1.2-1.2,2.3-2.5,3.5-3.6
						c17.9-15.3,32-33.8,43.5-54.3c0.9-1.6,1.6-3.3,2.4-4.9c-5.8,7.7-11.5,15.5-17.4,23.1c-15.8,20.6-33.9,38.5-57.4,50.2
						c-1.3,0.7-2.9,2-4,1.7c-4.7-1-7.3,2.2-10.7,4.2c-4.4,2.6-9.1,4.9-13.6,7.2c-1.4,0.8-3,1.3-4.5,2l0.4,0.9l7-1.6
						c-0.9,1.9-2.3,3-3.5,4.3c-15.4,16.4-31.2,32.4-45.8,49.5c-5.4,6.3-10.7,9.2-18.7,10c-25.1,2.3-49.9,0.3-74.7-3.2
						c-2.3-0.3-4.7,0.7-7.1,1.1c2,1.2,3.9,2.9,6,3.5c24.8,6.8,50,7.4,75.4,5c1.9-0.2,3.7-0.3,6.1-0.5L78,1053h202
						c-1.4-4-2.2-8.5-4.5-11.9c-11.2-16.9-22.9-33.6-34.3-50.4c-4.1-6.1-7.7-12.5-11.9-18.5c-3.3-4.7-2.4-8.4,1.2-12.5
						c15.8-17.8,31.6-35.7,47.1-53.8c7.6-8.8,14.5-18.3,21.7-27.4c0.7-0.9,1.4-1.8,2.1-2.6l1.4,0.5c-0.8,2.2-1.1,4.7-2.5,6.6
						c-8.3,11.5-16.3,23.1-25.3,34c-13.2,15.9-27,31.3-40.7,46.7c-2.4,2.7-2.5,4.8-0.7,7.5c11.7,17.6,23.3,35.3,35,52.8
						c3.7,5.5,8.3,10.5,11.6,16.2c2.3,3.8,3.2,8.5,4.7,12.8h101c-2.4-7-7.8-11.4-13.3-15.9c-24.8-19.9-52.1-35.9-79.7-51.5
						c-1.9-1-3.6-2.2-6.1-3.6c25.9-17.7,49.5-37,70.3-59.7s39.5-46.3,52.1-75v88h1.3c1.1-12.7,2.3-25.4,3.2-38.2
						c0.9-13,2-25.9,1.8-38.9s-2-25.8-3-39c7.3,6.3,14.6,12.5,21.8,18.9c1.2,1.1,1.9,3.1,2.4,4.8c2.6,8.5,4.7,17,7.5,25.4
						c15.1,44.7,34.8,87.2,62.3,125.8c2.8,3.9,5.9,7.5,9.4,12c-1.5,0.5-2.9,0.9-4.5,1.2c-8.5,0.9-16.9,1.8-25.4,2.6
						c-14.4,1.2-27.4,6.2-38.5,15.2c-10.6,8.7-20.4,18.5-30.6,27.9h10l23.1-21.6l0.7,0.8L441,1053h120c-1.6-2.1-3.1-4.3-4.9-6.2
						c-11.4-12.3-20.6-26.1-28.9-40.6c-2.1-3.6-1.7-5.8,1.4-8.5c28.5-24.8,56.8-49.9,85.6-74.4c26.5-22.6,53.9-44.1,80.1-67
						c22.1-19.4,39.8-42.6,51.4-69.9c0.4-0.7,0.8-1.4,1.2-2c10.2,2.9,18.4,9,26.8,15c10.3,7.4,14.7,17.5,14.1,29.8
						c-1.2,22.1-2.2,44.3-10.3,65.4c-10.8,28.2-26.4,53.8-45,77.5c-20.2,25.9-41,51.2-61.5,76.9c-1,1.3-1.9,2.7-2.8,4.1h134
						c9.2-9.1,18.3-18.3,27.8-27.1c3.3-3.1,5-6.1,5-10.7c0.2-29.8,0.6-59.6,1-89.4c0-2.5,0.4-5.1,0.7-7.6l1.7-0.1
						c0.5,2.7,0.8,5.5,1,8.3c0.5,18.6,0.7,37.3,1.2,55.9c0.3,12.3,0.9,24.6,1.5,36.9c0.2,4.7-2.2,7.8-5.4,10.7
						c-8.5,7.7-17,15.5-25.4,23.2h68c10.7-9.5,21.3-19,31.9-28.5c7.4-6.6,14.8-13.3,22.4-19.8c2.6-2.2,5.5-4.2,9.8-2.3
						c-16.2,14-32,27.8-47.9,41.5c-3.6,3.1-7.4,6.1-11.2,9.1h168c1.3-2.3,2.7-4.6,4.1-6.9
						C1058.6,1042.1,1057.4,1035.4,1053.4,1033.2z M212.6,749.5c-0.1-1.1,0.9-2.4,1.4-3.6c-1-0.5-2.6-0.8-2.8-1.5
						c-1.2-3.6-2-7.2-3.2-11.8l6.7,1.4l4.9-3.2l1,0.9c-2,4.6-4.1,9.1-6.1,13.7c2.7-4.2,5.7-8.2,7.9-12.6s5.8-5.9,11.1-6.3
						c-6.1,9.9-11.8,19.3-17.6,28.6l1.2,0.8c5.6-8.6,11.2-17.3,17-25.8c1-1.5,2.9-2.3,4.4-3.4c-0.3,2,0,4.4-1,6
						c-5.2,8.3-11,16.2-16.2,24.5c-1.9,3.1-2.9,6.8-4.3,10.3l-1.8,0.3C214.4,761.8,213.4,755.7,212.6,749.5z M239.1,741.5
						c-6.9,11.9-13.6,23.9-20.4,35.8c-0.3,0.6-0.7,1.1-1,1.6l-1.5-0.2c0.4-3.7,0.7-7.4,1.1-11.1l0,0l23.9-36.3
						c0.7,3,1.2,4.8,1.6,6.6C241.4,739,239.9,740,239.1,741.5L239.1,741.5z M756.3,525.8c1.4,2.9,2.8,5.8,3.8,7.9
						c1.4-1.7,2.9-3.5,4.4-5.4c3.8-4.7,7.4-9.5,11.3-14c3.7-4.3,7.6-8.4,11.6-12.4c2.8-2.8,5.8-2.4,8.1,0.7c2.1,2.6,3.9,5.4,5.2,8.4
						c8.5,20.3,10.3,41,3.7,62.4c-5.9,19.1-10.6,38.5-11.4,58.7c-0.1,6.2-1.1,12.3-3,18.2c-1.9,5.3-4.8,10.1-8.5,14.4
						c-3.7,4.4-12.2,4.8-16.6,1.5c-0.9-0.7-1.3-2.6-1.2-3.8c1.4-10.7,3-21.4,4.5-32l1.6,1c1.7-0.9,4-1.3,4.9-2.7
						c4.6-7.4,8.8-15.1,13.1-22.6l-1.5-0.9l-6.5,8.7l-1-0.4c1.2-8.3,2.1-16.7,3.5-25c2.5-15.3,3.5-13-8.7-20
						c-0.4-0.2-0.8-0.5-1.3-0.8c-9-5.7-9.5-10.9-1.1-17.2c1.3-1,4.4,0.3,7.8,0.7l-6.3-3.7c3.3-5.7,5.9-10,8.5-14.4l1.9-0.2
						c1.7,5,3.7,9.8,5,14.9c2.3,9.2,4.1,18.4,6.9,27.5c0.4-8,0.8-16.1,1.3-25.5c1.1,7.7,2.1,14.1,3.1,20.6c4.1-7.2,1.1-38.1-4.7-48
						l-1.3,2.6c-9.7-3-12.4-2.2-18.3,6.4c-3.3,4.9-6.2,10.1-9.4,15.4c0.1,0-0.2,0.1-0.5,0.1c-8.6-0.6-11.2-4.4-10-14.2
						C755.4,530.2,755.9,528,756.3,525.8L756.3,525.8z M653.1,207.9c-1.5,0-3,0-4.4,0c-1.3,0-2.7,0.2-3.9,0.7c4,0.9,8,1.7,12,2.8
						s8,2.4,10.7,3.3c0.8,1.4,0.9,2.3,1.4,2.4c6.2,2.4,12.6,4.3,18.6,7.2c7.4,3.5,14.4,7.8,21.6,11.8l-0.6,1.1l-11.9-4.4l-0.3,0.7
						l12.8,8.3l-0.7,1.2l-39.7-19.5l0.1-0.5l7.3,1.9c-36.2-17.3-74.2-15.7-112.7-11.7c1.3-0.4,2.7-0.8,4-1.3l4.1-1.3l-0.2-1.4
						l-54.5,6.1C561.7,202.4,607.2,202,653.1,207.9z M727.6,255.1c-0.3,0.6-0.6,1.3-0.9,1.9l-33.6-15.3c0.2-0.4,0.3-0.7,0.5-1.1
						L727.6,255.1z M614.3,235.2l-164.9,61C463.2,283.7,586.8,238,614.3,235.2z M438.1,294.6c41.4-27,86.8-44.8,133.7-59.3
						L438.1,294.6z M649.8,238.6l-164.9,51.6C537.5,266.3,592.9,249,649.8,238.6L649.8,238.6z M639.2,254.7l-19.5,5.5l0.1,0.8
						l20.4-3.1l0.2,0.9l-84.5,16C564.7,269.5,625.1,254.6,639.2,254.7L639.2,254.7z M661,263.4c0,0.5,0.1,0.9,0.1,1.4l-56.9,4.5
						c-0.1-0.4-0.2-0.9-0.3-1.3L661,263.4z M590.1,196.8l-100.3,13.6C520.5,202.7,554.8,197.3,590.1,196.8z M496.1,255.2l-17.7,9
						c0.1,0.3,0.2,0.6,0.4,0.9l42-17.6c-12.1,9.4-82.8,41-102.6,45.7l26.2-12.4l-0.1-0.4l-54.4,18.2
						C397.5,292,480.6,258.5,496.1,255.2L496.1,255.2z M457.1,253.1c-21.9,14.6-45,26.3-70.4,33l-0.8-1.7L457.1,253.1z M303.5,307.5
						c8.6-11.2,15.7-23,26.7-31.6c-7.7,4.5-15.5,8.9-23.2,13.4c-1.4,0.8-2.7,1.7-4.7,3c8.8-11.8,35.4-25.4,45.3-23.6l-11.2,5.1
						l6.7-0.9L303.5,307.5z M311.4,314.3c7-15.4,17.4-27.6,32.7-35.3c1.4-0.7,3.4-0.2,5.1-0.3c-0.6,1.6-1,3.3-1.9,4.6
						c-9.1,12.3-18.2,24.6-28,37.7c5.5-17.9,16.7-30.4,29.4-41.8C333,287.6,324.1,302.9,311.4,314.3z M331.8,317.9
						c2.6-8.1,7.7-15.3,14.5-20.5l-13.4,21.1L331.8,317.9z M397.5,532.9c-18.9,0.6-37.9,1.6-56.8,2.5c-2.1,0.1-4.3,0.5-7.4,0.9
						c0.8-33.8,5-66.1,23.4-95.1c2.1,0.4,3.5,0.4,4.6,0.9c7,3.1,13.8-3.2,14.6-10.6c1-10.3,1.8-20.6,3.2-30.8
						c0.6-3.8,1.8-7.4,3.4-10.8c4.1-8.9,7.9-18.1,13.2-26.3c4.6-7.2,10.9-13.3,16.6-19.7c0.8-0.6,1.8-0.9,2.7-0.8
						c9.7,0.3,19.3,0.6,29,1c0.4,0,0.8,0.4,2,1l-11.6,4.2c12.9-3.9,25.8-5.3,39.9-1l-12,6l0.4,1.3c2.8-0.5,5.8-0.6,8.5-1.6
						c10.5-4,21-3,31.9-1.7c15.3,1.8,30.8,2.1,46.3,2.6c15.1,0.5,30.3,1,45.4,0.6c16.5-0.4,32.9-1.8,49.3-2.7
						c5.4-0.3,10.8-0.8,16,2.4c3,1.8,7,2.4,10.5,2.6c4.4,0.2,5.7,1.9,5.9,6c0.3,6.5,1.2,12.9,1.9,19.4s5.7,9.4,11.8,7.3
						c4.3-1.5,8.7-2.9,13-4.6c2.9-1.1,4.7-0.5,6.3,2.1c9.4,15,18.5,30.2,21.7,47.9c1.5,8,4.2,15.5,9.7,21.6
						c9.4,10.5,9.3,23.8,11.1,36.6c1.5,10.5,3,21,4.5,31.5l0,0l0,0c-9.9-4.9-19.8-9.8-29.8-14.8c-22.8-11.2-46.5-11.4-70.7-5.6
						c-6.9,1.8-14,3.3-21.1,4.2c3.7-3,7.2-6.3,11-9.1c14-10.1,30.1-16.3,45.7-23.5c2.1-1,4.1-2,6.2-3l-0.6-1.8l-39.7,13.7l16.3-12.6
						l-0.2-0.4l-41.2,18.5l6-5.4c-1.3-0.9-1.6-1.2-1.7-1.2c-9.8,6.4-19.9,12.2-29.1,19.3c-6.1,4.7-10.9,11.1-15.9,17
						c-1.2,1.8-1.8,3.9-1.7,6.1c0.3,7.2-5.4,12.1-12.3,10.9c-3.7-0.6-7.6-0.1-11.2-0.1c-1.4-12.5-2.8-25.1-4.2-37.7h-0.7
						c-0.7,12.7-1.3,25.4-2.1,38.1c-0.1,1.3-1.3,2.8-2.4,3.6c-2.8,2.2-5.8,4-9,6.2l26.8-5.5c0.3-0.1,0.7-0.1,1-0.1
						c2.8,0.3,5.8,1.3,8.3,0.6c2.7-0.8,4.8-3.3,7-5c-0.9,4.4-1.7,8.6-2.6,13.4c-12.1-4.7-25.4-4.2-38.2,2.1c0.1,0.4,0.1,0.9,0.2,1.3
						l5.4-2.1c0.1,0.2,0.3,0.4,0.4,0.7l-8.8,6.1c-4-6.8-7.8-13.3-11.6-20c4.5-4.6,4.5-6.1-2.3-8.3c-21.8-7.2-42.9-16.6-66-19.2
						c-19.7-2.2-39.4-4.4-59-6.4c-2.8-0.3-5.6,0-8.8,0c0.6,1.2,0.9,1.8,1.2,2.4l-5.1,1.3l-0.1,1.6l9.4,2.3v0.4h-20l-0.3,1l3.2,1.8
						l-9.2,2.1c23.1,1.8,46.7,0,65.1,17.5l-41,10.2c0.4-1.9,0.6-3.6,1-5.2C404.7,535.8,402.9,532.8,397.5,532.9L397.5,532.9z
						 M396,646.9c-17.1,0.8-32.9,5.5-46.9,17.2c-1.7-6.9-3.6-13-4.6-19.2c-2.2-12.9-3.8-25.9-5.9-38.9c-0.5-3.1,0.1-4,3.4-5
						c7.3-2.2,14.2-5.5,21.5-8c4.5-1.6,9.1-2.6,13.3-3.7C383.2,608.7,389.5,627.4,396,646.9L396,646.9z M376.1,574.5
						c1.5,4.5,0.6,6.4-4.3,6.3c-3.2-0.1-6.5,1.2-10.1,1.9c-0.4-1.8-0.8-3.4-1.1-5.2L376.1,574.5z M355.2,581.5
						c1.5,3.7-2.9,7.1-13.3,9.9L355.2,581.5z M290.8,631.8c-7.2-10-17.7-8.3-28.7-6.7c21.7-21,42.7-41.5,73.8-44.7
						c-0.5-1.6-0.9-2.8-1.2-4l13.1,2.7C332.8,600.4,312.2,615.9,290.8,631.8z M318.8,653.8c4.1-5.2,8.3-10.2,12.1-15.4
						c1.1-1.5,2.3-3.8,2-5.3c-1.6-7-3.7-14-5.6-20.9l-2.2,0.3c0.3,3.4,0.2,6.8,0.8,10.1c2.1,11.5-0.1,19.2-8.9,28.8L298.6,634
						c-0.1,1.5-0.2,2.2-0.2,3l-1.1,0.1c-0.2-1.2-0.1-2.4,0.1-3.6c0.4-0.9,1.2-1.6,2.1-2c13.7-6.6,23.8-17.3,32.6-29.3
						c0.9-1.2,1.3-2.7,2.7-3.4c-2.6,12.1,2.4,22.7,3.8,33.6c1.3,10,3.4,20,5.6,29.9c0.9,4,0.2,6.6-3.6,8.4c-1.8,1-3.5,2.1-5.1,3.3
						L318.8,653.8z M365.8,715c-0.2,0.2-0.5,0.3-1.6,0.9l-26.9-37.2c8.9-5.8,16.7-10.8,24.4-15.9c12.9-8.5,26.6-14.3,42.6-11.7
						c2.1,0.3,4.5,0.4,6.3,1.4c2.8,1.7,7.2,4,7.3,6.2c0.2,4.6,0.5,9.9-4.7,13.3C395.1,683.8,378.2,697,365.8,715L365.8,715z
						 M545.1,975.5c-6.5,6.7-13.2,13.2-19.7,19.9c-3.8,4-4.9,4.1-8.6-0.3c-23.1-27.7-41.6-58.8-55-92.3c-4.9-12.1-9-24.6-13.5-36.9
						l1.5-0.8c2.3,4.2,4.8,8.3,7,12.5c11.7,22.6,28.8,40.2,49.9,54.1c5.6,3.7,10.9,7.6,16.5,11.3c10.5,7.1,17.3,17.4,23.4,28.1
						C547.2,972.1,546.1,974.5,545.1,975.5z M691.5,821.6l-1.4-0.6c1.5-3.2,3-6.5,4.5-9.7l-0.9-0.5c-5.3,8.6-11.3,16.8-15.8,25.8
						c-7.7,15.5-18.8,26-35.8,31.2c-15.4,4.7-30.1,11.6-45.1,17.8c21.8-5.6,42.7-14,62.9-24l0.6,1.1l-26.4,15.1l0.6,1.3l19.1-8.1
						c-4.4,7.3-7.3,13.9-16.8,15.2c-13.1,1.7-26,5.1-39,7.8l0.2,1.4l38.2-5.5l0.5,0.9c-3.6,1.9-7.1,4.5-10.9,5.5
						c-9.5,2.3-19.2,4.5-28.9,5.4c-25.7,2.3-51.2,0.9-74.6-11.3c-12.4-6.4-24.2-14.1-35-23c-6.4-5.3-10.2-13.9-14.5-21.3
						c-4.5-7.6-8.1-15.6-12.2-23.5l-1.1,0.5l14.3,36c-0.8-0.3-1.5-0.7-2.2-1.2c-12.2-8.7-24.2-17.7-36.5-26
						c-21.8-14.8-36.4-34.9-44.7-59.6c-6-17.8-11.3-35.9-17-53.8c-1.1-3.4-0.7-6.3,2-8.5c12.4-10.3,24.6-20.8,37.3-30.8
						c7.4-5.8,8.9-7.3,10.1-16.3c7.3-0.6,14.7-1.5,22.1-1.6c21.3-0.4,42.1-4,62.6-9.2c15.9-4,26-15.2,31.4-30.4
						c5.6-15.8,9.3-31.9,9.1-48.8c-0.1-5.8,1-6.8,8.1-8.1c0.7,6,1.4,12,2.2,18.1h0.3c0-5.6,0.3-11.2-0.1-16.8
						c-0.2-2.7,0.4-3.9,2.7-5c7.9-3.8,17.2-3.9,25.2-0.2c1.2,0.5,2.8,1.8,3,2.9c1.3,6,2.3,12.1,3.1,18.2c2.3,16.6,4.6,33.2,6.8,49.8
						l1.7-0.2c-1-11.4-2-22.8-3-34.8c3.7,4.7,6.8,9.2,10.5,13.2c14.7,15.6,32.8,23.8,54.4,22.9c25.8-1.1,50.7-7.3,75.1-15.6
						c9.1-3.1,14.9-8.7,16.1-18.3c1.6-12.9,3-25.8,4.6-38.6c0.2-1.2,1.1-2.4,1.7-3.6c0.8,1,2.3,2,2.4,3.1c1.4,29.1,7.2,58.5-4.1,87
						c-5.6,14.3-11.3,28.5-17,42.7c-0.7,1.2-0.8,2.6-0.5,4l17.8-34.3C758.4,721.7,729.9,773.8,691.5,821.6z M63.9,936.6
						c0.4-2-1.7-4.2-1.8-6.4c-0.5-20,0.2-40-1.4-59.9c-0.8-10.1,3-16,10.1-21.3c2.4-1.8,5.5-2.8,8.3-4.2l-1.1-0.5
						c0.3-1.1,0.3-2.5,1-3.2c3.5-3.6,7.2-6.9,10.7-10.5c1.5-1.5,2.4-3.5,3.8-5.7c-5.8,5-11.3,9.3-16.5,14
						c-5.4,4.9-11.7,7.9-18.5,10.4c-16.1,5.8-32,12.2-47.8,18.7c-10.1,4.2-19.9,9.3-29.8,14v6c24.3-13.8,49.3-26.2,76.4-34.2
						l-3.5,5.8c1.9,2.4,3.1,4.8,3.1,7.3c0.6,19.3-0.5,38.7,1.8,57.8c1.5,12.9-1.7,21.9-10.9,29.8c-3.3,2.8-6.1,6.2-9.6,8.7
						c-19,13.4-38.2,26.6-57.3,39.8v6c8.3-4.7,16.6-9.2,24.8-14.1c21.1-12.5,40.1-27.4,54.4-47.7C62.2,944.2,63.3,940.2,63.9,936.6
						L63.9,936.6z M95,807.1c5.6-29.1,11-58.3,17-87.3c3.6-17.4,11.5-32.6,25.9-43.7c1.3-1,2.6-2,3.9-3l-1.2-1.2l-21.5,16.6
						c6.3-14.9,12.8-29.8,19-44.9c1.6-4,4.2-6.1,8.4-6.7c7.2-1,14.4-2.2,21.6-3.3c0-0.4-0.1-0.8-0.1-1.1c-8,0.4-16,0.9-24,1.2
						c-4.4,0.2-6.5,2.7-8.5,6.4c-7.6,14.4-12.8,29.6-17.6,45c-2.2,7.1-6.4,13.7-7.8,20.9c-4.5,24.5-8.2,49.2-12.1,73.8
						c-1.5,9.7-2.8,19.3-4.2,29C94.6,808.4,94.9,807.8,95,807.1z M160.6,631.9c17.2-6.5,34.2-13.3,47-27.3
						c21.4-23.3,46-41.8,77.1-50.1c1.1-0.3,2.2-0.8,3.3-1.1l12.9-4.5c-0.1-0.2-0.1-0.4-0.2-0.6c-4.4,0.6-8.9,0.7-13.1,2
						c-10.4,3-20.6,6.5-30.8,10c-2.7,0.8-5.2,2.1-7.5,3.8c-13,10.9-26.1,21.8-38.5,33.3c-8.5,7.9-17.1,15.2-27.5,20.4
						c-8.3,4.2-16.2,9-25,14C159.7,631.8,160.2,632,160.6,631.9L160.6,631.9z M190,858.4l-29.7,35.5
						C173.2,884.8,183.6,873.3,190,858.4L190,858.4z M176.2,863.8l-28.6,22.3C160.1,882.5,168.5,873.6,176.2,863.8L176.2,863.8z
						 M229.6,776c-3.2,9.3-6.3,18.5-9.5,27.8l1.8,0.5l9.2-27.8L229.6,776z M131.9,882.6c6.4,0.4,17-4,22.2-9.7L131.9,882.6z
						 M112.8,886.7l18.1-6.8c-0.1-0.5-0.3-1-0.5-1.5l-18,7.2L112.8,886.7z M716.6,937.5l37.9-44.5c-0.3-0.3-0.6-0.7-1-1l-38.1,44.5
						L716.6,937.5z M764.1,830.5l-23.3,38.3l1.2,0.7l23.6-38.1L764.1,830.5z M604,768.6h-0.4l0,0l-0.2,0.1h0.3L604,768.6z
						 M600.5,770.5c0.8,0.1,1.9-1.1,2.9-1.8c-1.5,0.3-3.1,0.3-4.7,0.2c-14-2.7-27.9-6.3-42.4-3.5c12-6.8,24-12.7,38.4-9.6
						c-2.4-1-4.8-1.3-6.9-2.2c-6.2-2.6-12-1.5-17.7,1.6c-12,6.5-24,12.8-35.9,19.6c-3.2,1.8-5.8,5-8.3,7.8c-1.1,1.2-1.3,3.3-2.3,6.4
						c3.4-1.3,5.2-1.8,7-2.7C552.7,775.9,575,766.3,600.5,770.5L600.5,770.5z M626.8,760.4c8.7-4.5,15.7-1.6,22.4,4
						c1.3,1.1,2.4,2.7,3.8,3.1c1.8,0.6,4.7,1.1,5.8,0.2s1-3.9,0.5-5.7c-1.6-6.7-6.8-10.8-11.8-14.9c-9.8-8-17.8-7.6-26.3,0.8
						c4.5-1.3,10.4-4.9,15.3-3.8s8.9,6.6,13.5,10.5c-6.8,0.5-12.9-0.2-18.2,1.6c-9.6,3.4-18.6,8.2-27.9,12.5
						c1.8-0.1,3.6-0.4,5.3-0.9C615.3,765.6,621.2,763.1,626.8,760.4L626.8,760.4z M653.8,688.9l-1.6,1.7c5.3,5,10.6,9.9,15.8,15
						c3.7,3.7,5.9,8.6,6.2,13.8c0.5,7.5,1.9,14.9,2.8,22.4c1.1-7.8,1.7-15.7,2-23.5c0.1-2.7-0.2-6.3-1.9-7.9
						C669.6,702.9,661.6,696,653.8,688.9L653.8,688.9z M659.2,638.6l-4.8,0.5l35.8,12.6c-7.8-8.5-38.6-20.6-49-19.3l18.1,5.6
						L659.2,638.6z M608.8,686.1c0.9-1.4,0.8-3.8,0.4-5.6c-0.7-2.9-1.6-5.7-2.6-8.5c2,7-0.9,12.2-5.1,17.6c-3.9,5-6.4,11.1-9.5,16.8
						l1.6,1C598.6,700.3,603.9,693.3,608.8,686.1L608.8,686.1z M603.3,699.9l8.9-4.8l-2.1,4.6c4.5-2.8,8-4.6,11-7.1
						c1.1-1,1.1-3.4,1.5-5.1c-1.8-0.3-4.3-1.6-5.3-0.9c-5.2,3.7-10,8-14.9,12L603.3,699.9z M547.9,702.7c7.1-1.3,13.4,0.6,20.3,5.1
						c-0.2-5.5-2.8-7.6-6.3-8.6c-5.1-1.5-10.3-4.4-15.7-1c-0.8,0.7-1.1,1.8-0.9,2.9C545.8,702.1,546.8,702.7,547.9,702.7
						L547.9,702.7z M403.4,725.1c1.3,9.8,10.8,29.5,17,34.1c-5.6-12.1-10.7-23.3-15.9-34.5L403.4,725.1z M669.1,817l-27.5,33.2
						C654,841.8,662.3,830,669.1,817z M624,693.5l1.4,0.3c1.4-3.2,4.7-7.1,3.9-9.4c-2.5-7-6.7-13.3-10.3-19.9
						C618.2,674.9,630.2,682.2,624,693.5z M531.8,702.6c4.9,2.8,9.8,5.4,14.7,8l0.6-0.8c-4-3.1-7.9-6.4-12.2-9.2
						c-2.6-1.7-3.2-3.3-2.2-6.1c1.2-3.3,2.1-6.8,3.2-10.2c-2.7,3.6-4.2,7.6-6.1,11.5C528.5,698.8,529,701.1,531.8,702.6L531.8,702.6
						z M636.2,861.9l1.3,1.5l31.5-26.8l-1.3-1.2L636.2,861.9z M414.2,734.6c4.8,10,8.2,20.7,15.5,29.3l1.5-0.8l-15.6-29.2
						L414.2,734.6z M402.8,747.9l-10.9-35.4C392.3,725.7,395.2,737.5,402.8,747.9L402.8,747.9z M585.2,891.4l37.5-7.1l-0.3-1.4
						l-37.5,7.3C585,890.7,585.1,891.1,585.2,891.4z M672.2,651.5l22.2,10.3c0.3-0.6,0.5-1.2,0.8-1.8l-22.2-9.9L672.2,651.5z
						 M640.4,793.5l-5.6,3.9l13.8-14.6l-0.9-1c-2.5,1.8-5,3.6-7.4,5.5c-7.9,5.9-15.6,12-23.6,17.6c-2.2,1.6-5.4,1.8-8.2,2.6
						l-0.6-1.6c3.7-2.4,7.5-4.8,11.1-7.3c3.8-2.7,7.7-5.3,11.4-8.2c3.4-2.6,6.7-5.4,10-8.2c-31,15.9-63.1,26.2-98,26.4l8.4,0.4v0.6
						l-13.6,1.1l0.1,1.1l48,1.7v1.9h-45c17.3,5.6,42.7,5.6,72.2,0h-21l-0.1-1.5c3.2-0.4,6.6-1.7,9.6-1c5.4,1.3,9.3-1.1,13.5-3.4
						c5.1-2.8,10.1-5.7,15.2-8.5l-6.5,5.7l0.7,0.9l17.4-13.1L640.4,793.5z M387,706.2l3.2,28.1l1.5-0.2c-1-9.4-2.1-18.7-3.1-28.1
						L387,706.2z M432.2,757.9l7.1,17.1l1.7-0.7c-2.4-5.7-4.9-11.4-7.3-17L432.2,757.9z M661.5,819.4l1,0.5l6.7-14l-1.2-0.5
						L661.5,819.4z M580.7,526.6c5.1-21.6,12.9-41.2,30-55.6C592.4,480.1,572.8,515.7,580.7,526.6z M481.3,456.2
						c5.6,2.6,12.6,3,18.9,2.7c9.9-0.4,19.7-2.3,29.6-3.5c-6.2-0.4-12.5,0.2-18.6-0.6c-8.9-0.9-17.6-2.5-26.3-4.8
						c-10.8-3-21.3-7.3-31.9-11c-2.7-0.9-5.5-1.6-8.4-2.5c0.1-1,0.3-2.2,0.6-4.3l-33,2.3l0.2,2.1c2.5-0.4,5-1.3,7.4-1
						c2.6,0.3,5.1,1.8,8.4,3l-17.5,3.5C435.8,438.1,458.7,445.7,481.3,456.2L481.3,456.2z M570.5,436.5l0.6-0.2L570.5,436.5h-0.3
						H570.5L570.5,436.5z M586.5,434.8l-8.5,3.7c17-3.6,33-9.6,47-20c-2,0.2-3.9,0.6-5.7,1.3c-10.6,3.9-21.1,7.9-31.8,11.6
						c-5.4,1.9-10.9,3.3-16.3,4.8l15.2-2L586.5,434.8z M570.3,436.4c-2.2-0.1-4.4-0.3-6.7-0.3c-17.4,0.2-34.8,0.4-52.2,0.6
						c-1.2,0-2.4,0.2-3.5,0.3C528.3,443,550,442.7,570.3,436.4L570.3,436.4z M625.4,453.1l25.5-25.2
						C638.8,434.5,628.8,442.1,625.4,453.1L625.4,453.1z M637.6,413.9l-24.9,18.5C622.7,428.6,631.2,422.7,637.6,413.9L637.6,413.9z
						 M686.7,485.9l13.6-3.8l-0.6-1.9l-13.4,4L686.7,485.9z"/>
				</g>
				<g id="Haar">
					<path class="st4" d="M668.7,223.6l39.7,19.5l0.7-1.2l-12.8-8.3l0.3-0.7l11.9,4.4l0.6-1.1c-7.2-4-14.2-8.3-21.6-11.8
						c-6-2.9-12.4-4.8-18.6-7.2c-0.4-0.2-0.6-1-1.4-2.4c-2.8-0.9-6.7-2.2-10.7-3.3s-8-1.9-12-2.8c1.2-0.5,2.6-0.7,3.9-0.7
						c1.5-0.1,3,0,4.4,0c-45.9-5.9-91.4-5.5-136.2,7.4l54.5-6.1l0.2,1.4l-4.1,1.4c-1.3,0.4-2.7,0.9-4,1.3
						c38.5-3.9,76.5-5.5,112.7,11.7l-7.3-1.9L668.7,223.6z M520.8,247.4l-42,17.6c-0.1-0.3-0.2-0.6-0.4-0.9l17.7-9
						c-15.5,3.3-98.6,36.8-106.2,43.3l54.4-18.2l0.1,0.4L418.2,293C438,288.4,508.8,256.8,520.8,247.4z M449.4,296.2l164.9-61
						C586.8,238,463.2,283.7,449.4,296.2L449.4,296.2z M484.9,290.2l164.9-51.6C592.9,249,537.5,266.3,484.9,290.2L484.9,290.2z
						 M438.1,294.7l133.8-59.3C524.9,249.8,479.5,267.7,438.1,294.7L438.1,294.7z M344.1,279c-15.3,7.7-25.7,19.9-32.7,35.3
						c12.7-11.4,21.7-26.7,37.2-35c-12.6,11.5-23.9,23.9-29.4,41.8c9.8-13.1,19-25.4,28-37.7c1-1.3,1.3-3.1,1.9-4.6
						C347.5,278.8,345.5,278.3,344.1,279L344.1,279z M640.2,258l-20.4,3l-0.1-0.8l19.5-5.6c-14.1-0.1-74.5,14.8-83.3,20.1l84.5-16
						L640.2,258z M385.9,284.4l0.8,1.7c25.4-6.7,48.6-18.4,70.4-33L385.9,284.4z M303.5,307.5L343,273l-6.7,0.8l11.2-5.1
						c-9.9-1.8-36.5,11.8-45.3,23.6c1.9-1.2,3.3-2.1,4.7-3c7.7-4.5,15.5-8.9,23.2-13.4C319.2,284.5,312.1,296.3,303.5,307.5z
						 M489.8,210.3l100.3-13.5C554.8,197.3,520.5,202.7,489.8,210.3L489.8,210.3z M603.9,268c0.1,0.4,0.2,0.9,0.3,1.3l56.9-4.5
						c0-0.5-0.1-0.9-0.1-1.4L603.9,268z M693.6,240.6c-0.2,0.4-0.3,0.7-0.5,1.1l33.6,15.3c0.3-0.6,0.6-1.3,0.9-1.9L693.6,240.6z
						 M331.8,317.9l1.1,0.7l13.4-21.1C339.5,302.6,334.4,309.8,331.8,317.9z"/>
				</g>
				<g id="kraag">
					<path class="st6" d="M773.6,799.4c-8.4-6-16.6-12.1-26.8-15c-0.4,0.6-0.8,1.3-1.2,2c-11.7,27.3-29.3,50.5-51.4,69.9
						c-26.2,22.9-53.6,44.4-80.1,67c-28.8,24.5-57,49.7-85.6,74.4c-3.1,2.7-3.5,4.8-1.4,8.5c8.3,14.5,17.5,28.3,28.9,40.6
						c1.8,1.9,3.3,4.1,4.9,6.2h107c0.9-1.4,1.8-2.8,2.8-4.1c20.5-25.6,41.3-51,61.5-76.9c18.5-23.7,34.2-49.3,45-77.5
						c8.1-21,9.1-43.2,10.3-65.4C788.3,816.8,783.9,806.7,773.6,799.4z M716.6,937.5l-1.1-1l38.1-44.5c0.3,0.3,0.6,0.7,1,1
						L716.6,937.5z M742.1,869.5l-1.2-0.7l23.3-38.3l1.5,0.9L742.1,869.5z M444.2,868.4c-2.8-8.4-5-16.9-7.5-25.4
						c-0.5-1.7-1.1-3.7-2.4-4.8c-7.1-6.4-14.4-12.6-21.8-18.9c1.1,13.2,2.8,26.1,3,39s-0.9,26-1.8,38.9c-0.9,12.7-2.1,25.5-3.2,38.2
						h-1.3v-88c-12.6,28.7-31.4,52.5-52.1,75s-44.4,42-70.3,59.7c2.5,1.5,4.3,2.6,6.1,3.6c27.6,15.5,54.9,31.5,79.7,51.5
						c5.5,4.4,10.9,8.8,13.3,15.9h31c10.2-9.3,19.9-19.1,30.6-27.9c11-9,24.1-14,38.5-15.2c8.5-0.7,16.9-1.7,25.4-2.6
						c1.5-0.3,3-0.7,4.5-1.2c-3.5-4.4-6.6-8.1-9.4-12C478.9,955.6,459.3,913.1,444.2,868.4L444.2,868.4z"/>
				</g>
				<g id="Face">
					<path class="st3" d="M523.2,943.1c-5.5-3.7-10.9-7.7-16.5-11.3c-21.1-13.9-38.2-31.5-49.9-54.1c-2.2-4.2-4.6-8.4-7-12.5
						l-1.5,0.8c4.5,12.3,8.6,24.8,13.5,36.9c13.4,33.5,31.9,64.6,55,92.3c3.7,4.4,4.8,4.2,8.6,0.3c6.5-6.7,13.2-13.2,19.7-19.9
						c1-1,2-3.4,1.5-4.3C540.5,960.5,533.8,950.2,523.2,943.1z M741.9,689.2c5.7-14.2,11.4-28.5,17-42.7c11.2-28.5,5.5-57.9,4.1-87
						c-0.1-1.1-1.5-2.1-2.4-3.1c-0.6,1.2-1.6,2.4-1.7,3.6c-1.6,12.9-2.9,25.8-4.6,38.6c-1.2,9.6-7,15.3-16.1,18.3
						c-24.4,8.3-49.3,14.5-75.1,15.6c-21.5,0.9-39.7-7.3-54.4-22.9c-3.7-4-6.8-8.5-10.5-13.2c1,12,2,23.4,3,34.8l-1.7,0.2
						c-2.3-16.6-4.5-33.2-6.8-49.8c-0.9-6.1-1.9-12.1-3.1-18.2c-0.2-1.1-1.8-2.4-3-2.9c-8-3.7-17.2-3.6-25.2,0.2
						c-2.3,1.1-2.9,2.3-2.7,5c0.4,5.6,0.1,11.2,0.1,16.8h-0.3c-0.7-6-1.4-12-2.2-18.1c-7.1,1.2-8.2,2.3-8.1,8.1
						c0.2,16.9-3.5,33.1-9.1,48.8c-5.4,15.1-15.5,26.4-31.4,30.4c-20.5,5.2-41.4,8.8-62.6,9.2c-7.4,0.2-14.7,1.1-22.1,1.6
						c-1.3,9-2.8,10.5-10.1,16.3c-12.7,10-24.9,20.5-37.3,30.8c-2.7,2.3-3.1,5.1-2,8.5c5.7,17.9,11.1,36,17,53.8
						c8.3,24.7,22.9,44.8,44.7,59.6c12.4,8.4,24.4,17.4,36.5,26c0.7,0.5,1.5,0.9,2.3,1.3l-14.4-36.1l1.1-0.5
						c4,7.8,7.7,15.9,12.2,23.5c4.4,7.4,8.2,16,14.5,21.3c10.8,8.9,22.6,16.6,35,23c23.4,12.2,48.9,13.6,74.6,11.3
						c9.7-0.9,19.4-3.1,28.9-5.4c3.9-0.9,7.3-3.6,10.9-5.5l-0.5-0.9l-38.2,5.5l-0.2-1c13-2.7,26-6.1,39.1-7.8
						c9.5-1.2,12.4-7.9,16.8-15.2l-19.1,8.1l-0.6-1.3l26.4-15.1l-0.6-1.1c-20.3,9.9-41.1,18.4-62.9,24c15-6.2,29.7-13.1,45.1-17.8
						c17-5.2,28.1-15.7,35.8-31.2c4.5-9,10.5-17.2,15.8-25.8l0.9,0.5c-1.5,3.2-3,6.5-4.5,9.7l1.4,0.6
						c38.4-47.8,66.9-99.9,67.7-162.7l-17.8,34.2C741.1,691.9,741.3,690.5,741.9,689.2z M390.2,734.3l-3.2-28.1l1.7-0.2
						c1,9.3,2,18.7,3.1,28.1L390.2,734.3z M391.9,712.5l10.9,35.4C395.2,737.5,392.3,725.7,391.9,712.5z M403.4,725.1l1.1-0.5
						c5.2,11.2,10.3,22.4,15.9,34.5C414.2,754.6,404.7,734.9,403.4,725.1L403.4,725.1z M429.7,763.8c-7.4-8.6-10.7-19.3-15.5-29.3
						l1.4-0.8l15.6,29.2L429.7,763.8z M439.4,775l-7.1-17.1l1.6-0.7c2.4,5.7,4.9,11.3,7.3,17L439.4,775z M690.1,651.8l-35.8-12.6
						l4.8-0.5l0.1-0.6l-18.1-5.6C651.5,631.1,682.3,643.3,690.1,651.8z M647.5,747c5,4.1,10.2,8.2,11.8,14.9
						c0.4,1.8,0.5,4.8-0.5,5.7s-4,0.4-5.8-0.2c-1.5-0.5-2.5-2-3.8-3.1c-6.7-5.6-13.7-8.5-22.4-4c-5.7,2.7-11.5,5.2-17.5,7.3
						c-1.8,0.5-3.6,0.8-5.4,0.9c9.3-4.3,18.3-9.1,27.9-12.5c5.2-1.8,11.4-1.1,18.2-1.6c-4.7-3.8-8.6-9.4-13.5-10.5
						s-10.8,2.5-15.3,3.8C629.7,739.5,637.7,739,647.5,747z M619.1,664.5c3.5,6.6,7.7,13,10.3,19.9c0.9,2.3-2.5,6.2-3.9,9.4
						l-1.4-0.3C630.2,682.2,618.2,674.9,619.1,664.5L619.1,664.5z M617.3,686.6c1-0.7,3.5,0.5,5.3,0.9c-0.5,1.8-0.4,4.2-1.5,5.1
						c-3,2.5-6.5,4.3-11,7.1l2.1-4.6l-8.9,4.8l-0.9-1.2C607.3,694.6,612.1,690.4,617.3,686.6L617.3,686.6z M601.4,689.6
						c4.2-5.5,7.2-10.6,5.1-17.6c1,2.8,1.9,5.6,2.6,8.5c0.4,1.8,0.5,4.2-0.4,5.6c-4.9,7.2-10.1,14.2-15.3,21.3l-1.6-1
						C595,700.8,597.6,694.7,601.4,689.6L601.4,689.6z M546.1,698.2c5.4-3.5,10.6-0.5,15.7,1c3.5,1,6.1,3.1,6.3,8.6
						c-6.8-4.5-13.2-6.4-20.3-5.1c-1.1,0-2.1-0.6-2.7-1.6C545,700,545.3,699,546.1,698.2L546.1,698.2z M529.9,695.8
						c1.8-3.9,3.4-7.9,6.1-11.5c-1,3.4-2,6.9-3.2,10.2c-1,2.8-0.5,4.4,2.2,6.1c4.2,2.8,8.1,6.1,12.2,9.2l-0.6,0.8
						c-4.9-2.7-9.9-5.3-14.7-8C529,701.1,528.5,698.8,529.9,695.8L529.9,695.8z M523.7,789.1c1.1-3.1,1.2-5.1,2.3-6.4
						c2.5-2.8,5.1-6,8.3-7.8c11.8-6.8,23.9-13.1,35.9-19.6c5.6-3,11.4-4.2,17.7-1.6c2.1,0.9,4.5,1.1,6.9,2.2
						c-14.4-3.1-26.4,2.8-38.4,9.6c14.5-2.8,28.4,0.8,42.4,3.5c1.6,0.1,3.2,0.1,4.7-0.2c-1,0.7-2.1,1.9-3,1.8
						c-25.5-4.2-47.8,5.4-69.9,16C528.9,787.3,527.1,787.9,523.7,789.1L523.7,789.1z M622.4,883l0.3,1.4l-37.5,7.1
						c-0.1-0.4-0.2-0.8-0.2-1.1L622.4,883z M623.1,806.9l6.5-5.7c-5.1,2.8-10.1,5.8-15.2,8.5c-4.2,2.3-8.1,4.7-13.5,3.4
						c-2.9-0.7-6.4,0.6-9.6,1l0.1,1.5h21c-29.5,5.6-54.9,5.6-72.2,0h45v-1.9l-48-1.7l-0.1-1.1l13.6-1.1v-0.6l-8.4-0.4
						c34.9-0.3,67-10.5,98-26.4c-3.3,2.7-6.6,5.5-10,8.2c-3.7,2.8-7.5,5.5-11.4,8.2c-3.7,2.5-7.4,4.9-11.1,7.3l0.6,1.6
						c2.8-0.8,5.9-1.1,8.2-2.6c8-5.6,15.8-11.7,23.6-17.6c2.5-1.8,4.9-3.7,7.4-5.5l0.9,1l-13.9,14.6l5.6-3.9l0.9,1.2L623.7,808
						L623.1,806.9z M637.5,863.5l-1.3-1.5l31.6-26.4l1.3,1.2L637.5,863.5z M641.6,850.2l27.5-33.2C662.3,830,654,841.8,641.6,850.2
						L641.6,850.2z M662.6,820l-1-0.5l6.5-14l1.2,0.5L662.6,820z M679,718.2c-0.3,7.9-0.9,15.7-2,23.5c-1-7.5-2.3-14.9-2.8-22.4
						c-0.3-5.2-2.5-10.1-6.2-13.8c-5.1-5.1-10.5-10-15.8-15l1.6-1.7c7.8,7.1,15.8,14,23.3,21.4C678.8,711.9,679.1,715.5,679,718.2z
						 M694.3,661.9l-22.2-10.3l0.8-1.4l22.2,9.9C694.9,660.7,694.6,661.3,694.3,661.9z M397.5,532.9c5.4-0.2,7.2,2.8,6.1,8.3
						c-0.4,1.7-0.6,3.4-1,5.2l41-10.2c-18.4-17.5-42-15.7-65.1-17.5l9.2-2.1l-3.2-1.8l0.3-1h20v-0.4l-9.4-2.3l0.1-1.6l5.1-1.3
						c-0.3-0.6-0.6-1.2-1.2-2.4c3.2,0,6-0.2,8.8,0c19.7,2.1,39.4,4.2,59,6.4c23.1,2.6,44.2,12,66,19.2c6.8,2.2,6.9,3.7,2.3,8.3
						c3.9,6.7,7.7,13.2,11.6,20l8.8-6.1c-0.1-0.2-0.3-0.5-0.4-0.7l-5.4,2c-0.1-0.5-0.2-0.9-0.2-1.3c12.8-6.3,26.1-6.8,38.2-2.1
						c1-4.8,1.8-9,2.6-13.4c-2.2,1.7-4.3,4.2-7,5c-2.5,0.7-5.5-0.3-8.3-0.6c-0.3,0-0.7,0-1,0.1l-26.8,5.5c3.2-2.2,6.2-4,9-6.2
						c1.1-0.9,2.3-2.3,2.4-3.6c0.8-12.7,1.5-25.4,2.1-38.1h0.7c1.4,12.6,2.8,25.2,4.2,37.7c3.7,0,7.5-0.5,11.2,0.1
						c7,1.2,12.7-3.7,12.3-10.9c-0.2-2.2,0.4-4.3,1.7-6.1c5-5.9,9.8-12.3,15.9-17c9.2-7.1,19.3-13,29.1-19.3c0.1,0,0.4,0.3,1.7,1.2
						l-6,5.4l41.2-18.4l0.2,0.4L657,485.9l39.7-13.7l0.6,1.8c-2.1,1-4.1,2-6.2,3c-15.6,7.2-31.6,13.4-45.7,23.5
						c-3.8,2.8-7.3,6-11,9.1c7.1-1,14.2-2.4,21.1-4.2c24.2-5.8,47.9-5.6,70.7,5.6c9.9,4.9,19.9,9.8,29.8,14.7
						c-1.5-10.5-3-21-4.5-31.5c-1.8-12.8-1.7-26-11.1-36.6c-5.4-6.1-8.2-13.6-9.7-21.6c-3.3-17.8-12.3-32.9-21.7-47.9
						c-1.6-2.5-3.5-3.2-6.3-2.1c-4.3,1.7-8.7,3.1-13,4.6c-6.1,2.1-11.1-1-11.8-7.3s-1.6-12.9-1.9-19.4c-0.2-4.1-1.5-5.9-5.9-6
						c-3.6-0.1-7.6-0.8-10.5-2.6c-5.2-3.2-10.5-2.7-16-2.4c-16.4,0.9-32.8,2.3-49.3,2.7c-15.1,0.4-30.2-0.1-45.4-0.6
						c-15.4-0.5-30.9-0.9-46.3-2.6c-10.9-1.3-21.4-2.3-31.9,1.7c-2.6,1-5.6,1.1-8.5,1.6l-0.4-1.3l12-6c-14.1-4.3-27-2.9-39.9,1
						l11.6-4.2c-1.2-0.7-1.6-1-2-1c-9.7-0.4-19.3-0.8-29-1c-1-0.1-2,0.2-2.7,0.9c-5.7,6.5-12,12.5-16.6,19.7
						c-5.2,8.2-9,17.4-13.2,26.3c-1.7,3.4-2.8,7.1-3.4,10.8c-1.3,10.2-2.1,20.5-3.2,30.8c-0.7,7.3-7.5,13.6-14.6,10.6
						c-1.2-0.5-2.6-0.5-4.6-0.9c-18.4,29-22.5,61.4-23.4,95.1c3.1-0.4,5.2-0.8,7.4-0.9C359.6,534.6,378.5,533.5,397.5,532.9z
						 M700.3,482.1l-13.6,3.8l-0.4-1.7l13.4-4L700.3,482.1z M580.7,526.6c-7.9-10.9,11.6-46.5,30-55.6
						C593.6,485.4,585.8,505,580.7,526.6z M650.8,427.9l-25.5,25.2C628.8,442.1,638.8,434.5,650.8,427.9L650.8,427.9z M612.7,432.4
						l24.9-18.5C631.2,422.7,622.7,428.6,612.7,432.4L612.7,432.4z M587.5,431.5c10.7-3.7,21.2-7.7,31.8-11.6
						c1.8-0.7,3.8-1.2,5.7-1.3c-14.1,10.4-30,16.3-47,20l8.5-3.7l-0.2-0.5l-15.4,2C576.5,434.7,582,433.3,587.5,431.5z M511.4,436.7
						c17.4-0.2,34.8-0.4,52.2-0.6c2.2,0,4.5,0.2,6.7,0.3c-20.3,6.3-42,6.5-62.4,0.6C509,436.9,510.2,436.7,511.4,436.7z
						 M419.7,435.5c-2.4-0.3-5,0.6-7.4,1l-0.2-2.1l33-2.3c-0.3,2.1-0.5,3.3-0.6,4.3c3,0.9,5.7,1.6,8.4,2.5c10.6,3.7,21.1,8,31.9,11
						c8.6,2.3,17.4,3.9,26.3,4.8c6.2,0.7,12.5,0.1,18.7,0.6c-9.9,1.2-19.7,3.1-29.6,3.5c-6.3,0.3-13.4-0.1-18.9-2.7
						c-22.5-10.5-45.4-18-70.7-14.1l17.5-3.5C424.8,437.4,422.3,435.9,419.7,435.5z M800.6,511c-1.4-3-3.2-5.9-5.2-8.4
						c-2.3-3.1-5.3-3.5-8.1-0.7c-4,4-7.9,8.1-11.6,12.4c-3.9,4.5-7.5,9.3-11.3,14c-1.5,1.8-3,3.7-4.4,5.4c-1-2.1-2.4-5-3.8-7.9
						c-0.4,2.2-0.8,4.5-1.1,6.7c-1.2,9.8,1.4,13.6,10,14.2c0.3,0,0.6-0.2,0.5-0.1c3.2-5.3,6-10.5,9.4-15.4c5.9-8.6,8.6-9.4,18.3-6.4
						l1.3-2.6c5.8,9.9,8.8,40.8,4.7,48c-1-6.5-1.9-12.9-3.1-20.6c-0.5,9.4-0.9,17.4-1.3,25.5c-2.8-9.1-4.6-18.4-6.9-27.5
						c-1.3-5.1-3.3-10-5-14.9l-1.9,0.2c-2.6,4.4-5.2,8.8-8.5,14.4l6.3,3.8c-3.3-0.4-6.4-1.7-7.8-0.7c-8.5,6.3-8,11.5,1.1,17.2
						c0.4,0.3,0.8,0.5,1.3,0.8c12.2,7,11.2,4.7,8.7,20c-1.4,8.3-2.3,16.6-3.5,25l1,0.4l6.5-8.7l1.5,0.9c-4.3,7.6-8.5,15.2-13.1,22.6
						c-0.9,1.4-3.2,1.8-4.9,2.7l-1.6-1c-1.5,10.7-3.1,21.3-4.5,32c-0.2,1.2,0.3,3.2,1.2,3.8c4.4,3.3,12.9,2.9,16.6-1.5
						c3.7-4.2,6.6-9.1,8.5-14.4c1.9-5.9,2.9-12,3-18.2c0.8-20.2,5.5-39.6,11.4-58.7C810.9,552,809.1,531.4,800.6,511z M376.6,589.3
						c-4.1,1.1-8.8,2.1-13.3,3.7c-7.2,2.5-14.2,5.9-21.5,8c-3.3,1-3.9,1.9-3.4,5c2.1,13,3.7,26,5.9,38.9c1.1,6.3,3,12.4,4.6,19.2
						c14-11.7,29.8-16.3,46.9-17.2C389.5,627.4,383.2,608.7,376.6,589.3L376.6,589.3z M361.6,582.8c3.7-0.8,6.9-2,10.1-1.9
						c4.9,0.1,5.9-1.8,4.3-6.3l-15.6,3C360.9,579.3,361.2,580.9,361.6,582.8L361.6,582.8z M355.1,581.5l-13.3,9.9
						C352.3,588.6,356.6,585.3,355.1,581.5L355.1,581.5z"/>
				</g>
			</g>
		</g>
	</g>
</g>
</svg>
