<?xml version="1.0" encoding="utf-8"?>
<!-- Generator: Adobe Illustrator 25.4.1, SVG Export Plug-In . SVG Version: 6.00 Build 0)  -->
<svg version="1.1" id="Laag_1" xmlns="http://www.w3.org/2000/svg" xmlns:xlink="http://www.w3.org/1999/xlink" x="0px" y="0px"
	 viewBox="0 0 1050 1050" style="enable-background:new 0 0 1050 1050;" xml:space="preserve">
<style type="text/css">
	.st0{clip-path:url(#SVGID_00000080206909759797328020000016655384827652404888_);}
	.st1{fill:#00F0A6;}
	.st2{clip-path:url(#SVGID_00000133499765780218747150000009245858535337937322_);}
	.st3{fill:#FFFFFF;}
	.st4{fill:#FFA93D;}
	.st5{clip-path:url(#SVGID_00000046341730989864017780000016645053785178991012_);}
	.st6{fill:url(#SVGID_00000060016035126665963960000009025118817520326045_);}
</style>
<g>
	<g>
		<defs>
			<circle id="SVGID_1_" cx="525" cy="525" r="525"/>
		</defs>
		<clipPath id="SVGID_00000100368238693118568590000010052170820527645631_">
			<use xlink:href="#SVGID_1_"  style="overflow:visible;"/>
		</clipPath>
		<g id="Back" style="clip-path:url(#SVGID_00000100368238693118568590000010052170820527645631_);">
			<rect class="st1" width="1050" height="1050"/>
		</g>
	</g>
	<g>
		<defs>
			<circle id="SVGID_00000018937141864772635660000008211031640622484910_" cx="525" cy="525" r="525"/>
		</defs>
		<clipPath id="SVGID_00000101806993685980800060000014670664569249350840_">
			<use xlink:href="#SVGID_00000018937141864772635660000008211031640622484910_"  style="overflow:visible;"/>
		</clipPath>
		<g id="Vrouwke" style="clip-path:url(#SVGID_00000101806993685980800060000014670664569249350840_);">
			<path class="st3" d="M594.4,179.8c-1.5-0.1-3.1-0.1-4.6-0.1c-2.3,0-4.5-0.1-6.6,0c-2.9,0-5.7,0.1-8.3,0.3s-5,0.3-7.2,0.6
				c-5.5,0.6-9.5,1.6-11.1,2.9c0.7,0.6,2.6,1,5.4,1.3c2.3,0.2,5.2,0.4,8.4,0.5c1.3,0,2.7,0,4.1,0c1.4,0,2.9,0,4.3-0.1s3-0.1,4.5-0.1
				c7.6-0.3,15.7-0.9,22.5-1.9c3.4-0.5,6.5-1,9-1.6c-2.2-0.3-4.4-0.6-6.6-0.8C603.6,180.3,599,180,594.4,179.8z"/>
			<path class="st3" d="M533.7,334.2c2.2-3.2,4.6-6.3,7.1-9.5c0.7-0.9,1.4-1.8,2.1-2.7c1-1.3,2-2.7,3-4s2-2.7,2.9-4.1
				s1.8-2.8,2.7-4.2c4-6.7,6.8-13.9,7.2-22.3c-2,3.8-4.1,7.7-6.2,11.6C546.3,310.6,540,322.4,533.7,334.2z"/>
			<path class="st3" d="M592.2,202.4c0-0.5,0-1,0-1.5h-15.1l0.1,0.8C582.2,201.9,587.2,202.2,592.2,202.4z"/>
			<path class="st3" d="M509.9,347.9c1.6-1.7,3.1-3.3,4.7-5.1s3-3.5,4.5-5.2c0.7-0.9,1.5-1.8,2.2-2.7c1.4-1.8,2.8-3.6,4.2-5.5
				c0.7-0.9,1.4-1.8,2.1-2.8c1.4-1.9,2.7-3.8,4-5.7c0.7-1,1.3-1.9,2-2.9c1.3-1.9,2.6-3.9,3.8-5.8c1.3-2,2.5-3.9,3.7-5.9
				c2.5-4,4.9-8,7.2-12c-5.8,7.1-11.4,14.4-17,21.7c-2.1,2.7-4.2,5.4-6.4,8.1c-7.8,9.9-15.9,19.6-24.6,28.7
				c-1.6,1.7-3.2,3.3-4.9,4.9c-1.6,1.6-3.3,3.2-5,4.7c-5.1,4.7-10.5,9.1-16.2,13.2c11.7-6.4,21.9-14.1,31-22.9
				C506.7,351.2,508.3,349.6,509.9,347.9z"/>
			<path class="st3" d="M510,212c-0.4,18-7.1,34.3-13.4,50.3c-1,2.5-1.9,4.9-2.9,7.4c-0.5,1.2-0.9,2.5-1.4,3.7
				c1.1-1,2.3-2.3,3.4-3.7c0.8-1,1.5-2.1,2.2-3.2c0.7-1.2,1.4-2.4,2.2-3.7c0.7-1.3,1.4-2.7,2-4.1c0.7-1.4,1.3-2.9,1.9-4.4
				c0.9-2.3,1.8-4.6,2.6-7c0.3-0.8,0.5-1.6,0.8-2.4c1-3.2,1.8-6.4,2.5-9.5c0.3-1.6,0.6-3.1,0.9-4.6c0.5-3,0.8-5.8,0.9-8.4
				c0-1.3,0-2.5,0-3.6C511.6,215.9,511,213.6,510,212z"/>
			<path class="st3" d="M606.4,187.3c-13-0.6-26-1.3-39-1.9c0,0.9-0.1,1.8-0.1,2.7h39.1C606.4,187.9,606.4,187.6,606.4,187.3z"/>
			<path class="st3" d="M530.1,204.1c0.7,3,1.4,5.9,2,8.7l0.1-0.1c0,0,0,0,0.1,0c0.1-0.1,0.3-0.3,0.5-0.4c0.1-0.1,0.1-0.1,0.2-0.2
				c1.4,4.1,2.5,8.1,3.5,12.1c0.9,4,1.6,8.1,2.1,12.1s0.8,8,0.9,12.1c0.1,2,0.1,4,0.1,6c0,1,0,2-0.1,3c-0.1,2-0.2,4-0.3,6
				c-0.2,3-0.5,6-0.8,9c-0.4,4-1,8-1.7,12c-0.6,4-1.4,8-2.2,12s-1.6,8-2.5,11.9c0.6-1.9,1.1-3.7,1.7-5.6c1.7-5.6,3.4-11.2,4.9-16.8
				c0.5-1.8,1-3.6,1.4-5.3c0.5-1.8,1-3.6,1.4-5.3c1.9-7.1,3.6-14.3,4.5-21.6c0.2-1.8,0.4-3.7,0.5-5.5s0.1-3.7,0.1-5.6
				c-0.1-5.2-0.3-10.4-0.7-15.7c-0.3-5.2-0.8-10.4-1.4-15.6c-0.1-0.8-0.2-1.6-0.3-2.4s-0.2-1.6-0.4-2.4c-0.1-0.8-0.3-1.6-0.5-2.4
				c-0.2-0.8-0.4-1.6-0.6-2.4c-0.2-0.8-0.5-1.6-0.8-2.4c-0.9-2.3-2-4.7-3.6-6.9c0.5,3.5,0.9,6.8,1.3,10c0.3,2.4,0.6,4.7,0.9,7.1
				c0.1,0.8,0.2,1.5,0.3,2.3c-0.6,0.2-1.2,0.3-1.8,0.5c-1.7-4.7-3.4-9.5-5-14c-0.6,0.5-1.1,0.8-1.6,1c-0.1,0-0.3,0.1-0.4,0.1
				s-0.2,0-0.3-0.1c-0.2-0.1-0.4-0.2-0.5-0.4c-0.3-0.3-0.5-0.9-0.6-1.4c-0.2-0.7-0.4-1.4-0.7-1.9c-0.2-0.4-0.4-0.8-0.6-1.2
				c-0.2-0.4-0.4-0.8-0.6-1.3c-0.3-0.6-0.6-1.2-0.9-1.8s-0.6-1.3-1-2.1c-0.2-0.4-0.4-0.8-0.5-1.1c0.5,2.3,1,4.5,1.5,6.7
				C528.7,198,529.4,201.1,530.1,204.1z"/>
			<path class="st3" d="M395.1,325.7c2.9-3,5.7-5.9,8.6-8.9c-7.1,6.5-14.2,12.9-21.3,19.4c0.4,0.4,0.9,0.9,1.3,1.3L395.1,325.7z"/>
			<path class="st3" d="M408.4,311.9c-1.6,1.6-3.1,3.3-4.7,4.9c1.7-1.5,3.3-3,5-4.6C408.6,312.1,408.5,312,408.4,311.9z"/>
			<path class="st3" d="M377.7,330.3c-0.1-0.1-0.2-0.2-0.3-0.4c-4.5,4.9-8.9,9.9-13.4,14.8c0.1,0.1,0.2,0.2,0.3,0.2
				C368.8,340.1,373.2,335.2,377.7,330.3z"/>
			<path class="st3" d="M532.1,212.8L532.1,212.8C532.1,212.8,532.1,212.9,532.1,212.8z"/>
			<path class="st3" d="M517.7,235.5c-1.4,12.5-4.8,24.8-7.3,36.9c0.8-1.5,1.5-2.9,2.3-4.4c1.6-3,3.2-6.1,4.8-9.2
				c0.8-1.6,1.6-3.1,2.4-4.7c0.2,0.1,0.3,0.1,0.5,0.2c-0.3,2.2-0.6,4.4-1,6.5c0.9-2.2,1.8-4.4,2.5-6.6c0.5-1.5,1-2.9,1.4-4.4
				c0.2-0.7,0.4-1.5,0.6-2.2c0.6-2.2,1-4.4,1.4-6.6c0.1-0.7,0.2-1.5,0.4-2.2c2.4-16.2-0.1-32.3-7.8-48.4c-0.2,0.3-0.4,0.7-0.5,1
				c-0.2,0.5-0.2,1-0.3,1.5c0,0.2,0,0.3,0,0.5c0,0.3,0.1,0.7,0.1,1c0,0.2,0.1,0.4,0.1,0.5c0.2,0.9,0.6,1.7,0.8,2.6
				c0.1,0.3,0.1,0.7,0.1,1c0,3.1,0,6.2,0.1,9.3c0.1,4.6,0.1,9.3,0.1,13.9C518.4,226.4,518.2,231,517.7,235.5z"/>
			<path class="st3" d="M548.1,167.7c0.5,0.1,0.9,0.2,1.4,0.3c0.1,0,0.2,0,0.3,0c0.2,0,0.5,0,0.7-0.1c0.1,0,0.3,0,0.4,0
				c-0.6,0.6-1.3,1.2-1.9,1.8c-0.4,0.4-0.8,0.8-1.2,1.2c-0.2,0.2-0.4,0.4-0.6,0.6c-0.4,0.4-0.7,0.8-1,1.3c-0.2,0.4-0.4,0.8-0.6,1.1
				c-0.1,0.2-0.1,0.4-0.2,0.6c-0.1,0.4-0.1,0.7-0.1,1.1c0.1,2,1.6,3.5,3.9,3.5c0.7,0,1.3,0,2,0c3.9-0.1,7.9-0.1,11.7-0.5
				c0.6-0.1,1.3-0.2,1.9-0.3c22.4-3.6,44.8-7.5,67.2-11.3c0-0.2,0-0.4,0-0.6c-15.7,0.7-31.4,1.4-47.2,2.1c0-0.2-0.1-0.4-0.1-0.7
				c0-0.2-0.1-0.4-0.1-0.7c6.4-1.5,12.8-3.1,19.2-4.6s12.8-3.1,19.2-4.6c0.1-0.2,0.1-0.3,0.2-0.5c-17.1,1.1-34.3,2.2-51.4,3.3
				c-0.1-0.4-0.2-0.8-0.3-1.3c14.4-5.5,28.9-11.1,43.3-16.6c0-0.1-0.1-0.3-0.1-0.4c-15.7,3.6-31.4,7.1-47.1,10.7
				c-0.1-0.4-0.2-0.7-0.3-1.1c2.9-1,5.8-2,9-3.1c-2.7-0.2-5.1-0.4-7.4-0.5c-0.9-0.1-1.8-0.1-2.7-0.1c-0.5,0-0.9,0-1.4,0
				c-0.2,0-0.4,0-0.5,0.1c-0.9,0.2-1.7,0.9-2.6,1.5c-0.3,0.2-0.7,0.5-1,0.7c0.2,0.3,0.4,0.6,0.7,0.9c0.2,0.3,0.4,0.6,0.6,0.9
				c0.4,0.6,0.8,1.1,1.2,1.6c-1.1,0.4-3,0.9-5,1.7c-0.3,0.1-0.5,0.2-0.8,0.4c-0.5,0.2-0.9,0.4-1.4,0.6c-2.9,1.3-5.7,2.6-8.4,4.1
				c-0.4,0.3-0.9,0.5-1.3,0.8c-1,0.7-1.4,2.2-1.9,3.7c-0.2,0.5-0.3,1-0.5,1.4c0.5,0.1,0.9,0.2,1.4,0.3
				C546.3,167.3,547.2,167.5,548.1,167.7z"/>
			<path class="st3" d="M402.4,329.1c2.3-2,4.6-4.1,6.8-6.2c2.2-2.1,4.4-4.3,6.6-6.4c3.2-3.3,6.3-6.6,9.3-10.1c2-2.3,4-4.6,5.9-7
				s3.8-4.8,5.7-7.2s3.7-4.9,5.5-7.4c0.9-1.3,1.8-2.5,2.6-3.8c-16.5,18-33,36.1-49.5,54.1C397.7,333.1,400.1,331.1,402.4,329.1z"/>
			<path class="st3" d="M446.3,196.7c-3,1.8-6,3.7-9,5.6c-4.5,2.9-8.9,5.8-13.4,8.6c5.6-2.3,11.2-4.5,16.8-6.8
				c5.6-2.3,11.2-4.5,16.8-6.8c0.1,0.3,0.3,0.6,0.4,1c-8.8,7.2-17.6,14.4-26.4,21.7c0.2,0.2,0.3,0.3,0.5,0.5
				c4.5-2.2,9.1-4.5,13.4-6.6c2.1-1.1,4.2-2.1,6.2-3.1s3.9-1.9,5.6-2.8c1.2-0.6,2.3-1.1,3.3-1.7c1.1-0.5,2-1,3-1.5
				c-0.8,1-1.9,2.2-3.1,3.6c-1.2,1.4-2.5,3-4,4.7c-0.7,0.8-1.5,1.7-2.2,2.6c-0.8,0.9-1.6,1.8-2.4,2.8c-0.8,0.9-1.6,1.9-2.4,2.8
				c-0.8,1-1.6,1.9-2.5,2.9c0.2,0.2,0.3,0.3,0.5,0.5c7.3-3.9,14.5-7.8,22.1-11.8c-0.4,1.2-0.7,2.2-0.9,3.1c-0.1,0.3-0.2,0.6-0.3,0.9
				l1.3,0.9c11.7-10.5,23.3-21,35-31.6c-0.3-0.5-0.7-1-1-1.5c-4.4,1.9-8.9,3.8-13.3,5.8c-0.2-0.4-0.5-0.9-0.7-1.3
				c4.5-2.2,9-4.4,13.5-6.6c7.5-3.7,15.1-7.3,22.7-11c0-0.2-0.8-1.6-0.5-2.7c0.4-1.1,0.5-2,0.3-2.7c-0.1-0.3-0.2-0.6-0.3-0.9
				c-0.4-0.8-1.3-1.2-2.3-1.4c-0.7-0.2-1.4-0.2-2.2-0.3c-3.7-0.2-7.4-0.4-11.1-0.3c-5.2,0.2-10.4,0.5-15.6,0.9
				c-2.6,0.2-5.2,0.4-7.8,0.7c-2.6,0.3-5.2,0.5-7.8,0.9c-2.6,0.3-5.2,0.7-7.7,1.1c-2.6,0.4-5.1,0.8-7.7,1.3
				c-5.1,0.9-10.2,2.1-15.3,3.4c-3.9,1-7.8,1.9-11.6,2.8c-1.3,0.3-2.6,0.6-3.9,0.9c0.1,0.1,0.1,0.2,0.2,0.3
				c22.4-0.9,44.8-1.8,67.2-2.7c-14.1,3.4-27,9.1-39.4,15.8C455.4,191.2,450.8,193.9,446.3,196.7z"/>
			<path class="st3" d="M498,197.9c-0.3-0.4-0.7-0.7-1-1.1c-3.4,3-6.7,6-10.1,9c0.5,0.5,1,1,1.5,1.5c1.6-1.6,3.2-3.1,4.8-4.7
				S496.4,199.5,498,197.9z"/>
			<path class="st3" d="M461.4,259.9c-0.5,1.3-0.9,2.3-1.2,3.3c-0.5,1.3-0.9,2.3-1.6,3.2c-4.2,5.6-8.4,11.2-12.7,16.8
				c-4.2,5.6-8.5,11.1-12.8,16.7c-7.4,9.6-14.8,19.1-22.7,29.1c-1.1,1.4-2.2,2.9-3.4,4.3c1.8-1.6,3.6-3.2,5.3-4.7
				c1.7-1.5,3.4-3,5-4.4c3.2-2.8,6.1-5.4,8.5-7.5c-0.4,0.6-0.9,1.2-1.4,2s-1.1,1.6-1.8,2.5c-0.3,0.4-0.6,0.9-1,1.4
				c-0.7,0.9-1.4,1.9-2.1,2.9c-0.4,0.5-0.7,1-1.1,1.5c3.3-2.5,9.1-8.6,15.9-16.4c3.2-3.6,6.6-7.6,10.1-11.8c1.3-1.6,2.6-3.1,3.9-4.7
				c0.9-1.1,1.7-2.1,2.6-3.2c0.4-0.5,0.9-1.1,1.3-1.6c1.3-1.6,2.6-3.2,3.8-4.8c1.7-2.1,3.3-4.2,4.9-6.3c1.2-1.5,2.4-3,3.5-4.5
				c0.4-0.5,0.8-1,1.1-1.5c0.7-1,1.5-1.9,2.2-2.8s1.4-1.8,2-2.7c5.9-7.9,9.9-13.9,10.1-15.6c-9.9,11.6-19.8,23.1-29.7,34.6
				c-0.3-1.4,0.3-2.2,0.8-2.9c1.7-2.9,3.5-5.7,5.3-8.6c1.7-2.9,3.5-5.8,5.1-8.7c0.1-0.2,0.2-0.4,0.2-0.6s0.1-0.4,0.1-0.7
				c0.1-0.5,0.1-1,0.1-1.6c0-0.3,0-0.6,0-0.9c0-0.9-0.1-1.9,0-3C461.7,259.1,461.6,259.5,461.4,259.9z"/>
			<path class="st3" d="M411.3,402.5c1.7-0.9,3.3-1.9,5-2.8c1.1-0.6,2.3-1.7,3.4-1.7c2.2,0,4.3-0.3,6.3-0.7c1.4-0.3,2.7-0.6,4-1.1
				c3.2-1.1,6.3-2.5,9.3-4.1c1.2-0.6,2.4-1.3,3.6-2c2.4-1.4,4.7-2.8,7.1-4.2c19.1-11.3,34.8-26.6,50.5-42c1.9-1.9,3.8-3.8,5.7-5.7
				c3.7-3.9,7.4-7.8,11-11.7c1.8-2,3.7-3.9,5.5-5.9c-0.2-0.2-0.3-0.3-0.5-0.5s-0.3-0.3-0.5-0.5c-5.3,4.9-10.6,9.7-15.9,14.6
				s-10.6,9.7-15.8,14.6c-3.4,3.2-6.9,6.4-10.4,9.5c-4.7,4.2-9.4,8.2-14.2,12.2c-10.9,8.8-22.3,16.9-34.9,23.4
				c-0.6,0.3-1.3,0.7-1.9,1c-0.7,0.3-1.3,0.6-2,0.9c-0.3,0.1-0.7,0.2-1,0.3c-0.3,0.1-0.7,0.2-1,0.3c-0.7,0.2-1.3,0.4-2,0.6
				c5.4-3.4,10.6-6.9,15.8-10.5s10.2-7.4,15.1-11.3c3.3-2.6,6.5-5.2,9.7-7.9c3.2-2.7,6.4-5.4,9.5-8.2c1.6-1.4,3.1-2.8,4.7-4.2
				c7.7-7.1,15.2-14.4,22.5-21.9c-4.2,3.4-8.4,6.9-12.5,10.4s-8.3,7-12.4,10.5c-8.3,7-16.6,13.9-25.2,20.5
				c-4.3,3.3-8.7,6.4-13.1,9.5c-8.8,6.2-17.9,12.2-26.9,18.1c-4.5,3-9,6-13.5,9c1.7-0.9,3.4-1.8,5.1-2.7
				C404.6,406.3,408,404.4,411.3,402.5z"/>
			<path class="st3" d="M369.2,414l0.6,1.1c11.4-6.3,22.8-12.6,34.2-18.9c-0.2-0.4-0.4-0.8-0.6-1.1C392,401.4,380.6,407.7,369.2,414
				z"/>
			<path class="st3" d="M445.8,300.9c-1.5,1.8-2.9,3.6-4.3,5.4c-2.1,2.7-4.1,5.6-6.1,8.4c-0.7,0.9-1.3,1.9-2,2.8
				c-1.3,1.9-2.7,3.7-4.1,5.6c0.2,0.2,0.4,0.3,0.6,0.5c10-10.5,19.9-21,29.9-31.5c0.1,0.1,0.2,0.2,0.3,0.3c0.1,0.1,0.2,0.2,0.3,0.3
				c-3.9,5.7-7.8,11.3-11.8,17c0.3,0.3,0.7,0.5,1,0.8c1.3-1.6,2.6-3.1,4-4.7c1.3-1.6,2.6-3.1,4-4.7c4-4.7,8-9.4,12-14.2
				c4.1-4.8,8.2-9.6,12.4-14.6c-1,1.9-1.9,3.7-2.8,5.5s-1.8,3.5-2.7,5.2c-1.8,3.4-3.5,6.7-5.2,10c0.6-0.6,1.2-1.1,1.8-1.7
				c1.2-1.1,2.4-2.2,3.6-3.4c0.6-0.6,1.2-1.1,1.8-1.7c2.4-2.3,4.7-4.6,6.7-7.1c1.7-2.1,3.3-4.4,4.8-6.7c1-1.5,1.9-3.1,2.7-4.7
				c1.3-2.4,2.5-4.8,3.5-7.3c0.7-1.6,1.4-3.3,2-5c1.9-5,3.5-10.2,5-15.5c0.4-1.3,0.7-2.6,1-3.8s0.6-2.3,0.8-3.4
				c0.1-0.5,0.2-1.1,0.3-1.6c0.3-1.5,0.5-3,0.6-4.3c0.1-0.9,0.1-1.8,0.2-2.6c0-0.8,0-1.7,0-2.5c-0.1-1.6-0.3-3.2-0.6-4.7
				c-0.2,0.4-0.4,0.7-0.6,1s-0.4,0.7-0.5,1c-0.2,0.6-0.1,1.3-0.3,1.9c-1.3,6-3.3,11.8-6.1,17.1c-0.9,1.6-1.8,3.1-2.8,4.6
				s-2.1,3-3.4,4.4c-3.8,4.5-7.6,8.9-11.5,13.4C468.6,274,457.1,287.4,445.8,300.9z"/>
			<path class="st3" d="M230.1,540.6c0.9,7.8,1.8,15.6,2.6,23.4c0.6-0.1,1.2-0.2,1.8-0.2c-1-7.8-1.9-15.6-2.9-23.4
				C231.1,540.5,230.6,540.5,230.1,540.6z"/>
			<path class="st3" d="M760.7,349.4c-0.1-2-0.3-3.9-0.5-5.8c-0.1-0.9-0.2-1.9-0.3-2.8s-0.2-1.8-0.3-2.7c-0.2-1.3-0.3-2.6-0.5-3.9
				c-0.1-0.8-0.2-1.6-0.4-2.4c-0.1-0.4-0.1-0.8-0.2-1.2c-0.2-1.1-0.4-2.2-0.6-3.3c-0.9-4.8-2-8.3-3.2-9.7c0.4,6.5,0.8,13,1.2,19.6
				s0.8,13.2,1.2,19.8c0.8,13.2,1.6,26.5,2.4,39.8c0.4-2.2,0.7-4.7,1-7.3c0.6-5.6,0.8-12.1,0.8-18.7c0-1,0-2,0-3.1
				c0-5.1-0.2-10.4-0.5-15.4C760.8,351.4,760.8,350.4,760.7,349.4z"/>
			<path class="st3" d="M748.4,419.2c0.6-14.8,1.3-29.7,1.9-44.5c-0.6,0-1.1,0-1.7-0.1c-0.6,14.8-1.2,29.7-1.8,44.5
				C747.3,419.2,747.9,419.2,748.4,419.2z"/>
			<path class="st3" d="M739.6,422.1c0.3,0,0.7,0,1,0V388c-0.3,0-0.7,0-1,0V422.1z"/>
			<path class="st3" d="M721.9,199.5c1.6,2.9,3.8,5.4,6.2,7.9c0.7,0.7,1.3,1.4,2,2.1c0.3,0.4,0.7,0.7,1,1.1c1.4,1.4,2.7,2.8,3.9,4.3
				c0.6,0.7,1.2,1.5,1.8,2.3c0.7,1,1.4,2,2,3.1s1.2,2.1,1.7,3.2s0.9,2.3,1.2,3.4c0.2,0.8,0.4,1.6,0.6,2.4c0.2,1.2,0.4,2.4,0.4,3.7
				c0,0.8,0,1.7,0,2.6c0.5,0,1.3,1.4,2.4,3.8c0.8,1.7,1.7,3.8,2.6,6.2c0.6,1.4,1.1,3,1.7,4.6c0.4,1.1,0.8,2.1,1.2,3.2
				c0.2,0.5,0.4,1.1,0.6,1.6c0.4,1.1,0.7,2.2,1.1,3.3c0.7,2.2,1.4,4.3,2,6.4c0.4,1.5,0.8,2.9,1.1,4.3c0.1,0.4,0.2,0.9,0.3,1.3
				c0.4,1.6,0.6,3,0.7,4.1c-1.4-1.6-2.9-3.1-4.4-4.7c-0.4,0.1-0.8,0.2-1.2,0.4c0,0.5,0,1.1,0,1.6s0.1,1.1,0.2,1.6
				c0.3,1.1,0.9,2.1,1.4,3.1c0.2,0.3,0.3,0.7,0.5,1c0.5,1.2,0.9,2.4,1.3,3.5s0.8,2.4,1.1,3.6c0.7,2.4,1.3,4.8,1.7,7.2
				c0.5,2.4,0.9,4.8,1.2,7.3c0.3,2.4,0.6,4.9,0.9,7.3c0.6,6.1,1,12.3,1.4,18.5c0.3,3.7,0.6,7.4,1,11.1c0.5,4.3,1,8.6,1.4,12.9
				c1,8.6,2,17.2,3,25.8c0.5,4.3,1,8.6,1.5,12.9c0.5,0,1-0.1,1.4-0.1c-0.5-10-1-20.1-1.5-30c-0.5-10-1-19.9-1.5-29.8
				c1.4,5,2.7,10,4.1,15c2.7,10,5.5,20.2,8.2,30.3c1.4,5.1,2.8,10.2,4.1,15.2c0.3,0,0.6-0.1,0.9-0.1c-0.7-11.1-1.3-22.2-2-33.2
				c0.2-0.1,0.4-0.1,0.7-0.2l6.6,21.4c-0.3-7.5-1-15-2-22.4c-0.5-3.7-1.1-7.4-1.7-11c-2-11-4.6-21.8-7.6-32.6
				c-2-7.2-4.2-14.3-6.6-21.4l25.3,48.4c0.4-0.2,0.8-0.3,1.1-0.5c-6-34.2-24.7-63-41-92.8c2.8,4.1,5.4,8.2,8.1,12.3
				c5.3,8.3,10.3,16.6,15.3,25.1c3.7,6.4,7.3,12.8,10.8,19.2c1.2,2.1,2.3,4.3,3.5,6.5c2.3,4.3,4.6,8.6,6.9,13
				c1.1,2.2,2.3,4.4,3.4,6.5c2.2,4.4,4.5,8.7,6.7,13.1c1.1,2.2,2.2,4.4,3.3,6.6c-0.6-3.3-1.3-6.5-2-9.8c-0.7-3.2-1.5-6.4-2.4-9.5
				c-1.7-6.3-3.7-12.4-6-18.4c-1.1-3-2.3-6-3.5-8.9c-1.9-4.4-3.9-8.8-6-13c-1.4-2.8-2.9-5.7-4.4-8.5c-0.8-1.4-1.5-2.8-2.3-4.2
				c-2.3-4.1-4.8-8.2-7.4-12.3c-1.7-2.7-3.5-5.4-5.3-8c-9.9-14.5-21.1-28.3-33.2-41.7c3,3,6,6,8.9,9c2.9,3.1,5.8,6.1,8.6,9.3
				c8.4,9.4,16.4,19.1,24.2,29.1c7.8,9.9,15.4,20,23.1,30.1c-2.6-5.6-5.1-11.2-7.7-16.7c0.4-0.2,0.7-0.4,1.1-0.6
				c8.5,12.2,17,24.5,25.5,36.7c-3.8-8-7.8-15.9-12-23.7c-1.4-2.6-2.8-5.2-4.3-7.8c-5.6-9.9-11.6-19.6-18-28.9
				c-3.7-5.3-7.6-10.5-11.6-15.6c-1-1.3-2-2.5-3.1-3.8c-2.1-2.5-4.2-5-6.3-7.4c-1.1-1.2-2.2-2.4-3.3-3.6c-1.1-1.2-2.2-2.4-3.3-3.6
				c-2.6-2.7-5.3-5.3-8.1-7.8s-5.7-4.9-8.6-7.2c-5.9-4.6-12.1-8.8-18.4-12.9c-1.6-1-3.3-2-5-2.9s-3.4-1.7-5.1-2.4
				c-1.7-0.7-3.5-1.4-5.2-2s-3.5-1.1-5.3-1.6c-2.7-0.7-5.4-1.2-8.1-1.6c-1.8-0.3-3.7-0.5-5.5-0.7c-2.8-0.3-5.6-0.4-8.5-0.5
				c-0.7,0-1.3,0.1-2,0.3s-1.3,0.4-1.9,0.5c1.3,0.6,2.6,1.2,3.9,1.7c2.6,1.1,5.1,2.2,7.5,3.4c1.2,0.6,2.4,1.2,3.7,1.8
				c1.2,0.6,2.4,1.2,3.7,1.9c1.2,0.6,2.4,1.3,3.6,1.9c2.4,1.3,4.8,2.7,7,4.2c0.7,0.5,1.5,0.9,2.2,1.4c1,0.6,2,1.2,2.9,1.9
				c0.2,0.2,0.5,0.3,0.7,0.5c0.5,0.3,0.9,0.7,1.4,1.1c0.2,0.2,0.4,0.4,0.7,0.6c0.4,0.4,0.8,0.9,1.2,1.3
				C720.9,197.8,721.4,198.6,721.9,199.5z"/>
			<path class="st3" d="M751.8,385.8c0.2,2.9,0.5,5.8,0.7,8.7c0.3,2.9,0.5,5.9,0.8,8.9c0.2-0.9,0.3-1.9,0.4-3
				c0.4-3.5,0.7-7.5,0.8-11.7c0-0.4,0-0.9,0-1.3c0-0.9,0-1.7,0-2.6c0-0.4,0-0.9,0-1.3c0-2.2-0.1-4.5-0.1-6.7c0-0.9-0.1-1.8-0.1-2.7
				c-0.1-1.4-0.1-2.7-0.2-4.1c-0.1-0.9-0.1-1.8-0.2-2.7c-0.1-0.9-0.1-1.8-0.2-2.7c-0.1-0.9-0.2-1.8-0.2-2.6
				c-1.3-13.4-3.5-24.7-6-26.7c0.9,11,1.9,22,2.9,33.4C750.8,374.3,751.3,380.1,751.8,385.8z"/>
			<path class="st3" d="M800.5,707.6c-5.2-17.9-10.2-35.8-15.6-54.8c0.3,2.2,0.3,3.5,0.6,4.7c3.5,14.9,6.7,29.9,10.8,44.6
				c11.3,40.2,19,80.8,15.9,122.8c-0.3,4.3-0.5,8.5-0.7,12.8c5.3-18.2,5.3-36.7,4-55.3C813.7,756.8,807.7,732.1,800.5,707.6z"/>
			<path class="st3" d="M813.9,653.2c0.7,1.2,1.5,2.4,3,3.3c-3.6-7.2-7.1-14.4-11-22.3c1.4,0.7,2.1,1,3.4,1.6
				c-0.7-1.3-1-2.1-1.5-2.9c-17.8-31.1-36.2-61.8-53.2-93.3c-9.6-17.9-17.2-36.8-25.2-55.5c-2.3-5.5-3.5-11.5-4.6-17.4l-5.7,1
				c0.2,0.4,0.4,0.8,0.5,1.3c5.1,13.6,10.2,27.1,15.6,40.5c11.8,29.2,26.9,56.7,43.5,83.5C791.1,612.7,802.3,633.1,813.9,653.2z"/>
			<path class="st3" d="M798.7,862.8c10.1-46.7,3.5-92.7-5.6-138.6C799.9,770.2,801.1,816.4,798.7,862.8z"/>
			<path class="st3" d="M838.6,770.6c-1.4-9.5-2.6-19.1-4.3-28.6c-7.4-41.8-21.6-81-44.7-116.8c-8.9-13.8-19-26.6-32.4-36.3
				c-2.6-1.9-5.8-2.8-8.9-4.3c5.5,4.4,11.3,8,15.8,12.8c16.4,17.1,28.2,37.3,38.3,58.5C819.8,692.5,829.4,731.5,838.6,770.6z"/>
			<path class="st3" d="M792.4,820.1c-5.6,40.8-11.3,82.3-17,123.8C785,902.9,791.6,861.4,792.4,820.1z"/>
			<path class="st3" d="M297,508.2c-3.7,67.1-19,132.2-32.6,197.8C284,641.6,296.5,575.9,297,508.2z"/>
			<path class="st3" d="M289.6,310.6c-1.7,2.9-3.5,5.9-5.2,8.9c-2.5,4.5-5,8.9-7.5,13.4c-1.6,3-3.2,6-4.8,9c-1.6,3-3.1,6.1-4.6,9.1
				s-3,6.1-4.4,9.2c-2.2,4.6-4.3,9.2-6.3,13.9c-1.4,3.1-2.7,6.2-4,9.4c-5.2,12.5-9.8,25.3-13.8,38.3c-1,3.2-1.9,6.5-2.9,9.8
				c-0.9,3.3-1.8,6.6-2.6,9.9c-1.3,5.1-2.5,10.3-3.5,15.5c-0.7,7.2-4.9,16.4-5.7,23.6c-0.3,2.7,0.4,5.5,1.5,8.2
				c2.5-9.6,5.1-19.2,7.7-28.8c0-0.1,0.1-0.3,0.1-0.4v-0.1c1.9-6.1,5.8-13.9,7.7-20c4.1-13.1,8.2-26.2,12.4-39.2
				c0.7-2.2,1.5-4.4,2.3-6.5c2.5-6.5,5.3-12.9,7.9-19.3c-0.2,1-0.2,2-0.5,2.9c-1.1,3-2.2,6.1-3.2,9.2c-1.6,4.6-3.1,9.2-4.5,13.8
				c-1.4,4.6-2.7,9.3-4,14c-1.2,4.7-2.4,9.4-3.4,14.1c-0.7,3.2-1.4,6.3-2,9.5c-0.9,4.8-1.7,9.5-2.5,14.3c-0.3,1.8-4.1,36-5.3,47.1
				c0.1,0.9,0.2,1.7,0.2,2.6c0.5,0,1,0.1,1.4,0.1c1.2-7.9,2.3-15.8,3.6-24.3v30.8c0.1,0,0.3,0,0.4,0c3.3-17.1,10.3-51.4,10.5-51.4
				c4.2-19.8,8.7-39.5,13.9-59c2.3-8.8,4.8-17.6,7.4-26.4c0.9-2.9,1.8-5.8,2.7-8.7c-0.5-0.1-1-0.3-1.5-0.4
				c-8.1,25.8-16.1,51.5-24.2,77.3c0.6-2.7,1.1-5.3,1.7-8c1.2-5.3,2.4-10.6,3.6-15.9c2.5-10.6,5.2-21.2,8.2-31.6
				c0.7-2.6,1.5-5.2,2.3-7.8c4.3-14.3,9.7-28.3,16.3-41.8c1.8-3.7,3.7-7.3,5.7-10.9c1.3-2.4,2.7-4.8,4.1-7.1
				c-1.1,1.2-2.2,2.4-3.2,3.7c-1,1.3-1.9,2.6-2.6,4c-6.4,11.5-12.6,23.1-18.8,34.7c0.4-1.3,0.6-2.6,1-3.8c0.1-0.4,0.3-0.8,0.5-1.2
				c8.1-17.5,16.2-34.9,24.3-52.4c0.3-0.7,0.6-1.5,0.9-2.3c0.1-0.4,0.3-0.8,0.4-1.2c0.1-0.4,0.3-0.8,0.4-1.2
				c-0.8,1.1-1.5,2.3-2.2,3.4C293.4,303.7,291.6,307.2,289.6,310.6z"/>
			<path class="st3" d="M230.1,456.9C230.1,456.9,230.2,456.2,230.1,456.9L230.1,456.9z"/>
			<path class="st3" d="M289.4,245.4c2.4-3,5-5.9,7.6-8.7s5.4-5.5,8.2-8.1c1.4-1.3,2.8-2.6,4.3-3.9c4.3-3.8,8.8-7.4,13.4-10.9
				c3.1-2.3,6.2-4.6,9.3-6.9c3.1-2.2,6.3-4.4,9.5-6.6c1.6-1.1,3.2-2.2,4.8-3.2c-8.5,2.2-18.5,7.2-28,13.4c-1.6,1-3.1,2.1-4.7,3.2
				c-1.5,1.1-3,2.2-4.5,3.3s-2.9,2.3-4.3,3.5c-9.8,8.2-17.4,16.8-19.5,23.5c0.9-0.8,1.8-1.6,2.7-2.4c0.9-0.8,1.7-1.5,2.5-2.3
				c-0.5,0.9-1,1.8-1.6,2.7c-1.7,2.6-3.5,5-5.2,7.5c-1.1,1.5-2.1,3.1-3.1,4.7s-2,3.2-3,4.7c0.4,0.3,0.8,0.6,1.2,1
				C282.3,254.7,285.7,249.9,289.4,245.4z"/>
			<path class="st3" d="M286.3,294.1c-0.4-0.2-0.7-0.5-1.1-0.7c12.7-19.1,25.5-38.2,38.2-57.2c-5.3,5.9-10.4,11.9-15.4,18
				c-1.7,2-3.3,4.1-4.9,6.2c-5.7,7.1-11,14.4-16.1,21.9c-3,4.5-6,9.1-8.8,13.7s-5.5,9.3-8.1,14.1s-5.1,9.6-7.4,14.5
				c-1.6,3.3-3.1,6.6-4.5,9.9c-1.1,2.5-2.2,4.9-3.3,7.4c-0.7,1.6-1.5,3.3-2.2,4.9c-1.5,3.3-2.9,6.6-4.3,9.9
				c-2.1,4.9-4.2,9.9-6.1,14.9c-0.6,1.7-1.2,3.4-1.8,5c-1.5,4.2-2.8,8.5-3.9,12.8c-0.7,2.6-1.3,5.2-1.8,7.9
				c-0.3,1.8-0.6,3.5-0.9,5.3c-0.7,4.5-1.1,9-1.1,13.7c0,2.4-0.2,4.9-0.4,7.3c-0.1,1.6-0.3,3.2-0.4,4.9c-0.1,1.6-0.3,3.2-0.4,4.9
				c-0.1,0.8-0.1,1.6-0.2,2.4c2.7-9.5,5.5-18.9,8.5-28.3c1.2-3.7,2.4-7.5,3.6-11.2c1.9-5.6,3.8-11.1,5.8-16.6s4.1-11,6.2-16.4
				c1.4-3.6,2.9-7.2,4.5-10.8c7.6-17.9,16.4-35.2,26.9-51.8c3.1-5,6.4-9.9,9.9-14.7c4.6-6.4,9.5-12.7,14.7-18.9
				c-0.4-0.3-0.8-0.5-1.2-0.8C302.2,275.5,294.3,284.8,286.3,294.1z"/>
			<path class="st3" d="M276.9,401.4c-0.4-0.1-0.9-0.2-1.3-0.3c-4.7,18.3-9.7,36.6-14.4,55c-0.4,1.6-0.8,3.1-1.2,4.7l0,0
				c-2.3,11.2-6.7,22.4-9,33.6c-1.6,8-4.6,16.5-5.2,24.6c-0.7,8.9-0.2,17.8-0.2,27.3c1.5-7.5,2.9-14.5,4.3-21.5
				c4.2-20.7,8.6-41.3,12.7-62C263,460.7,272.8,420.3,276.9,401.4z"/>
			<path class="st3" d="M263.8,550.7c-0.5,0.1-1,0.1-1.5,0.2c-2.2,18.4,2,36,8.6,53.2C268.6,586.3,266.2,568.5,263.8,550.7z"/>
			<path class="st3" d="M317.6,230.9c-1.3,1.1-2.7,2.6-4.4,4.3s-3.4,3.9-5.3,6.2c-0.5,0.6-1,1.2-1.4,1.8c-1,1.3-2,2.6-3,3.9
				c-5.1,6.9-10.9,15.2-16.9,24.4c-1.8,2.7-3.6,5.6-5.5,8.4c-1.8,2.9-3.7,5.8-5.5,8.8c-1.2,2-2.5,4-3.7,6
				c-10.4,17-20.5,34.6-28.3,49.5c-0.9,1.8-1.8,3.5-2.7,5.1c-6.8,13.4-11.3,23.9-11.8,28.8c19.1-34.3,37.2-69.4,58-102.9
				C296.6,260.1,306.6,245.2,317.6,230.9z"/>
			<path class="st3" d="M256.1,562.4c0.6,0,1.1,0.1,1.7,0.1v-56.6C254.5,524.6,254,543.5,256.1,562.4z"/>
			<path class="st4" d="M616.6,478.9c1.1-0.3,2.1-0.5,3-0.7c0.5-0.1,0.9-0.2,1.3-0.3c0.1,0,0.2,0,0.2-0.1c0.3-0.3,0.6-0.7,0.7-1
				c-1.7-5.2-3.4-10.4-5.1-15.6c-3.6-10.9-7.1-21.7-10.6-32.5c-1.8-5.4-3.5-10.8-5.3-16.2c-0.1,0-0.3,0.1-0.4,0.1
				c2.7,11,5.3,21.9,8,32.9C611.2,456.7,613.9,467.8,616.6,478.9z M546.8,609.3c-0.2,1.3-0.5,2.2-0.6,3.1c-0.7,15.6,3,30.5,8.1,45
				c0.9,2.7,3.8,5.5,6.4,6.7c6.6,3,13.4,5.7,20.4,7.5c20.1,5.2,40.6,5.3,61.2,3.9c12.5-0.8,21.9-7.2,28.3-17.9
				c6.2-10.4,9.9-21.7,11.8-33.6c0.9-5.6,1.6-11.3,2.2-16.2c-33.1,6.6-65.5,13-97.9,19.4c-0.1-0.4-0.2-0.8-0.3-1.1
				c15.3-3.8,30.7-7.4,46-11.6c15.1-4.1,30-8.8,45-13.2c-0.2-0.2-0.3-0.5-0.5-0.7c-38.6-6-77.3-11.9-114.8-17.7
				c-0.2,6.8,0.7,12.8-0.7,18.2C559.6,607.6,553.8,610.2,546.8,609.3z M658.4,548.2c2.6,6.6,2.5,6.8,10.6,5.9
				c-0.1-0.9,0.1-1.6-0.2-2.2c-9.5-21.5-19.1-43.1-28.7-64.6c-0.5-1-1.7-1.7-3.6-3.4c0.1,2.3,0,3.1,0.3,3.8
				C643.8,508,650.5,528.3,658.4,548.2z M339.8,479.2c8.2,0.6,16.4,1.4,24.6,1.7c2.8,0.1,5.8-0.4,8.3-1.6c2.1-1,4.1-2.2,6.1-3.3
				l-1-0.1c14.3-8.9,28.7-17.8,43-26.7c15.2-9.4,30.5-18.8,45.7-28.2c3-1.9,6-3.7,9-5.7c2-1.3,4-2.6,6.1-3.9c3.1-2,6.2-4,9.5-6.1
				c-6.2,3-12.4,6-18.6,9.1c-12.4,6-24.8,12-37.1,18c-27.8,13.5-55.4,26.9-83,40.3l-4.5-0.6c-3.4,1.6-6.8,3.1-9.2,6
				C339.2,478.7,339.5,479.2,339.8,479.2z M209.9,1041.8c-9.2,3.9-18.2,8-27.3,12.2c-0.4,0.2-0.6,0.9-0.7,1.7h36.8
				c-1.3-3.7-2.7-7.4-3.8-11.2C214.1,1041.6,212.4,1040.7,209.9,1041.8z M380.5,1055.7h4.8v-80.9c-0.9,11.4-1.9,22.2-2.5,33.1
				C381.9,1023.9,381.2,1039.8,380.5,1055.7z M650.5,919.2c-2.9-22.1-6.3-44.3,0.4-66.3c0.1-0.2-0.2-0.5-0.5-1.1
				c-3.7,5.9-7.7,11.5-11,17.5c-11.3,20.5-22.5,41.1-33.6,61.7c-3.7,6.8-8.8,12.2-15.2,16.6c-6,4.1-12.7,7.9-17,13.4
				c-10.6,13.6-20,28.1-29.8,42.3c-1,1.5-1.7,3.2-2.5,4.8c-0.7-1.3-0.5-2.2-0.3-3.1c2.2-8.9,4.7-17.8,6.6-26.8
				c2.2-10.8,0.7-14.2-9.2-19.1c-9.1-4.5-18.5-8.4-27.9-12.3c-2.6-1.1-5.5-1.8-8.3-2.3c-6.7-1.1-13.5-1.7-20.2-2.8
				c-16.5-2.7-32.9-5.5-49.3-8.3c8.7,14.6,17.6,29.6,26.4,44.6c-11.9-10.1-23.9-27.8-34.2-48.6c-1.5-3-3.1-6-5-8.8
				c-7.6-11.1-15.2-22.1-22.9-33.1c-0.6-0.9-1.4-1.7-2.6-3.2c0,1.5,0,2,0,2.5c2.1,34.7,1.5,69.5-1.1,104.1
				c-1.7,21.6-3.4,43.1-0.5,64.7h258.5c1.6-16.5,3.9-33,4.6-49.5C657.2,977,654.2,948.1,650.5,919.2z M459.8,1001.1
				c-8.3-4.6-33.7-53.6-36.7-69.4C435.3,954.9,447.6,978,459.8,1001.1z M468.4,1039.2c-8.9-17.1-17.8-34.3-26.7-51.4
				c0.5-0.2,1-0.5,1.4-0.7c9.6,16.8,21.2,32.6,26.8,51.5C469.9,1038.5,469.5,1038.7,468.4,1039.2z M672.9,1025
				c-1.8-9.6-3.9-19.2-5.9-28.8c-0.4,0-0.9,0-1.3,0c-1.1,12-2.2,24.1-3.2,35c-0.1-0.2-0.5-0.8-0.9-1.6c-2.4,8.8-4.7,17.4-7.1,26h8.8
				c2.9-8.8,5.7-17.7,8.5-26.5C672.3,1027.8,673.1,1026.3,672.9,1025z M680,581.7c1.1,5.5,5.3,3.5,8.4,3.9c3.8,0.5,3.4-2.4,3.5-4.8
				c0.6-10.7-0.7-21.1-5.1-30.8c-8.3-18.2-17.1-36.2-25.9-54.2c-2.7-5.5-5.8-10.8-8.7-16.1l-3.7,0.7c12.1,22.8,20.9,46.8,25.5,72.4
				C675.8,562.5,678.2,572.1,680,581.7z M672,1055.7h7.3c0.5-8.7,1.1-17.5,1.6-26.2c-0.3-0.1-0.6-0.1-0.9-0.2
				C677.4,1038.1,674.7,1046.9,672,1055.7z M377,914.7c-2.5,23.4-1.9,47.2-15,69.3c2.6-18,6.4-34.9,3.9-52.3
				c-1.2,1.2-1.9,2.6-2.3,4.1c-5.7,20.7-15.1,39.6-29.6,55.6c-3.7,4.1-4.6,8-3.8,13.1c2.6,17.1,4.9,34.2,7.3,51.2h30.4v-48.2
				c0.2,0,0.3,0,0.5,0c0.5,5.2,1,10.4,1.5,15.6c1.8-10.6,2.9-21.2,4.5-31.8c3.7-24.3,7.5-48.6,3.2-73.2
				C377.4,916.9,377.2,915.8,377,914.7z M283.8,1027.6c-0.1-0.2-0.1-0.4-0.2-0.6c1.5-1.2,3.1-2.4,4.6-3.6
				c-8.7,3.3-16.8,7.3-24.9,11.6c-0.8,0.4-1.3,2.3-1.1,3.3c1,5.8,2.2,11.6,3.3,17.5h32.1c-1.6-10.4-3.2-20.8-4.8-31.5
				C289.5,1025.4,286.6,1026.5,283.8,1027.6z M259.5,1036.4c-1.7-1.5-3.7-2.6-5.2-3.6c-12.4,3.7-24.8,7.4-37.2,11.1
				c1.7,3.8,3.5,7.7,5.3,11.8h41.3c-0.9-5.2-1.7-10.4-2.7-15.6C260.8,1038.8,260.4,1037.2,259.5,1036.4z M305.2,1017.3
				c-2.3,1.6-3.2,3.1-2.7,6c1.7,10.8,3.3,21.6,4.9,32.5h19.5c-1.9-16.6-3.9-33.1-5.8-50C315.6,1009.8,310.5,1013.7,305.2,1017.3z
				 M319.2,577.2c7.2,0.4,14.4,0.7,21.6,1c0-0.5,0.1-1,0.1-1.5l-15.1-3c-0.1-0.7-0.1-1.4-0.2-2.1c2.4-0.8,4.7-2.4,7.1-2.3
				c11.4,0.2,22.9,0.5,34.3,1.4c13.4,1,26.7,2.8,40,4.2c2.2,0.2,4.4,0,6.7-0.8c-0.7-0.2-1.3-0.5-2-0.7c8.5,0,15.7-3.4,22.1-8.4
				c1.3,3,1.3,3-8,10.1c1.3,0.4,2.2,0.8,3.2,0.9c7.3,0.3,14.5,0.5,21.8,0.9c3.8,0.2,4.9-1,5-4.9c0.1-9-5.6-14.4-10.3-20.9
				c4.1,4.1,8.7,7.8,12,12.4c1.4,2,0.1,6,0.1,9.1c0,1.4,0.4,2.7,0.6,4.1c0.7-1,1.3-2.1,2-3c1-1.2,1.9-2.6,3.1-3.4
				c19.8-12,40.5-18.7,63.5-9.7c0.6,0.2,1.2,0.2,2.4,0.4c0.5-7-0.2-14.2,1.9-20.5c2.1-6.2,7-11.4,11.2-16.7c-0.8,3.9-2,7.7-2.4,11.6
				c-1.1,9.8-1.9,19.7-2.7,29.6c-0.1,0.9,0.7,2.1,1.4,2.9c1.4,1.8,2.8,3.6,4.5,5c1.2,1,3,1.9,4.5,1.8c11.6-0.5,23.2-1.1,34.8-1.8
				c25.7-1.5,50.9,2.7,76.2,6.4c2.6,0.4,5.1,2.1,7.7,2.9c4.1,1.3,8.2,2.3,13.7,3.8c-1.3-4.6-2.1-7.7-3.1-10.7
				c-1.9-5.8-3.9-11.6-5.8-17.5c-0.8-2.5-2.3-3.7-4.7-2c-6.4,4.6-13.6,6.2-21.3,7c-1.9,0.2-3.6,2.1-5.4,3c-2.4,1.1-4.8,2.1-8.3,3.6
				c0.7-2.5,0.9-3.6,1.3-4.9c-4.4,0.9-8.3,1.7-12.2,2.4c-0.1-0.3-0.2-0.6-0.3-0.8c4.4-2.7,8.8-5.5,14.7-9.1
				c-6.3-3.4-11.4-6.1-17.3-9.3c1.7,11.8-0.5,14.7-11.2,16.4c-2.1,0.3-4.1,0.9-6.2,1.2c-9.9,1.6-17.1-4.7-16.8-14.8
				c0.1-1.6,0.2-3.1,0.3-4.7c-9.5,1.4-18.9,10.6-19.5,18.9c-3.4-0.3-3.3-2.2-2.3-4.6c5.9-14.5,15.7-23.4,32.3-23.9
				c12.2-0.3,24.1,0.1,36.1,3c4.9,1.2,10.4-0.3,14.8-0.5c-2.3,2.1-5.5,5-9.6,8.8c6.8-1.5,12.4-2.7,19.2-4.2
				c-4.6-9.4-9.1-18.6-13.7-27.8c-0.5,0.2-0.9,0.4-1.4,0.6c1,3.6,2.1,7.3,3.1,10.9c-0.2,0.1-0.4,0.2-0.6,0.2
				c-4.6-11.4-9.3-22.7-13.8-34.1c-2.8-7-2.6-7.2-9.6-4.9c-6.7,2.3-13.2,5.5-20,6.9c-6.5,1.3-13.5,0.9-20.2,1.2
				c-1.5,0.1-3.1-0.2-4.6-0.2c-0.1,0.4-0.2,0.8-0.4,1.2c2.3,1.1,4.7,2.2,7,3.3c-0.1,0.3-0.2,0.6-0.4,0.9c-5-2-10-3.9-15.3-6.1
				l-5.5,1c-0.7-0.8-1.3-1.6-2-2.4c-0.3-0.4-0.7-0.9-1-1.4c-0.1-0.2-0.3-0.5-0.3-0.6c-0.2-0.1-0.4-0.2-0.6-0.2
				c0.2,0,0.3-0.1,0.5-0.1v-0.1c0.2-0.3,0.6-0.7,0.9-1c0.5-0.4,1-0.7,1.6-0.9c0.1,0,0.3-0.1,0.4-0.1c2.5-0.4,4.9-0.8,7.4-1.1
				c2.5-0.3,5-0.7,7.4-1.1c13.9-2.6,27.7-5.3,41.8-8c-0.6-1.8-1.2-3.7-1.8-5.5c-1.8-5.4-3.6-10.8-5.4-16c-1.2-3.5-2.3-7-3.5-10.5
				s-2.3-6.9-3.5-10.4c-0.3,0.1-0.5,0.1-0.8,0.2c0.5,3.4,1.1,6.9,1.6,10.3s1.1,6.9,1.6,10.3c-0.5,0.1-1,0.2-1.5,0.3
				c-0.7-3.5-1.3-7.1-2-10.6c-1.3-7.1-2.7-14.2-4-21.2c-3.4-17.7-6.7-35.4-9.8-53.1c-0.3-1.6-0.6-3.2-0.8-4.7
				c-0.4-2.4-0.9-4.7-1.4-7c-0.3-1.5-0.7-3.1-1.1-4.6c-0.6-2.3-1.3-4.5-2.1-6.6c-0.8-2.2-1.7-4.2-2.7-6.3c-0.7-1.4-1.4-2.7-2.2-4
				c-0.4-0.6-0.8-1.3-1.3-1.9c0.4,1.8,0.8,3.5,1.2,5.3s0.8,3.6,1.2,5.4c0.8,3.6,1.7,7.2,2.5,10.9c0.8,3.7,1.7,7.4,2.5,11.1
				s1.7,7.4,2.5,11.2c0.8,3.7,1.6,7.4,2.3,11.1c2.3,11.1,4.5,22.2,6.7,33.3l-0.6,0.2c-0.8-2.3-1.6-4.5-2.4-6.8
				c-1.1-3.1-2.2-6.3-3.4-9.8c-0.3-0.9-0.6-1.7-0.9-2.6c-0.1,0.6-0.2,1.1-0.2,1.6c-0.1,0.9-0.2,1.5-0.3,1.9c0,0.2,0,0.3-0.1,0.3
				c-1-3.6-2.1-7.3-3.1-11c-2.1-7.4-4.2-14.9-6.4-22.5c-1.1-3.8-2.1-7.5-3.2-11.3c-0.4,0.9-0.8,1.7-1.2,2.6c-1.6,3.5-3,7-4.6,10.2
				c-1.2,2.4-2.5,4.8-4.1,6.9c-4.7,6.1-9.5,12.4-14.8,18.1c-2.1,2.3-4.3,4.5-6.5,6.6c-1.1,1-2.3,2-3.5,3
				c-10.2,8.4-20.6,16.7-31,24.8c-7,5.5-13.9,10.9-20.9,16.3c-10.5,8.1-21,16.2-31.4,24.4c-0.9,0.7-1.9,1.3-3,1.9
				c-0.3,0.2-0.7,0.4-1,0.6c2.4-2.2,4.9-4.4,7.5-6.5c2.5-2.1,5-4.2,7.6-6.3c2.5-2.1,5-4.2,7.5-6.3c1.2-1.1,2.5-2.1,3.7-3.2
				s2.4-2.2,3.6-3.3c5.8-5.5,11.6-11,17.4-16.5c17.4-16.5,34.5-33.2,51.6-50.1c6.9-6.8,12.6-14.8,15.2-24.4c0.3-0.9,0.5-1.8,0.6-2.6
				c0.1-0.5,0.1-1,0.1-1.4c0-0.5,0-0.9-0.1-1.3s-0.2-0.8-0.3-1.2c-0.1-0.4-0.3-0.8-0.5-1.2c-0.2-0.4-0.5-0.8-0.8-1.2
				c-0.4-0.6-1-1.3-1.6-2c-0.6,2.1-1.2,4-1.9,6c-0.5,1.3-1,2.5-1.6,3.8c-2.8,6.2-6.6,11.7-10.6,17c-0.8,1.1-1.6,2.1-2.5,3.1
				c-2.9,3.6-6,7.2-9.1,10.8c-0.9,1-1.7,2-2.6,3.1c-0.4,0.5-0.9,1-1.3,1.5c-0.8,1-1.7,2.1-2.5,3.1c-1.2,1.6-2.4,3.2-3.6,4.8
				c1.1-2.2,2.4-4.3,3.7-6.4c0.7-1,1.3-2.1,2-3.1s1.4-2.1,2-3.1c1.3-2,2.6-4,3.9-6c1.3-2,2.6-4,3.8-6c-9.4,9-19.4,17.1-29.9,24.5
				c-3,2.1-6,4.2-9.1,6.2s-6.1,4-9.2,5.9s-6.2,3.8-9.4,5.7c-4.7,2.8-9.5,5.5-14.3,8.1c-10.7,5.9-21.5,11.7-32.2,17.5
				c-7.2,3.9-14.4,7.7-21.6,11.5s-14.4,7.7-21.6,11.5c-2.5,1.3-4.9,2.6-7.4,3.9l-3.1-0.4c-3,1.7-6,3.5-8.6,6.1
				c4.5,0.6,8.9,1.3,13.4,1.8c8.8,1,17.7,1.7,26.5,3c9.7,1.4,17,6.6,22.2,14.9c2.3,3.6,4.8,7.1,7.5,10.9c-8.2-2.5-15.8-4.6-23.4-7.1
				c-17.1-5.8-34.2-11.7-51.3-17.8c-4-1.4-7.3-1.5-11.1,0.5c-8,4.2-16.2,8-24.2,12.2c-2,1.1-4.5,2.7-5.2,4.7
				c-4.6,13.6-9.4,27.2-13,41.1c-2.1,8-2,16.6-2.8,25C314.8,575,315.9,577.1,319.2,577.2z M608,515.9c-2.3,0.3-4.4,0.5-6.9,0.8
				c7.5,3.4,14.6,6.6,21.7,9.9c-0.2,0.4-0.3,0.8-0.5,1.2c-19.9-3.9-39.4-5.5-57.3,6.9C570.6,525.2,589.5,513.7,608,515.9z
				 M461.5,551c-4.5-0.9-9.1-1.8-13.6-2.7c0-0.3,0.1-0.6,0.1-0.9c4.6,0.6,9.2,1.2,13.8,1.9C461.7,549.8,461.6,550.4,461.5,551z
				 M458.2,541.9c0,0.6-0.1,1.1-0.1,1.7c-8.6-0.7-17.2-1.4-21.6-1.7H458.2z M389.9,522.3c8.3,0.7,16.7,0.1,25.1,0.8
				c-3.1,0.5-6.2,1.1-9.3,1.6c7.4,3.8,14.7-0.3,22.8,1.1c-5.5,0.9-10.4,1.7-15.2,2.5c0,0.5,0,1,0,1.5h23.4c0,0.6,0,1.3,0,1.9h-20
				c1.2,4.9,3.9,5,7.3,5c10.3-0.2,20.6-0.1,31,0.8h-34c0.6,2.4,0.9,3.5,1.3,5c-20.6-9.2-41.3-17-64.2-16.4
				C368.4,522.7,378.9,521.5,389.9,522.3z M334.1,544c6.7,0.9,12.3,3,18.4-0.6c-2.5-1.6-4.4-2.8-7-4.5c13.9-0.5,27.1-2.4,39.9-1.2
				c19.4,1.8,30.4,10.6,45.2,26.1c-10,3.9-13.8-5.3-19.8-9.3c-0.6,0.3-1,0.4-1.1,0.6c-2.3,9.9-6.1,12.9-16.3,11.7
				c-4.2-0.5-8.6-1.7-12.4-3.6c-6.5-3.1-7.8-7.7-4.9-14.4c0.2-0.5,0.3-1.2,0.6-2.5c-9,1.1-16.1,5.5-24.7,9.7c4.1,2.6,7.2,4.6,10.9,7
				c-12.2,2.4-20.1-5.7-30-9.6c3.8-0.8,6.8-1.5,11.2-2.4C340.4,548.5,337.8,546.6,334.1,544z M369.9,653.9
				c21.1,4.6,42.6,5.6,64.1,4.7c14.1-0.6,22.4-9.7,28.5-21.2c1.1-2,0.6-4.8,0.9-7.9c-27.6,8-54.2,15.7-80.7,23.4
				c-0.1-0.4-0.2-0.8-0.4-1.2c1.2-0.4,2.3-0.8,3.5-1.2c20.6-6.7,41.2-13.3,61.8-20c4.9-1.6,11.6-2.2,13.9-5.6
				c2.5-3.7,0.7-10.2,0.8-15.5c0-0.6,0.2-1.4-0.1-1.9c-0.4-0.7-1.3-1.8-1.9-1.8c-8.9,0.5-17.7-2.3-26.8,1.3
				c-26.2,10.4-52.8,20.1-79.2,30c-0.3-0.7-0.5-1.3-0.8-2c27.3-10.3,54.5-20.6,82-30.9c-1.3-2.9-3.3-3-5.9-2
				c-5.9,2.3-11.8,4.5-17.7,6.7c-17.6,6.5-35.3,12.9-52.9,19.4l-0.2-0.4c3.9-2,7.9-4,11.8-6c-0.1-0.3-0.2-0.5-0.3-0.8
				c-2,0.4-3.9,0.8-5.9,1.2c2.4-2.1,5.1-3.5,7.9-4.5c17.3-5.8,34.6-11.7,52-16.9c5.6-1.7,9.3-4.4,11.6-10.4c-2,0-3.7,0-5.4,0
				c-27,0.3-54-0.4-80.8-3.8c-3.2-0.4-6.8,0.3-9.9,1.4c-1.4,0.4-3.1,3.1-2.9,4.4c2.7,13.9,5.3,27.9,8.8,41.6c1.2,4.6,4.4,9,7.7,12.6
				c3.9,4.3,8.8,5.7,15.2,3.5c24.9-8.5,50.1-16.2,75.2-24.2c2-0.6,4.1-1,6.1-1.5c0.1,0.5,0.3,1,0.4,1.5
				c-27.2,10.8-55.6,17.9-84.8,26.8C367.8,653.3,368.8,653.7,369.9,653.9z M360.5,486.5c-0.1-0.5-0.2-1.1-0.3-1.6
				c-5.9-2.6-12-4.7-18.7-3.9c-1.4,0.2-3.5,1.2-4,2.3c-2,5.4-3.6,11-5.3,16.5c0.5,0.4,1.1,0.7,1.6,1.1
				C342.7,496.1,351.6,491.3,360.5,486.5z M455.6,589.9c-0.8,0.2-1.1,2.5-1.6,3.8c2.8,0.5,5.6,1.4,8.3,1.2c0.9-0.1,1.6-3.1,3-5.9
				C460.9,589.3,458.2,589.2,455.6,589.9z M453.3,754.9c-5.5,3.7-10.8,7.7-16.2,11.5c-2.7,1.9-5.4,3.8-8,5.7
				c8.1,1.7,15.7,4.6,23.6,2c-1.6-3.9-2.9-7.3-4.2-10.6c8.7,10.2,8.7,10.2,10.6,9.3c-2-3.6-4-7.2-6.1-10.9
				c5.1,2.9,5.9,10.4,12.8,11.4c-3.1-6.8-5.8-12.9-8.5-18.9C455.9,754.5,454.3,754.2,453.3,754.9z M673.5,757.4
				c0.9-3.4,1.9-6.8,2.8-10.1c-0.3-0.1-0.6-0.2-0.8-0.3c-1.1,2.2-2.2,4.3-3.4,6.5c8-30.3,17.5-60.1,22.5-91
				c-11.2,31.8-23.8,63-38,93.5c-0.3-0.6-0.4-1.1-0.2-1.5c10.5-33.6,21-67.2,31.4-100.8c5.5-17.7,6-35.9,4.3-54.3
				c-0.1-0.8-0.6-1.6-0.9-2.4c-1.3,1.5-1.7,2.9-1.7,4.3c-0.1,3.1,0.1,6.1,0,9.2c-0.6,16-1.3,32-8.6,46.8
				c-9.2,18.7-22.9,26.3-43.6,24.3c-14-1.4-28-2.2-42-3.7c-9.1-0.9-18.3-2.2-27.3-3.9c-13.6-2.7-22.1-10.6-23.7-25
				c-0.5-4.5-1.8-8.9-2.7-13.3c-0.4-2-1-3.9-1.5-5.9c-0.5-0.1-1-0.2-1.5-0.3c-1.2,2.8-2.5,5.7-3.7,8.5c0.2,0.2,0.5,0.3,0.7,0.5
				c1-0.8,1.9-1.6,2.9-2.4c0.2,0.2,0.4,0.4,0.6,0.6c-2.5,3.9-4.9,7.9-8,12.8c-0.5-4-0.5-6.5-1.1-8.9c-1-3.9-3.3-7.6-3.6-11.4
				c-1.2-14.6-1.9-29.3-2.5-43.9c-0.1-3.1-0.9-4.4-4.1-4.3c-4.2,0.2-8.3,0-12.5,0c0-0.3,0-0.7,0-1h17.1c-6.2-7.8-32.6-8.5-42.4-1.8
				c-0.3,0.2-0.1,1-0.1,1.7c-0.9,0.1-2.6,0.4-3.8,0.6c0,7,0.2,13.6,0,20.2c-0.5,18.1-4.6,35-16.3,49.6c-6.8,8.5-15,14.7-25.9,15.4
				c-12.6,0.8-25.2,1.2-37.8,0.4c-13.2-0.9-26.3-3-39.3-5.3c-7.3-1.3-14-5.3-17.4-12.1c-4.4-8.9-8.5-18.2-11-27.7
				c-2.1-8-1.8-16.6-2.2-25c-0.4-7.1-1.4-7.8-8.9-5.1c1.6,4.7,3.2,9.5,4.8,14.2c-0.2,0.1-0.5,0.2-0.7,0.3c-2.4-4.8-4.8-9.6-7.3-14.5
				c-0.5,0.2-1,0.4-1.5,0.6c0.2,29.1,2.9,58,11,86.1c8,27.8,16.4,55.6,28.3,82.2C340.2,737,329,713.1,319,688.6
				c5.6,41.5,23.4,78,45.4,112.8c-0.4,0.3-0.8,0.6-1.2,0.9c-11.7-13.8-23.3-27.6-35.7-42.2c14.4,30.1,32.1,56.4,57.9,77.7
				c0.6-3.3,1-5.9,1.5-8.6l1-0.1c0.3,1.8,0.9,3.6,0.9,5.4c0,6,3,10.1,7.3,14c14.1,12.6,27.8,25.7,41.8,38.3
				c6.1,5.5,12.8,10.9,21.3,11.7c11.6,1.2,23.2,2.3,34.8,2c17.2-0.4,34.9,1,50.6-8.7c5.3-3.3,11.4-5.5,16.4-9.2
				c19.9-14.4,39.2-29.6,59.2-43.7c16.1-11.4,33-21.7,46.7-36.1c3-3.1,4.8-7.4,6.9-11.3c1.1-1.9,1.7-4.1,2.6-6.6
				c0.6,1.2,0.9,1.9,1.7,3.8c3.3-5.6,7.2-10.1,9-15.4c6.2-17.8,7.1-36.6,9.1-55.2c-4.6,13.6-9.2,27.3-13.7,40.9
				c-0.5-0.2-1-0.3-1.5-0.5c7.2-26.8,18-52.9,18.7-81.2C695.8,705.5,688.5,732.7,673.5,757.4z M542.8,680.8
				c3.5,5.2,6.9,10.5,10.6,15.6c2.8,3.9,2.7,7-1.4,9.8c-1.3,0.9-2.3,2.2-3.5,3.3c-0.2-0.4-0.5-0.7-0.5-0.7c4.1-5,3.4-9.7,0-14.9
				c-2.5-3.9-4.1-8.4-6-12.6C542.2,681.1,542.5,681,542.8,680.8z M536.2,648.3c0.4,0.3,0.8,0.6,1.2,0.9c-2.3,3.1-4.6,6.2-6.9,9.2
				c-0.5-0.4-1.1-0.8-1.6-1.2C531.3,654.2,533.8,651.3,536.2,648.3z M518.2,708.2c4.7-1.5,8.3-4,10.4-8.7c0.4-1,2.6-1.9,3.6-1.7
				c2.1,0.5,4.3,1.6,6,3c3.5,2.8,2.7,7-1.5,8.8c-0.4,0.2-0.9,0.4-1.4,0.4c-2.2,0.4-4.4,0.8-7.2,1.3c1.5-2.2,2.6-3.9,4.5-6.7
				c-7.8,0.6-11.5,7.2-17.6,8.3c-0.3-0.4-0.7-0.8-1-1.1C515.4,710.6,516.6,708.7,518.2,708.2z M524.6,753.1
				c-10.6-5.6-19.4,1.6-28.9,3.8c-8.7,2-16.6,0.8-24.6-3c1.2-0.1,2.4-0.4,3.5-0.2c9.7,1.6,19.1-0.9,27.7-4.5
				C511,745.5,517.8,746.9,524.6,753.1z M459.6,692.7c1.3-3.4,3.5-6.5,5.9-10.6c-1.5,5.1-4,9.4-3.4,13.1c0.5,3.4,4.5,6.3,7,9.6
				c6.5-6.9,19.6-1.9,26.5,11.4c-3.3-1.1-6.6-3.3-8.4-2.4c-6.6,3.1-10.4-2.1-14.8-4.6c-4.6-2.6-8.6-6.7-12.3-10.6
				C459,697.4,459,694.4,459.6,692.7z M538,840.1c-0.3-0.5-0.6-1-0.8-1.4c5.7-3.4,11.5-6.8,17.2-10.2c0.3,0.6,0.6,1.1,1,1.7
				C549.5,833.5,543.7,836.8,538,840.1z M522.8,842.5c11.2-7.7,22.2-15.4,33.2-23C547.4,830.8,536.4,838.6,522.8,842.5z
				 M481.5,847.9c3.8-1.9,6.7-3.3,9.6-4.8c-15.3-2.6-32,1.2-44.6-12c3.5,1.6,6.8,3.1,10.1,4.6c0.3-0.3,0.5-0.6,0.8-0.9
				c-11.3-6.2-17.5-16-20.2-28.4c0.8,0.8,1.6,1.6,2.3,2.4c0.8,1,1.6,2.1,2.2,3.2c5.1,9.3,13.3,13.7,23.5,15.1
				c24.2,3.3,47.7,0.7,70.1-9.4c5.1-2.3,9.4-6,14.2-8.9c4.3-2.6,8.8-5,13.8-7.8C554.6,819.9,513.2,845.6,481.5,847.9z M597.9,775.7
				c-2-4.3-3.7-7.8-5.7-12.1c-6.2,14.4-19,16.5-31.3,19.9c-6.7,1.8-12.9,5.5-19.6,7.6c-16.4,5.1-32.6,10.9-50.2,10.5
				c5-1.1,10.1-2,15-3.5c9.6-2.9,19.1-6,28.4-9.6c2.4-0.9,4-3.7,6-5.7l-0.6-1.2c-3.9,0-7.8-0.1-11.7,0c-10.5,0.4-20.9,1.4-31.4,1.3
				c-6.9,0-13.7-1.6-20.6-2c-5-0.3-10,0.1-14.9,0.5c-3.2,0.3-6,8.4-4.1,11.1c0.8,1.2,1.9,2.1,2.8,3.2c-0.2,0.4-0.5,0.7-0.7,1.1
				c-3.4-2.1-7.5-3.6-10.1-6.4c-4.8-5-10.4-7.9-17-9.6c-4.5-1.1-8.9-2.8-13.3-4.6c-1.2-0.5-1.9-2.3-2.9-3.6c1.2-0.7,2.3-1.3,3.5-2
				c4.1-2.3,8.2-4.5,12.3-6.8c8.1-4.6,16.1-9.3,24.6-14.1c0.5,2.3,0.7,3.4,0.9,4.4l0,0c4,5.1,7.9,10.4,12.2,15.4
				c1.2,1.4,3.4,2.2,5.3,2.7c6.1,1.6,12.1,3.3,18.3,4.3c3.6,0.6,7.7,0.8,11.2-0.3c9.1-3,18-6.7,27-10.2c0.4-0.2,0.9-0.1,1.5,0.5
				c-4.9,2.5-9.8,5-14.7,7.5c0.1,0.3,0.3,0.5,0.4,0.8c9.9-4.2,19.7-8.5,30.4-13.1c-4.9-1.8-9.3-3.5-13.7-5.2
				c17.6,2.8,34.9,6.4,53.4,2.2c-4.3-3.6-8.5-7.3-12.8-10.9c8.3,0.6,15.3,3.9,21.7,8.5c1.4,1,1.9,4,1.9,6.1
				C599.2,766.6,598.5,770.6,597.9,775.7z M613.3,773c-0.2,0-0.5,0.1-0.7,0.1c-1.3-4.3-2.6-8.6-3.9-12.8c0.4-0.2,0.8-0.3,1.2-0.5
				c0.4,1.7,0.8,3.4,1.2,5c0.2,0,0.5,0,0.7,0c0.3-1.3,0.6-2.7,0.8-4c0.2,0,0.4,0,0.6,0V773H613.3z M706.8,597.7
				c-4.4-0.4-3.3,3-3.5,5.3c-0.4,5.1-0.9,10.3-0.9,15.5c-0.1,11.6,0,23.1,0,34.7c0.3,0,0.6-0.1,0.9-0.1c0.6-4.9,1.2-9.9,1.8-14.8
				c1.4-11.5,2.9-23.1,4.2-34.6C709.5,601.5,711.3,598.1,706.8,597.7z M377,853.1c1.9,22.8,3.7,44.3,5.6,66.9c0.5-2.3,0.7-3.6,1-4.9
				c0.2,0,0.5,0,0.7,0c0.5,3.5,0.9,6.9,1.4,10.4c0.2,0,0.5,0,0.7-0.1c0-15.9-0.5-31.9,0.2-47.8C387,868,381.2,861.7,377,853.1z
				 M674.8,1019.2c2.4-6.7,5.9-13.6,5.2-20.2c-1.3-13.3-4.9-26.4-7.6-40.2C664.3,979.7,673,999.2,674.8,1019.2z M674.7,946.6
				c-0.5,0.1-1.1,0.2-1.6,0.3c0.8,4.3,1.5,8.7,2.3,13c0.4-0.1,0.7-0.1,1.1-0.2C675.9,955.3,675.3,951,674.7,946.6z"/>
			<polygon class="st3" points="380.4,541.6 364.5,542.8 346.3,552.4 349,556.9 354.1,561.3 377.1,573.3 419.2,576.3 432.9,565.5 
				423,557.2 396.8,544.9 			"/>
			<polygon class="st3" points="562.7,562.2 570.8,549.1 587.8,541.4 614.1,540.5 633.2,547.3 646.3,556.6 638.8,562.8 630.2,562.2 
				620.3,566.1 610.2,570.6 590.8,572.7 573.2,571.8 			"/>
		</g>
	</g>
	<g>
		<defs>
			<circle id="SVGID_00000105422016675617852370000006621496370769009342_" cx="525" cy="525" r="525"/>
		</defs>
		<clipPath id="SVGID_00000181794273768952208540000014559220346170436240_">
			<use xlink:href="#SVGID_00000105422016675617852370000006621496370769009342_"  style="overflow:visible;"/>
		</clipPath>
		<g id="Outline" style="clip-path:url(#SVGID_00000181794273768952208540000014559220346170436240_);">
			
				<linearGradient id="SVGID_00000115473501522234203370000005821344719611829420_" gradientUnits="userSpaceOnUse" x1="542.0501" y1="2682.2004" x2="542.0501" y2="3605.6001" gradientTransform="matrix(1 0 0 1 0 -2548)">
				<stop  offset="1.302083e-03" style="stop-color:#FF66FF"/>
				<stop  offset="1" style="stop-color:#140F3F"/>
			</linearGradient>
			<path style="fill:url(#SVGID_00000115473501522234203370000005821344719611829420_);" d="M424.1,536.7c-3.3,0.1-6-0.1-7.3-5h20
				c0-0.6,0-1.3,0-1.9h-23.4c0-0.5,0-1,0-1.5c4.8-0.8,9.6-1.6,15.2-2.5c-8.1-1.5-15.4,2.7-22.8-1.1c3.1-0.5,6.2-1.1,9.3-1.6
				c-8.4-0.7-16.8-0.1-25.1-0.8c-11-0.9-21.5,0.3-31.8,3.9c22.9-0.6,43.6,7.1,64.2,16.4c-0.4-1.5-0.7-2.7-1.3-5H455
				C444.7,536.7,434.4,536.6,424.1,536.7z M908.4,522.4c-3.7-2.3-7.3-4.4-10.8-6.7c-16.6-10.7-30-23.9-35.8-43.5
				c-1.7-5.9-4.5-11.5-7.3-18.3c-0.8,3.1-1.3,4.9-1.8,6.6c-0.5,0-1-0.1-1.5-0.1c-0.1-5.5-0.3-11.1-0.4-16.6l2.1-0.4
				c0-0.2,0-0.5,0-0.7c-0.9-31.3,2.4-62.6-2-93.9c-1.4-10.1-1.3-20.4-3.9-30.2c-6.2-24-15.7-46.7-28.7-67.9
				c-3.5-5.7-7.4-11.4-12.1-16.2c-14.3-14.9-29-29.5-43.6-44.1c-2.8-2.8-6.1-5.3-9.2-7.9c-17.8-14.6-38.2-24.5-59.3-33.1
				c-20.4-8.3-40.9-16.6-63.9-15c-16.7,1.1-33.6,1-49.8,5.8c-14.8,4.4-29.3,9.8-44.1,14.6c-2.8,0.9-5.9,1.9-8.5-1
				c-0.6-0.7-2.1-0.7-3.1-0.9c-12.1-2.1-24.3-2.9-36.6-1.9c-15.1,1.2-30.4,0.5-45.1,4.9c-6.6,2-13.5,3.2-20.2,4.9
				c-34.4,8.6-69.1,16.2-100.1,34.8c-8,4.8-15.4,9.6-21.3,17c-7.9,10-18,18.6-24.3,29.4c-13.1,22.4-24.7,45.5-34.7,69.6
				c-12.7,30.5-20.4,62.2-22.8,94.6c-1.2,16.3-2,32.7-1.6,49.1c0,0-0.1,2.6,0.1,5c0.8,10.3,1.7,20.6,3.3,30.8
				c2.2,14,5.3,27.9,7.6,41.9c0.7,4.3,0.1,8.8,0.1,13.2c-0.5,0-1.1,0-1.6,0c-1.2-4.6-2.3-9.3-3.5-13.9c1,12.4,3.1,24.6,5,36.8
				c1.6,9.9,6.9,19.1,5.2,29.7c-2.3,14.2-3.5,28.6-6.5,42.6c-3.6,16.8-6.8,33.7-6.4,50.8c0.8,29,2.9,58.1,11,86.2
				c5,17.3,7,35.6,16.6,51.4c7.9,12.9,16.4,25.4,24.6,38.1c1,1.5,2.1,3,2.5,4.7c3.9,17.1,8,34.2,11.2,51.5c2,10.9,2.4,22.1,3.6,33.2
				c1.9,17.2,3.8,34.4,2.2,51.7c-0.2,2.1-1.4,5.4-2.9,5.9c-11.3,3.9-21,11.5-33.8,12.6c-13.6,1.1-26.8,5.6-40.4,7.5
				c-15.3,2.2-26,12-37.5,20.6c-0.9,0.7-1.8,1.4-2.7,2h5.8c0.2-0.6,0.2-1.3,0.3-2c0.1-0.8,0.3-1.5,0.7-1.7c9-4.2,18.1-8.3,27.3-12.2
				c2.4-1,4.2-0.2,5,2.7c1.1,3.8,2.5,7.5,3.8,11.2c0.2,0.7,0.5,1.3,0.7,2h3.9c-0.3-0.7-0.6-1.3-0.9-2c-1.8-4-3.6-8-5.3-11.8
				c12.4-3.7,24.9-7.4,37.2-11.1c1.5,1,3.5,2.1,5.2,3.6c0.9,0.8,1.3,2.4,1.5,3.7c1,5.2,1.8,10.4,2.7,15.6c0.1,0.7,0.2,1.3,0.3,2h1.9
				c-0.1-0.7-0.3-1.3-0.4-2c-1.2-5.8-2.3-11.6-3.3-17.5c-0.2-1,0.3-2.9,1.1-3.3c8.1-4.3,16.2-8.3,24.9-11.6
				c-1.5,1.2-3.1,2.4-4.6,3.6c0.1,0.2,0.1,0.4,0.2,0.6c2.9-1.1,5.7-2.2,9.1-3.4c1.6,10.7,3.2,21.1,4.8,31.5c0.1,0.7,0.2,1.3,0.3,2
				h9.7c-0.1-0.7-0.2-1.3-0.3-2c-1.6-10.8-3.2-21.7-4.9-32.5c-0.5-2.8,0.4-4.4,2.7-6c5.3-3.6,10.4-7.5,15.8-11.6
				c2,16.8,3.9,33.4,5.8,50c0.1,0.7,0.2,1.3,0.2,2h10.7c-0.1-0.7-0.2-1.3-0.3-2c-2.4-17.1-4.7-34.2-7.3-51.2
				c-0.8-5.1,0.1-9,3.8-13.1c14.5-16,23.9-34.8,29.6-55.6c0.4-1.5,1.2-2.8,2.3-4.1c2.5,17.5-1.3,34.3-3.9,52.3
				c13.1-22.1,12.5-45.9,15-69.3c0.2,1.1,0.4,2.2,0.6,3.3c4.3,24.6,0.5,48.9-3.2,73.2c-1.6,10.5-2.7,21.1-4.5,31.8
				c-0.5-5.2-1-10.4-1.5-15.6c-0.2,0-0.3,0-0.5,0v50.2h12.6c0-0.7,0.1-1.3,0.1-2c0.7-15.9,1.3-31.9,2.2-47.8
				c0.6-10.9,1.6-21.7,2.5-33.1v82.9h7.8c-0.1-0.7-0.2-1.3-0.3-2c-2.9-21.6-1.2-43.1,0.5-64.7c2.7-34.7,3.2-69.4,1.1-104.1
				c0-0.5,0-1,0-2.5c1.2,1.5,2,2.3,2.6,3.2c7.7,11,15.3,22,22.9,33.1c1.9,2.8,3.5,5.8,5,8.8c10.3,20.8,22.3,38.5,34.2,48.6
				c-8.9-15-17.8-30-26.4-44.6c16.3,2.8,32.8,5.6,49.3,8.3c6.7,1.1,13.5,1.7,20.2,2.8c2.8,0.5,5.7,1.2,8.3,2.3
				c9.4,4,18.8,7.8,27.9,12.3c9.9,4.9,11.5,8.3,9.2,19.1c-1.9,9-4.4,17.8-6.6,26.8c-0.2,0.9-0.3,1.8,0.3,3.1
				c0.8-1.6,1.5-3.3,2.5-4.8c9.8-14.2,19.2-28.7,29.8-42.3c4.3-5.5,11-9.3,17-13.4c6.4-4.4,11.5-9.8,15.2-16.6
				c11.2-20.6,22.3-41.2,33.6-61.7c3.3-5.9,7.2-11.5,11-17.5c0.3,0.6,0.6,0.9,0.5,1.1c-6.7,22.1-3.2,44.2-0.4,66.3
				c3.7,28.9,6.6,57.9,5.3,87c-0.7,16.5-3,33-4.6,49.5c-0.1,0.7-0.1,1.3-0.2,2h2.9c0.2-0.7,0.4-1.3,0.5-2c2.3-8.6,4.7-17.2,7.1-26
				c0.4,0.7,0.8,1.4,0.9,1.6c1-11,2.1-23,3.2-35c0.4,0,0.9,0,1.3,0c2,9.6,4,19.2,5.9,28.8c0.2,1.3-0.6,2.8-1,4.2
				c-2.8,8.8-5.7,17.7-8.5,26.5c-0.2,0.7-0.4,1.3-0.6,2h8.7c0.2-0.7,0.4-1.3,0.6-2c2.7-8.8,5.3-17.6,8-26.4c0.3,0.1,0.6,0.1,0.9,0.2
				c-0.5,8.7-1.1,17.5-1.6,26.2c0,0.7-0.1,1.3-0.1,2h144.5c0.1-0.7,0.2-1.3,0.2-2c1.9-15.2,3.2-30.4,6-45.4c2.8-15.2,7.4-30,11.1-45
				c4.3-17.4,8.6-34.8,12.9-52.2c4-16.1,7.8-32.3,11.9-48.3c2.9-11.1,5.8-22.1,9.4-33c3-9.2,7.5-17.9,10.3-27.1
				c6.3-20.8,10.5-41.9,8.8-63.9c-1.9-23.5-4.9-46.8-11.5-69.6c-5.7-20-13.9-38.8-23.8-57c-1.8-3.4-3.1-7.7-3-11.5
				c0.3-10,1.6-19.9,2.5-29.9c0.6-7.2,1.3-14.4,2-22.1c4.5,3.4,8.1,7,12.4,9.2c4.2,2.2,9,3.2,13.7,4.3c4.6,1.1,9.4,1.8,14,2.7
				c-5.3-3.5-10.2-7-15.4-10.1c-7.1-4.2-7.2-10.6-6.4-17.6c6.2,2.5,12.1,4.9,18,7.2c0.3-0.5,0.6-1.1,0.9-1.6
				c-18.1-15.6-32.5-34-42.7-55.5c7.4,8.4,14.2,17.2,22.1,24.9C882.8,519.6,901,523.5,908.4,522.4z M652.2,479.7
				c3,5.3,6,10.6,8.7,16.1c8.8,18,17.6,36,25.9,54.2c4.4,9.7,5.8,20.1,5.1,30.8c-0.1,2.4,0.3,5.3-3.5,4.8c-3.2-0.4-7.4,1.7-8.4-3.9
				c-1.8-9.7-4.2-19.3-5.9-29c-4.6-25.5-13.5-49.5-25.5-72.4L652.2,479.7z M531.3,540.5c-2.1,6.3-1.4,13.5-1.9,20.5
				c-1.2-0.2-1.8-0.2-2.4-0.4c-23-9-43.7-2.3-63.5,9.7c-1.3,0.8-2.2,2.2-3.1,3.4c-0.8,0.9-1.4,2-2,3c-0.2-1.4-0.6-2.7-0.6-4.1
				c-0.1-3.1,1.3-7-0.1-9.1c-3.3-4.6-7.9-8.3-12-12.4c4.7,6.4,10.5,11.9,10.3,20.9c-0.1,3.9-1.2,5.1-5,4.9
				c-7.3-0.4-14.5-0.6-21.8-0.9c-1,0-1.9-0.5-3.2-0.9c9.3-7,9.3-7,8-10.1c-6.5,5-13.6,8.4-22.1,8.4c0.7,0.2,1.3,0.5,2,0.7
				c-2.3,0.8-4.5,1-6.7,0.8c-13.3-1.4-26.6-3.1-40-4.2c-11.4-0.9-22.8-1.2-34.3-1.4c-2.3,0-4.7,1.5-7.1,2.3c0.1,0.7,0.1,1.4,0.2,2.1
				l15.1,3c0,0.5-0.1,1-0.1,1.5c-7.2-0.3-14.4-0.6-21.6-1c-3.3-0.2-4.5-2.2-4.2-5.2c0.8-8.3,0.7-16.9,2.8-25
				c3.6-13.9,8.4-27.5,13-41.1c0.7-1.9,3.1-3.6,5.2-4.7c8-4.2,16.2-8,24.2-12.2c3.8-2,7.1-1.9,11.1-0.5c17,6.1,34.1,12,51.3,17.8
				c7.5,2.5,15.2,4.7,23.4,7.1c-2.6-3.8-5.2-7.3-7.5-10.9c-5.2-8.3-12.6-13.5-22.2-14.9c-8.8-1.3-17.6-1.9-26.5-3
				c-4.5-0.5-8.9-1.2-13.4-1.8c2.6-2.6,5.6-4.4,8.6-6.1l3.1,0.4c2.5-1.3,4.9-2.6,7.4-3.9c7.2-3.8,14.4-7.7,21.6-11.5
				s14.4-7.7,21.6-11.5c10.8-5.8,21.5-11.6,32.2-17.5c4.8-2.7,9.6-5.3,14.3-8.1c3.2-1.8,6.3-3.7,9.4-5.7c3.1-1.9,6.2-3.9,9.2-5.9
				c3.1-2,6.1-4.1,9.1-6.2c10.4-7.4,20.5-15.4,29.9-24.5c-1.3,2-2.6,4-3.8,6c-1.3,2-2.6,4-3.9,6c-0.7,1-1.4,2.1-2,3.1
				c-0.7,1-1.4,2.1-2,3.1c-1.3,2.1-2.6,4.2-3.7,6.4c1.2-1.6,2.4-3.2,3.6-4.8c0.8-1.1,1.7-2.1,2.5-3.1c0.4-0.5,0.8-1,1.3-1.5
				c0.9-1,1.7-2.1,2.6-3.1c3-3.6,6.1-7.1,9.1-10.8c0.8-1,1.7-2.1,2.5-3.1c4.1-5.3,7.8-10.8,10.6-17c0.6-1.2,1.1-2.5,1.6-3.8
				c0.7-1.9,1.4-3.9,1.9-6c0.6,0.7,1.2,1.4,1.6,2c0.3,0.4,0.5,0.8,0.8,1.2c0.2,0.4,0.4,0.8,0.5,1.2c0.1,0.4,0.2,0.8,0.3,1.2
				c0.1,0.4,0.1,0.9,0.1,1.3c0,0.5-0.1,0.9-0.1,1.4c-0.1,0.8-0.3,1.6-0.6,2.6c-2.6,9.6-8.3,17.6-15.2,24.4
				c-17.1,16.8-34.3,33.5-51.6,50.1c-5.8,5.5-11.6,11-17.4,16.5c-1.2,1.1-2.4,2.2-3.6,3.3c-1.2,1.1-2.4,2.2-3.7,3.2
				c-2.5,2.1-5,4.2-7.5,6.3c-2.5,2.1-5.1,4.2-7.6,6.3c-2.5,2.1-5,4.3-7.5,6.5c0.3-0.2,0.7-0.4,1-0.6c1-0.6,2-1.2,3-1.9
				c10.5-8.1,21-16.2,31.4-24.4c7-5.4,14-10.8,20.9-16.3c10.4-8.2,20.8-16.4,31-24.8c1.2-1,2.3-2,3.5-3c2.3-2.1,4.4-4.3,6.5-6.6
				c5.3-5.7,10.1-12,14.8-18.1c1.6-2.1,2.9-4.4,4.1-6.9c1.6-3.3,3-6.7,4.6-10.2c0.4-0.9,0.8-1.7,1.2-2.6c1.1,3.7,2.1,7.5,3.2,11.3
				c2.1,7.5,4.3,15.1,6.4,22.5c1,3.7,2.1,7.4,3.1,11c0-0.1,0-0.2,0.1-0.3c0.1-0.4,0.1-1,0.3-1.9c0.1-0.5,0.1-1,0.2-1.6
				c0.3,0.9,0.6,1.8,0.9,2.6c1.2,3.5,2.3,6.7,3.4,9.8c0.8,2.3,1.6,4.6,2.4,6.8l0.6-0.2c-2.3-11.1-4.4-22.2-6.7-33.3
				c-0.8-3.7-1.5-7.4-2.3-11.1s-1.6-7.5-2.5-11.2c-0.8-3.7-1.7-7.4-2.5-11.1s-1.7-7.3-2.5-10.9c-0.4-1.8-0.8-3.6-1.2-5.4
				s-0.8-3.6-1.2-5.3c0.4,0.6,0.9,1.3,1.3,1.9c0.8,1.3,1.6,2.6,2.2,4c1,2,1.9,4.1,2.7,6.3c0.8,2.2,1.5,4.4,2.1,6.6
				c0.4,1.5,0.8,3,1.1,4.6c0.5,2.3,1,4.6,1.4,7c0.3,1.6,0.6,3.2,0.8,4.7c3.1,17.7,6.4,35.4,9.8,53.1c1.3,7.1,2.7,14.2,4,21.2
				c0.7,3.5,1.3,7.1,2,10.6c0.5-0.1,1-0.2,1.5-0.3c-0.5-3.4-1.1-6.9-1.6-10.3s-1.1-6.9-1.6-10.3c0.3-0.1,0.5-0.1,0.8-0.2
				c1.2,3.5,2.3,6.9,3.5,10.4s2.3,7,3.5,10.5c1.8,5.3,3.5,10.6,5.4,16c0.6,1.8,1.2,3.6,1.8,5.5c-14.1,2.7-27.9,5.4-41.8,8
				c-2.5,0.5-4.9,0.8-7.4,1.1c-2.5,0.3-5,0.7-7.4,1.1c-0.1,0-0.3,0.1-0.4,0.1c-0.5,0.2-1.1,0.5-1.6,0.9c-0.4,0.3-0.7,0.6-0.9,1v0.1
				c-0.2,0-0.3,0.1-0.5,0.1c0.2,0.1,0.4,0.2,0.6,0.2c0.1,0.2,0.2,0.4,0.3,0.6c0.3,0.5,0.7,1,1,1.4c0.7,0.8,1.3,1.6,2,2.4l5.5-1
				c5.4,2.1,10.3,4.1,15.3,6.1c0.1-0.3,0.2-0.6,0.4-0.9c-2.3-1.1-4.7-2.2-7-3.3c0.1-0.4,0.2-0.8,0.4-1.2c1.5,0.1,3.1,0.3,4.6,0.2
				c6.8-0.3,13.7,0.1,20.2-1.2c6.9-1.4,13.3-4.6,20-6.9c7-2.4,6.8-2.2,9.6,4.9c4.5,11.4,9.2,22.7,13.8,34.1c0.2-0.1,0.4-0.2,0.6-0.2
				c-1-3.6-2.1-7.3-3.1-10.9c0.5-0.2,0.9-0.4,1.4-0.6c4.5,9.2,9,18.3,13.7,27.8c-6.8,1.5-12.4,2.7-19.2,4.2c4.1-3.8,7.3-6.7,9.6-8.8
				c-4.5,0.2-10,1.7-14.8,0.5c-12-2.9-23.9-3.3-36.1-3c-16.6,0.4-26.4,9.3-32.3,23.9c-1,2.5-1.2,4.3,2.3,4.6
				c0.6-8.3,10-17.5,19.5-18.9c-0.1,1.6-0.2,3.2-0.3,4.7c-0.4,10.1,6.9,16.5,16.8,14.8c2.1-0.3,4.1-0.9,6.2-1.2
				c10.7-1.7,12.9-4.6,11.2-16.4c5.9,3.2,11,5.9,17.3,9.3c-5.9,3.7-10.3,6.4-14.7,9.1c0.1,0.3,0.2,0.6,0.3,0.8
				c3.9-0.8,7.8-1.6,12.2-2.4c-0.4,1.4-0.6,2.4-1.3,4.9c3.5-1.5,5.9-2.4,8.3-3.6c1.9-0.9,3.5-2.8,5.4-3c7.7-0.8,14.9-2.5,21.3-7
				c2.4-1.7,3.8-0.4,4.7,2c1.9,5.8,3.9,11.6,5.8,17.5c1,3,1.7,6,3.1,10.7c-5.5-1.5-9.6-2.5-13.7-3.8c-2.6-0.8-5-2.5-7.7-2.9
				c-25.3-3.7-50.5-7.9-76.2-6.4c-11.6,0.7-23.2,1.3-34.8,1.8c-1.5,0.1-3.3-0.8-4.5-1.8c-1.7-1.4-3.1-3.2-4.5-5
				c-0.7-0.8-1.4-2-1.4-2.9c0.8-9.9,1.6-19.7,2.7-29.6c0.4-3.9,1.6-7.8,2.4-11.6C538.3,529.1,533.3,534.3,531.3,540.5z M449.8,624.2
				c-2,0.5-4.1,0.9-6.1,1.5c-25.1,8-50.3,15.7-75.2,24.2c-6.5,2.2-11.3,0.8-15.2-3.5c-3.3-3.6-6.5-8-7.7-12.6
				c-3.5-13.7-6.2-27.7-8.8-41.6c-0.2-1.3,1.5-4,2.9-4.4c3.1-1,6.7-1.8,9.9-1.4c26.8,3.4,53.8,4.1,80.8,3.8c1.7,0,3.4,0,5.4,0
				c-2.3,6-6,8.7-11.6,10.4c-17.5,5.2-34.7,11.2-52,16.9c-2.8,0.9-5.5,2.4-7.9,4.5c2-0.4,3.9-0.8,5.9-1.2c0.1,0.3,0.2,0.5,0.3,0.8
				c-3.9,2-7.9,4-11.8,6l0.2,0.4c17.6-6.4,35.3-12.9,52.9-19.4c5.9-2.2,11.8-4.4,17.7-6.7c2.6-1,4.6-0.9,5.9,2
				c-27.5,10.4-54.7,20.7-82,30.9c0.3,0.7,0.5,1.3,0.8,2c26.4-9.9,53-19.6,79.2-30c9.1-3.6,17.9-0.8,26.8-1.3c0.6,0,1.4,1.1,1.9,1.8
				c0.3,0.5,0.1,1.3,0.1,1.9c-0.1,5.3,1.7,11.8-0.8,15.5c-2.3,3.4-9.1,4-13.9,5.6c-20.6,6.7-41.2,13.3-61.8,20
				c-1.2,0.4-2.3,0.8-3.5,1.2c0.1,0.4,0.2,0.8,0.4,1.2c26.6-7.7,53.2-15.4,80.7-23.4c-0.3,3.1,0.2,5.9-0.9,7.9
				c-6.1,11.5-14.4,20.6-28.5,21.2c-21.5,0.9-43-0.1-64.1-4.7c-1-0.2-2.1-0.7-4.5-1.5c29.3-8.8,57.7-16,84.8-26.8
				C450.1,625.2,450,624.7,449.8,624.2z M462.4,594.9c-2.7,0.2-5.5-0.7-8.3-1.2c0.5-1.3,0.8-3.6,1.6-3.8c2.6-0.7,5.3-0.6,9.8-0.9
				C464,591.8,463.3,594.8,462.4,594.9z M332.2,499.8c1.7-5.5,3.3-11.1,5.3-16.5c0.4-1.1,2.5-2.2,4-2.3c6.7-0.8,12.8,1.4,18.7,3.9
				c0.1,0.5,0.2,1.1,0.3,1.6c-8.9,4.8-17.8,9.6-26.7,14.4C333.3,500.5,332.7,500.1,332.2,499.8z M409.7,401.8c9-6,18-11.9,26.9-18.1
				c4.4-3.1,8.8-6.3,13.1-9.5c8.6-6.5,17-13.5,25.2-20.5c4.1-3.5,8.3-7,12.4-10.5s8.3-7,12.5-10.4c-7.3,7.5-14.8,14.8-22.5,21.9
				c-1.5,1.4-3.1,2.8-4.7,4.2c-3.1,2.8-6.3,5.5-9.5,8.2s-6.4,5.3-9.7,7.9c-4.9,3.9-10,7.7-15.1,11.3s-10.4,7.2-15.8,10.5
				c0.7-0.2,1.3-0.4,2-0.6c0.3-0.1,0.7-0.2,1-0.3c0.3-0.1,0.7-0.2,1-0.3c0.7-0.3,1.3-0.5,2-0.9c0.7-0.3,1.3-0.6,1.9-1
				c12.6-6.5,24.1-14.6,34.9-23.4c4.8-3.9,9.6-8,14.2-12.2c3.5-3.1,6.9-6.3,10.4-9.5c5.3-4.9,10.5-9.7,15.8-14.6s10.6-9.7,15.9-14.6
				c0.2,0.2,0.3,0.3,0.5,0.5s0.3,0.3,0.5,0.5c-1.8,1.9-3.7,3.9-5.5,5.9c-3.7,3.9-7.3,7.9-11,11.7c-1.9,1.9-3.7,3.8-5.7,5.7
				c-15.6,15.4-31.4,30.7-50.5,42c-2.4,1.4-4.7,2.8-7.1,4.2c-1.2,0.7-2.4,1.4-3.6,2c-3,1.6-6.1,3.1-9.3,4.1c-1.3,0.4-2.6,0.8-4,1.1
				c-2,0.4-4.1,0.7-6.3,0.7c-1.1,0-2.3,1.1-3.4,1.7c-1.7,0.9-3.3,1.9-5,2.8c-3.3,1.9-6.7,3.7-10,5.6c-1.7,0.9-3.4,1.8-5.1,2.7
				C400.7,407.8,405.2,404.8,409.7,401.8z M369.8,415.1l-0.6-1.1c11.4-6.3,22.8-12.6,34.2-18.9c0.2,0.4,0.4,0.8,0.6,1.1
				C392.6,402.5,381.2,408.8,369.8,415.1z M462,261.7c0,0.3,0,0.6,0,0.9c0,0.6,0,1.1-0.1,1.6c0,0.2-0.1,0.5-0.1,0.7
				s-0.1,0.4-0.2,0.6c-1.6,3-3.3,5.9-5.1,8.7c-1.7,2.9-3.5,5.7-5.3,8.6c-0.5,0.8-1,1.5-0.8,2.9c9.9-11.5,19.8-23,29.7-34.6
				c-0.2,1.7-4.2,7.7-10.1,15.6c-0.7,0.9-1.3,1.8-2,2.7c-0.7,0.9-1.4,1.9-2.2,2.8c-0.4,0.5-0.7,1-1.1,1.5c-1.1,1.5-2.3,3-3.5,4.5
				c-1.6,2-3.3,4.1-4.9,6.3c-1.3,1.6-2.6,3.2-3.8,4.8c-0.4,0.5-0.9,1.1-1.3,1.6c-0.9,1.1-1.7,2.1-2.6,3.2c-1.3,1.6-2.6,3.2-3.9,4.7
				c-3.5,4.1-6.9,8.1-10.1,11.8c-6.8,7.7-12.6,13.8-15.9,16.4c0.4-0.5,0.7-1,1.1-1.5c0.7-1,1.4-2,2.1-2.9c0.3-0.5,0.7-0.9,1-1.4
				c0.6-0.9,1.2-1.7,1.8-2.5c0.5-0.8,1-1.4,1.4-2c-2.5,2.2-5.4,4.7-8.5,7.5c-1.6,1.4-3.2,2.9-5,4.4c-1.7,1.5-3.5,3.1-5.3,4.7
				c1.1-1.5,2.3-2.9,3.4-4.3c7.8-10,15.3-19.5,22.7-29.1c4.3-5.5,8.5-11.1,12.8-16.7c4.2-5.6,8.5-11.2,12.7-16.8
				c0.7-0.9,1.1-1.9,1.6-3.2c0.4-0.9,0.7-2,1.2-3.3c0.2-0.4,0.3-0.9,0.5-1.3C461.9,259.7,461.9,260.7,462,261.7z M491.6,247.2
				c1.2-1.4,2.3-2.9,3.4-4.4c1-1.5,2-3.1,2.8-4.6c2.9-5.3,4.8-11,6.1-17.1c0.1-0.6,0-1.3,0.3-1.9c0.1-0.4,0.3-0.7,0.5-1
				s0.4-0.7,0.6-1c0.3,1.5,0.6,3.1,0.6,4.7c0,0.8,0.1,1.6,0,2.5c0,0.8-0.1,1.7-0.2,2.6c-0.1,1.4-0.3,2.8-0.6,4.3
				c-0.1,0.5-0.2,1-0.3,1.6c-0.2,1.1-0.5,2.2-0.8,3.4s-0.6,2.4-1,3.8c-1.5,5.2-3.1,10.4-5,15.5c-0.6,1.7-1.3,3.3-2,5
				c-1.1,2.5-2.3,4.9-3.5,7.3c-0.9,1.6-1.8,3.1-2.7,4.7c-1.5,2.3-3,4.5-4.8,6.7c-2,2.5-4.4,4.9-6.7,7.1c-0.6,0.6-1.2,1.1-1.8,1.7
				c-1.2,1.1-2.4,2.2-3.6,3.4c-0.6,0.6-1.2,1.1-1.8,1.7c1.7-3.2,3.4-6.5,5.2-10c0.9-1.7,1.8-3.5,2.7-5.2s1.9-3.6,2.8-5.5
				c-4.2,4.9-8.3,9.8-12.4,14.6c-4.1,4.8-8.1,9.5-12,14.2c-1.3,1.6-2.7,3.1-4,4.7s-2.6,3.1-4,4.7c-0.3-0.3-0.7-0.5-1-0.8
				c3.9-5.7,7.8-11.3,11.8-17c-0.1-0.1-0.2-0.2-0.3-0.3c-0.1-0.1-0.2-0.2-0.3-0.3c-10,10.5-19.9,21-29.9,31.5
				c-0.2-0.2-0.4-0.3-0.6-0.5c1.4-1.9,2.7-3.7,4.1-5.6c0.7-0.9,1.3-1.9,2-2.8c2-2.8,4-5.6,6.1-8.4c1.4-1.8,2.8-3.6,4.3-5.4
				c11.3-13.5,22.8-26.9,34.3-40.3C483.9,256.1,487.8,251.7,491.6,247.2z M486.9,205.9c3.4-3,6.7-6,10.1-9c0.3,0.4,0.7,0.7,1,1.1
				c-1.6,1.6-3.2,3.1-4.8,4.7s-3.2,3.1-4.8,4.7C487.9,206.9,487.4,206.4,486.9,205.9z M518.4,207.9c0-3.1-0.1-6.2-0.1-9.3
				c0-0.3,0-0.7-0.1-1c-0.2-0.9-0.6-1.7-0.8-2.6c0-0.2-0.1-0.3-0.1-0.5c-0.1-0.3-0.1-0.6-0.1-1c0-0.2,0-0.3,0-0.5
				c0-0.5,0.1-1,0.3-1.5c0.1-0.3,0.3-0.7,0.5-1c7.8,16,10.2,32.2,7.8,48.4c-0.1,0.7-0.2,1.5-0.4,2.2c-0.4,2.2-0.9,4.4-1.4,6.6
				c-0.2,0.7-0.4,1.5-0.6,2.2c-0.4,1.5-0.9,2.9-1.4,4.4c-0.7,2.2-1.6,4.4-2.5,6.6c0.3-2.2,0.6-4.4,1-6.5c-0.2-0.1-0.3-0.1-0.5-0.2
				c-0.8,1.6-1.6,3.1-2.4,4.7c-1.6,3.1-3.2,6.2-4.8,9.2c-0.8,1.5-1.6,3-2.3,4.4c2.5-12.1,6-24.4,7.3-36.9c0.5-4.6,0.7-9.2,0.8-13.8
				C518.6,217.1,518.5,212.5,518.4,207.9z M511.8,222.4c-0.1,2.6-0.4,5.4-0.9,8.4c-0.3,1.5-0.5,3-0.9,4.6c-0.7,3.1-1.5,6.3-2.5,9.5
				c-0.2,0.8-0.5,1.6-0.8,2.4c-0.8,2.4-1.7,4.7-2.6,7c-0.6,1.5-1.3,3-1.9,4.4c-0.7,1.4-1.3,2.8-2,4.1c-0.7,1.3-1.4,2.5-2.2,3.7
				c-0.7,1.2-1.5,2.2-2.2,3.2c-1.1,1.5-2.3,2.7-3.4,3.7c0.4-1.2,0.9-2.5,1.4-3.7c0.9-2.5,1.9-4.9,2.9-7.4
				c6.3-16.1,13-32.3,13.4-50.3c1,1.6,1.6,3.9,1.8,6.7C511.9,219.9,511.9,221.1,511.8,222.4z M490.3,362.6c1.7-1.6,3.4-3.1,5-4.7
				s3.3-3.2,4.9-4.9c8.8-9.1,16.8-18.8,24.6-28.7c2.1-2.7,4.3-5.4,6.4-8.1c5.6-7.3,11.3-14.5,17-21.7c-2.4,4.1-4.8,8.1-7.2,12
				c-1.2,2-2.5,4-3.7,5.9c-1.3,2-2.5,3.9-3.8,5.8c-0.6,1-1.3,1.9-2,2.9c-1.3,1.9-2.6,3.8-4,5.7c-0.7,0.9-1.4,1.9-2.1,2.8
				c-1.4,1.8-2.8,3.7-4.2,5.5c-0.7,0.9-1.4,1.8-2.2,2.7c-1.5,1.8-2.9,3.5-4.5,5.2s-3.1,3.4-4.7,5.1s-3.2,3.3-4.9,4.9
				c-9.1,8.8-19.3,16.5-31,22.9C479.8,371.6,485.2,367.2,490.3,362.6z M567.3,188.1c0-0.9,0.1-1.8,0.1-2.7c13,0.6,26,1.3,39,1.9
				c0,0.3,0,0.5-0.1,0.8H567.3z M592.3,200.9c0,0.5,0,1,0,1.5c-5-0.2-10-0.5-15-0.7l-0.1-0.8H592.3z M601,412.7
				c1.8,5.4,3.5,10.8,5.3,16.2c3.5,10.8,7.1,21.6,10.6,32.5c1.7,5.2,3.4,10.4,5.1,15.6c-0.2,0.3-0.4,0.7-0.7,1c-0.1,0-0.2,0-0.2,0.1
				c-0.4,0.1-0.9,0.2-1.3,0.3c-0.9,0.2-1.9,0.4-3,0.7c-2.7-11.2-5.4-22.2-8.1-33.2c-2.7-11-5.3-22-8-32.9
				C600.7,412.7,600.8,412.7,601,412.7z M605.8,183.1c-6.8,0.9-14.9,1.6-22.5,1.9c-1.5,0.1-3,0.1-4.5,0.1s-2.9,0.1-4.3,0.1
				c-1.4,0-2.8,0-4.1,0c-3.3-0.1-6.1-0.2-8.4-0.5c-2.8-0.3-4.7-0.7-5.4-1.3c1.6-1.3,5.6-2.2,11.1-2.9c2.2-0.3,4.6-0.5,7.2-0.6
				s5.4-0.2,8.3-0.3c2.2,0,4.4,0,6.6,0c1.5,0,3,0.1,4.6,0.1c4.6,0.2,9.2,0.5,13.8,0.9c2.3,0.2,4.5,0.5,6.6,0.8
				C612.2,182.1,609.2,182.6,605.8,183.1z M558.6,287.3c-0.3,8.5-3.2,15.7-7.2,22.3c-0.8,1.4-1.8,2.8-2.7,4.2
				c-0.9,1.4-1.9,2.7-2.9,4.1s-2,2.7-3,4c-0.7,0.9-1.4,1.8-2.1,2.7c-2.4,3.1-4.8,6.2-7.1,9.5c6.3-11.8,12.6-23.6,18.8-35.2
				C554.5,295.1,556.6,291.2,558.6,287.3z M546.2,612.4c0-0.9,0.3-1.8,0.6-3.1c7.1,0.8,12.9-1.8,14.7-8.4c1.5-5.4,0.6-11.4,0.7-18.2
				c37.5,5.8,76.2,11.7,114.8,17.7c0.2,0.2,0.3,0.5,0.5,0.7c-15,4.4-29.9,9.1-45,13.2c-15.3,4.2-30.7,7.8-46,11.6
				c0.1,0.4,0.2,0.8,0.3,1.1c32.4-6.4,64.8-12.9,97.9-19.4c-0.7,4.9-1.3,10.6-2.2,16.2c-1.9,11.9-5.6,23.2-11.8,33.6
				c-6.4,10.7-15.8,17.1-28.3,17.9c-20.5,1.4-41.1,1.3-61.2-3.9c-7-1.8-13.8-4.5-20.4-7.5c-2.7-1.2-5.5-4-6.4-6.7
				C549.3,642.9,545.5,628,546.2,612.4z M640,487.3c9.6,21.5,19.2,43,28.7,64.6c0.2,0.5,0.1,1.2,0.2,2.2c-8.1,1-8,0.7-10.6-5.9
				c-7.8-19.9-14.5-40.2-21.6-60.4c-0.2-0.7-0.1-1.5-0.3-3.8C638.3,485.7,639.6,486.3,640,487.3z M544.5,165.3
				c0.5-1.5,0.9-3.1,1.9-3.7c0.4-0.3,0.9-0.6,1.3-0.8c2.7-1.6,5.5-2.9,8.4-4.1c0.5-0.2,1-0.4,1.4-0.6c0.3-0.1,0.5-0.2,0.8-0.4
				c1.9-0.8,3.8-1.3,5-1.7c-0.4-0.5-0.8-1-1.2-1.6c-0.2-0.3-0.4-0.6-0.6-0.9c-0.2-0.3-0.4-0.6-0.7-0.9c0.3-0.2,0.7-0.4,1-0.7
				c0.9-0.6,1.7-1.2,2.6-1.5c0.2,0,0.4-0.1,0.5-0.1c0.5,0,0.9,0,1.4,0c0.9,0,1.8,0,2.7,0.1c2.3,0.1,4.7,0.4,7.4,0.5
				c-3.2,1.1-6.1,2.1-9,3.1c0.1,0.4,0.2,0.7,0.3,1.1c15.7-3.6,31.4-7.1,47.1-10.7c0,0.1,0.1,0.3,0.1,0.4
				c-14.4,5.5-28.9,11.1-43.3,16.6c0.1,0.4,0.2,0.8,0.3,1.3c17.1-1.1,34.3-2.2,51.4-3.3c-0.1,0.2-0.1,0.3-0.2,0.5
				c-6.4,1.5-12.8,3.1-19.2,4.6s-12.8,3.1-19.2,4.6c0,0.2,0.1,0.4,0.1,0.7c0,0.2,0.1,0.4,0.1,0.7c15.7-0.7,31.4-1.4,47.2-2.1
				c0,0.2,0,0.4,0,0.6c-22.4,3.8-44.8,7.7-67.2,11.3c-0.6,0.1-1.3,0.2-1.9,0.3c-3.9,0.5-7.8,0.5-11.7,0.5c-0.7,0-1.3,0-2,0
				c-2.2,0.1-3.7-1.5-3.9-3.5c0-0.4,0-0.7,0.1-1.1c0-0.2,0.1-0.4,0.2-0.6c0.1-0.4,0.3-0.8,0.6-1.1c0.3-0.5,0.6-0.9,1-1.3
				c0.2-0.2,0.4-0.4,0.6-0.6c0.4-0.4,0.8-0.8,1.2-1.2c0.6-0.6,1.3-1.2,1.9-1.8c-0.2,0-0.3,0-0.4,0c-0.3,0-0.5,0.1-0.7,0.1
				c-0.1,0-0.2,0-0.3,0c-0.5-0.1-0.9-0.2-1.4-0.3c-0.9-0.2-1.8-0.4-2.7-0.6c-0.5-0.1-0.9-0.2-1.4-0.3
				C544.2,166.3,544.4,165.8,544.5,165.3z M527,189.2c0.3,0.7,0.7,1.4,1,2.1s0.6,1.3,0.9,1.8c0.2,0.4,0.4,0.8,0.6,1.3
				c0.2,0.4,0.4,0.8,0.6,1.2c0.3,0.5,0.5,1.2,0.7,1.9c0.2,0.6,0.3,1.1,0.6,1.4c0.1,0.2,0.3,0.3,0.5,0.4c0.1,0,0.2,0.1,0.3,0.1
				s0.2,0,0.4-0.1c0.4-0.1,0.9-0.4,1.6-1c1.6,4.5,3.3,9.2,5,14c0.6-0.2,1.2-0.3,1.8-0.5c-0.1-0.8-0.2-1.5-0.3-2.3
				c-0.3-2.3-0.6-4.7-0.9-7.1c-0.4-3.2-0.8-6.5-1.3-10c1.6,2.3,2.8,4.6,3.6,6.9c0.3,0.8,0.5,1.6,0.8,2.4c0.2,0.8,0.4,1.6,0.6,2.4
				c0.2,0.8,0.3,1.6,0.5,2.4c0.1,0.8,0.3,1.6,0.4,2.4s0.2,1.6,0.3,2.4c0.6,5.2,1,10.4,1.4,15.6c0.3,5.2,0.5,10.4,0.7,15.7
				c0,1.9,0,3.7-0.1,5.6c-0.1,1.8-0.3,3.7-0.5,5.5c-0.9,7.3-2.6,14.5-4.5,21.6c-0.5,1.8-1,3.6-1.4,5.3c-0.5,1.8-1,3.6-1.4,5.3
				c-1.5,5.7-3.2,11.2-4.9,16.8c-0.6,1.9-1.1,3.7-1.7,5.6c0.9-4,1.7-8,2.5-11.9c0.8-4,1.5-8,2.2-12c0.6-4,1.2-8,1.7-12
				c0.3-3,0.6-6,0.8-9c0.1-2,0.2-4,0.3-6c0-1,0.1-2,0.1-3c0-2,0-4-0.1-6c-0.1-4-0.4-8-0.9-12.1s-1.2-8.1-2.1-12.1
				c-0.9-4-2.1-8.1-3.5-12.1c-0.1,0.1-0.1,0.1-0.2,0.2c-0.2,0.2-0.3,0.3-0.5,0.4c0,0,0,0-0.1,0l-0.1,0.1l0,0c-0.1,0.1-0.1,0.1,0,0
				c-0.7-2.8-1.3-5.7-2-8.7s-1.4-6.1-2.2-9.3c-0.5-2.2-1-4.4-1.5-6.7C526.6,188.5,526.8,188.9,527,189.2z M432.3,175.5
				c-0.1-0.1-0.1-0.2-0.2-0.3c1.3-0.3,2.6-0.6,3.9-0.9c3.9-0.9,7.8-1.8,11.6-2.8c5.1-1.3,10.2-2.4,15.3-3.4c2.6-0.5,5.1-0.9,7.7-1.3
				c2.6-0.4,5.2-0.7,7.7-1.1c2.6-0.3,5.2-0.6,7.8-0.9c2.6-0.3,5.2-0.5,7.8-0.7c5.2-0.4,10.4-0.7,15.6-0.9c3.7-0.1,7.4,0.1,11.1,0.3
				c0.8,0,1.6,0.1,2.2,0.3c1,0.2,1.8,0.6,2.3,1.4c0.1,0.3,0.2,0.6,0.3,0.9c0.1,0.7,0,1.5-0.3,2.7c-0.3,1.1,0.5,2.5,0.5,2.7
				c-7.6,3.7-15.2,7.4-22.7,11c-4.5,2.2-9,4.4-13.5,6.6c0.2,0.4,0.5,0.9,0.7,1.3c4.4-1.9,8.9-3.8,13.3-5.8c0.3,0.5,0.7,1,1,1.5
				c-11.7,10.5-23.3,21-35,31.6l-1.3-0.9c0.1-0.3,0.2-0.6,0.3-0.9c0.3-0.9,0.6-1.9,0.9-3.1c-7.5,4-14.8,7.9-22.1,11.8
				c-0.2-0.2-0.3-0.3-0.5-0.5c0.8-1,1.7-1.9,2.5-2.9s1.6-1.9,2.4-2.8c0.8-0.9,1.6-1.9,2.4-2.8c0.8-0.9,1.5-1.8,2.2-2.6
				c1.4-1.7,2.8-3.3,4-4.7s2.2-2.6,3.1-3.6c-0.9,0.5-1.9,0.9-3,1.5c-1.1,0.5-2.2,1.1-3.3,1.7c-1.8,0.9-3.7,1.8-5.6,2.8
				c-2,1-4.1,2-6.2,3.1c-4.3,2.1-8.8,4.4-13.4,6.6c-0.2-0.2-0.3-0.3-0.5-0.5c8.8-7.2,17.6-14.4,26.4-21.7c-0.1-0.3-0.3-0.6-0.4-1
				c-5.6,2.3-11.2,4.5-16.8,6.8c-5.6,2.3-11.2,4.5-16.8,6.8c4.5-2.9,8.9-5.8,13.4-8.6c3-1.9,6-3.8,9-5.6c4.5-2.8,9.1-5.5,13.7-8
				c12.4-6.8,25.3-12.5,39.4-15.8C477.1,173.7,454.7,174.6,432.3,175.5z M444.8,280.9c-0.9,1.3-1.8,2.5-2.6,3.8
				c-1.8,2.5-3.6,5-5.5,7.4s-3.7,4.8-5.7,7.2c-1.9,2.4-3.9,4.7-5.9,7c-3,3.4-6.1,6.8-9.3,10.1c-2.1,2.2-4.3,4.3-6.6,6.4
				c-2.2,2.1-4.5,4.2-6.8,6.2s-4.7,4-7.1,6C411.8,317,428.3,299,444.8,280.9z M403.7,316.8c1.6-1.6,3.1-3.3,4.7-4.9
				c0.1,0.1,0.2,0.2,0.3,0.3C407,313.8,405.4,315.3,403.7,316.8c-2.9,3-5.7,5.9-8.6,8.9l-11.4,11.8c-0.4-0.4-0.9-0.9-1.3-1.3
				C389.5,329.7,396.6,323.3,403.7,316.8z M377.4,329.9c0.1,0.1,0.2,0.2,0.3,0.4c-4.5,4.9-9,9.8-13.4,14.7c-0.1-0.1-0.2-0.2-0.3-0.2
				C368.5,339.8,372.9,334.9,377.4,329.9z M352.2,472.6c27.6-13.4,55.2-26.8,83-40.3c12.3-6,24.7-12,37.1-18c6.2-3,12.4-6,18.6-9.1
				c-3.3,2.1-6.4,4.1-9.5,6.1c-2.1,1.3-4.1,2.6-6.1,3.9c-3,1.9-6,3.8-9,5.7c-15.2,9.4-30.4,18.8-45.7,28.2
				c-14.4,8.9-28.7,17.8-43,26.7l1,0.1c-2,1.2-4,2.3-6.1,3.3c-2.4,1.2-5.5,1.7-8.3,1.6c-8.2-0.3-16.4-1.1-24.6-1.7
				c-0.4,0-0.7-0.6-1.3-1.2c2.3-3,5.8-4.5,9.2-6L352.2,472.6z M280.9,254.1c1-1.6,2-3.1,3.1-4.7c1.7-2.5,3.6-4.9,5.2-7.5
				c0.6-0.9,1.1-1.8,1.6-2.7c-0.8,0.8-1.7,1.5-2.5,2.3c-0.9,0.8-1.7,1.6-2.7,2.4c2.1-6.6,9.7-15.3,19.5-23.5
				c1.4-1.2,2.8-2.3,4.3-3.5c1.5-1.1,3-2.3,4.5-3.3c1.5-1.1,3.1-2.2,4.7-3.2c9.5-6.2,19.5-11.2,28-13.4c-1.6,1.1-3.2,2.2-4.8,3.2
				c-3.2,2.2-6.4,4.4-9.5,6.6c-3.1,2.2-6.3,4.5-9.3,6.9c-4.6,3.5-9.1,7.1-13.4,10.9c-1.4,1.3-2.9,2.6-4.3,3.9
				c-2.8,2.6-5.5,5.3-8.2,8.1c-2.6,2.8-5.2,5.7-7.6,8.7c-3.7,4.5-7.1,9.3-10.3,14.3c-0.4-0.3-0.8-0.6-1.2-1
				C278.9,257.2,279.9,255.6,280.9,254.1z M240.9,349.4c0.8-1.7,1.7-3.4,2.7-5.1c7.8-14.9,17.9-32.5,28.3-49.5c1.2-2,2.5-4,3.7-6
				c1.8-3,3.7-5.9,5.5-8.8s3.7-5.7,5.5-8.4c6-9.2,11.8-17.5,16.9-24.4c1-1.4,2-2.7,3-3.9c0.5-0.6,1-1.2,1.4-1.8
				c1.9-2.4,3.6-4.5,5.3-6.2s3.1-3.2,4.4-4.3c-11,14.4-21,29.3-30.5,44.5c-20.8,33.5-38.9,68.6-58,102.9
				C229.6,373.4,234.1,362.8,240.9,349.4z M232.7,564c-0.9-7.8-1.8-15.6-2.6-23.4c0.5-0.1,1-0.1,1.5-0.2c1,7.8,1.9,15.6,2.9,23.4
				C233.9,563.8,233.3,563.9,232.7,564z M245.6,546.3c0-9.5-0.5-18.5,0.2-27.3c0.6-8.1,3.6-16.6,5.2-24.6c2.3-11.2,6.7-22.4,9-33.6
				l0,0c0.4-1.6,0.8-3.1,1.2-4.7c4.7-18.3,9.6-36.6,14.4-55c0.4,0.1,0.9,0.2,1.3,0.3c-4.1,18.9-13.9,59.3-14.3,61.4
				c-4,20.7-8.4,41.3-12.7,62C248.4,531.8,247.1,538.8,245.6,546.3z M257.8,562.4c-0.6,0-1.1-0.1-1.7-0.1
				c-2.1-18.9-1.6-37.8,1.7-56.5V562.4z M262.3,550.9c0.5-0.1,1-0.1,1.5-0.2c2.4,17.8,4.8,35.6,7.2,53.4
				C264.3,586.9,260.2,569.3,262.3,550.9z M264.4,706c13.6-65.5,28.9-130.7,32.6-197.8C296.5,575.9,284,641.6,264.4,706z M297.3,298
				c-0.1,0.4-0.2,0.8-0.4,1.2c-0.3,0.8-0.5,1.6-0.9,2.3c-8.1,17.5-16.2,34.9-24.3,52.4c-0.2,0.4-0.3,0.8-0.5,1.2
				c-0.4,1.2-0.7,2.5-1,3.8c6.3-11.6,12.5-23.1,18.8-34.7c0.8-1.4,1.7-2.7,2.6-4c1-1.3,2.1-2.5,3.2-3.7c-1.4,2.3-2.8,4.7-4.1,7.1
				c-2,3.6-3.9,7.2-5.7,10.9c-6.6,13.4-12,27.4-16.3,41.8c-0.8,2.6-1.6,5.2-2.3,7.8c-3,10.5-5.7,21-8.2,31.6
				c-1.2,5.3-2.4,10.6-3.6,15.9c-0.6,2.7-1.1,5.3-1.7,8c8.1-25.8,16.1-51.5,24.2-77.3c0.5,0.1,1,0.3,1.5,0.4
				c-0.9,2.9-1.8,5.8-2.7,8.7c-2.6,8.8-5.1,17.6-7.4,26.4c-5.2,19.6-9.7,39.2-13.9,59c-0.2,0-7.2,34.3-10.5,51.4c-0.1,0-0.3,0-0.4,0
				v-30.8c-1.2,8.4-2.4,16.3-3.6,24.3c-0.5,0-1-0.1-1.4-0.1c-0.1-0.9-0.1-1.7-0.2-2.6c1.3-11.2,5.1-45.3,5.3-47.1
				c0.7-4.8,1.5-9.6,2.5-14.3c0.6-3.2,1.3-6.3,2-9.5c1-4.7,2.2-9.4,3.4-14.1s2.6-9.3,4-14c1.4-4.6,2.9-9.3,4.5-13.8
				c1-3.1,2.1-6.1,3.2-9.2c0.3-0.9,0.4-1.9,0.5-2.9c-2.6,6.5-5.4,12.8-7.9,19.3c-0.8,2.2-1.6,4.3-2.3,6.5
				c-4.2,13-8.3,26.1-12.4,39.2c-1.9,6.1-5.8,13.9-7.7,20v0.1c0,0.1-0.1,0.3-0.1,0.4c-2.6,9.6-5.1,19.2-7.7,28.8
				c-1.1-2.7-1.8-5.5-1.5-8.2c0.8-7.2,5-16.4,5.7-23.6c0.1-0.7,0,0,0,0c1.1-5.2,2.2-10.4,3.5-15.5c0.8-3.3,1.7-6.6,2.6-9.9
				c0.9-3.3,1.9-6.5,2.9-9.8c4-13,8.6-25.7,13.8-38.3c1.3-3.1,2.6-6.2,4-9.4c2-4.7,4.1-9.3,6.3-13.9c1.5-3.1,2.9-6.1,4.4-9.2
				c1.5-3,3.1-6.1,4.6-9.1c1.6-3,3.2-6,4.8-9c2.4-4.5,4.9-9,7.5-13.4c1.7-3,3.4-5.9,5.2-8.9c2-3.4,3.8-6.9,5.9-10.4
				c0.7-1.1,1.4-2.3,2.2-3.4C297.6,297.2,297.4,297.6,297.3,298z M296.7,285.8c-3.4,4.8-6.7,9.7-9.9,14.7
				c-10.4,16.6-19.2,33.9-26.9,51.8c-1.5,3.6-3,7.2-4.5,10.8c-2.2,5.4-4.2,10.9-6.2,16.4s-3.9,11.1-5.8,16.6
				c-1.2,3.7-2.4,7.5-3.6,11.2c-3,9.4-5.8,18.8-8.5,28.3c0.1-0.8,0.1-1.6,0.2-2.4c0.1-1.6,0.3-3.2,0.4-4.9c0.1-1.6,0.3-3.2,0.4-4.9
				c0.2-2.4,0.3-4.9,0.4-7.3c0.1-4.7,0.5-9.2,1.1-13.7c0.3-1.8,0.6-3.6,0.9-5.3c0.5-2.6,1.1-5.3,1.8-7.9c1.1-4.3,2.4-8.6,3.9-12.8
				c0.6-1.7,1.2-3.4,1.8-5c1.9-5,3.9-10,6.1-14.9c1.4-3.3,2.9-6.6,4.3-9.9c0.7-1.6,1.5-3.3,2.2-4.9c1.1-2.5,2.2-4.9,3.3-7.4
				c1.4-3.3,3-6.6,4.5-9.9c2.3-4.9,4.8-9.7,7.4-14.5s5.3-9.5,8.1-14.1c2.8-4.6,5.8-9.2,8.8-13.7c5.1-7.5,10.5-14.8,16.1-21.9
				c1.6-2.1,3.3-4.1,4.9-6.2c5-6.1,10.1-12.2,15.4-18c-12.7,19.1-25.5,38.2-38.2,57.2c0.4,0.2,0.7,0.5,1.1,0.7
				c7.9-9.3,15.9-18.6,23.8-27.9c0.4,0.3,0.8,0.5,1.2,0.8C306.1,273.1,301.3,279.4,296.7,285.8z M386.4,925.4c-0.2,0-0.5,0-0.7,0.1
				c-0.5-3.5-0.9-6.9-1.4-10.4c-0.2,0-0.5,0-0.7,0c-0.3,1.3-0.5,2.6-1,4.9c-1.9-22.5-3.7-44-5.6-66.9c4.2,8.6,10,14.9,9.6,24.5
				C386,893.5,386.4,909.5,386.4,925.4z M674.8,1019.2c-1.8-20-10.5-39.5-2.4-60.4c2.7,13.7,6.3,26.9,7.6,40.2
				C680.7,1005.5,677.2,1012.5,674.8,1019.2z M673.2,946.9c0.5-0.1,1.1-0.2,1.6-0.3c0.6,4.4,1.2,8.7,1.7,13.1
				c-0.4,0.1-0.7,0.1-1.1,0.2C674.7,955.6,673.9,951.2,673.2,946.9z M682.6,759c4.6-13.6,9.2-27.3,13.7-40.9
				c-2.1,18.5-2.9,37.4-9.1,55.2c-1.8,5.3-5.7,9.8-9,15.4c-0.9-1.9-1.2-2.5-1.7-3.8c-1,2.5-1.6,4.7-2.6,6.6
				c-2.1,3.9-3.9,8.2-6.9,11.3c-13.7,14.4-30.6,24.7-46.7,36.1c-20,14.2-39.4,29.3-59.2,43.7c-5,3.7-11.1,5.9-16.4,9.2
				c-15.7,9.7-33.4,8.3-50.6,8.7c-11.6,0.3-23.3-0.9-34.8-2c-8.5-0.9-15.2-6.2-21.3-11.7c-14.1-12.6-27.7-25.7-41.8-38.3
				c-4.4-3.9-7.3-8-7.3-14c0-1.8-0.6-3.6-0.9-5.4l-1,0.1c-0.5,2.7-0.9,5.4-1.5,8.6c-25.8-21.3-43.5-47.6-57.9-77.7
				c12.3,14.6,24,28.4,35.7,42.2c0.4-0.3,0.8-0.6,1.2-0.9c-22-34.9-39.8-71.4-45.4-112.8c10.1,24.5,21.3,48.5,34.9,71.2
				c-11.9-26.6-20.2-54.4-28.3-82.2c-8.1-28.1-10.8-57-11-86.1c0.5-0.2,1-0.4,1.5-0.6c2.4,4.8,4.8,9.6,7.3,14.5
				c0.2-0.1,0.5-0.2,0.7-0.3c-1.6-4.7-3.2-9.5-4.8-14.2c7.5-2.8,8.5-2,8.9,5.1c0.5,8.4,0.2,17,2.2,25c2.5,9.6,6.6,18.8,11,27.7
				c3.4,6.8,10.1,10.8,17.4,12.1c13,2.4,26.1,4.5,39.3,5.3c12.5,0.8,25.2,0.4,37.8-0.4c10.9-0.7,19-6.9,25.9-15.4
				c11.8-14.5,15.8-31.4,16.3-49.6c0.2-6.6,0-13.2,0-20.2c1.2-0.2,2.8-0.4,3.8-0.6c0-0.7-0.2-1.5,0.1-1.7c9.8-6.7,36.3-6,42.4,1.8
				h-17.1c0,0.3,0,0.7,0,1c4.2,0,8.3,0.1,12.5,0c3.2-0.1,4,1.1,4.1,4.3c0.6,14.7,1.3,29.3,2.5,43.9c0.3,3.9,2.5,7.6,3.6,11.4
				c0.6,2.4,0.6,4.9,1.1,8.9c3.1-4.9,5.5-8.9,8-12.8c-0.2-0.2-0.4-0.4-0.6-0.6c-1,0.8-1.9,1.6-2.9,2.4c-0.2-0.2-0.5-0.3-0.7-0.5
				c1.2-2.8,2.5-5.7,3.7-8.5c0.5,0.1,1,0.2,1.5,0.3c0.5,2,1.1,3.9,1.5,5.9c1,4.4,2.2,8.8,2.7,13.3c1.6,14.4,10.1,22.3,23.7,25
				c9,1.8,18.1,3,27.3,3.9c14,1.4,28,2.3,42,3.7c20.6,2,34.4-5.6,43.6-24.3c7.3-14.8,8-30.8,8.6-46.8c0.1-3.1-0.1-6.1,0-9.2
				c0-1.4,0.4-2.9,1.7-4.3c0.3,0.8,0.8,1.6,0.9,2.4c1.6,18.3,1.2,36.5-4.3,54.3c-10.4,33.6-21,67.2-31.4,100.8
				c-0.1,0.4-0.1,0.9,0.2,1.5c14.3-30.5,26.9-61.6,38-93.5c-5,30.9-14.5,60.7-22.5,91c1.1-2.2,2.2-4.3,3.4-6.5
				c0.3,0.1,0.6,0.2,0.8,0.3c-0.9,3.4-1.9,6.8-2.8,10.1c15-24.7,22.3-51.9,26.3-80.1c-0.8,28.4-11.5,54.4-18.7,81.2
				C681.6,758.7,682.1,758.8,682.6,759z M709.3,603.7c-1.2,11.5-2.7,23.1-4.2,34.6c-0.6,4.9-1.2,9.9-1.8,14.8
				c-0.3,0-0.6,0.1-0.9,0.1c0-11.6-0.1-23.1,0-34.7c0.1-5.2,0.5-10.3,0.9-15.5c0.2-2.3-0.9-5.7,3.5-5.3
				C711.3,598.1,709.5,601.5,709.3,603.7z M718.3,195.2c-0.4-0.4-0.9-0.8-1.4-1.1c-0.2-0.2-0.5-0.3-0.7-0.5
				c-0.9-0.7-1.9-1.3-2.9-1.9c-0.7-0.5-1.5-0.9-2.2-1.4c-2.3-1.5-4.6-2.9-7-4.2c-1.2-0.7-2.4-1.3-3.6-1.9c-1.2-0.6-2.4-1.3-3.7-1.9
				c-1.2-0.6-2.4-1.2-3.7-1.8c-2.5-1.2-5-2.3-7.5-3.4c-1.3-0.6-2.6-1.1-3.9-1.7c0.6-0.1,1.2-0.3,1.9-0.5s1.3-0.3,2-0.3
				c2.9,0.1,5.7,0.2,8.5,0.5c1.9,0.2,3.7,0.4,5.5,0.7c2.7,0.4,5.5,1,8.1,1.6c1.8,0.5,3.6,1,5.3,1.6s3.5,1.2,5.2,2
				c1.7,0.7,3.4,1.5,5.1,2.4s3.3,1.8,5,2.9c6.4,4.1,12.5,8.3,18.4,12.9c2.9,2.3,5.8,4.7,8.6,7.2s5.5,5.1,8.1,7.8
				c1.1,1.2,2.2,2.4,3.3,3.6c1.1,1.2,2.2,2.4,3.3,3.6c2.2,2.4,4.3,4.9,6.3,7.4c1,1.3,2.1,2.5,3.1,3.8c4,5.1,7.9,10.3,11.6,15.6
				c6.5,9.3,12.5,18.9,18,28.9c1.4,2.6,2.9,5.2,4.3,7.8c4.2,7.8,8.2,15.7,12,23.7c-8.5-12.2-17-24.5-25.5-36.7
				c-0.4,0.2-0.7,0.4-1.1,0.6c2.6,5.6,5.1,11.2,7.7,16.7c-7.7-10.1-15.3-20.2-23.1-30.1s-15.8-19.7-24.2-29.1
				c-2.8-3.1-5.7-6.2-8.6-9.3c-2.9-3.1-5.9-6.1-8.9-9c12.1,13.3,23.3,27.2,33.2,41.7c1.8,2.6,3.6,5.3,5.3,8c2.6,4,5,8.1,7.4,12.3
				c0.8,1.4,1.6,2.8,2.3,4.2c1.5,2.8,3,5.6,4.4,8.5c2.1,4.3,4.1,8.6,6,13c1.2,2.9,2.4,5.9,3.5,8.9c2.2,6,4.2,12.1,6,18.4
				c0.9,3.1,1.7,6.3,2.4,9.5s1.4,6.5,2,9.8c-1.1-2.2-2.2-4.4-3.3-6.6c-2.2-4.4-4.4-8.8-6.7-13.1c-1.1-2.2-2.2-4.4-3.4-6.5
				c-2.3-4.3-4.5-8.7-6.9-13c-1.2-2.2-2.3-4.3-3.5-6.5c-3.5-6.4-7.1-12.9-10.8-19.2c-4.9-8.5-10-16.8-15.3-25.1
				c-2.6-4.1-5.3-8.2-8.1-12.3c16.3,29.8,34.9,58.6,41,92.8c-0.4,0.2-0.8,0.3-1.1,0.5l-25.3-48.4c2.3,7.1,4.6,14.2,6.6,21.4
				c3,10.7,5.7,21.6,7.6,32.6c0.7,3.7,1.2,7.3,1.7,11c1,7.4,1.7,14.8,2,22.4l-6.6-21.4c-0.2,0.1-0.4,0.1-0.7,0.2
				c0.7,11.1,1.3,22.2,2,33.2c-0.3,0-0.6,0.1-0.9,0.1c-1.4-5.1-2.8-10.2-4.1-15.2c-2.8-10.1-5.5-20.3-8.2-30.3c-1.4-5-2.7-10-4.1-15
				c0.5,9.8,1,19.8,1.5,29.8s1,20,1.5,30c-0.5,0-1,0.1-1.4,0.1c-0.5-4.3-1-8.6-1.5-12.9c-1-8.6-2-17.2-3-25.8
				c-0.5-4.3-1-8.6-1.4-12.9c-0.4-3.7-0.7-7.4-1-11.1c-0.4-6.2-0.8-12.3-1.4-18.5c-0.2-2.5-0.5-4.9-0.9-7.3
				c-0.3-2.4-0.8-4.9-1.2-7.3c-0.5-2.4-1.1-4.8-1.7-7.2c-0.3-1.2-0.7-2.4-1.1-3.6s-0.8-2.4-1.3-3.5c-0.1-0.4-0.3-0.7-0.5-1
				c-0.5-1-1.1-2-1.4-3.1c-0.2-0.5-0.2-1-0.2-1.6s0-1.1,0-1.6c0.4-0.1,0.8-0.2,1.2-0.4c1.5,1.6,2.9,3.2,4.4,4.7
				c-0.1-1.1-0.3-2.5-0.7-4.1c-0.1-0.4-0.2-0.8-0.3-1.3c-0.3-1.3-0.7-2.7-1.1-4.3c-0.6-2-1.2-4.2-2-6.4c-0.4-1.1-0.7-2.2-1.1-3.3
				c-0.2-0.5-0.4-1.1-0.6-1.6c-0.4-1.1-0.8-2.2-1.2-3.2c-0.6-1.6-1.2-3.1-1.7-4.6c-0.9-2.4-1.8-4.5-2.6-6.2c-1.1-2.3-2-3.8-2.4-3.8
				c0.1-0.9,0.1-1.7,0-2.6c0-1.3-0.2-2.5-0.4-3.7c-0.2-0.8-0.3-1.6-0.6-2.4c-0.3-1.2-0.8-2.3-1.2-3.4s-1-2.2-1.7-3.2s-1.3-2.1-2-3.1
				c-0.6-0.8-1.2-1.5-1.8-2.3c-1.2-1.5-2.6-2.9-3.9-4.3c-0.3-0.4-0.7-0.7-1-1.1c-0.7-0.7-1.4-1.4-2-2.1c-2.3-2.5-4.5-5-6.2-7.9
				c-0.5-0.9-1.1-1.7-1.7-2.4c-0.4-0.5-0.8-0.9-1.2-1.3C718.8,195.5,718.6,195.3,718.3,195.2z M761.4,370.8c0,6.6-0.3,13.1-0.8,18.7
				c-0.3,2.6-0.6,5-1,7.3c-0.8-13.3-1.6-26.6-2.4-39.8c-0.4-6.6-0.8-13.2-1.2-19.8s-0.8-13.1-1.2-19.6c1.2,1.5,2.3,4.9,3.2,9.7
				c0.2,1,0.4,2.1,0.6,3.3c0.1,0.4,0.1,0.8,0.2,1.2c0.1,0.8,0.2,1.6,0.4,2.4c0.2,1.2,0.3,2.5,0.5,3.9c0.1,0.9,0.2,1.8,0.3,2.7
				s0.2,1.8,0.3,2.8c0.2,1.9,0.3,3.8,0.5,5.8c0.1,1,0.1,2,0.2,3c0.3,5,0.5,10.3,0.5,15.4C761.4,368.8,761.4,369.8,761.4,370.8z
				 M747.5,335.3c2.4,2,4.7,13.3,6,26.7c0.1,0.9,0.2,1.7,0.2,2.6c0.1,0.9,0.1,1.8,0.2,2.7c0.1,0.9,0.1,1.8,0.2,2.7
				c0.1,1.4,0.2,2.7,0.2,4.1c0,0.9,0.1,1.8,0.1,2.7c0.1,2.3,0.1,4.5,0.1,6.7c0,0.4,0,0.9,0,1.3c0,0.9,0,1.7,0,2.6c0,0.4,0,0.9,0,1.3
				c-0.1,4.2-0.3,8.2-0.8,11.7c-0.1,1-0.3,2-0.4,3c-0.3-3-0.5-5.9-0.8-8.9c-0.3-2.9-0.5-5.8-0.7-8.7c-0.5-5.8-1-11.5-1.5-17.2
				C749.4,357.4,748.4,346.3,747.5,335.3z M750.3,374.7c-0.6,14.8-1.3,29.7-1.9,44.5c-0.5,0-1,0-1.6-0.1c0.6-14.8,1.2-29.7,1.8-44.5
				C749.2,374.7,749.7,374.7,750.3,374.7z M740.6,387.9V422c-0.3,0-0.7,0-1,0v-34.2C739.9,387.9,740.3,387.9,740.6,387.9z
				 M719.8,468.8c-0.2-0.4-0.4-0.9-0.5-1.3l5.7-1c1.1,5.9,2.3,12,4.6,17.4c8,18.7,15.6,37.7,25.2,55.5c17,31.5,35.4,62.3,53.2,93.3
				c0.4,0.8,0.8,1.6,1.5,2.9c-1.3-0.6-2-0.9-3.4-1.6c3.9,7.9,7.5,15.1,11,22.3c-1.5-0.8-2.3-2-3-3.3c-11.7-20.1-22.8-40.5-35.1-60.2
				c-16.6-26.8-31.7-54.3-43.5-83.5C730,496,724.8,482.4,719.8,468.8z M775.4,943.9c5.7-41.5,11.4-83,17-123.8
				C791.6,861.4,785,902.9,775.4,943.9z M798.7,862.8c2.4-46.4,1.2-92.6-5.6-138.6C802.1,770.1,808.8,816.1,798.7,862.8z
				 M811.4,837.7c0.2-4.3,0.4-8.5,0.7-12.8c3.1-42-4.5-82.6-15.9-122.8c-4.1-14.7-7.3-29.7-10.8-44.6c-0.3-1.2-0.3-2.5-0.6-4.7
				c5.4,18.9,10.3,36.9,15.6,54.8c7.2,24.5,13.2,49.3,15,74.8C816.7,801,816.7,819.5,811.4,837.7z M802.4,655.9
				c-10.1-21.2-21.9-41.4-38.3-58.5c-4.6-4.7-10.3-8.4-15.8-12.8c3.1,1.4,6.3,2.4,8.9,4.3c13.5,9.7,23.6,22.5,32.4,36.3
				c23.1,35.8,37.3,75,44.7,116.8c1.7,9.5,2.9,19.1,4.3,28.6C829.4,731.5,819.8,692.5,802.4,655.9z M458.2,541.9h-21.7
				c4.4,0.4,13,1,21.6,1.7C458.2,543.1,458.2,542.5,458.2,541.9z M622.3,527.8c0.2-0.4,0.3-0.8,0.5-1.2c-7.1-3.2-14.1-6.4-21.7-9.9
				c2.5-0.3,4.7-0.5,6.9-0.8c-18.5-2.2-37.4,9.4-43,18.8C582.9,522.3,602.4,523.9,622.3,527.8z M385.4,537.7
				c-12.8-1.2-26,0.7-39.9,1.2c2.7,1.7,4.6,2.9,7,4.5c-6.2,3.6-11.8,1.6-18.4,0.6c3.7,2.6,6.2,4.5,10,7.2c-4.4,0.9-7.3,1.6-11.2,2.4
				c9.9,3.9,17.8,11.9,30,9.6c-3.7-2.4-6.8-4.4-10.9-7c8.6-4.2,15.7-8.6,24.7-9.7c-0.3,1.3-0.4,1.9-0.6,2.5
				c-2.9,6.7-1.6,11.3,4.9,14.4c3.9,1.8,8.2,3.1,12.4,3.6c10.2,1.2,14-1.8,16.3-11.7c0-0.2,0.5-0.3,1.1-0.6c5.9,4,9.7,13.2,19.8,9.3
				C415.9,548.2,404.9,539.5,385.4,537.7z M447.9,548.3c4.5,0.9,9.1,1.8,13.6,2.7c0.1-0.6,0.2-1.2,0.3-1.8
				c-4.6-0.6-9.2-1.2-13.8-1.9C448,547.7,447.9,548,447.9,548.3z M474.6,753.7c-1.1-0.2-2.3,0.1-3.5,0.2c8,3.7,15.9,5,24.6,3
				c9.4-2.2,18.3-9.4,28.9-3.8c-6.7-6.2-13.6-7.6-22.2-3.9C493.7,752.8,484.4,755.3,474.6,753.7z M532.6,704.7
				c-1.9,2.8-3,4.5-4.5,6.7c2.8-0.5,5-0.9,7.2-1.3c0.5-0.1,0.9-0.3,1.4-0.4c4.1-1.8,5-6,1.5-8.8c-1.7-1.4-3.9-2.4-6-3
				c-1-0.3-3.2,0.7-3.6,1.7c-2.1,4.7-5.7,7.2-10.4,8.7c-1.6,0.5-2.8,2.4-4.2,3.7c0.3,0.4,0.7,0.8,1,1.1
				C521.2,711.9,524.9,705.3,532.6,704.7z M548,708.7c0,0,0.3,0.4,0.5,0.7c1.2-1.1,2.2-2.4,3.5-3.3c4.1-2.8,4.2-6,1.4-9.8
				c-3.7-5.1-7.1-10.4-10.6-15.6c-0.3,0.2-0.6,0.3-0.9,0.5c2,4.2,3.5,8.7,6,12.6C551.4,699.1,552.1,703.8,548,708.7z M472.4,709.1
				c4.3,2.5,8.1,7.7,14.8,4.6c1.8-0.8,5,1.4,8.4,2.4c-6.9-13.3-19.9-18.3-26.5-11.4c-2.5-3.2-6.5-6.1-7-9.6c-0.6-3.8,2-8,3.4-13.1
				c-2.4,4.1-4.5,7.2-5.9,10.6c-0.7,1.7-0.6,4.7,0.5,5.9C463.9,702.4,467.8,706.5,472.4,709.1z M537.4,649.2
				c-0.4-0.3-0.8-0.6-1.2-0.9c-2.4,3-4.9,5.9-7.3,8.9c0.5,0.4,1.1,0.8,1.6,1.2C532.8,655.3,535.1,652.3,537.4,649.2z M537.1,838.7
				c0.3,0.5,0.6,1,0.8,1.4c5.8-3.3,11.6-6.6,17.3-9.9c-0.3-0.6-0.6-1.1-1-1.7C548.6,831.9,542.9,835.3,537.1,838.7z M597.3,756.5
				c-6.4-4.6-13.4-7.9-21.7-8.5c4.3,3.6,8.5,7.3,12.8,10.9c-18.5,4.2-35.8,0.6-53.4-2.2c4.4,1.7,8.9,3.3,13.7,5.2
				c-10.7,4.6-20.6,8.8-30.4,13.1c-0.1-0.3-0.3-0.5-0.4-0.8c4.9-2.5,9.8-5,14.7-7.5c-0.7-0.6-1.2-0.6-1.5-0.5
				c-9,3.4-17.8,7.2-27,10.2c-3.4,1.1-7.5,0.9-11.2,0.3c-6.2-1-12.3-2.7-18.3-4.3c-1.9-0.5-4.1-1.3-5.3-2.7
				c-4.3-5-8.2-10.2-12.2-15.4l0,0c-0.2-1.1-0.4-2.2-0.9-4.4c-8.5,4.9-16.5,9.5-24.6,14.1c-4.1,2.3-8.2,4.5-12.3,6.8
				c-1.2,0.6-2.3,1.3-3.5,2c0.9,1.2,1.6,3.1,2.9,3.6c4.3,1.8,8.7,3.4,13.3,4.6c6.6,1.6,12.2,4.5,17,9.6c2.7,2.8,6.7,4.3,10.1,6.4
				c0.2-0.4,0.5-0.7,0.7-1.1c-0.9-1.1-2-2-2.8-3.2c-1.9-2.7,1-10.8,4.1-11.1c5-0.5,10-0.8,14.9-0.5c6.9,0.4,13.8,2,20.6,2
				c10.5,0,20.9-0.9,31.4-1.3c3.9-0.2,7.8,0,11.7,0l0.6,1.2c-2,1.9-3.6,4.8-6,5.7c-9.3,3.5-18.9,6.7-28.4,9.6
				c-4.9,1.5-10,2.3-15,3.5c17.6,0.4,33.9-5.4,50.2-10.5c6.7-2.1,12.9-5.8,19.6-7.6c12.3-3.4,25.1-5.5,31.3-19.9
				c2,4.3,3.7,7.8,5.7,12.1c0.6-5.1,1.3-9.1,1.3-13.1C599.3,760.6,598.7,757.5,597.3,756.5z M453,761.9c2,3.6,4.1,7.2,6.1,10.9
				c-1.9,0.9-1.9,0.9-10.6-9.3c1.3,3.3,2.7,6.7,4.2,10.6c-8,2.6-15.6-0.3-23.6-2c2.7-1.9,5.4-3.8,8-5.7c5.4-3.9,10.7-7.8,16.2-11.5
				c1-0.7,2.6-0.3,3.9-0.4c2.7,6,5.5,12.1,8.5,18.9C458.9,772.3,458.1,764.8,453,761.9z M611.8,764.8c-0.2,0-0.5,0-0.7,0
				c-0.4-1.7-0.8-3.4-1.2-5c-0.4,0.2-0.8,0.3-1.2,0.5c1.3,4.3,2.6,8.6,3.9,12.8c0.2,0,0.5-0.1,0.7-0.1v-12.2c-0.2,0-0.4,0-0.6,0
				C612.4,762.1,612.1,763.5,611.8,764.8z M556.1,819.4c-11,7.6-22.1,15.3-33.2,23C536.4,838.6,547.4,830.8,556.1,819.4z
				 M535.4,817.7c-22.4,10.1-45.9,12.6-70.1,9.4c-10.1-1.4-18.4-5.7-23.5-15.1c-0.6-1.1-1.4-2.2-2.2-3.2c-0.7-0.9-1.5-1.6-2.3-2.4
				c2.8,12.4,8.9,22.3,20.2,28.4c-0.3,0.3-0.5,0.6-0.8,0.9c-3.3-1.5-6.6-3-10.1-4.6c12.5,13.2,29.2,9.4,44.6,12
				c-2.9,1.5-5.9,2.9-9.6,4.8c31.7-2.4,73.1-28.1,81.9-46.9c-5,2.8-9.5,5.2-13.8,7.8C544.8,811.7,540.4,815.5,535.4,817.7z
				 M441.7,987.8c8.9,17.2,17.8,34.3,26.7,51.4c1.1-0.5,1.6-0.6,1.6-0.7c-5.6-18.9-17.2-34.7-26.8-51.5
				C442.6,987.3,442.1,987.5,441.7,987.8z M459.8,1001.1c-12.2-23.1-24.5-46.2-36.7-69.4C426.1,947.5,451.6,996.5,459.8,1001.1z"/>
		</g>
	</g>
</g>
</svg>
