<?xml version="1.0" encoding="utf-8"?>
<!-- Generator: Adobe Illustrator 25.4.1, SVG Export Plug-In . SVG Version: 6.00 Build 0)  -->
<svg version="1.1" id="Laag_1" xmlns="http://www.w3.org/2000/svg" xmlns:xlink="http://www.w3.org/1999/xlink" x="0px" y="0px"
	 viewBox="0 0 1050 1050" style="enable-background:new 0 0 1050 1050;" xml:space="preserve">
<style type="text/css">
	.st0{clip-path:url(#SVGID_00000023257246860719306120000010049096119917462451_);}
	.st1{fill:#FF66FF;}
	.st2{fill:#EDD661;}
	.st3{fill:#FFFFFF;}
	.st4{fill:#9933FF;}
	.st5{fill:#4F536A;}
	.st6{fill:url(#SVGID_00000005962371181681424150000000243210718750860462_);}
</style>
<g>
	<defs>
		<circle id="SVGID_1_" cx="525" cy="525" r="525"/>
	</defs>
	<clipPath id="SVGID_00000152972234237831667770000010187023123499734696_">
		<use xlink:href="#SVGID_1_"  style="overflow:visible;"/>
	</clipPath>
	<g id="Back" style="clip-path:url(#SVGID_00000152972234237831667770000010187023123499734696_);">
		<rect class="st1" width="1050" height="1050"/>
	</g>
	<g id="Eyes" style="clip-path:url(#SVGID_00000152972234237831667770000010187023123499734696_);">
		<path class="st2" d="M850.2,611.2c-2.3-2.5-12.1,0-17.3,2.6c-4.3,2.1-8.5,4.6-12.6,7.2l1.6-7.9c10.7-7.5,21.9-12.7,37.7-2.3
			c-6.6-13.4-15.8-18-28.5-14.6c-2.1,0.6-4.2,1.2-6.3,2l1.3-6.7l-9.7-79.7L780.2,365L635.9,238l-156.8-5.4l-44.1,19L419.1,271
			l-14.7,27l-15.5,34.8l-18.2,29.8L357.2,387l0.8,27.1l-8.5,29L320,500.5l-13.9,32.1L296,570.9l-1.5,41.4l-1.5,79.3l0.4,39.5
			l8.5,34.1l7,29.8l11.6,36.4l14.3,30.6l10.1,18.6L224,931.8l-15,131.7l147.2-1.1l-0.2,7.9l169.1-9.2l285.6-2.2l36.5-49.4L783,979.7
			l-71.5-61.2l-22.7-18.9l46.2-43.8l58.4-99.1l8.1-40.5c1.1-1.1,2.2-2.1,3.3-3.3c17.1-17.9,32.8-37.2,49-55.9l0.3-0.6
			c1.5-8.3,4.4-16.6,4-24.8C857.7,624.6,854.9,616.2,850.2,611.2z M811,674.4c-0.7,2.8-1.7,5.5-2.8,8l3.8-18.9
			C812.3,667.2,811.9,670.8,811,674.4z M832.5,663.5c3.4-4.8,6.1-8.5,9.3-12.9c-18.6-2-18.6-2-21-4.7c4.3-1.5,8.5-3,12.8-4.4
			c-0.2-0.7-0.4-1.5-0.6-2.2c-5.5,1-10.9,1.9-16.7,3L819,629c7.1-2.2,14.9-2.2,22.2-3.5c0.9,4.2,0.9,8,2.5,10.9
			C850.6,648.7,847.9,656.3,832.5,663.5z"/>
		<path class="st3" d="M362.7,706.5l5.9,16.2l11.3,23.1l16.7,14.3l20.7,12.8l37.3,9.1l19.8,2.7l25.1-7.9l21.2-14.3
			c0,0-17.7-5.4-19.2-5.4c-1.5,0-24.1-4.4-24.1-4.4l-30-4.9l-29.5-9.4l-17.7-9.8l-32.5-22.1H362.7z"/>
		<path class="st3" d="M378.2,494.9c7.3,3.7,12.6,6.5,18.8,9.7C385.8,511.3,380.4,508.9,378.2,494.9z"/>
		<polygon class="st3" points="376.3,493.3 376.8,499.9 380.7,508.5 392.8,510.1 401.8,505.8 399.1,501.2 392.6,497.2 		"/>
		<polygon class="st3" points="560.8,584.5 576.6,581.9 582.5,586.9 573.9,589.1 568.4,590.1 562.9,588.6 		"/>
		<polygon class="st3" points="359.9,501.6 366.6,510 377.1,517.5 391.4,527.7 409.8,536 428.2,538 430.3,535 429.3,529.4 
			413.2,513.4 404.9,507.4 392.5,511.9 377.7,507 373.4,497.3 		"/>
		<polygon class="st3" points="550.1,585.5 561.3,596 574,600.1 579.9,604.4 594.1,613.3 631.4,616.3 619.1,601.8 604,591.9 
			596,588.3 581.2,581.2 574.3,581.2 		"/>
	</g>
	<g id="Haar" style="clip-path:url(#SVGID_00000152972234237831667770000010187023123499734696_);">
		<g id="Kleding">
			<polygon class="st4" points="847.3,1009.5 803,1068.6 951.2,1077.9 941.9,1046 898.7,1033.7 			"/>
			<path class="st4" d="M162.1,963.7c-1.5,18.4-3,38.2-5.1,58c-0.1,1.2-6.4,3.2-6.8,2.7c-4.8-6.6-9.8-13.2-13.1-20.6
				c-4.7-10.4-8-21.4-11.9-32.2c-1.3,0.4-2.6,0.9-3.9,1.3c3.6,12.4,7.2,24.7,11.1,38.3c-14.8-10.3-8.5-27.3-16.5-39.3
				c0,9.5,0,18.9,0,28.4c-0.8,0.2-1.7,0.4-2.5,0.7c-4.5-12.7-9-25.4-13.3-38.2c-1.3-3.8-1.3-8.1-2.9-11.7c-0.8-1.9-3.9-2.7-6-4
				c-0.5,2.2-1.7,4.5-1.5,6.7c0.6,7.7,1.7,15.3,2.9,24.7c-14.7-10.4-27.4-19-39.6-28.3c-2.6-2-3.4-6.2-5-9.4
				c3.2-1.3,6.3-3.2,9.6-3.9c29.6-5.4,55.8,2.7,80.5,19C144.2,959.9,152.7,960.7,162.1,963.7z"/>
			<path class="st4" d="M212.8,1087.5c-5.4-16.4-18.6-26.1-29.9-38.1c1.5-6.6,2.4-13.5-9.2-13.2c2.9-26,5.7-51.5,8.5-76.9
				c-0.7-0.1-1.4-0.2-2.1-0.3c-2,3.8-4,7.6-6,11.3c-0.9-0.3-1.8-0.5-2.7-0.8c-0.9-5.8-1.7-11.7-2.7-18c-1.9,0-4,0-6.9,0
				c1.1-1.2,1.6-2.1,2.4-2.5c9.5-4.9,19-7.8,30.1-5c3.8,1,9-1.9,13.1-3.8c5.8-2.7,11.2-6.1,18.5-10.2c-3.3,53.2-6.5,104.6-9.7,156.1
				C215,1086.6,213.9,1087.1,212.8,1087.5z"/>
		</g>
		<path class="st5" d="M426.4,259.5l31.9-11.6l45.8-5.1l47.3,3.6l39.3,6.5l38.5,24.7l51.6,40.7l29.8,14.5l9.5,30.9l26.8,43.3
			c0,0,21.1,28.4,21.1,31.3s-0.7,48-0.7,48L750.7,525l39.5,41.6l17.4,35.7l22.1-9l24.2,1.3l11.4,11.9l0.8,14.7l-3.5,18.7l-20.2,31.7
			l-22.9,29L797.2,724l-14.5,11.4l-16.4,8.5L751,803.3l-39,50.6l27.1,39.7l52.8,32.8l20.7,13.2l3.5,8.4l42.2,9.2l34.8-7l13.2-11.4
			l5.7-8.8l-1.8-18.5l-7.9,17.6l-11,3.5l-11.9,4.4l-15,1.3l-18.5-0.4l-19.4-7.9l-15-7l-10.1-29l21.1-22.4l8.8-9.7l7-24.6l14.5-1.8
			l4-15l1.8-33.4l-2.2-13.2l29,16.3l-9.2-15l-14.1-28.6c0,0-1.3-20.2-1.3-22.4s-0.4-35.2-0.4-35.2l6.6-37.8l12.8-12.8l8.4-20.2
			l-4.8-14.1l-4.8-21.1l-1.3-7.5l2.2-17.2l6.9-34l-1.6-10l2.6-4.4l-2.2-12.8l0.9-16.3l4.8-19.8l13.6-15.4l7.9-16.3l-3.5-26.4
			l-4.3-15l2.5-27.2l1.3-22.9l-5.7-21.6l-4.8-13.2c0,0-12.3-18-12.3-16.7s2.6-18.9,2.6-18.9l-5.3-15L869.3,241l-24.6-22l0.9-14.5
			l-4-13.2l-11.9-11.9l-43.6-17.6l-51.5-32.6l-13.2-7.9l-15-4.8l-10.2,1.1l-27.2-3.3l-28.6,4l-74.8,37.8l-2.2-7.5l-34.8,16.3
			L487,182.3l-32.6,25.1l-14.1,15.8L426.4,259.5z"/>
	</g>
	<g id="Outline" style="clip-path:url(#SVGID_00000152972234237831667770000010187023123499734696_);">
		<g>
			<g>
				
					<linearGradient id="SVGID_00000153682189126118893200000008820692736079979407_" gradientUnits="userSpaceOnUse" x1="352.0925" y1="434.8825" x2="702.8808" y2="434.8825" gradientTransform="matrix(1 0 0 -1 0 1052)">
					<stop  offset="1.302083e-03" style="stop-color:#FF0540"/>
					<stop  offset="1" style="stop-color:#FF6666"/>
				</linearGradient>
				<path style="fill:url(#SVGID_00000153682189126118893200000008820692736079979407_);" d="M777.3,277.4
					c-17.3,14.9-34.6,29.8-51.9,44.8C747.6,312.9,763.8,296.6,777.3,277.4z M861.9,464.8c0.4,0,0.8-0.8,1.2-1.3
					c-2.1-1.3-4.1-2.5-6.8-4.2c3-0.8,4.9-1.2,6.8-1.7c-26.8-1.7-51.7-8.7-75.4-20.7C808,457.6,833.5,465.1,861.9,464.8z
					 M715.6,123.3c-5.3,1-10.5,2-16.7,3.2c15,1.7,28.6,3.2,41.1,4.6c-20.8-15.3-28.2-17.5-43.7-13.8c4.5,0.8,12.2,2.1,19.8,3.4
					C715.9,121.7,715.8,122.5,715.6,123.3z M767.8,279.7c-22.2,13.2-42.1,25-62.1,36.8C730,312.2,749,298.7,767.8,279.7z
					 M817.3,509.1c-15.1-18.9-30-38-44.9-57c-0.9,0.8-1.7,1.6-2.6,2.5c18.1,32,36.3,64,67.2,90.3c-3-5.6-4.5-8.5-6.8-12.8
					c4,1.9,6.4,2.9,10.2,4.7C831.8,526.6,824.4,518,817.3,509.1z M767.8,550.3c5.7,6.4,11.4,12.9,17.4,19.1c0.3,0.3,3.3-1.8,5.1-2.8
					c7,4.5,13.8,9.4,21.1,13.4c1.5,0.8,4.9-1.7,7.4-2.7c-28.5-16.6-48.3-36.2-66.5-58.2c-1.3,8.8-1.3,8.8,17.9,30.8
					c-0.8-0.2-1.6-0.4-2.3-0.6C767.9,549.7,767.7,550.1,767.8,550.3z M470.3,218.2c-6.6,10.5-12.2,19.3-17.7,28.1
					c0.8,0.5,1.6,1,2.4,1.5C459.2,238.2,473.1,234.3,470.3,218.2z M847.3,331c-21.1,10-41.1,22.4-65.3,24.3
					c27.6-11.7,49.1-31,69.9-51.3c-0.5-0.7-1-1.4-1.6-2.1c-2.7,1.7-5.4,3.4-8.1,5.1c2.3-5.4,6.3-9.3,9.2-13.9
					c2.8-4.4,4.4-9.6,5.5-12c-20.3,18-41.8,37-63.9,56.5c8-3.7,15.4-7.1,22.9-10.6c-11.4,11.6-45,31.9-71.4,33.8
					C766.8,371.1,816.4,357,847.3,331z M842.6,217.5c-3,10.7-6.5,21.3-9.8,32.4c4.7-7.4,9.4-14.8,14.5-22.7
					c7.3,5.4,13.8,10.9,20.9,15.2c16.4,10.1,19.4,24.8,15.9,42.2c-1.2,5.9-2.2,11.9-3.8,17.7c-3.9,13.4-8.1,26.6-12.2,39.9
					c0.9,0.3,1.8,0.6,2.6,0.9c5.2-16.7,10.5-33.4,15.8-50.4c22.6,23.5,21.9,52.2,18.1,81.7c2-3,3.3-6.1,4.1-9.2
					c6.5-24.5,1.2-46.9-13.2-67.2c-5-7-9.2-13.7-7.3-23c1.9-9.4-0.3-18.5-7.1-25.3c-7.5-7.5-15.6-14.6-24.3-20.6
					c-6.5-4.5-10.5-8.8-9.1-17.2c1.5-9.6-2.5-17-8.5-24.8c-13.1-17-33-20.1-50.9-27.2c-1.4-0.6-4,1.9-8.6,4.2
					c14.8,5.1,27.3,8.3,38.8,13.7C838.6,187,848.7,195.7,842.6,217.5z M850.9,272.3c-11.3,12.2-22.7,24.5-34,36.7
					c0.7,0.7,1.4,1.4,2.2,2.2c11.3-12.1,22.6-24.2,34-36.2C852.3,274.1,851.6,273.2,850.9,272.3z M483,205.3c-1,0-1.9,0-2.9,0v32.5
					C490.8,226,487.5,215.7,483,205.3z M847.3,377.7l-26.6,16.9l1.5,2.2c8.7-5.8,17.5-11.7,26.2-17.5
					C848,378.8,847.7,378.2,847.3,377.7z M741.3,325c0.2,0.2,0.5,0.5,0.7,0.7c11.4-11.4,22.9-22.8,34.3-34.2
					c-0.2-0.2-0.4-0.4-0.6-0.6C764.2,302.3,752.8,313.6,741.3,325z M870,441.3h-41.7v1.8H870C870,442.5,870,441.9,870,441.3z
					 M759.5,384.3c-10.8-12.4-21.7-24.9-32.4-37.2C733.4,363.2,743.2,376.7,759.5,384.3z M819.4,407.8c21.9-4.7,40-15.9,55.7-31
					C856.5,387.1,838,397.4,819.4,407.8z M904.7,387.8c1.1,9.2,2.8,18.9,3,28.6c0.2,6.6-0.5,13.7-2.8,19.8c-2.3,6.1-6,12.7-11,16.3
					c-4.6,3.3-11.9,2.9-18.1,4.1c4.5,0.2,8.8,0.4,13.4,0.6c-0.5,18.4-14.9,34.2-3.4,52.4c-0.4,0.9-0.8,1.9-1.2,2.8
					c-8.5-0.9-17-1.7-25.5-2.6c5.6,2.6,11.5,5.1,17.6,6.3c9.5,1.8,13.3-2.4,11.3-12c-3.9-18.1,0.4-34.5,12.7-47.8
					C918,437.7,915.5,411.6,904.7,387.8z M720.3,363.9c7,7,13.4,14.7,21,20.8c16.9,13.5,35.8,23.7,56.4,30.7
					c3.6,1.2,6.5,6.1,9.9,6.4c12.8,1,24.5-2.2,35.6-13.6c-12.1,1.9-21.9,3.9-31.8,4.8c-5.4,0.5-11.4,0-16.3-2
					c-27.6-11.2-50.6-29.4-72.6-49C721.8,362.6,721,363.3,720.3,363.9z M882.9,606.5c1.4,6.7,1.5,13.8,0.9,20.6
					c-0.5,5.1-3.3,10-5,15c9-13.1,14.8-26.6,7.7-42.8c-3.7-8.4-5.3-17.8-7.4-25.3c-11.6-4.9-22.9-9.6-34.2-14.4
					c-0.3,0.6-0.6,1.2-0.9,1.9c10.5,5.1,21,10.2,30.5,14.8C877.5,586.9,880.9,596.5,882.9,606.5z M889.6,524.8
					c-1.1-0.2-2.2-0.5-3.3-0.7c-3.6,13.2-7.2,26.4-10.8,39.7c1.9,0.4,3.8,0.8,5.7,1.2C884,551.6,886.8,538.2,889.6,524.8z
					 M781.8,508.9c-0.8,0.7-1.6,1.5-2.4,2.2c8.6,10.2,17.2,20.5,25.8,30.7c-0.5,0.4-1.1,0.9-1.6,1.3c-2.8-1.1-5.7-2.2-8.5-3.3
					c20.2,19.2,40.9,37.3,70,40.3C833.5,560.8,802.7,540.9,781.8,508.9z M588.5,238.8c11.8-0.2,11.4-11.6,16.8-17
					C599.7,227,588.5,227.2,588.5,238.8z M608.8,244c0.9,3.8,1.5,6.6,2.3,10c9.9-11.6,19.3-22.8,28.8-34c-0.6-0.9-1.1-1.8-1.7-2.7
					c-5.3,2.5-10.6,5.1-16,7.7c-0.8-2.2-1.8-4.9-2.7-7.5c-1.1-0.4-2.1-0.7-3.2-1.1c-5.8,10.3-11.6,20.6-17.4,31
					c0.6,0.4,1.2,0.8,1.8,1.2C603.2,247.1,605.7,245.7,608.8,244z M699.4,288.3c-15.3,3.1-30.6,6.2-45.8,9.3
					C669.5,298.4,686.4,304.2,699.4,288.3z M851.5,415.2c-14.1,4.7-28.8,9.6-43.6,14.5C822.1,432.5,845.7,423.3,851.5,415.2z
					 M683.6,283.5c-0.1-1.1-0.2-2.1-0.3-3.2c-11.9,1.1-23.7,2.2-35.6,3.3c0.1,0.9,0.1,1.8,0.2,2.7
					C659.8,285.4,671.7,284.4,683.6,283.5z M565.5,234.8c4.2-21.4,15.1-39.3,28.2-56.1C580.4,195.4,559.4,207.8,565.5,234.8z
					 M292.6,727.1c0,3.3,0.5,6.8,1.3,10c7.8,33.5,16.2,66.9,23.5,100.5c2.7,12.3,9.8,20.5,18.7,28.1c-2-4.9-5.4-9.2-7-14.1
					c-7.8-25.4-15.6-50.9-22.5-76.5c-4.8-17.5-11.2-35.3-11.6-53.2c-1.1-44.2-0.5-88.6,2.1-132.8c1.3-21.6,5.9-43.8,13.6-63.9
					c9.4-24.3,24.7-46.2,35.6-70c8.5-18.5,14.4-38.3,21-57.7c2.5-7.3,2.7-15.3,5.6-22.4c5.1-12.4,11.4-24.3,17.2-36.4
					c2.6-5.4,5.9-10.5,8.1-16c3.2-8,4.7-16.8,8.5-24.4c6.8-13.5,14.8-26.4,22.3-39.6c-6.2,6.8-13.5,13-17.9,20.8
					c-8.9,16.2-15.7,33.6-23.9,50.2c-3.3,6.6-7.2,13.2-12.2,18.5c-13.8,14.8-24,30.1-22,52.1c1.1,12.6-0.6,26.3-4.8,38.2
					c-5.7,16.1-14.7,31-22.8,46.2c-19.6,37.1-34.2,75.5-33.5,118.4C292.5,644.6,292.3,685.9,292.6,727.1z M464.4,201.3
					c18.3-15.7,39.4-25.1,62.3-32.3c-6.8,5.8-13.6,11.6-20.3,17.4c0.2,0.1,0.4,0.2,0.6,0.3c19.3-11.8,38.6-23.5,57.9-35.3
					c-4.5,4.3-8.9,8.6-13.4,12.9c15.3-7.3,29.1-16.6,43.8-24.2c15.2-7.9,31.2-14.2,48.2-21.8c-29.1,4.4-53,16.8-75.8,32.1
					c-0.7-1-1.6-2.9-1.9-2.8c-5.1,1.5-10.2,3.4-15.3,5.1c-39.3,13.3-75.8,31.1-105,61.6c-6.8,7.1-10.5,15.1-11,25.2
					c-0.3,6.1-2.8,12-4.4,18.1c2.2,1.6,4.5,3.3,7.2,5.3C438.7,239.9,444.9,218,464.4,201.3z M430,257.6c-0.1-0.1-0.1-0.1-0.2-0.2
					l0,0c-0.3,0.4-0.5,0.9-0.8,1.3C429.3,258.4,429.6,258.1,430,257.6C429.9,257.7,430,257.7,430,257.6z M619,532.4
					c-29.9-0.2-60.4-10.4-89.1,6.5c56.2,1.5,112.3,2.8,163.2,32.2C669.4,556,650.6,532.7,619,532.4z M436.3,478.5
					c-8.6-6-14.8-15.4-22.9-22.2c-6.9-5.9-15.7-9.7-22.6-15.6c-7.9-6.8-21.1-8.4-30.6-1.7c2.4,0.3,4.5,1.1,6.3,0.7
					c8.3-2,13.4,1.2,18.8,7.7c7.4,8.9,16.7,16.4,25.2,24.4c12.4,11.7,28.3,20.5,33.6,38.6C444.8,499.1,449.2,487.6,436.3,478.5z
					 M586.1,211.8c-1.3,4.3-2.8,9,2.8,12c0.7,0.4,0.8,1.7,1.7,4c16.7-24.6,32.2-47.3,47.6-70c-0.7-0.5-1.5-1-2.2-1.5
					c-7.5,11-15,22-22.5,33c-0.6-0.3-1.3-0.6-1.9-0.9c3.4-6.2,6.7-12.5,10.1-18.7c-0.8-0.4-1.6-0.8-2.4-1.3
					c-9.2,13.2-18.5,26.3-28.4,40.5c1.2-5.6,2.1-10,3.1-14.4C590.2,199.9,587.9,205.8,586.1,211.8z M440,555
					c9.8-3.9,10.5-6.6,4.8-23.2C442.9,541.1,441.5,547.8,440,555z M512.2,207.2l10.7,32.7c1.5-0.6,3.1-1.2,4.6-1.8
					c-3.8-10.8-7.6-21.5-11.4-32.3C514.8,206.3,513.5,206.7,512.2,207.2z M357.1,497.4c4.3,10.9,9.4,1.9,15,1.1
					c-3,10.1,1.5,16.8,9.6,19.7c8.7,3.1,17.3,1.2,23.5-9c8.6,8.6,16.4,16.3,24.2,24c-0.6,0.9-1.2,1.9-1.7,2.8h-17.9c0,1-0.1,2-0.1,3
					c7.7,0.6,15.4,1.2,23.4,1.9c-7.5-40.7-37.6-46.6-68.6-51.4c3.6,1.2,7.3,2.4,10.9,3.5c-0.1,0.8-0.1,1.6-0.2,2.4
					C369.3,496.1,363.4,496.7,357.1,497.4z M397,504.6c-11.2,6.7-16.6,4.3-18.8-9.7C385.5,498.7,390.8,501.4,397,504.6z
					 M549.2,242.6c-3.4-9.3-6.2-17.2-9.1-25c-0.7,0.1-1.3,0.3-2,0.4c-0.4,3.4-0.7,6.8-1.3,11.6c-3.8-4.8-6.7-8.4-10.9-13.6
					C526.7,231.7,535.2,238,549.2,242.6z M954.9,1043c-17.2-2.9-34.5-2.2-50.8-12.5c-17.2-10.9-33.9-22.6-56.2-26
					c-19.3-2.9-37.1-15.4-55.3-24.2c-2.2-1.1-2.9-5.4-4.7-8.8h27.2c-4.9-9.6-8.4-16.5-13-25.6c9.7,3.7,16.4,6.9,23.5,8.8
					c23.3,6.1,46.6,7.4,69.4-1.9c19.5-7.9,27.4-36.4,15-53.3c-2,13.1-5.2,25.1-19,31.2c-20.5,9.2-40.8,7.7-60.9-0.1
					c-12.3-4.8-24.1-22.2-23.3-31.8c22.6,17.1,46.5,18.5,61.5,3.9c-8.1,0.5-16.5,1.1-27,1.7c9.8-4.4,17.4-7.8,24.9-11.2
					c-0.5-1-0.9-2-1.4-3c-11.4,2.9-22.8,7.1-35.3,0c6.4-2.1,11.6-3.8,16.8-5.6c-24.5,2.3-27.6,1.7-28.5-5.5c8.1-2.2,16-4.3,23.9-6.5
					c-0.2-1.1-0.5-2.2-0.7-3.3c-3.5-0.3-7.1-0.6-10.6-0.9c-11.2-1-16.1-11.4-9.9-21.3c1.4-2.3,3.6-4.1,5-6.4
					c9.2-14.9,14.4-30.4,6.5-47.6c0.9,18.3-6,34.2-14.1,49.8c-0.9-0.1-1.7-0.2-2.6-0.3v-63.9c-0.8-0.1-1.6-0.3-2.4-0.4
					c-2.4,9-5.4,17.8-7,26.9c-1.7,9.6-2.6,19.4-2.9,29.2c-0.3,8.8,0.7,17.7,1.1,26.5c-1,0.1-1.9,0.1-2.9,0.2
					c-2.2-10.2-4.5-20.3-6.7-30.5c-0.4,0-0.7,0.1-1.1,0.1c-0.3,4.3-0.6,8.7-1.2,15.8c-1.9-14.1-3.4-25.5-5-36.9
					c-1.3,0.2-2.6,0.3-3.8,0.5c2.6,24.2,5.2,48.4,7.8,72.5c-1,0.5-1.9,1.1-2.9,1.6c-3.1-4.1-7.5-7.9-9-12.5c-2.2-7-3-14.5-3.4-21.9
					c-1.4-29.8,1.6-59,12-87.3c-1-0.5-2-0.9-2.9-1.4l-14.4,27c3-16.1,7-31.7,11.5-47.2c0.7-2.4,3-4.5,4.9-6.3
					c12.3-11.3,26-21.3,36.7-33.9c11.4-13.4,20-29.2,29.9-43.9c-16.3,18.7-32,37.9-49,55.9c-9.1,9.6-20.6,16.9-32.2,24.2
					c1.4-10.8-0.4-21.6,11.1-28.8c12.7-7.9,23.6-18.6,27.4-33.9c2.6-10.3,1.1-20.2-10.3-29.4c12.2-2.2,22.2-4,32.2-5.7
					c0.2,0.7,0.4,1.5,0.6,2.2c-4.3,1.5-8.5,3-12.8,4.4c2.4,2.7,2.4,2.7,21,4.7c-3.2,4.4-5.9,8.1-9.3,12.9
					c15.5-7.2,18.1-14.8,11-27.2c-1.6-2.8-1.6-6.6-2.5-10.9c-14,2.4-30,0.4-39.1,17.4c-0.8-1.1-1.5-2.1-2.3-3.2
					c2.3-3.1,4.1-7.1,7.1-9.2c8.4-6.1,17-12.1,26.3-16.7c5.2-2.6,15-5.1,17.3-2.6c4.7,5,7.4,13.4,7.8,20.5c0.5,8.1-2.5,16.5-4,24.8
					C861,645.5,868.5,635,866,621c1.6,2.5,3.2,4.9,4.8,7.4c-3.4-14.8-0.4-32.8-20.2-38.9c-12.3-3.7-29.2,1.8-38.4,13
					c-1.6-0.1-3.5,0.3-4.8-0.5c-17.6-10.1-31.6-5.9-43.2,10.1c-1.6,2.1-5.8,3.1-8.9,3.2c-18.7,0.7-31.2,10-37.5,27.2
					c-6.4,17.3-12.1,34.9-17.2,50.1c-6.9,1.9-12.8,2.4-17.6,5c-7.9,4.3-15.3,9.7-22.6,15c-28.2,20.8-53.2,44.6-76.4,71
					c-17.1,19.5-37.4,37-58.7,51.7c-24.4,16.9-49.8,31.8-65.9,58.1c-2,3.3-8.1,7.1-11.3,6.4c-36.6-7.9-75.2-8.7-110.1-32.2
					c2.3,4.5,3.4,6.6,4.8,9.3c-22.8,9-45.5,16.7-67.2,26.7c-22.1,10.2-46.9,14.3-66.4,30.1c-6.3,5.1-12.5,7.5-20.3,4.4
					c-13.9-5.6-24.7-0.4-34,10.1c-0.8,0.9-2,1.5-2.2,1.7c-43.7-28.9-88.3-31.3-134.6-10v178.6H229c-1.3-6.7-3.2-11.8-3-16.8
					c2.1-55.4,4.4-110.8,7.1-166.2c0.1-2.9,3.8-7,6.7-8.3c33.7-14.5,67.5-28.7,101.5-42.5c3.1-1.3,7.5-0.9,10.9,0
					c15.5,4.2,30.7,9.6,46.3,13.2c15.8,3.7,32.1,5.9,49.7,9.1c-8.9,10.1-16.8,18.4-23.9,27.4c-19.2,24.7-38.4,49.3-56.8,74.6
					c-6.2,8.5-11.9,18.4-14.4,28.4c-6.3,26.2,2.4,51.4,8.5,76.5c0.4,1.8,3.7,2.9,5.6,4.3c0.9-2.2,2.7-4.6,2.5-6.7
					c-1.5-13.4-2.8-26.9-5.4-40.1c-3.6-17.9-3.4-35.1,6.8-50.7c9.5-14.6,20-28.6,30.3-42.7c10.8-14.6,22-28.8,32.8-43.5
					c10.1-13.8,26-21.9,35.3-36.7c4.3-6.9,11.1-12.5,17.2-18.2c15.6-14.6,30.3-30.4,47.4-43c28.3-20.7,54.4-43.4,76.8-70.4
					c9.3-11.3,19.9-21.9,31.2-31.3c12.9-10.7,27.4-19.4,40.9-29.3c10.6-7.8,16.1-6.1,19.7,6.9c1.5-2.2,3.6-4.3,4.1-6.6
					c0.8-4.5-0.5-9.6,0.8-13.9c4.5-15.9,8.9-31.9,14.8-47.3c7.7-20,23.2-27.9,40.6-21.8c-2.2,10.1-4,20.4-6.6,30.5
					c-8.9,34.6-17.5,69.4-27.4,103.7c-3.8,13.2-8.6,26.7-16.1,38c-10.2,15.2-23.9,28-35.2,42.5c-14.5,18.6-28.2,37.7-41.8,57
					c-2.4,3.4-2.4,8.6-3.5,13c3.9-0.7,5.4-2,6.5-3.5c21.3-29,41.9-58.4,63.9-86.8c19.9-25.6,32.3-54.2,39.8-85.4
					c5.7-23.6,12.2-47,18-70.6c3-12.1,6.3-24.3,7.5-36.6c1.8-18.5,18.1-27.7,35.4-18.7c-0.2,1.2-0.3,2.6-0.7,3.8
					c-6.9,21.5-14.6,42.7-20.7,64.4c-9.2,32.8-16.9,66-26.1,98.8c-3.8,13.6-7.3,28.2-15.1,39.5c-11.9,17.3-27.6,31.8-41.3,47.9
					c-9.8,11.5-19.5,23.2-28.3,35.5c-5.7,8.1-9.6,17.5-14.2,26.3c0.7,0.4,1.5,0.8,2.2,1.2c5.5-6.7,11.1-13.5,16.6-20.2
					c1.1,0.9,2.1,1.7,3.2,2.6c-7.6,9.9-14.3,20.8-23.1,29.4c-8.5,8.3-19.5,14-29.1,21.2c-4.8,3.6-8.9,8.2-13.3,12.3
					c-0.5-0.5-1-1-1.4-1.5l11.4-15.1c-0.6-0.5-1.2-1-1.9-1.5c-5.4,5.2-10.9,10.3-16.3,15.5c-0.6-0.4-1.2-0.7-1.8-1.1
					c6.7-10.7,13.3-21.4,20-32.1c-1.9,0.4-3.1,1.4-4.2,2.5c-26.9,27.8-54,55.5-80.6,83.7c-5.9,6.3-9.9,14.3-14.8,21.6
					c1.1,0.8,2.2,1.5,3.3,2.3c6.7-7.3,13.4-14.5,20.1-21.8c0.4,0.3,0.8,0.6,1.1,0.9c-7.2,8.9-14.4,17.8-22,27.2
					c3.6,0.8,5.6,1.2,6.6,1.4c-5.1,12.1-10,23.7-14.9,35.2c-4.1-10.3-8.2-20.5-12.3-30.6c-1.3,0.4-2.5,0.8-3.8,1.2
					c3.9,19.6,7.7,39.2,12,58.8c0.3,1.5,3.9,2.2,4.6,2.6c4.1-13.7,7-26.7,11.8-39c9.1-23.4,25.1-42.1,42.9-59.3
					c21.3-20.7,42.5-41.5,64.1-61.9c9-8.5,19.2-15.6,28.6-23.7c5.2-4.5,9.7-9.7,14.4-14.7c3.5-3.7-0.2-13.8,8.7-12
					c4.8,1,9.5,6,12.8,10.3c3.1,4.1,4,9.7,6.3,14.5c1.3,2.6,3,5.6,5.3,7.1c6.2,4.1,13.1,7.2,19.3,11.1
					c15.8,10.1,31.1,21.2,47.3,30.5c15.4,8.9,31.7,16.3,47.8,24c5.7,2.7,6.6,6.4,3.3,11.3c-4.7,6.9-10,13.5-14.5,20.5
					c-12.6,19.9-25,39.9-37.5,59.9c-4.1,6.5-8.4,12.9-13,19.9c9.8,3.2,14.9,1.5,18.8-6.1c6-11.9,13.8-22.9,19.5-34.9
					c10.9-23.3,29.6-38.8,49.8-53.3c6.9-5,12.8-3.7,19.7-0.2c16.8,8.4,31.4,21.1,50.3,25.4c0.7,0.2,1.2,1.4,2,2.4
					c-11.2,9.5-22.1,18.8-33.1,28.2c-0.7-0.5-1.4-1-2.1-1.4c4.5-9.2,9.1-18.4,13.6-27.6c-0.5-0.2-0.9-0.4-1.4-0.6
					c-15,23.2-30,46.4-44.9,69.5c9.5,0,20,0.7,30.4-0.3c4.2-0.4,9.3-3.5,11.8-6.9c10.6-14.7,20.4-29.9,30.4-45
					c5.9-8.9,12.9-14.5,24.3-9.9c1,0.4,2.4-0.4,3.8-0.7v-11.4C957.4,1043.5,956.1,1043.3,954.9,1043z M797.2,904.3
					c9.6,22.1,23.1,39.2,49,41.3c23.5,1.9,44.9-2,61.8-20.4c0.8,0.6,1.6,1.3,2.4,1.9c-4.1,5.6-7,12.9-12.3,16.5
					c-29.2,19.7-77.7,10.1-97.9-19.1c-3.5-5.1-4.3-12.2-6.3-18.4C795,905.5,796.1,904.9,797.2,904.3z M157,1021.7
					c-0.1,1.2-6.4,3.2-6.8,2.7c-4.8-6.6-9.8-13.2-13.1-20.6c-4.7-10.4-8-21.4-11.9-32.2c-1.3,0.4-2.6,0.9-3.9,1.3
					c3.6,12.4,7.2,24.7,11.1,38.3c-14.8-10.3-8.5-27.3-16.5-39.3v28.4c-0.8,0.2-1.7,0.4-2.5,0.7c-4.5-12.7-9-25.4-13.3-38.2
					c-1.3-3.8-1.3-8.1-2.9-11.7c-0.8-1.9-3.9-2.7-6-4c-0.5,2.2-1.7,4.5-1.5,6.7c0.6,7.7,1.7,15.3,2.9,24.7
					c-14.7-10.4-27.4-19-39.6-28.3c-2.6-2-3.4-6.2-5-9.4c3.2-1.3,6.3-3.2,9.6-3.9c29.6-5.4,55.8,2.7,80.5,19c6.3,4.2,14.8,5,24.3,8
					C160.6,982.1,159.1,1001.9,157,1021.7z M216.1,1086.2c-1.1,0.4-2.2,0.9-3.3,1.3c-5.4-16.4-18.6-26.1-29.9-38.1
					c1.5-6.6,2.4-13.5-9.2-13.2c2.9-26,5.7-51.5,8.5-76.9c-0.7-0.1-1.4-0.2-2.1-0.3c-2,3.8-4,7.6-6,11.3c-0.9-0.3-1.8-0.5-2.7-0.8
					c-0.9-5.8-1.7-11.7-2.7-18h-6.9c1.1-1.2,1.6-2.1,2.4-2.5c9.5-4.9,19-7.8,30.1-5c3.8,1,9-1.9,13.1-3.8
					c5.8-2.7,11.2-6.1,18.5-10.2C222.5,983.2,219.3,1034.7,216.1,1086.2z M812.4,602.9L812.4,602.9c6.2-2.2,12.4-5,18.8-6.7
					c12.7-3.4,21.9,1.2,28.5,14.6c-24.5-16.1-37.9,5.2-55.7,14.7C805.1,616.8,803.7,608,812.4,602.9z M753.8,840.6
					c-2.5,6.6-5.9,13.1-7.4,20c-2.1,9.3-7.2,8.9-13.2,5c-5.6-3.6-10.4-8.4-17.2-13.9c8.7-10.2,17.5-19.6,25.2-29.9
					c5.7-7.7,11.3-16.1,14.5-25c5.6-15.8,8.9-32.4,13.8-48.5c1-3.3,4.8-5.7,8-9.3c-5.8,23.2-13.5,44.4-15.8,66.1
					c-2.4,22.2,0.6,44.9,1.2,67.3C755.2,871.6,755.2,871.6,753.8,840.6z M676.9,738.3c-11,13.5-22.5,26.8-32.6,41
					c-15.6,21.9-30.2,44.4-45,66.8c-8.3,12.4-16.2,25.1-24.3,37.6c1,0.8,2,1.6,3.1,2.4c14.9-19.1,30.5-37.8,44.4-57.6
					c15.2-21.7,28.3-44.9,43.2-66.7c11.4-16.6,24.2-32.2,36.4-48.2c-2.6,1.3-5.5,2.3-7.4,4.3C688.5,724.5,682.6,731.3,676.9,738.3z
					 M843,803.7c-0.4,16.2-4,30.8-11.8,44.8c-2.3,4.2-1.8,10-2.9,17.3c24-15.3,36.5-40.2,29.8-55.5c-3,7.7-5.9,15.4-9.6,24.9
					C846.3,822.8,844.7,813.3,843,803.7z M890.9,787.5c-35.1-9-50-35.8-60.5-67.2c-8.3,16.5-6.7,33.5-2.2,50.9
					c-3.7-4.2-7.4-8.5-11.5-13.1c1.4,19.9,30,39.5,48.5,33.6c-2.4-1.9-4.7-3.6-8.9-6.9C883.5,793.8,883.5,793.8,890.9,787.5z
					 M868.5,652.8c-3.6,14.7-7.8,29.3-10.6,44.2c-2,10.5-3.1,21.4-3,32.1c0.1,14.6,12,38.6,23.2,46.2
					c-24.1-41.7-12.7-83.2-8.4-125.1C869.2,651,868.7,651.8,868.5,652.8z M702.9,713.2l-0.3-0.2c-0.2,0.2-0.3,0.4-0.5,0.6
					C702.4,713.4,702.6,713.3,702.9,713.2z M390.6,705c7.8,5,15.6,10.1,23.4,15.1c0.9-1.5,1.7-3,2.6-4.5
					c-8.2-4.4-16.3-8.8-24.5-13.2C391.6,703.3,391.1,704.1,390.6,705z M555.9,768.5c6.9-7.6,6.8-14.8,0.5-22.6
					c-7.9-9.8-15.7-19.7-23.5-29.6c2.6,7.8,5.6,15.7,10.5,22.1c9.2,12.2,10.4,24.3,3.1,37.5c-1.4,2.5-2.6,5.1-4,7.6
					c0.5,0.3,1,0.6,1.5,0.9C547.9,779,551.5,773.4,555.9,768.5z M595.4,620.6c20.7,1.1,41.4,2.3,62.2,3.4c0.6-1.9,1.1-3.8,1.7-5.8
					c-13.6-7.7-27-15.5-40.8-22.9c-6.2-3.3-13.2-5-19.3-8.2c-14.4-7.6-29.3-9.3-44.8-4.8c-2.8,0.8-5,3.4-8.7,6
					c12.8-2.9,23.4-5.2,34-7.6c0.4,1.9,0.8,3.9,1.2,5.8c-3.6,0.6-7.8,2.6-10.8,1.5c-6.1-2.2-10,0.2-10.6,5.1c-0.3,2.1,5,5.4,8.2,7.5
					c2.1,1.3,5.4,0.7,7.4,2.1c7,5,12,1.7,16.5-3.5c2.1-2.5,3.7-5.5,6.7-10c7.9,7.1,15.2,13.7,22.5,20.3c-0.5,1-1,1.9-1.5,2.9
					c-8.7,0-17.5,0-26.2,0c0,0.5-0.1,1.1-0.1,1.6c3.9,1.1,7.8,2.1,13.9,3.8c-5.4,0.8-8.4,1.2-11.3,1.7
					C595.5,619.8,595.5,620.2,595.4,620.6z M702.9,713.2c0-0.2-0.1-0.3-0.1-0.5c0,0.1-0.1,0.1-0.2,0.2L702.9,713.2z M405.1,693.3
					c-7-4-10.2-14.5-15.3-22c-1.6-2.3-3.8-4.2-5.8-6.3c-1,0.8-2,1.5-3,2.3c5.1,8.8,9.3,18.3,15.5,26.3c3.7,4.7,10.4,9.6,16,10
					c17.4,1.1,34.9,0.3,52.4-0.2c8-0.2,16.3-0.7,24-2.5c5.5-1.3,12.1-4.7,10.2-12.1c-2.2-8.6-6.1-16.8-9.3-25.2
					c-0.8,0.3-1.5,0.6-2.3,0.9c1.3,6.6,2.3,13.2,4.1,19.7c3.3,12.1-0.6,17.4-12.6,13.9c-14.9-4.3-28.8-2.3-43.7,0.7
					C425.9,700.7,413.7,698.2,405.1,693.3z M334.4,682.3c3.4-10.1,6.8-20,10.1-30C328.9,655.2,326.7,661.4,334.4,682.3z
					 M414.6,786.8c-20-5.2-34.2-19.3-48.5-33.1c-0.6,0.7-1.3,1.4-1.9,2c7.3,7.9,14.7,15.8,23,24.7c-5.4,4.7-0.7,7.1,3.3,10.4
					c15.4,12.6,33.7,17.3,52.8,19.7c7.3,0.9,14.8,1.1,22.2,1.6c0.1-0.9,0.2-1.7,0.2-2.6c-2.4-1.6-4.8-3.2-7-4.7
					c4.5-0.5,9-0.9,13.6-1.4C452.8,796.9,433.7,791.8,414.6,786.8z M508.5,777.7c3.2-1.9,7.9-1.1,11.7-2.3c7.6-2.3,15-5.2,22.5-7.8
					c-0.2-1.4-0.5-2.7-0.7-4.1c-5.3-1.3-11-1.8-15.8-4.1C505,749.2,484.1,738.3,463,728c-3.9-1.9-8.6-2.4-15.1-4
					c17.4,10.1,32.4,18.8,47.5,27.5c-0.2,0.4-0.5,0.7-0.7,1.1c-4.6-0.7-9.3-1.2-13.9-2.2c-19.7-4-39.7-7.2-59-12.7
					c-9-2.6-16.6-9.9-25-15c-14.2-8.6-27.3-18-35.4-33.4c-3.2-6.1-9.9-10.5-14.9-15.6c-0.9,0.8-1.9,1.6-2.8,2.4
					c12.5,24.2,25,48.4,37.5,72.5c1-0.5,1.9-1,2.9-1.5c-3.1-5.4-7-10.6-9.1-16.4c-1.9-5.2-1.9-11-2.7-16.6c4.2,0.1,5.3,0.7,6.3,1.6
					c23.6,19.9,49.3,34.1,81.5,35.9c18.7,1,37.2,7.3,56.5,11.3c-19.3,13.3-37.8,23.8-61,19.2C474,787.4,491.7,788.1,508.5,777.7z"/>
			</g>
		</g>
	</g>
</g>
</svg>
