<?xml version="1.0" encoding="utf-8"?>
<!-- Generator: Adobe Illustrator 25.4.1, SVG Export Plug-In . SVG Version: 6.00 Build 0)  -->
<svg version="1.1" id="Laag_1" xmlns="http://www.w3.org/2000/svg" xmlns:xlink="http://www.w3.org/1999/xlink" x="0px" y="0px"
	 viewBox="0 0 1050 1050" style="enable-background:new 0 0 1050 1050;" xml:space="preserve">
<style type="text/css">
	.st0{clip-path:url(#SVGID_00000174564744027289151820000011896258633670821541_);}
	.st1{fill:#00F0A6;}
	.st2{clip-path:url(#SVGID_00000114042603675119872450000016043971803313657270_);}
	.st3{fill:#D1CDC8;}
	.st4{clip-path:url(#SVGID_00000098212948830940203790000013658271643209038498_);}
	.st5{fill:#FFFFFF;}
	.st6{clip-path:url(#SVGID_00000113331064024888645350000003678436464662350466_);}
	.st7{fill:url(#SVGID_00000086693273932801104340000018078085906232280227_);}
	.st8{clip-path:url(#SVGID_00000132786770503169298120000013490539288870254208_);}
	.st9{clip-path:url(#SVGID_00000057111210483148556240000018139747745145039237_);}
	.st10{fill:#FF85FF;}
	.st11{clip-path:url(#SVGID_00000016058144334725980320000006462115085864119696_);}
</style>
<g>
	<g>
		<defs>
			<circle id="SVGID_1_" cx="525" cy="525" r="525"/>
		</defs>
		<clipPath id="SVGID_00000084517371928124967840000006061725030826405033_">
			<use xlink:href="#SVGID_1_"  style="overflow:visible;"/>
		</clipPath>
		<g id="Back" style="clip-path:url(#SVGID_00000084517371928124967840000006061725030826405033_);">
			<rect class="st1" width="1050" height="1050"/>
		</g>
	</g>
	<g>
		<defs>
			<circle id="SVGID_00000083778909871113831190000012956623500675660475_" cx="525" cy="525" r="525"/>
		</defs>
		<clipPath id="SVGID_00000103946108883326126780000012132529489146911654_">
			<use xlink:href="#SVGID_00000083778909871113831190000012956623500675660475_"  style="overflow:visible;"/>
		</clipPath>
		<g id="Lijnen" style="clip-path:url(#SVGID_00000103946108883326126780000012132529489146911654_);">
			<path class="st3" d="M279.6,871.4l-84.2,102.3c0,0,54.5,95.6,57.4,97.6l48.8-4.8L272,969.9l46.9-93.7L279.6,871.4z"/>
			<polygon class="st3" points="399.1,1068.4 443.1,1071.3 462.2,1018.7 429.7,1011 			"/>
			<path class="st3" d="M847.7,910.6l-27.7-1l2.9,97.5c0,0-63.1,69.8-67,70.8l70.8-12.4l32.5-85.1L847.7,910.6z"/>
			<path class="st3" d="M933.7,990c0,0-76.5,70.8-77.5,73.6l30.6,8.6l70.8-64.1L933.7,990z"/>
		</g>
	</g>
	<g>
		<defs>
			<circle id="SVGID_00000081645153162338164750000016847813137023314074_" cx="525" cy="525" r="525"/>
		</defs>
		<clipPath id="SVGID_00000078011089372264575600000014835861835764437425_">
			<use xlink:href="#SVGID_00000081645153162338164750000016847813137023314074_"  style="overflow:visible;"/>
		</clipPath>
		<g id="Hand" style="clip-path:url(#SVGID_00000078011089372264575600000014835861835764437425_);">
			<polygon class="st3" points="58.9,851.4 78.1,838.4 91.4,825.2 93.8,804.8 109.6,710.2 128.1,656.7 140,635.1 155.2,633 
				179.6,619.3 209.4,598.4 248.6,565.5 294.2,548.9 309.1,541.8 343.6,535.5 400.9,535 400.4,544.1 390.1,562.2 374.3,572.5 
				351,578.4 323.2,609.2 330.2,632.9 316.7,653.8 333.7,676.2 362.1,656.9 387.8,647.8 407.9,648.3 419.9,657.5 419.2,666.8 
				409.3,675.9 368,714.6 354.1,731.4 337.8,735.7 325.1,734.9 316,729.2 306.4,723.2 308.6,736.2 316.5,768 319.1,787.8 310.2,798 
				254.6,868.8 151.6,953.8 89.2,956 55.8,947.4 60.8,936.3 57.5,899.8 			"/>
			<path class="st5" d="M-31.7,889.3L13.6,867c0,0,49.8-19.4,49.4-18.2s-5.7,9.7-5.7,9.7l3.8,70.6l-1.4,9.6L56,948l17.4,4l30.8,3.6
				l48.2-2.8L78,1061l-145,0.4L-31.7,889.3z"/>
		</g>
	</g>
	<g>
		<defs>
			<circle id="SVGID_00000105428508240312193630000004383338843607524487_" cx="525" cy="525" r="525"/>
		</defs>
		<clipPath id="SVGID_00000156556029481513042220000018234863902431875222_">
			<use xlink:href="#SVGID_00000105428508240312193630000004383338843607524487_"  style="overflow:visible;"/>
		</clipPath>
		<g id="Outline" style="clip-path:url(#SVGID_00000156556029481513042220000018234863902431875222_);">
			
				<linearGradient id="SVGID_00000169558542666761100910000014940754139850232249_" gradientUnits="userSpaceOnUse" x1="518.1945" y1="3600.2" x2="518.1945" y2="2710.8491" gradientTransform="matrix(1 0 0 1 0 -2548)">
				<stop  offset="0" style="stop-color:#FF66FF"/>
				<stop  offset="1" style="stop-color:#140F3F"/>
			</linearGradient>
			<path style="fill:url(#SVGID_00000169558542666761100910000014940754139850232249_);" d="M1052.4,1032.2
				c-20.1-11.3-39.4-24.2-62.8-28.6c-7.3-1.4-14.8-5.6-20.7-10.3c-13-10.3-25.3-21.6-37.6-32.8c-19.1-17.5-39.1-33.7-62.7-44.9
				c-4.4-2.2-8.4-5.3-11.8-8.9c-14-14.5-27.8-29.2-41.3-44.2c-6.8-7.7-13.1-15.9-18.8-24.5c-2.4-3.6-3.3-8.5-3.9-13
				c-1-8.7-2.5-17-8.6-24c-11.2-13-23.4-24.2-41.2-26.8c-3.6-0.5-4.9-2.5-4.2-5.8c1.5-7.3,2.3-14.9,4.9-21.7
				c6.9-17.9,13.4-35.8,14.7-55.2c0.5-7.9,1.8-15.7,2.8-23.9c3.6,1.2,6.4,2.1,9.2,2.9c5.2,1.3,10.7-0.6,14-4.7
				c7.5-9.1,9-20.3,10.4-31.2c1.7-13.3,2.9-26.7,6.7-39.8c5.2-17.7,10-35.5,7.6-54.5c-1.7-13.9-4.9-27.1-11.2-39.6
				c-3.4-6.7-7.8-8.4-14.2-4.7c-3.5,2.2-6.6,4.9-9.3,8c-2.5,2.6-4.5,5.8-7.4,9.6c0-3-0.1-4.7,0-6.3c3.5-35.8,7.5-71.6,10.4-107.4
				c1-12.6,2-26.2-1.5-38.1c-12.2-42.5-23.8-85.3-41.6-125.9c-0.7-2-1.9-3.9-3.3-5.4c-11.4-10.8-23.9-19.4-39.2-24.7
				c-34-11.8-69.8-16.6-103.2-30.4c-32.1-13.2-66-15.3-100.2-9.5c-13.2,2.2-26.1,6.3-39,10.2c-6.3,2-12.4,4.6-18.2,7.8
				c-18.6,9.9-35.3,22.6-51.4,36.2c-8.6,7.3-17.6,14.3-26.4,21.4c-1.3,1.1-2.6,2-4,2.9c-17.8,9.8-35.7,19.3-53.3,29.4
				c-4.4,2.5-7.9,6.5-11.3,10.3c-8.9,9.8-8.5,22.5-10.4,34.5c-0.9,5.7-0.8,11.6-1.9,17.3c-3.7,18.5-3.4,36.7,3.6,54.4
				c7.7,19.7,14.2,39.7,16.7,60.9c2.1,17.8,5.8,35.4,12.6,52.2c4,9.9,7.2,20,10.7,30.1c0.6,1.7,1,3.4,1.6,5.4l-10.5,3.9
				c30.8-5.2,62.1-7.1,93.3-5.6c-4.3,15.2-11.1,27.4-26.4,31.9c-7.7,2.3-16,2.8-24,4.1c-5.4,0.9-10.7,1.8-16.1,2.6l0,0
				c-8.2,0-16.5,0-25.4,0l8.7,3.5c-13.1,6-24.8,13.9-39.9,11.9l0.4,1.6l10.2,2.5l-18.2,15.6c-4.5,3.9-9,7.9-13.7,11.6
				c-1.8,1.5-4.1,2.5-6.4,2.9c-14.2,1.1-28.3,2-42.4,3.1c-3.3,0.2-6.6,0.9-11.1,1.5c1.6,0.7,1.9,1,2.2,1c25.8-0.7,51.6-1.5,77.4-1.8
				c3.6,0,8.7,1.5,10.5,4.1c2.3,3.3,2.2,8.4,2.8,12.8s0.9,8.8,1.3,13.2l1.5-0.1c-0.5-6.2-1-12.5-1.4-18.8c-0.1-1.2,0-3.2,0.6-3.4
				c1.3-0.5,2.8-0.4,4,0.2c3.2,1.8,6.1,4,8.8,6.5c12.6,12.8,23.5,27.1,33.4,42.2c7.1,10.8,15.8,20.4,23.7,30.7
				c0.7,0.9,1.4,2.6,1,3.3c-3.4,6.5-7.3,12.3-15.2,14.1c-19.3,4.4-33.1-1.6-42.8-18.6c-1.2-2.2-2-4.7-3.7-6.5
				c-3.8-4.3-8.3-7.9-11.8-12.3c-8.8-11.3-16.3-23.6-27.6-32.7c-3.4-3-7.8-4.6-12.3-4.6c-6.8,0.1-13.6-0.4-20.5-0.4
				c-13.3-0.1-26.6,0-39.8,0c0,0.6,0,1.2,0,1.7c2.4,0,4.9-0.1,7.4,0c16.4,0.9,32.9,1.6,49.3,3c3.9,0.3,7.9,2.5,11.1,4.9
				c5.5,4.1,10.6,8.6,15.2,13.6c4.2,4.6,9.4,8,11.8,14.8c2.2,6.3,8.8,10.4,12.9,16.1c5,6.9,8.6,14.7,10.7,22.9
				c3.2,12.1,6,24.2,8.8,36.4c0.9,3.7,1.4,7.5,1.3,11.4c-0.4,7.9-6.4,12.7-14,10.7c-4-1.1-7.7-3.2-10.7-6
				c-8.7-8.1-15.9-17.4-19.8-29c-1.2-3.8-3.3-7.2-5.2-11.3l-1.7,2.6c-20-10.4-23.5-30.6-30.2-49.2c0.6,6.3,1.1,12.7,1.7,18.6
				c-4.9,0.8-9.6,0.5-13.5,2.3c-10.2,4.7-20.6,4.5-31.3,3.2c-6.3-0.8-12.7-1.4-19-2.1c1.5,1.1,3.2,1.8,5.1,2.2
				c7.9,1.9,15.9,3.7,23.8,5.9c1.5,0.6,2.7,1.8,3.1,3.3c2.7,16.8,5.3,33.5,7.8,50.3c2.1,14.7,4.2,29.3,6,44.1c0.4,3.3,0.7,8-1.1,9.9
				c-7.7,8-16.2,15.2-24.4,22.7l0.7-2.3l-0.5-0.2l-18.9,27.3c3.5-2.1,6.7-4.6,9.5-7.6c4.5-4.7,8.7-9.6,13.3-14.2
				c6.7-6.9,13.6-13.7,20.6-20.3c2.8-2.4,4.2-6.1,3.7-9.8c-1.6-15.6-3.3-31.1-4.6-46.7c-0.3-2.9,0.1-5.9,1.4-8.6
				c7.7-14.1,15.7-28,23.7-42c0.8,0.4,1.9,0.6,2.3,1.2c4.3,7,10.9,12.3,18.6,15.1c2.4,1.1,4.2,3.1,5.1,5.5c4.3,12.6,12,22.9,21.4,32
				c4.9,4.7,10.6,7.9,17.9,7.5c0.9,0,1.8,0.9,2.7,1.4c4.6-4.6,9.8-8.9,10.2-16c0.3-3.6,0.1-7.2-0.6-10.8
				c-2.8-12.2-5.9-24.2-8.9-36.3c-0.4-1.7-0.7-3.4-1.2-6c4.2,1.8,7.6,3.5,11.2,4.7c11.5,4.3,24.3,3.4,35-2.5c2.3-1.2,3.8-4,5.3-6.3
				c1.7-2.4,3-5.1,5.1-8.7c1,3,1.6,4.9,2.1,6.7c7.1,23.2,12.5,47,25.2,68.1c2.9,4.6,6.1,9,9.5,13.3c1.4,1.8,4.4,3.4,4.5,5.2
				c0.4,8.2,0.2,16.5-0.2,24.8c0,0.8-2.2,1.7-3.5,2.3c-6.1,2.7-12.5,4.9-18.2,8.1c-10.1,5.7-21.1,7.7-32.4,8.8
				c-13.7,1.5-27.4,3.4-41.1,4.8c-1.6,0.2-3.4-1.4-5.1-2c-1.6-0.7-3.2-1.3-4.9-1.6c-10.5-1.1-20.5,1.7-30.3,4.8
				c-3.9,1.4-7.9,2.2-12,2.5c1.2-1.2,2.3-2.5,3.5-3.6c17.9-15.3,32-33.8,43.5-54.3c0.9-1.6,1.6-3.3,2.4-4.9
				c-5.8,7.7-11.5,15.5-17.4,23.1c-15.8,20.6-33.9,38.5-57.4,50.2c-1.3,0.7-2.9,2-4,1.7c-4.7-1-7.3,2.2-10.7,4.2
				c-4.4,2.6-9.1,4.9-13.6,7.2c-1.4,0.8-3,1.3-4.5,2l0.4,0.9l7-1.6c-0.9,1.9-2.3,3-3.5,4.3c-15.4,16.4-31.2,32.4-45.8,49.5
				c-5.4,6.3-10.7,9.2-18.7,10c-25.1,2.3-49.9,0.3-74.7-3.2c-2.3-0.3-4.7,0.7-7.1,1.1c2,1.2,3.9,2.9,6,3.5c24.8,6.8,50,7.4,75.4,5
				c1.9-0.2,3.7-0.3,6.1-0.5L77,1052h202c-1.4-4-2.2-8.5-4.5-11.9c-11.2-16.9-22.9-33.6-34.3-50.4c-4.1-6.1-7.7-12.5-11.9-18.5
				c-3.3-4.7-2.4-8.4,1.2-12.5c15.8-17.8,31.6-35.7,47.1-53.8c7.6-8.8,14.5-18.3,21.7-27.4c0.7-0.9,1.4-1.8,2.1-2.6l1.4,0.5
				c-0.8,2.2-1.1,4.7-2.5,6.6c-8.3,11.5-16.3,23.1-25.3,34c-13.2,15.9-27,31.3-40.7,46.7c-2.4,2.7-2.5,4.8-0.7,7.5
				c11.7,17.6,23.3,35.3,35,52.8c3.7,5.5,8.3,10.5,11.6,16.2c2.3,3.8,3.2,8.5,4.7,12.8h101c-2.4-7-7.8-11.4-13.3-15.9
				c-24.8-19.9-52.1-35.9-79.7-51.5c-1.9-1-3.6-2.2-6.1-3.6c25.9-17.7,49.5-37,70.3-59.7s39.5-46.3,52.1-75v88h1.3
				c1.1-12.7,2.3-25.4,3.2-38.2c0.9-13,2-25.9,1.8-38.9s-2-25.8-3-39c7.3,6.3,14.6,12.5,21.8,18.9c1.2,1.1,1.9,3.1,2.4,4.8
				c2.6,8.5,4.7,17,7.5,25.4c15.1,44.7,34.8,87.2,62.3,125.8c2.8,3.9,5.9,7.5,9.4,12c-1.5,0.5-2.9,0.9-4.5,1.2
				c-8.5,0.9-16.9,1.8-25.4,2.6c-14.4,1.2-27.4,6.2-38.5,15.2c-10.6,8.7-20.4,18.5-30.6,27.9h10l23.1-21.6l0.7,0.8L440,1052h120
				c-1.6-2.1-3.1-4.3-4.9-6.2c-11.4-12.3-20.6-26.1-28.9-40.6c-2.1-3.6-1.7-5.8,1.4-8.5c28.5-24.8,56.8-49.9,85.6-74.4
				c26.5-22.6,53.9-44.1,80.1-67c22.1-19.4,39.8-42.6,51.4-69.9c0.4-0.7,0.8-1.4,1.2-2c10.2,2.9,18.4,9,26.8,15
				c10.3,7.4,14.7,17.5,14.1,29.8c-1.2,22.1-2.2,44.3-10.3,65.4c-10.8,28.2-26.4,53.8-45,77.5c-20.2,25.9-41,51.2-61.5,76.9
				c-1,1.3-1.9,2.7-2.8,4.1h134c9.2-9.1,18.3-18.3,27.8-27.1c3.3-3.1,5-6.1,5-10.7c0.2-29.8,0.6-59.6,1-89.4c0-2.5,0.4-5.1,0.7-7.6
				l1.7-0.1c0.5,2.7,0.8,5.5,1,8.3c0.5,18.6,0.7,37.3,1.2,55.9c0.3,12.3,0.9,24.6,1.5,36.9c0.2,4.7-2.2,7.8-5.4,10.7
				c-8.5,7.7-17,15.5-25.4,23.2h68c10.7-9.5,21.3-19,31.9-28.5c7.4-6.6,14.8-13.3,22.4-19.8c2.6-2.2,5.5-4.2,9.8-2.3
				c-16.2,14-32,27.8-47.9,41.5c-3.6,3.1-7.4,6.1-11.2,9.1h168c1.3-2.3,2.7-4.6,4.1-6.9C1057.6,1041.1,1056.4,1034.4,1052.4,1032.2z
				 M211.6,748.5c-0.1-1.1,0.9-2.4,1.4-3.6c-1-0.5-2.6-0.8-2.8-1.5c-1.2-3.6-2-7.2-3.2-11.8l6.7,1.4l4.9-3.2l1,0.9
				c-2,4.6-4.1,9.1-6.1,13.7c2.7-4.2,5.7-8.2,7.9-12.6s5.8-5.9,11.1-6.3c-6.1,9.9-11.8,19.3-17.6,28.6l1.2,0.8
				c5.6-8.6,11.2-17.3,17-25.8c1-1.5,2.9-2.3,4.4-3.4c-0.3,2,0,4.4-1,6c-5.2,8.3-11,16.2-16.2,24.5c-1.9,3.1-2.9,6.8-4.3,10.3
				l-1.8,0.3C213.4,760.8,212.4,754.7,211.6,748.5z M238.1,740.5c-6.9,11.9-13.6,23.9-20.4,35.8c-0.3,0.6-0.7,1.1-1,1.6l-1.5-0.2
				c0.4-3.7,0.7-7.4,1.1-11.1l0,0l23.9-36.3c0.7,3,1.2,4.8,1.6,6.6C240.4,738,238.9,739,238.1,740.5L238.1,740.5z M755.3,524.8
				c1.4,2.9,2.8,5.8,3.8,7.9c1.4-1.7,2.9-3.5,4.4-5.4c3.8-4.7,7.4-9.5,11.3-14c3.7-4.3,7.6-8.4,11.6-12.4c2.8-2.8,5.8-2.4,8.1,0.7
				c2.1,2.6,3.9,5.4,5.2,8.4c8.5,20.3,10.3,41,3.7,62.4c-5.9,19.1-10.6,38.5-11.4,58.7c-0.1,6.2-1.1,12.3-3,18.2
				c-1.9,5.3-4.8,10.1-8.5,14.4c-3.7,4.4-12.2,4.8-16.6,1.5c-0.9-0.7-1.3-2.6-1.2-3.8c1.4-10.7,3-21.4,4.5-32l1.6,1
				c1.7-0.9,4-1.3,4.9-2.7c4.6-7.4,8.8-15.1,13.1-22.6l-1.5-0.9l-6.5,8.7l-1-0.4c1.2-8.3,2.1-16.7,3.5-25c2.5-15.3,3.5-13-8.7-20
				c-0.4-0.2-0.8-0.5-1.3-0.8c-9-5.7-9.5-10.9-1.1-17.2c1.3-1,4.4,0.3,7.8,0.7l-6.3-3.7c3.3-5.7,5.9-10,8.5-14.4l1.9-0.2
				c1.7,5,3.7,9.8,5,14.9c2.3,9.2,4.1,18.4,6.9,27.5c0.4-8,0.8-16.1,1.3-25.5c1.1,7.7,2.1,14.1,3.1,20.6c4.1-7.2,1.1-38.1-4.7-48
				l-1.3,2.6c-9.7-3-12.4-2.2-18.3,6.4c-3.3,4.9-6.2,10.1-9.4,15.4c0.1,0-0.2,0.1-0.5,0.1c-8.6-0.6-11.2-4.4-10-14.2
				C754.4,529.2,754.9,527,755.3,524.8L755.3,524.8z M652.1,206.9c-1.5,0-3,0-4.4,0c-1.3,0-2.7,0.2-3.9,0.7c4,0.9,8,1.7,12,2.8
				s8,2.4,10.7,3.3c0.8,1.4,0.9,2.3,1.4,2.4c6.2,2.4,12.6,4.3,18.6,7.2c7.4,3.5,14.4,7.8,21.6,11.8l-0.6,1.1l-11.9-4.4l-0.3,0.7
				l12.8,8.3l-0.7,1.2l-39.7-19.5l0.1-0.5l7.3,1.9c-36.2-17.3-74.2-15.7-112.7-11.7c1.3-0.4,2.7-0.8,4-1.3l4.1-1.3l-0.2-1.4
				l-54.5,6.1C560.7,201.4,606.2,201,652.1,206.9z M726.6,254.1c-0.3,0.6-0.6,1.3-0.9,1.9l-33.6-15.3c0.2-0.4,0.3-0.7,0.5-1.1
				L726.6,254.1z M613.3,234.2l-164.9,61C462.2,282.7,585.8,237,613.3,234.2z M437.1,293.6c41.4-27,86.8-44.8,133.7-59.3
				L437.1,293.6z M648.8,237.6l-164.9,51.6C536.5,265.3,591.9,248,648.8,237.6L648.8,237.6z M638.2,253.7l-19.5,5.5l0.1,0.8
				l20.4-3.1l0.2,0.9l-84.5,16C563.7,268.5,624.1,253.6,638.2,253.7L638.2,253.7z M660,262.4c0,0.5,0.1,0.9,0.1,1.4l-56.9,4.5
				c-0.1-0.4-0.2-0.9-0.3-1.3L660,262.4z M589.1,195.8l-100.3,13.6C519.5,201.7,553.8,196.3,589.1,195.8z M495.1,254.2l-17.7,9
				c0.1,0.3,0.2,0.6,0.4,0.9l42-17.6c-12.1,9.4-82.8,41-102.6,45.7l26.2-12.4l-0.1-0.4l-54.4,18.2
				C396.5,291,479.6,257.5,495.1,254.2L495.1,254.2z M456.1,252.1c-21.9,14.6-45,26.3-70.4,33l-0.8-1.7L456.1,252.1z M302.5,306.5
				c8.6-11.2,15.7-23,26.7-31.6c-7.7,4.5-15.5,8.9-23.2,13.4c-1.4,0.8-2.7,1.7-4.7,3c8.8-11.8,35.4-25.4,45.3-23.6l-11.2,5.1
				l6.7-0.9L302.5,306.5z M310.4,313.3c7-15.4,17.4-27.6,32.7-35.3c1.4-0.7,3.4-0.2,5.1-0.3c-0.6,1.6-1,3.3-1.9,4.6
				c-9.1,12.3-18.2,24.6-28,37.7c5.5-17.9,16.7-30.4,29.4-41.8C332,286.6,323.1,301.9,310.4,313.3z M330.8,316.9
				c2.6-8.1,7.7-15.3,14.5-20.5l-13.4,21.1L330.8,316.9z M396.5,531.9c-18.9,0.6-37.9,1.6-56.8,2.5c-2.1,0.1-4.3,0.5-7.4,0.9
				c0.8-33.8,5-66.1,23.4-95.1c2.1,0.4,3.5,0.4,4.6,0.9c7,3.1,13.8-3.2,14.6-10.6c1-10.3,1.8-20.6,3.2-30.8
				c0.6-3.8,1.8-7.4,3.4-10.8c4.1-8.9,7.9-18.1,13.2-26.3c4.6-7.2,10.9-13.3,16.6-19.7c0.8-0.6,1.8-0.9,2.7-0.8
				c9.7,0.3,19.3,0.6,29,1c0.4,0,0.8,0.4,2,1l-11.6,4.2c12.9-3.9,25.8-5.3,39.9-1l-12,6l0.4,1.3c2.8-0.5,5.8-0.6,8.5-1.6
				c10.5-4,21-3,31.9-1.7c15.3,1.8,30.8,2.1,46.3,2.6c15.1,0.5,30.3,1,45.4,0.6c16.5-0.4,32.9-1.8,49.3-2.7c5.4-0.3,10.8-0.8,16,2.4
				c3,1.8,7,2.4,10.5,2.6c4.4,0.2,5.7,1.9,5.9,6c0.3,6.5,1.2,12.9,1.9,19.4s5.7,9.4,11.8,7.3c4.3-1.5,8.7-2.9,13-4.6
				c2.9-1.1,4.7-0.5,6.3,2.1c9.4,15,18.5,30.2,21.7,47.9c1.5,8,4.2,15.5,9.7,21.6c9.4,10.5,9.3,23.8,11.1,36.6
				c1.5,10.5,3,21,4.5,31.5l0,0l0,0c-9.9-4.9-19.8-9.8-29.8-14.8c-22.8-11.2-46.5-11.4-70.7-5.6c-6.9,1.8-14,3.3-21.1,4.2
				c3.7-3,7.2-6.3,11-9.1c14-10.1,30.1-16.3,45.7-23.5c2.1-1,4.1-2,6.2-3l-0.6-1.8l-39.7,13.7l16.3-12.6l-0.2-0.4l-41.2,18.5l6-5.4
				c-1.3-0.9-1.6-1.2-1.7-1.2c-9.8,6.4-19.9,12.2-29.1,19.3c-6.1,4.7-10.9,11.1-15.9,17c-1.2,1.8-1.8,3.9-1.7,6.1
				c0.3,7.2-5.4,12.1-12.3,10.9c-3.7-0.6-7.6-0.1-11.2-0.1c-1.4-12.5-2.8-25.1-4.2-37.7h-0.7c-0.7,12.7-1.3,25.4-2.1,38.1
				c-0.1,1.3-1.3,2.8-2.4,3.6c-2.8,2.2-5.8,4-9,6.2l26.8-5.5c0.3-0.1,0.7-0.1,1-0.1c2.8,0.3,5.8,1.3,8.3,0.6c2.7-0.8,4.8-3.3,7-5
				c-0.9,4.4-1.7,8.6-2.6,13.4c-12.1-4.7-25.4-4.2-38.2,2.1c0.1,0.4,0.1,0.9,0.2,1.3l5.4-2.1c0.1,0.2,0.3,0.4,0.4,0.7l-8.8,6.1
				c-4-6.8-7.8-13.3-11.6-20c4.5-4.6,4.5-6.1-2.3-8.3c-21.8-7.2-42.9-16.6-66-19.2c-19.7-2.2-39.4-4.4-59-6.4c-2.8-0.3-5.6,0-8.8,0
				c0.6,1.2,0.9,1.8,1.2,2.4l-5.1,1.3l-0.1,1.6l9.4,2.3v0.4h-20l-0.3,1l3.2,1.8l-9.2,2.1c23.1,1.8,46.7,0,65.1,17.5l-41,10.2
				c0.4-1.9,0.6-3.6,1-5.2C403.7,534.8,401.9,531.8,396.5,531.9L396.5,531.9z M395,645.9c-17.1,0.8-32.9,5.5-46.9,17.2
				c-1.7-6.9-3.6-13-4.6-19.2c-2.2-12.9-3.8-25.9-5.9-38.9c-0.5-3.1,0.1-4,3.4-5c7.3-2.2,14.2-5.5,21.5-8c4.5-1.6,9.1-2.6,13.3-3.7
				C382.2,607.7,388.5,626.4,395,645.9L395,645.9z M375.1,573.5c1.5,4.5,0.6,6.4-4.3,6.3c-3.2-0.1-6.5,1.2-10.1,1.9
				c-0.4-1.8-0.8-3.4-1.1-5.2L375.1,573.5z M354.2,580.5c1.5,3.7-2.9,7.1-13.3,9.9L354.2,580.5z M289.8,630.8
				c-7.2-10-17.7-8.3-28.7-6.7c21.7-21,42.7-41.5,73.8-44.7c-0.5-1.6-0.9-2.8-1.2-4l13.1,2.7C331.8,599.4,311.2,614.9,289.8,630.8z
				 M317.8,652.8c4.1-5.2,8.3-10.2,12.1-15.4c1.1-1.5,2.3-3.8,2-5.3c-1.6-7-3.7-14-5.6-20.9l-2.2,0.3c0.3,3.4,0.2,6.8,0.8,10.1
				c2.1,11.5-0.1,19.2-8.9,28.8L297.6,633c-0.1,1.5-0.2,2.2-0.2,3l-1.1,0.1c-0.2-1.2-0.1-2.4,0.1-3.6c0.4-0.9,1.2-1.6,2.1-2
				c13.7-6.6,23.8-17.3,32.6-29.3c0.9-1.2,1.3-2.7,2.7-3.4c-2.6,12.1,2.4,22.7,3.8,33.6c1.3,10,3.4,20,5.6,29.9
				c0.9,4,0.2,6.6-3.6,8.4c-1.8,1-3.5,2.1-5.1,3.3L317.8,652.8z M364.8,714c-0.2,0.2-0.5,0.3-1.6,0.9l-26.9-37.2
				c8.9-5.8,16.7-10.8,24.4-15.9c12.9-8.5,26.6-14.3,42.6-11.7c2.1,0.3,4.5,0.4,6.3,1.4c2.8,1.7,7.2,4,7.3,6.2
				c0.2,4.6,0.5,9.9-4.7,13.3C394.1,682.8,377.2,696,364.8,714L364.8,714z M544.1,974.5c-6.5,6.7-13.2,13.2-19.7,19.9
				c-3.8,4-4.9,4.1-8.6-0.3c-23.1-27.7-41.6-58.8-55-92.3c-4.9-12.1-9-24.6-13.5-36.9l1.5-0.8c2.3,4.2,4.8,8.3,7,12.5
				c11.7,22.6,28.8,40.2,49.9,54.1c5.6,3.7,10.9,7.6,16.5,11.3c10.5,7.1,17.3,17.4,23.4,28.1C546.2,971.1,545.1,973.5,544.1,974.5z
				 M690.5,820.6l-1.4-0.6c1.5-3.2,3-6.5,4.5-9.7l-0.9-0.5c-5.3,8.6-11.3,16.8-15.8,25.8c-7.7,15.5-18.8,26-35.8,31.2
				c-15.4,4.7-30.1,11.6-45.1,17.8c21.8-5.6,42.7-14,62.9-24l0.6,1.1l-26.4,15.1l0.6,1.3l19.1-8.1c-4.4,7.3-7.3,13.9-16.8,15.2
				c-13.1,1.7-26,5.1-39,7.8l0.2,1.4l38.2-5.5l0.5,0.9c-3.6,1.9-7.1,4.5-10.9,5.5c-9.5,2.3-19.2,4.5-28.9,5.4
				c-25.7,2.3-51.2,0.9-74.6-11.3c-12.4-6.4-24.2-14.1-35-23c-6.4-5.3-10.2-13.9-14.5-21.3c-4.5-7.6-8.1-15.6-12.2-23.5l-1.1,0.5
				l14.3,36c-0.8-0.3-1.5-0.7-2.2-1.2c-12.2-8.7-24.2-17.7-36.5-26c-21.8-14.8-36.4-34.9-44.7-59.6c-6-17.8-11.3-35.9-17-53.8
				c-1.1-3.4-0.7-6.3,2-8.5c12.4-10.3,24.6-20.8,37.3-30.8c7.4-5.8,8.9-7.3,10.1-16.3c7.3-0.6,14.7-1.5,22.1-1.6
				c21.3-0.4,42.1-4,62.6-9.2c15.9-4,26-15.2,31.4-30.4c5.6-15.8,9.3-31.9,9.1-48.8c-0.1-5.8,1-6.8,8.1-8.1c0.7,6,1.4,12,2.2,18.1
				h0.3c0-5.6,0.3-11.2-0.1-16.8c-0.2-2.7,0.4-3.9,2.7-5c7.9-3.8,17.2-3.9,25.2-0.2c1.2,0.5,2.8,1.8,3,2.9c1.3,6,2.3,12.1,3.1,18.2
				c2.3,16.6,4.6,33.2,6.8,49.8l1.7-0.2c-1-11.4-2-22.8-3-34.8c3.7,4.7,6.8,9.2,10.5,13.2c14.7,15.6,32.8,23.8,54.4,22.9
				c25.8-1.1,50.7-7.3,75.1-15.6c9.1-3.1,14.9-8.7,16.1-18.3c1.6-12.9,3-25.8,4.6-38.6c0.2-1.2,1.1-2.4,1.7-3.6c0.8,1,2.3,2,2.4,3.1
				c1.4,29.1,7.2,58.5-4.1,87c-5.6,14.3-11.3,28.5-17,42.7c-0.7,1.2-0.8,2.6-0.5,4l17.8-34.3C757.4,720.7,728.9,772.8,690.5,820.6z
				 M62.9,935.6c0.4-2-1.7-4.2-1.8-6.4c-0.5-20,0.2-40-1.4-59.9c-0.8-10.1,3-16,10.1-21.3c2.4-1.8,5.5-2.8,8.3-4.2l-1.1-0.5
				c0.3-1.1,0.3-2.5,1-3.2c3.5-3.6,7.2-6.9,10.7-10.5c1.5-1.5,2.4-3.5,3.8-5.7c-5.8,5-11.3,9.3-16.5,14c-5.4,4.9-11.7,7.9-18.5,10.4
				c-16.1,5.8-32,12.2-47.8,18.7c-10.1,4.2-19.9,9.3-29.8,14v6c24.3-13.8,49.3-26.2,76.4-34.2l-3.5,5.8c1.9,2.4,3.1,4.8,3.1,7.3
				c0.6,19.3-0.5,38.7,1.8,57.8c1.5,12.9-1.7,21.9-10.9,29.8c-3.3,2.8-6.1,6.2-9.6,8.7c-19,13.4-38.2,26.6-57.3,39.8v6
				c8.3-4.7,16.6-9.2,24.8-14.1c21.1-12.5,40.1-27.4,54.4-47.7C61.2,943.2,62.3,939.2,62.9,935.6L62.9,935.6z M94,806.1
				c5.6-29.1,11-58.3,17-87.3c3.6-17.4,11.5-32.6,25.9-43.7c1.3-1,2.6-2,3.9-3l-1.2-1.2l-21.5,16.6c6.3-14.9,12.8-29.8,19-44.9
				c1.6-4,4.2-6.1,8.4-6.7c7.2-1,14.4-2.2,21.6-3.3c0-0.4-0.1-0.8-0.1-1.1c-8,0.4-16,0.9-24,1.2c-4.4,0.2-6.5,2.7-8.5,6.4
				c-7.6,14.4-12.8,29.6-17.6,45c-2.2,7.1-6.4,13.7-7.8,20.9c-4.5,24.5-8.2,49.2-12.1,73.8c-1.5,9.7-2.8,19.3-4.2,29
				C93.6,807.4,93.9,806.8,94,806.1z M159.6,630.9c17.2-6.5,34.2-13.3,47-27.3c21.4-23.3,46-41.8,77.1-50.1c1.1-0.3,2.2-0.8,3.3-1.1
				l12.9-4.5c-0.1-0.2-0.1-0.4-0.2-0.6c-4.4,0.6-8.9,0.7-13.1,2c-10.4,3-20.6,6.5-30.8,10c-2.7,0.8-5.2,2.1-7.5,3.8
				c-13,10.9-26.1,21.8-38.5,33.3c-8.5,7.9-17.1,15.2-27.5,20.4c-8.3,4.2-16.2,9-25,14C158.7,630.8,159.2,631,159.6,630.9
				L159.6,630.9z M189,857.4l-29.7,35.5C172.2,883.8,182.6,872.3,189,857.4L189,857.4z M175.2,862.8l-28.6,22.3
				C159.1,881.5,167.5,872.6,175.2,862.8L175.2,862.8z M228.6,775c-3.2,9.3-6.3,18.5-9.5,27.8l1.8,0.5l9.2-27.8L228.6,775z
				 M130.9,881.6c6.4,0.4,17-4,22.2-9.7L130.9,881.6z M111.8,885.7l18.1-6.8c-0.1-0.5-0.3-1-0.5-1.5l-18,7.2L111.8,885.7z
				 M715.6,936.5l37.9-44.5c-0.3-0.3-0.6-0.7-1-1l-38.1,44.5L715.6,936.5z M763.1,829.5l-23.3,38.3l1.2,0.7l23.6-38.1L763.1,829.5z
				 M603,767.6h-0.4l0,0l-0.2,0.1h0.3L603,767.6z M599.5,769.5c0.8,0.1,1.9-1.1,2.9-1.8c-1.5,0.3-3.1,0.3-4.7,0.2
				c-14-2.7-27.9-6.3-42.4-3.5c12-6.8,24-12.7,38.4-9.6c-2.4-1-4.8-1.3-6.9-2.2c-6.2-2.6-12-1.5-17.7,1.6c-12,6.5-24,12.8-35.9,19.6
				c-3.2,1.8-5.8,5-8.3,7.8c-1.1,1.2-1.3,3.3-2.3,6.4c3.4-1.3,5.2-1.8,7-2.7C551.7,774.9,574,765.3,599.5,769.5L599.5,769.5z
				 M625.8,759.4c8.7-4.5,15.7-1.6,22.4,4c1.3,1.1,2.4,2.7,3.8,3.1c1.8,0.6,4.7,1.1,5.8,0.2s1-3.9,0.5-5.7
				c-1.6-6.7-6.8-10.8-11.8-14.9c-9.8-8-17.8-7.6-26.3,0.8c4.5-1.3,10.4-4.9,15.3-3.8s8.9,6.6,13.5,10.5c-6.8,0.5-12.9-0.2-18.2,1.6
				c-9.6,3.4-18.6,8.2-27.9,12.5c1.8-0.1,3.6-0.4,5.3-0.9C614.3,764.6,620.2,762.1,625.8,759.4L625.8,759.4z M652.8,687.9l-1.6,1.7
				c5.3,5,10.6,9.9,15.8,15c3.7,3.7,5.9,8.6,6.2,13.8c0.5,7.5,1.9,14.9,2.8,22.4c1.1-7.8,1.7-15.7,2-23.5c0.1-2.7-0.2-6.3-1.9-7.9
				C668.6,701.9,660.6,695,652.8,687.9L652.8,687.9z M658.2,637.6l-4.8,0.5l35.8,12.6c-7.8-8.5-38.6-20.6-49-19.3l18.1,5.6
				L658.2,637.6z M607.8,685.1c0.9-1.4,0.8-3.8,0.4-5.6c-0.7-2.9-1.6-5.7-2.6-8.5c2,7-0.9,12.2-5.1,17.6c-3.9,5-6.4,11.1-9.5,16.8
				l1.6,1C597.6,699.3,602.9,692.3,607.8,685.1L607.8,685.1z M602.3,698.9l8.9-4.8l-2.1,4.6c4.5-2.8,8-4.6,11-7.1
				c1.1-1,1.1-3.4,1.5-5.1c-1.8-0.3-4.3-1.6-5.3-0.9c-5.2,3.7-10,8-14.9,12L602.3,698.9z M546.9,701.7c7.1-1.3,13.4,0.6,20.3,5.1
				c-0.2-5.5-2.8-7.6-6.3-8.6c-5.1-1.5-10.3-4.4-15.7-1c-0.8,0.7-1.1,1.8-0.9,2.9C544.8,701.1,545.8,701.7,546.9,701.7L546.9,701.7z
				 M402.4,724.1c1.3,9.8,10.8,29.5,17,34.1c-5.6-12.1-10.7-23.3-15.9-34.5L402.4,724.1z M668.1,816l-27.5,33.2
				C653,840.8,661.3,829,668.1,816z M623,692.5l1.4,0.3c1.4-3.2,4.7-7.1,3.9-9.4c-2.5-7-6.7-13.3-10.3-19.9
				C617.2,673.9,629.2,681.2,623,692.5z M530.8,701.6c4.9,2.8,9.8,5.4,14.7,8l0.6-0.8c-4-3.1-7.9-6.4-12.2-9.2
				c-2.6-1.7-3.2-3.3-2.2-6.1c1.2-3.3,2.1-6.8,3.2-10.2c-2.7,3.6-4.2,7.6-6.1,11.5C527.5,697.8,528,700.1,530.8,701.6L530.8,701.6z
				 M635.2,860.9l1.3,1.5l31.5-26.8l-1.3-1.2L635.2,860.9z M413.2,733.6c4.8,10,8.2,20.7,15.5,29.3l1.5-0.8l-15.6-29.2L413.2,733.6z
				 M401.8,746.9l-10.9-35.4C391.3,724.7,394.2,736.5,401.8,746.9L401.8,746.9z M584.2,890.4l37.5-7.1l-0.3-1.4l-37.5,7.3
				C584,889.7,584.1,890.1,584.2,890.4z M671.2,650.5l22.2,10.3c0.3-0.6,0.5-1.2,0.8-1.8l-22.2-9.9L671.2,650.5z M639.4,792.5
				l-5.6,3.9l13.8-14.6l-0.9-1c-2.5,1.8-5,3.6-7.4,5.5c-7.9,5.9-15.6,12-23.6,17.6c-2.2,1.6-5.4,1.8-8.2,2.6l-0.6-1.6
				c3.7-2.4,7.5-4.8,11.1-7.3c3.8-2.7,7.7-5.3,11.4-8.2c3.4-2.6,6.7-5.4,10-8.2c-31,15.9-63.1,26.2-98,26.4l8.4,0.4v0.6l-13.6,1.1
				l0.1,1.1l48,1.7v1.9h-45c17.3,5.6,42.7,5.6,72.2,0h-21l-0.1-1.5c3.2-0.4,6.6-1.7,9.6-1c5.4,1.3,9.3-1.1,13.5-3.4
				c5.1-2.8,10.1-5.7,15.2-8.5l-6.5,5.7l0.7,0.9l17.4-13.1L639.4,792.5z M386,705.2l3.2,28.1l1.5-0.2c-1-9.4-2.1-18.7-3.1-28.1
				L386,705.2z M431.2,756.9l7.1,17.1l1.7-0.7c-2.4-5.7-4.9-11.4-7.3-17L431.2,756.9z M660.5,818.4l1,0.5l6.7-14l-1.2-0.5
				L660.5,818.4z M579.7,525.6c5.1-21.6,12.9-41.2,30-55.6C591.4,479.1,571.8,514.7,579.7,525.6z M480.3,455.2
				c5.6,2.6,12.6,3,18.9,2.7c9.9-0.4,19.7-2.3,29.6-3.5c-6.2-0.4-12.5,0.2-18.6-0.6c-8.9-0.9-17.6-2.5-26.3-4.8
				c-10.8-3-21.3-7.3-31.9-11c-2.7-0.9-5.5-1.6-8.4-2.5c0.1-1,0.3-2.2,0.6-4.3l-33,2.3l0.2,2.1c2.5-0.4,5-1.3,7.4-1
				c2.6,0.3,5.1,1.8,8.4,3l-17.5,3.5C434.8,437.1,457.7,444.7,480.3,455.2L480.3,455.2z M569.5,435.5l0.6-0.2L569.5,435.5h-0.3
				H569.5L569.5,435.5z M585.5,433.8l-8.5,3.7c17-3.6,33-9.6,47-20c-2,0.2-3.9,0.6-5.7,1.3c-10.6,3.9-21.1,7.9-31.8,11.6
				c-5.4,1.9-10.9,3.3-16.3,4.8l15.2-2L585.5,433.8z M569.3,435.4c-2.2-0.1-4.4-0.3-6.7-0.3c-17.4,0.2-34.8,0.4-52.2,0.6
				c-1.2,0-2.4,0.2-3.5,0.3C527.3,442,549,441.7,569.3,435.4L569.3,435.4z M624.4,452.1l25.5-25.2
				C637.8,433.5,627.8,441.1,624.4,452.1L624.4,452.1z M636.6,412.9l-24.9,18.5C621.7,427.6,630.2,421.7,636.6,412.9L636.6,412.9z
				 M685.7,484.9l13.6-3.8l-0.6-1.9l-13.4,4L685.7,484.9z"/>
		</g>
	</g>
	<g>
		<defs>
			<circle id="SVGID_00000142163209025362964220000012589581357570716573_" cx="525" cy="525" r="525"/>
		</defs>
		<clipPath id="SVGID_00000164482731651648117520000008988815457456903584_">
			<use xlink:href="#SVGID_00000142163209025362964220000012589581357570716573_"  style="overflow:visible;"/>
		</clipPath>
		<g id="Haar" style="clip-path:url(#SVGID_00000164482731651648117520000008988815457456903584_);">
			<path class="st5" d="M667.7,222.6l39.7,19.5l0.7-1.2l-12.8-8.3l0.3-0.7l11.9,4.4l0.6-1.1c-7.2-4-14.2-8.3-21.6-11.8
				c-6-2.9-12.4-4.8-18.6-7.2c-0.4-0.2-0.6-1-1.4-2.4c-2.8-0.9-6.7-2.2-10.7-3.3s-8-1.9-12-2.8c1.2-0.5,2.6-0.7,3.9-0.7
				c1.5-0.1,3,0,4.4,0c-45.9-5.9-91.4-5.5-136.2,7.4l54.5-6.1l0.2,1.4l-4.1,1.4c-1.3,0.4-2.7,0.9-4,1.3
				c38.5-3.9,76.5-5.5,112.7,11.7l-7.3-1.9L667.7,222.6z M519.8,246.4l-42,17.6c-0.1-0.3-0.2-0.6-0.4-0.9l17.7-9
				c-15.5,3.3-98.6,36.8-106.2,43.3l54.4-18.2l0.1,0.4L417.2,292C437,287.4,507.8,255.8,519.8,246.4z M448.4,295.2l164.9-61
				C585.8,237,462.2,282.7,448.4,295.2L448.4,295.2z M483.9,289.2l164.9-51.6C591.9,248,536.5,265.3,483.9,289.2L483.9,289.2z
				 M437.1,293.7l133.8-59.3C523.9,248.8,478.5,266.7,437.1,293.7L437.1,293.7z M343.1,278c-15.3,7.7-25.7,19.9-32.7,35.3
				c12.7-11.4,21.7-26.7,37.2-35c-12.6,11.5-23.9,23.9-29.4,41.8c9.8-13.1,19-25.4,28-37.7c1-1.3,1.3-3.1,1.9-4.6
				C346.5,277.8,344.5,277.3,343.1,278L343.1,278z M639.2,257l-20.4,3l-0.1-0.8l19.5-5.6c-14.1-0.1-74.5,14.8-83.3,20.1l84.5-16
				L639.2,257z M384.9,283.4l0.8,1.7c25.4-6.7,48.6-18.4,70.4-33L384.9,283.4z M302.5,306.5L342,272l-6.7,0.8l11.2-5.1
				c-9.9-1.8-36.5,11.8-45.3,23.6c1.9-1.2,3.3-2.1,4.7-3c7.7-4.5,15.5-8.9,23.2-13.4C318.2,283.5,311.1,295.3,302.5,306.5z
				 M488.8,209.3l100.3-13.5C553.8,196.3,519.5,201.7,488.8,209.3L488.8,209.3z M602.9,267c0.1,0.4,0.2,0.9,0.3,1.3l56.9-4.5
				c0-0.5-0.1-0.9-0.1-1.4L602.9,267z M692.6,239.6c-0.2,0.4-0.3,0.7-0.5,1.1l33.6,15.3c0.3-0.6,0.6-1.3,0.9-1.9L692.6,239.6z
				 M330.8,316.9l1.1,0.7l13.4-21.1C338.5,301.6,333.4,308.8,330.8,316.9z"/>
		</g>
	</g>
	<g>
		<defs>
			<circle id="SVGID_00000101797889849945352320000010066642504181269385_" cx="525" cy="525" r="525"/>
		</defs>
		<clipPath id="SVGID_00000091724197608798180730000008382679468441727414_">
			<use xlink:href="#SVGID_00000101797889849945352320000010066642504181269385_"  style="overflow:visible;"/>
		</clipPath>
		<g id="kraag" style="clip-path:url(#SVGID_00000091724197608798180730000008382679468441727414_);">
			<path class="st10" d="M772.6,798.4c-8.4-6-16.6-12.1-26.8-15c-0.4,0.6-0.8,1.3-1.2,2c-11.7,27.3-29.3,50.5-51.4,69.9
				c-26.2,22.9-53.6,44.4-80.1,67c-28.8,24.5-57,49.7-85.6,74.4c-3.1,2.7-3.5,4.8-1.4,8.5c8.3,14.5,17.5,28.3,28.9,40.6
				c1.8,1.9,3.3,4.1,4.9,6.2h107c0.9-1.4,1.8-2.8,2.8-4.1c20.5-25.6,41.3-51,61.5-76.9c18.5-23.7,34.2-49.3,45-77.5
				c8.1-21,9.1-43.2,10.3-65.4C787.3,815.8,782.9,805.7,772.6,798.4z M715.6,936.5l-1.1-1l38.1-44.5c0.3,0.3,0.6,0.7,1,1
				L715.6,936.5z M741.1,868.5l-1.2-0.7l23.3-38.3l1.5,0.9L741.1,868.5z M443.2,867.4c-2.8-8.4-5-16.9-7.5-25.4
				c-0.5-1.7-1.1-3.7-2.4-4.8c-7.1-6.4-14.4-12.6-21.8-18.9c1.1,13.2,2.8,26.1,3,39s-0.9,26-1.8,38.9c-0.9,12.7-2.1,25.5-3.2,38.2
				h-1.3v-88c-12.6,28.7-31.4,52.5-52.1,75s-44.4,42-70.3,59.7c2.5,1.5,4.3,2.6,6.1,3.6c27.6,15.5,54.9,31.5,79.7,51.5
				c5.5,4.4,10.9,8.8,13.3,15.9h31c10.2-9.3,19.9-19.1,30.6-27.9c11-9,24.1-14,38.5-15.2c8.5-0.7,16.9-1.7,25.4-2.6
				c1.5-0.3,3-0.7,4.5-1.2c-3.5-4.4-6.6-8.1-9.4-12C477.9,954.6,458.3,912.1,443.2,867.4L443.2,867.4z"/>
		</g>
	</g>
	<g>
		<defs>
			<circle id="SVGID_00000090985974813784098150000013115467084555842181_" cx="525" cy="525" r="525"/>
		</defs>
		<clipPath id="SVGID_00000041990661011612694650000007768186597761572780_">
			<use xlink:href="#SVGID_00000090985974813784098150000013115467084555842181_"  style="overflow:visible;"/>
		</clipPath>
		<g id="Face" style="clip-path:url(#SVGID_00000041990661011612694650000007768186597761572780_);">
			<path class="st3" d="M522.2,942.1c-5.5-3.7-10.9-7.7-16.5-11.3c-21.1-13.9-38.2-31.5-49.9-54.1c-2.2-4.2-4.6-8.4-7-12.5l-1.5,0.8
				c4.5,12.3,8.6,24.8,13.5,36.9c13.4,33.5,31.9,64.6,55,92.3c3.7,4.4,4.8,4.2,8.6,0.3c6.5-6.7,13.2-13.2,19.7-19.9
				c1-1,2-3.4,1.5-4.3C539.5,959.5,532.8,949.2,522.2,942.1z M740.9,688.2c5.7-14.2,11.4-28.5,17-42.7c11.2-28.5,5.5-57.9,4.1-87
				c-0.1-1.1-1.5-2.1-2.4-3.1c-0.6,1.2-1.6,2.4-1.7,3.6c-1.6,12.9-2.9,25.8-4.6,38.6c-1.2,9.6-7,15.3-16.1,18.3
				c-24.4,8.3-49.3,14.5-75.1,15.6c-21.5,0.9-39.7-7.3-54.4-22.9c-3.7-4-6.8-8.5-10.5-13.2c1,12,2,23.4,3,34.8l-1.7,0.2
				c-2.3-16.6-4.5-33.2-6.8-49.8c-0.9-6.1-1.9-12.1-3.1-18.2c-0.2-1.1-1.8-2.4-3-2.9c-8-3.7-17.2-3.6-25.2,0.2
				c-2.3,1.1-2.9,2.3-2.7,5c0.4,5.6,0.1,11.2,0.1,16.8h-0.3c-0.7-6-1.4-12-2.2-18.1c-7.1,1.2-8.2,2.3-8.1,8.1
				c0.2,16.9-3.5,33.1-9.1,48.8c-5.4,15.1-15.5,26.4-31.4,30.4c-20.5,5.2-41.4,8.8-62.6,9.2c-7.4,0.2-14.7,1.1-22.1,1.6
				c-1.3,9-2.8,10.5-10.1,16.3c-12.7,10-24.9,20.5-37.3,30.8c-2.7,2.3-3.1,5.1-2,8.5c5.7,17.9,11.1,36,17,53.8
				c8.3,24.7,22.9,44.8,44.7,59.6c12.4,8.4,24.4,17.4,36.5,26c0.7,0.5,1.5,0.9,2.3,1.3l-14.4-36.1l1.1-0.5c4,7.8,7.7,15.9,12.2,23.5
				c4.4,7.4,8.2,16,14.5,21.3c10.8,8.9,22.6,16.6,35,23c23.4,12.2,48.9,13.6,74.6,11.3c9.7-0.9,19.4-3.1,28.9-5.4
				c3.9-0.9,7.3-3.6,10.9-5.5l-0.5-0.9l-38.2,5.5l-0.2-1c13-2.7,26-6.1,39.1-7.8c9.5-1.2,12.4-7.9,16.8-15.2l-19.1,8.1l-0.6-1.3
				l26.4-15.1l-0.6-1.1c-20.3,9.9-41.1,18.4-62.9,24c15-6.2,29.7-13.1,45.1-17.8c17-5.2,28.1-15.7,35.8-31.2
				c4.5-9,10.5-17.2,15.8-25.8l0.9,0.5c-1.5,3.2-3,6.5-4.5,9.7l1.4,0.6c38.4-47.8,66.9-99.9,67.7-162.7l-17.8,34.2
				C740.1,690.9,740.3,689.5,740.9,688.2z M389.2,733.3l-3.2-28.1l1.7-0.2c1,9.3,2,18.7,3.1,28.1L389.2,733.3z M390.9,711.5
				l10.9,35.4C394.2,736.5,391.3,724.7,390.9,711.5z M402.4,724.1l1.1-0.5c5.2,11.2,10.3,22.4,15.9,34.5
				C413.2,753.6,403.7,733.9,402.4,724.1L402.4,724.1z M428.7,762.8c-7.4-8.6-10.7-19.3-15.5-29.3l1.4-0.8l15.6,29.2L428.7,762.8z
				 M438.4,774l-7.1-17.1l1.6-0.7c2.4,5.7,4.9,11.3,7.3,17L438.4,774z M689.1,650.8l-35.8-12.6l4.8-0.5l0.1-0.6l-18.1-5.6
				C650.5,630.1,681.3,642.3,689.1,650.8z M646.5,746c5,4.1,10.2,8.2,11.8,14.9c0.4,1.8,0.5,4.8-0.5,5.7s-4,0.4-5.8-0.2
				c-1.5-0.5-2.5-2-3.8-3.1c-6.7-5.6-13.7-8.5-22.4-4c-5.7,2.7-11.5,5.2-17.5,7.3c-1.8,0.5-3.6,0.8-5.4,0.9
				c9.3-4.3,18.3-9.1,27.9-12.5c5.2-1.8,11.4-1.1,18.2-1.6c-4.7-3.8-8.6-9.4-13.5-10.5s-10.8,2.5-15.3,3.8
				C628.7,738.5,636.7,738,646.5,746z M618.1,663.5c3.5,6.6,7.7,13,10.3,19.9c0.9,2.3-2.5,6.2-3.9,9.4l-1.4-0.3
				C629.2,681.2,617.2,673.9,618.1,663.5L618.1,663.5z M616.3,685.6c1-0.7,3.5,0.5,5.3,0.9c-0.5,1.8-0.4,4.2-1.5,5.1
				c-3,2.5-6.5,4.3-11,7.1l2.1-4.6l-8.9,4.8l-0.9-1.2C606.3,693.6,611.1,689.4,616.3,685.6L616.3,685.6z M600.4,688.6
				c4.2-5.5,7.2-10.6,5.1-17.6c1,2.8,1.9,5.6,2.6,8.5c0.4,1.8,0.5,4.2-0.4,5.6c-4.9,7.2-10.1,14.2-15.3,21.3l-1.6-1
				C594,699.8,596.6,693.7,600.4,688.6L600.4,688.6z M545.1,697.2c5.4-3.5,10.6-0.5,15.7,1c3.5,1,6.1,3.1,6.3,8.6
				c-6.8-4.5-13.2-6.4-20.3-5.1c-1.1,0-2.1-0.6-2.7-1.6C544,699,544.3,698,545.1,697.2L545.1,697.2z M528.9,694.8
				c1.8-3.9,3.4-7.9,6.1-11.5c-1,3.4-2,6.9-3.2,10.2c-1,2.8-0.5,4.4,2.2,6.1c4.2,2.8,8.1,6.1,12.2,9.2l-0.6,0.8
				c-4.9-2.7-9.9-5.3-14.7-8C528,700.1,527.5,697.8,528.9,694.8L528.9,694.8z M522.7,788.1c1.1-3.1,1.2-5.1,2.3-6.4
				c2.5-2.8,5.1-6,8.3-7.8c11.8-6.8,23.9-13.1,35.9-19.6c5.6-3,11.4-4.2,17.7-1.6c2.1,0.9,4.5,1.1,6.9,2.2
				c-14.4-3.1-26.4,2.8-38.4,9.6c14.5-2.8,28.4,0.8,42.4,3.5c1.6,0.1,3.2,0.1,4.7-0.2c-1,0.7-2.1,1.9-3,1.8
				c-25.5-4.2-47.8,5.4-69.9,16C527.9,786.3,526.1,786.9,522.7,788.1L522.7,788.1z M621.4,882l0.3,1.4l-37.5,7.1
				c-0.1-0.4-0.2-0.8-0.2-1.1L621.4,882z M622.1,805.9l6.5-5.7c-5.1,2.8-10.1,5.8-15.2,8.5c-4.2,2.3-8.1,4.7-13.5,3.4
				c-2.9-0.7-6.4,0.6-9.6,1l0.1,1.5h21c-29.5,5.6-54.9,5.6-72.2,0h45v-1.9l-48-1.7l-0.1-1.1l13.6-1.1v-0.6l-8.4-0.4
				c34.9-0.3,67-10.5,98-26.4c-3.3,2.7-6.6,5.5-10,8.2c-3.7,2.8-7.5,5.5-11.4,8.2c-3.7,2.5-7.4,4.9-11.1,7.3l0.6,1.6
				c2.8-0.8,5.9-1.1,8.2-2.6c8-5.6,15.8-11.7,23.6-17.6c2.5-1.8,4.9-3.7,7.4-5.5l0.9,1l-13.9,14.6l5.6-3.9l0.9,1.2L622.7,807
				L622.1,805.9z M636.5,862.5l-1.3-1.5l31.6-26.4l1.3,1.2L636.5,862.5z M640.6,849.2l27.5-33.2C661.3,829,653,840.8,640.6,849.2
				L640.6,849.2z M661.6,819l-1-0.5l6.5-14l1.2,0.5L661.6,819z M678,717.2c-0.3,7.9-0.9,15.7-2,23.5c-1-7.5-2.3-14.9-2.8-22.4
				c-0.3-5.2-2.5-10.1-6.2-13.8c-5.1-5.1-10.5-10-15.8-15l1.6-1.7c7.8,7.1,15.8,14,23.3,21.4C677.8,710.9,678.1,714.5,678,717.2z
				 M693.3,660.9l-22.2-10.3l0.8-1.4l22.2,9.9C693.9,659.7,693.6,660.3,693.3,660.9z M396.5,531.9c5.4-0.2,7.2,2.8,6.1,8.3
				c-0.4,1.7-0.6,3.4-1,5.2l41-10.2c-18.4-17.5-42-15.7-65.1-17.5l9.2-2.1l-3.2-1.8l0.3-1h20v-0.4l-9.4-2.3l0.1-1.6l5.1-1.3
				c-0.3-0.6-0.6-1.2-1.2-2.4c3.2,0,6-0.2,8.8,0c19.7,2.1,39.4,4.2,59,6.4c23.1,2.6,44.2,12,66,19.2c6.8,2.2,6.9,3.7,2.3,8.3
				c3.9,6.7,7.7,13.2,11.6,20l8.8-6.1c-0.1-0.2-0.3-0.5-0.4-0.7l-5.4,2c-0.1-0.5-0.2-0.9-0.2-1.3c12.8-6.3,26.1-6.8,38.2-2.1
				c1-4.8,1.8-9,2.6-13.4c-2.2,1.7-4.3,4.2-7,5c-2.5,0.7-5.5-0.3-8.3-0.6c-0.3,0-0.7,0-1,0.1l-26.8,5.5c3.2-2.2,6.2-4,9-6.2
				c1.1-0.9,2.3-2.3,2.4-3.6c0.8-12.7,1.5-25.4,2.1-38.1h0.7c1.4,12.6,2.8,25.2,4.2,37.7c3.7,0,7.5-0.5,11.2,0.1
				c7,1.2,12.7-3.7,12.3-10.9c-0.2-2.2,0.4-4.3,1.7-6.1c5-5.9,9.8-12.3,15.9-17c9.2-7.1,19.3-13,29.1-19.3c0.1,0,0.4,0.3,1.7,1.2
				l-6,5.4l41.2-18.4l0.2,0.4L656,484.9l39.7-13.7l0.6,1.8c-2.1,1-4.1,2-6.2,3c-15.6,7.2-31.6,13.4-45.7,23.5c-3.8,2.8-7.3,6-11,9.1
				c7.1-1,14.2-2.4,21.1-4.2c24.2-5.8,47.9-5.6,70.7,5.6c9.9,4.9,19.9,9.8,29.8,14.7c-1.5-10.5-3-21-4.5-31.5
				c-1.8-12.8-1.7-26-11.1-36.6c-5.4-6.1-8.2-13.6-9.7-21.6c-3.3-17.8-12.3-32.9-21.7-47.9c-1.6-2.5-3.5-3.2-6.3-2.1
				c-4.3,1.7-8.7,3.1-13,4.6c-6.1,2.1-11.1-1-11.8-7.3s-1.6-12.9-1.9-19.4c-0.2-4.1-1.5-5.9-5.9-6c-3.6-0.1-7.6-0.8-10.5-2.6
				c-5.2-3.2-10.5-2.7-16-2.4c-16.4,0.9-32.8,2.3-49.3,2.7c-15.1,0.4-30.2-0.1-45.4-0.6c-15.4-0.5-30.9-0.9-46.3-2.6
				c-10.9-1.3-21.4-2.3-31.9,1.7c-2.6,1-5.6,1.1-8.5,1.6l-0.4-1.3l12-6c-14.1-4.3-27-2.9-39.9,1l11.6-4.2c-1.2-0.7-1.6-1-2-1
				c-9.7-0.4-19.3-0.8-29-1c-1-0.1-2,0.2-2.7,0.9c-5.7,6.5-12,12.5-16.6,19.7c-5.2,8.2-9,17.4-13.2,26.3c-1.7,3.4-2.8,7.1-3.4,10.8
				c-1.3,10.2-2.1,20.5-3.2,30.8c-0.7,7.3-7.5,13.6-14.6,10.6c-1.2-0.5-2.6-0.5-4.6-0.9c-18.4,29-22.5,61.4-23.4,95.1
				c3.1-0.4,5.2-0.8,7.4-0.9C358.6,533.6,377.5,532.5,396.5,531.9z M699.3,481.1l-13.6,3.8l-0.4-1.7l13.4-4L699.3,481.1z
				 M579.7,525.6c-7.9-10.9,11.6-46.5,30-55.6C592.6,484.4,584.8,504,579.7,525.6z M649.8,426.9l-25.5,25.2
				C627.8,441.1,637.8,433.5,649.8,426.9L649.8,426.9z M611.7,431.4l24.9-18.5C630.2,421.7,621.7,427.6,611.7,431.4L611.7,431.4z
				 M586.5,430.5c10.7-3.7,21.2-7.7,31.8-11.6c1.8-0.7,3.8-1.2,5.7-1.3c-14.1,10.4-30,16.3-47,20l8.5-3.7l-0.2-0.5l-15.4,2
				C575.5,433.7,581,432.3,586.5,430.5z M510.4,435.7c17.4-0.2,34.8-0.4,52.2-0.6c2.2,0,4.5,0.2,6.7,0.3c-20.3,6.3-42,6.5-62.4,0.6
				C508,435.9,509.2,435.7,510.4,435.7z M418.7,434.5c-2.4-0.3-5,0.6-7.4,1l-0.2-2.1l33-2.3c-0.3,2.1-0.5,3.3-0.6,4.3
				c3,0.9,5.7,1.6,8.4,2.5c10.6,3.7,21.1,8,31.9,11c8.6,2.3,17.4,3.9,26.3,4.8c6.2,0.7,12.5,0.1,18.7,0.6
				c-9.9,1.2-19.7,3.1-29.6,3.5c-6.3,0.3-13.4-0.1-18.9-2.7c-22.5-10.5-45.4-18-70.7-14.1l17.5-3.5
				C423.8,436.4,421.3,434.9,418.7,434.5z M799.6,510c-1.4-3-3.2-5.9-5.2-8.4c-2.3-3.1-5.3-3.5-8.1-0.7c-4,4-7.9,8.1-11.6,12.4
				c-3.9,4.5-7.5,9.3-11.3,14c-1.5,1.8-3,3.7-4.4,5.4c-1-2.1-2.4-5-3.8-7.9c-0.4,2.2-0.8,4.5-1.1,6.7c-1.2,9.8,1.4,13.6,10,14.2
				c0.3,0,0.6-0.2,0.5-0.1c3.2-5.3,6-10.5,9.4-15.4c5.9-8.6,8.6-9.4,18.3-6.4l1.3-2.6c5.8,9.9,8.8,40.8,4.7,48
				c-1-6.5-1.9-12.9-3.1-20.6c-0.5,9.4-0.9,17.4-1.3,25.5c-2.8-9.1-4.6-18.4-6.9-27.5c-1.3-5.1-3.3-10-5-14.9l-1.9,0.2
				c-2.6,4.4-5.2,8.8-8.5,14.4l6.3,3.8c-3.3-0.4-6.4-1.7-7.8-0.7c-8.5,6.3-8,11.5,1.1,17.2c0.4,0.3,0.8,0.5,1.3,0.8
				c12.2,7,11.2,4.7,8.7,20c-1.4,8.3-2.3,16.6-3.5,25l1,0.4l6.5-8.7l1.5,0.9c-4.3,7.6-8.5,15.2-13.1,22.6c-0.9,1.4-3.2,1.8-4.9,2.7
				l-1.6-1c-1.5,10.7-3.1,21.3-4.5,32c-0.2,1.2,0.3,3.2,1.2,3.8c4.4,3.3,12.9,2.9,16.6-1.5c3.7-4.2,6.6-9.1,8.5-14.4
				c1.9-5.9,2.9-12,3-18.2c0.8-20.2,5.5-39.6,11.4-58.7C809.9,551,808.1,530.4,799.6,510z M375.6,588.3c-4.1,1.1-8.8,2.1-13.3,3.7
				c-7.2,2.5-14.2,5.9-21.5,8c-3.3,1-3.9,1.9-3.4,5c2.1,13,3.7,26,5.9,38.9c1.1,6.3,3,12.4,4.6,19.2c14-11.7,29.8-16.3,46.9-17.2
				C388.5,626.4,382.2,607.7,375.6,588.3L375.6,588.3z M360.6,581.8c3.7-0.8,6.9-2,10.1-1.9c4.9,0.1,5.9-1.8,4.3-6.3l-15.6,3
				C359.9,578.3,360.2,579.9,360.6,581.8L360.6,581.8z M354.1,580.5l-13.3,9.9C351.3,587.6,355.6,584.3,354.1,580.5L354.1,580.5z"/>
		</g>
	</g>
</g>
</svg>
