<?xml version="1.0" encoding="utf-8"?>
<!-- Generator: Adobe Illustrator 25.4.1, SVG Export Plug-In . SVG Version: 6.00 Build 0)  -->
<svg version="1.1" id="Laag_1" xmlns="http://www.w3.org/2000/svg" xmlns:xlink="http://www.w3.org/1999/xlink" x="0px" y="0px"
	 viewBox="0 0 1050 1050" style="enable-background:new 0 0 1050 1050;" xml:space="preserve">
<style type="text/css">
	.st0{display:none;}
	.st1{clip-path:url(#SVGID_00000010308154437202688370000015352871057619806641_);}
	.st2{fill:#00F0A6;}
	.st3{fill:#FD9BD6;}
	.st4{fill:url(#SVGID_00000042001486638795988500000010556998529625917613_);}
	.st5{fill:#FFFFFF;}
	.st6{fill:url(#SVGID_00000121254434161991976680000008679733284925273017_);}
</style>
<g id="Kleuren" class="st0">
</g>
<g id="PNG" class="st0">
</g>
<g>
	<defs>
		<circle id="SVGID_1_" cx="525" cy="525" r="525"/>
	</defs>
	<clipPath id="SVGID_00000164503632620515360070000002937193484563024264_">
		<use xlink:href="#SVGID_1_"  style="overflow:visible;"/>
	</clipPath>
	<g id="Back" style="clip-path:url(#SVGID_00000164503632620515360070000002937193484563024264_);">
		<rect class="st2" width="1050" height="1050"/>
	</g>
	<g id="Shirt" style="clip-path:url(#SVGID_00000164503632620515360070000002937193484563024264_);">
		<polygon class="st3" points="-31.1,740 47.6,748.1 186,787.2 193.9,803.5 214.4,806.5 228.2,793.8 257.2,802.3 340.4,790.8 
			353.7,813.7 327.8,860.2 321.6,979.5 341.6,1017 356.7,1035.7 415.2,1071.9 -22.1,1068.9 		"/>
		<polygon class="st3" points="728.9,748 768.1,755.2 784.4,743.8 788,746.2 845.9,745 868.8,770.9 883.9,743.2 996.1,730.5 
			1078.7,703.3 1126.9,1176.8 618.5,1074.3 629.9,1047.7 703.5,998.3 736.1,964.5 754.2,917.5 754.8,878.3 738.5,786 		"/>
	</g>
	<g id="Face" style="clip-path:url(#SVGID_00000164503632620515360070000002937193484563024264_);">
		
			<linearGradient id="SVGID_00000176745997062097968440000003006232696071477695_" gradientUnits="userSpaceOnUse" x1="321.6" y1="310.3" x2="760.1" y2="310.3" gradientTransform="matrix(1 0 0 -1 0 1050)">
			<stop  offset="0" style="stop-color:#EDD661"/>
			<stop  offset="1" style="stop-color:#B2471F"/>
		</linearGradient>
		<polygon style="fill:url(#SVGID_00000176745997062097968440000003006232696071477695_);" points="323.4,579.4 369.4,769.9 
			362.3,806.5 331.8,837.8 322.9,919.6 321.6,979.5 337,1004.7 356.9,1033.2 387.6,1061 619.7,1058.8 666.7,1026.6 722.8,983.8 
			740.2,952.4 756,903.9 739.2,834.1 741.9,786.1 727.4,753.9 759.5,673.2 760.1,532.7 704.4,429.2 644.7,418.4 493.4,444 		"/>
	</g>
	<g id="Teeth" style="clip-path:url(#SVGID_00000164503632620515360070000002937193484563024264_);">
		<polyline class="st5" points="502.6,780.2 522.6,766.9 548.7,766.8 576.5,762.9 601.4,750.7 621,748.9 612.2,763.9 600.4,775.6 
			579.9,786.4 554.5,794.7 533.5,792.7 516,787.3 502.6,780.2 502.6,780.2 502.6,780.2 502.6,780.2 		"/>
	</g>
	<g id="Outline" style="clip-path:url(#SVGID_00000164503632620515360070000002937193484563024264_);">
		<g>
			<g>
				
					<linearGradient id="SVGID_00000182503056090360519580000014787108816987559559_" gradientUnits="userSpaceOnUse" x1="130.8009" y1="-71.7009" x2="957.601" y2="755.0991" gradientTransform="matrix(1 0 0 -1 0 1050)">
					<stop  offset="2.149415e-03" style="stop-color:#B2471F"/>
					<stop  offset="8.472497e-02" style="stop-color:#A1451E"/>
					<stop  offset="0.4002" style="stop-color:#653D19"/>
					<stop  offset="0.6689" style="stop-color:#3A3716"/>
					<stop  offset="0.8773" style="stop-color:#1F3314"/>
					<stop  offset="1" style="stop-color:#153213"/>
				</linearGradient>
				<path style="fill:url(#SVGID_00000182503056090360519580000014787108816987559559_);" d="M253.8,848.2c0.3,0.1,0.6,0.3,1,0.4
					c3.1-7.3,6.3-14.6,9.4-21.9l-0.9-0.5C260.2,833.5,257,840.9,253.8,848.2z M58.1,1049h7c-4.8-23.8-9.6-47.4-14.4-71.1
					C50.7,1001.8,52.8,1025.6,58.1,1049z M168.9,784.7c5.2,1.7,10.2,3.8,15.1,6c1.5,0.7,3.1,2.4,3.6,3.9c0.8,2.6,0.4,5.6,1.2,8.2
					c2.9,8.8,6.1,17.5,9.3,26.4c-3.2,4.9-6.7,10.1-10.1,15.3c0.2,0.2,0.5,0.4,0.7,0.6c0.9-0.7,1.8-1.3,2.6-2
					c13.9-11.9,25.8-25.4,35.5-40.8c2-3.3,4.3-4.9,8.2-3.8c3.1,0.8,6.4,1,9.4,1.9c9.8,2.9,19.8,2.8,29.8,2.4
					c8.5-0.3,17-0.7,25.4-1.5c5.8-0.6,11.6-2,17.4-3c0-0.4-0.1-0.8-0.1-1.2c-1.5-0.1-2.9-0.4-4.4-0.3c-12.4,0.7-24.8,1.2-37.1,2.5
					c-8.5,0.9-16.8,1.4-25.1-1.7c-6.6-2.5-13.6-3.9-20.4-6.1c-2.6-0.8-4.3-0.6-5.8,2c-2,3.3-4.4,6.3-6.4,9
					c-5.3-1.3-10.2-2.1-14.8-3.7c-4.6-1.6-9.8-3.3-11.5-8.4c-1.3-4.1-3.3-6.5-7.4-7.4c-2.4-0.5-4.8-1.5-7.2-2.1
					c-14.9-3.7-29.7-7.3-44.6-11c-28.5-7.2-57-14.4-85.5-21.6c-1.2-0.3-2.4-0.4-3.6-0.5c-0.1,0.4-0.1,0.7-0.2,1.1
					c3.9,1.5,7.7,3.2,11.6,4.4c14.1,4,28.3,7.9,42.5,11.7c14.9,4,29.9,7.7,44.8,11.8C151.1,779.2,160,781.8,168.9,784.7z
					 M210.6,812.4c-2.6,3.6-4.8,6.5-7,9.5c-0.4,0-0.9,0.1-1.3,0.1c-1-3.7-2.1-7.3-3.5-12.2C203.3,810.8,206.5,811.5,210.6,812.4z
					 M303.3,910.8c0.5,0,0.9,0,1.4,0v-21C301.5,896.7,301.1,903.8,303.3,910.8z M296.5,813.6c-6.7,1.3-11.9,4.6-14.3,10.8
					c-7.9,20.2-15.4,40.6-23,60.9c-0.2,0.4,0,1,0,2.8C273.6,863.4,286.5,839.3,296.5,813.6z M279.5,811.9c-0.4-0.2-0.8-0.3-1.2-0.5
					c-9.3,15.8-14.4,33.4-21.2,50.3l1.2,0.5C265.4,845.4,272.4,828.6,279.5,811.9z M77.2,1049.2l1.9-0.6C56.1,989.5,45,927,27,866.5
					C41.6,928,51.6,990.8,77.2,1049.2z M69.9,821.8c-0.5-3.4-0.7-6.4-1.6-9.4c-4.2-14.7-8.5-29.3-13.1-44.8
					C53.6,772.9,65.6,816.4,69.9,821.8z M66.1,844.7c0.4,1,0.9,1.9,1.4,2.9c0.2-0.1,0.4-0.2,0.7-0.3c0-0.4,0.1-0.8,0-1.2
					c-7.3-24.9-14.5-49.7-21.9-74.6c-0.9-3.1-2.9-6-4.7-8.8c-1.5-2.3-4.1-1.8-4.5,0.8c-0.4,2.9-0.8,6.3,0.2,8.9
					C46.7,796.6,56.4,820.6,66.1,844.7z M998.4,730.8c-0.5,0-1.1,0-1.6,0v55.9C1000.1,768.1,999.3,749.5,998.4,730.8z M74.6,820.7
					c-2.9-15.9-5.7-31.7-8.6-47.6c-0.6,0.1-1.2,0.2-1.8,0.3c2.8,15.9,5.7,31.7,8.5,47.6C73.3,820.9,73.9,820.8,74.6,820.7z
					 M56.5,947.5c0.5-0.1,1-0.2,1.5-0.4c-14.2-62.5-28.4-125-42.5-187.5c-0.3,0-0.6,0-0.9-0.1c0,1.4,0.1,2.8,0,4.2
					c-1.4,12.9,3,24.9,5.9,37c10.3,43.4,21,86.7,31.6,130C53.5,936.4,55,942,56.5,947.5z M14.8,982.9c0.2,0,0.4,0,0.5,0V953
					c-0.2,0-0.4,0-0.5,0V982.9z M33.1,803.7c6.2,16.3,12.7,32.4,19.1,48.7c2.8,7.2,5.6,14.5,8.4,21.8c0.3-0.1,0.5-0.3,0.8-0.4
					c-0.3-1.5-0.5-3-0.9-4.5c-8.4-31.4-17-62.7-25.3-94.1c-1.6-6.2-5.3-10.6-9.4-15.8c-1.7,6.5-4.1,12.3-1.6,18.7
					C27.3,786.5,29.9,795.2,33.1,803.7z M114.4,786.8c-1.4,16.1-2.7,32.2-4.1,48.3c0.4,0,0.8,0.1,1.2,0.1
					c3.4-15.9,3.8-32.1,4.6-48.3C115.6,786.8,115,786.8,114.4,786.8z M140.2,785.6c-2.2,3.4-4.6,7.2-5.1,11.1
					c-2.5,18.6-4.5,37.3-6.7,56c-0.8,7.2-1.7,14.5-2.6,21.7c1.1-0.4,1.4-0.9,1.6-1.5c5.5-21.9,11.1-43.7,16.2-65.7
					c1.8-7.6,4-15.3,1.9-24.3C143.5,783.8,141,784.2,140.2,785.6z M218.7,1048.4c0.4,0.5,0.7,1,1.1,1.5c2.3-1.7,4.7-3.4,7-5
					c-0.4-0.6-0.9-1.1-1.3-1.7C223.2,1044.9,221,1046.6,218.7,1048.4z M163,849.4c2.5-14.4,5-28.8,7.5-43.3
					C166.9,812.1,162.8,835.9,163,849.4z M257.9,907.9c-44,43.4-86.1,88.4-131.5,130.9c12.2-64.5,15.6-129,25.8-192.6
					c-0.4-0.1-0.9-0.1-1.3-0.2c-2,11.2-4.3,22.4-5.9,33.6c-6.2,41.5-12.1,83.1-18.2,124.6c-1.9,12.8-4.4,25.5-10.7,37.2
					c-0.8,1.6-1.1,4.6-0.1,5.7c1.2,1.3,3.9,1.9,5.9,1.8c1.8,0,3.8-0.9,5.4-2c4.1-2.8,8.4-5.6,12-9.1c10.5-10.3,21.1-20.7,31-31.6
					c28.4-31.3,56.5-62.8,84.7-94.3C255.9,910.6,256.9,909.2,257.9,907.9z M182.9,791.9c-0.5-0.2-1-0.5-1.4-0.7c-1,1.6-2.4,3-3,4.7
					c-6.2,19.4-6.6,39.6-8.1,59.6c0.5,0.1,0.9,0.2,1.4,0.2C175.6,834.5,179.3,813.2,182.9,791.9z M229.4,814.6
					c-12,25.4-23.8,51-35.6,76.5c-1.2,2.6-2.1,5.3-3.2,8c0.4,0.2,0.8,0.4,1.3,0.6c17.4-31.3,34.9-62.5,52.3-93.9
					c-3.1-2.9-6-2.5-8-0.5C233.5,808.1,231,811.2,229.4,814.6z M277.1,956c-4.4-17.2-8.8-34.4-13.3-51.6c-0.3,0.1-0.7,0.2-1,0.3
					c2.1,17.8,6.5,35,13.2,51.6C276.3,956.2,276.7,956.1,277.1,956z M817.9,764.2c0.8,16.1,1.7,32.3,2.5,48.4c0.6,0,1.2-0.1,1.8-0.1
					c-0.9-16.1-1.7-32.3-2.6-48.4C819,764.2,818.5,764.2,817.9,764.2z M311.4,814.7c0.1-1.4,0.2-3.6-0.5-4c-1.2-0.7-3.7-0.8-4.5-0.1
					c-2.7,2.6-5.7,5.3-7.2,8.6c-6.8,14.5-12.9,29.2-19.5,43.8c-2.5,5.5-5.5,10.8-8.3,16.1c0.2,0.1,0.4,0.3,0.6,0.4
					c0.5-0.6,1-1.1,1.5-1.7c9.6-14.2,19.4-28.2,28.7-42.6C306.2,829,310.9,822.7,311.4,814.7z M797.9,767.8c-0.8-2.5-2.2-4.8-3.5-7
					c-0.6-0.9-1.9-1.3-2.9-1.9c-0.6,1-1.7,2-1.7,3c0,3.4,0,6.9,0.6,10.3c3.8,21.6,7.7,43.2,11.6,64.8c0.3,1.5,0.6,2.9,0.9,4.3
					c0.4,0,0.7,0,1.1-0.1c0.1-0.6,0.3-1.2,0.3-1.9c-0.2-10.3-0.3-20.6-0.7-30.9C803.1,794.8,801.9,781.1,797.9,767.8z M191.1,1048.6
					c0.2,0.5,0.4,1,0.6,1.5c2.9-1.1,6.5-1.4,8.6-3.4c23.4-22.1,46.5-44.4,69.7-66.7c3.6-3.5,7-7.3,10.4-11c-0.1-0.1-0.2-0.2-0.3-0.2
					C250.4,995.3,220.7,1021.9,191.1,1048.6z M732.2,1043.4c8.5-11,16.5-22.4,24.9-33.5c12.5-16.5,21.8-34.6,30.2-53.4
					c0.3-0.7,0.4-1.6,0.6-2.4c-19.8,33.8-41.2,66.2-67.7,94.8C725.7,1051,729.3,1047.3,732.2,1043.4z M804.7,762.6
					c-0.5,0.2-1,0.3-1.5,0.5l8.1,64.5c0.4-0.1,0.8-0.1,1.2-0.2c1.1-20.8-1.2-41.4-5.9-61.7C806.4,764.6,805.4,763.6,804.7,762.6z
					 M441.1,965.4c-8-18.4-16.1-36.7-24.1-55.1C421.6,930.2,428.5,949,441.1,965.4z M633.1,1025.5c4.1-2.3,8.2-4.7,12.4-7
					c-0.3-0.4-0.5-0.9-0.8-1.3c-4,2.5-8,4.9-12,7.4C632.8,1024.9,632.9,1025.2,633.1,1025.5z M638.3,957.7
					c-15.4,10.6-30.8,21.2-46.2,31.9c0.2,0.3,0.5,0.7,0.7,1c17.4-7.8,32.1-19.4,46.4-31.6C638.9,958.5,638.6,958.1,638.3,957.7z
					 M631.7,999.6c-9.8,6.6-19.5,13.1-29.3,19.7c0.2,0.4,0.5,0.7,0.7,1.1c9.8-6.5,19.7-12.9,29.5-19.4
					C632.4,1000.5,632.1,1000,631.7,999.6z M916.2,793v-31c-0.3,0-0.6,0-1,0v31C915.6,793,915.9,793,916.2,793z M847,750.8
					c5.3,5.3,10.3,11,15.6,16.3c1.7,1.8,4.1,2.9,6.1,4.4c0.2-0.3,0.5-0.6,0.7-0.9c-0.2-0.5-0.4-1-0.7-1.3
					c-6.6-8.1-13.1-16.3-19.8-24.3c-0.8-0.9-2.6-1.5-3.9-1.4c-9,0.6-18.1,1.5-27.1,2.3s-18,1.5-26.5,2.3c-0.2-2.2-0.3-4-0.5-6.6
					c1.9-1.5,5.2-3.4,7.3-6.1c7.3-9.3,14.2-19,21.1-28.6c1.5-2.1,2.7-2.5,5.1-1.7c8.8,3,17.8,5.7,26.7,8.4c1.1,0.3,2.3,0.5,3.9,0.9
					c-0.2-1.6-0.2-2.7-0.6-3.7c-1.4-4-3.3-7.9-4.3-12c-2.2-10-3.9-20.2-5.9-30.3c-1.2-5.8-2.6-11.5-4.1-18c2.5,0.7,4.2,1.1,5.9,1.6
					c10.5,2.7,21,5.3,31.5,8.1c6.2,1.6,12.4,3.1,18.4,5.2c1.8,0.6,3,2.8,4.4,4.4c1.1,1.3,1.9,2.9,2.9,4.4c0.5-0.2,1-0.4,1.5-0.6
					c-3.3-29.8-6.5-59.6-9.8-89.4c0.3-0.1,0.5-0.2,0.8-0.4c8.9,10.2,17.7,20.3,26.6,30.5c0.5-0.3,0.9-0.6,1.4-0.9
					c-16.1-36.2-35.9-70.5-53.5-106.5c1.6,0.4,3.3,1.3,4.2,0.8c4-1.9,6.1,0.9,8.8,2.8c6.5,4.5,13.1,8.9,19.6,13.4
					c3.2,2.2,6.5,4.3,9.3,7c9.8,9.6,19.3,19.4,28.9,29.1c1,1,2.1,1.9,3.7,3.5c-0.1-1.7-0.1-2.4-0.2-3.1c-1.9-15.6-3.6-31.3-5.6-46.9
					c-0.9-7.2-1.1-14.6-3.4-21.3c-9.1-26.2-18.9-52.1-28.4-78.1c-0.4-1.2-0.8-2.5-1.2-3.7c0.2-0.1,0.4-0.2,0.7-0.4
					c12.7,12.2,25.5,24.5,38.2,36.7c0.2-0.1,0.4-0.3,0.6-0.4c-22.1-57.2-44.1-114.5-66.4-172.2c7.7,2.5,14.6,4.9,21.6,7.2
					c0,0-0.1,0-0.1-0.1c8.2,3.4,16.3,6.7,24.5,10.1c0.1-0.3,0.3-0.6,0.4-0.9c-13-13-26.1-26.1-39.6-39.6c8.2-2.7,16.2-0.1,22.7-5
					c-1.4-0.9-2.9-1.5-4.3-1.2c-4.5,0.8-9,1.8-13.5,2.9c-4,0.9-6.1-1-7.4-4.4c2.4-0.7,5.2-0.6,6.5-1.9c2.7-2.7,5.3-2.4,8.4-1.3
					c1.1,0.4,2.3,0.5,4.6,0.9c-2.1-2-3.3-3.1-4.5-4.2c-19.3-17.2-38.5-34.4-57.9-51.4c-8.3-7.3-16.9-14.1-25.6-20.9
					c-11.2-8.7-25-12.1-37.8-17.6c-11.2-4.9-23-8.4-34.4-12.4c0.4-0.2,1-0.5,1.7-0.8c-6.6-4.5-13.9-4.1-21.1-4.6
					c-27.4-1.9-54.8-3.7-82.2-5.6c-16.8-1.1-33.7-3.4-50.5-3c-43.6,0.9-87.3,3.1-130.9,4.6c-11.6,0.4-23,1.7-34.3,4.7
					c-7.3,1.9-14.6,3.7-21.9,5.3c-25.4,5.8-50.8,11.4-76.2,17.2c-2.3,0.5-4.8,1.7-6.5,3.2C285.4,186.1,250.1,217,215,248
					c-25.5,22.5-51.6,44.4-72.1,72c-3.6,4.9-7.2,10-12.4,13.8c-2.3,1.7-3.8,4.4-5.7,6.6c0.3,0.3,0.5,0.6,0.8,0.8
					c11.1-6.3,22.3-12.5,33.4-18.8c0.1,0.2,0.2,0.4,0.3,0.5c-17.8,25.4-35.7,50.8-53.5,76.2c0.3,0.2,0.5,0.4,0.8,0.7
					c20.4-10,40.8-20.1,62-30.5c-5.9,19-11.5,36.9-17.1,54.9c0.2,0.1,0.5,0.2,0.7,0.3c12.5-10.9,25.1-21.8,37.6-32.7
					c0.4,0.2,0.8,0.5,1.2,0.7c-13.7,44.3-27.5,88.5-41.2,132.8c0.3,0.1,0.5,0.2,0.8,0.3c17.1-20,34.2-40,51.3-60
					c0.3,0.3,0.7,0.5,1,0.8c-0.1,1.2-0.1,2.5-0.3,3.7c-2.4,15.3-5,30.5-7,45.8c-0.9,6.4-3,11.9-6.5,17.3
					c-7.2,11.3-14.1,22.7-21.1,34.1c-1.4,2.3-2.8,4.7-4.2,7c0.2,0.3,0.5,0.6,0.7,1c11.7-6.2,23.3-12.4,35.8-19
					c-6.1,22.7-12,44.5-17.8,66.4c0.4,0.2,0.9,0.5,1.3,0.7c10.6-10.3,21.2-20.7,31.4-30.6c-11.1,45.2-22.4,91.3-33.7,137.4
					c0.5,0.2,1,0.4,1.5,0.5c10.5-15.2,21.6-30,28.6-47.5v4.1c1.7-2,2.9-3.4,4.5-5.4c-3.2,15-6.3,29.2-9.5,44.3
					c2.8-1,4.6-1.5,6.4-2.2c4.6-2,9.2-4.1,13.7-6.2c23.8-11.4,48.6-20.7,71.1-34.8c-1.3,1.2-2.6,2.4-4,3.7c1.7-0.2,3.3-0.4,5.4-0.6
					c-6.4,13.8-12.9,28.7-20.1,43.4s-15,29.2-22.5,43.7c0.3,0.4,0.5,0.8,0.8,1.3c1.9-0.2,3.9,0,5.7-0.6c14.7-5,29.1-10.4,43.9-15
					c11.5-3.5,21.4-9.1,29.2-18.3c0.9-1,2.2-1.7,3.4-2.5c-2,7.3-4.5,14-7.1,20.8c-1.4,3.5-0.8,6,2.7,8c4.1,2.3,7.9,4.9,12.4,7.8
					c-2.6,1.1-4.7,1.8-6.6,2.9c-1.7,1-3.7,2.3-4.6,3.9c-4.8,8.8-10.1,17.4-13.8,26.6c-6.2,15.3-11,31.3-17.1,46.6
					c-7.1,18.1-11.2,36.7-13.2,56c-0.3,2.7-0.5,5.4-0.7,8.1c-0.3,0.1-0.7,0.1-1,0.2c-1.6-3.8-3.1-7.6-4.7-11.5
					c-1.8,12.4,26.4,85.6,38.5,98.1c-3.5-9.7-6.9-19.5-10.4-29.2c1.1,0.6,1.5,1.5,2,2.3c4.9,8.9,9.9,17.7,14.8,26.6
					c2.4,4.4,5,8.7,7.3,13.1c4.4,8.3,12.1,13.9,17.8,21.1c0.4,0.5,1.2,0.7,1.8,1.1c2.5,1.9,5.2,3.7,7.5,5.8c3.5,3.3,4.3,3.7,9.4,2.2
					c-5.3-4.5-10.4-8.9-15.3-13.1c0.1,0,0.7-0.3,1.8-0.7c-5.1-6-10.3-11.6-15-17.6c-3.5-4.5-6.7-9.3-9.5-14.2c-2.8-4.8-5-9.9-7.3-15
					c-1.6-3.7-3.9-7.6-3.9-11.4c0-13.2,0.3-26.5,1.3-39.7c1.6-19.5,4.8-38.9,5.1-58.5c0.1-8.9,2.1-17,7-24.5c3.9-5.9,7.6-12,11.5-18
					c2.6-4.1,5.4-8.1,8.2-12c2-2.9,4-1.8,6.2,0.2c3.8,3.4,7.7,6.7,11.6,9.9c5.9,4.9,10.3,10.6,9.6,18.9c-0.3,3.7-0.6,7.5-1.1,11.2
					c-1.7,11.7-3.7,23.4-5.4,35.1c-3.4,23-6.7,46.1-10.1,69.1c-0.7,4.9-1.9,9.7-2.9,14.5c16.5-46.8,27.2-94.9,32.4-144.3
					c21.4,50.5,38.5,102.8,64.5,151.2c-0.3-3.1-1.1-6-2.2-8.8c-18.5-48.3-37.1-96.6-55.7-144.9c-0.8-2.1-2.2-4.2-3.7-5.9
					c-2.3-2.5-2.7-5-1.6-8.3c2.2,3.9,4.3,7.5,6.2,11.2c9.3,18.7,18.7,37.4,27.8,56.2c8.8,17.9,17.1,36,26.1,53.8
					c4.1,8,8.1,16.9,14.5,22.8c12.2,11.3,26.7,19,44.5,15.6c1-0.2,2.8-0.2,3.1,0.3c2.1,3.7,5.4,2.4,8.2,1.9
					c7.1-1.3,14.1-3.2,21.1-4.8c3.8-0.9,7.5-1.7,11.3-2.6c0.9,7.4,0.2,7.9-6.2,9.9c-14.4,4.5-29.6,4.4-44.2,8.3
					c-11,3-23,0.4-33.9-3.8c28,15.1,55.4,6.4,83.5-3.3c-1.2,7.8-2.5,14.7-3.3,21.7c-0.4,3.1-1.7,4.8-4.9,5.1
					c-10,1-20.1,2.1-28.5,2.9c9.4,2.1,20.6,0.6,31.8-1.5c-1.3,11.6-2.5,22.5-3.6,33.1c5.3,0.3,10.1,0.5,14.8,0.7
					c0.7,0,1.8,0,1.9-0.4c1.9-4.4,6.4-3.9,9.8-5.5c6.3-2.9,12.8-5.4,19.2-8.1c-0.1-0.3-0.2-0.6-0.4-0.9c-8.7,3.3-17.5,6.6-26.5,10
					c-0.1-1.4-0.2-1.8-0.2-2.2c4.8-22.2,9.6-44.4,14.6-66.6c0.3-1.4,1.7-2.9,3-3.6c34.5-18.3,64.4-42.5,90.7-71.2
					c0.1-0.1-0.1-0.4-0.1-0.7c-1,0.5-1.9,1-3.3,1.8c3.1-5.4,5.9-10.3,8.9-15.5c1.9,5.1,1.9,6.5-0.3,9.4
					c-13.7,18.3-27.1,37-43.7,53.2c-0.7,0.7-1.1,1.6-1.7,2.4c0.4,0.3,0.8,0.7,1.3,1c20.5-13,31.4-34.7,46.6-53.2
					c0.4,1.5,0.7,2.4,0.8,3.4c4.3,27.6,8.4,55.3,26.4,78.4c0.5,0.6,0.3,2.6-0.3,3.2c-5.7,5.7-11,12-17.4,16.8
					c-14.7,11.1-29.8,21.5-45,32c-8.1,5.6-16.6,10.6-24.9,15.8c0.1,0.4,0.1,0.8,0.2,1.1c4.1-0.8,8.8-0.5,12-2.5
					c12.4-7.8,24.1-16.6,36.5-24.4c16.3-10.3,30.9-22.8,45.2-35.6c5-4.5,9.3-10.3,12.7-16.2c6.9-11.9,13.7-24,17.4-37.4
					c1.8-6.3,3.9-12.5,6.4-18.6c8.3-20.2,14.7-40.9,18.2-62.5c1.4-9.1,4.1-18.4,0.1-27.6c-1.5-3.4-2.2-7.2-3.6-10.7
					c-4.4-10.8-8.2-21.9-15.8-31.1c-2.4-2.9-3.9-6.4-5.8-9.6c-2.2-3.7-4.2-7.6-6.7-11c-3-4.1-6.4-7.7-10-12.1
					c3.9,0.3,7.2-0.1,10.1,0.8c7.1,2.4,14,5.2,20.8,8.4c4.2,2,7.6,2.4,11.4-2.8c6.3,40.1,8.5,79.1,12.7,118c0.4-0.8,0.6-1.6,0.6-2.4
					c1.4-29.1,1.8-58.3-1.2-87.3c-1-9.9-3.2-19.8-5.4-29.6c-1.1-4.8-0.8-5.9,4.1-6c7.1,0,14.2-0.1,21.2,0
					c11.1,0.3,22.2,1.1,33.3-0.7C843.5,748.6,845.8,749.6,847,750.8z M938.6,542.7c0.4,0.2,0.8,0.3,1.2,0.5c0.3,0.7,0.6,1.5,0.8,2.2
					c0.9,3.7,1.9,7.5,2.8,11.2c-0.5,0.3-0.9,0.6-1.4,0.9c-2.2-3.1-4.9-5.9-6.4-9.3C934.9,547.1,937.4,544.6,938.6,542.7z
					 M927.7,419.8c1.2,2.9,2.3,5.5,3.5,8.5C925.8,425.5,925.5,425,927.7,419.8z M912,283.3c-3.9-0.8-7.6-1.6-11.3-2.4
					c-1.5-0.9-2.9-1.9-4.5-2.9C903,274.6,903.8,274.9,912,283.3z M118.7,391.7c1.9-7.7,14.5-16,22.6-14.9c0.2,0.4,0.4,0.8,0.6,1.2
					C134.2,382.5,126.5,387.1,118.7,391.7z M160.8,302.6c5.8-6.6,13.6-15.3,21.3-24c0.6,0.6,1.1,1.1,1.7,1.7
					C178.5,291.5,166.8,296.3,160.8,302.6z M321.7,886.7c-0.9,27.6-1.9,55.2-2.9,82.8c0,0.5-0.2,1-0.7,2.6c-1.8-2.8-3.5-4.7-4.3-6.9
					c-3-8.9-5.4-17.9-10.4-26.3c-4.4-7.4-5.4-16.4-4.3-25.2c1.4-10.9,3.3-21.7,5.4-32.5c0.6-2.7,2.7-5.3,4.7-7.5
					c3.2-3.6,6.9-6.7,11.2-10.8c0.6,2.6,1.2,4.4,1.3,6.2C321.8,875,321.9,880.9,321.7,886.7z M342.3,816.7
					c-3.6,4.9-7.8,9.5-11.1,14.6c-6.5,10.1-12.5,20.4-18.8,30.6c-1.2,2-2.4,4.1-3.6,6.1c-0.2-0.1-0.4-0.2-0.6-0.3
					c8.7-21,17.3-42.1,26.2-63.5c3.4,3.2,6.3,5.7,8.8,8.6C343.7,813.5,343,815.7,342.3,816.7z M756,800.5c2.8,5.9,5.7,11.8,8.5,17.7
					c0.7,1.5,0.8,3.3,1.6,4.7c5.1,8.6,4.8,17.7,2.9,27c-3.1,15.1-6,30.2-9.1,45.3c-0.5-0.1-1-0.2-1.5-0.2c0.1-2,0.2-4,0.4-6
					c2.3-18.2,0.3-36.1-2.6-54c-0.3-1.9,0.3-4.4,1.4-6c3.2-4.6,4.5-9,2-14.4c-2-4.3-3.4-9-5-13.5C755,800.9,755.5,800.7,756,800.5z
					 M746.5,567c0.3,0.1,0.6,0.1,0.9,0.2c0,3.2,0.1,6.4-0.1,9.6c0,0.5-1.3,1.4-1.7,1.3c-0.8-0.2-2-1.3-1.9-1.7
					C744.4,573.2,745.5,570.1,746.5,567z M641.3,475.1c1.3,2.8,2.7,4.7,2.9,6.7c0.1,0.9-2.3,2.2-3.8,2.9c-2.5,1.2-5.1,2-7.6,3
					c-0.2-0.3-0.3-0.5-0.5-0.8C635.1,483.4,637.8,479.8,641.3,475.1z M532,472.7c3.3,1.5,2.9,3.9,2,6.4
					c-4.9,14.7-10.1,29.3-14.4,44.1c-2.2,7.4-2.9,15.2-4.3,22.8c0,0,0,0,0.1,0c-0.5,1.2-1.3,2.4-1.3,3.5c0.4,6.9-3,11.9-8.4,17.4
					c-0.6-2.9-1.2-4.8-1.3-6.7c-0.4-7.1-3.1-9.8-9.4-13c-3.7-1.8-8.3-4.2-8.5-9.9c0-1.3-1.4-2.6-2.1-3.9c-0.6-1.1-1.9-2.2-1.8-3.2
					c0.5-4-1.5-5.3-6.5-5.1C494.1,505.5,513.9,490.1,532,472.7z M430.2,569c0.8,0.4,1.3,2.2,1.2,3.3c-0.2,4-0.6,8.1-1,13.2
					c-5.9-2.8-11.9-5.7-17.9-8.5C414.9,569.8,423.7,565.8,430.2,569z M568.5,1029.3c-0.6,4.1-1.3,8.3-1.4,12.4
					c-0.1,3.7-1.7,5.3-5.2,5.5c-1.8,0.1-3.5,0.4-6.1,0.8c1.6-11,3-21.2,4.6-31.3c0.2-1,1.1-2.3,2-2.7c2.5-1,5.2-1.6,8.5-2.5
					C570.1,1017.8,569.2,1023.6,568.5,1029.3z M578.8,974.6c-2,9.4-4.1,18.8-6,28.2c-1.5,7.4-2.7,8.4-11.8,8.5
					c2.9-9.2,1.3-18.9,5.6-27.6c-2.8-1.4-0.9-4.6-0.5-7.1c0.2-1.2,2.3-2.4,3.7-2.9c2.9-0.9,6-1.2,9.3-1.9
					C578.9,972.8,579,973.7,578.8,974.6z M660.8,915.8c3.5-3.7,7-7.5,10.5-11.2c0.4,0.4,0.8,0.7,1.1,1.1
					C669.7,910.1,664.9,912.6,660.8,915.8z M747,882.5c1,11.2,1.9,22.4,2.2,33.6c0.1,4.4-1.2,9-2.6,13.3c-2.3,6.9-5.2,13.5-7.8,20.3
					c-4,10.5-10.1,19.8-17,28.6c-0.5,0.6-1.3,1-3.1,2.4c-3.5-10.9-7.6-20.8-9.6-31c-4.2-21.2-7.3-42.6-10.6-63.9
					c-0.3-1.9,0.6-4.4,1.8-6.2c9.6-15.1,15.9-31.6,20.5-48.8c0.2-0.9,0.3-1.8,0-2.8c-6.2,17-13.6,33.3-22.5,49
					c-0.4-0.1-0.7-0.1-1.1-0.2c0-4.9-0.9-9.9,0.2-14.5c1.8-7.4,5.5-14.3,7.3-21.7c1.9-7.8,2.9-15.9,3.7-23.9c0.5-4.8,0-9.8,0-14.7
					c0-0.9,0.2-1.9,0.4-3.8c2,2.2,3.4,3.8,4.8,5.3c6.5,7.3,12,15.1,17,23.6C741.1,844.3,745.3,863,747,882.5z M747.6,635.3
					c-0.5,7.4-1.5,14.7-1.4,22.1c0.2,16.3-2.9,32.1-6.1,48c-3.1,15.3-8.8,29.6-17.5,42.6c-10.3,15.4-20.6,30.8-30.8,46.2
					c-1.1,1.6-2,3.2-3.6,5.7c0-1.8-0.2-2.7,0-3.4c5.9-22.9,9.5-46.1,12.9-69.5c1.1-7.4,3.8-15,7.5-21.5c16.3-29.5,26.9-61.2,37-93.2
					c0.3-0.9,0.4-1.9,0.5-2.9c0-0.2-0.3-0.4-1-1.5c-1,2-1.9,3.5-2.6,5.1c-9.5,22.9-18.8,45.9-28.6,68.7c-2.9,6.8-6.6,13.2-10.3,19.6
					c-6,10.2-9,21.3-9.9,33c-2,24.8-7.3,49.1-12.8,73.3c-0.4,1.7-1.3,3.4-2.5,4.7c-9.1,10.2-18.3,20.2-27.4,30.4
					c-7.5,8.3-14.4,17.1-22.3,24.9c-10,9.9-20.2,19.6-32.9,26.1c-11.7,6-24.4,7-37.1,5.5c-15.1-1.9-30-5.5-43.2-13.4
					c-11.5-6.9-23-13.5-33.4-22.5c-22.4-19.5-46-37.5-69.2-56.1c-11.6-9.3-20.1-20.8-26.7-34.2c-7.9-16-12.1-33.1-17.2-50
					c-4.7-15.4-9.9-30.7-14.6-46.1c-1.9-6.4-2.9-13-4.3-19.6c-1.5-7.1-3-14.1-4.5-21.2c-0.8-3.8-1.6-7.6-2-11.5
					c-0.1-1.2,0.6-3.1,1.6-3.8c10.4-6.7,21-13.2,31.5-19.7c1.1-0.7,2.2-1.3,3.5-2c2.2,2.6,4.7,5.1,7.8,1.8c0.7-0.8-0.4-3.4-0.9-6.2
					c6.5-4.3,14-9.2,21.9-14.3c3.8,2.9,7.8,6.4,12.2,9.2c2.8,1.8,6.2,3.7,9.4,3.9c15.6,1,31.3,1.7,46.4-3.4c2.1-0.7,3.9-2.2,6.3-3.6
					c-5-4.1-9.6-6.9-13.1-10.8c-7.1-7.6-16-9.5-25.8-9.8c-6.2-0.2-12.5-0.7-19.3-1.8c2.1-1.5,4.2-3.1,6.4-4.6
					c10.1-7,12.7-7.7,23.9-2.8c5.5,2.4,10.8,5.9,15.1,10c5.6,5.4,11.1,10.5,18.6,13.1c0.8,0.3,1.4,0.8,2.5,1.4
					c-3,5-5.4,9.6-11.3,12.3c-8.3,3.8-15.9,9.2-24,13.5c-3.8,2-8.2,3.1-12.4,4.5c-1,0.4-2.1,0.6-3,1.3c4.9,1.9,9.8,1.3,14.3-1
					c10.1-5,20.1-10.3,30.1-15.5c1.6-0.8,3.5-1.2,5.3-1.8c1.1,7.5,7.2,9.4,11.5,13.1c0.4-0.3,0.7-0.6,1.1-0.9
					c-1.4-1.8-2.9-3.6-4.4-5.5c3.5-5,7.1-10.2,10.7-15.3c-0.3-0.3-0.7-0.5-1-0.8c-4.1,4.5-8.2,8.9-12.3,13.4
					c-0.4-0.3-0.8-0.6-1.1-0.8c3.8-5.5,7.5-11,11.3-16.6c-0.4-0.3-0.7-0.6-1.1-0.9c-4.3,4.6-8.6,9.2-12.9,13.8
					c-0.4-0.4-0.9-0.7-1.3-1.1c4.8-6.5,9.7-13,15.1-20.3c4.8,8,8.2,15.1,7.5,23.3c-1.1,11.5-2.5,23-3.8,34.5
					c-0.1,0.7,0.1,1.5,0.6,2.4c5.2-9.5,8.1-19.6,8.7-30.4c0.6-11.2-3.7-21-10.1-30.5c5.4-3.4,10.5-6.6,15.6-9.8
					c-0.2-0.4-0.4-0.7-0.6-1.1c-3.5,1.7-7.1,3.3-11.9,5.6c4-7.2,5.7-13.8,3.2-20.7c4.3-2.2,8.7-4,11.6-8.5c2.6-4.2,6.5-7.5,9.2-11.6
					c2.3-3.5,3.8-7.6,5.6-11.5c0.5-1.1,0.8-2.3,1-2.8c1,2.8,2.8,5.8,3,8.9c0.4,6.5,0.1,13.1-0.1,19.6c-0.1,2.5,0.7,5.2,0.6,7.1
					c-0.6,11.5-2.3,23-3.6,34.5c0,0.3-0.2,0.5-0.3,0.8c-0.3,1.4-0.6,2.7-0.9,4.1c1.6-0.5,3.8-0.5,4.7-1.6c4.1-4.6,11.7-4.9,13.2-12
					c4.2,1.7,4,3.7,2.5,6.6c-7,13.7-4.6,35.1,5.9,46c-0.3-1.4-0.5-2.7-0.9-4.1c-3.4-11.3-5.7-22.8-2.7-34.6
					c0.9-3.6,3.1-6.8,4.7-10.2c0.2-0.4,0.7-0.7,0.7-0.9c-0.9-6,2.6-8.4,7.5-10.7c2.3-1.1,4.7-4,5.4-6.5c2.5-8.3,7.4-14.9,12.5-21.6
					c10.4-13.7,20.7-27.3,31.3-40.9c1.4-1.8,3.8-3.1,5.9-4.3c2.5-1.3,5.2-2,7.8-3c6.8-2.6,6.8-2.6,9.5,4.2c0.2,0.6,0.5,1.3,0.7,2.1
					c7-4,13.8-7.9,20.8-11.9c-0.7-0.6-1.5-1.3-2.4-2.1c0.6-0.4,0.9-0.7,1.2-0.8c4.7-0.2,9.5-0.4,14.2-0.4c4.6,0,7.2-2.7,5.6-7
					c-1.4-3.8-3.6-7.5-6.1-10.8c-2-2.5-2-4.3-0.2-6.6c1.6-2.1,3-4.3,4.8-7.1c0.6,1.5,1,2.5,1.3,3.4c3.3,11.1,6.6,22.1,9.8,33.2
					c1,3.4,1.9,7,2,10.6c0.3,7.9,0.1,15.8,0.1,24.6c-3.2-1.4-6.7,1.3-8.2-3.1c-0.1-0.3-2-0.1-3.1,0c-10.3,1.4-11.2,1.3-18.6-2.2
					c0.5-1.6,1.1-3.2,2-5.7c-5.9,1-11.1,2-16.6,2.9c0.3,1.2,0.3,2.1,0.7,2.7c3.2,6,3.1,6.4-3.2,8.4c-9.9,3-18.5,8.2-26.4,15
					c-2,1.7-4.2,3.2-6.6,5c-0.1-1.1-0.2-1.8-0.3-2.8c-0.8,0.4-1.6,0.5-2,0.9c-7,7.7-16.8,10.6-25.5,15.5c-1.9,1.1-4,2.1-5.7,3.4
					c-2.5,1.9-4.4,4-1.4,7.2c0.6,0.6-0.2,2.5-0.4,4.6c0.6,0.9,1.8,2.7,3.1,4.5c-0.4-0.2-0.9-0.4-1.3-0.7c-2.5,3.1-5.1,6.1-7.5,9.3
					c-0.4,0.5,0.1,1.7,0.4,3.5c3.2-3.8,5.9-6.9,8.7-10.2c1.6,1.7,2.9,3.2,4.3,4.5c5.7,5.2,5.7,5.1,1.7,11.6c-2.5,4-2,6.4,2,8.6
					c13.4,7.4,27.4,12.5,43.1,9.1c1.2-0.3,2.3-0.5,3.6-1.8c-1.3-0.3-2.7-0.7-4-0.9c-4.8-0.7-9.8-0.8-14.5-2.1
					c-5.3-1.5-10.3-3.8-15.4-6c-3.7-1.6-7.3-3.4-11.2-5.3c0.5-1.2,1.2-2.5,1.7-3.8h5.8c-1.5-1.8-2.6-3.2-3.8-4.7
					c1.8-1.6,2.9-1.9,4.2,0.4c0.7,1.1,2.6,1.4,5.4,2.7c-2.2-5.7-1.3-9,3-10.2c1.8,3.1,3.5,6.1,5.4,9.3c-1.6-0.1-3.7-0.2-5.8-0.3
					c-0.1,0.5-0.2,0.9-0.2,1.4c6.6,1.1,13.4,3.5,19.8,2.9c10.5-1,20.8-3.8,31.1-6.2c7.4-1.8,9-8.3,10.4-15c2.3,0.5,4.6,1.1,7,1.6
					c0.3-0.5,0.5-1.1,0.8-1.6c-2-1.4-3.9-3.4-6.2-4.2c-13.2-4.7-26.6-6.8-40.6-2.8c-2.9,0.8-6.2,0.1-9.3,0.1c-0.1-0.3-0.3-0.7-0.4-1
					c2.1-0.8,4.1-2.1,6.3-2.4c10.7-1.5,21.5-2.8,32.3-4.2c0.4,0,0.7-0.4,2-1.1c-10.9-2-20.8-1.6-30.7,0.3c-0.2-0.4-0.4-0.8-0.7-1.1
					c5.6-4.5,10.8-9.9,17-13.4c10.3-5.8,21.3-10.4,32-15.4c1.2-0.6,3-0.2,4.5-0.2c2.6,0.1,5.1,0.4,7.9-0.4c-1.2-0.6-2.4-1.3-3.8-2
					c6.2-2.2,7.2-1.5,6.7,4.5c-0.9,13.3-1.8,26.7-2.7,40c-0.1,1.1-0.1,2.3,0.1,3.3c0.9,4.4,0.3,8.2-3.4,11.3c-1,0.8-1.4,2.4-2.6,4.7
					c3.4-0.7,5.7-1.2,7.5-1.6c5.1-7,10.1-13.9,15.5-21.4c1.5,3.2,3.2,6.1,4.3,9.1c2.6,7.8,9.5,9.5,16.1,10.7
					c2.3,0.4,5.1-2.2,7.7-3.4c4-1.9,4.4-1.7,4.6,2.7c0.5,9.3,1.6,18.6,1.6,27.9C749.3,620.3,748.2,627.8,747.6,635.3z M473.6,590
					c-3.6-0.4-6.6-0.8-9.8-1.2c0.8-3,1.4-5.5,2.1-8.4c3.8,1.9,7.4,3.8,11,5.6c-0.2,0.4-0.4,0.7-0.6,1.1c-1.5-0.4-3-0.7-5.3-1.3
					C472.1,587.5,472.6,588.4,473.6,590z M623.8,584.9c-2.1-4.8,0.9-8.7,7.3-9.8c-0.3,1.5-0.6,2.6-0.9,3.9
					C626.4,578.6,623.5,579.5,623.8,584.9z M635.3,587.9c3.2-4.5,5.6-7.9,8.3-11.7c0.8,1.6,1.4,2.9,2.2,4c2.4,3.5,1.9,5.1-2.3,6.2
					C641.2,586.9,638.9,587.2,635.3,587.9z M649.8,569.8c7.5-0.9,15.5-0.8,23.1,2.4c-3.4,11.1-13,10.5-21.4,12.2
					C650.9,579.2,650.4,574.7,649.8,569.8z M674.2,942.4c-5.7,5.4-13.8,13.1-22,20.8c0.2,0.2,0.5,0.4,0.7,0.7
					C660.8,955.9,668.7,948,674.2,942.4z M842.1,959.1c19.4-27.9,37.1-56.6,49.5-88.4C877.6,901.6,859.2,930,842.1,959.1z
					 M842.7,769.1c-0.5,0-1.1,0-1.6,0.1c0.4,7.2,0.7,14.4,1.1,21.6c0.2,0,0.3-0.1,0.5-0.1V769.1z M634.2,694.4
					c9.8,11.6,20,23.2,24.1,37.9c4,14.3,5.7,29.3,8.2,42.7c0.5-14,0-29.3-5.7-43.9C655.6,717.8,640.9,697.6,634.2,694.4z
					 M618.6,748.5c-12-0.9-22.9,2.6-34.1,6.6c-11.1,4-21.1,11.6-33.8,10.6c-2.7-0.2-5.4-0.6-8.1-0.7c-1.8-0.1-3.6-0.2-5.3-0.1
					c-3.3,0.3-6.6,0.8-9.9,1.2c-1.6,0.2-3.6,0-4.9,0.8c-6.8,4.2-14,8.1-20,13.3c-3.9,3.4-7.7,6-12.5,8c1.6,0,3.3,0.3,4.9-0.1
					c2.3-0.6,4.6-1.3,6.6-2.5c2.7-1.6,5-1.3,7.4,0.1c11.6,6.7,24.6,8.6,37.5,11c1.7,0.3,3.5,0.9,5.2,0.7c11.4-1.5,21.8-6.2,32.1-11
					c3.7-1.7,7.9-2.5,11.1-4.8c9.6-7,20-13.3,26.1-24c4.9,1.6,9.3,4.2,14.4,2.1c-5-3.8-9.7-7.3-14.4-10.7
					C620.4,748.4,619.4,748.6,618.6,748.5z M602.1,772.4c-10.7,8.9-23.6,11.9-36.8,14.5c-3.7,0.7-7.3,1.7-11,2.3
					c-16.1,2.7-31.1-0.1-46.1-7.9c6.5-6.5,12.7-11.7,21.9-11.2c2.3,0.1,3.5,0.8,4.3,3c1.6,4.3,3.4,8.4,5.2,12.6
					c0.5-0.2,1-0.3,1.5-0.5c-1.8-4.9-3.5-9.7-5.4-14.8c0.5-0.3,1.1-0.9,1.7-0.9c4.9,0.2,9.9,0.2,14.7,0.9c2.5,0.4,4.4,2.2,4.1,5.5
					c-0.1,1.6,0.9,3.3,1.5,5c0.4-0.1,0.7-0.1,1.1-0.2v-8.1c7.1-0.4,14.1-0.7,21.6-1.1v6.5c0.4,0.2,0.8,0.5,1.3,0.7
					c-1.8-7.3,2.6-7.8,7.5-8.7c6.5-1.1,13-3,20.1-3.8C606.9,768.3,604.5,770.4,602.1,772.4z M578.6,764.1c10.8-3.7,20.4-11.4,33.5-9
					C601.4,761.2,589.6,761.3,578.6,764.1z M649.1,756.9c0.7,7-2.4,12.7-6,18.2c4.9-1,7.8-3.9,8.6-8.5
					C652.3,763.2,652.7,759.6,649.1,756.9z M651.9,775.2c0.5,0.3,1,0.5,1.5,0.8c1.2-2.2,2.4-4.3,3.6-6.5c-0.6-0.2-1.1-0.5-1.7-0.7
					C654.1,770.9,653,773.1,651.9,775.2z M899.6,744.6c-4.4-0.8-8.9-1.6-13.3-2.4c-0.1,0.4-0.1,0.8-0.2,1.2
					C890.5,744.8,894.7,747.5,899.6,744.6z M1003.3,966.4c-0.7-17.6,1.1-35.4-4.8-52.5c-0.8-2.3-1.1-4.9-1.3-7.3
					c-0.6-5.3-3-9.3-7.9-11.4c-3.6-1.5-7.3-2.8-11-3.8c-9.6-2.8-19.6-2.9-29-1c-11.5,2.3-22.6,7-33.6,11.2
					c-7.9,3-15.6,6.8-23.1,10.6c-5.6,2.8-11,6-16.2,9.4c-1.5,1-2.9,3.3-3,5.1c-1.1,17.1-1.9,34.2-2.9,51.2c-0.1,1.9-0.5,3.9-1.2,5.7
					c-3.9,10-8.1,19.9-11.8,29.9c-4.2,11.6-7.9,23.5-11.8,35.2c0.4,0.3,0.8,0.6,1.2,0.9c0.9-1.2,2.2-2.3,2.6-3.7
					c5.9-18.3,11.7-36.7,17.6-55c0.6-1.8,1.5-3.5,2.3-5.3c0.9,1,1,1.7,1,2.3c0.4,18.6,3.5,36.5,11.5,53.5c3.3,7.1,8.5,9.6,15.1,7
					c-2.1-1.6-5-2.9-6.3-5.1c-3.6-6.4-7.3-12.9-9.4-19.8c-4.8-16-6.4-32.5-5.8-49.2c0.4-10.8,0.7-21.7,1.2-32.5
					c0.1-1.1,0.9-2.7,1.8-3.2c3.2-2,6.5-3.9,9.9-5.3c20-8.2,41-12.4,62.3-15c13.2-1.6,26.6-2,40.5-3c1.2,3.9,3.4,8.2,3.7,12.7
					c1.2,16.5,1.7,33.1,2.5,49.6c0.1,2.8,0.3,5.6-0.1,8.3c-1.3,7.8-2.5,15.7-4.5,23.4c-2.5,9.7-6.3,18.9-13.2,26.6
					c-3.8,4.3-7.4,8.8-11,13.1c4.4,1.1,7.2-1.5,9.8-4.6c1.5-1.8,2.6-4,4.2-5.7c8-8.3,12.3-18.5,14.8-29.4
					C1000.9,995.3,1003.8,981.2,1003.3,966.4z M941.6,933.5c-12-0.5-22.3,3.5-31.1,11.6c-1.6,1.5-3.2,3.2-4.3,5.1
					c-7.1,12-2.3,26.7,13.4,28.5c16.1,1.9,29.3-4.4,41.3-13.4c6.7-5,9.1-14,2.9-21.9C958.2,936.1,950.4,933.6,941.6,933.5z
					 M996.6,1049.4c0.8-1,1.8-1.9,2.4-3c4-7.1,7.9-14.3,11.8-21.4v-4.2c-5.1,9.3-10.3,18.5-15.4,27.8
					C995.8,1048.8,996.2,1049.1,996.6,1049.4z M1009.4,731.1c-1.4,35-5.9,69.6-15,103.5c-1.3,4.9-2.3,9.9-3.4,14.8
					c0.3,0.1,0.7,0.2,1,0.3c2.8-7.4,5.8-14.6,8.2-22.1c3.7-11.5,7.1-23.1,10.6-34.6v-67.8C1010.3,727.2,1009.5,729.2,1009.4,731.1z
					 M852.8,786.5c-0.3,0-0.6,0-1,0.1c0.9,17.6,1.8,35.2,2.8,52.8c0.4,0,0.7,0,1.1-0.1C854.7,821.6,853.8,804,852.8,786.5z
					 M861.3,910.3c0.7-2.4,1.2-3.7,1.6-5.2c11.6-42.3,18.4-85.5,21.7-129.3c0.7-9.7,0.1-19.3-2.3-29.9c-3.9,8.7-7.3,16.4-10.7,24.2
					c0.3,0.2,0.6,0.4,1,0.7c1.4-1.2,2.8-2.4,5.2-4.4c-2.1,24.6-3.6,48.3-6.3,71.8C868.6,862,864.8,885.6,861.3,910.3z M719.8,879.4
					c3.9-11.7,7.9-23.3,11.8-35c-0.3-0.1-0.5-0.2-0.8-0.3c-4.1,11.6-8.3,23.2-12.4,34.7C718.9,879.1,719.4,879.2,719.8,879.4z
					 M896.8,763.6c1.8,9.9,3.9,19.8,6.1,30.2c1.6-1.2,2.2-1.6,2.7-2.1c1.1,5.6,2.1,10.9,3.2,16.2l1.6-0.2c-1.3-17.3-0.5-34.8-3-52.1
					c-1.2,2.5-1.7,5-1.8,7.6c-0.2,2.7,0,5.3,0,8c-0.4,0-0.8,0-1.2,0c-0.4-3.8-0.9-7.7-1.1-11.5c-0.4-7.8-6.6-11.3-13.3-7.2
					c-2.4,1.4-2.3,3-0.1,4.5c0.9,0.6,1.9,1.4,2.9,1.5C896.2,758.8,896.3,760.9,896.8,763.6z M586.3,803.2c-0.2-0.1-0.6,0-0.8,0
					c-12.5,0.6-25.1,0.2-37.2,4.1c-11.8,3.7-22.8,1-33.4-4.1c-4.3-2.1-8.4-4.5-12.6-6.8l-0.8,0.5c1.5,1.5,2.8,3.2,4.4,4.4
					c9.9,7.5,21.3,11.9,33.2,15c2.8,0.7,6.1,0.4,9.1,0.1c8.3-0.7,16.6-2.3,24.9-2.2c9,0.1,16.5-1.7,23.8-7.7
					c9.2-7.4,16.3-16.2,21.9-26.4c0.4-0.8,0.7-1.7,1-2.2c-5.2,6.1-10.3,12.6-16.2,18.4C598.9,800.8,594.5,807.2,586.3,803.2z
					 M832.6,1007.1c0.3,0.2,0.6,0.3,0.9,0.5c2.9-5,5.8-10.1,8.7-15.1c-0.3-0.2-0.6-0.4-1-0.5C838.4,997,835.5,1002,832.6,1007.1z
					 M590.8,585.1c-0.3-0.3-0.7-0.6-1-0.8c-3.8,3.7-7.1,7.7-8.6,12.8c0.5,0.3,0.9,0.6,1.4,1L590.8,585.1z M570.2,703.6
					c3.4-2.5,6.6-4.9,12.1-3.5c-6.6,7.3-12.8,14.1-19.1,20.9c0.5,0.5,0.9,1,1.4,1.5c9.7-7.9,19.4-15.7,28.9-23.7
					c1.5-1.3,2.4-3.9,2.4-6c0-8.3-4-15.2-8.8-21.6c-0.5-0.7-1.9-0.7-2.8-1.1c-0.2,1-0.7,2.1-0.4,3c1,3.5,2.5,6.8,3.5,10.3
					c1.4,5.2,1.3,10.1-3.5,14.2c-6.6-5.5-11.2-6.3-16.6-3c-6.1,3.7-8.1,7.6-6.6,14.9C564.1,707.3,567.4,705.7,570.2,703.6z
					 M531.4,722.5c8.2,3.2,16.1,0.5,24.1-1.2c0-0.6-0.1-1.1-0.1-1.7c-8,0.5-16,1-24.1,1.5C531.4,721.6,531.4,722,531.4,722.5z
					 M587.8,598.6c2.6-3.6,5.2-7.1,8.2-11.4C590.1,588.6,586.8,592.9,587.8,598.6z M555.6,751.1c7.7-2.8,11.2-10,16-15.7
					c-0.4-0.5-0.9-0.9-1.3-1.4c-5.4,5.2-10.7,10.4-16.1,15.6C554.7,750.1,555.2,750.6,555.6,751.1z M421,743.2
					c-2.6-11.4-4.5-23.2-12-32.7c-14.4-18.3-26.5-38.2-38.3-58.2c-1.8-3.1-3.6-6.3-5.5-9.4c-0.4-0.7-1.2-1.2-1.8-1.7
					c-0.1,2,0.5,3.5,1.3,4.8c6.8,12.1,13.4,24.4,20.5,36.3c5.4,9.1,11.2,18,17.3,26.6c4.8,6.7,8.5,13.7,10.5,21.7
					c2.3,9.3,4.4,18.7,7,28c2.5,9.1,5.5,18,8.2,27c0.5-0.1,1-0.3,1.5-0.4c-0.1-0.7-0.1-1.3-0.2-2C426.6,769.9,424,756.5,421,743.2z
					 M447.3,797.9c-8.8-27.8-3.5-54.2,7.3-80.1C439.9,737.3,435.7,781.9,447.3,797.9z M454.1,623.8c0.1,1.1,1.7,2.4,2.9,2.8
					c0.7,0.2,1.9-1.2,3.7-2.3c-1.8-1.6-2.8-3.1-4.1-3.4C455.9,620.8,454,622.9,454.1,623.8z M588.1,740.5c8.6,3.4,17.4,6.1,26.9,3.7
					c-8.9-1.7-17.8-3.4-26.7-5.1C588.3,739.6,588.2,740.1,588.1,740.5z M515.2,712c-3.1-2.5-5.2-4.1-7.3-5.8
					c0.2-0.4,0.4-0.9,0.7-1.3c5.6,1.5,11.2,3,16.9,4.5c0.5-0.5,1-0.9,1.6-1.4c-1.3-2.2-2.1-4.9-3.8-6.6c-5.2-4.8-11.5-3.3-16.8-0.8
					c-3.6,1.7-5.7,1.6-8.4-0.8c-0.8-0.7-2.1-1.1-2.7-1.9c-0.8-1.1-1.9-2.6-1.8-3.8c0.9-6.3,2.1-12.6,3.2-18.9c0.3-1.5,0.3-3,0.5-4.5
					c-0.4-0.1-0.9-0.1-1.3-0.2c-2.3,6.2-4.7,12.4-6.8,18.7c-4.6,14.3-5,11.8,8.1,20.6C502.2,713.1,508,713.3,515.2,712z
					 M514.5,657.4c-6.1,2.8-11.3,11.1-10.1,14.5C507.8,666.9,511.2,662.1,514.5,657.4z M540.6,733.1c0.6-2,0.7-4,1.1-6
					c-0.4-0.1-0.9-0.3-1.3-0.4c-2.1,3.3-4.5,6.5-6.2,10.1c-1.2,2.5-1.8,5.5-2,8.3c-0.2,3,1.8,5.4,4.6,5.4c4.2,0,8.5-0.9,12.7-1.4
					c0-0.7,0.1-1.5,0.1-2.2c-2.9-0.8-5.8-1.9-8.8-2.3c-3.2-0.4-3.7-2-2.9-4.5C538.7,737.7,539.9,735.4,540.6,733.1z M550.8,821
					c9.2-0.9,18.3-1.8,27.5-2.7C573.8,814.3,554.1,817,550.8,821z M557,825.6c0.1,0.5,0.1,1,0.2,1.6c5.5-0.6,11-1.1,16.5-1.7
					c-0.1-0.7-0.2-1.3-0.2-2C567.9,824.2,562.5,824.9,557,825.6z M518.6,755.4c-8.5,8.2-16.6,16.8-22.9,26.8
					C505.5,775,512.6,765.7,518.6,755.4z M533,708c5.1,1.7,9.6,5.7,15.9,3.1l-15.4-5C533.4,706.7,533.2,707.3,533,708z M531.9,643.2
					c-3,5.1-1.6,10.7,3.8,15.8C534.4,653.5,533.2,648.8,531.9,643.2z M538.5,526.4c-4.5,14.6-5.7,29.3-6.8,44.1
					C536.9,565.5,541.9,531.4,538.5,526.4z"/>
			</g>
		</g>
	</g>
	<g id="Eyes" style="clip-path:url(#SVGID_00000164503632620515360070000002937193484563024264_);">
		<polygon class="st5" points="437.3,571.4 436.7,577.7 447.3,573.5 		"/>
		<path class="st5" d="M651.5,584.4c-0.6-5.2-1.1-9.7-1.7-14.6c7.5-0.9,15.5-0.8,23.1,2.4C669.6,583.2,659.9,582.6,651.5,584.4z"/>
		<path class="st5" d="M643.6,576.2c0.8,1.6,1.4,2.9,2.2,4c2.4,3.5,1.9,5.1-2.3,6.2c-2.2,0.6-4.5,0.9-8.2,1.5
			C638.5,583.4,640.9,579.9,643.6,576.2z"/>
		<path class="st5" d="M476.3,587c-1.5-0.4-3-0.7-5.3-1.3c1,1.7,1.6,2.6,2.6,4.2c-3.6-0.4-6.6-0.8-9.8-1.2c0.8-3,1.4-5.5,2.1-8.4
			c3.8,1.9,7.4,3.8,11,5.6C476.7,586.3,476.5,586.7,476.3,587z"/>
		<path class="st5" d="M631.1,575.1c-0.3,1.5-0.6,2.6-0.9,3.9c-3.8-0.4-6.7,0.6-6.4,5.9C621.7,580.1,624.7,576.2,631.1,575.1z"/>
	</g>
</g>
</svg>
