<?xml version="1.0" encoding="utf-8"?>
<!-- Generator: Adobe Illustrator 25.4.1, SVG Export Plug-In . SVG Version: 6.00 Build 0)  -->
<svg version="1.1" id="Laag_1" xmlns="http://www.w3.org/2000/svg" xmlns:xlink="http://www.w3.org/1999/xlink" x="0px" y="0px"
	 viewBox="0 0 1050 1050" style="enable-background:new 0 0 1050 1050;" xml:space="preserve">
<style type="text/css">
	.st0{display:none;}
	.st1{clip-path:url(#SVGID_00000170240846309488777770000015477090187735336590_);}
	.st2{fill:#EDD661;}
	.st3{fill:#FF0540;}
	.st4{fill:#FFFFFF;}
	.st5{fill:url(#SVGID_00000160172150200651553630000002136865408384635307_);}
	.st6{fill:#27C0E3;}
	.st7{fill:#6C543A;}
	.st8{fill:url(#SVGID_00000058548063442297945390000017146413854819746989_);}
</style>
<g id="Kleuren" class="st0">
</g>
<g id="PNG" class="st0">
</g>
<g>
	<defs>
		<circle id="SVGID_1_" cx="525" cy="525" r="525"/>
	</defs>
	<clipPath id="SVGID_00000112598524050996436610000017402997432726043833_">
		<use xlink:href="#SVGID_1_"  style="overflow:visible;"/>
	</clipPath>
	<g id="Back" style="clip-path:url(#SVGID_00000112598524050996436610000017402997432726043833_);">
		<rect class="st2" width="1050" height="1050"/>
	</g>
	<g id="Shirt" style="clip-path:url(#SVGID_00000112598524050996436610000017402997432726043833_);">
		<polygon class="st3" points="258.9,909.2 65.6,865 65.6,1105.7 229.1,1091.3 284.6,1001.8 		"/>
		<path class="st3" d="M660.1,1011c0,0,57.1,15,61.9,24s1.9,49,1.9,49l-53.5-8.2L660.1,1011z"/>
	</g>
	<g id="Haar" style="clip-path:url(#SVGID_00000112598524050996436610000017402997432726043833_);">
		<path class="st4" d="M252.8,818.8c0-2.3-8.2-41-8.2-41l4.7-34.8l-8.2-52.8l-17.8-59.6l-18.8-101l3.7-36.7l-2.2-48.3l-13.8-67.3
			l1.1-17.3l77.4-104.9l52.5-61.2l108.1-56.5l109.1-21l52.2-1.5l93.5,11.3l86.6,59.7l35.9,41.3l15.6-3.9h38.2l26.5,17.1l4.7,15.6
			l-25.7-16l-40.5,5.1l-5.6,19.2l-0.2,2.1l14.1,11.9l5.7-1.3l-17.1,60.8l3.1,36.6l-22.6,70.9L793,411.9l-0.8-76.4L252.8,818.8
			L252.8,818.8z"/>
	</g>
	<g id="Face" style="clip-path:url(#SVGID_00000112598524050996436610000017402997432726043833_);">
		
			<linearGradient id="SVGID_00000155142788410432885960000007484473179166532532_" gradientUnits="userSpaceOnUse" x1="244.6" y1="399.45" x2="811.4" y2="399.45" gradientTransform="matrix(1 0 0 -1 0 1050)">
			<stop  offset="2.149415e-03" style="stop-color:#D1CDC8"/>
			<stop  offset="0.4084" style="stop-color:#CFCAC5"/>
			<stop  offset="0.7616" style="stop-color:#C7C2BA"/>
			<stop  offset="1" style="stop-color:#BFB9AE"/>
		</linearGradient>
		<polygon style="fill:url(#SVGID_00000155142788410432885960000007484473179166532532_);" points="665.4,240.4 601.2,219.2 
			552.7,208.5 504.3,220.3 473.5,215.6 472.4,227.4 400.3,257.2 425,260.7 393.2,281.2 398.2,285.5 386.8,296.8 393.9,313.8 
			418.7,346.3 422,359.8 393.2,388.8 374.4,427 381.2,518.9 364.2,536.6 341.6,550.1 331.7,530.2 323.2,506.2 308.3,490.6 
			283.6,486.4 255.3,497 244.6,532.4 244.6,575.5 252.4,627.9 277.2,687.3 327.4,724.1 270.8,1092.6 587,1075 574.3,948.3 
			699.5,938.4 713.7,893.2 726.4,847.2 742.7,787.7 760.4,722 786.5,684.5 788.7,601 787.9,576.9 810.8,523.8 811.4,513.7 
			806.1,496.5 796.5,468.6 790.8,321.8 767.2,278.6 772,250.8 755.7,248.9 749,240.2 724.1,248.9 708.2,245 683.7,272.7 		"/>
	</g>
	<g id="Teeth" style="clip-path:url(#SVGID_00000112598524050996436610000017402997432726043833_);">
		<g id="Eyes">
			<path class="st4" d="M510.2,535.9c-9.1-3.2-16.6-5.9-24.2-8.6c0-0.8,0-1.6,0-2.4c5.8-2.3,11.7-4.5,17.6-6.8
				C505.6,523.6,507.5,528.7,510.2,535.9z"/>
			<path class="st4" d="M567.3,533.8c-6,0.3-12,0.6-18.9,0.9c1.8-4.1,3.1-7.1,5.1-11.6c5.1,2.6,9.9,5,14.7,7.5
				C568,531.7,567.6,532.8,567.3,533.8z"/>
		</g>
		<g id="Iris">
			<path class="st6" d="M544.4,523c0,11.1-0.8,12.1-10.6,11.3c-4.8-0.4-9.6-1.8-14-3.7c-1.7-0.7-3.7-4.4-3.2-5.9
				c0.7-2.1,3.7-3.4,6.8-5.8c0,4,0,6.2,0,11c5.2-2.4,9.1-4.2,13.1-5.9c-0.2-0.7-0.5-1.4-0.7-2.1C538.5,522.2,541.3,522.6,544.4,523z
				"/>
			<path class="st6" d="M726.7,557.2c0.8,1.5,1.3,3.3,2.4,4.6c2.7,3,6.5,4.1,8.2-0.1c2.4-6,5.4-2.5,8.8-2.5
				c-2.9,7.7-17.9,11.3-22.5,5.7c-1.3-1.6-0.2-5.1-0.2-7.7C724.4,557.2,725.5,557.2,726.7,557.2z"/>
		</g>
		<path class="st4" d="M604,751.3c-10.2-1.1-7.8-9.3-9.5-16.1c10.9,0,21.4-0.9,31.7,0.2c11.3,1.2,22.5,4.1,33.7,6.4
			c3.4,0.7,8.1,0.8,6.6,6.4c-1.2,4.4-2.4,9.7-9,8.6c-7.4-1.2-14.7-2.9-22.1-4.3c-1-0.2-2,0-3.4,1.1c5.8,2,11.7,4.1,17.5,6.1
			c-0.1,0.6-0.2,1.2-0.3,1.9c-21.8-6.3-44.5,2.7-66.2-3.8c-0.1-0.9-0.1-1.8-0.2-2.7C589.9,753.8,597,752.5,604,751.3z"/>
		<path class="st4" d="M591.7,749c-5.3-3.1-13,5.7-16.1-4.3c-1.4-4.4-1-9.5,6.2-9.7C588.8,734.8,591.3,737.7,591.7,749z"/>
		<path class="st4" d="M670.2,744.5c2.7,0.5,5.1,1.1,7.5,1.5c0.5,9.7-1.5,11.7-10.1,10.4C668.3,752.8,669.1,749.2,670.2,744.5z"/>
		<polygon class="st7" points="431.1,468.2 462.4,452.6 531.2,424 568.7,438.9 626.6,460 640.9,471.6 621.1,486.6 603.4,480.5 
			567.3,466.9 519,451.2 440,471.6 		"/>
		<polygon class="st7" points="717.1,481.2 719.8,513.8 741,505.7 770.9,498.2 790.7,507 811.4,513.7 807.7,502.9 785.9,488.6 
			756.6,478.4 726.7,477.1 		"/>
	</g>
	<g id="Outline" style="clip-path:url(#SVGID_00000112598524050996436610000017402997432726043833_);">
		<g>
			<g>
				
					<linearGradient id="SVGID_00000041267424058118721220000015756285985575736752_" gradientUnits="userSpaceOnUse" x1="897.1996" y1="459.857" x2="121.1" y2="459.857" gradientTransform="matrix(1 0 0 -1 0 1050)">
					<stop  offset="2.149415e-03" style="stop-color:#3329FF"/>
					<stop  offset="4.163915e-02" style="stop-color:#3027EE"/>
					<stop  offset="0.1629" style="stop-color:#2920C0"/>
					<stop  offset="0.2886" style="stop-color:#221B98"/>
					<stop  offset="0.4171" style="stop-color:#1D1778"/>
					<stop  offset="0.5492" style="stop-color:#19135F"/>
					<stop  offset="0.6864" style="stop-color:#16114D"/>
					<stop  offset="0.8319" style="stop-color:#150F42"/>
					<stop  offset="1" style="stop-color:#140F3F"/>
				</linearGradient>
				<path style="fill:url(#SVGID_00000041267424058118721220000015756285985575736752_);" d="M423.1,269.4c3.8-2.5,9.5-6.7,9.2-9.7
					c-0.6-6.4-7.5-4.4-12.2-4.9c-0.2,0-0.4-0.7-0.7-1.3c16.1-7.5,32.3-15,48.4-22.5c-22,22.2-22,22.2-21.7,54.7c0,0.5,0,1,0,1.6
					c0.1,30.8,0,61.6,0.3,92.4c0.2,22.7-4.2,44-17.7,62.9c-2.6,3.7-4.5,7.8-7.8,13.5c16.8-11.1,30.4-36.5,30.4-53.6
					c-0.1-46.7,0-93.5-0.1-140.2c0-6.2,1.8-11.1,6.4-15.2c7.9-6.9,15.7-14,23.5-21c-0.2-0.6-0.5-1.2-0.7-1.8
					c-6.2,1.5-12.8,2.2-18.6,4.7c-27.3,11.2-54.3,22.9-81.5,34.5c-1.2,0.5-2.5,1.1-3.3,2c-0.9,1.1-1.9,2.9-1.5,3.9s2.5,2,3.7,1.8
					c4.1-0.6,8.2-1.8,12.2-2.7c9.6-2.2,19.2-4.4,28.8-6.5c-6.8,5.6-14.3,9.3-21.4,13.5c-6.8,4.1-15.1,6.5-20,15.1c2.5,0,3.8,0.2,5,0
					c2.8-0.7,5.5-1.6,8.2-2.4l0,0l0,0c0,0-0.1,0.1-0.2,0.2l0,0c0,0,0.1,0,0.1-0.1l0,0C402.3,281.9,412.9,276,423.1,269.4z
					 M430.9,544.5c-8.9-5.5-17.8-10.9-26.8-16.4C410.2,537.9,420.9,540.6,430.9,544.5z M192.2,377.4c5.4,29.9,10.8,59.9,16.3,89.8
					c0.8-0.1,1.6-0.2,2.4-0.4c-2-13.9-3.6-27.8-6.3-41.5c-1.4-7.2-0.4-11.3,6.7-14.9c12.3-6.2,24-13.6,36-20.6l-0.5,0.3
					c0.1,0,0.2,0,0.3,0c0-0.1,0.1-0.2,0.1-0.3c19.3-11,38.5-21.9,57.8-32.9c-0.4-0.8-0.9-1.6-1.3-2.4
					c-33.6,18.1-67.3,36.2-101.1,54.4c-2.6-10.4-5.4-21.2-8.2-32C193.6,377.1,192.9,377.3,192.2,377.4z M375.8,313.3
					c2.3-0.6,4.7-1.6,7-1.5s5.5,0.7,6.8,2.2c10.1,12.4,19.8,25.2,29.6,37.8c2.5-3.2,4-5,5.4-6.8c-12.1-7-25.9-24-29.2-36.3
					c6-3.4,12.1-6.8,18.2-10.2c-0.4-0.9-0.8-1.7-1.2-2.6c-6.9,2.3-13.9,4.5-20.8,6.8c-0.6-0.7-1.2-1.3-1.8-2
					c2.1-2.2,3.8-4.9,6.3-6.5c11-7,22.2-13.6,33.2-20.5c1.7-1.1,2.9-2.9,4.3-4.3c-0.5-0.6-0.9-1.3-1.4-1.9c-2.6,1.3-5.3,2.5-7.9,3.9
					c-10.8,5.6-21.6,11.2-32.4,16.9c-0.5,0.5-0.9,1.2-1.4,1.6c-9.2,6.7-9.3,6.7-6,16.4c-3.2,1.7-6.4,3.3-9.6,5
					C375.2,311.9,375.5,312.6,375.8,313.3z M440.8,459.6c-5,3.3-10.2,6.3-14.9,9.9c-0.9,0.7,0,3.8,0,5.8c1.9-0.4,4.6-0.1,5.7-1.2
					c3.9-4,7.2-8.5,10.7-12.8C441.9,460.7,441.4,460.2,440.8,459.6z M424.9,489.9c-4.4-9.1-8.7-17.9-13.8-28.4
					C411,474.2,417.7,487.2,424.9,489.9z M409.7,484.3c5.6,9,9.7,19.8,22.6,20.2C424.3,497.4,417,490.8,409.7,484.3z M230.4,405
					c-5.8,2.3-11.3,5.4-16.7,8.5c-2.1,1.2-3.6,3.4-5.3,5.1c0.5,0.6,1,1.2,1.5,1.8c19.1-9.5,38.1-19,55.1-27.4
					c-5.3-0.8-11.6-1.7-18-2.7C244,398,237.9,402,230.4,405z M705.9,742.9c-7.2-3.3-9.4-9.8-13.4-15.1c-1.7-2.3-2.9-5-4.6-7.3
					c-1-1.4-2.9-3.5-3.7-3.3c-1.7,0.6-3.2,2.4-4.2,4c-0.9,1.5-0.6,3.9-1.6,5.1c-1.8,1.9-4.2,4.4-6.4,4.5
					c-11.2,0.8-19.3-4.3-24.8-14.1c-3.2-5.7-6.6-11.4-10.8-18.5c-3.8,12.6,7.2,18.7,8.6,25.9c-42.6,1.3-85,2.7-127,4
					c1.8-1.2,4-2.7,7.5-5c-12-2.1-22.3,2.1-25,10.2c-0.9,2.6,0.8,6.1,1.7,9.1c0.1,0.2,4.6,0,5.1-1c3.5-7.1,7.9-4.1,13-2
					c22.8,9.6,45.7,19,68.7,28.2c2.8,1.1,6.2,1.9,9.1,1.4c21.6-3.5,42.7-0.4,63.5,5.1c7,1.9,13.1,0.8,18.5-3.2
					c6.3-4.6,12-10,17.9-15.1c1.9-1.6,3.6-3.3,6.1-5.6c1.5,3.2,2.2,5.4,3.5,7.2c0.9,1.3,2.6,2.1,3.9,3.1c0.7-1.7,2.6-3.9,2.1-5
					C711.4,751.2,709.6,744.7,705.9,742.9z M575.6,744.7c-1.4-4.4-1-9.5,6.2-9.7c7-0.2,9.5,2.7,9.9,14
					C586.4,745.9,578.7,754.7,575.6,744.7z M666.6,748.2c-1.2,4.4-2.4,9.7-9,8.6c-7.4-1.2-14.7-2.9-22.1-4.3c-1-0.2-2,0-3.4,1.1
					c5.8,2,11.7,4.1,17.5,6.1c-0.1,0.6-0.2,1.2-0.3,1.9c-21.8-6.3-44.5,2.7-66.2-3.8c-0.1-0.9-0.1-1.8-0.2-2.7
					c7-1.3,14.1-2.5,21.2-3.8c-10.2-1.1-7.8-9.3-9.5-16.1c10.9,0,21.4-0.9,31.7,0.2c11.3,1.2,22.5,4.1,33.7,6.4
					C663.4,742.5,668.1,742.7,666.6,748.2z M667.5,756.4c0.8-3.6,1.6-7.2,2.7-11.9c2.7,0.5,5.1,1.1,7.5,1.5
					C678.2,755.7,676.2,757.7,667.5,756.4z M651.7,672.4c-0.7-1.2-2.3-2.3-3.7-2.6c-10.3-2.3-20.6-5.3-31.2-0.5
					c-3.6,1.7-7.8,2.1-13.1,3.4c-0.6-12.4-10.8-23.7-0.3-36.2c-3.7,2.7-7.8,5.8-8.7,9.6c-1,4.3,0.7,9.4,1.5,14
					c0.9,4.8,1.9,9.7,3.5,14.3c1.5,4.5,4.4,6.6,9.7,4.6c3.7-1.4,8-1.2,12-1.7c-0.3,0.8-0.7,1.7-1,2.5c3.1,2.5,6.1,5.3,9.5,7.3
					c3.8,2.2,8,3.6,12,5.4l0,0l0,0l-0.2-0.2C647.6,691.2,654.6,677.3,651.7,672.4z M718.6,425.7c-16.3,10.9-5.5,26-6.9,39.2
					C715.6,452.1,703.9,436.8,718.6,425.7z M638.1,696.6c0.7,6.2,11.8,10.5,18.2,7.1c-4.8-3.8-9.5-7.5-14.2-11.2
					C640.7,693.9,637.9,695.5,638.1,696.6z M893.4,249.2c-2.1,4.8-4,0.4-6-0.6c-6.5-3-12.8-7.8-19.5-8.6c-23.7-2.7-46.7,0.8-68,12.5
					c-2.1,1.2-4.3,2.3-7.5,4c11.1-14.5,22.5-26.6,39.4-32c-5.3-0.1-10.1,0.8-15,1c-2.3,0.1-5.3-0.4-6.9-1.9
					c-3.9-3.8-6.9-8.5-10.7-12.4c-12.7-13.4-24.2-28.4-38.7-39.5c-20.2-15.5-42.7-28-64.4-41.6c-3-1.9-6.7-2.8-10.1-4.1
					c-0.3,0.6-0.5,1.2-0.8,1.8c10.2,6.2,20.1,12.9,30.6,18.4c11.2,5.8,13.8,15.3,12.2,26.3c-0.8,5.8-2.9,11.8-5.9,16.8
					c-8.7,14.8-18.2,29.2-27.3,43.8c-1.4,2.2-2.5,4.6-3.7,6.9c0.7,0.5,1.4,1,2.1,1.5c2-2,4.4-3.7,5.9-6
					c7.6-12.2,15.1-24.4,22.2-36.9c7.4-13,14.5-26.3,9-42.7c21.9,18,41.6,37.5,59,58.6c-14.2,6-27.4,11.5-41.1,17.3
					c6.3-7.7,12.2-15.1,18.2-22.5c-8.2,6.8-15.4,14.3-23.2,21.3c-7.9,7.1-16.3,13.6-24.4,20.4c-0.6,0.1-1.3,0.2-1.9,0.3
					c-0.7,1.3-1.4,2.7-2.1,4c0.4,0.4,0.8,0.8,1.2,1.2c10.8-5,21.5-9.9,32.3-14.9c-5.6,5.9-11.9,10.5-17.9,15.5c-1.7,1.4-2.4,4-3.6,6
					c2.4-0.2,4.8-0.2,7.1-0.6c2.7-0.5,5.4-1.4,8.1-1.9c3.5-0.6,7.4-0.5,10.6-1.7c5.1-1.9,9.9-4.8,14.8-7.2c0.4,0.7,0.7,1.4,1.1,2
					c-10.3,6.3-20.5,12.6-30.8,18.8c0.4,0.6,0.7,1.2,1.1,1.9c7.2-3.3,14.3-6.5,21.5-9.8c0.9,0.6,1.7,1.2,2.6,1.8
					c-2.1,6.8-4.1,13.6-6.7,22.2c4.3-2.6,6.9-4.1,9.3-5.6c16.4,19,23.2,36.6,24.1,64.7c0.8,22.7,0.8,45.4,1.6,68.1
					c0.6,18.7,1.9,37.4,3,56.1c0.1,1.6,1.2,3.2,1.9,4.8c3.7,8.1,7.4,16.2,11.2,24.4c-0.7,0.4-1.4,0.8-2.2,1.2
					c-6.2-5.5-11.8-11.9-18.6-16.4c-16.9-11.3-36.4-11.4-55.7-10.8c-10.7,0.3-17.1,6.9-17.8,16.9c-0.2,3.3,0.8,6.7,0.6,10
					c-0.8,11-4.7,20.8-11.7,29.4c-7.3,8.9-10.5,18.3-8.2,30.3c4.2,21.5,7,43.3,10,65c2.5,17.7,3.5,13-11.1,21
					c-6.1,3.3-11.9,4.6-17.5-1.7c-2.7-3.1-6.5-5.2-10-7.4c-11.4-7.4-21.9-6.2-34.4,5.3c4.6-1.1,7.7-1.1,9.7-2.5
					c9.7-6.9,17.6-2.4,25.4,3.6c2.5,1.9,5,3.8,7.4,5.8c8.6,7.4,11.1,7.7,21.3,2.1c3.9-2.1,7.6-4.4,11.5-6.5c0.4,0.7,0.8,1.4,1.2,2.1
					c-11.9,10.2-28.6,13.8-38.9,26.4c15.6-1.9,26.6-12,39.4-22.7c0.9,8.2,2.2,14.3,2.1,20.3c-0.1,4.6-2.7,7.8-8.4,5.4
					c-13-5.4-24.8-0.6-31.1,12.6c-2.7-0.8-5.4-2-8.1-2.1c-1.5,0-3,2.1-4.5,3.2c1.4,1.1,2.7,2.9,4.3,3.3c10.5,2.6,21.2-6.6,31.8,0.4
					c0.5,0.3,1.5-0.2,2.3-0.4c12.9-3.7,21.6-20.1,17.6-33c-1.4-4.5-3.1-9-3.7-13.6c-2.5-19.1-4.6-38.2-6.9-57.3
					c-0.3-2.9-0.8-5.8-1.4-9.5c7.1,3.2,13,5.8,18.9,8.3c0.4-0.7,0.7-1.4,1.1-2.1c-5.7-3.9-11.7-7.6-17.2-11.8
					c-7.9-6-9.8-23.3-2.7-28.8c3.5-2.7,8.9-3.6,13.6-3.9c9.8-0.6,19.6-0.2,29.3-0.2c0-0.7,0-1.4,0.1-2.1
					c-11.2-1.7-22.3-3.4-33.5-5.1c-0.2-0.7-0.3-1.3-0.5-2c2.6-1.9,5.2-3.8,7.8-5.7c8.5-6.1,17.3-11.8,25.3-18.5
					c4.8-4,24.6-8.8,31.9-6.2c10.1,3.5,20.1,7.3,30.2,10.6c5.1,1.7,7,4.8,4.7,9.4c-3.6,7.2-8,14-11.7,21.2
					c-4.6,9-10.9,17.9-12.4,27.5c-1.2,7.4,0.1,15.2,1.3,23c-0.8-18.2,8.6-33.7,16.9-49.5c2.8-5.3,6-10.5,7.9-16.1
					c1.4-4.1,1.9-9.2,0.9-13.3c-2.7-10.6-5.5-21.3-9.9-31.2c-6.5-14.5-6-27.3,5.1-39.1c0.9-0.9,1.8-2.1,2-3.3
					c4-20.3,11.3-39.8,15.8-59.8c3.2-14.3,1.6-29.6,2.3-44.5c0.2-3,0.7-6.4,2.2-9c7.5-13.4,10.7-28.1,13.8-43
					c1.2-5.9-0.2-9.6-4.7-13.4c2.9,24.7-17.3,64.6-44,79.7c1.8-6.8,1.9-13,4.8-17c6.4-8.8,14.7-16.3,21.5-24.8
					c8.1-10,13.8-26.4,13-32.8c-5.6,10-11.9,21.1-18.1,32.2c-0.7-0.4-1.3-0.7-2-1.1c3.6-14,7.8-27.8,5.9-43.1
					c-7.7,14.8-17,27.5-31.3,35.8c-5.1-7.9-10-15.4-15.2-23.5c3.8-2.6,7.3-5.3,11.1-7.4c14.3-7.7,28.1-17.2,43.3-22.1
					c13.6-4.4,28.8-3.6,43.4-4.8c1.7-0.1,3.8,1.5,5.4,2.6c6,4.2,11.9,8.5,19.2,13.6C895.7,255.9,894.6,252.5,893.4,249.2z
					 M731.7,480.5c-2.8,3.9-5.5,7.5-8.4,11.4C721.9,482.2,722.8,480.9,731.7,480.5z M758.3,483.3c-10.1,5.7-19.8,11.1-31.1,17.5
					C732.5,482.6,739.1,479.3,758.3,483.3z M740.9,503.7c6.8-14.8,25.2-21.3,37.7-13.7C766,494.6,753.9,499,740.9,503.7z
					 M807.9,510.8c-10.8-4.1-21.7-8.3-33.2-12.7c5.8-4.7,10.5-5,15.8-0.8c5.8,4.6,12.2,8.4,18.3,12.6
					C808.5,510.2,808.2,510.5,807.9,510.8z M802.5,417.6c-2-5.4-2-5.4,9.8-15.9C809.1,407,805.8,412.2,802.5,417.6z M822.7,361.4
					c0.4,0.1,0.9,0.2,1.3,0.3c-0.6,8-1.2,16-1.8,23.9c-5.2-0.6-9.1-1.1-13.7-1.7C813.5,376.1,818.1,368.7,822.7,361.4z M800.8,392.6
					c4.5-1.2,8.2-2.2,11.9-3.1c0.4,0.4,0.7,0.9,1.1,1.3c-3.9,4.3-7.8,8.7-12.9,14.4C800.8,399.8,800.8,396.4,800.8,392.6z
					 M812,292.2c0.6,0.3,1.2,0.7,1.9,1c-4.8,12-9.7,24-14.5,36.1c-0.9-0.2-1.8-0.4-2.7-0.6c-1.5-6.1-3-12.2-4.6-18.5
					C798.7,304.2,805.4,298.2,812,292.2z M765.1,245.6c-1.1,0.6-2.2,1.1-4.3,0.1c11.1-7.6,22.3-15.2,33.6-23c2.3,1.2,4.4,1.8,5.9,3
					c1.8,1.5,3.2,3.5,4.8,5.3c-1.8,1.3-3.9,4.1-5.2,3.8C786,231.3,776,239.8,765.1,245.6z M778.2,243.9c5.3-1.3,10.6-2.5,16.4-3.9
					C791.2,245.4,791.2,245.4,778.2,243.9z M564.2,156c0,0.7,0,1.4,0,2.1c35.2,1.6,42.2,16.2,53.8,36.1
					c-8.3-4.9-17.1-10.2-25.8-15.5c-0.6,0.7-1.1,1.4-1.7,2.1c18.3,12.3,36.8,24.3,47.1,45.1c-12.1-12.1-26.4-20.3-41.6-27.2
					c-0.5,0.7-1,1.5-1.4,2.2c8.2,5.1,16.4,10.2,24.7,15.2c-3,0.5-5.4-0.2-7.8-0.9c-23.9-7.1-48-12.6-73.2-6.6
					c-3.4,0.8-7.3,0.4-10.8-0.1c-20.2-2.8-40.3-5.9-60.4-8.7c-2.4-0.3-4.9,0.2-7.3,0.4c0,0.7-0.1,1.5-0.1,2.2
					c14.7,3.4,29.4,6.8,44.1,10.2c-0.2,0.8-0.3,1.6-0.5,2.4c-3.1,0-6.2,0.1-9.3,0c-15.9-0.3-31.8-0.9-47.7-1c-3.3,0-6.6,1.5-9.9,2.3
					c0.2,0.8,0.4,1.7,0.6,2.5c9,0,18,0,27.1,0c22.4,0,44.6,3.5,67.1-2.6c13-3.5,27.5-3.8,41.1-2.5c24.8,2.2,48.7,9.2,71.3,20
					c3.1,1.5,6.5,2.2,10.2,3.5c-5.4-7.2-10.2-13.6-15-20c0.6-0.5,1.2-0.9,1.8-1.4c12.2,15,24.3,30.1,36.9,45.7c0-1.6,0.1-2.3,0-3.1
					c-0.6-2.3-1.2-4.6-1.9-6.8c-7.9-25.2-23-45.9-40.2-65.5c-13.2-15.1-30.2-23.9-49-29C579.2,155.4,571.5,156.4,564.2,156z
					 M685.9,232c-1.7,3.9-2.8,8.1-4.1,12.1c0.9,0.6,1.8,1.2,2.6,1.8c1-1.7,2-3.4,3.1-5.1c10.9-18.2,20.8-36.8,25.4-57.7
					c3.3-14.9-1.8-30.6-13.6-42c0.7,1.8,0.9,3.1,1.6,4.1c12.4,17.7,8.3,35.6,0.3,53.4C696.4,209.8,690.9,220.9,685.9,232z
					 M373.9,446.9c-4.1,6.3-8.2,12.6-12.3,18.8c0.8,0.5,1.6,1.1,2.4,1.6c4.4-6,8.9-12.1,13.3-18.1
					C376.2,448.5,375.1,447.7,373.9,446.9z M235.7,362.8c3.7-2.8,7.9-5,12-7.3c7.5-4.2,15.1-8.3,22.7-12.5c-0.2-0.5-0.5-1-0.7-1.5
					c-9.9,3.8-19.7,7.6-29.6,11.4c-1.1-1.2-2.3-2.6-2.2-2.5c-12.9,10.9-25.2,21.3-37.4,31.7c0.4,0.5,0.9,1.1,1.3,1.6
					c7.1-4.5,14.1-8.9,23.1-14.6c-2.1,6.8-3.5,11.1-4.9,15.4c0.6,0.4,1.3,0.7,1.9,1.1c2.7-4.2,8.1-9.1,7.4-12.5
					C227.7,366.2,232.5,365.2,235.7,362.8z M426.8,361.7c-0.7-0.3-2.4-0.9-4.8-1.9c3.1-0.7,5-1.1,6-1.4c-1.1-2.5-2.1-4.7-2.8-6.3
					c-12.2,9.6-28,1.1-41.2,7.7c9.6,4.1,19.7,0.5,30.6,1.2c-11,2.8-20.9,5.3-30.7,7.8c0.2,0.9,0.4,1.9,0.6,2.8
					c8,4.5,15.3-3,24.3-2.5c-2.7,3.1-4.8,5.6-7.1,7.9c-13.7,13.7-27.1,27.5-41.2,40.8c-4.7,4.5-10.8,7.6-16.5,10.8
					c-32,18.1-64.2,36-96.2,54c-1.7,1-4,2.6-4.3,4.3c-1.7,10.8-10.4,15.7-17.7,21.7c-5.9,4.8-11.6,9.8-17.9,15.2
					c-2.1-8.5-1-14.5,5.7-19c3.7-2.4,6.5-6.1,10-8.7c22.6-16.6,39.7-40.1,65.6-52.7c0.2-0.1,0.2-0.9,0.3-1.9
					c-13.3,0.7-25.1,9.2-38.9,6.8c10-8.1,19.9-16.2,32.8-18.6c17.2-3.1,34.5-5.7,51.8-8.3c5.7-0.9,11.4-1.3,17.1-1.9
					c-0.1-0.7-0.1-1.5-0.2-2.2c-10.7-2.4-21.1,0.9-31.5,2.9c-10.5,2-20.9,4.5-31.3,6.8c24-11.2,47.2-24,73.9-27.5
					c-10.6-6.2-20.1,1.3-30.4,0.1c14.6-2.7,29.2-5.4,43.8-8.1c-0.1-0.7-0.2-1.4-0.3-2.1c-18.2,0.1-36.1,3.2-53.3,10.2
					c-17.3,7.1-34.4,14.7-50.3,21.5c-6.2-4.8-11.7-8.9-17.6-13.4c-15.7,6.6-29.7,16-41.9,28.1c-2,2-2.9,5.1-4.3,7.6
					c0.6,0.4,1.2,0.7,1.8,1.1c5.9-5.2,11.7-10.3,17.6-15.5c0.5,0.4,1.1,0.8,1.6,1.2c-4.5,14.4-9,28.9-13.5,43.3
					c5.2-3.7,8.5-8.4,12.7-12.1c3.7-3.3,9.2-3.6,11.7,0.8c1.8,3.1,2.2,9.7,0.2,11.8c-9.8,9.9-20.7,18.8-32.3,29
					c-0.3-4.7-0.4-7.4-0.6-10.2c-6.2,38.1-6,41.7,1.8,51.8c-4.9-11.1,0.6-18.1,8.7-24.3c2.1-1.6,3.8-3.6,5.8-5.2
					c19.8-16.1,37.8-34.5,64-41.1c13.6-3.4,26.6-9.3,39.6-14.7c5.1-2.1,10.2-5.3,14.1-9.3c11-11.2,21.3-23.1,31.9-34.8
					c-0.6,3.4-1.9,6.3-3.8,8.6c-14.2,16.6-28.3,33.4-43,49.6c-4.7,5.1-6.2,9.3-0.6,16c3.7-2.4,7.7-4.1,10.4-6.9
					c7.4-7.7,14.3-15.9,21.5-23.8c8.3-9.2,11.4-20.8,15.9-31.9c1.7-4.1,3.7-8,5.7-12C391,393,405.5,374.2,426.8,361.7z M313.2,461.4
					c-13.9,2.8-27.3,8.3-41.2,12.2c22.6-15.7,45.8-30.5,72.1-40.1C335,444.2,329.6,458.1,313.2,461.4z M714.3,773.6
					c-0.2-0.8-0.3-1.7-0.5-2.5c-3.6,0.3-7.3,0.7-10.9,1C707.2,778.8,710.8,777.4,714.3,773.6z M335.6,498.2
					c7.3-1.8,14.6-3.7,23.5-5.9c-6.8,8.5-12.6,15.9-18.5,23.2c0.8,0.7,1.7,1.5,2.5,2.2c11.5-12.5,22.9-24.9,35-38.1
					c-9.7,3.8-18.2,7.1-23.8,9.3c6.1-7.1,13.5-15.7,21-24.3c-0.4-0.4-0.9-0.9-1.3-1.3c-13.2,10.8-26.5,21.6-39.7,32.4
					C334.7,496.6,335.2,497.4,335.6,498.2z M677.1,791.5c-1.7,1.8-4.5,3.7-6.8,3.7c-25.5,0-51-0.2-76.5-1c-5-0.2-10.5-2.2-14.9-4.8
					c-7.9-4.7-15.2-10.4-22.7-15.7c-0.6,0.9-1.3,1.8-1.9,2.7c5.8,5,12.6,9.3,17.3,15.2c8.9,11,20.3,12.6,33.4,13.3
					c19.5,1,39,3,58.2,6.2c19,3.2,21,3,26.9-15.7c1.6-5,2.6-10.1,3.6-15.2c0.3-1.5-0.2-3.2-0.4-4.8c-0.6-0.3-1.2-0.6-1.9-0.9
					C686.8,780.3,682.2,786.1,677.1,791.5z M640.2,611.6c0.1,0.1,0.2,0.2,0.3,0.3c0.1-0.3,0.2-0.6,0.3-0.9
					C640.6,611.3,640.4,611.4,640.2,611.6z M735.7,236.4c4.5-4.2,8.6-8.7,12.8-13.1c-0.7-0.7-1.3-1.4-2-2.1
					c-9,6.2-18,12.5-26.9,18.7c6.1-7.5,12.2-15.1,18.3-22.6c-0.9-0.8-1.7-1.6-2.6-2.4c-5.4,4.1-10.7,8.2-17.6,13.4
					c9.3-14.1,23.2-22.7,27.2-39.4c-5,6.7-8.7,12.6-13.3,17.8c-9.5,10.4-19.5,20.3-29.2,30.5c-1.9,2-5.1,4.9-4.7,6.7
					c1.9,8.5-3.6,13.4-7.9,19.1c-1,1.3-0.8,3.6-1.2,5.4c2.1-0.2,4.6,0.2,6.1-0.9c7.5-5.1,14.8-10.6,22.2-15.9
					c0.6-0.1,1.3-0.2,1.9-0.3C724.5,246.4,730.3,241.5,735.7,236.4z M893.3,249l0.3-0.2c-0.2-0.1-0.3-0.3-0.5-0.4
					C893.2,248.6,893.2,248.8,893.3,249z M893.3,249c0,0.1,0,0.1,0.1,0.2c0.1-0.1,0.1-0.3,0.2-0.4L893.3,249z M718.3,846
					c-6.1,9.2-12.2,18.3-18.2,27.5c0.9,0.6,1.7,1.2,2.6,1.8c5.2-7.6,10.4-15.1,15.6-22.7c0.1-0.4,0.3-0.7,0.4-1.1
					c0.3-1.6,0.7-3.2,1-4.8C719.3,846.4,718.8,846.2,718.3,846z M850.2,222.3c2.4,0.5,4.4,0.8,6.4,1.3c11.1,2.3,21.5,5.6,27.6,16.7
					c1.8,3.3,5.8,5.5,8.9,8.1C887.6,231,865.3,217.2,850.2,222.3z M195.7,1010.3c3.3,2,7,3.6,10,5.9c10.4,7.8,21.2,9,30.5,3.1
					c8-5.1,16.4-23.4,14.7-32.1c-2-10.4-12.1-18.9-22.7-19.3c-12.8-0.4-21.7,6.4-24.9,20.1c-1.5,6.4-1.7,13.2-2.6,20.2
					c-9.1-3-10.8-9.2-9.2-17.5C186.2,998.3,188,1005.7,195.7,1010.3z M228.7,970.8c4.9-0.3,10.1,1.4,9.1,6.7
					c-0.7,3.9-5,8.9-8.7,10.1c-3.5,1.1-8.4-2.1-13.6-3.7c-1.4,1.6-3.5,4-6.2,7C211.6,978.7,219,971.4,228.7,970.8z M788,595.6
					c0.1,2.8,0.5,5.7,1.1,8.7C788.9,601.4,788.4,598.5,788,595.6z M757.4,574.6c-4.7-1.9-7.6-3.1-10.5-4.3c2.2-3.2,4.1-6,6.7-9.7
					c4.7,2.1,9.4,4.2,14.1,6.4c1.1-7.1,0.2-9.3-6.6-10.3c-11-1.7-22.2-2.3-33.3-3.5c-9.5-1-16.2,4.7-23,9.8c-1.4,1-1.6,3.5-2.4,5.3
					c2,0.5,4,1,5.9,1.6c0.4,0.1,0.8,0.5,1.3,0.8c-0.9,1.1-1.7,2.2-3.1,3.9C723.3,574.6,739.3,574.6,757.4,574.6z M723.3,557.2
					c1.1,0,2.3,0,3.4,0c0.8,1.5,1.3,3.3,2.4,4.6c2.7,3,6.5,4.1,8.2-0.1c2.4-6,5.4-2.5,8.8-2.5c-2.9,7.7-17.9,11.3-22.5,5.7
					C722.2,563.3,723.3,559.8,723.3,557.2z M158.1,1046.7c8,10.5,32.5,20.4,42.6,17.4C189,1051.4,171.1,1055.1,158.1,1046.7z
					 M761.2,578.2c-5.3,3.6-10.6,7.2-16,10.7C756.7,587.6,759.7,585.3,761.2,578.2z M723.4,763c-2-9-4.1-17.9-6.1-26.9
					c-0.9,0.2-1.9,0.3-2.8,0.5c2.1,9,0.5,18.8,5.5,27.1C721.2,763.5,722.3,763.2,723.4,763z M488.9,459.9c13.2-2.6,27-5.7,40-4.3
					c13.4,1.5,26.4,7.9,39.2,13c14.7,5.9,29.1,12.9,43.6,19.4c8.7,3.9,17.3,0.8,24.5-2.8c6.6-3.4,11.3-10.4,18.4-17.4
					c-8.7,4-12.8-0.3-17.7-5.2c-3.8-3.8-9.7-6.1-15-8c-12.1-4.3-24.6-7.6-36.5-12.1c-13.4-5.1-26.4-11.1-39.5-16.9
					c-7-3.1-13.7-4.3-21.1-1.1c-25.4,11-50.8,21.7-76.2,32.6c-0.2,0.1,0,0.8,0,3.1c13.8-5.6,27-10.9,40.2-16.2
					c13.5-5.5,27-11.1,40.5-16.5c2.1-0.8,4.6-1,6.9-0.6c11.6,1.6,37.8,20.6,43.5,39.3c-10.5-3.4-21-6.4-31.3-10.1
					c-14.5-5.3-29.1-8.4-44.4-4.2c-13.8,3.8-27.7,7.6-41.5,11.5c-7.7,2.2-15.4,4.4-23.1,6.7c0.2,0.7,0.4,1.4,0.6,2.1
					C456.3,467.9,472.5,463.1,488.9,459.9z M606.3,452.2c7.1,7.3,14.3,14.6,21.4,21.9c-0.4,1-0.9,2-1.3,3c-3.9,0.9-7.8,1.7-9.8,2.2
					c-4.4-9.5-8.1-17.4-11.8-25.4C605.4,453.4,605.9,452.8,606.3,452.2z M578.5,445.5c13.5-0.2,21.4,14.9,26.2,30.4
					c-8.8-1.3-14.5-4.5-17-13.2C585.9,456.6,581.7,451.2,578.5,445.5z M641.8,523.3c-5.3,4.9-10.6,9.9-15.9,14.8
					C633.7,536,640.4,532.5,641.8,523.3z M582.6,539.4c-6-7.5-9.5-18.6-19.8-19.5c-21.4-1.9-42.1-12.3-64.2-6
					c-8.4,2.4-17.7,2.7-25.2,9.1c16.6,11.4,28.3,16.3,41,16.4C536.7,539.6,558.9,539.4,582.6,539.4z M553.6,523.2
					c5.1,2.6,9.9,5,14.7,7.5c-0.3,1.1-0.6,2.1-1,3.2c-6,0.3-12,0.6-18.9,0.9C550.3,530.7,551.6,527.7,553.6,523.2z M516.6,524.7
					c0.7-2.1,3.7-3.4,6.8-5.8c0,4,0,6.2,0,11c5.2-2.4,9.1-4.2,13.1-5.9c-0.2-0.7-0.5-1.4-0.7-2.1c2.8,0.4,5.5,0.7,8.6,1.1
					c0,11.1-0.8,12.1-10.6,11.3c-4.8-0.4-9.6-1.8-14-3.7C518.1,529.9,516.1,526.2,516.6,524.7z M486,527.3c0-0.8,0-1.6,0-2.4
					c5.8-2.3,11.7-4.5,17.6-6.8c2.1,5.6,4,10.6,6.7,17.9C501.2,532.7,493.6,530,486,527.3z M487.6,727.3c11.1-15.3,21.6-29.7,32-44
					C513.6,683.2,488.1,716,487.6,727.3z M516.3,501.3c-5.4-0.5-10.7-1.7-16-2.5c-0.2,0.9-0.3,1.9-0.5,2.8
					c13.4,2.5,26.8,5.2,40.2,7.6c15.1,2.7,31.5-0.2,44.7,10.6c0.3,0.2,1-0.1,2.2-0.3c-4.5-8.8-10.6-13.3-19.3-14.1
					C550.6,503.9,533.4,502.8,516.3,501.3z M614.7,539.4c12.2-3,22.2-14.3,23-23.6c0.6-7.5-3.3-13.3-12.7-17.2
					C642.8,517.1,627.1,526.9,614.7,539.4z M649.2,618.7c2.2-0.1,4.3-2.2,6.5-3.4c-0.4-0.7-0.7-1.3-1.1-2c-3.8,4.9-7.6,5.2-14-1.3
					c-0.4,1.6-0.4,3.5-0.8,5.1C642.9,617.7,646.1,618.9,649.2,618.7z M199.9,357.7c0.3,0.2,0.7,0.4,1,0.6c-0.9,2.8-1.9,5.7-2.9,8.7
					c1.2,0.1,1.8,0.3,2.1,0.1c1.6-1.3,3.2-2.6,4.7-4.1c17.8-17.1,29.6-38.4,41.2-59.7c26.6-48.7,58.4-92.8,107.6-121.5
					c14.6-8.5,29.5-16.6,44.3-24.9c24.6-13.8,50.9-22.7,78.6-27.7c28.5-5.1,56.9-10.7,86.1-10c10,0.2,20-1.1,30-1.7
					c0-0.8,0-1.7-0.1-2.5c-20.5,0-41.3-1.9-61.5,0.5c-25.6,3.1-50.7,9.4-76,14.8c-12.4,2.7-25.6,4.4-36.7,10
					c-30.2,15.5-59.3,32.8-88.9,49.4c-2.3,1.3-4.8,2.5-6.4,4.4c-22.1,25.1-44.7,49.6-65.7,75.6c-15.8,19.6-29.4,41-44,61.7
					c-6.8,9.6-13.8,19-20.2,28.9c-1.9,2.9-2.1,6.9-3,10.3c0.7,0.2,1.5,0.5,2.2,0.7C195,366.7,197.4,362.2,199.9,357.7z M786,652.8
					c-1.4,16.2-3.1,32-13.8,45.6c-9.4,12-20.8,23.1-22.9,39.4c0.5-5.9,1-11.9,1.5-17.8c-1-0.2-2-0.3-3-0.5
					c-10.2,37-20.3,74.1-30.5,111.1c1,0.4,2,0.8,3,1.1c1.4-2.6,2.8-5.2,4.1-7.8c2.1-4.3,4.1-8.6,6.2-12.9c1.3,15-3.6,28.2-11.9,40.3
					c-0.1,0.4-0.3,0.7-0.4,1.1c-0.7,6.6-0.9,13.3-2.3,19.7c-2.7,12.3-6.1,24.4-9.2,36.6v0.1c-3.4-1.6-6.8-4.3-10.2-4.4
					c-27.5-0.5-55,0.2-82.5-0.9c-20.3-0.8-40.5-3-60.7-5.6c-11.1-1.4-20.4-7.6-27.8-16.1c-1.9-2.1-3.7-4.6-6-6
					c-11.7-7-20.3-16.6-26.3-28.9c-2.2-4.6-6.2-8.3-8.8-12.8c-1.6-2.8-2-6.2-2.9-9.3c3.1,0.1,7-0.9,9.1,0.6c5.8,4.4,11.9,4.9,19,3.6
					c-10.1-0.7-13.2-8.1-16.4-15.8c-13.6-32.2-27.8-64.2-41-96.6c-7.2-17.6-16.3-33.6-29.6-47.5c-22.3-23.3-40.4-49.8-57.6-77
					c-3.2-5.1-2.9-8.3,1.7-11.8c3.1-2.3,5.7-5.2,8.6-7.8c-0.5-0.6-0.9-1.1-1.4-1.7c-4.8,3.2-9.7,6.4-14.5,9.6
					c-0.3-0.4-0.7-0.7-1-1.1c9.4-9.7,18.9-19.4,28.3-29.1c-0.8-0.8-1.5-1.5-2.3-2.3c-11,10-21.8,20-33,29.8
					c-2.7,2.4-6.4,3.7-11.4,6.6c2.6-11.8,4.5-21,6.8-30.1c0.4-1.5,2.3-3,3.9-3.9c3.9-2.2,8.6-3.3,11.8-6.1
					c7-6.1,13.6-12.9,19.9-19.8c6.8-7.4,7.2-14.1,2.3-22.1c-1.1-1.8-1.1-4.5-1.3-6.8c-0.3-2.7-0.4-5.4-0.6-10
					c-2.5,2.6-3.8,3.7-4.8,5.1c-7.3,9.8-14.5,19.8-22,29.5c-2.2,2.8-5.1,6-8.2,6.7s-7.9-0.4-10.1-2.5c-1.6-1.6-1-6.5,0.1-9.4
					c1.3-3.6,4.2-6.6,6.3-9.8c-0.3-0.9-0.5-1.8-0.8-2.6c-10.5,8.6-16.9-0.1-23.8-4.5c-1.4-0.9,0.8-7.3,1.6-13.4
					c-6.4-1.6-15.4-7-20.9-4.6c-12.4,5.6-25.1,8.1-38.1,10.8c-4.5,0.9-10.1,5.3-11.8,9.5c-3.5,8.3-5.9,17.4-6.5,26.4
					c-0.8,12.9-4.1,22.6-18.3,25.4c-1.7,0.3-3.1,2.2-4.8,2.5c-2.8,0.4-5.7,0.1-8.8,0.1c2.2,6,5.2,12.9,7.3,20.1
					c4,13.8,7.3,27.8,11.5,41.6c2.2,7,5.8,13.7,8.7,20.5c-0.3,0.1-0.6,0.2-0.9,0.3c-2.1-3.1-4.3-6.2-6.4-9.3c-1,0.5-2,1-3,1.6
					c4.5,11,9,22.1,13.6,33.1c-11.2-13.6-14.5-30.5-20.1-46.6c-0.1,4.9-0.3,10,0.8,14.8c4.8,21,12.4,41.7,14,62.9
					c0.9,12.9,4.7,24,8,35.8c1.3,4.6,2.7,9.1,4.1,13.7c-0.6,0.2-1.1,0.5-1.7,0.7c-2.4-3.5-4.8-7-8.1-11.9c0.5,9.3,7.6,16.1,3.7,24.4
					c-1.1,2.3-2.3,5.4-1.5,7.4c4.4,10.8,9.4,21.4,14.2,32.1c0.7-0.3,1.3-0.5,2-0.8c0-1.7-0.2-4.8,0-4.8c7.6-1.2,2.8-5.2,1.6-7.8
					c-3-6.3-6.4-12.4-9.6-18.5c15.7,18.9,16.8,34.3,4.7,49.5c-3.3-11.8-6.6-23.7-10-35.5c-0.6,0.2-1.3,0.3-1.9,0.5
					c1.2,5.3,1.9,10.8,3.7,15.9c7.5,20.9,4.5,41.2-2.9,61.3c-4.3,11.7-9,23.4-12.8,35.3c-1.7,5.3-4.2,6-9.2,5
					c-23.3-4.6-46.6-8.9-70-13.3c-7.4-1.4-14.9-2.5-23.2-3.9c0.8,2,0.9,2.7,1.3,2.8c2.7,0.9,5.4,1.9,8.2,2.3
					c32.7,5.1,63.9,15,94.6,27.1c6.9,2.7,10,6.9,8.2,13.6c-2,7.8-4.9,15.4-8,22.8c-0.5,1.2-4.1,2.1-5.8,1.6
					c-11.9-3.9-23.6-8.2-35.4-12.3c-2.2-0.8-4.6-1-7-1.5c-0.2,0.9-0.4,1.9-0.6,2.8c25.3,16.7,55.4,18.2,85.1,24.5
					c-7.7,23.2-15.1,45.2-22.3,67.2c-2.3,7-6.3,8.5-13,6.6c-17.5-5.1-35.1-9.7-52.6-14.8c-4.4-1.3-8.5-3.8-12.8-5.7
					c-4.8-2.2-6.3-5.6-4.2-10.8c1.3-3.1,2-6.5,2.8-9.8c0.8-3.2,1.4-6.4,2-9.6c-0.6-0.1-1.2-0.2-1.8-0.3c-4.9,15-9.7,29.9-14.6,44.9
					c1.2,0.4,2.5,0.9,3.7,1.3c1.6-4.6,3.2-9.2,4.1-11.7c11.2,5.5,21.9,11,32.8,16.1c4.5,2.1,9.2,3.6,13.9,5.3
					c3.9,1.4,5.2,3.6,3.8,7.8c-1.7,5.1-2.9,10.4-4.2,15.5c1.3,0.6,1.7,1.1,2.2,1.1c23.7-0.2,47.5-0.2,71.2-0.8
					c2.1-0.1,4.9-3.8,6-6.4c2.3-5.5,3.5-11.4,5.6-17c1.3-3.7,3.4-5.1,7.8-2.8c9,4.7,17,0.6,19.9-9.1c1.2-4,1.7-8.7,4.2-11.6
					c4.3-4.9,3.9-9.8,2.9-15.3c-4.2-22-8.3-44.1-12.7-66.1c-1.5-7.3-1.4-13.6,4.3-19.5c2-2.1,2.3-6.1,2.8-9.4
					c2.4-17.1,4.7-34.2,7-51.3c1-0.1,1.9-0.1,2.9-0.2c9.8,8.9,20.3,18,23.4,31.1c13.6,58.2,28.3,116.1,47.2,172.9
					c0.5,1.6,1.5,3.1,2.3,4.7c0.8-3.1,0.3-5.6-0.4-8.1c-5.4-19.9-10.8-39.8-16-59.7c-0.6-2.4-0.5-5-0.2-7.5c0.6-5.5,2.4-11,2.2-16.4
					c-0.3-7.5-2.2-15-3.2-22.5c-0.8-6.2-1.3-12.4-2-18.6c19.6,29.9,40.9,57.8,60.8,87c2.4-4.2,3.2-7.6,5.3-9
					c8.5-5.5,17.2-10.6,26.1-15.4c1.6-0.9,5.6-0.2,6.6,1.2c8.9,12,17.8,23.8,12.7,40.6c-2.8,9.3-3.6,19.2-5.5,29.5
					c17.7,0,34.1,0.1,50.5-0.2c1.9,0,4.2-2.4,5.4-4.3c8.1-12.8,15.9-25.8,24.2-39.5c0,13.2,0.1,25.2,0,37.2c0,4.8,1.5,6.9,6.8,6.9
					c35.8-0.2,71.5-0.1,107.3-0.2c4.2,0,8.5-0.7,12.7-1.1c-2.3-4.8-5.6-8.7-5.7-12.7c-0.3-9.2-2.7-16.6-9.8-22.9
					c-1.7-1.5-0.9-6.1-1.2-9.2c2.6,0.2,5.5-0.4,7.8,0.6c11.3,4.7,22.4,9.8,33.9,14.9c0,8.7-0.1,17.6,0.1,26.4c0,1.4,1.5,2.7,2.4,4
					c1-1.4,2.7-2.8,2.8-4.2c0.1-5.7-0.9-11.5-0.5-17.2c0.6-9.7-3.6-14.5-12.6-17.9c-27.3-10.3-54.2-21.6-81.3-32.5
					c-9.8-3.9-19.6-7.9-31-12.5c4.5-2.7,7.5-5.2,10.9-6.4c28.2-10,56.4-20,84.7-29.6c5.3-1.8,7.9-4.6,9.3-10.1
					c11.8-45.7,24.1-91.3,36.1-136.9c9.9-37.7,16.7-76.7,43.3-107.6c0.2-0.2,0.3-0.4,0.4-0.7c0.9-3,2.6-5.9,2.6-8.9
					c0.2-18.5,0.1-37,0.1-55.4C787.7,634.7,786.8,643.8,786,652.8z M348.3,536.4c7.3-5.2,14.9-9.8,22.4-14.7
					c0.3,0.3,0.6,0.6,0.9,0.9c-6,6.4-11.8,13.1-18.1,19.2c-1.2,1.2-4.3,0.3-6.6,0.4C347.3,540.2,347.1,537.3,348.3,536.4z
					 M266.8,498.8c8.6-2.1,17.4-3.1,29.2-5c2.8,1.6,8,3.5,12,6.9c6.1,5.1,11.5,11.1,16.7,17.2c1.4,1.7,1.9,6.6,0.9,7.3
					c-2.4,1.7-6.5,3.2-9,2.3c-3.9-1.5-7.4-4.6-10.6-7.6c-8.1-7.7-16.5-12.2-28.1-7.5c-3.4,1.4-8.3,0.3-12-1c-3-1.1-5.4-4.2-8-6.4
					C260.9,502.8,263.5,499.6,266.8,498.8z M222.7,572.2c2.2-0.8,5.1-2,6.8-2.7c-0.3,4.3-0.6,8.4-0.9,12.4c3.2,0,6.4,0,9.6,0
					c0.1-0.7,0.1-1.4,0.2-2.2c-1.6-1-3.2-1.9-5.5-3.3c2.3-2.5,4.5-4.9,7.5-8.3c4.4,28.4-0.4,56.8,11.5,83.1c-2-1.8-5-3.2-5.7-5.4
					C238.3,621.8,230.7,597.5,222.7,572.2z M242.7,676.1c5.5,10.1,10.8,19.8,16.1,29.6C250.5,697.7,240.7,690.5,242.7,676.1z
					 M266,708.7c-4.5-7.7-9-15.4-13.4-23.1c0.5-0.3,0.9-0.6,1.4-0.9c5,7.5,9.9,15,14.9,22.4C267.9,707.7,266.9,708.2,266,708.7z
					 M268.1,731.3c-0.7,0.3-1.4,0.6-2.1,0.9c-4.8-8.1-9.6-16.2-14.4-24.4C257.9,715.1,268.1,720,268.1,731.3z M251.1,724.5
					c11.1,10.3,20.8,21.3,13.9,38.3c0-2.8,0.2-5.6-0.1-8.3c-0.2-2.4-0.3-4.9-1.3-7C259.7,739.7,255.3,732.2,251.1,724.5z
					 M248.9,887.1c1.2-17.9,17.4-27.2,24.1-42C267.6,860.5,263.8,877.1,248.9,887.1z M261.8,843.5c3.3-8.8,6.5-17.7,9.8-26.5
					c1,0.4,1.9,0.7,2.9,1.1C273.8,827.9,265.9,835,261.8,843.5z M337.7,690.9c-2.3,5.4-14.3,7.6-19.9,5.1
					c-34.4-15.4-56-41.7-62.5-78.6c-3.6-20.4-3.2-41.5-4.3-62.4c-0.2-3,1.7-6.1,2.7-9.1c1.2,0.2,2.5,0.5,3.7,0.7
					c2.8,16.9,6,33.8,8.2,50.8c2.6,20,10.4,36.7,28.4,47c7.6,4.4,15.8,7.6,24,10.8c9.1,3.6,17.4,8.7,20.6,18
					C340.5,678.5,339.9,685.7,337.7,690.9z M340.5,656c-2.8-1.6-5.3-3.2-8-4.5c-6.8-3.2-13.5-6.8-20.6-9.3
					c-6.5-2.3-10.5-4.9-5.7-12.2c0.5-0.7,0.3-1.8,0.6-4.7c-2.8,3.6-4.5,5.7-7.3,9.1c-3.1-6-5.8-11.2-8.9-16.9
					c13.8,3.9,26.3,6.6,38.2,10.9C342.1,633.2,345.1,641.1,340.5,656z M474,893.4c-19.3-8-38.1-17-56.9-25.9
					c-7.4-3.5-11.9-9.9-16.3-17.1c-10.8-17.8-23.1-34.6-34.9-51.8c-2.1-3-4.6-5.6-7.1-8.4c-9.5-10.6-12.4-22.6-10.9-36.8
					c3.7-34.7,3.7-69.6,2-104.5c-0.1-2.1-0.3-4.2,0.2-6.2c2.7-12.2,1-23.8-4.8-34.8c-2.3-4.4-1-8,2.7-11c2.8-2.3,5.6-4.6,9.5-7.8
					c4.6,7.6,8.7,15.1,13.5,22c15.2,21.5,30.3,43,46.1,64.1c7.2,9.6,14,19.1,19,30.3c13.6,30.5,28.4,60.4,42.8,90.6
					c3.9,8.2,7.9,16.3,12.2,25.2c-8.2-3.3-14.4-6.9-13.7-16.3c0.1-1.2-0.5-2.6-1.1-3.7c-5.3-10.1-10.3-20.5-16.1-30.3
					c-2.1-3.5-6.3-5.7-9.5-8.5c-4.7-4.2-9.7-8.1-14.1-12.6c-3.5-3.5-5.8-8.2-9.5-11.3c-15.9-13.1-24.5-31.4-35.6-48
					c-1.7-2.5-4-4.6-6-6.9c-0.8,0.3-1.5,0.6-2.3,1c-0.3,3.5-1,7-0.8,10.4c0.9,25.3,2,50.5,3,75.8c0.1,2.1,0.4,4.3-0.1,6.2
					c-0.5,2-1.8,3.8-2.8,5.7c-1.7-1.3-3.7-2.5-5.2-4c-1.3-1.4-2.2-3.2-4.2-4.3c2.3,10-1.7,22.2,10.9,28.2c0.7,0.3,1.5,0.8,1.8,1.4
					c10.6,19.7,32.2,26.6,47.3,41c12.5,11.8,25.4,23.2,39,33.6c5.7,4.4,13.9,5.4,20.8,8.2c9.9,3.9,20.6,6.7,25.2,18
					c0.4,0.9,0.4,1.9,1,4.3C503.3,903.6,488.3,899.3,474,893.4z M704.9,918c-3.1,15.5-11.3,20.1-26.4,16.6
					c-13.6-3.1-27.6-4.7-41.5-6.9c-23.7-3.6-47.4-7.1-71.1-10.6c-8.2-1.2-16.5-2.6-24.8-3.3c-8.6-0.7-12.4-6.2-16.2-13.6
					c1.8,0.1,2.8,0,3.7,0.3c23.3,5.7,46.3,12.8,69.8,16.6c21,3.4,42.6,3.1,64,4.4c1,0.1,2.1-0.1,3.1,0.1
					c14.4,3.4,27.8,3.4,37.2-10.8c0.7-1,2.5-1.2,3.9-1.7C706.1,912.1,705.4,915.1,704.9,918z M731.1,809.4
					c1.3-6.2,2.6-12.5,4.2-18.7c1.6-6.3,3.7-12.4,5.6-18.6c0.7,0.2,1.5,0.4,2.2,0.7C739.1,785,735.1,797.2,731.1,809.4z
					 M179.7,926.6c-0.1-0.7-0.1-1.5-0.2-2.2c-17-5.6-34.1-11.1-52.1-17c-2.1,52.5-4.2,105-6.3,158.1c2.9-0.1,5-0.2,7.7-0.4
					c0-18.1-0.2-35.6,0.1-53c0.1-3.9,1.7-7.8,2.4-10.6c-1-5.8-2.5-11.1-2.7-16.5c-0.3-13.6,0-27.1,0-40.7c0-16,0-15.1,16-14.6
					C156.4,930.1,168.1,927.7,179.7,926.6z M145.7,1033.2c0.9,0.2,1.8,0.4,2.7,0.7c3.7-15.9,7.4-31.7,11.2-47.6
					C153.1,1001.5,146.2,1016.6,145.7,1033.2z M641.6,609.5c-0.4,0.5-0.6,1-0.8,1.6c3.5-3.4,6.6-6.6,9.4-9.2
					C647.8,603.9,644.2,606.3,641.6,609.5z"/>
			</g>
		</g>
	</g>
</g>
</svg>
