<?xml version="1.0" encoding="utf-8"?>
<!-- Generator: Adobe Illustrator 25.4.1, SVG Export Plug-In . SVG Version: 6.00 Build 0)  -->
<svg version="1.1" id="Laag_1" xmlns="http://www.w3.org/2000/svg" xmlns:xlink="http://www.w3.org/1999/xlink" x="0px" y="0px"
	 viewBox="0 0 1050 1050" style="enable-background:new 0 0 1050 1050;" xml:space="preserve">
<style type="text/css">
	.st0{clip-path:url(#SVGID_00000165196447942961525090000003266046959720166798_);}
	.st1{fill:#00F0A6;}
	.st2{fill:#FFFFFF;}
	.st3{fill:url(#SVGID_00000136387080325768020810000005708638894173543100_);}
	.st4{fill:url(#SVGID_00000176737086336484109190000008468147606344406958_);}
	.st5{fill:url(#SVGID_00000011711607867085048260000011893297722217195937_);}
	.st6{fill:url(#SVGID_00000149383750511295809960000001562622256933790338_);}
	.st7{fill:url(#SVGID_00000087406858410128436560000013294170457575024293_);}
	.st8{fill:#C6F2F7;}
</style>
<g>
	<defs>
		<circle id="SVGID_1_" cx="525" cy="525" r="525"/>
	</defs>
	<clipPath id="SVGID_00000138546368006507717950000011081821924872854157_">
		<use xlink:href="#SVGID_1_"  style="overflow:visible;"/>
	</clipPath>
	<g id="Back" style="clip-path:url(#SVGID_00000138546368006507717950000011081821924872854157_);">
		<rect class="st1" width="1050" height="1050"/>
	</g>
	<g id="Outline" style="clip-path:url(#SVGID_00000138546368006507717950000011081821924872854157_);">
		<g>
			<g>
				<path class="st2" d="M716.5,153.3c-20.6,10.3-41.2,20.6-61.8,30.8c-0.3-0.6-0.6-1.1-0.9-1.7c6.9-3.8,13.8-7.7,20.6-11.5
					c-0.1-0.3-0.3-0.6-0.4-0.9c-9.3,2.6-18.6,5.2-28,7.8c-0.3-0.9-0.6-1.9-0.9-2.8c23.6-8,47.1-15.9,70.7-23.9
					C716.1,151.9,716.3,152.6,716.5,153.3z"/>
				<path class="st2" d="M626.2,159.6c16.5-1.1,30.5-12.4,47.4-12.2c0.4,0.8,0.8,1.7,1.2,2.5c-1.9,1.5-3.7,3.9-5.9,4.4
					c-6.3,1.4-12.3,4.4-19.5,1.8c-3.6-1.3-8.9,2.3-13.4,3.5c-3,0.8-6.1,1.5-9.1,2.3C626.6,161.2,626.4,160.4,626.2,159.6z"/>
				<path class="st2" d="M690.8,184.2c6.1-5.9,10.1-12.3,15.8-14.8c5.9-2.6,13.4-1.6,22.3-2.3c-5.8,7.8-11.1,10.6-18.7,8.9
					c-1.6-0.3-3.6,1.2-5.4,1.9C700.6,179.8,696.3,181.7,690.8,184.2z"/>
				<path class="st2" d="M506.7,168.9l0.5-0.2c1.3-2,2.1-4.7,3.8-5.7c3.5-2,7.6-2.9,11.9-3.1C517.5,162.9,512.1,165.9,506.7,168.9z"
					/>
			</g>
		</g>
		
			<linearGradient id="SVGID_00000116922311628891456780000010665956389333833345_" gradientUnits="userSpaceOnUse" x1="533.3072" y1="728.9" x2="534.0582" y2="728.9" gradientTransform="matrix(1 0 0 -1 0 1050)">
			<stop  offset="0" style="stop-color:#FFFFFF"/>
			<stop  offset="1" style="stop-color:#000000"/>
		</linearGradient>
		<path style="fill:url(#SVGID_00000116922311628891456780000010665956389333833345_);" d="M533.3,320.3c0.1,0.3,0.2,0.6,0.2,0.9
			c0,0,0.1-0.1,0.2-0.2l-0.2,0.2c0.2,0.2,0.3,0.5,0.5,0.7c-0.1-0.3-0.2-0.6-0.3-0.9C533.6,320.8,533.4,320.6,533.3,320.3z"/>
		
			<linearGradient id="SVGID_00000045607115756558363890000003826924049927825072_" gradientUnits="userSpaceOnUse" x1="554.9615" y1="622.7375" x2="555.1799" y2="622.7375" gradientTransform="matrix(1 0 0 -1 0 1050)">
			<stop  offset="0" style="stop-color:#FFFFFF"/>
			<stop  offset="1" style="stop-color:#000000"/>
		</linearGradient>
		<path style="fill:url(#SVGID_00000045607115756558363890000003826924049927825072_);" d="M555.1,427.2c-0.1,0.1-0.1,0.2-0.1,0.2
			C555,427.3,555.1,427.3,555.1,427.2C555.1,427.2,555.2,427.2,555.1,427.2L555.1,427.2C555.2,427.1,555.1,427.1,555.1,427.2
			c0,0-0.1,0.1-0.2,0.2L555.1,427.2z"/>
		
			<linearGradient id="SVGID_00000034089439356951285910000006064637968007880839_" gradientUnits="userSpaceOnUse" x1="644.6529" y1="688" x2="656.1367" y2="688" gradientTransform="matrix(1 0 0 -1 0 1050)">
			<stop  offset="0" style="stop-color:#FFFFFF"/>
			<stop  offset="1" style="stop-color:#000000"/>
		</linearGradient>
		<path style="fill:url(#SVGID_00000034089439356951285910000006064637968007880839_);" d="M654.4,350.5c-3.3,7.3-6.5,14.7-9.8,22
			c0.8,0.3,1.6,0.7,2.4,1c3-7.4,6-14.9,9.1-22.3C655.6,350.9,655,350.7,654.4,350.5z"/>
		<g>
			<g>
				
					<linearGradient id="SVGID_00000113311436032846341630000018216443088428060323_" gradientUnits="userSpaceOnUse" x1="11.2321" y1="-15.8322" x2="834.7618" y2="807.6976" gradientTransform="matrix(1 0 0 -1 0 1050)">
					<stop  offset="2.149415e-03" style="stop-color:#00F0A6"/>
					<stop  offset="4.308989e-02" style="stop-color:#02E19A"/>
					<stop  offset="0.2553" style="stop-color:#0A9761"/>
					<stop  offset="0.4312" style="stop-color:#106037"/>
					<stop  offset="0.562" style="stop-color:#143F1D"/>
					<stop  offset="0.6332" style="stop-color:#153213"/>
				</linearGradient>
				<path style="fill:url(#SVGID_00000113311436032846341630000018216443088428060323_);" d="M571.9,418.2c-2.9,1.2-6,2.2-8.7,3.7
					c-2.8,1.5-5.4,3.5-8.1,5.3c-1.3,2.6-2.6,5.2-3.9,7.8c4.5,2.9,9.1,4.5,13.9,0.5c-0.9,1.5-1.8,2.9-3.5,5.5
					c13-4.6,21.6-17.7,21.1-28.3c-3.2,3.9-7.4,9-11.6,14.2C571.4,424,571.7,421.1,571.9,418.2z M564,369.7c-0.7-4.3-2-8.9-4.4-12.4
					c-8.2-12-17-23.6-25.5-35.3c1.7,4.3,2.8,8.9,5.3,12.6c11.2,16.8,21.7,33.9,24.4,54.5c0.2,1.6,1.4,3.1,2.1,4.7
					C565.9,385.4,565.3,377.5,564,369.7z M502.4,474.6c0,9.8,3.9,20.5-7.2,27.6C508.1,495.2,510.3,487,502.4,474.6z M805.1,828.1
					c-0.5-14.2,0.5-28.8-2.4-42.6c-17.6-84.3-29.8-169.4-39.7-254.9c-9.1-79.4-12.4-159.1-14.8-238.9c-1-32.8,2.5-65.9-3.8-98.5
					c-0.9-7.1-2.2-14.1-3.9-21c-1.1-5.4-2.4-10.7-4.4-15.7c-2-4.9-4.5-9.7-7.2-14.4c-5.6-10.4-13-20.1-22.9-27.6
					c-10.5-7.9-23-7.4-34.9-8.9c-27.6-3.4-55.2-6.3-82.9-8.9c-10.8-1-21.8-0.4-32.7-0.5c-14.9-0.2-29.9,0-44.8-0.3
					c-5.6-0.2-11.2-0.3-16.8-0.5c-2.8-0.1-5.7-0.3-8.5-0.4c-18.4-1.1-36.6-0.2-54.7,1.4c-14.6,1-29.2,2.6-43.8,5.1
					c-7.2,0.9-14.4,1.8-21.6,2.6c-8,0.9-15.8,2.4-23.4,4.2c-4,0.7-7.9,1.7-11.8,2.9c-29.8,9.3-58.8,21-88.1,31.9
					c-4.6,1.7-9,4.3-12.8,7.4c-20.5,16.8-40.2,34.7-61.4,50.5c-26.2,19.6-54.3,36.8-80.5,56.4c-19.6,14.6-38.1,30.8-55.9,47.5
					c-11.2,10.6-20,23.7-30.2,35.4c-3.9,4.5-5.3,9-5.3,14.9C-4,584.2-4,813.3-4,1042.3v8.3c4.3,0,7.5,0,10.7,0
					c213.3,0,426.5,0,639.8,0c38.8,0,77.6,0,116.4-0.2c2.7,0,7-1.5,7.7-3.4c11-29.2,28.6-56.1,29.9-88.9c0.9-21.9,5-43.8,5.9-65.7
					C807.3,871.2,805.8,849.6,805.1,828.1z M715.9,151.1c0.1,0.5,0.3,1,0.4,1.5l-62,30.9l-0.6-1.1c6.9-3.8,13.8-7.7,20.6-11.5
					c-0.1-0.3-0.3-0.6-0.4-0.9c-3,0.8-6,1.7-9,2.5c0-0.1-0.1-0.2-0.1-0.3c-6.3,1.8-12.6,3.6-18.9,5.4c-0.3-0.9-0.5-1.8-0.8-2.7
					C668.7,167.1,692.3,159.1,715.9,151.1z M673.6,147.5c0.4,0.8,0.8,1.7,1.2,2.5c-0.4,0.3-0.7,0.6-1.1,0.9
					c-6.2,2.1-12.4,4.2-18.8,6.3c-1.8,0-3.6-0.3-5.6-1c-3.3-1.2-8.1,1.8-12.4,3.2c0.1-0.1,0.1-0.2,0.2-0.3c-3.7,1-7.1,1.9-10.4,2.7
					c-0.2-0.7-0.4-1.5-0.6-2.2C642.7,158.5,656.7,147.2,673.6,147.5z M511,163c3.5-2,7.6-2.9,11.9-3.1c-1.2,0.6-2.3,1.3-3.5,1.9
					c-2.2,1.1-4.3,2.2-6.5,3.3c0,0.1,0,0.2,0.1,0.2c-1.9,1.1-3.9,2.1-5.8,3.2C508.4,166.7,509.2,164,511,163z M422.9,398.2
					c-1.5-8.6-3-17.1-4.6-26.4c2.6,0.7,4.6,1.3,7.6,2.1c-1.7-3.2-2.8-5.3-3.9-7.4c14.9,4.9,29.9,7.8,45.6,9.1
					c8.4,0.7,17.1,3.9,24.8,7.6c5.1,2.4,8.7,7.8,12.9,12c3.6,3.7,7,7.6,12,10.3c-3.4-4.5-6.8-9.1-10.4-13.9c5.7-0.9,8.6,1.4,9.8,6.5
					c0.3,1.4,1.5,2.5,2.3,3.8c6.5,9.8,13,19.6,19.1,28.7c-0.1-1.1-0.5-3.7-0.8-6.2c0.2-0.1,0.5-0.2,0.7-0.3c2.2,5.3,4.3,10.7,6.5,16
					c-0.4,0.3-0.8,0.5-1.2,0.8c-6.4-4.8-12.7-9.7-19.1-14.5c-26.5-19.6-56.1-24.5-88-18.9C427,409.1,424.5,407.3,422.9,398.2z
					 M527.1,399c8.1,1.6,8,6.9,7.6,14C531.8,407.7,529.6,403.7,527.1,399z M445.1,528.2c-1.1-11.4-3.3-22.7-5.1-34
					c-0.4-2.4-0.6-4.8-0.9-6.5c10.8-2.8,20.8-5.3,30.7-8.2c1.3-0.4,2-3,2-6.3c-3,0.7-6,1.3-8.9,2.2c-6.2,1.9-12.3,4.2-18.5,5.8
					c-6.1,1.6-9-0.9-7.8-7.4c13.6-0.3,14.7-1,20.2-15.5c10.4,7.3,20.5,14.5,31.2,22c-0.4,0.7-1.4,2.2-2.8,4.4c1.5-0.6,3-0.7,3.4-1.5
					c1-2,1.8-4.1,2.1-6.3c0.1-0.5-1.9-2-2.9-1.9c-7.5,0.2-10.3-5.1-12.5-10.7c-6.3-15.7-19.4-21-34.7-23.2c-1.9-0.3-3.6-1-5.4-1.5
					c0.1-0.8,0.1-1.7,0.2-2.5c3.5-0.5,6.9-1.1,10.4-1.3c1.7-0.1,3.4,1,5.1,1.1c15.8,0.6,25.5,9.7,32.4,22.8
					c2.9,5.5,7.1,8.1,13.7,8.3c-1.5-2.3-2.7-4.2-4.3-6.6c8.3,2.9,15.8,5.6,23.3,8.3c0.2-0.5,0.4-1,0.6-1.5
					c-7.8-3.8-15.5-7.6-23.3-11.4c-1.7-0.8-4.1-1.1-5.1-2.5c-8.5-11.4-19.5-19.1-33.4-22.9c1.7-0.3,3.4-0.6,5.2-1c0-0.6,0-1.3,0-1.9
					c-7.4-0.5-14.9-1-22.3-1.5c-0.1-0.3-0.1-0.7-0.2-1c4.5-1.1,9.1-2.1,13.6-3.2c-0.1-0.7-0.1-1.4-0.2-2.1c-7.9,0.5-15.8,1-23.8,1.6
					c8-16.4,78.5-1.8,99.9,21.8c-9.1,3.9-17.4,7.3-27.3,11.5c9.1,4.1,16.8,7.6,24.5,11.1c0.4-0.8,0.8-1.6,1.2-2.4
					c-1.9-1.4-3.8-2.8-4.9-3.6h23.6c-1.9,1.9-3,3.4-4.4,4.3c-7.3,4.2-8.1,10.2-2.5,16.5c1.3,1.5,2.3,4.5,1.7,6.1
					c-11.6,30.5-33.9,48.5-65.8,54c-6.3,1.1-13.3-1-19.8-2.4C447.9,537.9,445.7,534.1,445.1,528.2z M707.5,612.8
					c-0.7,18.1-3.3,35.9-10.8,52.5c-5.7,12.7-13.2,24.6-19.7,36.9c-5.9,11.2-11.4,22.7-17.1,34c-1.4,2.9-2.9,5.7-5.8,8.2
					c1.2-8.2,2.3-16.3,3.5-24.5c1.2-8.3,2.6-16.7,3.9-25c-0.6-0.1-1.3-0.2-1.9-0.4c-2.5,13.2-4.5,26.6-7.6,39.7
					c-4.5,19.1-9.4,38.1-14.7,57c-2.8,9.8-6.6,19.3-10.5,28.7c-3.7,9-7.7,17.8-12.2,26.4c-1.8,3.4-5,6.1-7.5,9.1
					c-7.4,8.6-14.9,17.2-22.3,25.9c-7.5,8.9-17.5,12.7-28.7,14.5c-19.6,3.1-39.2,4-59,1.4c-7.1-0.9-9.7-3-10-11
					c-1.3-38.7-3.7-77.4-5.6-116.1c-0.1-2.7,0-5.5,0-9c10.5,2.1,15.6,18.9,29.8,11.4c-10.6-6.9-23.5-9.1-31-20.2
					c33.2,21.7,67.6,28.2,104.1,12.3c0.1-0.9,0.2-1.9,0.4-2.8c-2.8-0.5-5.5-1.1-8.8-1.7c2-2.4,3.9-4.7,5.8-7
					c-16.7,1.1-32.8,3.7-48.7,2.9c-16.4-0.9-31.4-7.6-43.1-22.1v5.5c-2.2-1.8-3.7-3.1-4.6-3.8c-0.8,2.8-1.6,6-2.5,9.3
					c-1-0.1-2-0.3-3.1-0.4c-1.5-9.5-3.1-18.9-4.6-28.3c16.3-5.8,31.1-4.5,45.6,4.9c6.5,4.3,14.3,6.9,21.8,9.4
					c7.8,2.6,18.5-3.5,21.5-11.4c-7.7,0.8-15.4,3-22.9,2.2c-8.8-0.9-17.6-3.4-25.8-6.8c-12.9-5.3-25.2-12.5-40.2-7.3
					c-0.2-0.8-0.4-1.6-0.5-2.4c11.1-5,22.3-10.1,33.4-15.1l-0.4-1.8c-11.6,3.2-23.2,6.5-34.8,9.7c-7.8-48.9-15.5-97.7-23.1-145.7
					c57,2,92.4-23.5,105.6-79.2c2.1,14.4,4.3,28.9,6.4,43.3c0.5-0.1,1-0.1,1.5-0.2c-1.4-15.2-2.8-30.3-4.1-44.4
					c2.7-0.9,4.9-1.2,6.5-2.4c3.2-2.4,5.9-5.4,9.1-7.8c14.9-11.3,23.4-6.8,30.3,8.3c2.4,5.3,3.3,11.7,3.2,17.5
					c-0.3,31.8-1.4,63.5,4.5,95c1.7,9.1-9.5,26-18.4,29.1c-14.9,5.1-29.6,7.1-43.7-2.3c-0.8-0.5-1.9-0.7-2.8-1
					c-0.4-0.1-0.9,0.2-1.7,0.4c8.5,12.5,21.8,9.5,34,10.5c-5.7,6.6-10.9,12.6-16.2,18.7c0.6,0.6,1.3,1.2,1.9,1.8
					c1.4-0.7,3.2-1.2,4-2.3c8.7-11.8,21.6-17.1,34.1-23.2c3.5-1.7,5.7-5.9,10.1-10.8c-2.2,10.8-3.8,19.7-5.7,28.5
					c-2.4,10.8-14.4,10-20,17.9c7.6-2.2,15.2-4.5,22.9-6.5c4.5-1.2,5.4-4.1,5.7-8.3c1.2-15.3,2.9-30.5,4.5-46.3
					c15.4,4.1,30.2,5.1,45.6,3.5c15.3-1.6,28.7-6.9,41.9-13.7C708.5,589.3,708,601,707.5,612.8z M717.6,533.3
					c-0.7,12.5-0.7,26-11,35.4c-5.1,4.7-11.5,9.1-18.1,11c-20.6,6-41.3,6.3-61.3-3.5c-6.1-3-9.5-7-9.4-13.8
					c0.1-11.3,0.2-22.6,0.3-34.5c25,5,47.9,9.5,72.1,14.3c-1.2-2.5-1.5-4.1-2.4-4.8c-8-6.7-8.4-8-3.9-18.5c1.8-4.2-1.1-15.2-5-18.1
					c-4.1-3-8.4-5.5-12.8-8.3c1.9-0.5,3.9-1.1,5.9-1.7c0-0.4-0.1-0.7-0.1-1.1h-18.4c-0.1-0.7-0.2-1.3-0.2-2
					c9.1-1.8,18.6-6.2,27.2-4.7c8.9,1.5,17.4,8.1,25.2,13.6c4.2,3,6.6,8.6,9.9,12.9C721.4,516.9,718,525.5,717.6,533.3z
					 M620.1,501.5c-1.4-5.7-1.2-8.4,5.4-8.6c14.6-0.5,28.9,0.3,42,7.5c3.9,2.1,7.3,5.2,11,7.9c-0.4,0.9-0.8,1.8-1.2,2.6
					C659.2,501.8,640.2,498.1,620.1,501.5z M669.6,531.2h-16.3c3.2-4.8,6-9.2,9.9-15.2C665.4,521.2,667.3,525.6,669.6,531.2z
					 M726.5,504.9c-11.9-18.3-28.5-29.1-48.9-34.2c-19.9-5-39.8-10.5-59.8,0c0.6-11.7-7.5-18.2-14.4-25.4c-1.4-1.5-2.8-3.8-2.9-5.8
					c-0.3-8.6-0.1-17.2-0.1-25.8c-0.7-0.1-1.3-0.1-2-0.2c-2.5,8.9-4.9,17.9-6.9,24.9c-12.7,6.6-24,12.4-35,18.2
					c-6.6-8.1-11.8-16.2-7.9-27.4c1.8-0.6,4.1-1.3,6.5-2.1c1.8-2.5,3.8-4.9,5.4-7.5c1.3-2.2,2.3-4.6,3.4-7h-13
					c0.4-16.4-6.7-29.8-19.9-41.6c-0.4,2.9-0.6,4.5-0.8,6.4c-4.6-3.2-9.2-6.4-14-9.8c-0.3,1.8-0.6,3.4-0.8,4.8
					c-8.2-3.7-16.3-7.4-26-11.9c1.1,3.9,1.8,6.4,2.6,9.2c-13.4-6.2-26.6-12.4-40.1-18.7c0,0.4,0.1,1.4,0.2,3.5
					c-9.1-2.2-17.9-4-26.6-6.5c-2.1-0.6-4.7-3.4-5-5.5c-3.8-27.3-6.5-54.8-1-81.5l0.1,0.1c1.3-6.6,3.1-13.1,5.6-19.6
					c1.1-2.9,2.3-5.9,3.6-8.8c7.2-15.7,16.4-30.5,25.9-45c3.2-4.9,10.5-7,17.8-11.6c-4,0.4-5.8,0.6-7.6,0.8
					c-0.2-0.7-0.4-1.4-0.6-2.2c10-2.6,20-5.2,31.1-8.1c-0.7,3.2-1,4.6-1.2,5.4c4.3-1.1,8.5-2.2,12.6-3.3c-0.1,0-0.2,0.1-0.2,0.1
					c8.5-1.6,17.1-3.1,25.6-4.7c0,0,0,0,0.1,0.1c-0.3,0.2-0.6,0.4-0.9,0.6c-2.6,0.9-5.2,1.9-8,2.9c1,1,1.8,1.8,3.5,3.6h22.6
					c0,0.6,0.1,1.3,0.1,1.9c-1,0.9-2,1.9-4.4,4.2c15.3-0.7,29-1.4,42.5-2c-0.6,0.4-1.3,0.8-2,1.1c-3.3,1.5-6.7,3-10,4.5
					c0,0.4,0.1,0.8,0.1,1.2c-0.9,0.5-1.9,1.1-2.8,1.6c2.3,1.7,4.1,3.8,6.4,4.5c2.9,1,6.3,1.4,9.3,1c7.7-1,15.2-2.5,25-4.3
					c-1.7,1.1-3.2,2-4.6,2.9c-1.5,0.4-3.1,0.9-4.6,1.3c0.1,0.5,0.2,0.9,0.2,1.4c-0.8,0.5-1.7,1-2.6,1.6c6,2.4,10.3,5.1,14.9,5.7
					c4.6,0.7,9.5-0.7,14.8,0.6c-1.2,0.7-2.5,1.5-3.7,2.2c-3.3,1.1-6.7,2.1-10,3.2c0.2,0.8,0.5,1.6,0.7,2.4c-0.5,0.3-0.9,0.5-1.4,0.8
					c4.1,0.9,7.9,0.8,9.5,4.3l0,0c-0.1,0.1-0.2,0.1-0.3,0.2c0.2,0.1,0.4,0.2,0.5,0.4c0.2,0.6,0.4,1.4,0.4,2.2
					c0.1,0.9,2.2,2.1,3.6,2.4c10.7,2.6,20.8,9.8,32.6,6.7c-0.7,0.4-1.3,0.8-2,1.2c0.1,0.5,0.1,1,0.2,1.5c-0.7,0.5-1.5,1.2-2.4,1.9
					c5.3,0.6,8.9,1.1,13.7,1.7c-2.4,1.5-4.8,3-7.2,4.5c0.1,0.5,0.3,1,0.4,1.6c-0.9,0.7-1.8,1.4-2.8,2.2c6.5,0.4,11.1,0.8,15.5,1.1
					c0.2,0.4,0.4,0.9,0.6,1.4c-0.5,0.4-1,0.9-1.6,1.4c0.7,0.1,1.5,0.1,2.2,0.2c0.4,1,0.9,1.8,1.6,2.5c1.3,1.2,3.7,1.4,5.5,2
					c-0.1,0.5-0.2,1-0.3,1.5c-0.4,0.1-0.9,0.2-1.3,0.2c-1.8-0.2-3.6-0.4-5.8-0.7c1.4,4.1,1.9,8.6,4.3,11.7c1.5,2,5.6,2.1,8.6,2.9
					c2,0.6,4.1,0.9,6.1,1.4v0.1c-2.9,2.5-5.9,5.1-9.2,7.9c1.3,0.6,2.5,1.2,3.7,1.8c-0.4,0.4-0.8,0.7-1.1,1.1
					c4.2,3.1,7.7,6.4,13.3,3.1c1-0.6,5.3,1.8,5.9,3.6c4.5,12.3,9.6,24.3,9.7,38c0.1,19.7,2.2,39.3,2.8,59c0.3,8.5-1.5,16.9-1.6,25.4
					c-0.3,17.9-0.1,35.9-0.1,54.6c-7.5-4.8-14.7-9.4-21.6-13.9c-0.1,0.1,1-0.4,3.9-1.7c-11.7-2-21.9-3.8-32.1-5.5
					c0.4-0.3,1.1-1,1.8-1.6c-1.2-0.4-2.4-0.8-5.2-1.7c2.7-1.5,4.6-2.6,6.5-3.7c-14.8,2-28.6,5.1-40.1,14.4
					c-4.9,3.9-9.7,2.2-14.3-1.3c-3.5-2.6-7.5-4.6-11-7.3c-1.5-1.2-2.5-3.5-2.7-5.4c-0.4-3.4-0.1-6.9-1-10.3
					c-3.3,6.6-4.9,13.3-1.1,20.1c10.7,18.9,17.2,21.2,36.9,12.1c6.5-3,12.2-3.4,19.2-1.5c10.1,2.7,20.7,3.3,30.9,5.3
					c3.2,0.6,6.6,2.1,9.2,4.2c10.1,7.9,18.6,17.4,23.3,29.5C726.9,494.4,726.8,499.7,726.5,504.9z M727.1,169.3
					c-4.4,2.4-8.7,4.8-13,7.2c-1.3,0-2.6-0.2-4-0.5c-1.6-0.3-3.6,1.2-5.4,1.9c-0.7,0.3-1.4,0.6-2.1,0.9c-0.2-0.4-0.4-0.7-0.6-1.1
					c-3.1,1.4-6.2,2.9-9.3,4.4c5-5.3,8.7-10.5,13.8-12.7c5.9-2.6,13.4-1.6,22.3-2.3C728.3,167.9,727.7,168.6,727.1,169.3z
					 M525.6,287.9c-2.2-7.6-4.5-15.2-6.7-22.8c-0.6,0.2-1.3,0.4-1.9,0.5c0.1,0.2,0.1,0.3,0.2,0.5c-0.5,0.1-1,0.3-1.5,0.4
					c4.4,15.1,8.7,30.2,13.4,45.3c0.9,3,2.7,5.6,4.3,8.4c-2.8-10.7-5.6-21.4-8.5-32.2C525.1,288.1,525.4,288,525.6,287.9z
					 M561.3,777.9c0.3,1.1,0.6,2.2,0.9,3.4c10.3-2.7,20.7-5.5,31-8.2c-0.4-1.6-0.8-3.2-1.2-4.8C581.8,771.4,571.6,774.6,561.3,777.9
					z M581,710.4c3.2,7.9,6.5,16,10.7,26.1c-7.7-5-13.3-8.5-18.9-12.1c-1,1-2,2-3,3.1c6.2,7.7,11.8,16,18.8,22.8
					c4,3.8,12.3-0.2,13-5.1C602.8,735.6,590,714.1,581,710.4z M685.9,547.2c-11.1,4.4-22.3,8.8-35.3,13.9c8.9,0.7,15.7,1.2,22.5,1.7
					l0.1-0.8c-2.2-0.6-4.3-1.1-7.4-2c8-3.5,14.8-6.5,21.6-9.5L685.9,547.2z M577.3,638.4c9.5-2.5,18.3-4.7,28.5-7.4
					C591.7,622,580.1,625,577.3,638.4z M546.4,689.4c-6.1-1.6-12.2-3.3-19.9-5.3C534,693.7,541.4,695.2,546.4,689.4z M520.4,618.1
					c6.9,5.1,13.9,10.1,20.8,15.2c0.3-0.4,0.5-0.9,0.8-1.3c-2.5-4.7-4.9-9.5-7.5-14.1c-5.4-9.5-10.9-12.1-21.6-9.2
					c-3.9,1.1-7.4,3.7-10.8,6.1c-5,3.5-4.5,8.8,1.5,10.4c6.2,1.7,12.8,1.7,20.9,2.7c-2.5-4-3.9-6.2-5.3-8.3
					C519.6,619.2,520,618.6,520.4,618.1z M551.1,714.6c0.6,0.7,1.1,1.5,1.7,2.2c5.4-4.2,10.7-8.5,16.1-12.7c-0.5-0.6-1-1.3-1.5-1.9
					C562,706.3,556.5,710.5,551.1,714.6z M485.4,616.6c-1.3-1.8-1.4-5.5-0.5-7.6c3.6-8.7,7.8-17.1,12.4-26.8
					C486,594.7,481,602.9,479,613c-0.4,2,0.3,4.7,1.5,6.3c5.4,7,11.4,13.6,16.8,20.6c5,6.5,11.6,7.4,18.6,7.2
					c-5.4-4.3-11.2-8-15.9-12.7C494.6,629,489.9,622.9,485.4,616.6z"/>
			</g>
		</g>
	</g>
	<g id="Face" style="clip-path:url(#SVGID_00000138546368006507717950000011081821924872854157_);">
		<g>
			<g>
				
					<linearGradient id="SVGID_00000004510561369319618250000003051755505113071509_" gradientUnits="userSpaceOnUse" x1="416.6303" y1="525.7385" x2="730.2998" y2="525.7385" gradientTransform="matrix(1 0 0 -1 0 1050)">
					<stop  offset="0.2543" style="stop-color:#FF993A"/>
					<stop  offset="0.2847" style="stop-color:#FF9644"/>
					<stop  offset="0.5976" style="stop-color:#FF7DA8"/>
					<stop  offset="0.8151" style="stop-color:#FF6CE7"/>
					<stop  offset="0.9177" style="stop-color:#FF66FF"/>
				</linearGradient>
				<path style="fill:url(#SVGID_00000004510561369319618250000003051755505113071509_);" d="M701.9,460.4c-2.6-2-5.9-3.5-9.2-4.2
					c-10.3-2-20.9-2.6-30.9-5.3c-7-1.9-12.7-1.5-19.2,1.5c-19.7,9.2-26.2,6.8-36.9-12.1c-3.9-6.8-2.2-13.6,1.1-20.1
					c0.9,3.5,0.5,7,1,10.3c0.2,1.9,1.3,4.2,2.7,5.4c3.4,2.7,7.4,4.7,11,7.3c4.6,3.4,9.4,5.2,14.3,1.3c11.5-9.3,25.3-12.4,40.1-14.4
					c-1.9,1.1-3.8,2.2-6.5,3.7c2.8,0.9,3.9,1.3,5.2,1.7c-0.8,0.7-1.5,1.3-1.8,1.6c10.2,1.8,20.3,3.5,32.1,5.5
					c-2.9,1.2-4,1.7-3.9,1.7c6.9,4.5,14.1,9.1,21.6,13.9c0-18.7-0.2-36.7,0.1-54.6c0.1-8.5,1.9-17,1.6-25.4
					c-0.4-14.6-1.2-36.5-2.4-49.7l0,0c-1.4-16.5-3.7-32.7-8.1-48.8c-1.3-4.8-4.7-6.7-7.9-5.1c-4.5,2.2-7.6,0.9-12.2-1.3
					c1.1-1.1,2.2-2.1,2.9-3.3c1.2-1.9,1.8-4.2,2.6-6.3c3.7-3.1,7.2-6.2,11-9.4c-7.1,2.1-12.8,4.5-18.8,5.4c-2.3,0.4-5.8-1.9-7.6-4
					c-1.6-2-1.6-5.3-2-6.8c1.5-0.1,2.9-0.3,4.3-0.5c0.4,0,0.8,0.1,1.2,0.1c0-0.1,0.1-0.3,0.1-0.4c15.6-3.1,28.4-13.5,42.9-19.8
					c-16,4.9-30.5,14.9-49.7,13.8c-0.2-0.5-0.4-1-0.6-1.6c1.7-1.5,3-2.6,5-4.5c-7.2,0-12.7,0-18.3,0c0-0.1,0-0.1-0.1-0.2
					c2.7-2.1,4.9-3.9,7.5-5.9c-0.3,0-0.5-0.1-0.8-0.1c2.1-1.3,4.2-2.6,6.4-4c-6.2,0.4-11.9,0.7-17.6,1c0-0.2,0-0.4-0.1-0.5
					c2-1.6,3.2-2.6,4.5-3.6c-0.9,0.4-1.8,0.6-2.7,0.9c1.6-0.9,3.3-2,5.5-3.3c-9,0-16.5,0-24,0c0-0.5-0.1-0.9-0.1-1.4
					c5.7-2.3,11.4-4.6,18.4-7.4c-12.8,0.1-24.3,8.8-36.5,0.7c-0.1-0.2-0.1-0.4-0.2-0.6c3.5-2.1,6.4-3.8,9.3-5.5
					c-1.5-0.7-3.1-2-4.5-1.8c-4.3,0.6-8.5,1.9-12.7,2.9c-0.1-0.2-0.1-0.4-0.2-0.6c3.1-1.9,6.2-3.7,9.3-5.6
					c7.9-2.5,15.9-5.1,23.9-7.7c1.2-1.8,3-4.3,4.8-6.8c-1.4-0.4-3.1-0.9-5.5-1.6c23-11.5,45.1-22.4,67.1-33.4
					c-0.3-0.7-0.5-1.3-0.8-2c-3.6,0.7-7.2,1.1-10.6,2.3c-12.4,4.2-24.8,8.5-37.1,13c-12.6,4.5-24.9,10.2-37.7,13.5
					c-16,4.2-32.5,6.6-48.8,9.6c-1.3,0.2-2.7-0.6-4.5-1.1c1.2-1.5,2-2.5,2.9-3.7c-2.1-0.2-4-0.5-5.9-0.7v-0.1
					c3.2-1.9,6.6-3.8,9.9-5.7c6.4-2.9,12.8-5.8,19.2-8.7c-18.2,5.7-36.6,9-56,6.3c1.8-1.4,3.3-2.6,5.8-4.5c-3.4,0.3-5.6,0.5-8.8,0.8
					c2-1.6,3.2-2.5,4.5-3.5c-0.1-0.3-0.3-0.7-0.4-1c-7,1.6-14,3.2-21,4.8c-0.1-0.3-0.2-0.6-0.2-0.9c1.3-0.9,2.7-1.8,4.1-2.7
					c-1-0.6-1.9-1.1-2.5-1.4c0.4-0.3,0.7-0.5,1.1-0.8c0.4-0.1,0.7-0.3,1.1-0.4c-0.1-0.1-0.1-0.2-0.2-0.3c0.8-0.6,1.6-1.1,2.3-1.7
					c-0.2-0.3-0.3-0.6-0.5-1c-7,1.5-14,3.1-20.9,4.6c-0.1-0.3-0.2-0.7-0.3-1c5.5-2.8,10.9-5.6,16.4-8.5c-12.2,1.3-23.8,3.9-33,14.7
					c0.5-2.5,0.8-3.8,1.1-5.2c-21.3-0.7-31.5,2.7-42.7,20c-9.7,14.9-18.9,30.4-25.9,46.7c-0.4,1-0.9,1.9-1.3,2.9
					c-15.1,34.5-11.9,70.8-7,106.9c0.3,2.1,2.9,4.9,5,5.5c8.6,2.5,17.5,4.4,26.6,6.5c-0.1-2.1-0.1-3.1-0.2-3.5
					c13.5,6.3,26.8,12.5,40.1,18.7c-0.8-2.8-1.5-5.2-2.6-9.2c9.7,4.4,17.8,8.1,26,11.9c0.2-1.4,0.5-3,0.8-4.8
					c4.9,3.4,9.4,6.5,14,9.8c0.2-1.9,0.5-3.6,0.8-6.4c13.2,11.8,20.3,25.2,19.9,41.6c4.4,0,8.2,0,13,0c-1.2,2.4-2.1,4.9-3.4,7
					c-1.6,2.6-3.6,5-5.4,7.5c-2.3,0.7-4.7,1.5-6.5,2.1c-4,11.2,1.2,19.3,7.9,27.4c11-5.7,22.4-11.6,35-18.2c1.9-7,4.4-15.9,6.9-24.9
					c0.7,0.1,1.3,0.1,2,0.2c0,8.6-0.2,17.2,0.1,25.8c0.1,2,1.5,4.2,2.9,5.8c6.8,7.3,15,13.7,14.4,25.4c20-10.5,39.9-5,59.8,0
					c20.4,5.2,37,16,48.9,34.2c0.2-5.3,0.4-10.6-1.3-15.1C720.6,477.7,712,468.3,701.9,460.4z M654.4,350.5c0.6,0.2,1.1,0.5,1.7,0.7
					c-3,7.4-6,14.9-9.1,22.3c-0.8-0.3-1.6-0.7-2.4-1C647.9,365.2,651.2,357.8,654.4,350.5z M609.2,188.2
					c18.5-5.3,37.1-10.6,55.6-15.9c0.2,0.6,0.5,1.1,0.7,1.7c-12.4,5.6-24.9,11.2-37.6,16.9c2,0.3,3.9,0.6,5.8,1
					c0,0.6,0.1,1.1,0.1,1.7c-6.6,1.1-13.1,2.3-19.7,3.4c-0.2-0.6-0.4-1.3-0.5-1.9c2.5-1.1,4.9-2.3,8.9-4.1
					c-6.8,0.5-12.1,0.9-17.3,1.2c-0.1-0.4-0.1-0.9-0.2-1.3C606.4,190,607.8,189.1,609.2,188.2z M523.8,288.5
					c-2.2-7.4-4.4-14.8-6.6-22.2c0.6-0.2,1.2-0.3,1.8-0.5c2,7.5,3.9,15,5.9,22.4C524.5,288.3,524.1,288.4,523.8,288.5z M529,311.9
					c-0.2-0.5-0.3-1.1-0.5-1.6c0.8,0.2,1.5,0.4,2.3,0.6c0.8,3.1,1.7,6.3,2.5,9.4C531.8,317.6,530,314.9,529,311.9z M563.8,389.1
					c-2.8-20.6-13.2-37.7-24.4-54.5c-2.5-3.7-3.7-8.4-5.3-12.7c8.6,11.7,17.3,23.3,25.5,35.3c2.4,3.5,3.7,8.1,4.4,12.4
					c1.4,7.8,1.9,15.7,1.9,24C565.1,392.2,564,390.7,563.8,389.1z M561.7,441c1.6-2.6,2.5-4,3.5-5.5c-4.8,4-9.4,2.4-13.9-0.5
					c1.3-2.6,2.6-5.2,3.9-7.8c2.7-1.8,5.3-3.8,8.1-5.3s5.8-2.5,8.7-3.7c-0.2,2.9-0.5,5.8-0.7,8.7c4.2-5.1,8.4-10.3,11.6-14.2
					C583.2,423.3,574.7,436.4,561.7,441z M621.5,588.5c-1.6,15.8-3.3,31.1-4.5,46.3c-0.3,4.2-1.2,7.1-5.7,8.3
					c-7.7,2-15.3,4.3-22.9,6.5c5.6-7.9,17.6-7.1,20-17.9c1.9-8.8,3.6-17.6,5.7-28.5c-4.4,4.9-6.6,9.1-10.1,10.8
					c-12.5,6.1-25.5,11.3-34.1,23.2c-0.8,1.1-2.6,1.6-4,2.3c-0.6-0.6-1.3-1.2-1.9-1.8c5.2-6.1,10.5-12.1,16.2-18.7
					c-12.2-1-25.5,2-34-10.5c0.8-0.2,1.3-0.5,1.7-0.4c1,0.2,2,0.4,2.8,1c14.1,9.4,28.9,7.4,43.7,2.3c8.9-3.1,20.1-20,18.4-29.1
					c-5.9-31.5-4.8-63.3-4.5-95c0.1-5.9-0.8-12.3-3.2-17.5c-6.9-15.1-15.4-19.7-30.3-8.3c-3.2,2.4-5.9,5.5-9.1,7.8
					c-1.6,1.2-3.8,1.4-6.5,2.4c1.3,14.1,2.7,29.3,4.1,44.4c-0.5,0.1-1,0.1-1.5,0.2c-2.1-14.4-4.3-28.9-6.4-43.3
					c-13.2,55.7-48.6,81.1-105.6,79.2c7.6,48,15.4,96.7,23.1,145.7c11.7-3.3,23.3-6.5,34.8-9.7c0.1,0.6,0.3,1.2,0.4,1.8
					c-11.1,5-22.3,10.1-33.4,15.1c0.2,0.8,0.4,1.6,0.5,2.4c15-5.2,27.2,1.9,40.2,7.3c8.2,3.4,17,5.9,25.8,6.8
					c7.4,0.8,15.2-1.3,22.9-2.2c-3,7.9-13.7,14-21.5,11.4c-7.5-2.5-15.3-5.1-21.8-9.4c-14.4-9.4-29.2-10.7-45.6-4.9
					c1.5,9.4,3,18.8,4.6,28.3c1,0.1,2,0.3,3.1,0.4c0.9-3.2,1.7-6.4,2.5-9.3c0.9,0.8,2.4,2,4.6,3.8c0-2.1,0-3.1,0-5.5
					c11.7,14.5,26.7,21.2,43.1,22.1c15.9,0.9,32-1.7,48.7-2.9c-1.9,2.3-3.8,4.6-5.8,7c3.3,0.6,6.1,1.2,8.8,1.7
					c-0.1,0.9-0.2,1.9-0.4,2.8c-36.5,15.8-70.9,9.4-104.1-12.3c7.5,11,20.4,13.3,31,20.2c-14.2,7.5-19.2-9.3-29.8-11.4
					c0,3.6-0.1,6.3,0,9c1.9,38.7,4.3,77.4,5.6,116.1c0.3,8,2.8,10,10,11c19.8,2.6,39.4,1.7,59-1.4c11.2-1.8,21.1-5.6,28.7-14.5
					c7.4-8.7,14.8-17.3,22.3-25.9c2.6-3,5.8-5.7,7.5-9.1c4.4-8.6,8.5-17.5,12.2-26.4c3.9-9.4,7.7-18.9,10.5-28.7
					c5.4-18.9,10.3-37.9,14.7-57c3.1-13.1,5.1-26.5,7.6-39.7c0.6,0.1,1.3,0.2,1.9,0.4c-1.3,8.3-2.7,16.7-3.9,25
					c-1.2,8.1-2.3,16.3-3.5,24.5c2.9-2.5,4.4-5.3,5.8-8.2c5.7-11.3,11.2-22.8,17.1-34c6.5-12.4,13.9-24.3,19.7-36.9
					c7.5-16.5,10.1-34.4,10.8-52.5c0.5-11.8,1-23.5,1.5-34.5c-13.2,6.8-26.7,12-41.9,13.7C651.7,593.7,636.9,592.6,621.5,588.5z
					 M497.3,639.9c-5.4-7-11.4-13.6-16.8-20.6c-1.2-1.6-1.9-4.3-1.5-6.3c1.9-10.1,6.9-18.3,18.4-30.8c-4.6,9.7-8.8,18.1-12.4,26.8
					c-0.9,2.2-0.8,5.8,0.5,7.6c4.4,6.2,9.2,12.3,14.6,17.8c4.7,4.7,10.4,8.4,15.9,12.7C508.9,647.3,502.3,646.4,497.3,639.9z
					 M503.6,625.3c-6-1.6-6.5-6.9-1.5-10.4c3.4-2.4,6.9-5.1,10.8-6.1c10.7-2.9,16.3-0.3,21.6,9.2c2.6,4.6,5,9.4,7.5,14.1
					c-0.3,0.4-0.5,0.9-0.8,1.3c-6.9-5.1-13.9-10.1-20.8-15.2c-0.4,0.5-0.8,1-1.2,1.5c1.4,2.2,2.7,4.3,5.3,8.3
					C516.4,627,509.8,627,503.6,625.3z M526.5,684.1c7.7,2.1,13.8,3.7,19.9,5.3C541.4,695.2,534,693.7,526.5,684.1z M552.8,716.8
					c-0.6-0.7-1.1-1.5-1.7-2.2c5.4-4.1,10.9-8.3,16.3-12.4c0.5,0.6,1,1.3,1.5,1.9C563.5,708.3,558.2,712.6,552.8,716.8z M605.7,631
					c-10.2,2.6-19,4.9-28.5,7.4C580.1,625,591.7,622,605.7,631z M562.3,781.2c-0.3-1.1-0.6-2.2-0.9-3.4c10.2-3.2,20.5-6.5,30.7-9.7
					c0.4,1.6,0.8,3.2,1.2,4.8C582.9,775.7,572.6,778.5,562.3,781.2z M601.6,745.2c-0.6,4.9-9,8.9-13,5.1c-7-6.8-12.6-15.1-18.8-22.8
					c1-1,2-2,3-3.1c5.6,3.6,11.2,7.2,18.9,12.1c-4.1-10.1-7.5-18.2-10.7-26.1C590,714.1,602.8,735.6,601.6,745.2z M524.1,426.4
					c6.4,4.8,12.8,9.7,19.1,14.5c0.4-0.3,0.8-0.5,1.2-0.8c-2.2-5.3-4.3-10.7-6.5-16c-0.2,0.1-0.5,0.2-0.7,0.3
					c0.3,2.6,0.7,5.2,0.8,6.2c-6-9.1-12.6-18.9-19.1-28.7c-0.8-1.2-2-2.4-2.3-3.8c-1.2-5.1-4.1-7.4-9.8-6.5c3.6,4.8,7,9.3,10.4,13.9
					c-4.9-2.7-8.3-6.6-12-10.3c-4.1-4.2-7.8-9.6-12.9-12c-7.7-3.7-16.3-6.9-24.8-7.6c-15.6-1.3-30.7-4.2-45.6-9.1
					c1.1,2.1,2.2,4.2,3.9,7.4c-3.1-0.9-5-1.4-7.6-2.1c1.6,9.3,3.2,17.9,4.6,26.4c1.6,9,4.1,10.8,13.1,9.3
					C468,401.9,497.6,406.8,524.1,426.4z M527.1,399c2.6,4.7,4.7,8.7,7.6,14C535.1,405.8,535.2,400.5,527.1,399z"/>
			</g>
		</g>
	</g>
	<g id="Haar" style="clip-path:url(#SVGID_00000138546368006507717950000011081821924872854157_);">
		<g id="Kleding">
		</g>
		<path class="st2" d="M702.1,177.8c0.4,0.8,0.9,1.6,1.3,2.5c-8.7,5.7-17.4,11.3-27.6,18c15.8-6,30-11.3,44.2-16.7
			c-0.2-0.5-0.4-1.1-0.5-1.6c-4.6,1.1-9.2,2.1-13.8,3.2c-0.2-0.5-0.4-1.1-0.6-1.6c10-5.5,19.9-11,30.1-16.6c-8.4,0-16-0.6-23.4,0.2
			c-4.2,0.5-9.9,2.3-11.8,5.4c-4.7,7.8-11.7,11.2-19.4,14.1c-6.4,2.4-13.1,4.2-19.2,7.3c-8.3,4.2-16.2,9.2-24.2,14
			c8-2.9,16-5.6,23.8-9C674.9,190.8,688.5,184.1,702.1,177.8z"/>
		<path class="st2" d="M638.8,148.5c4.7,0,9.4,0,16,0c-13.1,7.3-27.4,6.3-37.3,15.7c6.2-1.6,12.4-3.3,19.6-5.2
			c-1,1.4-1.7,2.6-3.5,5.2c20-6.7,38.4-12.8,56.8-19c0.3-0.1,0.4-0.7,0.9-1.8c-17.8,1.4-35.2,2.8-52.6,4.2
			C638.8,148,638.8,148.2,638.8,148.5z"/>
		<path class="st2" d="M673.8,208.1c17.1,0.6,30.6-8.3,44.9-15.2c-0.4-0.7-0.7-1.5-1.1-2.2C703,196.5,688.4,202.3,673.8,208.1z"/>
		<path class="st2" d="M563.5,134.8c-12.5-3.2-23,0.6-32.6,8.5"/>
		<path class="st2" d="M511.6,149.5c-5.2,1.5-10.2,3.4-15.3,5.1c0.2,0.8,0.4,1.7,0.5,2.5c5.4-1,10.9-1.7,16.3-3
			c1.1-0.3,1.8-2.3,2.7-3.5C514.5,150.2,512.8,149.2,511.6,149.5z"/>
		<path class="st2" d="M722.3,252.7c0.5,0.4,0.9,0.8,1.4,1.2c4.1-6.7,16.9-5,15.1-19.6C732.6,241.2,727.5,247,722.3,252.7z"/>
		<path class="st2" d="M719.2,243.8c0.6,0.6,1.2,1.2,1.8,1.9c7.1-6.1,14.2-12.2,21.2-18.4c-0.7-0.8-1.4-1.6-2.1-2.4
			C733.2,231.2,726.2,237.5,719.2,243.8z"/>
		<path class="st2" d="M471.9,163.7c0.3,0.7,0.6,1.3,0.9,2c4.9-2.2,9.8-4.3,14.7-6.5c-0.4-0.8-0.7-1.6-1.1-2.5
			C481.6,159.1,476.8,161.4,471.9,163.7z"/>
		<path class="st2" d="M715.9,151.1c0.2,0.7,0.4,1.4,0.6,2.2c-20.6,10.3-41.2,20.6-61.8,30.8c-0.3-0.6-0.6-1.1-0.9-1.7"/>
		<path class="st2" d="M654.3,183.5c-0.2-0.4-0.4-0.7-0.6-1.1c6.9-3.8,13.8-7.7,20.6-11.5c-0.1-0.3-0.3-0.6-0.4-0.9
			c-9.3,2.6-18.6,5.2-28,7.8c-0.3-0.9-0.6-1.9-0.9-2.8c23.6-8,47.1-15.9,70.7-23.9c0.1,0.5,0.3,1,0.4,1.5"/>
		<path class="st2" d="M617.9,169c0.2,0.7,0.4,1.4,0.6,2.1c8.1-1.5,16.1-3.1,24.2-4.6c-0.1-0.7-0.3-1.4-0.4-2"/>
		<polygon class="st2" points="558.9,157.2 605,138 646.2,120 658.7,126 668.3,130 637.4,132 613.8,140 597,150.8 615.8,145.6 
			585.3,159.2 561.7,167.7 580.1,151.2 		"/>
		<path class="st2" d="M532.4,156.4c1.2-0.8,48.1-20,48.1-20l-41.7,26L532.4,156.4z"/>
		<polygon class="st2" points="577.3,170.9 609.8,158 583.7,172.5 		"/>
		<polygon class="st2" points="586.5,181.7 611.8,173.3 589.3,185.3 		"/>
		<polygon class="st2" points="616.6,190.1 644.2,181.7 620.2,192.9 		"/>
		<path class="st2" d="M643.4,212.9c1.2,0,27.2-14.8,27.2-14.8l-3.2,6.4L643.4,212.9z"/>
		<polygon class="st2" points="670.7,235.4 693.5,228.2 726.8,211.3 716.4,219.3 694.7,232.2 		"/>
		<polygon class="st2" points="669.4,220.3 712.8,203.7 687.5,216.9 734,194.9 702.3,215.3 679.8,225.9 683.5,219.3 		"/>
		<path class="st8" d="M527.1,443.9c-9.1,3.9-17.4,7.3-27.3,11.5c9.1,4.1,16.8,7.6,24.5,11.1c0.4-0.8,0.8-1.6,1.2-2.4
			c-1.9-1.4-3.8-2.8-4.9-3.6c6.8,0,14.4,0,23.6,0c-1.9,1.9-3,3.4-4.4,4.3c-7.3,4.2-8.1,10.2-2.5,16.5c1.3,1.5,2.3,4.5,1.7,6.1
			c-11.6,30.5-33.9,48.5-65.8,54c-6.3,1.1-13.3-1-19.8-2.4c-5.4-1.2-7.7-5-8.2-10.9c-1.1-11.4-3.3-22.7-5.1-34
			c-0.4-2.4-0.6-4.8-0.9-6.5c10.8-2.8,20.8-5.3,30.7-8.2c1.3-0.4,2-3,2-6.3c-3,0.7-6,1.3-8.9,2.2c-6.2,1.9-12.3,4.2-18.5,5.8
			c-6.1,1.6-9-0.9-7.8-7.4c13.6-0.3,14.7-1,20.2-15.5c10.4,7.3,20.5,14.5,31.2,22c-0.4,0.7-1.4,2.2-2.8,4.4c1.5-0.6,3-0.7,3.4-1.5
			c1-2,1.8-4.1,2.1-6.3c0.1-0.5-1.9-2-2.9-1.9c-7.5,0.2-10.3-5.1-12.5-10.7c-6.3-15.7-19.4-21-34.7-23.2c-1.9-0.3-3.6-1-5.4-1.5
			c0.1-0.8,0.1-1.7,0.2-2.5c3.5-0.5,6.9-1.1,10.4-1.3c1.7-0.1,3.4,1,5.1,1.1c15.8,0.6,25.5,9.7,32.4,22.8c2.9,5.5,7.1,8.1,13.7,8.3
			c-1.5-2.3-2.7-4.2-4.3-6.6c8.3,2.9,15.8,5.6,23.3,8.3c0.2-0.5,0.4-1,0.6-1.5c-7.8-3.8-15.5-7.6-23.3-11.4
			c-1.7-0.8-4.1-1.1-5.1-2.5c-8.5-11.4-19.5-19.1-33.4-22.9c1.7-0.3,3.4-0.6,5.2-1c0-0.6,0-1.3,0-1.9c-7.4-0.5-14.9-1-22.3-1.5
			c-0.1-0.3-0.1-0.7-0.2-1c4.5-1.1,9.1-2.1,13.6-3.2c-0.1-0.7-0.1-1.4-0.2-2.1c-7.9,0.5-15.8,1-23.8,1.6
			C435.2,405.7,505.7,420.3,527.1,443.9z M502.4,474.6c0,9.8,3.9,20.5-7.2,27.6C508.1,495.2,510.3,487,502.4,474.6z"/>
		<path class="st8" d="M666.1,492.5c1.9-0.5,3.9-1.1,5.9-1.7c0-0.4-0.1-0.7-0.1-1.1c-6.1,0-12.2,0-18.4,0c-0.1-0.7-0.2-1.3-0.2-2
			c9.1-1.8,18.6-6.2,27.2-4.7c8.9,1.5,17.4,8.1,25.2,13.6c4.2,3,6.6,8.6,9.9,12.9c5.9,7.5,2.5,16,2.1,23.8c-0.7,12.5-0.7,26-11,35.4
			c-5.1,4.7-11.5,9.1-18.1,11c-20.6,6-41.3,6.3-61.3-3.5c-6.1-3-9.5-7-9.4-13.8c0.1-11.3,0.2-22.6,0.3-34.5c25,5,47.9,9.5,72.1,14.3
			c-1.2-2.5-1.5-4.1-2.4-4.8c-8-6.7-8.4-8-3.9-18.5c1.8-4.2-1.1-15.2-5-18.1C674.8,497.9,670.5,495.3,666.1,492.5z M687.4,550.4
			c-0.5-1.1-1-2.2-1.5-3.3c-11.1,4.4-22.3,8.8-35.3,13.9c8.9,0.7,15.7,1.2,22.5,1.7c0-0.3,0-0.6,0.1-0.8c-2.2-0.6-4.3-1.1-7.4-2
			C673.8,556.4,680.6,553.4,687.4,550.4z"/>
		<path class="st8" d="M677.3,510.8c-18.1-9-37.1-12.7-57.2-9.3c-1.4-5.7-1.2-8.4,5.4-8.6c14.6-0.5,28.9,0.3,42,7.5
			c3.9,2.1,7.3,5.2,11,7.9C678.1,509,677.7,509.9,677.3,510.8z"/>
		<path class="st8" d="M663.3,516c2.2,5.1,4,9.5,6.4,15.2c-6.3,0-11.2,0-16.3,0C656.5,526.4,659.4,522,663.3,516z"/>
	</g>
</g>
</svg>
