<?xml version="1.0" encoding="utf-8"?>
<!-- Generator: Adobe Illustrator 25.4.1, SVG Export Plug-In . SVG Version: 6.00 Build 0)  -->
<svg version="1.1" xmlns="http://www.w3.org/2000/svg" xmlns:xlink="http://www.w3.org/1999/xlink" x="0px" y="0px"
	 viewBox="0 0 1050 1050" style="enable-background:new 0 0 1050 1050;" xml:space="preserve">
<style type="text/css">
	.st0{display:none;}
	.st1{display:inline;fill:#1D1D1B;}
	.st2{display:inline;fill:#EDD661;}
	.st3{display:inline;fill:#27C0E3;}
	.st4{display:inline;fill:#4F536A;}
	.st5{display:inline;fill:#498EB3;}
	.st6{display:inline;fill:#FF6666;}
	.st7{display:inline;fill:#BFB9AE;}
	.st8{display:inline;fill:#D1CDC8;}
	.st9{display:inline;fill:#140F3F;}
	.st10{display:inline;fill:#B8F907;}
	.st11{display:inline;fill:#9933FF;}
	.st12{display:inline;fill:#3329FF;}
	.st13{display:inline;fill:#153213;}
	.st14{display:inline;fill:#FF66FF;}
	.st15{display:inline;fill:#00F0A6;}
	.st16{display:inline;fill:#FF0540;}
	.st17{display:inline;fill:#FFFFFF;}
	.st18{display:inline;}
	
		.st19{clip-path:url(#SVGID_00000181046593790065088170000016226039374986601151_);fill:none;stroke:#1D1D1B;stroke-width:0.335;stroke-miterlimit:10;}
	.st20{clip-path:url(#SVGID_00000092431715202662371000000009490882896123885441_);fill:#FF0540;}
	.st21{clip-path:url(#SVGID_00000092431715202662371000000009490882896123885441_);}
	.st22{fill:#FFFFFF;}
	
		.st23{clip-path:url(#SVGID_00000092431715202662371000000009490882896123885441_);fill:url(#SVGID_00000144322369958987978860000013416920549619295365_);}
	
		.st24{clip-path:url(#SVGID_00000092431715202662371000000009490882896123885441_);fill:url(#SVGID_00000121250129350732539170000006282678694299616686_);}
	
		.st25{clip-path:url(#SVGID_00000092431715202662371000000009490882896123885441_);fill:url(#SVGID_00000008116894773407956480000005534333575334810262_);}
	.st26{fill:url(#SVGID_00000049916590766227437790000002234890996670025653_);}
	.st27{fill:url(#SVGID_00000047048707552468105020000012979842536323586476_);}
	.st28{clip-path:url(#SVGID_00000092431715202662371000000009490882896123885441_);fill:#EDD661;}
	.st29{clip-path:url(#SVGID_00000092431715202662371000000009490882896123885441_);fill:#BCEEF7;}
</style>
<g id="Kleuren" class="st0">
</g>
<g id="PNG" class="st0">
	<g>
		<path class="st17" d="M-23,1070c-32.2,0-64.4,0-97,0c0-14.7,0-29.3,0-44c8.3-4.7,16.6-9.3,24.8-14.1
			c21.1-12.5,40.1-27.4,54.4-47.7c2.1-3,3.1-7,3.8-10.7c0.4-2-1.7-4.3-1.8-6.4c-0.5-20,0.2-40-1.4-59.9c-0.8-10.1,3-16.1,10.1-21.3
			c2.5-1.8,5.5-2.8,8.3-4.2c-0.4-0.2-0.8-0.3-1.2-0.5c0.3-1.1,0.3-2.5,1-3.2c3.5-3.6,7.2-6.9,10.7-10.5c1.5-1.5,2.4-3.5,3.8-5.7
			c-5.9,5-11.3,9.3-16.5,14c-5.4,4.9-11.7,7.9-18.5,10.4c-16.1,5.9-32,12.2-47.8,18.7c-10.1,4.2-19.9,9.3-29.8,14
			c0-306.3,0-612.7,0-919c363.3,0,726.7,0,1090,0c0,363.3,0,726.7,0,1090c-6.3,0-12.7,0-19,0c1.3-2.3,2.6-4.6,4.1-6.9
			c2.5-4,1.3-10.7-2.7-12.9c-20.1-11.3-39.4-24.2-62.8-28.6c-7.3-1.4-14.8-5.6-20.7-10.3c-13-10.3-25.3-21.6-37.6-32.9
			c-19.1-17.5-39.1-33.7-62.7-44.9c-4.4-2.1-8.4-5.4-11.8-8.9c-14-14.5-27.8-29.2-41.3-44.2c-6.9-7.7-13.1-16-18.8-24.5
			c-2.4-3.6-3.3-8.6-3.9-13c-1-8.7-2.5-17-8.6-24c-11.2-12.9-23.4-24.2-41.2-26.8c-3.6-0.5-4.9-2.5-4.2-5.8
			c1.5-7.3,2.3-14.9,4.9-21.7c6.9-17.9,13.4-35.8,14.7-55.2c0.5-7.9,1.8-15.7,2.8-23.9c3.6,1.1,6.4,2.1,9.2,2.9
			c5.2,1.4,10.6-0.7,14-4.7c7.5-9.1,9-20.3,10.4-31.2c1.7-13.3,2.9-26.7,6.7-39.8c5.2-17.7,10-35.5,7.6-54.5
			c-1.7-13.9-4.9-27.1-11.2-39.6c-3.4-6.7-7.8-8.4-14.2-4.7c-3.5,2.1-6.5,5-9.3,8c-2.5,2.6-4.5,5.8-7.4,9.6c0-3-0.1-4.7,0-6.3
			c3.5-35.8,7.5-71.6,10.4-107.4c1-12.7,2-26.3-1.5-38.2c-12.2-42.5-23.8-85.3-41.6-125.9c-0.9-1.9-1.8-4-3.3-5.4
			c-11.5-10.7-23.9-19.3-39.3-24.7c-33.9-11.8-69.8-16.6-103.2-30.4c-32.1-13.2-66-15.3-100.2-9.5c-13.2,2.2-26.2,6.3-39,10.2
			c-6.3,1.9-12.4,4.7-18.2,7.8c-18.6,9.9-35.3,22.6-51.4,36.2c-8.6,7.3-17.6,14.3-26.4,21.4c-1.3,1-2.6,2.1-4.1,2.9
			c-17.8,9.8-35.7,19.3-53.3,29.4c-4.3,2.5-7.8,6.5-11.3,10.3c-8.9,9.8-8.5,22.5-10.4,34.5c-0.9,5.7-0.8,11.6-1.9,17.3
			c-3.7,18.5-3.4,36.7,3.6,54.4c7.7,19.7,14.2,39.7,16.7,60.9c2.1,17.8,5.8,35.4,12.6,52.2c4,9.9,7.2,20,10.7,30.1
			c0.6,1.7,1.1,3.4,1.6,5.4c-3.8,1.4-7.1,2.6-10.5,3.9c30.7-5.2,61.6-7,93.3-5.6c-4.3,15.2-11.2,27.4-26.5,31.9
			c-7.7,2.3-16,2.8-24,4.1c-5.4,0.9-10.8,1.8-16.2,2.7l0.1-0.1c-8.3,0-16.6,0-25.4,0c2.9,1.2,5.6,2.2,8.7,3.5
			c-13.1,6-24.8,13.9-39.9,11.9c0.1,0.5,0.2,1,0.4,1.6c2.8,0.7,5.6,1.4,10.2,2.5c-6.8,5.8-12.5,10.7-18.2,15.6
			c-4.6,3.9-9,7.9-13.7,11.6c-1.8,1.4-4.2,2.7-6.4,2.9c-14.1,1.2-28.2,2.1-42.3,3.2c-3.3,0.3-6.6,0.9-11.2,1.6c1.6,0.7,1.9,1,2.2,1
			c25.8-0.7,51.6-1.5,77.4-1.8c3.6,0,8.7,1.5,10.5,4.1c2.3,3.3,2.2,8.4,2.8,12.8c0.6,4.4,0.9,8.8,1.3,13.2c0.5,0,1-0.1,1.5-0.1
			c-0.5-6.3-1-12.5-1.4-18.8c-0.1-1.2,0-3.2,0.6-3.4c1.1-0.5,3-0.4,4,0.2c3.1,1.9,6.2,4,8.8,6.5c12.7,12.9,23.5,27.1,33.4,42.2
			c7.1,10.8,15.8,20.4,23.7,30.7c0.7,0.9,1.4,2.6,1,3.3c-3.4,6.5-7.3,12.3-15.2,14.1c-19.3,4.4-33.1-1.6-42.8-18.6
			c-1.2-2.2-2.1-4.7-3.7-6.5c-3.8-4.3-8.3-7.9-11.8-12.3c-8.8-11.3-16.3-23.6-27.6-32.7c-3.7-3-7.5-4.7-12.3-4.6
			c-6.8,0.1-13.7-0.4-20.5-0.4c-13.3-0.1-26.6,0-39.8,0c0,0.6,0,1.2,0,1.7c2.5,0,4.9-0.1,7.4,0c16.5,0.9,32.9,1.6,49.3,3
			c3.9,0.3,7.9,2.5,11.1,4.9c5.4,4.1,10.6,8.6,15.2,13.6c4.2,4.6,9.4,8,11.8,14.8c2.2,6.3,8.8,10.4,12.9,16.1
			c5.2,7.3,8.5,14.7,10.7,22.9c3.3,12.1,6,24.2,8.8,36.4c0.8,3.7,1.5,7.6,1.3,11.4c-0.4,7.9-6.4,12.7-14,10.7c-3.8-1-7.8-3.3-10.7-6
			c-8.7-8.1-15.9-17.4-19.8-29c-1.2-3.8-3.3-7.2-5.2-11.3c-0.8,1.2-1.2,1.9-1.7,2.6c-20-10.4-23.5-30.6-30.2-49.2
			c0.6,6.3,1.1,12.7,1.7,18.6c-4.9,0.8-9.7,0.5-13.5,2.3c-10.2,4.7-20.6,4.5-31.3,3.2c-6.3-0.8-12.7-1.4-19-2.1
			c1.6,1.2,3.3,1.8,5.1,2.2c7.9,1.9,15.9,3.7,23.8,5.9c1.3,0.4,2.9,2.1,3.1,3.4c2.7,16.8,5.3,33.5,7.8,50.3
			c2.1,14.7,4.2,29.3,6,44.1c0.4,3.3,0.7,8-1.1,9.9c-8.3,8.5-17.3,16.2-26.1,24.2c0.3,0.4,0.6,0.7,0.9,1.1c0.5-1.7,1-3.3,1.5-5
			c-0.2-0.1-0.3-0.1-0.5-0.2c-6.3,9.1-12.6,18.2-18.9,27.3c3.6-2,6.7-4.7,9.5-7.6c4.5-4.7,8.7-9.6,13.3-14.2
			c6.8-6.9,13.6-13.7,20.6-20.4c2.9-2.8,4.1-5.8,3.7-9.8c-1.6-15.6-3.3-31.1-4.6-46.7c-0.2-2.8,0.1-6.1,1.4-8.6
			c7.7-14.2,15.8-28.1,23.8-42.2c0,0-0.2,0.2-0.2,0.2c0.8,0.4,1.9,0.6,2.3,1.2c4.6,7.1,10.6,12.1,18.6,15.1c2.1,0.8,4.4,3.3,5.1,5.5
			c4.3,12.6,12,22.9,21.4,32c4.9,4.7,10.6,7.9,17.8,7.5c0.9,0,1.8,0.9,2.7,1.4c-0.3,0.3-0.6,0.7-0.9,1c-5.8,7.7-11.5,15.5-17.4,23.1
			c-15.8,20.6-33.9,38.5-57.4,50.2c-1.3,0.7-2.9,2-4.1,1.7c-4.7-1-7.3,2.2-10.7,4.2c-4.4,2.6-9.1,4.9-13.6,7.2c-1.5,0.8-3,1.3-4.5,2
			c0.1,0.3,0.3,0.6,0.4,0.9c2.4-0.5,4.7-1.1,7.1-1.6c-0.8,1.9-2.3,3-3.5,4.3c-15.4,16.4-31.2,32.4-45.8,49.5
			c-5.4,6.4-10.7,9.2-18.7,10c-25.1,2.3-49.9,0.3-74.7-3.2c-2.3-0.3-4.7,0.7-7.1,1.1c2,1.2,3.9,2.9,6,3.5c24.8,6.8,50,7.4,75.4,5
			c1.9-0.2,3.7-0.3,6.1-0.5C22.8,1007.8-0.1,1038.9-23,1070z M67.2,650.6c0-0.4-0.1-0.8-0.1-1.1c-8,0.4-16,0.9-24,1.2
			c-4.4,0.2-6.5,2.7-8.5,6.4c-7.6,14.4-12.7,29.6-17.5,45c-2.2,7.1-6.4,13.7-7.8,20.9C4.7,747.5,1,772.2-2.9,796.8
			c-1.5,9.7-2.8,19.4-4.1,29c0.8-0.5,0.9-1.1,1-1.7c5.6-29.1,11-58.3,17-87.3c3.6-17.4,11.5-32.6,26-43.7c1.3-1,2.6-2,3.9-2.9
			c-0.4-0.4-0.8-0.8-1.2-1.2c-7.1,5.5-14.3,11-21.5,16.6c6.3-14.9,12.8-29.8,19-44.9c1.7-4,4.2-6.1,8.4-6.7
			C52.8,653,60,651.8,67.2,650.6z M200,565.8c-0.1-0.2-0.1-0.4-0.2-0.6c-4.4,0.6-8.9,0.7-13.1,2c-10.4,3-20.6,6.5-30.8,10
			c-2.6,0.9-5.4,2-7.5,3.7c-13,10.9-26.1,21.8-38.5,33.3c-8.5,7.9-17.1,15.2-27.5,20.4c-8.3,4.2-16.2,9-25,14
			c1.4,0.2,1.9,0.4,2.3,0.2c17.2-6.5,34.2-13.3,47-27.3c21.5-23.3,46-41.8,77.2-50.1c1.1-0.3,2.2-0.8,3.3-1.1
			C191.4,568.8,195.7,567.3,200,565.8z M59.3,910.9c12.9-9.1,23.4-20.6,29.7-35.5C79.1,887.3,69.2,899.1,59.3,910.9z M75.2,880.8
			c-9.5,7.4-19,14.8-28.6,22.3C59.2,899.5,67.5,890.6,75.2,880.8z M119.2,820.8c0.6,0.2,1.2,0.3,1.8,0.5c3.1-9.3,6.1-18.5,9.2-27.8
			c-0.5-0.2-1-0.3-1.5-0.5C125.5,802.2,122.3,811.5,119.2,820.8z M30.9,899.6c6.5,0.4,17-4,22.2-9.7
			C45.3,893.3,38.1,896.5,30.9,899.6z M30,896.9c-0.2-0.5-0.3-1-0.5-1.4c-6,2.4-12,4.8-18.1,7.2c0.1,0.3,0.2,0.7,0.4,1
			C17.9,901.4,23.9,899.2,30,896.9z"/>
		<path class="st18" d="M-23,1070c22.9-31.1,45.8-62.2,69.3-94c-2.4,0.2-4.3,0.3-6.1,0.5c-25.4,2.5-50.6,1.8-75.4-5
			c-2.2-0.6-4-2.3-6-3.5c2.4-0.4,4.8-1.4,7.1-1.1c24.8,3.5,49.6,5.5,74.7,3.2c8-0.7,13.3-3.6,18.7-10c14.5-17.1,30.4-33.1,45.8-49.5
			c1.2-1.3,2.6-2.4,3.5-4.3c-2.4,0.5-4.7,1.1-7.1,1.6c-0.1-0.3-0.3-0.6-0.4-0.9c1.5-0.7,3-1.3,4.5-2c4.6-2.4,9.2-4.7,13.6-7.2
			c3.4-1.9,6-5.2,10.7-4.2c1.2,0.3,2.7-1.1,4.1-1.7c23.6-11.7,41.7-29.6,57.4-50.2c5.9-7.7,11.6-15.4,17.4-23.1
			c-0.8,1.6-1.5,3.3-2.4,4.9c-11.4,20.5-25.5,39-43.5,54.3c-1.3,1.1-2.4,2.4-3.6,3.6c4.5-0.2,8.3-1.3,12-2.5
			c9.9-3.1,19.8-5.9,30.3-4.8c1.7,0.2,3.3,1,4.9,1.6c1.7,0.7,3.5,2.2,5.1,2c13.7-1.4,27.4-3.4,41.2-4.8c11.3-1.2,22.3-3.2,32.4-8.9
			c5.8-3.2,12.2-5.4,18.2-8.1c1.3-0.6,3.5-1.5,3.5-2.3c0.3-8.3,0.6-16.5,0.2-24.8c-0.1-1.8-3.1-3.3-4.5-5.2
			c-3.3-4.3-6.7-8.6-9.5-13.3c-12.7-21.1-18.1-44.9-25.2-68.1c-0.6-1.8-1.2-3.7-2.2-6.7c-2.1,3.7-3.4,6.3-5.1,8.7
			c-1.6,2.3-3.1,5.1-5.3,6.3c-11.2,5.9-23,6.7-35,2.5c-3.5-1.2-6.9-2.9-11.2-4.7c0.5,2.5,0.8,4.3,1.2,6c3,12.1,6.1,24.2,8.9,36.3
			c0.8,3.5,0.8,7.2,0.6,10.8c-0.5,7.1-5.7,11.4-10.2,16c-0.9-0.5-1.8-1.4-2.7-1.4c-7.2,0.4-12.9-2.8-17.8-7.5
			c-9.4-9.1-17.1-19.4-21.4-32c-0.8-2.2-3-4.7-5.1-5.5c-8-3-14.1-8-18.6-15.1c-0.4-0.6-1.5-0.8-2.3-1.2c-0.5-1.8-0.9-3.6-1.6-6.6
			c-8.6,13.1-16.3,24.8-24,36.5c1.4-3.5,2.4-7.3,4.4-10.5c5.2-8.3,10.9-16.3,16.2-24.5c1-1.6,0.7-4,1-6c-1.5,1.1-3.4,1.9-4.4,3.4
			c-5.8,8.5-11.3,17.2-17,25.8c-0.4-0.3-0.8-0.5-1.2-0.8c5.7-9.4,11.5-18.7,17.6-28.6c-5.3,0.4-8.8,1.8-11.1,6.3
			c-2.2,4.4-5.3,8.4-7.9,12.6c2-4.6,4.1-9.1,6.1-13.7c-0.3-0.3-0.7-0.6-1-0.9c-1.9,1.3-3.9,2.5-4.9,3.2c-2.4-0.5-4.3-0.9-6.7-1.4
			c1.2,4.5,2,8.2,3.2,11.8c0.2,0.7,1.9,1,2.8,1.5c-0.5,1.2-1.6,2.4-1.5,3.6c0.7,6.2,1.7,12.4,2.6,18.5c0.6-0.1,1.2-0.2,1.9-0.3
			c-0.4,3.7-0.7,7.4-1.1,11.1c0.5,0.1,1,0.1,1.5,0.2c0.3-0.5,0.7-1.1,1-1.6c6.8-12,13.5-24,20.4-35.9c0.9-1.5,2.5-2.5,3.8-3.7
			c-8,14-16.1,28-23.8,42.2c-1.3,2.4-1.6,5.7-1.4,8.6c1.4,15.6,3,31.2,4.6,46.7c0.4,4-0.8,7-3.7,9.8c-7,6.7-13.8,13.5-20.6,20.4
			c-4.5,4.6-8.8,9.5-13.3,14.2c-2.8,2.9-5.9,5.6-9.5,7.6c6.3-9.1,12.6-18.2,18.9-27.3c0.2,0.1,0.3,0.1,0.5,0.2c-0.5,1.7-1,3.3-1.5,5
			c-0.3-0.4-0.6-0.7-0.9-1.1c8.8-8,17.8-15.7,26.1-24.2c1.8-1.9,1.5-6.6,1.1-9.9c-1.8-14.7-3.9-29.4-6-44.1
			c-2.5-16.8-5-33.6-7.8-50.3c-0.2-1.3-1.8-3-3.1-3.4c-7.9-2.1-15.8-3.9-23.8-5.9c-1.7-0.4-3.5-0.9-5.1-2.2c6.4,0.7,12.7,1.3,19,2.1
			c10.7,1.3,21.1,1.5,31.3-3.2c3.8-1.8,8.6-1.5,13.5-2.3c-0.5-5.9-1.1-12.2-1.7-18.6c6.7,18.6,10.3,38.8,30.2,49.2
			c0.5-0.8,1-1.5,1.7-2.6c1.9,4.1,4,7.5,5.2,11.3c3.8,11.6,11.1,20.9,19.8,29c2.9,2.7,6.8,5,10.7,6c7.6,2,13.7-2.8,14-10.7
			c0.2-3.8-0.5-7.7-1.3-11.4c-2.8-12.2-5.6-24.4-8.8-36.4c-2.2-8.2-5.5-15.7-10.7-22.9c-4.1-5.7-10.7-9.9-12.9-16.1
			c-2.4-6.7-7.6-10.2-11.8-14.8c-4.6-5-9.8-9.6-15.2-13.6c-3.2-2.4-7.3-4.6-11.1-4.9c-16.4-1.4-32.9-2.1-49.3-3
			c-2.4-0.1-4.9,0-7.4,0c0-0.6,0-1.2,0-1.7c13.3,0,26.6-0.1,39.8,0c6.8,0,13.7,0.5,20.5,0.4c4.8-0.1,8.6,1.6,12.3,4.6
			c11.3,9.2,18.8,21.5,27.6,32.7c3.5,4.5,8,8.1,11.8,12.3c1.6,1.8,2.4,4.3,3.7,6.5c9.7,17,23.5,23,42.8,18.6
			c7.8-1.8,11.8-7.6,15.2-14.1c0.4-0.8-0.3-2.4-1-3.3c-7.9-10.2-16.6-19.9-23.7-30.7c-9.9-15.1-20.8-29.4-33.4-42.2
			c-2.5-2.6-5.7-4.6-8.8-6.5c-1-0.6-2.9-0.7-4-0.2c-0.6,0.2-0.7,2.2-0.6,3.4c0.4,6.3,0.9,12.5,1.4,18.8c-0.5,0-1,0.1-1.5,0.1
			c-0.4-4.4-0.7-8.8-1.3-13.2c-0.6-4.4-0.5-9.5-2.8-12.8c-1.8-2.6-6.9-4.2-10.5-4.1c-25.8,0.3-51.6,1.2-77.4,1.8
			c-0.3,0-0.6-0.2-2.2-1c4.5-0.6,7.8-1.3,11.2-1.6c14.1-1.1,28.2-2,42.3-3.2c2.2-0.2,4.6-1.5,6.4-2.9c4.7-3.7,9.2-7.7,13.7-11.6
			c5.7-4.9,11.4-9.7,18.2-15.6c-4.6-1.1-7.4-1.8-10.2-2.5c-0.1-0.5-0.2-1-0.4-1.6c15,2,26.8-5.9,39.9-11.9c-3.1-1.2-5.7-2.3-8.7-3.5
			c8.9,0,17.2,0,25.4,0c0.3,1.2,0.7,2.4,1.2,4c-31.1,3.3-52.1,23.7-73.8,44.7c11-1.7,21.4-3.3,28.7,6.7c21.4-15.9,42-31.3,57-52.6
			c-4.5-0.9-8.8-1.8-13.2-2.7c5.4-0.9,10.8-1.8,16.2-2.7c8-1.3,16.3-1.8,24-4.1c15.3-4.5,22.2-16.7,26.5-31.9
			c-31.7-1.4-62.5,0.4-93.3,5.6c3.4-1.2,6.7-2.5,10.5-3.9c-0.6-2-1.1-3.7-1.6-5.4c-3.5-10-6.7-20.2-10.7-30.1
			c-6.8-16.8-10.5-34.4-12.6-52.2c-2.5-21.2-9-41.2-16.7-60.9c-6.9-17.8-7.2-35.9-3.6-54.4c1.1-5.7,1-11.6,1.9-17.3
			c1.9-11.9,1.5-24.7,10.4-34.5c3.4-3.7,6.9-7.8,11.3-10.3c17.6-10.1,35.5-19.6,53.3-29.4c1.4-0.8,2.8-1.9,4.1-2.9
			c8.8-7.1,17.8-14,26.4-21.4c16-13.6,32.7-26.3,51.4-36.2c5.8-3.1,11.9-5.9,18.2-7.8c12.9-3.8,25.8-7.9,39-10.2
			c34.1-5.8,68.1-3.7,100.2,9.5c33.4,13.8,69.3,18.6,103.2,30.4c15.4,5.4,27.8,13.9,39.3,24.7c1.5,1.4,2.5,3.5,3.3,5.4
			c17.9,40.6,29.4,83.5,41.6,125.9c3.4,11.9,2.5,25.5,1.5,38.2c-2.9,35.8-6.9,71.6-10.4,107.4c-0.2,1.6,0,3.3,0,6.3
			c2.9-3.8,4.9-7,7.4-9.6c2.8-2.9,5.9-5.9,9.3-8c6.4-3.8,10.8-2,14.2,4.7c6.3,12.5,9.5,25.7,11.2,39.6c2.3,19-2.5,36.8-7.6,54.5
			c-3.8,13.1-4.9,26.4-6.7,39.8c-1.4,10.9-2.9,22.1-10.4,31.2c-3.4,4.1-8.9,6.2-14,4.7c-2.9-0.8-5.7-1.8-9.2-2.9
			c-1,8.2-2.3,16-2.8,23.9c-1.3,19.4-7.8,37.3-14.7,55.2c-2.6,6.9-3.4,14.4-4.9,21.7c-0.7,3.4,0.6,5.3,4.2,5.8
			c17.8,2.6,30.1,13.8,41.2,26.8c6,7,7.6,15.3,8.6,24c0.5,4.5,1.4,9.4,3.9,13c5.7,8.6,12,16.8,18.8,24.5
			c13.4,15,27.3,29.7,41.3,44.2c3.4,3.5,7.4,6.8,11.8,8.9c23.6,11.2,43.6,27.4,62.7,44.9c12.3,11.2,24.6,22.5,37.6,32.9
			c6,4.7,13.4,8.9,20.7,10.3c23.4,4.4,42.7,17.3,62.8,28.6c4,2.2,5.2,9,2.7,12.9c-1.4,2.3-2.7,4.6-4.1,6.9c-56,0-112,0-168,0
			c3.7-3,7.5-6,11.2-9.1c15.9-13.7,31.8-27.5,47.9-41.5c-4.2-1.9-7.2,0.1-9.7,2.4c-7.6,6.5-15,13.2-22.4,19.8
			c-10.7,9.5-21.3,19-31.9,28.5c-22.7,0-45.3,0-68,0c8.5-7.7,16.9-15.5,25.4-23.2c3.2-2.9,5.6-6,5.4-10.7
			c-0.6-12.3-1.1-24.6-1.5-36.9c-0.5-18.6-0.8-37.3-1.2-55.9c-0.1-2.8-0.7-5.5-1-8.3c-0.6,0-1.1,0.1-1.7,0.1
			c-0.2,2.5-0.6,5.1-0.7,7.6c-0.4,29.8-0.8,59.6-1,89.4c0,4.6-1.7,7.6-5,10.7c-9.4,8.8-18.5,18.1-27.8,27.1c-44.7,0-89.3,0-134,0
			c0.9-1.4,1.8-2.8,2.8-4.1c20.5-25.6,41.3-51,61.5-76.9c18.5-23.7,34.2-49.3,45-77.5c8.1-21,9.1-43.2,10.3-65.4
			c0.7-12.3-3.7-22.4-14.1-29.8c-8.4-6-16.6-12.1-26.8-15c-0.5,0.9-0.9,1.4-1.2,2c-11.6,27.3-29.3,50.5-51.4,69.9
			c-26.2,22.9-53.6,44.4-80.1,67c-28.8,24.5-57,49.7-85.6,74.4c-3.1,2.7-3.5,4.8-1.4,8.5c8.3,14.5,17.5,28.3,28.9,40.6
			c1.8,1.9,3.3,4.1,4.9,6.2c-40,0-80,0-120,0c3.3-6.9,6.5-13.9,9.8-20.8c-0.2-0.3-0.4-0.5-0.7-0.8c-7.7,7.2-15.4,14.4-23.1,21.6
			c-3.3,0-6.7,0-10,0c10.2-9.3,19.9-19.1,30.6-27.9c11-9,24.1-13.9,38.5-15.2c8.5-0.7,16.9-1.7,25.4-2.6c1.3-0.1,2.6-0.7,4.4-1.2
			c-3.5-4.4-6.6-8.1-9.4-12c-27.6-38.6-47.2-81.1-62.3-125.8c-2.8-8.4-5-16.9-7.5-25.4c-0.5-1.7-1.1-3.7-2.4-4.9
			c-7.1-6.4-14.4-12.6-21.8-18.9c1.1,13.3,2.8,26.1,3,39.1c0.2,13-0.9,25.9-1.8,38.9c-0.8,12.7-2.1,25.4-3.2,38.2
			c-0.4,0-0.8,0-1.3,0c0-29.3,0-58.7,0-88c-12.6,28.7-31.4,52.5-52.1,75c-20.8,22.6-44.4,42-70.3,59.7c2.5,1.5,4.3,2.6,6.1,3.6
			c27.6,15.6,54.9,31.5,79.7,51.5c5.5,4.4,10.9,8.8,13.3,15.9c-33.7,0-67.3,0-101,0c-1.5-4.3-2.4-8.9-4.7-12.8
			c-3.4-5.7-7.9-10.7-11.6-16.2c-11.8-17.5-23.4-35.2-35-52.8c-1.8-2.7-1.7-4.8,0.7-7.5c13.7-15.4,27.6-30.8,40.7-46.7
			c9-10.9,17-22.6,25.3-34c1.3-1.8,1.7-4.4,2.5-6.6c-0.5-0.2-0.9-0.3-1.4-0.5c-0.7,0.9-1.4,1.7-2.1,2.6
			c-7.2,9.2-14.1,18.6-21.7,27.4c-15.5,18.1-31.3,35.9-47.1,53.8c-3.6,4-4.5,7.7-1.2,12.5c4.2,6,7.8,12.4,11.9,18.5
			c11.4,16.8,23.1,33.4,34.3,50.4c2.3,3.4,3,7.9,4.4,11.9C111.7,1070,44.3,1070-23,1070z M229.2,292.9c-11,8.6-18,20.3-26.7,31.6
			c13.3-11.6,26.1-22.8,39.5-34.5c-2.5,0.3-4.6,0.6-6.7,0.8c3.8-1.7,7.6-3.5,11.2-5.1c-9.9-1.8-36.5,11.8-45.3,23.6
			c1.9-1.2,3.3-2.2,4.7-3C213.7,301.9,221.4,297.4,229.2,292.9z M655.4,542.6c-0.4,2.3-0.9,4.6-1.2,6.9c-1.2,9.8,1.4,13.6,10,14.2
			c0.3,0,0.6-0.1,0.5-0.1c3.2-5.3,6.1-10.6,9.4-15.4c5.9-8.6,8.6-9.4,18.3-6.4c0.4-0.8,0.8-1.6,1.3-2.6c5.8,9.9,8.8,40.8,4.7,48
			c-1-6.5-1.9-12.9-3.1-20.6c-0.5,9.4-0.9,17.4-1.3,25.5c-2.8-9.1-4.6-18.4-6.9-27.6c-1.3-5.1-3.3-10-5-14.9
			c-0.6,0.1-1.3,0.1-1.9,0.2c-2.6,4.4-5.2,8.7-8.5,14.4c2,1.2,3.9,2.3,6.3,3.7c-3.3-0.4-6.4-1.7-7.8-0.7c-8.5,6.3-8,11.5,1.1,17.2
			c0.4,0.3,0.8,0.6,1.3,0.8c12.2,7,11.2,4.7,8.7,20c-1.4,8.3-2.3,16.6-3.5,25c0.3,0.1,0.6,0.3,1,0.4c2.2-2.9,4.4-5.8,6.5-8.7
			c0.5,0.3,1,0.6,1.4,0.9c-4.3,7.6-8.5,15.2-13.1,22.6c-0.9,1.4-3.2,1.8-4.9,2.7c-0.5-0.3-1.1-0.7-1.6-1c-1.5,10.7-3.1,21.3-4.5,32
			c-0.2,1.2,0.3,3.2,1.2,3.9c4.4,3.3,12.9,2.9,16.6-1.5c3.6-4.2,6.7-9.2,8.5-14.4c2-5.7,2.7-12,3-18.2c0.8-20.2,5.5-39.6,11.4-58.7
			c6.6-21.4,4.8-42.1-3.7-62.4c-1.3-3-3.3-5.8-5.2-8.4c-2.3-3.1-5.3-3.5-8.1-0.7c-4,4-7.9,8.1-11.6,12.4c-3.9,4.5-7.5,9.3-11.3,14
			c-1.5,1.8-3,3.7-4.4,5.4C658.1,548.6,656.7,545.6,655.4,542.6c-1.6-10.5-3-21-4.5-31.5c-1.8-12.7-1.7-26-11.1-36.6
			c-5.4-6.1-8.2-13.6-9.7-21.6c-3.3-17.7-12.3-32.9-21.7-47.9c-1.6-2.5-3.5-3.2-6.3-2.1c-4.3,1.7-8.7,3.1-13,4.6
			c-6.1,2.1-11.1-0.9-11.8-7.3c-0.7-6.4-1.6-12.9-1.9-19.4c-0.2-4.1-1.6-5.9-5.9-6c-3.6-0.1-7.6-0.8-10.5-2.6
			c-5.2-3.2-10.5-2.7-15.9-2.4c-16.4,0.9-32.9,2.3-49.3,2.7c-15.1,0.4-30.3-0.1-45.4-0.6c-15.4-0.5-30.9-0.9-46.3-2.6
			c-10.9-1.3-21.4-2.3-31.9,1.7c-2.6,1-5.6,1.1-8.5,1.6c-0.1-0.4-0.3-0.9-0.4-1.3c3.7-1.9,7.5-3.7,12-6c-14.1-4.3-27-2.9-39.9,1
			c3.7-1.3,7.3-2.6,11.6-4.2c-1.2-0.7-1.6-1-2-1.1c-9.7-0.4-19.3-0.7-29-1c-0.9,0-2.2,0.2-2.7,0.9c-5.7,6.5-12,12.5-16.6,19.7
			c-5.2,8.2-9,17.4-13.2,26.3c-1.6,3.4-3,7.1-3.4,10.8c-1.3,10.2-2.1,20.5-3.2,30.8c-0.7,7.3-7.5,13.6-14.6,10.6
			c-1.2-0.5-2.6-0.5-4.6-0.9c-18.4,29-22.5,61.4-23.4,95.1c3.1-0.4,5.2-0.8,7.4-0.9c18.9-0.9,37.9-1.9,56.8-2.5
			c5.4-0.2,7.2,2.9,6.1,8.3c-0.4,1.7-0.6,3.4-1,5.3c14.3-3.6,27.9-7,41-10.2c-18.4-17.5-42-15.7-65.1-17.5c3.1-0.7,6.2-1.4,9.2-2.1
			c-1-0.6-2.1-1.2-3.2-1.8c0.1-0.3,0.2-0.7,0.3-1c6.7,0,13.3,0,20,0c0-0.1,0-0.3,0-0.4c-3.1-0.8-6.3-1.5-9.4-2.3
			c0-0.5,0.1-1.1,0.1-1.6c1.7-0.4,3.3-0.8,5.1-1.3c-0.3-0.6-0.6-1.2-1.2-2.4c3.2,0,6-0.3,8.8,0c19.7,2.1,39.4,4.2,59.1,6.4
			c23.1,2.6,44.2,12,66,19.2c6.8,2.2,6.9,3.7,2.3,8.3c3.9,6.6,7.7,13.2,11.6,20c2.8-2,5.8-4,8.8-6.1c-0.1-0.2-0.3-0.4-0.4-0.7
			c-1.8,0.7-3.6,1.4-5.4,2.1c-0.1-0.4-0.1-0.9-0.2-1.3c12.8-6.3,26.1-6.8,38.3-2.1c0.9-4.8,1.8-9,2.6-13.4c-2.2,1.7-4.3,4.2-7,5
			c-2.5,0.7-5.5-0.3-8.3-0.6c-0.3,0-0.7,0.1-1,0.1c-8.6,1.8-17.3,3.6-26.7,5.5c3.2-2.2,6.2-4,9-6.2c1.1-0.9,2.3-2.3,2.4-3.6
			c0.8-12.7,1.4-25.4,2.1-38.1c0.2,0,0.4,0,0.7,0c1.4,12.6,2.8,25.2,4.2,37.7c3.7,0,7.6-0.5,11.2,0.1c7,1.2,12.7-3.7,12.3-10.9
			c-0.1-2,0.4-4.6,1.6-6.1c5-5.9,9.8-12.3,15.9-17c9.2-7.1,19.3-13,29.1-19.3c0.1,0,0.4,0.3,1.7,1.2c-2.6,2.3-5,4.5-7.5,6.7
			c-0.1-0.2-0.1-0.4-0.2-0.6c14.3-6.4,28.6-12.8,42.9-19.2c0.1,0.1,0.1,0.2,0.2,0.4c-5.5,4.2-10.9,8.4-16.3,12.6
			c13.3-4.6,26.5-9.1,39.7-13.7c0.2,0.6,0.4,1.2,0.6,1.8c-2.1,1-4.1,2-6.2,3c-15.6,7.2-31.6,13.3-45.7,23.5c-3.8,2.8-7.3,6-11,9.1
			c7.6-0.9,14.3-2.6,21.1-4.2c24.2-5.8,47.9-5.6,70.7,5.6C635.5,532.7,645.4,537.7,655.4,542.6z M358.6,839.9
			c0.4-0.2,0.7-0.3,1.1-0.5c4,7.8,7.7,15.9,12.2,23.5c4.4,7.4,8.2,16,14.5,21.3c10.7,8.9,22.7,16.5,35,23
			c23.4,12.2,48.9,13.6,74.6,11.3c9.7-0.9,19.4-3.1,28.9-5.4c3.9-0.9,7.3-3.6,10.9-5.5c-0.2-0.3-0.3-0.6-0.5-0.9
			c-12.7,1.8-25.5,3.7-38.2,5.5c-0.1-0.5-0.2-0.9-0.2-1.4c13-2.7,26-6.1,39.1-7.8c9.5-1.2,12.4-7.9,16.8-15.2
			c-7,3-13.1,5.6-19.1,8.1c-0.2-0.4-0.4-0.9-0.6-1.3c8.8-5,17.6-10,26.4-15.1c-0.2-0.4-0.4-0.7-0.6-1.1c-20.3,9.9-41.1,18.4-62.9,24
			c14.9-6.2,29.7-13.1,45.1-17.8c17.1-5.2,28.1-15.7,35.8-31.2c4.5-9,10.5-17.2,15.8-25.8c0.3,0.2,0.6,0.3,0.9,0.5
			c-1.5,3.2-3,6.5-4.5,9.7c0.5,0.2,0.9,0.4,1.4,0.6c38.4-47.8,66.9-99.9,67.6-162.7c-5.7,10.9-11.7,22.6-17.8,34.3
			c-0.4-1.6,0-2.8,0.5-4c5.7-14.2,11.4-28.5,17-42.7c11.2-28.5,5.5-57.9,4.1-87c-0.1-1.1-1.5-2.1-2.4-3.1c-0.6,1.2-1.6,2.4-1.7,3.6
			c-1.6,12.9-2.9,25.8-4.6,38.6c-1.2,9.6-7,15.3-16.1,18.3c-24.4,8.3-49.3,14.5-75.1,15.6c-21.5,0.9-39.7-7.3-54.4-22.9
			c-3.7-4-6.8-8.5-10.5-13.2c1,12,2,23.4,3,34.8c-0.6,0.1-1.1,0.1-1.7,0.2c-2.3-16.6-4.5-33.2-6.8-49.8c-0.9-6.1-1.9-12.1-3.1-18.2
			c-0.2-1.1-1.8-2.4-3-2.9c-8.4-3.7-16.8-3.6-25.2,0.3c-2.4,1.1-2.9,2.4-2.7,5c0.4,5.6,0.1,11.2,0.1,16.8c-0.1,0-0.2,0-0.4,0
			c-0.7-6-1.4-12.1-2.1-18.1c-7.1,1.2-8.2,2.3-8.1,8.1c0.2,16.9-3.5,33.1-9.1,48.8c-5.4,15.1-15.5,26.4-31.4,30.4
			c-20.5,5.2-41.4,8.8-62.6,9.2c-7.4,0.2-14.7,1.1-22.1,1.6c-1.3,9-2.8,10.5-10.1,16.3c-12.7,10-24.9,20.5-37.3,30.8
			c-2.7,2.3-3.1,5.1-2,8.5c5.7,17.9,11.1,36,17.1,53.8c8.3,24.7,22.9,44.8,44.7,59.6c12.4,8.4,24.4,17.4,36.6,26
			c0.9,0.7,2,1.1,2.2,1.2C368.3,864.2,363.5,852.1,358.6,839.9z M348.9,882.1c-0.5,0.3-1,0.5-1.5,0.8c4.5,12.3,8.6,24.8,13.5,36.9
			c13.6,33.6,31.7,64.5,55,92.3c3.7,4.4,4.7,4.2,8.6,0.3c6.5-6.7,13.2-13.1,19.7-19.9c1-1,2-3.4,1.5-4.3
			c-6.1-10.7-12.9-21-23.4-28.1c-5.5-3.7-10.9-7.7-16.4-11.3c-21.1-13.9-38.2-31.5-49.9-54.1C353.7,890.4,351.3,886.3,348.9,882.1z
			 M275.7,606.3c-4.2,1.1-8.8,2.1-13.3,3.7c-7.2,2.5-14.2,5.9-21.5,8c-3.3,1-3.8,1.9-3.3,5c2.1,12.9,3.7,26,5.9,38.9
			c1.1,6.3,3,12.4,4.6,19.2c14-11.7,29.8-16.4,46.9-17.2C288.5,644.4,282.2,625.7,275.7,606.3z M236.2,695.6
			c8.7,12,17.8,24.7,26.9,37.2c1.1-0.6,1.5-0.6,1.6-0.9c12.4-18,29.3-31.2,47.3-43c5.1-3.4,4.9-8.7,4.7-13.3
			c-0.1-2.2-4.5-4.5-7.3-6.2c-1.7-1.1-4.1-1.1-6.3-1.4c-16-2.6-29.7,3.2-42.6,11.7C252.9,684.8,245.2,689.8,236.2,695.6z
			 M217.8,670.8c5.6,6.8,11,13.4,16.6,20.2c1.8-1.2,3.3-2.5,5.1-3.3c3.8-1.8,4.5-4.3,3.6-8.4c-2.2-9.9-4.3-19.8-5.6-29.9
			c-1.4-10.9-6.4-21.5-3.8-33.6c-1.4,0.7-1.8,2.2-2.7,3.4c-8.9,12-18.9,22.7-32.6,29.3c-0.9,0.4-1.8,1.2-2.1,2
			c-0.4,1.1-0.1,2.4-0.1,3.6c0.4,0,0.7-0.1,1.1-0.1c0.1-0.8,0.1-1.5,0.2-3c6.5,6.2,12.5,11.8,18.5,17.4c8.8-9.5,11-17.2,8.9-28.7
			c-0.6-3.3-0.6-6.8-0.8-10.1c0.7-0.1,1.5-0.2,2.2-0.3c1.9,7,4,13.9,5.6,20.9c0.3,1.6-0.9,3.8-2,5.3
			C226.1,660.6,222,665.6,217.8,670.8z M415.8,232.3c18.2-2,36.3-4.1,54.5-6.1c0.1,0.5,0.1,0.9,0.2,1.4c-1.4,0.4-2.7,0.9-4.1,1.3
			c-1.3,0.4-2.7,0.9-4.1,1.3c38.5-3.9,76.5-5.5,112.7,11.7c-2.4-0.6-4.9-1.2-7.3-1.9c0,0.2-0.1,0.3-0.1,0.5
			c13.2,6.5,26.5,13,39.7,19.5c0.2-0.4,0.4-0.8,0.7-1.2c-4.2-2.8-8.5-5.6-12.7-8.3c0.1-0.2,0.2-0.5,0.3-0.7c4,1.5,7.9,2.9,11.9,4.4
			c0.2-0.4,0.4-0.7,0.6-1.1c-7.2-4-14.2-8.3-21.6-11.8c-6-2.9-12.4-4.8-18.6-7.2c-0.4-0.2-0.6-1-1.4-2.5c-2.8-0.9-6.7-2.2-10.7-3.3
			c-4-1.1-8-1.9-12-2.8c1.3-0.6,2.6-0.7,3.9-0.7c1.5,0,3,0,4.4,0C506.2,219,460.6,219.3,415.8,232.3z M395.1,272.2
			c-15.5,3.3-98.7,36.8-106.2,43.3c18.1-6.1,36.2-12.1,54.3-18.2c0,0.1,0.1,0.2,0.1,0.3c-8.7,4.1-17.5,8.3-26.2,12.4
			c19.8-4.7,90.6-36.3,102.6-45.7c-14.9,6.2-28.4,11.9-42,17.6c-0.1-0.3-0.2-0.6-0.4-0.9C383,278.4,388.6,275.5,395.1,272.2z
			 M513.3,252.2c-27.5,2.7-151,48.5-164.9,61C403.4,292.9,457.8,272.8,513.3,252.2z M548.8,255.6c-57.1,10.4-112.1,27.6-164.9,51.6
			C438.9,290,493.8,272.8,548.8,255.6z M337.1,311.7c44.6-19.8,89.2-39.5,133.8-59.3C423.9,266.8,378.4,284.7,337.1,311.7z
			 M218.2,338.1c9.8-13.1,19-25.4,28.1-37.7c1-1.3,1.3-3.1,1.9-4.6c-1.7,0.1-3.7-0.4-5.1,0.3c-15.3,7.7-25.7,19.9-32.7,35.3
			c12.7-11.4,21.7-26.7,37.2-35C234.9,307.7,223.7,320.2,218.2,338.1z M538.2,271.7c-14.1-0.1-74.5,14.8-83.3,20.1
			c28.2-5.3,56.3-10.6,84.5-16c0-0.3-0.1-0.6-0.1-0.9c-6.8,1-13.6,2.1-20.4,3.1c0-0.3-0.1-0.5-0.1-0.8
			C525.1,275.4,531.7,273.6,538.2,271.7z M284.9,301.4c0.3,0.6,0.5,1.1,0.8,1.7c25.4-6.7,48.6-18.4,70.4-33
			C332.4,280.5,308.7,291,284.9,301.4z M489.1,213.8c-35.3,0.5-69.6,5.9-100.3,13.5C420,223.1,454.5,218.5,489.1,213.8z
			 M260.6,599.8c3.7-0.8,6.9-2,10.2-1.9c4.9,0.1,5.8-1.8,4.3-6.3c-5.2,1-10.4,2-15.6,3C259.9,596.3,260.2,597.9,260.6,599.8z
			 M502.9,285c0.1,0.4,0.2,0.9,0.3,1.3c19-1.5,38-3,56.9-4.5c0-0.5-0.1-0.9-0.1-1.4C541,282,521.9,283.5,502.9,285z M625.8,274
			c0.3-0.6,0.6-1.3,0.9-1.9c-11.4-4.8-22.7-9.7-34.1-14.5c-0.2,0.4-0.3,0.7-0.5,1.1C603.3,263.8,614.5,268.9,625.8,274z
			 M230.8,334.9c0.4,0.2,0.7,0.5,1.1,0.7c4.5-7.1,8.9-14.1,13.4-21.2C238.4,319.9,233.4,326.7,230.8,334.9z M240.8,608.5
			c10.5-2.8,14.8-6.2,13.3-9.9C249.6,601.9,245.2,605.2,240.8,608.5z"/>
		<path class="st17" d="M460,1070c-1.6-2.1-3.1-4.3-4.9-6.2c-11.4-12.3-20.6-26.1-28.9-40.6c-2.1-3.6-1.7-5.8,1.4-8.5
			c28.6-24.8,56.8-49.9,85.6-74.4c26.5-22.6,53.9-44.1,80.1-67c22.1-19.4,39.8-42.6,51.4-69.9c0.3-0.6,0.7-1.1,1.2-2
			c10.2,2.9,18.4,9.1,26.8,15c10.3,7.4,14.7,17.5,14.1,29.8c-1.2,22.1-2.2,44.3-10.3,65.4c-10.8,28.3-26.4,53.8-45,77.5
			c-20.2,25.9-41,51.3-61.5,76.9c-1,1.3-1.9,2.7-2.8,4.1C531.3,1070,495.7,1070,460,1070z M653.5,910c-0.3-0.3-0.6-0.7-0.9-1
			c-12.7,14.8-25.4,29.7-38.1,44.5c0.4,0.3,0.8,0.7,1.1,1C628.2,939.7,640.9,924.9,653.5,910z M664.6,848.4c-0.5-0.3-1-0.6-1.5-0.9
			c-7.8,12.8-15.5,25.5-23.3,38.3c0.4,0.2,0.8,0.5,1.2,0.7C648.9,873.8,656.8,861.1,664.6,848.4z"/>
		<path class="st17" d="M285,1070c-2.4-7-7.8-11.5-13.3-15.9c-24.8-19.9-52.1-35.9-79.7-51.5c-1.8-1-3.6-2.2-6.1-3.6
			c25.9-17.7,49.5-37,70.3-59.7c20.6-22.5,39.5-46.3,52.1-75c0,29.3,0,58.7,0,88c0.4,0,0.8,0,1.3,0c1.1-12.7,2.3-25.4,3.2-38.2
			c0.9-13,2-25.9,1.8-38.9c-0.2-12.9-2-25.8-3-39.1c7.3,6.3,14.6,12.5,21.8,18.9c1.2,1.1,1.9,3.1,2.4,4.9c2.6,8.4,4.7,17,7.5,25.4
			c15.1,44.7,34.8,87.2,62.3,125.8c2.8,3.9,5.9,7.5,9.4,12c-1.8,0.5-3.1,1-4.4,1.2c-8.4,0.9-16.9,1.9-25.4,2.6
			c-14.4,1.2-27.4,6.2-38.5,15.2c-10.7,8.7-20.4,18.5-30.6,27.9C305.7,1070,295.3,1070,285,1070z"/>
		<path class="st17" d="M179,1070c-1.4-4-2.2-8.5-4.4-11.9c-11.2-16.9-22.9-33.6-34.3-50.4c-4.1-6.1-7.7-12.5-11.9-18.5
			c-3.3-4.7-2.4-8.4,1.2-12.5c15.8-17.8,31.6-35.7,47.1-53.8c7.6-8.8,14.5-18.3,21.7-27.4c0.7-0.9,1.4-1.8,2.1-2.6
			c0.5,0.2,0.9,0.3,1.4,0.5c-0.8,2.2-1.1,4.7-2.5,6.6c-8.3,11.5-16.3,23.1-25.3,34c-13.2,15.9-27,31.3-40.7,46.7
			c-2.4,2.7-2.5,4.8-0.7,7.5c11.7,17.6,23.3,35.3,35,52.8c3.7,5.5,8.3,10.5,11.6,16.2c2.3,3.8,3.2,8.5,4.7,12.8
			C182.3,1070,180.7,1070,179,1070z"/>
		<path class="st17" d="M701,1070c9.2-9.1,18.3-18.3,27.8-27.1c3.3-3.1,5-6.1,5-10.7c0.2-29.8,0.6-59.6,1-89.4
			c0-2.6,0.4-5.1,0.7-7.6c0.6,0,1.1-0.1,1.7-0.1c0.4,2.8,1,5.5,1,8.3c0.5,18.6,0.7,37.3,1.2,55.9c0.3,12.3,0.9,24.6,1.5,36.9
			c0.2,4.7-2.2,7.8-5.4,10.7c-8.5,7.7-17,15.5-25.4,23.2C707,1070,704,1070,701,1070z"/>
		<path class="st17" d="M778,1070c10.6-9.5,21.3-19,31.9-28.5c7.4-6.6,14.8-13.3,22.4-19.8c2.6-2.2,5.5-4.2,9.7-2.4
			c-16.1,14-32,27.8-47.9,41.5c-3.6,3.1-7.4,6.1-11.2,9.1C781.3,1070,779.7,1070,778,1070z"/>
		<path class="st17" d="M326,1070c7.7-7.2,15.4-14.4,23.1-21.6c0.2,0.3,0.4,0.5,0.7,0.8c-3.3,6.9-6.5,13.9-9.8,20.8
			C335.3,1070,330.7,1070,326,1070z"/>
		<path class="st17" d="M209.7,817.6c4.6-4.6,9.8-8.9,10.2-16c0.2-3.6,0.2-7.3-0.6-10.8c-2.8-12.2-5.9-24.2-8.9-36.3
			c-0.4-1.7-0.7-3.4-1.2-6c4.2,1.8,7.6,3.5,11.2,4.7c12,4.2,23.8,3.4,35-2.5c2.3-1.2,3.7-4,5.3-6.3c1.7-2.4,3-5.1,5.1-8.7
			c1,3,1.6,4.9,2.2,6.7c7.1,23.2,12.5,47,25.2,68.1c2.8,4.7,6.3,8.9,9.5,13.3c1.4,1.8,4.4,3.4,4.5,5.2c0.4,8.2,0.2,16.5-0.2,24.8
			c0,0.8-2.2,1.7-3.5,2.3c-6.1,2.7-12.5,4.9-18.2,8.1c-10.1,5.7-21.1,7.7-32.4,8.9c-13.7,1.4-27.4,3.4-41.2,4.8
			c-1.6,0.2-3.4-1.4-5.1-2c-1.6-0.6-3.3-1.4-4.9-1.6c-10.5-1.1-20.5,1.7-30.3,4.8c-3.8,1.2-7.6,2.3-12,2.5c1.2-1.2,2.3-2.5,3.6-3.6
			c17.9-15.3,32-33.8,43.5-54.3c0.9-1.6,1.6-3.3,2.4-4.9C209.1,818.3,209.4,818,209.7,817.6z"/>
		<path class="st18" d="M67.2,650.6c-7.2,1.1-14.4,2.3-21.6,3.3c-4.2,0.6-6.8,2.6-8.4,6.7c-6.2,15-12.6,30-19,44.9
			c7.2-5.5,14.3-11.1,21.5-16.6c0.4,0.4,0.8,0.8,1.2,1.2c-1.3,1-2.6,2-3.9,2.9c-14.5,11.1-22.4,26.3-26,43.7
			c-6,29-11.4,58.2-17,87.3c-0.1,0.6-0.2,1.2-1,1.7c1.4-9.7,2.6-19.4,4.1-29c3.9-24.6,7.6-49.3,12.1-73.8c1.3-7.2,5.6-13.8,7.8-20.9
			c4.8-15.4,10-30.7,17.5-45c2-3.7,4.1-6.2,8.5-6.4c8-0.3,16-0.8,24-1.2C67.2,649.9,67.2,650.3,67.2,650.6z"/>
		<path class="st18" d="M200,565.8c-4.3,1.5-8.6,3-12.9,4.5c-1.1,0.4-2.2,0.8-3.3,1.1c-31.2,8.3-55.7,26.8-77.2,50.1
			c-12.8,13.9-29.9,20.8-47,27.3c-0.4,0.1-0.9-0.1-2.3-0.2c8.8-4.9,16.8-9.8,25-14c10.4-5.2,19-12.6,27.5-20.4
			c12.4-11.5,25.5-22.4,38.5-33.3c2.1-1.8,4.9-2.9,7.5-3.7c10.2-3.5,20.5-7,30.8-10c4.2-1.2,8.7-1.3,13.1-2
			C199.9,565.4,200,565.6,200,565.8z"/>
		<path class="st17" d="M116,784.8c7.7-11.7,15.4-23.4,24-36.5c0.7,3,1.2,4.8,1.6,6.6c0,0,0.2-0.2,0.2-0.2c-1.3,1.2-3,2.2-3.8,3.7
			c-6.9,11.9-13.6,23.9-20.4,35.9c-0.3,0.6-0.7,1.1-1,1.6c-0.5-0.1-1-0.1-1.5-0.2c0.4-3.7,0.7-7.4,1.1-11.1
			C116.1,784.7,116,784.8,116,784.8z"/>
		<path class="st18" d="M59.3,910.9c9.9-11.8,19.8-23.7,29.7-35.5C82.6,890.3,72.2,901.8,59.3,910.9z"/>
		<path class="st18" d="M75.2,880.8c-7.7,9.8-16,18.7-28.6,22.3C56.2,895.6,65.7,888.2,75.2,880.8z"/>
		<path class="st18" d="M119.2,820.8c3.2-9.3,6.3-18.5,9.5-27.8c0.5,0.2,1,0.3,1.5,0.5c-3.1,9.3-6.1,18.5-9.2,27.8
			C120.3,821.1,119.7,820.9,119.2,820.8z"/>
		<path class="st18" d="M30.9,899.6c7.2-3.1,14.4-6.3,22.2-9.7C47.9,895.6,37.3,900,30.9,899.6z"/>
		<path class="st18" d="M30,896.9c-6,2.3-12.1,4.5-18.1,6.8c-0.1-0.3-0.2-0.7-0.4-1c6-2.4,12-4.8,18.1-7.2
			C29.7,895.9,29.8,896.4,30,896.9z"/>
		<path class="st17" d="M358.6,839.9c4.8,12.1,9.7,24.3,14.4,36.1c-0.2-0.1-1.3-0.5-2.2-1.2c-12.2-8.7-24.2-17.7-36.6-26
			c-21.8-14.8-36.4-34.9-44.7-59.6c-6-17.8-11.3-35.9-17.1-53.8c-1.1-3.4-0.7-6.3,2-8.5c12.4-10.3,24.6-20.8,37.3-30.8
			c7.4-5.8,8.9-7.3,10.1-16.3c7.3-0.6,14.7-1.5,22.1-1.6c21.3-0.4,42.1-4,62.6-9.2c15.9-4,26-15.2,31.4-30.4
			c5.6-15.7,9.3-31.9,9.1-48.8c-0.1-5.8,1-6.9,8.1-8.1c0.7,6,1.4,12.1,2.1,18.1c0.1,0,0.2,0,0.4,0c0-5.6,0.3-11.2-0.1-16.8
			c-0.2-2.6,0.4-3.9,2.7-5c8.4-3.9,16.8-3.9,25.2-0.3c1.2,0.5,2.8,1.8,3,2.9c1.3,6,2.3,12.1,3.1,18.2c2.3,16.6,4.6,33.2,6.8,49.8
			c0.6-0.1,1.1-0.1,1.7-0.2c-1-11.4-2-22.8-3-34.8c3.7,4.7,6.8,9.2,10.5,13.2c14.7,15.6,32.8,23.8,54.4,22.9
			c25.8-1.1,50.7-7.3,75.1-15.6c9.1-3.1,14.9-8.7,16.1-18.3c1.6-12.9,3-25.8,4.6-38.6c0.2-1.3,1.1-2.4,1.7-3.6c0.8,1,2.3,2,2.4,3.1
			c1.4,29.1,7.2,58.5-4.1,87c-5.6,14.3-11.3,28.5-17,42.7c-0.5,1.2-1,2.3-0.5,4c6.1-11.7,12.1-23.4,17.8-34.3
			c-0.8,62.8-29.2,114.9-67.6,162.7c-0.5-0.2-0.9-0.4-1.4-0.6c1.5-3.2,3-6.5,4.5-9.7c-0.3-0.2-0.6-0.3-0.9-0.5
			c-5.3,8.6-11.3,16.8-15.8,25.8c-7.7,15.5-18.8,26-35.8,31.2c-15.4,4.7-30.1,11.6-45.1,17.8c21.8-5.6,42.6-14,62.9-24
			c0.2,0.4,0.4,0.7,0.6,1.1c-8.8,5-17.6,10-26.4,15.1c0.2,0.4,0.4,0.9,0.6,1.3c6-2.6,12.1-5.1,19.1-8.1c-4.4,7.3-7.3,13.9-16.8,15.2
			c-13.1,1.7-26.1,5.1-39.1,7.8c0.1,0.5,0.2,0.9,0.2,1.4c12.7-1.8,25.5-3.7,38.2-5.5c0.2,0.3,0.3,0.6,0.5,0.9
			c-3.6,1.9-7.1,4.5-10.9,5.5c-9.5,2.3-19.2,4.5-28.9,5.4c-25.7,2.3-51.2,0.9-74.6-11.3c-12.3-6.5-24.3-14.1-35-23
			c-6.4-5.3-10.2-13.9-14.5-21.3c-4.4-7.6-8.1-15.6-12.2-23.5C359.4,839.6,359,839.8,358.6,839.9z M502.7,785.7
			c-1.6,0.1-3.4,0.5-4.9,0.2c-14-2.7-27.9-6.3-42.4-3.4c11.9-6.8,24-12.7,38.4-9.6c-2.4-1-4.8-1.3-6.9-2.2c-6.2-2.6-12-1.5-17.7,1.6
			c-12,6.5-24.1,12.8-35.9,19.6c-3.2,1.8-5.8,4.9-8.3,7.8c-1.1,1.2-1.3,3.3-2.3,6.4c3.4-1.3,5.2-1.8,7-2.7
			c22.1-10.6,44.4-20.2,69.9-16C500.4,787.7,501.6,786.3,502.7,785.7c1.8-0.4,3.9-0.4,5.6-1.1c5.9-2.3,11.9-4.4,17.5-7.3
			c8.7-4.5,15.7-1.6,22.4,4c1.3,1.1,2.4,2.7,3.8,3.1c1.8,0.6,4.6,1.1,5.8,0.2c1.1-0.9,1-3.9,0.5-5.7c-1.6-6.7-6.8-10.8-11.8-14.9
			c-9.8-8-17.8-7.6-26.3,0.8c4.5-1.3,10.4-4.9,15.3-3.9c4.9,1,8.9,6.6,13.5,10.5c-6.8,0.5-12.9-0.2-18.2,1.6
			C521.2,776.5,512.1,781.4,502.7,785.7z M528.6,818.2c-2.2,1.9-4.3,3.8-6.5,5.7c0.2,0.3,0.5,0.6,0.7,0.9
			c5.8-4.4,11.6-8.7,17.4-13.1c-0.3-0.4-0.6-0.8-0.9-1.2c-1.9,1.3-3.7,2.6-5.6,3.9c4.6-4.9,9.2-9.7,13.9-14.6
			c-0.3-0.3-0.6-0.7-0.9-1c-2.5,1.8-5,3.6-7.4,5.5c-7.9,5.9-15.6,12-23.6,17.6c-2.2,1.6-5.4,1.8-8.2,2.6c-0.2-0.5-0.4-1.1-0.6-1.6
			c3.7-2.4,7.5-4.8,11.1-7.3c3.8-2.6,7.7-5.3,11.4-8.2c3.4-2.6,6.7-5.4,10-8.2c-31,15.9-63.1,26.2-98.1,26.4
			c2.8,0.1,5.6,0.3,8.4,0.4c0,0.2,0,0.4,0,0.6c-4.5,0.4-9.1,0.7-13.6,1.1c0,0.4,0,0.8,0.1,1.1c16,0.6,32,1.1,48,1.7
			c0,0.6,0,1.3,0,1.9c-15,0-30,0-45,0c17.3,5.6,42.7,5.6,72.2,0c-7,0-14,0-21,0c0-0.5,0-1-0.1-1.5c3.2-0.4,6.6-1.7,9.6-1
			c5.4,1.3,9.3-1.1,13.5-3.4C518.5,823.9,523.5,821,528.6,818.2z M552.8,705.9c-0.5,0.6-1.1,1.1-1.6,1.7c5.3,5,10.6,9.9,15.7,15
			c3.7,3.7,5.8,8.2,6.2,13.8c0.5,7.5,1.9,14.9,2.8,22.4c1-7.9,1.8-15.7,2-23.5c0.1-2.7-0.2-6.3-1.9-7.9
			C568.6,719.9,560.6,713,552.8,705.9z M589.1,668.8c-7.8-8.5-38.6-20.6-49-19.4c5.9,1.8,12,3.7,18.1,5.6c0,0.2-0.1,0.4-0.1,0.6
			c-1.7,0.2-3.4,0.4-4.8,0.5C565.4,660.4,577.4,664.6,589.1,668.8z M505.6,689c2,7-0.9,12.2-5.1,17.6c-3.9,5-6.4,11.1-9.5,16.8
			c0.5,0.3,1,0.6,1.6,1c5.1-7.1,10.4-14,15.3-21.3c0.9-1.4,0.8-3.8,0.4-5.6C507.6,694.6,506.5,691.9,505.6,689z M509.1,716.7
			c4.5-2.8,8-4.6,10.9-7.1c1.1-0.9,1.1-3.4,1.6-5.1c-1.8-0.3-4.3-1.6-5.3-0.9c-5.2,3.7-10,8-14.9,12.1c0.3,0.4,0.6,0.8,0.9,1.2
			c2.8-1.5,5.6-3,8.9-4.8C510.5,713.5,510.1,714.5,509.1,716.7z M467.2,724.8c-0.2-5.5-2.8-7.6-6.3-8.6c-5.1-1.5-10.3-4.4-15.7-0.9
			c-0.7,0.5-1.3,2.2-0.9,2.9c0.3,0.8,1.9,1.7,2.7,1.6C454,718.4,460.3,720.3,467.2,724.8z M303.5,741.6c-0.4,0.2-0.8,0.3-1.2,0.5
			c1.3,9.8,10.8,29.5,17,34.1C313.8,764,308.7,752.8,303.5,741.6z M568.1,834c-9.1,11-18.3,22.1-27.5,33.2
			C553,858.8,561.3,847,568.1,834z M523,710.5c0.5,0.1,1,0.2,1.4,0.3c1.4-3.2,4.7-7.1,3.9-9.4c-2.5-7-6.7-13.3-10.3-19.9
			C517.2,691.9,529.2,699.2,523,710.5z M445.5,727.7c0.2-0.3,0.4-0.5,0.6-0.8c-4-3.1-7.9-6.4-12.2-9.2c-2.6-1.7-3.2-3.3-2.2-6.1
			c1.2-3.3,2.1-6.8,3.2-10.2c-2.7,3.6-4.3,7.6-6.1,11.5c-1.4,2.9-0.9,5.2,1.9,6.8C435.6,722.4,440.6,725,445.5,727.7z M568,853.7
			c-0.4-0.4-0.8-0.8-1.3-1.2c-10.5,8.8-21,17.6-31.6,26.4c0.4,0.5,0.9,1,1.3,1.5C547,871.5,557.5,862.6,568,853.7z M314.6,750.8
			c-0.5,0.3-1,0.5-1.4,0.8c4.8,10,8.2,20.7,15.5,29.3c0.5-0.3,1-0.5,1.5-0.8C325,770.3,319.8,760.5,314.6,750.8z M290.9,729.5
			c0.4,13.2,3.4,25,10.9,35.4C298.2,753.4,294.7,741.9,290.9,729.5z M521.6,901.4c-0.1-0.5-0.2-0.9-0.3-1.4
			c-12.5,2.4-25,4.9-37.4,7.3c0.1,0.4,0.1,0.8,0.2,1.1C496.6,906.1,509.1,903.7,521.6,901.4z M571.9,667.1c-0.3,0.5-0.5,1-0.8,1.4
			c7.4,3.4,14.8,6.9,22.2,10.3c0.3-0.6,0.6-1.2,0.8-1.8C586.8,673.7,579.3,670.4,571.9,667.1z M287.7,723.1
			c-0.6,0.1-1.1,0.1-1.7,0.2c1.1,9.4,2.1,18.7,3.2,28.1c0.5-0.1,1-0.1,1.5-0.2C289.7,741.8,288.7,732.4,287.7,723.1z M338.4,792
			c0.6-0.2,1.2-0.5,1.7-0.7c-2.4-5.7-4.9-11.4-7.3-17.1c-0.5,0.2-1,0.4-1.6,0.7C333.6,780.6,336,786.3,338.4,792z M560.6,836.4
			c0.3,0.2,0.7,0.3,1,0.5c2.2-4.6,4.5-9.3,6.7-13.9c-0.4-0.2-0.8-0.4-1.2-0.6C564.9,827.1,562.7,831.8,560.6,836.4z"/>
		<path class="st17" d="M655.4,542.6c-10-4.9-19.9-9.9-29.9-14.8c-22.8-11.2-46.5-11.4-70.7-5.6c-6.8,1.6-13.5,3.4-21.1,4.2
			c3.7-3,7.1-6.3,11-9.1c14-10.1,30.1-16.3,45.7-23.5c2.1-1,4.1-2,6.2-3c-0.2-0.6-0.4-1.2-0.6-1.8c-13.2,4.5-26.4,9.1-39.7,13.7
			c5.4-4.2,10.9-8.4,16.3-12.6c-0.1-0.1-0.1-0.2-0.2-0.4c-14.3,6.4-28.6,12.8-42.9,19.2c0.1,0.2,0.1,0.4,0.2,0.6
			c2.4-2.2,4.9-4.4,7.5-6.7c-1.3-0.9-1.6-1.2-1.7-1.2c-9.8,6.4-19.9,12.2-29.1,19.3c-6.1,4.7-10.9,11.1-15.9,17
			c-1.2,1.5-1.7,4-1.6,6.1c0.3,7.2-5.4,12.1-12.3,10.9c-3.7-0.6-7.6-0.1-11.2-0.1c-1.4-12.5-2.8-25.1-4.2-37.7c-0.2,0-0.4,0-0.7,0
			c-0.7,12.7-1.3,25.4-2.1,38.1c-0.1,1.3-1.3,2.8-2.4,3.6c-2.8,2.1-5.8,4-9,6.2c9.4-2,18.1-3.7,26.7-5.5c0.3-0.1,0.7-0.2,1-0.1
			c2.8,0.3,5.8,1.3,8.3,0.6c2.6-0.8,4.8-3.3,7-5c-0.9,4.4-1.7,8.6-2.6,13.4c-12.1-4.7-25.4-4.2-38.3,2.1c0.1,0.4,0.1,0.9,0.2,1.3
			c1.8-0.7,3.6-1.4,5.4-2.1c0.1,0.2,0.3,0.4,0.4,0.7c-3,2.1-5.9,4.1-8.8,6.1c-3.9-6.8-7.8-13.3-11.6-20c4.5-4.6,4.5-6.1-2.3-8.3
			c-21.8-7.2-42.9-16.6-66-19.2c-19.7-2.2-39.4-4.3-59.1-6.4c-2.8-0.3-5.6,0-8.8,0c0.6,1.2,0.9,1.8,1.2,2.4
			c-1.8,0.5-3.4,0.9-5.1,1.3c0,0.5-0.1,1.1-0.1,1.6c3.1,0.8,6.3,1.5,9.4,2.3c0,0.1,0,0.3,0,0.4c-6.7,0-13.3,0-20,0
			c-0.1,0.3-0.2,0.7-0.3,1c1.1,0.6,2.2,1.3,3.2,1.8c-3,0.7-6.1,1.4-9.2,2.1c23.1,1.8,46.7,0,65.1,17.5c-13.1,3.3-26.7,6.6-41,10.2
			c0.4-1.9,0.6-3.6,1-5.3c1.2-5.4-0.7-8.5-6.1-8.3c-18.9,0.6-37.9,1.6-56.8,2.5c-2.1,0.1-4.3,0.5-7.4,0.9c0.8-33.8,5-66.1,23.4-95.1
			c2.1,0.4,3.5,0.3,4.6,0.9c7,3.1,13.8-3.2,14.6-10.6c1-10.3,1.8-20.6,3.2-30.8c0.5-3.7,1.9-7.4,3.4-10.8
			c4.1-8.9,7.9-18.1,13.2-26.3c4.6-7.2,10.9-13.3,16.6-19.7c0.5-0.6,1.8-0.9,2.7-0.9c9.7,0.3,19.3,0.6,29,1c0.4,0,0.8,0.4,2,1.1
			c-4.3,1.6-8,2.9-11.6,4.2c12.9-3.9,25.8-5.3,39.9-1c-4.5,2.3-8.3,4.1-12,6c0.1,0.4,0.3,0.9,0.4,1.3c2.8-0.5,5.8-0.6,8.5-1.6
			c10.5-4,21-3,31.9-1.7c15.3,1.8,30.8,2.1,46.3,2.6c15.1,0.5,30.3,1,45.4,0.6c16.4-0.4,32.9-1.8,49.3-2.7
			c5.4-0.3,10.8-0.8,15.9,2.4c3,1.8,7,2.4,10.5,2.6c4.4,0.2,5.7,1.9,5.9,6c0.3,6.5,1.2,12.9,1.9,19.4c0.7,6.4,5.6,9.4,11.8,7.3
			c4.4-1.5,8.7-2.9,13-4.6c2.9-1.1,4.7-0.5,6.3,2.1c9.4,15,18.4,30.2,21.7,47.9c1.5,8,4.2,15.5,9.7,21.6
			c9.4,10.5,9.3,23.8,11.1,36.6c1.5,10.5,3,21.1,4.5,31.6L655.4,542.6z M469.4,453.4c5.3-0.7,10.6-1.4,15.9-2
			c0.1,0.2,0.1,0.3,0.2,0.5c-2.9,1.2-5.7,2.5-8.6,3.7c17-3.6,33-9.6,47-20c-2,0.2-3.9,0.7-5.7,1.3c-10.6,3.9-21.1,7.9-31.8,11.6
			C480.9,450.4,475.2,451.8,469.4,453.4c-2.2-0.1-4.5-0.3-6.8-0.3c-17.4,0.2-34.8,0.4-52.2,0.6c-1.2,0-2.3,0.2-3.5,0.3
			C427.9,459.9,448.7,459.8,469.4,453.4z M309.5,459.1c25.3-4,48.2,3.6,70.7,14.1c5.6,2.6,12.6,3,18.9,2.7
			c9.9-0.4,19.7-2.3,29.6-3.6c-6.2-0.4-12.5,0.2-18.6-0.6c-8.8-1-17.7-2.3-26.3-4.7c-10.8-3.1-21.3-7.3-31.9-11
			c-2.7-0.9-5.5-1.6-8.4-2.5c0.1-1,0.3-2.2,0.6-4.3c-11.3,0.8-22.2,1.5-33.1,2.3c0.1,0.7,0.1,1.4,0.2,2.1c2.5-0.4,5-1.3,7.4-1
			c2.6,0.3,5.1,1.8,8.4,3C320.8,456.8,315.2,458,309.5,459.1z M509.8,488c-18.4,9.1-38,44.7-30,55.6
			C484.9,522,492.6,502.4,509.8,488z M549.8,444.9c-12.1,6.6-22.1,14.2-25.5,25.2C531.7,462.8,540.5,454.1,549.8,444.9z
			 M536.6,430.9c-8.3,6.2-16.6,12.3-24.9,18.5C521.7,445.6,530.2,439.7,536.6,430.9z M585.3,501.1c0.1,0.6,0.2,1.1,0.4,1.7
			c4.5-1.3,9.1-2.5,13.6-3.8c-0.2-0.6-0.4-1.3-0.6-1.9C594.2,498.5,589.8,499.8,585.3,501.1z"/>
		<path class="st17" d="M655.3,542.7c1.4,3,2.8,5.9,3.8,8c1.4-1.7,2.9-3.5,4.4-5.4c3.7-4.7,7.4-9.5,11.3-14
			c3.7-4.3,7.6-8.4,11.6-12.4c2.8-2.8,5.8-2.4,8.1,0.7c2,2.6,4,5.4,5.2,8.4c8.5,20.3,10.3,41,3.7,62.4
			c-5.9,19.1-10.6,38.5-11.4,58.7c-0.2,6.1-1,12.4-3,18.2c-1.8,5.2-5,10.1-8.5,14.4c-3.7,4.4-12.2,4.8-16.6,1.5
			c-0.9-0.7-1.4-2.6-1.2-3.9c1.4-10.7,3-21.4,4.5-32c0.5,0.3,1.1,0.7,1.6,1c1.7-0.9,4-1.3,4.9-2.7c4.6-7.4,8.8-15.1,13.1-22.6
			c-0.5-0.3-1-0.6-1.4-0.9c-2.2,2.9-4.4,5.8-6.5,8.7c-0.3-0.1-0.6-0.3-1-0.4c1.2-8.3,2.1-16.7,3.5-25c2.5-15.3,3.5-13-8.7-20
			c-0.4-0.2-0.8-0.5-1.3-0.8c-9.1-5.7-9.5-10.9-1.1-17.2c1.3-1,4.4,0.3,7.8,0.7c-2.4-1.4-4.3-2.6-6.3-3.7c3.3-5.7,5.9-10,8.5-14.4
			c0.6-0.1,1.3-0.1,1.9-0.2c1.7,5,3.7,9.9,5,14.9c2.3,9.1,4.1,18.4,6.9,27.6c0.4-8.1,0.8-16.1,1.3-25.5c1.1,7.7,2.1,14.1,3.1,20.6
			c4.1-7.2,1.1-38.1-4.7-48c-0.5,0.9-0.9,1.8-1.3,2.6c-9.7-3-12.4-2.2-18.3,6.4c-3.3,4.9-6.2,10.1-9.4,15.4c0.1,0-0.2,0.1-0.5,0.1
			c-8.6-0.6-11.2-4.4-10-14.2C654.5,547.2,655,544.9,655.3,542.7C655.4,542.6,655.3,542.7,655.3,542.7z"/>
		<path class="st17" d="M348.9,882.1c2.3,4.2,4.8,8.3,6.9,12.5c11.7,22.6,28.8,40.2,49.9,54.1c5.6,3.7,10.9,7.6,16.4,11.3
			c10.5,7.1,17.3,17.4,23.4,28.1c0.5,0.9-0.5,3.3-1.5,4.3c-6.5,6.7-13.2,13.2-19.7,19.9c-3.8,4-4.9,4.1-8.6-0.3
			c-23.3-27.8-41.4-58.7-55-92.3c-4.9-12.1-9-24.6-13.5-36.9C347.9,882.6,348.4,882.4,348.9,882.1z"/>
		<path class="st17" d="M275.7,606.3c6.5,19.4,12.8,38.1,19.4,57.6c-17.1,0.8-32.9,5.5-46.9,17.2c-1.7-6.9-3.6-13-4.6-19.2
			c-2.2-12.9-3.8-25.9-5.9-38.9c-0.5-3.1,0.1-4,3.3-5c7.3-2.2,14.3-5.5,21.5-8C266.8,608.4,271.5,607.4,275.7,606.3z"/>
		<path class="st17" d="M236.2,695.6c8.9-5.8,16.7-10.8,24.4-15.9c12.9-8.5,26.6-14.3,42.6-11.7c2.1,0.3,4.5,0.4,6.3,1.4
			c2.8,1.7,7.2,4,7.3,6.2c0.2,4.6,0.5,9.9-4.7,13.3c-18,11.9-34.9,25-47.3,43c-0.2,0.2-0.6,0.3-1.6,0.9
			C254.1,720.3,244.9,707.6,236.2,695.6z"/>
		<path class="st17" d="M233.6,593.4c4.4,0.9,8.8,1.8,13.2,2.7c-15,21.3-35.7,36.8-57,52.6c-7.2-10-17.7-8.3-28.7-6.7
			c21.7-21,42.7-41.5,73.8-44.7C234.4,595.7,234,594.6,233.6,593.4C233.7,593.3,233.6,593.4,233.6,593.4z"/>
		<path class="st17" d="M217.8,670.8c4.1-5.2,8.3-10.2,12.1-15.4c1.1-1.5,2.3-3.8,2-5.3c-1.6-7-3.7-14-5.6-20.9
			c-0.7,0.1-1.5,0.2-2.2,0.3c0.3,3.4,0.2,6.8,0.8,10.1c2.1,11.5-0.1,19.2-8.9,28.7c-6-5.6-11.9-11.2-18.5-17.4
			c-0.1,1.5-0.2,2.2-0.2,3c-0.4,0-0.7,0.1-1.1,0.1c0-1.2-0.3-2.5,0.1-3.6c0.3-0.8,1.3-1.6,2.1-2c13.7-6.6,23.8-17.3,32.6-29.3
			c0.9-1.2,1.3-2.7,2.7-3.4c-2.6,12.1,2.4,22.7,3.8,33.6c1.3,10,3.4,20,5.6,29.9c0.9,4,0.2,6.6-3.6,8.4c-1.8,0.8-3.3,2.1-5.1,3.3
			C228.9,684.2,223.4,677.6,217.8,670.8z"/>
		<path class="st17" d="M415.8,232.3c44.8-13,90.3-13.3,136.2-7.4c-1.5,0-3,0-4.4,0c-1.3,0-2.6,0.2-3.9,0.7c4,0.9,8.1,1.7,12,2.8
			c4,1.1,8,2.4,10.7,3.3c0.8,1.4,0.9,2.3,1.4,2.5c6.2,2.4,12.6,4.3,18.6,7.2c7.4,3.5,14.4,7.8,21.6,11.8c-0.2,0.4-0.4,0.7-0.6,1.1
			c-4-1.5-7.9-2.9-11.9-4.4c-0.1,0.2-0.2,0.5-0.3,0.7c4.2,2.8,8.5,5.6,12.7,8.3c-0.2,0.4-0.4,0.8-0.7,1.2
			c-13.2-6.5-26.5-13-39.7-19.5c0-0.2,0.1-0.3,0.1-0.5c2.4,0.6,4.9,1.2,7.3,1.9c-36.2-17.3-74.2-15.7-112.7-11.7
			c1.4-0.4,2.7-0.8,4.1-1.3c1.4-0.4,2.7-0.9,4.1-1.3c-0.1-0.5-0.1-0.9-0.2-1.4C452.1,228.3,434,230.3,415.8,232.3z"/>
		<path class="st17" d="M395.1,272.2c-6.5,3.3-12.1,6.2-17.7,9c0.1,0.3,0.2,0.6,0.4,0.9c13.6-5.7,27.1-11.4,42-17.6
			c-12.1,9.4-82.8,41-102.6,45.7c8.7-4.1,17.5-8.3,26.2-12.4c0-0.1-0.1-0.2-0.1-0.3c-18.1,6.1-36.2,12.1-54.3,18.2
			C296.5,309,379.6,275.5,395.1,272.2z"/>
		<path class="st17" d="M513.3,252.2c-55.5,20.5-109.9,40.7-164.9,61C362.2,300.7,485.8,254.9,513.3,252.2z"/>
		<path class="st17" d="M548.8,255.6c-55,17.2-110,34.4-164.9,51.6C436.7,283.2,491.7,266.1,548.8,255.6z"/>
		<path class="st17" d="M337.1,311.7c41.4-27,86.8-44.8,133.8-59.3C426.3,272.1,381.7,291.9,337.1,311.7z"/>
		<path class="st17" d="M113.6,762.5c2.7-4.2,5.7-8.2,7.9-12.6c2.3-4.5,5.8-5.9,11.1-6.3c-6.1,9.9-11.8,19.3-17.6,28.6
			c0.4,0.3,0.8,0.5,1.2,0.8c5.6-8.6,11.2-17.3,17-25.8c1-1.4,2.9-2.3,4.4-3.4c-0.3,2,0,4.4-1,6c-5.2,8.3-11,16.2-16.2,24.5
			c-2,3.2-2.9,7-4.4,10.5c0,0,0.1-0.2,0.1-0.2c-0.6,0.1-1.2,0.2-1.9,0.3c-0.9-6.2-1.9-12.3-2.6-18.5c-0.1-1.1,0.9-2.4,1.5-3.6
			C113.2,762.8,113.4,762.6,113.6,762.5z"/>
		<path class="st17" d="M218.2,338.1c5.5-17.9,16.7-30.3,29.4-41.8c-15.6,8.3-24.5,23.7-37.2,35c7-15.4,17.4-27.6,32.7-35.3
			c1.4-0.7,3.4-0.2,5.1-0.3c-0.6,1.6-1,3.3-1.9,4.6C237.2,312.7,228,324.9,218.2,338.1z"/>
		<path class="st17" d="M538.2,271.7c-6.5,1.9-13,3.7-19.5,5.6c0,0.3,0.1,0.5,0.1,0.8c6.8-1,13.6-2.1,20.4-3.1
			c0,0.3,0.1,0.6,0.1,0.9c-28.1,5.3-56.3,10.6-84.5,16C463.7,286.5,524.1,271.6,538.2,271.7z"/>
		<path class="st17" d="M284.9,301.4c23.7-10.4,47.5-20.9,71.2-31.3c-21.8,14.6-45,26.3-70.4,33C285.4,302.6,285.2,302,284.9,301.4z
			"/>
		<path class="st17" d="M235.3,290.8c2.1-0.3,4.3-0.5,6.7-0.8c-13.4,11.7-26.2,22.9-39.5,34.5c8.6-11.2,15.7-23,26.7-31.6
			C231.2,292.2,233.3,291.5,235.3,290.8z"/>
		<path class="st17" d="M489.1,213.8c-34.6,4.7-69.1,9.3-100.3,13.5C419.5,219.7,453.8,214.3,489.1,213.8z"/>
		<path class="st17" d="M235.3,290.8c-2,0.7-4.1,1.4-6.1,2.1c-7.7,4.5-15.5,8.9-23.2,13.4c-1.4,0.8-2.7,1.7-4.7,3
			c8.8-11.8,35.4-25.4,45.3-23.6C242.9,287.3,239.1,289.1,235.3,290.8z"/>
		<path class="st17" d="M113.6,762.5c-0.2,0.2-0.3,0.3-0.5,0.5c-1-0.5-2.6-0.8-2.8-1.5c-1.2-3.6-2-7.2-3.2-11.8
			c2.4,0.5,4.3,0.9,6.7,1.4c1.1-0.7,3-1.9,4.9-3.2c0.3,0.3,0.7,0.6,1,0.9C117.6,753.3,115.6,757.9,113.6,762.5z"/>
		<path class="st17" d="M260.6,599.8c-0.4-1.8-0.8-3.4-1.1-5.2c5.2-1,10.4-2,15.6-3c1.5,4.5,0.6,6.4-4.3,6.3
			C267.6,597.8,264.3,599,260.6,599.8z"/>
		<path class="st17" d="M502.9,285c19-1.5,38.1-3,57.1-4.6c0,0.5,0.1,0.9,0.1,1.4c-19,1.5-38,3-56.9,4.5
			C503.1,285.9,503,285.4,502.9,285z"/>
		<path class="st17" d="M625.8,274c-11.2-5.1-22.4-10.2-33.6-15.3c0.2-0.4,0.3-0.7,0.5-1.1c11.4,4.8,22.7,9.7,34.1,14.5
			C626.3,272.7,626.1,273.4,625.8,274z"/>
		<path class="st17" d="M230.8,334.9c2.6-8.3,7.5-15,14.4-20.5c-4.5,7.1-8.9,14.1-13.4,21.2C231.5,335.4,231.2,335.2,230.8,334.9z"
			/>
		<path class="st17" d="M240.8,608.5c4.4-3.3,8.8-6.5,13.3-9.9C255.6,602.3,251.3,605.6,240.8,608.5z"/>
		<path class="st18" d="M653.5,910c-12.6,14.8-25.3,29.7-37.9,44.5c-0.4-0.3-0.8-0.7-1.1-1c12.7-14.8,25.4-29.7,38.1-44.5
			C652.9,909.4,653.2,909.7,653.5,910z"/>
		<path class="st18" d="M664.6,848.4c-7.9,12.7-15.7,25.4-23.6,38.1c-0.4-0.2-0.8-0.5-1.2-0.7c7.8-12.8,15.5-25.5,23.3-38.3
			C663.6,847.8,664.1,848.1,664.6,848.4z"/>
		<path class="st18" d="M528.6,818.2c-5.1,2.9-10.1,5.8-15.2,8.5c-4.2,2.3-8.1,4.7-13.5,3.4c-2.9-0.7-6.4,0.6-9.6,1
			c0,0.5,0,1,0.1,1.5c7,0,14,0,21,0c-29.5,5.6-54.9,5.6-72.2,0c15,0,30,0,45,0c0-0.6,0-1.3,0-1.9c-16-0.6-32-1.1-48-1.7
			c0-0.4,0-0.8-0.1-1.1c4.5-0.4,9.1-0.7,13.6-1.1c0-0.2,0-0.4,0-0.6c-2.8-0.1-5.6-0.3-8.4-0.4c34.9-0.3,67-10.5,98.1-26.4
			c-3.3,2.7-6.6,5.5-10,8.2c-3.7,2.8-7.5,5.5-11.4,8.2c-3.7,2.5-7.4,4.9-11.1,7.3c0.2,0.5,0.4,1.1,0.6,1.6c2.7-0.8,5.9-1.1,8.2-2.6
			c8-5.6,15.8-11.7,23.6-17.6c2.5-1.8,4.9-3.7,7.4-5.5c0.3,0.3,0.6,0.7,0.9,1c-4.6,4.9-9.2,9.7-13.8,14.6
			C532.1,815.7,530.3,816.9,528.6,818.2z"/>
		<path class="st18" d="M502.6,785.7c-1,0.7-2.2,2-3.1,1.9c-25.5-4.2-47.8,5.4-69.9,16c-1.7,0.8-3.6,1.4-7,2.7
			c1.1-3.1,1.2-5.1,2.3-6.4c2.5-2.8,5.1-6,8.3-7.8c11.8-6.8,23.9-13.1,35.9-19.6c5.6-3,11.4-4.2,17.7-1.6c2.1,0.9,4.5,1.1,6.9,2.2
			c-14.4-3.1-26.4,2.8-38.4,9.6c14.5-2.8,28.4,0.8,42.4,3.4c1.6,0.3,3.3-0.1,4.9-0.2L502.6,785.7z"/>
		<path class="st18" d="M502.7,785.7c9.4-4.3,18.5-9.2,28.2-12.6c5.2-1.8,11.4-1.1,18.2-1.6c-4.7-3.8-8.6-9.4-13.5-10.5
			c-4.9-1-10.8,2.6-15.3,3.9c8.5-8.4,16.4-8.9,26.3-0.8c5,4.1,10.2,8.2,11.8,14.9c0.4,1.8,0.5,4.8-0.5,5.7c-1.2,0.9-4,0.4-5.8-0.2
			c-1.5-0.5-2.5-2.1-3.8-3.1c-6.7-5.6-13.7-8.5-22.4-4c-5.6,2.9-11.6,5-17.5,7.3C506.6,785.4,504.6,785.4,502.7,785.7
			C502.6,785.7,502.7,785.7,502.7,785.7z"/>
		<path class="st18" d="M552.8,705.9c7.8,7.1,15.8,13.9,23.3,21.4c1.7,1.6,2,5.2,1.9,7.9c-0.2,7.8-1,15.6-2,23.5
			c-1-7.5-2.3-14.9-2.8-22.4c-0.4-5.5-2.5-10-6.2-13.8c-5.1-5.1-10.5-10-15.7-15C551.8,707,552.3,706.5,552.8,705.9z"/>
		<path class="st18" d="M589.1,668.8c-11.8-4.1-23.8-8.4-35.8-12.6c1.4-0.2,3.1-0.3,4.8-0.5c0-0.2,0.1-0.4,0.1-0.6
			c-6.1-1.9-12.2-3.8-18.1-5.6C550.5,648.1,581.3,660.3,589.1,668.8z"/>
		<path class="st18" d="M505.6,689c0.9,2.8,2.1,5.6,2.6,8.5c0.4,1.8,0.5,4.2-0.4,5.6c-4.9,7.2-10.1,14.2-15.3,21.3
			c-0.5-0.3-1-0.6-1.6-1c3.1-5.6,5.6-11.7,9.5-16.8C504.6,701.2,507.6,696,505.6,689z"/>
		<path class="st18" d="M509.1,716.7c1-2.3,1.4-3.2,2.1-4.6c-3.3,1.8-6.1,3.3-8.9,4.8c-0.3-0.4-0.6-0.8-0.9-1.2
			c4.9-4.1,9.8-8.3,14.9-12.1c1-0.7,3.5,0.5,5.3,0.9c-0.5,1.7-0.4,4.2-1.6,5.1C517.1,712.1,513.6,713.9,509.1,716.7z"/>
		<path class="st18" d="M467.2,724.8c-6.8-4.5-13.2-6.4-20.3-5.1c-0.8,0.2-2.4-0.8-2.7-1.6c-0.3-0.7,0.2-2.5,0.9-2.9
			c5.4-3.5,10.6-0.5,15.7,0.9C464.3,717.2,466.9,719.3,467.2,724.8z"/>
		<path class="st18" d="M303.5,741.6c5.2,11.2,10.3,22.4,15.9,34.5c-6.2-4.5-15.7-24.2-17-34.1C302.7,741.9,303.1,741.8,303.5,741.6
			z"/>
		<path class="st18" d="M568.1,834c-6.8,13-15.1,24.8-27.5,33.2C549.8,856.1,559,845.1,568.1,834z"/>
		<path class="st18" d="M523,710.5c6.1-11.3-5.8-18.6-5-29c3.5,6.6,7.7,13,10.3,19.9c0.9,2.4-2.5,6.2-3.9,9.4
			C524,710.7,523.5,710.6,523,710.5z"/>
		<path class="st18" d="M445.5,727.7c-4.9-2.7-9.9-5.3-14.7-8c-2.8-1.6-3.2-3.8-1.9-6.8c1.8-3.9,3.4-7.9,6.1-11.5
			c-1.1,3.4-2,6.9-3.2,10.2c-1,2.8-0.5,4.4,2.2,6.1c4.2,2.8,8.1,6.1,12.2,9.2C445.9,727.2,445.7,727.4,445.5,727.7z"/>
		<path class="st18" d="M568,853.7c-10.5,8.9-21,17.8-31.5,26.8c-0.4-0.5-0.9-1-1.3-1.5c10.5-8.8,21-17.6,31.6-26.4
			C567.2,852.9,567.6,853.3,568,853.7z"/>
		<path class="st18" d="M314.6,750.8c5.2,9.7,10.4,19.5,15.6,29.2c-0.5,0.3-1,0.5-1.5,0.8c-7.4-8.6-10.7-19.3-15.5-29.3
			C313.7,751.3,314.2,751.1,314.6,750.8z"/>
		<path class="st18" d="M290.9,729.5c3.8,12.4,7.3,23.9,10.9,35.4C294.2,754.5,291.3,742.7,290.9,729.5z"/>
		<path class="st18" d="M521.6,901.4c-12.5,2.4-25,4.7-37.5,7.1c-0.1-0.4-0.1-0.8-0.2-1.1c12.5-2.4,25-4.9,37.4-7.3
			C521.5,900.4,521.6,900.9,521.6,901.4z"/>
		<path class="st18" d="M571.9,667.1c7.4,3.3,14.8,6.6,22.2,9.9c-0.3,0.6-0.6,1.2-0.8,1.8c-7.4-3.4-14.8-6.9-22.2-10.3
			C571.4,668.1,571.7,667.6,571.9,667.1z"/>
		<path class="st18" d="M528.6,818.2c1.7-1.3,3.5-2.5,5.2-3.8c1.9-1.3,3.7-2.6,5.6-3.9c0.3,0.4,0.6,0.8,0.9,1.2
			c-5.8,4.4-11.6,8.7-17.4,13.1c-0.2-0.3-0.5-0.6-0.7-0.9C524.2,822,526.4,820.1,528.6,818.2z"/>
		<path class="st18" d="M287.7,723.1c1,9.4,2.1,18.7,3.1,28.1c-0.5,0.1-1,0.1-1.5,0.2c-1.1-9.4-2.1-18.7-3.2-28.1
			C286.6,723.2,287.1,723.1,287.7,723.1z"/>
		<path class="st18" d="M338.4,792c-2.4-5.7-4.8-11.4-7.1-17.1c0.5-0.2,1-0.4,1.6-0.7c2.4,5.7,4.9,11.4,7.3,17.1
			C339.6,791.5,339,791.8,338.4,792z"/>
		<path class="st18" d="M560.6,836.4c2.2-4.7,4.4-9.3,6.6-14c0.4,0.2,0.8,0.4,1.2,0.6c-2.2,4.6-4.5,9.3-6.7,13.9
			C561.2,836.8,560.9,836.6,560.6,836.4z"/>
		<path class="st18" d="M309.5,459.1c5.6-1.1,11.3-2.3,17.5-3.5c-3.2-1.2-5.7-2.7-8.4-3c-2.4-0.3-5,0.6-7.4,1
			c-0.1-0.7-0.1-1.4-0.2-2.1c10.9-0.7,21.7-1.5,33.1-2.3c-0.3,2.1-0.5,3.3-0.6,4.3c3,0.9,5.7,1.6,8.4,2.5c10.6,3.7,21.1,8,31.9,11
			c8.5,2.4,17.4,3.7,26.3,4.7c6.1,0.7,12.4,0.1,18.6,0.6c-9.9,1.3-19.7,3.1-29.6,3.6c-6.3,0.3-13.4-0.1-18.9-2.7
			C357.7,462.7,334.8,455.1,309.5,459.1z"/>
		<path class="st18" d="M509.8,488c-17.1,14.4-24.9,34-30,55.6C471.8,532.6,491.4,497.1,509.8,488z"/>
		<path class="st18" d="M469.5,453.5c5.7-1.7,11.4-3.1,17-5c10.6-3.7,21.2-7.7,31.8-11.6c1.8-0.7,3.7-1.2,5.7-1.3
			c-14.1,10.4-30.1,16.3-47,20c2.9-1.2,5.7-2.5,8.6-3.7c-0.1-0.2-0.1-0.3-0.2-0.5C480,452,474.7,452.7,469.5,453.5L469.5,453.5z"/>
		<path class="st18" d="M469.4,453.4c-20.7,6.4-41.5,6.6-62.5,0.7c1.2-0.1,2.3-0.3,3.5-0.3c17.4-0.2,34.8-0.4,52.2-0.6
			C464.9,453.1,467.2,453.3,469.4,453.4C469.5,453.5,469.4,453.4,469.4,453.4z"/>
		<path class="st18" d="M549.8,444.9c-9.3,9.2-18.1,17.9-25.5,25.2C527.7,459.1,537.8,451.5,549.8,444.9z"/>
		<path class="st18" d="M536.6,430.9c-6.4,8.9-14.9,14.8-24.9,18.5C520,443.2,528.3,437,536.6,430.9z"/>
		<path class="st18" d="M585.3,501.1c4.5-1.3,8.9-2.7,13.4-4c0.2,0.6,0.4,1.3,0.6,1.9c-4.5,1.3-9.1,2.5-13.6,3.8
			C585.5,502.3,585.4,501.7,585.3,501.1z"/>
	</g>
	
		<image style="overflow:visible;" width="1090" height="1090" xlink:href="B8311BAF36265306.png"  transform="matrix(1 0 0 1 -120 -20)">
	</image>
</g>
<g id="Back">
</g>
<g id="Eyes" class="st0">
</g>
<g id="Outline">
</g>
<g id="Face">
</g>
<g id="Haar">
	<g id="Kleding">
	</g>
</g>
<g id="Cirkel">
	<g>
		<defs>
			<circle id="SVGID_00000127745836069402997680000010498896338520426390_" cx="525" cy="525" r="525"/>
		</defs>
		<clipPath id="SVGID_00000160899518292983016890000001800882413132494472_">
			<use xlink:href="#SVGID_00000127745836069402997680000010498896338520426390_"  style="overflow:visible;"/>
		</clipPath>
		
			<rect style="clip-path:url(#SVGID_00000160899518292983016890000001800882413132494472_);fill:#FF0540;" width="1050" height="1050"/>
		<g style="clip-path:url(#SVGID_00000160899518292983016890000001800882413132494472_);">
			<g>
				<path class="st22" d="M716.5,153.3c-20.6,10.3-41.2,20.6-61.8,30.8c-0.3-0.6-0.6-1.1-0.9-1.7c6.9-3.8,13.8-7.7,20.6-11.5
					c-0.1-0.3-0.3-0.6-0.4-0.9c-9.3,2.6-18.6,5.2-28,7.8c-0.3-0.9-0.6-1.9-0.9-2.8c23.6-8,47.1-15.9,70.7-23.9
					C716.1,151.9,716.3,152.6,716.5,153.3z"/>
				<path class="st22" d="M626.2,159.6c16.5-1.1,30.5-12.4,47.4-12.2c0.4,0.8,0.8,1.7,1.2,2.5c-1.9,1.5-3.7,3.9-5.9,4.4
					c-6.3,1.4-12.3,4.4-19.5,1.8c-3.6-1.3-8.9,2.3-13.4,3.5c-3,0.8-6.1,1.5-9.1,2.3C626.6,161.2,626.4,160.4,626.2,159.6z"/>
				<path class="st22" d="M690.8,184.2c6.1-5.9,10.1-12.3,15.8-14.8c5.9-2.6,13.4-1.6,22.3-2.3c-5.8,7.8-11.1,10.6-18.7,8.9
					c-1.6-0.3-3.6,1.2-5.4,1.9C700.6,179.8,696.3,181.7,690.8,184.2z"/>
				<path class="st22" d="M506.7,168.9c0,0,0.5-0.2,0.5-0.2c1.3-2,2.1-4.7,3.8-5.7c3.5-2,7.6-2.9,11.9-3.1
					C517.5,162.9,512.1,165.9,506.7,168.9z"/>
			</g>
		</g>
		
			<linearGradient id="SVGID_00000034066979932714345580000015940633057019924133_" gradientUnits="userSpaceOnUse" x1="533.3072" y1="321.1393" x2="534.0582" y2="321.1393">
			<stop  offset="0" style="stop-color:#FFFFFF"/>
			<stop  offset="1" style="stop-color:#000000"/>
		</linearGradient>
		
			<path style="clip-path:url(#SVGID_00000160899518292983016890000001800882413132494472_);fill:url(#SVGID_00000034066979932714345580000015940633057019924133_);" d="
			M533.3,320.3c0.1,0.3,0.2,0.6,0.2,0.9c0,0,0.1-0.1,0.2-0.2c0,0-0.2,0.2-0.2,0.2c0.2,0.2,0.3,0.5,0.5,0.7c-0.1-0.3-0.2-0.6-0.3-0.9
			C533.6,320.8,533.4,320.6,533.3,320.3z"/>
		
			<linearGradient id="SVGID_00000014613686388366845260000007527174775814083726_" gradientUnits="userSpaceOnUse" x1="554.9615" y1="427.2349" x2="555.1799" y2="427.2349">
			<stop  offset="0" style="stop-color:#FFFFFF"/>
			<stop  offset="1" style="stop-color:#000000"/>
		</linearGradient>
		
			<path style="clip-path:url(#SVGID_00000160899518292983016890000001800882413132494472_);fill:url(#SVGID_00000014613686388366845260000007527174775814083726_);" d="
			M555.1,427.2c-0.1,0.1-0.1,0.2-0.1,0.2C555,427.3,555.1,427.3,555.1,427.2C555.1,427.2,555.2,427.2,555.1,427.2L555.1,427.2
			C555.2,427.1,555.1,427.1,555.1,427.2c0,0-0.1,0.1-0.2,0.2L555.1,427.2z"/>
		
			<linearGradient id="SVGID_00000131328625987284999080000010519377604964105863_" gradientUnits="userSpaceOnUse" x1="644.6529" y1="361.9793" x2="656.1367" y2="361.9793">
			<stop  offset="0" style="stop-color:#FFFFFF"/>
			<stop  offset="1" style="stop-color:#000000"/>
		</linearGradient>
		
			<path style="clip-path:url(#SVGID_00000160899518292983016890000001800882413132494472_);fill:url(#SVGID_00000131328625987284999080000010519377604964105863_);" d="
			M654.4,350.5c-3.3,7.3-6.5,14.7-9.8,22c0.8,0.3,1.6,0.7,2.4,1c3-7.4,6-14.9,9.1-22.3C655.6,350.9,655,350.7,654.4,350.5z"/>
		<g style="clip-path:url(#SVGID_00000160899518292983016890000001800882413132494472_);">
			<g>
				
					<linearGradient id="SVGID_00000169530602121285885190000018318297119852281494_" gradientUnits="userSpaceOnUse" x1="11.3366" y1="1066.036" x2="834.8506" y2="242.5219">
					<stop  offset="2.149415e-03" style="stop-color:#3329FF"/>
					<stop  offset="4.163915e-02" style="stop-color:#3027EE"/>
					<stop  offset="0.1629" style="stop-color:#2920C0"/>
					<stop  offset="0.2886" style="stop-color:#221B98"/>
					<stop  offset="0.4171" style="stop-color:#1D1778"/>
					<stop  offset="0.5492" style="stop-color:#19135F"/>
					<stop  offset="0.6864" style="stop-color:#16114D"/>
					<stop  offset="0.8319" style="stop-color:#150F42"/>
					<stop  offset="1" style="stop-color:#140F3F"/>
				</linearGradient>
				<path style="fill:url(#SVGID_00000169530602121285885190000018318297119852281494_);" d="M571.9,418.2c-2.9,1.2-6,2.2-8.7,3.7
					c-2.8,1.5-5.4,3.5-8.1,5.3c-1.3,2.6-2.6,5.2-3.9,7.8c4.5,2.9,9.1,4.5,13.9,0.5c-0.9,1.5-1.8,2.9-3.5,5.5
					c13-4.6,21.6-17.7,21.1-28.3c-3.2,3.9-7.4,9-11.6,14.2C571.4,424,571.7,421.1,571.9,418.2z M581,710.4c3.2,7.9,6.5,16,10.7,26.1
					c-7.7-5-13.3-8.5-18.9-12.1c-1,1-2,2-3,3.1c6.2,7.7,11.8,16,18.8,22.8c4,3.8,12.3-0.2,13-5.1C602.8,735.6,590,714.1,581,710.4z
					 M525.6,287.9c-2.2-7.6-4.5-15.2-6.7-22.8c-0.6,0.2-1.3,0.4-1.9,0.5c0.1,0.2,0.1,0.3,0.2,0.5c-0.5,0.1-1,0.3-1.5,0.4
					c4.4,15.1,8.7,30.2,13.4,45.3c0.9,3,2.7,5.6,4.3,8.4c-2.8-10.7-5.6-21.4-8.5-32.2C525.1,288.1,525.4,288,525.6,287.9z
					 M685.9,547.2c-11.1,4.4-22.3,8.8-35.3,13.9c8.9,0.7,15.7,1.2,22.5,1.7l0.1-0.8c-2.2-0.6-4.3-1.1-7.4-2c8-3.5,14.8-6.5,21.6-9.5
					L685.9,547.2z M502.4,474.6c0,9.8,3.9,20.5-7.2,27.6C508.1,495.2,510.3,487,502.4,474.6z M805.1,828.1
					c-0.5-14.2,0.5-28.8-2.4-42.6c-17.6-84.3-29.8-169.4-39.7-254.9c-9.1-79.4-12.4-159.1-14.8-238.9c-1-32.8,2.5-65.9-3.8-98.5
					c-0.9-7.1-2.2-14.1-3.9-21c-1.1-5.4-2.4-10.7-4.4-15.7c-2-4.9-4.5-9.7-7.2-14.4c-5.6-10.4-13-20.1-22.9-27.6
					c-10.5-7.9-23-7.4-34.9-8.9c-27.6-3.4-55.2-6.3-82.9-8.9c-10.8-1-21.8-0.4-32.7-0.5c-14.9-0.2-29.9,0-44.8-0.3
					c-5.6-0.2-11.2-0.3-16.8-0.5c-2.8-0.1-5.7-0.3-8.5-0.4c-18.4-1.1-36.6-0.2-54.7,1.4c-14.6,1-29.2,2.6-43.8,5.1
					c-7.2,0.9-14.4,1.8-21.6,2.6c-8,0.9-15.8,2.4-23.4,4.2c-4,0.7-7.9,1.7-11.8,2.9c-29.8,9.3-58.8,21-88.1,31.9
					c-4.6,1.7-9,4.3-12.8,7.4c-20.5,16.8-40.2,34.7-61.4,50.5c-26.2,19.6-54.3,36.8-80.5,56.4c-19.6,14.6-38.1,30.8-55.9,47.5
					c-11.2,10.6-20,23.7-30.2,35.4c-3.9,4.5-5.3,9-5.3,14.9c0.1,229,0.1,458.1,0.1,687.1v8.3c4.3,0,7.5,0,10.7,0
					c213.3,0,426.5,0,639.8,0c38.8,0,77.6,0,116.4-0.2c2.7,0,7-1.5,7.7-3.4c11-29.2,28.6-56.1,29.9-88.9c0.9-21.9,5-43.8,5.9-65.7
					C807.3,871.2,805.8,849.6,805.1,828.1z M715.9,151.1c0.1,0.5,0.3,1,0.4,1.5l-62,30.9l-0.6-1.1c6.9-3.8,13.8-7.7,20.6-11.5
					c-0.1-0.3-0.3-0.6-0.4-0.9c-3,0.8-6,1.7-9,2.5c0-0.1-0.1-0.2-0.1-0.3c-6.3,1.8-12.6,3.6-18.9,5.4c-0.3-0.9-0.5-1.8-0.8-2.7
					C668.7,167.1,692.3,159.1,715.9,151.1z M673.6,147.5c0.4,0.8,0.8,1.7,1.2,2.5c-0.4,0.3-0.7,0.6-1.1,0.9
					c-6.2,2.1-12.4,4.2-18.8,6.3c-1.8,0-3.6-0.3-5.6-1c-3.3-1.2-8.1,1.8-12.4,3.2c0.1-0.1,0.1-0.2,0.2-0.3c-3.7,1-7.1,1.9-10.4,2.7
					c-0.2-0.7-0.4-1.5-0.6-2.2C642.7,158.5,656.7,147.2,673.6,147.5z M511,163c3.5-2,7.6-2.9,11.9-3.1c-1.2,0.6-2.3,1.3-3.5,1.9
					c-2.2,1.1-4.3,2.2-6.5,3.3c0,0.1,0,0.2,0.1,0.2c-1.9,1.1-3.9,2.1-5.8,3.2C508.4,166.7,509.2,164,511,163z M422.9,398.2
					c-1.5-8.6-3-17.1-4.6-26.4c2.6,0.7,4.6,1.3,7.6,2.1c-1.7-3.2-2.8-5.3-3.9-7.4c14.9,4.9,29.9,7.8,45.6,9.1
					c8.4,0.7,17.1,3.9,24.8,7.6c5.1,2.4,8.7,7.8,12.9,12c3.6,3.7,7,7.6,12,10.3c-3.4-4.5-6.8-9.1-10.4-13.9c5.7-0.9,8.6,1.4,9.8,6.5
					c0.3,1.4,1.5,2.5,2.3,3.8c6.5,9.8,13,19.6,19.1,28.7c-0.1-1.1-0.5-3.7-0.8-6.2c0.2-0.1,0.5-0.2,0.7-0.3c2.2,5.3,4.3,10.7,6.5,16
					c-0.4,0.3-0.8,0.5-1.2,0.8c-6.4-4.8-12.7-9.7-19.1-14.5c-26.5-19.6-56.1-24.5-88-18.9C427,409.1,424.5,407.3,422.9,398.2z
					 M527.1,399c8.1,1.6,8,6.9,7.6,14C531.8,407.7,529.6,403.7,527.1,399z M445.1,528.2c-1.1-11.4-3.3-22.7-5.1-34
					c-0.4-2.4-0.6-4.8-0.9-6.5c10.8-2.8,20.8-5.3,30.7-8.2c1.3-0.4,2-3,2-6.3c-3,0.7-6,1.3-8.9,2.2c-6.2,1.9-12.3,4.2-18.5,5.8
					c-6.1,1.6-9-0.9-7.8-7.4c13.6-0.3,14.7-1,20.2-15.5c10.4,7.3,20.5,14.5,31.2,22c-0.4,0.7-1.4,2.2-2.8,4.4c1.5-0.6,3-0.7,3.4-1.5
					c1-2,1.8-4.1,2.1-6.3c0.1-0.5-1.9-2-2.9-1.9c-7.5,0.2-10.3-5.1-12.5-10.7c-6.3-15.7-19.4-21-34.7-23.2c-1.9-0.3-3.6-1-5.4-1.5
					c0.1-0.8,0.1-1.7,0.2-2.5c3.5-0.5,6.9-1.1,10.4-1.3c1.7-0.1,3.4,1,5.1,1.1c15.8,0.6,25.5,9.7,32.4,22.8
					c2.9,5.5,7.1,8.1,13.7,8.3c-1.5-2.3-2.7-4.2-4.3-6.6c8.3,2.9,15.8,5.6,23.3,8.3c0.2-0.5,0.4-1,0.6-1.5
					c-7.8-3.8-15.5-7.6-23.3-11.4c-1.7-0.8-4.1-1.1-5.1-2.5c-8.5-11.4-19.5-19.1-33.4-22.9c1.7-0.3,3.4-0.6,5.2-1c0-0.6,0-1.3,0-1.9
					c-7.4-0.5-14.9-1-22.3-1.5c-0.1-0.3-0.1-0.7-0.2-1c4.5-1.1,9.1-2.1,13.6-3.2c-0.1-0.7-0.1-1.4-0.2-2.1c-7.9,0.5-15.8,1-23.8,1.6
					c8-16.4,78.5-1.8,99.9,21.8c-9.1,3.9-17.4,7.3-27.3,11.5c9.1,4.1,16.8,7.6,24.5,11.1c0.4-0.8,0.8-1.6,1.2-2.4
					c-1.9-1.4-3.8-2.8-4.9-3.6h23.6c-1.9,1.9-3,3.4-4.4,4.3c-7.3,4.2-8.1,10.2-2.5,16.5c1.3,1.5,2.3,4.5,1.7,6.1
					c-11.6,30.5-33.9,48.5-65.8,54c-6.3,1.1-13.3-1-19.8-2.4C447.9,537.9,445.7,534.1,445.1,528.2z M707.5,612.8
					c-0.7,18.1-3.3,35.9-10.8,52.5c-5.7,12.7-13.2,24.6-19.7,36.9c-5.9,11.2-11.4,22.7-17.1,34c-1.4,2.9-2.9,5.7-5.8,8.2
					c1.2-8.2,2.3-16.3,3.5-24.5c1.2-8.3,2.6-16.7,3.9-25c-0.6-0.1-1.3-0.2-1.9-0.4c-2.5,13.2-4.5,26.6-7.6,39.7
					c-4.5,19.1-9.4,38.1-14.7,57c-2.8,9.8-6.6,19.3-10.5,28.7c-3.7,9-7.7,17.8-12.2,26.4c-1.8,3.4-5,6.1-7.5,9.1
					c-7.4,8.6-14.9,17.2-22.3,25.9c-7.5,8.9-17.5,12.7-28.7,14.5c-19.6,3.1-39.2,4-59,1.4c-7.1-0.9-9.7-3-10-11
					c-1.3-38.7-3.7-77.4-5.6-116.1c-0.1-2.7,0-5.5,0-9c10.5,2.1,15.6,18.9,29.8,11.4c-10.6-6.9-23.5-9.1-31-20.2
					c33.2,21.7,67.6,28.2,104.1,12.3c0.1-0.9,0.2-1.9,0.4-2.8c-2.8-0.5-5.5-1.1-8.8-1.7c2-2.4,3.9-4.7,5.8-7
					c-16.7,1.1-32.8,3.7-48.7,2.9c-16.4-0.9-31.4-7.6-43.1-22.1v5.5c-2.2-1.8-3.7-3.1-4.6-3.8c-0.8,2.8-1.6,6-2.5,9.3
					c-1-0.1-2-0.3-3.1-0.4c-1.5-9.5-3.1-18.9-4.6-28.3c16.3-5.8,31.1-4.5,45.6,4.9c6.5,4.3,14.3,6.9,21.8,9.4
					c7.8,2.6,18.5-3.5,21.5-11.4c-7.7,0.8-15.4,3-22.9,2.2c-8.8-0.9-17.6-3.4-25.8-6.8c-12.9-5.3-25.2-12.5-40.2-7.3
					c-0.2-0.8-0.4-1.6-0.5-2.4c11.1-5,22.3-10.1,33.4-15.1l-0.4-1.8c-11.6,3.2-23.2,6.5-34.8,9.7c-7.8-48.9-15.5-97.7-23.1-145.7
					c57,2,92.4-23.5,105.6-79.2c2.1,14.4,4.3,28.9,6.4,43.3c0.5-0.1,1-0.1,1.5-0.2c-1.4-15.2-2.8-30.3-4.1-44.4
					c2.7-0.9,4.9-1.2,6.5-2.4c3.2-2.4,5.9-5.4,9.1-7.8c14.9-11.3,23.4-6.8,30.3,8.3c2.4,5.3,3.3,11.7,3.2,17.5
					c-0.3,31.8-1.4,63.5,4.5,95c1.7,9.1-9.5,26-18.4,29.1c-14.9,5.1-29.6,7.1-43.7-2.3c-0.8-0.5-1.9-0.7-2.8-1
					c-0.4-0.1-0.9,0.2-1.7,0.4c8.5,12.5,21.8,9.5,34,10.5c-5.7,6.6-10.9,12.6-16.2,18.7c0.6,0.6,1.3,1.2,1.9,1.8
					c1.4-0.7,3.2-1.2,4-2.3c8.7-11.8,21.6-17.1,34.1-23.2c3.5-1.7,5.7-5.9,10.1-10.8c-2.2,10.8-3.8,19.7-5.7,28.5
					c-2.4,10.8-14.4,10-20,17.9c7.6-2.2,15.2-4.5,22.9-6.5c4.5-1.2,5.4-4.1,5.7-8.3c1.2-15.3,2.9-30.5,4.5-46.3
					c15.4,4.1,30.2,5.1,45.6,3.5c15.3-1.6,28.7-6.9,41.9-13.7C708.5,589.3,708,601,707.5,612.8z M717.6,533.3
					c-0.7,12.5-0.7,26-11,35.4c-5.1,4.7-11.5,9.1-18.1,11c-20.6,6-41.3,6.3-61.3-3.5c-6.1-3-9.5-7-9.4-13.8
					c0.1-11.3,0.2-22.6,0.3-34.5c25,5,47.9,9.5,72.1,14.3c-1.2-2.5-1.5-4.1-2.4-4.8c-8-6.7-8.4-8-3.9-18.5c1.8-4.2-1.1-15.2-5-18.1
					c-4.1-3-8.4-5.5-12.8-8.3c1.9-0.5,3.9-1.1,5.9-1.7c0-0.4-0.1-0.7-0.1-1.1h-18.4c-0.1-0.7-0.2-1.3-0.2-2
					c9.1-1.8,18.6-6.2,27.2-4.7c8.9,1.5,17.4,8.1,25.2,13.6c4.2,3,6.6,8.6,9.9,12.9C721.4,516.9,718,525.5,717.6,533.3z
					 M620.1,501.5c-1.4-5.7-1.2-8.4,5.4-8.6c14.6-0.5,28.9,0.3,42,7.5c3.9,2.1,7.3,5.2,11,7.9c-0.4,0.9-0.8,1.8-1.2,2.6
					C659.2,501.8,640.2,498.1,620.1,501.5z M669.6,531.2h-16.3c3.2-4.8,6-9.2,9.9-15.2C665.4,521.2,667.3,525.6,669.6,531.2z
					 M726.5,504.9c-11.9-18.3-28.5-29.1-48.9-34.2c-19.9-5-39.8-10.5-59.8,0c0.6-11.7-7.5-18.2-14.4-25.4c-1.4-1.5-2.8-3.8-2.9-5.8
					c-0.3-8.6-0.1-17.2-0.1-25.8c-0.7-0.1-1.3-0.1-2-0.2c-2.5,8.9-4.9,17.9-6.9,24.9c-12.7,6.6-24,12.4-35,18.2
					c-6.6-8.1-11.8-16.2-7.9-27.4c1.8-0.6,4.1-1.3,6.5-2.1c1.8-2.5,3.8-4.9,5.4-7.5c1.3-2.2,2.3-4.6,3.4-7h-13
					c0.4-16.4-6.7-29.8-19.9-41.6c-0.4,2.9-0.6,4.5-0.8,6.4c-4.6-3.2-9.2-6.4-14-9.8c-0.3,1.8-0.6,3.4-0.8,4.8
					c-8.2-3.7-16.3-7.4-26-11.9c1.1,3.9,1.8,6.4,2.6,9.2c-13.4-6.2-26.6-12.4-40.1-18.7c0,0.4,0.1,1.4,0.2,3.5
					c-9.1-2.2-17.9-4-26.6-6.5c-2.1-0.6-4.7-3.4-5-5.5c-3.8-27.3-6.5-54.8-1-81.5c0,0,0.1,0.1,0.1,0.1c1.3-6.6,3.1-13.1,5.6-19.6
					c1.1-2.9,2.3-5.9,3.6-8.8c7.2-15.7,16.4-30.5,25.9-45c3.2-4.9,10.5-7,17.8-11.6c-4,0.4-5.8,0.6-7.6,0.8
					c-0.2-0.7-0.4-1.4-0.6-2.2c10-2.6,20-5.2,31.1-8.1c-0.7,3.2-1,4.6-1.2,5.4c4.3-1.1,8.5-2.2,12.6-3.3c-0.1,0-0.2,0.1-0.2,0.1
					c8.5-1.6,17.1-3.1,25.6-4.7c0,0,0,0,0.1,0.1c-0.3,0.2-0.6,0.4-0.9,0.6c-2.6,0.9-5.2,1.9-8,2.9c1,1,1.8,1.8,3.5,3.6h22.6
					c0,0.6,0.1,1.3,0.1,1.9c-1,0.9-2,1.9-4.4,4.2c15.3-0.7,29-1.4,42.5-2c-0.6,0.4-1.3,0.8-2,1.1c-3.3,1.5-6.7,3-10,4.5
					c0,0.4,0.1,0.8,0.1,1.2c-0.9,0.5-1.9,1.1-2.8,1.6c2.3,1.7,4.1,3.8,6.4,4.5c2.9,1,6.3,1.4,9.3,1c7.7-1,15.2-2.5,25-4.3
					c-1.7,1.1-3.2,2-4.6,2.9c-1.5,0.4-3.1,0.9-4.6,1.3c0.1,0.5,0.2,0.9,0.2,1.4c-0.8,0.5-1.7,1-2.6,1.6c6,2.4,10.3,5.1,14.9,5.7
					c4.6,0.7,9.5-0.7,14.8,0.6c-1.2,0.7-2.5,1.5-3.7,2.2c-3.3,1.1-6.7,2.1-10,3.2c0.2,0.8,0.5,1.6,0.7,2.4c-0.5,0.3-0.9,0.5-1.4,0.8
					c4.1,0.9,7.9,0.8,9.5,4.3l0,0c-0.1,0.1-0.2,0.1-0.3,0.2c0.2,0.1,0.4,0.2,0.5,0.4c0.2,0.6,0.4,1.4,0.4,2.2
					c0.1,0.9,2.2,2.1,3.6,2.4c10.7,2.6,20.8,9.8,32.6,6.7c-0.7,0.4-1.3,0.8-2,1.2c0.1,0.5,0.1,1,0.2,1.5c-0.7,0.5-1.5,1.2-2.4,1.9
					c5.3,0.6,8.9,1.1,13.7,1.7c-2.4,1.5-4.8,3-7.2,4.5c0.1,0.5,0.3,1,0.4,1.6c-0.9,0.7-1.8,1.4-2.8,2.2c6.5,0.4,11.1,0.8,15.5,1.1
					c0.2,0.4,0.4,0.9,0.6,1.4c-0.5,0.4-1,0.9-1.6,1.4c0.7,0.1,1.5,0.1,2.2,0.2c0.4,1,0.9,1.8,1.6,2.5c1.3,1.2,3.7,1.4,5.5,2
					c-0.1,0.5-0.2,1-0.3,1.5c-0.4,0.1-0.9,0.2-1.3,0.2c-1.8-0.2-3.6-0.4-5.8-0.7c1.4,4.1,1.9,8.6,4.3,11.7c1.5,2,5.6,2.1,8.6,2.9
					c2,0.6,4.1,0.9,6.1,1.4c0,0,0,0.1,0,0.1c-2.9,2.5-5.9,5.1-9.2,7.9c1.3,0.6,2.5,1.2,3.7,1.8c-0.4,0.4-0.8,0.7-1.1,1.1
					c4.2,3.1,7.7,6.4,13.3,3.1c1-0.6,5.3,1.8,5.9,3.6c4.5,12.3,9.6,24.3,9.7,38c0.1,19.7,2.2,39.3,2.8,59c0.3,8.5-1.5,16.9-1.6,25.4
					c-0.3,17.9-0.1,35.9-0.1,54.6c-7.5-4.8-14.7-9.4-21.6-13.9c-0.1,0.1,1-0.4,3.9-1.7c-11.7-2-21.9-3.8-32.1-5.5
					c0.4-0.3,1.1-1,1.8-1.6c-1.2-0.4-2.4-0.8-5.2-1.7c2.7-1.5,4.6-2.6,6.5-3.7c-14.8,2-28.6,5.1-40.1,14.4
					c-4.9,3.9-9.7,2.2-14.3-1.3c-3.5-2.6-7.5-4.6-11-7.3c-1.5-1.2-2.5-3.5-2.7-5.4c-0.4-3.4-0.1-6.9-1-10.3
					c-3.3,6.6-4.9,13.3-1.1,20.1c10.7,18.9,17.2,21.2,36.9,12.1c6.5-3,12.2-3.4,19.2-1.5c10.1,2.7,20.7,3.3,30.9,5.3
					c3.2,0.6,6.6,2.1,9.2,4.2c10.1,7.9,18.6,17.4,23.3,29.5C726.9,494.4,726.8,499.7,726.5,504.9z M727.1,169.3
					c-4.4,2.4-8.7,4.8-13,7.2c-1.3,0-2.6-0.2-4-0.5c-1.6-0.3-3.6,1.2-5.4,1.9c-0.7,0.3-1.4,0.6-2.1,0.9c-0.2-0.4-0.4-0.7-0.6-1.1
					c-3.1,1.4-6.2,2.9-9.3,4.4c5-5.3,8.7-10.5,13.8-12.7c5.9-2.6,13.4-1.6,22.3-2.3C728.3,167.9,727.7,168.6,727.1,169.3z
					 M564,369.7c-0.7-4.3-2-8.9-4.4-12.4c-8.2-12-17-23.6-25.5-35.3c1.7,4.3,2.8,8.9,5.3,12.6c11.2,16.8,21.7,33.9,24.4,54.5
					c0.2,1.6,1.4,3.1,2.1,4.7C565.9,385.4,565.3,377.5,564,369.7z M546.4,689.4c-6.1-1.6-12.2-3.3-19.9-5.3
					C534,693.7,541.4,695.2,546.4,689.4z M551.1,714.6c0.6,0.7,1.1,1.5,1.7,2.2c5.4-4.2,10.7-8.5,16.1-12.7c-0.5-0.6-1-1.3-1.5-1.9
					C562,706.3,556.5,710.5,551.1,714.6z M577.3,638.4c9.5-2.5,18.3-4.7,28.5-7.4C591.7,622,580.1,625,577.3,638.4z M561.3,777.9
					c0.3,1.1,0.6,2.2,0.9,3.4c10.3-2.7,20.7-5.5,31-8.2c-0.4-1.6-0.8-3.2-1.2-4.8C581.8,771.4,571.6,774.6,561.3,777.9z
					 M485.4,616.6c-1.3-1.8-1.4-5.5-0.5-7.6c3.6-8.7,7.8-17.1,12.4-26.8C486,594.7,481,602.9,479,613c-0.4,2,0.3,4.7,1.5,6.3
					c5.4,7,11.4,13.6,16.8,20.6c5,6.5,11.6,7.4,18.6,7.2c-5.4-4.3-11.2-8-15.9-12.7C494.6,629,489.9,622.9,485.4,616.6z
					 M520.4,618.1c6.9,5.1,13.9,10.1,20.8,15.2c0.3-0.4,0.5-0.9,0.8-1.3c-2.5-4.7-4.9-9.5-7.5-14.1c-5.4-9.5-10.9-12.1-21.6-9.2
					c-3.9,1.1-7.4,3.7-10.8,6.1c-5,3.5-4.5,8.8,1.5,10.4c6.2,1.7,12.8,1.7,20.9,2.7c-2.5-4-3.9-6.2-5.3-8.3
					C519.6,619.2,520,618.6,520.4,618.1z"/>
			</g>
		</g>
		<g style="clip-path:url(#SVGID_00000160899518292983016890000001800882413132494472_);">
			<g>
				
					<linearGradient id="SVGID_00000092456826549528711890000007194344173224699571_" gradientUnits="userSpaceOnUse" x1="416.3382" y1="524.2045" x2="730.286" y2="524.2045">
					<stop  offset="0.2543" style="stop-color:#C0BAAF"/>
					<stop  offset="0.6888" style="stop-color:#ECEAE7"/>
					<stop  offset="0.9177" style="stop-color:#FFFFFF"/>
				</linearGradient>
				<path style="fill:url(#SVGID_00000092456826549528711890000007194344173224699571_);" d="M701.9,460.4c-2.6-2-5.9-3.5-9.2-4.2
					c-10.3-2-20.9-2.6-30.9-5.3c-7-1.9-12.7-1.5-19.2,1.5c-19.7,9.2-26.2,6.8-36.9-12.1c-3.9-6.8-2.2-13.6,1.1-20.1
					c0.9,3.5,0.5,7,1,10.3c0.2,1.9,1.3,4.2,2.7,5.4c3.4,2.7,7.4,4.7,11,7.3c4.6,3.4,9.4,5.2,14.3,1.3c11.5-9.3,25.3-12.4,40.1-14.4
					c-1.9,1.1-3.8,2.2-6.5,3.7c2.8,0.9,3.9,1.3,5.2,1.7c-0.8,0.7-1.5,1.3-1.8,1.6c10.2,1.8,20.3,3.5,32.1,5.5
					c-2.9,1.2-4,1.7-3.9,1.7c6.9,4.5,14.1,9.1,21.6,13.9c0-18.7-0.2-36.7,0.1-54.6c0.1-8.5,1.9-17,1.6-25.4
					c-0.4-14.6-1.2-36.5-2.4-49.7c0,0,0,0,0,0c-1.4-16.5-3.7-32.7-8.1-48.8c-1.3-4.8-4.7-6.7-7.9-5.1c-4.5,2.2-7.6,0.9-12.2-1.3
					c1.1-1.1,2.2-2.1,2.9-3.3c1.2-1.9,1.8-4.2,2.6-6.3c3.7-3.1,7.2-6.2,11-9.4c-7.1,2.1-12.8,4.5-18.8,5.4c-2.3,0.4-5.8-1.9-7.6-4
					c-1.6-2-1.6-5.3-2-6.8c1.5-0.1,2.9-0.3,4.3-0.5c0.4,0,0.8,0.1,1.2,0.1c0-0.1,0.1-0.3,0.1-0.4c15.6-3.1,28.4-13.5,42.9-19.8
					c-16,4.9-30.5,14.9-49.7,13.8c-0.2-0.5-0.4-1-0.6-1.6c1.7-1.5,3-2.6,5-4.5c-7.2,0-12.7,0-18.3,0c0-0.1,0-0.1-0.1-0.2
					c2.7-2.1,4.9-3.9,7.5-5.9c-0.3,0-0.5-0.1-0.8-0.1c2.1-1.3,4.2-2.6,6.4-4c-6.2,0.4-11.9,0.7-17.6,1c0-0.2,0-0.4-0.1-0.5
					c2-1.6,3.2-2.6,4.5-3.6c-0.9,0.4-1.8,0.6-2.7,0.9c1.6-0.9,3.3-2,5.5-3.3c-9,0-16.5,0-24,0c0-0.5-0.1-0.9-0.1-1.4
					c5.7-2.3,11.4-4.6,18.4-7.4c-12.8,0.1-24.3,8.8-36.5,0.7c-0.1-0.2-0.1-0.4-0.2-0.6c3.5-2.1,6.4-3.8,9.3-5.5
					c-1.5-0.7-3.1-2-4.5-1.8c-4.3,0.6-8.5,1.9-12.7,2.9c-0.1-0.2-0.1-0.4-0.2-0.6c3.1-1.9,6.2-3.7,9.3-5.6
					c7.9-2.5,15.9-5.1,23.9-7.7c1.2-1.8,3-4.3,4.8-6.8c-1.4-0.4-3.1-0.9-5.5-1.6c23-11.5,45.1-22.4,67.1-33.4
					c-0.3-0.7-0.5-1.3-0.8-2c-3.6,0.7-7.2,1.1-10.6,2.3c-12.4,4.2-24.8,8.5-37.1,13c-12.6,4.5-24.9,10.2-37.7,13.5
					c-16,4.2-32.5,6.6-48.8,9.6c-1.3,0.2-2.7-0.6-4.5-1.1c1.2-1.5,2-2.5,2.9-3.7c-2.1-0.2-4-0.5-5.9-0.7c0,0,0-0.1,0-0.1
					c3.2-1.9,6.6-3.8,9.9-5.7c6.4-2.9,12.8-5.8,19.2-8.7c-18.2,5.7-36.6,9-56,6.3c1.8-1.4,3.3-2.6,5.8-4.5c-3.4,0.3-5.6,0.5-8.8,0.8
					c2-1.6,3.2-2.5,4.5-3.5c-0.1-0.3-0.3-0.7-0.4-1c-7,1.6-14,3.2-21,4.8c-0.1-0.3-0.2-0.6-0.2-0.9c1.3-0.9,2.7-1.8,4.1-2.7
					c-1-0.6-1.9-1.1-2.5-1.4c0.4-0.3,0.7-0.5,1.1-0.8c0.4-0.1,0.7-0.3,1.1-0.4c-0.1-0.1-0.1-0.2-0.2-0.3c0.8-0.6,1.6-1.1,2.3-1.7
					c-0.2-0.3-0.3-0.6-0.5-1c-7,1.5-14,3.1-20.9,4.6c-0.1-0.3-0.2-0.7-0.3-1c5.5-2.8,10.9-5.6,16.4-8.5c-12.2,1.3-23.8,3.9-33,14.7
					c0.5-2.5,0.8-3.8,1.1-5.2c-21.3-0.7-31.5,2.7-42.7,20c-9.7,14.9-18.9,30.4-25.9,46.7c-0.4,1-0.9,1.9-1.3,2.9
					c-15.1,34.5-11.9,70.8-7,106.9c0.3,2.1,2.9,4.9,5,5.5c8.6,2.5,17.5,4.4,26.6,6.5c-0.1-2.1-0.1-3.1-0.2-3.5
					c13.5,6.3,26.8,12.5,40.1,18.7c-0.8-2.8-1.5-5.2-2.6-9.2c9.7,4.4,17.8,8.1,26,11.9c0.2-1.4,0.5-3,0.8-4.8
					c4.9,3.4,9.4,6.5,14,9.8c0.2-1.9,0.5-3.6,0.8-6.4c13.2,11.8,20.3,25.2,19.9,41.6c4.4,0,8.2,0,13,0c-1.2,2.4-2.1,4.9-3.4,7
					c-1.6,2.6-3.6,5-5.4,7.5c-2.3,0.7-4.7,1.5-6.5,2.1c-4,11.2,1.2,19.3,7.9,27.4c11-5.7,22.4-11.6,35-18.2c1.9-7,4.4-15.9,6.9-24.9
					c0.7,0.1,1.3,0.1,2,0.2c0,8.6-0.2,17.2,0.1,25.8c0.1,2,1.5,4.2,2.9,5.8c6.8,7.3,15,13.7,14.4,25.4c20-10.5,39.9-5,59.8,0
					c20.4,5.2,37,16,48.9,34.2c0.2-5.3,0.4-10.6-1.3-15.1C720.6,477.7,712,468.3,701.9,460.4z M654.4,350.5c0.6,0.2,1.1,0.5,1.7,0.7
					c-3,7.4-6,14.9-9.1,22.3c-0.8-0.3-1.6-0.7-2.4-1C647.9,365.2,651.2,357.8,654.4,350.5z M609.2,188.2
					c18.5-5.3,37.1-10.6,55.6-15.9c0.2,0.6,0.5,1.1,0.7,1.7c-12.4,5.6-24.9,11.2-37.6,16.9c2,0.3,3.9,0.6,5.8,1
					c0,0.6,0.1,1.1,0.1,1.7c-6.6,1.1-13.1,2.3-19.7,3.4c-0.2-0.6-0.4-1.3-0.5-1.9c2.5-1.1,4.9-2.3,8.9-4.1
					c-6.8,0.5-12.1,0.9-17.3,1.2c-0.1-0.4-0.1-0.9-0.2-1.3C606.4,190,607.8,189.1,609.2,188.2z M523.8,288.5
					c-2.2-7.4-4.4-14.8-6.6-22.2c0.6-0.2,1.2-0.3,1.8-0.5c2,7.5,3.9,15,5.9,22.4C524.5,288.3,524.1,288.4,523.8,288.5z M529,311.9
					c-0.2-0.5-0.3-1.1-0.5-1.6c0.8,0.2,1.5,0.4,2.3,0.6c0.8,3.1,1.7,6.3,2.5,9.4C531.8,317.6,530,314.9,529,311.9z M563.8,389.1
					c-2.8-20.6-13.2-37.7-24.4-54.5c-2.5-3.7-3.7-8.4-5.3-12.7c8.6,11.7,17.3,23.3,25.5,35.3c2.4,3.5,3.7,8.1,4.4,12.4
					c1.4,7.8,1.9,15.7,1.9,24C565.1,392.2,564,390.7,563.8,389.1z M561.7,441c1.6-2.6,2.5-4,3.5-5.5c-4.8,4-9.4,2.4-13.9-0.5
					c1.3-2.6,2.6-5.2,3.9-7.8c2.7-1.8,5.3-3.8,8.1-5.3c2.8-1.5,5.8-2.5,8.7-3.7c-0.2,2.9-0.5,5.8-0.7,8.7
					c4.2-5.1,8.4-10.3,11.6-14.2C583.2,423.3,574.7,436.4,561.7,441z M621.5,588.5c-1.6,15.8-3.3,31.1-4.5,46.3
					c-0.3,4.2-1.2,7.1-5.7,8.3c-7.7,2-15.3,4.3-22.9,6.5c5.6-7.9,17.6-7.1,20-17.9c1.9-8.8,3.6-17.6,5.7-28.5
					c-4.4,4.9-6.6,9.1-10.1,10.8c-12.5,6.1-25.5,11.3-34.1,23.2c-0.8,1.1-2.6,1.6-4,2.3c-0.6-0.6-1.3-1.2-1.9-1.8
					c5.2-6.1,10.5-12.1,16.2-18.7c-12.2-1-25.5,2-34-10.5c0.8-0.2,1.3-0.5,1.7-0.4c1,0.2,2,0.4,2.8,1c14.1,9.4,28.9,7.4,43.7,2.3
					c8.9-3.1,20.1-20,18.4-29.1c-5.9-31.5-4.8-63.3-4.5-95c0.1-5.9-0.8-12.3-3.2-17.5c-6.9-15.1-15.4-19.7-30.3-8.3
					c-3.2,2.4-5.9,5.5-9.1,7.8c-1.6,1.2-3.8,1.4-6.5,2.4c1.3,14.1,2.7,29.3,4.1,44.4c-0.5,0.1-1,0.1-1.5,0.2
					c-2.1-14.4-4.3-28.9-6.4-43.3c-13.2,55.7-48.6,81.1-105.6,79.2c7.6,48,15.4,96.7,23.1,145.7c11.7-3.3,23.3-6.5,34.8-9.7
					c0.1,0.6,0.3,1.2,0.4,1.8c-11.1,5-22.3,10.1-33.4,15.1c0.2,0.8,0.4,1.6,0.5,2.4c15-5.2,27.2,1.9,40.2,7.3
					c8.2,3.4,17,5.9,25.8,6.8c7.4,0.8,15.2-1.3,22.9-2.2c-3,7.9-13.7,14-21.5,11.4c-7.5-2.5-15.3-5.1-21.8-9.4
					c-14.4-9.4-29.2-10.7-45.6-4.9c1.5,9.4,3,18.8,4.6,28.3c1,0.1,2,0.3,3.1,0.4c0.9-3.2,1.7-6.4,2.5-9.3c0.9,0.8,2.4,2,4.6,3.8
					c0-2.1,0-3.1,0-5.5c11.7,14.5,26.7,21.2,43.1,22.1c15.9,0.9,32-1.7,48.7-2.9c-1.9,2.3-3.8,4.6-5.8,7c3.3,0.6,6.1,1.2,8.8,1.7
					c-0.1,0.9-0.2,1.9-0.4,2.8c-36.5,15.8-70.9,9.4-104.1-12.3c7.5,11,20.4,13.3,31,20.2c-14.2,7.5-19.2-9.3-29.8-11.4
					c0,3.6-0.1,6.3,0,9c1.9,38.7,4.3,77.4,5.6,116.1c0.3,8,2.8,10,10,11c19.8,2.6,39.4,1.7,59-1.4c11.2-1.8,21.1-5.6,28.7-14.5
					c7.4-8.7,14.8-17.3,22.3-25.9c2.6-3,5.8-5.7,7.5-9.1c4.4-8.6,8.5-17.5,12.2-26.4c3.9-9.4,7.7-18.9,10.5-28.7
					c5.4-18.9,10.3-37.9,14.7-57c3.1-13.1,5.1-26.5,7.6-39.7c0.6,0.1,1.3,0.2,1.9,0.4c-1.3,8.3-2.7,16.7-3.9,25
					c-1.2,8.1-2.3,16.3-3.5,24.5c2.9-2.5,4.4-5.3,5.8-8.2c5.7-11.3,11.2-22.8,17.1-34c6.5-12.4,13.9-24.3,19.7-36.9
					c7.5-16.5,10.1-34.4,10.8-52.5c0.5-11.8,1-23.5,1.5-34.5c-13.2,6.8-26.7,12-41.9,13.7C651.7,593.7,636.9,592.6,621.5,588.5z
					 M497.3,639.9c-5.4-7-11.4-13.6-16.8-20.6c-1.2-1.6-1.9-4.3-1.5-6.3c1.9-10.1,6.9-18.3,18.4-30.8c-4.6,9.7-8.8,18.1-12.4,26.8
					c-0.9,2.2-0.8,5.8,0.5,7.6c4.4,6.2,9.2,12.3,14.6,17.8c4.7,4.7,10.4,8.4,15.9,12.7C508.9,647.3,502.3,646.4,497.3,639.9z
					 M503.6,625.3c-6-1.6-6.5-6.9-1.5-10.4c3.4-2.4,6.9-5.1,10.8-6.1c10.7-2.9,16.3-0.3,21.6,9.2c2.6,4.6,5,9.4,7.5,14.1
					c-0.3,0.4-0.5,0.9-0.8,1.3c-6.9-5.1-13.9-10.1-20.8-15.2c-0.4,0.5-0.8,1-1.2,1.5c1.4,2.2,2.7,4.3,5.3,8.3
					C516.4,627,509.8,627,503.6,625.3z M526.5,684.1c7.7,2.1,13.8,3.7,19.9,5.3C541.4,695.2,534,693.7,526.5,684.1z M552.8,716.8
					c-0.6-0.7-1.1-1.5-1.7-2.2c5.4-4.1,10.9-8.3,16.3-12.4c0.5,0.6,1,1.3,1.5,1.9C563.5,708.3,558.2,712.6,552.8,716.8z M605.7,631
					c-10.2,2.6-19,4.9-28.5,7.4C580.1,625,591.7,622,605.7,631z M562.3,781.2c-0.3-1.1-0.6-2.2-0.9-3.4c10.2-3.2,20.5-6.5,30.7-9.7
					c0.4,1.6,0.8,3.2,1.2,4.8C582.9,775.7,572.6,778.5,562.3,781.2z M601.6,745.2c-0.6,4.9-9,8.9-13,5.1c-7-6.8-12.6-15.1-18.8-22.8
					c1-1,2-2,3-3.1c5.6,3.6,11.2,7.2,18.9,12.1c-4.1-10.1-7.5-18.2-10.7-26.1C590,714.1,602.8,735.6,601.6,745.2z M527.1,399
					c2.6,4.7,4.7,8.7,7.6,14C535.1,405.8,535.2,400.5,527.1,399z M524.1,426.4c6.4,4.8,12.8,9.7,19.1,14.5c0.4-0.3,0.8-0.5,1.2-0.8
					c-2.2-5.3-4.3-10.7-6.5-16c-0.2,0.1-0.5,0.2-0.7,0.3c0.3,2.6,0.7,5.2,0.8,6.2c-6-9.1-12.6-18.9-19.1-28.7
					c-0.8-1.2-2-2.4-2.3-3.8c-1.2-5.1-4.1-7.4-9.8-6.5c3.6,4.8,7,9.3,10.4,13.9c-4.9-2.7-8.3-6.6-12-10.3c-4.1-4.2-7.8-9.6-12.9-12
					c-7.7-3.7-16.3-6.9-24.8-7.6c-15.6-1.3-30.7-4.2-45.6-9.1c1.1,2.1,2.2,4.2,3.9,7.4c-3.1-0.9-5-1.4-7.6-2.1
					c1.6,9.3,3.2,17.9,4.6,26.4c1.6,9,4.1,10.8,13.1,9.3C468,401.9,497.6,406.8,524.1,426.4z"/>
			</g>
		</g>
		<path style="clip-path:url(#SVGID_00000160899518292983016890000001800882413132494472_);fill:#EDD661;" d="M702.1,177.8
			c0.4,0.8,0.9,1.6,1.3,2.5c-8.7,5.7-17.4,11.3-27.6,18c15.8-6,30-11.3,44.2-16.7c-0.2-0.5-0.4-1.1-0.5-1.6
			c-4.6,1.1-9.2,2.1-13.8,3.2c-0.2-0.5-0.4-1.1-0.6-1.6c10-5.5,19.9-11,30.1-16.6c-8.4,0-16-0.6-23.4,0.2c-4.2,0.5-9.9,2.3-11.8,5.4
			c-4.7,7.8-11.7,11.2-19.4,14.1c-6.4,2.4-13.1,4.2-19.2,7.3c-8.3,4.2-16.2,9.2-24.2,14c8-2.9,16-5.6,23.8-9
			C674.9,190.8,688.5,184.1,702.1,177.8z"/>
		<path style="clip-path:url(#SVGID_00000160899518292983016890000001800882413132494472_);fill:#EDD661;" d="M638.8,148.5
			c4.7,0,9.4,0,16,0c-13.1,7.3-27.4,6.3-37.3,15.7c6.2-1.6,12.4-3.3,19.6-5.2c-1,1.4-1.7,2.6-3.5,5.2c20-6.7,38.4-12.8,56.8-19
			c0.3-0.1,0.4-0.7,0.9-1.8c-17.8,1.4-35.2,2.8-52.6,4.2C638.8,148,638.8,148.2,638.8,148.5z"/>
		<path style="clip-path:url(#SVGID_00000160899518292983016890000001800882413132494472_);fill:#EDD661;" d="M673.8,208.1
			c17.1,0.6,30.6-8.3,44.9-15.2c-0.4-0.7-0.7-1.5-1.1-2.2C703,196.5,688.4,202.3,673.8,208.1z"/>
		<path style="clip-path:url(#SVGID_00000160899518292983016890000001800882413132494472_);fill:#EDD661;" d="M563.5,134.8
			c-12.5-3.2-23,0.6-32.6,8.5"/>
		<path style="clip-path:url(#SVGID_00000160899518292983016890000001800882413132494472_);fill:#EDD661;" d="M511.6,149.5
			c-5.2,1.5-10.2,3.4-15.3,5.1c0.2,0.8,0.4,1.7,0.5,2.5c5.4-1,10.9-1.7,16.3-3c1.1-0.3,1.8-2.3,2.7-3.5
			C514.5,150.2,512.8,149.2,511.6,149.5z"/>
		<path style="clip-path:url(#SVGID_00000160899518292983016890000001800882413132494472_);fill:#EDD661;" d="M722.3,252.7
			c0.5,0.4,0.9,0.8,1.4,1.2c4.1-6.7,16.9-5,15.1-19.6C732.6,241.2,727.5,247,722.3,252.7z"/>
		<path style="clip-path:url(#SVGID_00000160899518292983016890000001800882413132494472_);fill:#EDD661;" d="M719.2,243.8
			c0.6,0.6,1.2,1.2,1.8,1.9c7.1-6.1,14.2-12.2,21.2-18.4c-0.7-0.8-1.4-1.6-2.1-2.4C733.2,231.2,726.2,237.5,719.2,243.8z"/>
		<path style="clip-path:url(#SVGID_00000160899518292983016890000001800882413132494472_);fill:#EDD661;" d="M471.9,163.7
			c0.3,0.7,0.6,1.3,0.9,2c4.9-2.2,9.8-4.3,14.7-6.5c-0.4-0.8-0.7-1.6-1.1-2.5C481.6,159.1,476.8,161.4,471.9,163.7z"/>
		<path style="clip-path:url(#SVGID_00000160899518292983016890000001800882413132494472_);fill:#EDD661;" d="M715.9,151.1
			c0.2,0.7,0.4,1.4,0.6,2.2c-20.6,10.3-41.2,20.6-61.8,30.8c-0.3-0.6-0.6-1.1-0.9-1.7"/>
		<path style="clip-path:url(#SVGID_00000160899518292983016890000001800882413132494472_);fill:#EDD661;" d="M654.3,183.5
			c-0.2-0.4-0.4-0.7-0.6-1.1c6.9-3.8,13.8-7.7,20.6-11.5c-0.1-0.3-0.3-0.6-0.4-0.9c-9.3,2.6-18.6,5.2-28,7.8
			c-0.3-0.9-0.6-1.9-0.9-2.8c23.6-8,47.1-15.9,70.7-23.9c0.1,0.5,0.3,1,0.4,1.5"/>
		<path style="clip-path:url(#SVGID_00000160899518292983016890000001800882413132494472_);fill:#EDD661;" d="M617.9,169
			c0.2,0.7,0.4,1.4,0.6,2.1c8.1-1.5,16.1-3.1,24.2-4.6c-0.1-0.7-0.3-1.4-0.4-2"/>
		<polygon style="clip-path:url(#SVGID_00000160899518292983016890000001800882413132494472_);fill:#EDD661;" points="558.9,157.2 
			605,138 646.2,120 658.7,126 668.3,130 637.4,132 613.8,140 597,150.8 615.8,145.6 585.3,159.2 561.7,167.7 580.1,151.2 		"/>
		<path style="clip-path:url(#SVGID_00000160899518292983016890000001800882413132494472_);fill:#EDD661;" d="M532.4,156.4
			c1.2-0.8,48.1-20,48.1-20l-41.7,26L532.4,156.4z"/>
		<polygon style="clip-path:url(#SVGID_00000160899518292983016890000001800882413132494472_);fill:#EDD661;" points="577.3,170.9 
			609.8,158 583.7,172.5 		"/>
		<polygon style="clip-path:url(#SVGID_00000160899518292983016890000001800882413132494472_);fill:#EDD661;" points="586.5,181.7 
			611.8,173.3 589.3,185.3 		"/>
		<polygon style="clip-path:url(#SVGID_00000160899518292983016890000001800882413132494472_);fill:#EDD661;" points="616.6,190.1 
			644.2,181.7 620.2,192.9 		"/>
		<path style="clip-path:url(#SVGID_00000160899518292983016890000001800882413132494472_);fill:#EDD661;" d="M643.4,212.9
			c1.2,0,27.2-14.8,27.2-14.8l-3.2,6.4L643.4,212.9z"/>
		<polygon style="clip-path:url(#SVGID_00000160899518292983016890000001800882413132494472_);fill:#EDD661;" points="670.7,235.4 
			693.5,228.2 726.8,211.3 716.4,219.3 694.7,232.2 		"/>
		<polygon style="clip-path:url(#SVGID_00000160899518292983016890000001800882413132494472_);fill:#EDD661;" points="669.4,220.3 
			712.8,203.7 687.5,216.9 734,194.9 702.3,215.3 679.8,225.9 683.5,219.3 		"/>
		<path style="clip-path:url(#SVGID_00000160899518292983016890000001800882413132494472_);fill:#BCEEF7;" d="M527.1,443.9
			c-9.1,3.9-17.4,7.3-27.3,11.5c9.1,4.1,16.8,7.6,24.5,11.1c0.4-0.8,0.8-1.6,1.2-2.4c-1.9-1.4-3.8-2.8-4.9-3.6c6.8,0,14.4,0,23.6,0
			c-1.9,1.9-3,3.4-4.4,4.3c-7.3,4.2-8.1,10.2-2.5,16.5c1.3,1.5,2.3,4.5,1.7,6.1c-11.6,30.5-33.9,48.5-65.8,54
			c-6.3,1.1-13.3-1-19.8-2.4c-5.4-1.2-7.7-5-8.2-10.9c-1.1-11.4-3.3-22.7-5.1-34c-0.4-2.4-0.6-4.8-0.9-6.5
			c10.8-2.8,20.8-5.3,30.7-8.2c1.3-0.4,2-3,2-6.3c-3,0.7-6,1.3-8.9,2.2c-6.2,1.9-12.3,4.2-18.5,5.8c-6.1,1.6-9-0.9-7.8-7.4
			c13.6-0.3,14.7-1,20.2-15.5c10.4,7.3,20.5,14.5,31.2,22c-0.4,0.7-1.4,2.2-2.8,4.4c1.5-0.6,3-0.7,3.4-1.5c1-2,1.8-4.1,2.1-6.3
			c0.1-0.5-1.9-2-2.9-1.9c-7.5,0.2-10.3-5.1-12.5-10.7c-6.3-15.7-19.4-21-34.7-23.2c-1.9-0.3-3.6-1-5.4-1.5c0.1-0.8,0.1-1.7,0.2-2.5
			c3.5-0.5,6.9-1.1,10.4-1.3c1.7-0.1,3.4,1,5.1,1.1c15.8,0.6,25.5,9.7,32.4,22.8c2.9,5.5,7.1,8.1,13.7,8.3c-1.5-2.3-2.7-4.2-4.3-6.6
			c8.3,2.9,15.8,5.6,23.3,8.3c0.2-0.5,0.4-1,0.6-1.5c-7.8-3.8-15.5-7.6-23.3-11.4c-1.7-0.8-4.1-1.1-5.1-2.5
			c-8.5-11.4-19.5-19.1-33.4-22.9c1.7-0.3,3.4-0.6,5.2-1c0-0.6,0-1.3,0-1.9c-7.4-0.5-14.9-1-22.3-1.5c-0.1-0.3-0.1-0.7-0.2-1
			c4.5-1.1,9.1-2.1,13.6-3.2c-0.1-0.7-0.1-1.4-0.2-2.1c-7.9,0.5-15.8,1-23.8,1.6C435.2,405.7,505.7,420.3,527.1,443.9z M502.4,474.6
			c0,9.8,3.9,20.5-7.2,27.6C508.1,495.2,510.3,487,502.4,474.6z"/>
		<path style="clip-path:url(#SVGID_00000160899518292983016890000001800882413132494472_);fill:#BCEEF7;" d="M666.1,492.5
			c1.9-0.5,3.9-1.1,5.9-1.7c0-0.4-0.1-0.7-0.1-1.1c-6.1,0-12.2,0-18.4,0c-0.1-0.7-0.2-1.3-0.2-2c9.1-1.8,18.6-6.2,27.2-4.7
			c8.9,1.5,17.4,8.1,25.2,13.6c4.2,3,6.6,8.6,9.9,12.9c5.9,7.5,2.5,16,2.1,23.8c-0.7,12.5-0.7,26-11,35.4c-5.1,4.7-11.5,9.1-18.1,11
			c-20.6,6-41.3,6.3-61.3-3.5c-6.1-3-9.5-7-9.4-13.8c0.1-11.3,0.2-22.6,0.3-34.5c25,5,47.9,9.5,72.1,14.3c-1.2-2.5-1.5-4.1-2.4-4.8
			c-8-6.7-8.4-8-3.9-18.5c1.8-4.2-1.1-15.2-5-18.1C674.8,497.9,670.5,495.3,666.1,492.5z M687.4,550.4c-0.5-1.1-1-2.2-1.5-3.3
			c-11.1,4.4-22.3,8.8-35.3,13.9c8.9,0.7,15.7,1.2,22.5,1.7c0-0.3,0-0.6,0.1-0.8c-2.2-0.6-4.3-1.1-7.4-2
			C673.8,556.4,680.6,553.4,687.4,550.4z"/>
		<path style="clip-path:url(#SVGID_00000160899518292983016890000001800882413132494472_);fill:#BCEEF7;" d="M677.3,510.8
			c-18.1-9-37.1-12.7-57.2-9.3c-1.4-5.7-1.2-8.4,5.4-8.6c14.6-0.5,28.9,0.3,42,7.5c3.9,2.1,7.3,5.2,11,7.9
			C678.1,509,677.7,509.9,677.3,510.8z"/>
		<path style="clip-path:url(#SVGID_00000160899518292983016890000001800882413132494472_);fill:#BCEEF7;" d="M663.3,516
			c2.2,5.1,4,9.5,6.4,15.2c-6.3,0-11.2,0-16.3,0C656.5,526.4,659.4,522,663.3,516z"/>
	</g>
</g>
</svg>
