<?xml version="1.0" encoding="utf-8"?>
<!-- Generator: Adobe Illustrator 25.4.1, SVG Export Plug-In . SVG Version: 6.00 Build 0)  -->
<svg version="1.1" id="Laag_1" xmlns="http://www.w3.org/2000/svg" xmlns:xlink="http://www.w3.org/1999/xlink" x="0px" y="0px"
	 viewBox="0 0 1050 1050" style="enable-background:new 0 0 1050 1050;" xml:space="preserve">
<style type="text/css">
	.st0{display:none;}
	.st1{clip-path:url(#SVGID_00000133517981536567528670000017467480572656430738_);}
	.st2{fill:#FF0540;}
	.st3{fill:url(#SVGID_00000155104686862771095950000007493575292791148672_);}
	.st4{fill:#FFFFFF;}
	.st5{fill:#153213;}
	.st6{fill:url(#SVGID_00000059311644442324982260000004564747225428146308_);}
</style>
<g id="Kleuren" class="st0">
</g>
<g id="PNG" class="st0">
</g>
<g id="Shirt">
</g>
<g>
	<defs>
		<circle id="SVGID_1_" cx="525" cy="525" r="525"/>
	</defs>
	<clipPath id="SVGID_00000093163330340853121090000006465939909166844832_">
		<use xlink:href="#SVGID_1_"  style="overflow:visible;"/>
	</clipPath>
	<g id="Back" style="clip-path:url(#SVGID_00000093163330340853121090000006465939909166844832_);">
		<rect class="st2" width="1050" height="1050"/>
	</g>
	<g id="Face" style="clip-path:url(#SVGID_00000093163330340853121090000006465939909166844832_);">
		<g>
			<g>
				
					<linearGradient id="SVGID_00000044879211387361524880000010348410765415176383_" gradientUnits="userSpaceOnUse" x1="77.8" y1="343.2106" x2="935.7" y2="343.2106" gradientTransform="matrix(1 0 0 -1 0 1050)">
					<stop  offset="2.149415e-03" style="stop-color:#B2471F"/>
					<stop  offset="0.2638" style="stop-color:#AF4820"/>
					<stop  offset="0.4915" style="stop-color:#A44A24"/>
					<stop  offset="0.7065" style="stop-color:#924D2B"/>
					<stop  offset="0.9126" style="stop-color:#795235"/>
					<stop  offset="1" style="stop-color:#6C543A"/>
				</linearGradient>
				<path style="fill:url(#SVGID_00000044879211387361524880000010348410765415176383_);" d="M347.2,659.7
					c13.1,5.6,26.1,5.3,38.8-1.7c2.4-1.3,3.1-2.6,1.9-5.2c-2.1-4.6-3.8-9.5-5.7-14.2c-4.7-11.7-5-24.7-11.3-36.1
					c-1.7-3.1,1.5-8.8,2.4-13.1c-0.7,0.6-1.5,1.8-2.7,2.2c-2,0.7-4.2,0.9-6.2,1.4c0.1-2.1,0.2-4.2,0.2-6.3c0.1-1.9,0.7-4,0.2-5.7
					c-2.3-7.3-5.2-13.9-12.2-18.5c-4.7-3-7.6-8.7-12-12.3c-17.1-14.2-29.3-12.4-42.1,0.8c-3.6,3.7-6.1,9.7-6.7,14.9
					c-0.8,7.2-0.9,15.3,1.4,22c4.3,12.8,10.2,25.1,16,37.3C317.1,641.9,330.7,652.6,347.2,659.7z M360.2,645.5
					c-3.3-0.7-6.7-1.7-9.4-3.5c-11.5-7.6-21.8-16.6-30.1-27.9c-4.2-5.8-6.6-12.1-6.2-19.3c1.5,4.3,2.1,9,4.5,12.7
					c9.9,15.3,24,25.1,41.6,29.8c2.9,0.8,5.6,2,8.8,3.1C366.9,644.4,364,646.3,360.2,645.5z M324.1,565c3.6,1.8,7.2,3.8,10.7,6
					c11,6.9,21.2,14.8,28.3,26c2.8,4.4,5.7,8.6,0,13.4c-2.3,1.9-1.9,5.1,0.7,7.1c2.4,1.8,5.1,3.4,7.7,5c4.5,2.7,6.9,6.4,5.7,11.8
					c-0.6,3-1.1,6.1-2.5,8.8c-1.2,2.2-3.6,3.8-5.4,5.7c-0.2-0.4-0.3-0.7-0.5-1.1c1.4-4,2.9-8,4.5-12.6c-10.3-0.9-18.2-5.1-25.2-10.9
					c-4-3.3-7.3-7.1-7.7-12.7c-0.5-8.1,2.6-12.6,11.3-15.9c-10.8-14.3-24.2-25.2-38.7-35.3C316.7,561.8,320.5,563.3,324.1,565z
					 M307.3,562.7c0.8-0.4,3.9,1.3,3.9,2.2c0.3,4.1-1.7,6.6-6.4,6.9C302.6,567.6,303.6,564.5,307.3,562.7z M800.6,575.4
					c-0.7,4.4-0.1,9-0.1,15c1.3-1.8,1.7-2.1,1.8-2.5c5.9-20.8,10.4-41.8,10.9-63.5c0.1-4.6-1.1-9.2-1.9-14.6
					c-11.8,6.4-17.8,27.5-12.4,39.3C802.9,557.7,802,566.5,800.6,575.4z M807.7,503.1c-2.4-0.8-5.1-2.6-7.5-2.2
					c-3.1,0.5-3.9,6.8-2.9,10.2C800.1,509,803.5,506.3,807.7,503.1z M346.9,606.5c-2.2,2.8-2.6,6.1-0.4,9
					c6.5,8.6,15.5,12.9,26.3,14.4c-7.5-5.2-19.7-7-13.8-21.2c-1.7-0.9-3-1.7-4.3-2.3C352.1,605.2,349.3,603.4,346.9,606.5z
					 M399.3,742.2c-1.3-7.4-2.4-13.6-3.5-19.9C393.2,729.3,391.5,736.1,399.3,742.2z M257.7,975.6c-5.1-8.6-11.7-16.3-16.6-24.9
					c-7.7-13.4-16-26.3-27.5-36.8c-1.7-1.6-4.5-3.2-6.7-2.9c-4.8,0.5-9.4,2.2-14.1,3.5c-26.3,7.2-46.8,23.5-65.1,42.8
					c-26.2,27.5-43.4,59.7-49.9,97.4h24.5c-2.4-32.5,7.4-61,26.8-86.6c0.4,0.2,0.8,0.4,1.2,0.5c-1.2,1.8-2.5,3.6-3.7,5.4
					c-12,18.4-20.1,38.1-19.8,60.4c0.1,6.7,1.1,13.5,1.7,20.2H290c-0.6-1.9-1.4-3.8-1.9-5.8C281.5,1022.9,271.3,998.6,257.7,975.6z
					 M396.1,654.2c3.7,9.4,7,19.1,9.3,28.9c2.2,9.6,2.9,19.5,4.3,29.3c4.5,32.4,13.7,62.9,32.3,90.4c13.7,20.2,30.7,35.8,54.1,43.7
					c29.5,9.9,59,19.6,88.6,29.2c10.7,3.5,21.3,7.3,32.3,9.4c16.8,3.2,33.9,2.5,50.8,0.8c2.9-0.3,6-1.6,8.4-3.2
					c12.1-8.2,23.4-17.4,32.2-29.4c11.7-16,25.7-29.9,40.4-43.1c5.9-5.3,12.1-10.4,17.2-16.5c23.3-27.3,34.4-60.2,41.8-94.6
					c1.8-8.1,2.6-16.5,2.9-24.7c0.8-22.6-4.5-44.2-12-65.3c-4.6-13.1-7.8-26.4-8-40.3c-0.6-32.3-0.8-64.6-2.3-96.8
					c-1.6-34.7-12.9-66-35.4-92.9c-1.4-1.7-3.5-3.4-3.8-5.3c-1-6.4-5.6-7.3-10.7-8.2c-8.4-1.4-16.3-4.7-22.2-10.6
					c-3.5-3.5-7.1-4.8-11.6-5.2c-3-0.2-6.1-0.5-9-1.3c-14.3-4-28.6-8.2-42.9-12.3c-0.9-0.3-2,0-3-0.1c-10.7-0.5-21.3-1.1-32-1.3
					c-3.8-0.1-8,0.1-11.2,1.7c-8.2,4.1-16.6,5.5-25.6,5.1c-5-0.2-10.3,0.4-15,2c-8.5,2.8-16.6,6.9-25.1,9.9c-3.5,1.3-8,2.7-11.2,1.6
					c-9.2-3.2-17.2,2.5-25.8,2.3c-3.2-0.1-6.4,0.8-9.7,1.3c-10.1,7.5-10.6,8.2-13.9,6.4c-7-3.9-7.8,8.2-14.2,4.9
					c-0.5-0.2-1.5,0.3-2.1,0.8c-4,3.2-6.4,6.7-6.7,12.4c-0.4,7.5-2.1,8.2-9.6,7.1c-0.8-0.1-1.7-0.2-2.5-0.5c-10.7-3.6-21-0.9-31.7,2
					c0,1.9,0.1,3.9,0,5.9c-0.1,1.9-0.5,3.7-0.8,5.6c-1.7-0.9-3.6-1.6-5.2-2.8c-3.2-2.3-6.1-4.8-9.2-7.3c-0.5,0.4-1,0.8-1.4,1.2
					c1.4,2.8,2.8,5.6,4.3,8.3c4.3,7.7,8.9,15.2,13.1,23c1.6,3,2.1,6.2-3.2,6c-0.7,0-1.4,1.1-1.7,1.3c2.3,1.9,4.1,3.3,5.8,4.8
					c-1.4,1.6-2.9,3.2-5,5.5c9.5,18.1,19.3,36.9,29.2,55.8c-2.1-1.4-3.4-3.1-4.4-5.1c-8.8-16.5-17.5-33-26.4-49.5
					c-0.8-1.4-2.2-3.2-3.5-3.4c-2.8-0.5-5.8-0.3-8.6,0c-2.7,0.3-4.3,1.6-3.7,4.8c1.1,5.7,1.9,11.4,3,17c0.8,4.2,1.9,8.3,2.6,12.5
					c0.6,3.3-0.5,5.1-4.2,3.6c-0.8-0.3-1.7-0.5-3.1-0.9c3.3,8.9,4.1,17.4,2.4,26.2c-2.8,14.9-2.2,29.5,5.6,43c2,3.4,2.5,6.7-1.3,9.4
					c-0.2,0.1-0.1,0.6-0.2,1.2c1.2-0.4,2.3-0.8,3.5-1.1c-3.2,6.1-7,11.5-11.4,16.3c-5.8,6.3-9.6,12.9-8.3,21.9
					c0.4,2.5-0.3,7-1.6,7.5c-5.3,2.1-3,5.4-1.9,8.1C383.7,625.2,390.3,639.5,396.1,654.2z M502.4,627.8c-8.9,0.6-17.7,2-26.8,2.1
					c6-1.5,11.9-3.9,18-4.5c15.5-1.5,31.1-2.3,46.7-3.2c10.4-0.6,15.5-2.9,23.6-12c-16.5,4.7-32.4,5.4-48.3,3
					c-13.8-2.1-26.1-7.3-35.3-18.4c-2.3-2.8-2.6-4.6-0.1-7.3c13.3-14.4,29.2-24.5,48.6-27.7c10.3-1.7,21.1-2.3,31,2.4
					c8.6,4.2,14.2,11.3,16.6,20.8c1.2,4.8,3.2,9.4,4.6,14.2c0.5,1.9,0.3,4,0.5,6c-0.5,0.1-1,0.2-1.4,0.3c-2-2.7-3.9-5.5-5.9-8.2
					c-0.4,0.2-0.8,0.3-1.3,0.5c0.2,1.6-3.6,4.3,1.9,4.7c2.3,12.8-8,17-16.7,23.1c8.7,3.1,16.7,6,24.8,8.9c-0.2,0.8-0.5,1.6-0.7,2.4
					c-8.5-2-17-4.5-25.6-5.7c-9-1.3-18.2-1.8-27.4-2C520.4,626.9,511.4,627.2,502.4,627.8z M475.1,582.9
					c3.7-7.9,11.1-12.6,17.6-17.8c-5.5,6.3-10.9,12.6-16.4,18.9C475.9,583.6,475.5,583.3,475.1,582.9z M480.1,596.9
					c4.2,3.7,8.4,7.3,13.1,11.4C486.9,608,480.3,602.7,480.1,596.9z M529.6,548.4c11.3-0.9,22.6-3.2,33.9,1.2
					c12.4,4.8,17,14.6,19.3,26.6c0.7,3.5,2.5,6.9,4.4,9.9c2.5,4,2.5,6.9-1.7,11.8c-2.9-6.7-5.7-12.9-8.2-19.1
					c-0.7-1.7-0.6-3.7-0.8-5.5c-1.9-18.4-14.6-22.7-27.9-23.9C542.3,548.8,535.9,549.3,529.6,548.4z M665.8,850.2
					c-5.4,0.5-9.2,3.2-11,8.4c-0.8,2.2-3.1,5.5,0.6,6.3c2.6,0.6,5.8-1.3,8.6-2.4c0.9-0.4,1.4-1.9,2-2.8c0.6,0.5,1.8,1.1,1.8,1.4
					c-0.2,1.2-0.6,2.8-1.4,3.5c-1.7,1.4-3.7,3-5.6,3.1c-3,0.2-6.7,0-8.7-1.7c-1.3-1.1-0.8-5.4,0.1-7.8c3.5-9.3,11.5-12.3,24.7-8.8
					C672.1,849.6,668.9,849.9,665.8,850.2z M718.8,747.9c-6.3,13.8-12.5,27.7-23,38.8c-5.5,5.9-12.7,10.9-20.1,14.3
					c-11,5.1-22.8,6.8-35.2,5.9c-17.4-1.4-34.5-4.2-50.7-10.5c-14.1-5.4-26.9-13.3-33.8-27.7c-1.9-3.9-2.9-8.2-4.8-13.8
					c-1.8,3-2.9,5-4.3,7.5c-3,0.3-4.8-1.4-4.6-4.9c0.2-4.1,3.8-7.7,7.3-6.8c6.9,1.7,12.9,0.5,19.4-2.4c15.8-7,31.8-13.9,49.3-15.7
					c6.9-0.7,13.8-1.4,20.7-1.5c14.7-0.3,28.9-2.8,43-7.1c8.7-2.6,18-5.3,26.8-0.5c4.3,2.3,7.6,6.5,11.3,9.9
					c0.4,0.4-0.1,1.7-0.1,2.6l0.1-0.1C721.9,740.1,720.7,743.9,718.8,747.9z M729,745.6c-0.5-0.1-0.9-0.3-1.4-0.4
					c-0.3-3.7-0.7-7.4-0.8-11.1c-0.1-6.7-2.7-12.1-8-16.2c-0.7-0.6-1.5-1.6-1.5-2.5c-0.5-5.5-0.8-11.1-0.9-16.8
					c1.4,5,2.8,10,4.4,15.4c7,1.6,11,6.9,12.3,14C734.1,734.3,733.6,740.7,729,745.6z M696.6,626.2c9.6-20.1,56.2-35.3,71.3-22.3
					C740.4,601.3,715.9,605.5,696.6,626.2z M689.9,598c6,3.3,12,6.5,18.3,9.9C700.4,611.9,694,608.7,689.9,598z M757.7,585.1
					c2.3-6.5,4.3-12.2,6.6-19.1C767.1,572,764.3,579.3,757.7,585.1z M782.4,488.3c0.7,0,1.3,0.1,2,0.1c-0.9,8.7-1.9,17.4-2.8,26.1
					c-0.7-0.1-1.5-0.2-2.2-0.2C780.4,505.7,781.4,497,782.4,488.3z M701.3,431.1c0.5,0.1,0.9,0.2,1.4,0.4
					c-2.4,5.8-4.8,11.5-7.2,17.3c-0.4-0.2-0.8-0.3-1.2-0.5C696.6,442.6,698.9,436.9,701.3,431.1z M693.2,484.1
					c12.2-0.7,24.4-1.6,36.6-1.7c15.1-0.1,28.7,4.6,40.3,14.6c1,0.9,2.1,1.6,4,3c1.7-37.7-7.6-72-20.7-105.7
					c4.3,2.9,15.1,32.2,19.6,53.4c4,19,5,38.2,3.7,57.9c-0.7,0.2-1.9,0.6-2.5,0.8c-5.1-6.1-11.5-9.6-18.5-11.9
					c-11.3-3.7-22.5-3.3-34,0.1c-8.7,2.6-17.9,3.7-27,5c-5.6,0.8-9.6-2.2-10-6.9C684.2,488.2,687.6,484.5,693.2,484.1z M684.8,531
					c-2,9.9-4.6,20.1-6.1,30.4c-1.4,10.4-1.7,20.9-1.5,31.4c2.3-2.8,4.7-5.5,6.7-8.4c0.8-1.2,1-3.1,1-4.7
					c0.1-13.6,4.4-25.9,12.8-36.3c12.1-15,36.6-13.4,50.7-3.2c2.5,1.8,5,3.5,7.6,5.1c5.5,3.3,5,9.3,5.4,14.1
					c1.5,18.5-15.7,34.9-31.1,36.1c-10.8,0.8-21.3,1.9-31.3-1.3c-0.8,1.6-1.7,4.1-2.2,4.1c-2.1-0.4-4.1-1.5-7-2.7
					c-0.5,0.2-2.1,0.9-4,1.7c-1.7-3.9,0.9-5.9,3.1-7.4c4.1-2.7,5.6-6.1,6.1-11c1.4-13.2,7-24.2,18.6-31.8c11.7-7.6,23.4-7.9,36.6-2
					c-1.1-1.4-1.6-2.3-2.4-2.9c-12-8-29.5-11-42.7-1.8c-9.4,6.6-12.9,16.8-15,27.4c-0.8,4.4,0.3,9.1,0,13.6
					c-0.1,2.4-1.1,4.9-2.3,6.9c-1.3,2.3-3.2,4.4-5.2,6.2c-1.2,1.1-2.9,1.6-5.3,2.9v6.3C668.5,591.8,675.6,545.2,684.8,531z
					 M681.2,650.8c-8.2-4.9-7.6-13.1-10-19.6C674.4,637.4,677.5,643.6,681.2,650.8z M672.9,696.7c0.7-6.5,6.7-9.3,12.3-11.6
					c4.9-2,9.3-1.7,12.8,4c2.2-2.3,3.8-3.9,5.5-5.7c0.3,8.5-9.9,18.9-18.4,16.8c3.7-3.6,6.7-6.6,10.6-10.3c-2.2-0.5-4-1.5-5.6-1.3
					c-7.3,0.9-12.8,6.2-14.9,11.8c-2.6,7-7.1,8.3-12.9,9.4c-1.5,0.3-3,0.4-4.7,0.5v5.5c-5.1-1.2-3.2-5.1-3.2-7.8c0-1,2.6-2.5,4.2-3
					c2.2-0.6,4.8-0.2,7.1-0.8C669.6,703.3,672.3,701.9,672.9,696.7z M667.7,680.3c-6.4,5-17.2,2.5-24.5-5.5
					C650.8,676.4,659.3,678.4,667.7,680.3z M646,693.8c1.3,0.8,2.8,1.8,3.3,3c0.5,1.3,0.5,3.8-0.4,4.5c-5.4,4.4-16,2.1-18.9-4.3
					c-1.5-3.2-3.4-3.1-5.6-2.1c-2.9,1.4-5.6,3.3-8.4,4.9c0.7-1.5,1.1-3.3,2.2-4.2C625.6,689.7,637.9,688.9,646,693.8z M631.1,646.1
					c-2.6,1.9-5.2,3.7-7.8,5.6c0.3,0.6,0.6,1.2,0.9,1.8c2-0.4,4.1-0.8,6.1-1.2c0.1,0.3,0.3,0.5,0.4,0.8c-1.8,0.6-3.6,1.6-5.4,1.8
					c-1.1,0.1-3.2-0.6-3.4-1.3c-0.3-1.2,0.2-3.2,1.1-3.9C625.3,647.9,628,646.5,631.1,646.1z M622,572c-2.9-9.8-5.8-19.6-8.6-29.1
					C618.2,546.8,622.7,560.1,622,572z M599.7,500.9c0.1,0,0.2,0,0.3-0.1c0.5,7.6,1,15.2,1.5,22.8c-0.6,0-1.2,0.1-1.8,0.1V500.9z
					 M606.4,663.7c-3,6.2-7.5,12.7-5.1,20.5c2.3,7.4,6.8,13.1,14.4,15.9c0.5,3.4-2,2.9-3.8,2.5c-8.5-2-15.8-5.4-18.3-14.8
					c-0.3-1.3-0.8-2.5-1-3.3c-6.9,6.3-13.3,13-20.6,18.6c-5.4,4.2-12.1,6.7-18,10.3c-1.9,1.1-4,2.8-4.7,4.7
					c-4.6,13.3-8.8,26.7-13.1,40.1c-0.5,1.7-1,3.4-1.5,5.1c-0.5,0-1,0-1.5,0c-0.2-2.9-1-5.8-0.6-8.5c2.2-14.9,6.9-29.2,15.1-41.8
					c3.1-4.7,8.8-7.8,13.4-11.5c8.2-6.6,16.4-13.1,24.5-19.7c1.3-1,2.2-2.6,3.2-3.9C593.8,671.9,596.2,663.2,606.4,663.7z
					 M592.2,412.5c0.6,0.3,1.2,0.6,1.8,0.9c-5.1,10.6-10.3,21.2-15.4,31.8c-0.4-0.3-0.8-0.5-1.2-0.8
					C582.3,433.8,587.3,423.1,592.2,412.5z M424,458.5c-2.3-6.3-2.4-13.5-2.6-20.5c8,36.3,27.8,65.9,51.4,95.7
					c2.5-3.1,4.2-5.6,6.3-7.7c10-10.3,22.9-15.6,36-20.6c22.3-8.6,45.8-11.1,69.3-13.9c1.3-0.2,2.6,0.2,5.1,0.4
					c-2.7-6.2-5.1-11.6-7.4-16.9c0.5-0.2,1-0.4,1.6-0.6l12.4,29.8c-0.5,0.2-1,0.4-1.4,0.6c-1-2.1-2-4.1-3.2-6.7
					c-3.8,6.2-9.5,7.8-15.8,8.4c-19.8,1.9-39.6,4-59.3,6c-13.5,1.4-25.2,6.8-35.1,16c-6.2,5.8-6.2,5.8-1.4,12.6c-2-1.3-4-2.5-6.3-4
					c-2.8,3.4-5.4,6.6-8.1,9.8l-0.9-0.5c1.5-2.8,2.7-5.7,4.6-8.3c1.7-2.4,1.6-3.8-0.5-6C447.8,511.1,434,485.8,424,458.5z
					 M391.3,623.6c0.4,4.5,0.7,9.1,1.1,13.6C388.3,633,384.9,628.9,391.3,623.6z M386.5,602.5c-0.8,2.4-1.4,3.8-1.7,5.2
					c-0.8,3.6-0.6,6.5,4.4,6.2c1-0.1,2.1,1,2.8,2.2c-3.8-0.1-8.1,3.8-10.8-1.4C379.4,611.2,381.6,606,386.5,602.5z M703.6,941.8
					c-9.3-14.4-19.9-27.9-30.3-41.6c-1.2-1.5-3.9-2.7-5.9-2.7c-8.9,0.2-17.7,0.8-26.7,1.3c-1.1,10.6-2.1,20.9,1.5,32.3
					c8-8.5,15.3-16.2,22.6-23.9l1.4,1.2c-6.1,7.8-12.1,15.7-18.4,23.4c-1.8,2.1-4.5,3.5-6.9,5c-0.7,0.4-2-0.1-2.6-0.2
					c0.4-2.6,1.6-5,0.8-6.4c-5-8.9-6.2-18.6-6.2-28.6c0-2.5,0.2-4.7-3.2-5.2c-3.8-0.6-3.6,2.1-4.1,4.3c-4.6,20.6-9,41.2-13.9,61.7
					c-3.2,13.4-7.2,26.6-10.9,39.9c-0.5-0.1-1-0.2-1.5-0.4c7.4-35.3,14.8-70.6,22.2-105.8c-6.4,10-12.7,19.8-19.1,29.6
					c-2.5,3.9-5.7,5.9-10.9,6.6c-15.3,2.2-30.5,2.1-45.8,1.9c-14.7-0.2-27.5-4.8-39.2-13.7c-17.3-13.1-35-25.8-52.6-38.7
					c-5.3-3.9-10.7-7.7-16.1-11.5c-0.4,0.4-0.8,0.9-1.2,1.3c2,2.1,3.8,4.6,6.1,6.3c11.6,8.6,23.3,17,34.8,25.7
					c1.8,1.4,3.2,3.7,4.2,5.8c4.8,10.8,9.5,21.6,14,32.6c0.4,1.1-0.8,2.8-1.3,4.4c-2.6-2.9-4.1-5.5-6.3-7
					c-17.1-11.7-34.4-23.1-51.6-34.7c-2.2-1.5-4.3-3-6.4-4.6c-0.3,0.4-0.6,0.7-0.8,1.1c15.7,18.1,38.4,28.6,53.1,47.9
					c-4-2.3-7.6-5.2-11.3-7.9c-13.6-9.7-27.2-19.2-40.7-29c-3.2-2.3-7.9-4.2-5.7-9.9c0.2-0.6-0.8-1.7-1.4-2.6
					c-8-12.8-16.1-25.6-24.1-38.5c-0.6-0.9-1-2-1.4-3c0.2-0.1,0.4-0.2,0.6-0.3c7.9,11.4,15.7,22.7,23.6,34.1
					c0.5-0.2,0.9-0.5,1.4-0.7c-3.6-18.7-4.1-38.3-18.7-53.7c0.6-0.2,1.2-0.5,1.8-0.7c2.7,3.6,5.4,7.2,8.5,11.4
					c0.3-9.9-1.8-17-6.1-23.5c-4-6.1-7.8-12.4-11.6-18.6c-0.6-1-0.9-2.1-1.3-3.2c0.2-0.1,0.5-0.2,0.7-0.3
					c4.4,5.3,8.7,10.6,13.1,15.9c-0.2-6.6,0.5-13-3.9-18.5c-3.7-4.6-6.8-9.8-10-14.7c-0.6-0.9-0.8-2.2-1.1-3.2
					c0.3-0.1,0.6-0.3,0.9-0.4c3.5,3.9,6.9,7.7,10.4,11.6c-0.9-13.6-2.3-26.6-4.9-39.4c-1-5.1-4.4-9.8-6.7-14.6
					c-0.6,0.2-1.3,0.4-1.9,0.5c-0.9,4.2-2,8.3-2.7,12.5c-2.6,14-4.8,28.1-7.7,42.1c-3.6,17.4-12.3,32.1-26.1,43.3
					c-12.2,9.9-24.9,19.3-37.7,28.3c-7.3,5.2-15.4,9.2-23.4,14c1.2,1.5,2.2,2.8,3.2,4.1c13.3,18.7,26.6,37.3,39.8,56.1
					c8.8,12.7,17.1,25.7,26,38.3c9.9,14.2,21,27.7,30.1,42.4c5.6,9.1,12.9,13.1,22.6,13.9c6.2,0.5,12.5,0,18.8-0.5
					c5.4-0.4,10.8-1.4,16.2-1.9c33-2.8,66.1-4.5,98.3-13.4c13.4-3.7,27.4-5.1,40.7-9.2c31.1-9.4,61.9-19.7,92.7-29.8
					c6.7-2.2,13.2-5.4,19.6-8.6c3.7-1.8,7.6-4.6,6.7-9.3C708.1,955.1,707.2,947.4,703.6,941.8z M412.3,896.4
					c6.7,8.1,13.5,16.2,20.2,24.3C422.4,915.5,417.4,905.8,412.3,896.4z M467.3,954.7c-7.7-6.3-15.4-12.5-23.1-18.8
					c0.4-0.5,0.9-1,1.3-1.5c7.5,6.5,15,12.9,22.6,19.4C467.8,954.1,467.5,954.4,467.3,954.7z M901.4,973.4l-2.2-34.8l-19.1-69
					l-19.6-48.2l-14.4-20.9l-25.4-16.1l-38.1-9l-51,66.2l57.8,107.7l35.3,129.5l111-14C934.5,1060.3,901.4,973.4,901.4,973.4z"/>
			</g>
		</g>
	</g>
	<g id="Teeth" style="clip-path:url(#SVGID_00000093163330340853121090000006465939909166844832_);">
		<path class="st4" d="M626,757.9c-6.8,0.4-13.7,0.7-21.5,1.1c1.2-1.1,1.6-1.7,2.1-1.8c13.8-3.8,27.6-7.8,42.1-4.7
			c8.1,1.7,14.8-2.7,22.1-4.5c6.7-1.6,13.3-3.7,20.3-5.7c0.9,3.6,2.3,6.7,2,9.7c-0.2,2-2.3,4.8-4.2,5.6c-6.2,2.7-12.6,5.1-19.1,6.8
			c-15.1,3.9-30.3,8.5-46.1,7.1c-9.5-0.8-18.9-3.7-28.2-5.8c-1.1-0.3-1.9-1.9-2.5-3.5c11.9,4.5,22.3-0.7,33.1-3
			C626.1,758.7,626.1,758.3,626,757.9z"/>
		<g id="Eyes">
			<path class="st4" d="M532.3,612.3c-8.8-1.6-17.6-3.3-26.4-4.6c-6.9-1-9.6-6.2-11.5-11.6c-2.9-8.2-1.2-20.2,10.2-25.2
				c14.1-6.2,28.2-10.2,43.8-9.1c13.7,1,25.9,18.2,23.4,29.4c-2.9,12.9-7.3,17.8-20.5,18.8c-6.2,0.5-12.5,1-18.7,1.5
				C532.5,611.7,532.4,612,532.3,612.3z M532.1,591.4c4.2,4.5,8.6,7.8,15.2,5.6c4.8-1.6,7.1-5.1,7.2-10c0.1-7.7-4.7-11.3-12.6-12.7
				c3.7-0.3,6.3-0.5,8.9-0.7c0-0.6,0.1-1.2,0.1-1.7c-3.3-1.1-6.7-2.1-11.1-3.6c12.2-2.1,21.5,9.2,19,20.7c-0.5,2.4,0.1,5.1,0.2,7.7
				c6.6-10.3,4.3-21.2-4.4-27.8c-8-6.1-19.6-5.8-27.4,1.6c2.9-0.2,4.9-0.3,7-0.4c4.8,8.7-0.2,12.1-10.1,17c-1.3-0.8-2.7-1.7-4.2-2.7
				c-0.5,10.3,4,18,12,21.5c8.7,3.8,17.6,2.3,23.8-4.5c-2.7,0.1-5.4,0.6-7.8,1.5c-5.7,2.1-11.2,4.2-16.4-2.7c2.5-0.6,4.6-1,6.7-1.5
				C536,596.3,534,593.8,532.1,591.4z"/>
			<path class="st4" d="M731.6,557.8c7.3,5.5,6,12.7,6.2,19.6c3.7-6.9,2.8-13.5-1-19.6c-4.7-7.6-11.9-9.5-21.4-7.2
				c1.3-1.5,1.7-2.3,2.3-2.8c10.3-6.9,25.4-6.6,34.9,1.3c2.1,1.7,3.6,5.1,3.9,7.8c1.7,15-8.3,30.9-23.7,34.5
				c-9.2,2.1-18.3,3.8-27.7,1.8c-2.9-0.6-5.8-1.5-8.4-2.2c1.8-5.9,3.5-11.3,5.3-17.3c3.2,8.5,8.7,14,18,14.7
				c5.3,0.4,10-1.1,14.1-5.3c-4.3-1.4-3-3.9-1.6-6.9c-2.6,8.4-8.1,8.7-15.4,5.4c1.9-1.1,3.8-2.5,5.9-3.2c4-1.2,6.6-3.6,7.3-7.6
				c0.9-5.1-1.6-8.4-7.2-11C726.8,559.5,730.5,563.7,731.6,557.8z"/>
			<path class="st4" d="M707.3,570.5c-0.4-13.8,0.3-15.3,7.4-16.5C720.5,561.7,717.5,568.8,707.3,570.5z"/>
		</g>
		<g id="Iris">
			<path class="st5" d="M721.2,555.6c0,0.7,0,10.5,0,10.5l-7.7,15l6,4l9.2-1.2l2.8-4.7l0.2-4.8l4.2-1.5l2,1.7l1.2-7.2l-4.5-9.2
				l-4.5-6L721.2,555.6z"/>
			<path class="st5" d="M553.2,594.9c0-3.2-1.1-1.4,2.1-1.4c1.7,0,3.6-2.6,4.7-1.4l1.3-4.1l-1.5-10.2l-6.7-8.5l-8.5-3.7
				c0,0-10.5,1.7-11.2,2l6.5,9l-0.5,6.7l-12.7,6.5l-0.2,9.2l7.5,7l12-0.7l6.7-2l1.7-1.8C551.7,600.8,553.2,597.6,553.2,594.9z"/>
		</g>
		<g id="Mond">
			<path class="st2" d="M716,744c-6.3,12.5-12.2,25.2-19,37.4c-1.7,3.1-6.2,5.7-9.8,6.4c-19.9,4.1-39.4,10.7-60,10.5
				c-21.2-0.2-40.7-5.8-57.5-18.8c-6.1-4.7-11.4-10.9-13.7-19.3c2.6,1.1,5.2,2.1,7.7,3.3c5.2,2.4,10.2,2.8,15.8,0.9
				c2.1-0.7,5,0.4,7.3,1.2c3,1.1,5.6,3,8.6,4.2c19.3,7.5,38.9,8.4,58.9,3.3c10-2.5,20.1-5.1,30.1-7.7c11-2.8,18.6-9.1,22.3-20.2
				c0.6-1.8,4.9-2.4,7.5-3.5C714.6,742.5,715.3,743.2,716,744z"/>
			<path class="st2" d="M719.9,735.8c-6.1,3.9-13,4.1-19.7,3.4c-10.4-1.1-19.8,2.3-29.4,5c-5.2,1.4-10.1,3.9-15.3,5.3
				c-2.2,0.6-4.8-0.6-7.2-1.1c-17-4.1-33.1,0-48.8,5.7c-11.5,4.2-22.6,2.6-34.1-1.3c4.8-1.9,9.5-3.7,14.3-5.7
				c5.6-2.3,11-5.4,16.8-7.1c9.1-2.6,18.4-5.2,27.7-6c18.7-1.6,37.6-2.1,56-6.4c5.1-1.2,10.3-1.5,15.5-2.3c7.7-1.1,13.9,1.7,19.3,7
				c1.4,1.4,3.2,2.5,4.8,3.7C719.9,735.9,719.9,735.8,719.9,735.8z"/>
		</g>
	</g>
	<g id="Outline" style="clip-path:url(#SVGID_00000093163330340853121090000006465939909166844832_);">
		<g>
			<g>
				
					<linearGradient id="SVGID_00000021119640630248085320000009963230717407567268_" gradientUnits="userSpaceOnUse" x1="132.2499" y1="-62.1501" x2="923.0999" y2="728.7001" gradientTransform="matrix(1 0 0 -1 0 1050)">
					<stop  offset="2.149415e-03" style="stop-color:#3329FF"/>
					<stop  offset="4.163915e-02" style="stop-color:#3027EE"/>
					<stop  offset="0.1629" style="stop-color:#2920C0"/>
					<stop  offset="0.2886" style="stop-color:#221B98"/>
					<stop  offset="0.4171" style="stop-color:#1D1778"/>
					<stop  offset="0.5492" style="stop-color:#19135F"/>
					<stop  offset="0.6864" style="stop-color:#16114D"/>
					<stop  offset="0.8319" style="stop-color:#150F42"/>
					<stop  offset="1" style="stop-color:#140F3F"/>
				</linearGradient>
				<path style="fill:url(#SVGID_00000021119640630248085320000009963230717407567268_);" d="M764.3,566c-2.4,6.8-4.4,12.6-6.6,19.1
					C764.3,579.3,767.1,572,764.3,566z M432.5,920.7c-6.7-8.1-13.5-16.2-20.2-24.3C417.4,905.8,422.4,915.5,432.5,920.7z
					 M102.3,1054.6c2,0,4.1,0,6.1,0c-0.6-6.7-1.6-13.5-1.7-20.2c-0.3-22.3,7.9-42,19.8-60.4c1.2-1.8,2.5-3.6,3.7-5.4
					c-0.4-0.2-0.8-0.4-1.2-0.5C109.7,993.5,99.9,1022.1,102.3,1054.6z M731.5,579.1c0.4-0.8,0.8-1.8,1.2-2.9
					C732.2,577.3,731.7,578.2,731.5,579.1z M708.2,607.9c-6.3-3.4-12.3-6.7-18.3-9.9C694,608.7,700.4,611.9,708.2,607.9z M658.7,705
					c-1.6,0.5-4.2,1.9-4.2,3c0,2.6-1.9,6.6,3.2,7.8c0-2,0-3.6,0-5.5c1.7-0.2,3.2-0.3,4.7-0.5c5.7-1.1,10.3-2.3,12.9-9.4
					c2.1-5.6,7.6-10.9,14.9-11.8c1.6-0.2,3.4,0.8,5.6,1.3c-3.9,3.8-6.9,6.7-10.6,10.3c8.5,2.1,18.7-8.3,18.4-16.8
					c-1.7,1.8-3.3,3.5-5.5,5.7c-3.5-5.7-7.8-6-12.8-4c-5.7,2.2-11.6,5.1-12.3,11.6c-0.6,5.2-3.3,6.6-7.1,7.6
					C663.4,704.8,660.9,704.4,658.7,705z M681.2,650.8c-3.7-7.2-6.9-13.4-10-19.6C673.7,637.8,673.1,645.9,681.2,650.8z
					 M360.5,637.3c-17.6-4.7-31.7-14.5-41.6-29.8c-2.4-3.7-3-8.4-4.5-12.7c-0.4,7.3,2,13.6,6.2,19.3c8.3,11.2,18.6,20.2,30.1,27.9
					c2.7,1.8,6.2,2.8,9.4,3.5c3.8,0.8,6.7-1,9.1-5.1C366.1,639.2,363.3,638,360.5,637.3z M371.5,622.4c-2.6-1.6-5.2-3.1-7.7-5
					c-2.7-2-3-5.2-0.7-7.1c5.7-4.7,2.8-9,0-13.4c-7.1-11.2-17.3-19.1-28.3-26c-3.5-2.2-7-4.2-10.7-6c-3.6-1.8-7.4-3.2-11.1-4.8
					c14.6,10.1,27.9,21,38.7,35.3c-8.7,3.2-11.8,7.8-11.3,15.9c0.4,5.6,3.7,9.4,7.7,12.7c7,5.8,14.9,10,25.2,10.9
					c-1.7,4.6-3.1,8.6-4.5,12.6c0.2,0.4,0.3,0.7,0.5,1.1c1.9-1.9,4.2-3.5,5.4-5.7c1.4-2.6,1.9-5.8,2.5-8.8
					C378.4,628.9,376,625.1,371.5,622.4z M346.5,615.4c-2.2-2.9-1.8-6.1,0.4-9c2.4-3.1,5.2-1.3,7.8-0.2c1.4,0.6,2.7,1.4,4.3,2.3
					c-6,14.2,6.3,16,13.8,21.2C362,628.4,353,624.1,346.5,615.4z M307.3,562.7c-3.8,1.8-4.7,4.9-2.5,9.1c4.7-0.2,6.8-2.8,6.4-6.9
					C311.2,564.1,308.2,562.3,307.3,562.7z M444.2,935.9c7.7,6.3,15.4,12.5,23.1,18.8c0.3-0.3,0.5-0.6,0.8-1
					c-7.5-6.5-15-12.9-22.6-19.4C445.1,934.9,444.7,935.4,444.2,935.9z M667.7,680.3c-8.4-1.9-16.9-3.8-24.5-5.5
					C650.4,682.7,661.2,685.2,667.7,680.3z M702.7,431.5c-0.5-0.1-0.9-0.2-1.4-0.4c-2.3,5.7-4.7,11.5-7,17.2
					c0.4,0.2,0.8,0.3,1.2,0.5C697.9,443,700.3,437.3,702.7,431.5z M389.2,613.8c-5,0.3-5.2-2.6-4.4-6.2c0.3-1.4,0.9-2.8,1.7-5.2
					c-4.9,3.5-7.1,8.8-5.3,12.2c2.7,5.2,7,1.3,10.8,1.4C391.2,614.9,390.2,613.8,389.2,613.8z M392.3,637.2
					c-0.4-4.5-0.7-9.1-1.1-13.6C384.9,628.9,388.3,633,392.3,637.2z M684.8,531c-9.2,14.1-16.4,60.8-7.4,73c0-2.8,0-5.2,0-6.3
					c2.4-1.3,4.1-1.8,5.3-2.9c1.9-1.9,3.8-3.9,5.2-6.2c1.2-2.1,2.1-4.6,2.3-6.9c0.3-4.5-0.9-9.2,0-13.6c2.1-10.6,5.6-20.9,15-27.4
					c13.2-9.2,30.7-6.3,42.7,1.8c0.8,0.5,1.3,1.5,2.4,2.9c-13.2-5.9-24.9-5.7-36.6,2c-11.7,7.6-17.2,18.6-18.6,31.8
					c-0.5,4.9-2,8.3-6.1,11c-2.2,1.5-4.8,3.4-3.1,7.4c1.8-0.8,3.5-1.5,4-1.7c2.9,1.2,4.9,2.3,7,2.7c0.5,0.1,1.4-2.5,2.2-4.1
					c10,3.2,20.5,2.2,31.3,1.3c15.4-1.2,32.6-17.7,31.1-36.1c-0.4-4.8,0.1-10.8-5.4-14.1c-2.6-1.6-5.1-3.3-7.6-5.1
					c-14.1-10.2-38.6-11.8-50.7,3.2c-8.4,10.4-12.6,22.7-12.8,36.3c0,1.6-0.1,3.5-1,4.7c-2,3-4.4,5.6-6.7,8.4
					c-0.2-10.6,0-21.1,1.5-31.4C680.2,551.1,682.8,540.9,684.8,531z M714.7,554c5.8,7.7,2.8,14.8-7.4,16.5
					C706.9,556.7,707.6,555.2,714.7,554z M756.5,556.9c1.7,15-8.3,30.9-23.7,34.5c-9.2,2.1-18.3,3.8-27.7,1.8
					c-2.9-0.6-5.8-1.5-8.4-2.2c1.8-5.9,3.5-11.3,5.3-17.3c3.2,8.5,8.7,14,18,14.7c5.3,0.4,10-1.1,14.1-5.3c-2.9-0.9-3.2-2.3-2.7-4.1
					c-2.9,5.5-7.9,5.4-14.2,2.6c1.9-1.1,3.8-2.5,5.9-3.2c4-1.2,6.6-3.6,7.3-7.6c0.9-5.1-1.6-8.4-7.2-11c3.6-0.4,7.3,3.9,8.4-2.1
					c7.3,5.5,6,12.7,6.2,19.6c3.7-6.9,2.8-13.5-1-19.6c-4.7-7.6-11.9-9.5-21.4-7.2c1.3-1.5,1.7-2.3,2.3-2.8
					c10.3-6.9,25.4-6.6,34.9,1.3C754.7,550.8,756.2,554.1,756.5,556.9z M720.7,714c-1.5-5.4-2.9-10.4-4.4-15.4
					c0.1,5.7,0.4,11.2,0.9,16.8c0.1,0.9,0.8,1.9,1.5,2.5c5.3,4.1,7.8,9.5,8,16.2c0.1,3.7,0.5,7.4,0.8,11.1c0.5,0.1,0.9,0.3,1.4,0.4
					c4.6-5,5.1-11.4,4-17.6C731.7,720.9,727.7,715.6,720.7,714z M630,697c2.9,6.4,13.5,8.7,18.9,4.3c0.9-0.7,0.9-3.2,0.4-4.5
					c-0.5-1.2-2-2.2-3.3-3c-8.1-4.8-20.4-4.1-27.8,1.9c-1.1,0.9-1.5,2.8-2.2,4.3c2.8-1.7,5.5-3.6,8.4-5
					C626.6,693.9,628.5,693.8,630,697z M621.9,653.6c0.1,0.7,2.3,1.4,3.4,1.3c1.9-0.2,3.6-1.2,5.4-1.8c-0.1-0.3-0.3-0.5-0.4-0.8
					c-2,0.4-4.1,0.8-6.1,1.2c-0.3-0.6-0.6-1.2-0.9-1.8c2.6-1.9,5.2-3.7,7.8-5.6c-3.1,0.5-5.8,1.8-8.1,3.6
					C622.1,650.4,621.6,652.4,621.9,653.6z M554.1,713.5c5.9-3.5,12.6-6.1,18-10.3c7.3-5.6,13.7-12.3,20.6-18.6c0.2,0.8,0.7,2,1,3.3
					c2.5,9.4,9.8,12.9,18.3,14.8c1.8,0.4,4.3,0.9,3.8-2.5c-7.6-2.8-12.1-8.5-14.4-15.9c-2.4-7.8,2.1-14.4,5.1-20.5
					c-10.3-0.5-12.6,8.2-17.4,14.3c-1,1.3-1.9,2.9-3.2,3.9c-8.1,6.6-16.4,13.1-24.5,19.7c-4.6,3.7-10.4,6.8-13.4,11.5
					c-8.2,12.6-12.9,26.8-15.1,41.8c-0.4,2.8,0.4,5.7,0.6,8.5c0.5,0,1,0,1.5,0c0.5-1.7,1-3.4,1.5-5.1c4.3-13.4,8.5-26.8,13.1-40.1
					C550.1,716.3,552.2,714.6,554.1,713.5z M651.9,858c-0.9,2.4-1.4,6.8-0.1,7.8c2,1.7,5.8,1.9,8.7,1.7c2-0.1,4-1.7,5.6-3.1
					c0.9-0.7,1.2-2.3,1.4-3.5c0.1-0.4-1.1-0.9-1.8-1.4c-0.7,1-1.1,2.5-2,2.8c-2.8,1.1-6,3-8.6,2.4c-3.7-0.8-1.3-4.1-0.6-6.3
					c1.8-5.2,5.6-7.9,11-8.4c3.2-0.3,6.4-0.6,10.9-1C663.5,845.8,655.4,848.8,651.9,858z M719.8,735.9c0.1-0.9,0.5-2.2,0.1-2.6
					c-3.6-3.5-7-7.6-11.3-9.9c-8.8-4.8-18.1-2.1-26.8,0.5c-14.1,4.2-28.3,6.8-43,7.1c-6.9,0.1-13.8,0.8-20.7,1.5
					c-17.5,1.9-33.5,8.7-49.3,15.7c-6.5,2.9-12.5,4.1-19.4,2.4c-3.4-0.9-7.1,2.7-7.3,6.8c-0.2,3.6,1.6,5.3,4.6,4.9
					c1.4-2.5,2.6-4.4,4.3-7.5c1.9,5.6,2.9,9.9,4.8,13.8c6.9,14.4,19.8,22.3,33.8,27.7c16.2,6.3,33.2,9.2,50.7,10.5
					c12.4,1,24.3-0.8,35.2-5.9c7.4-3.4,14.5-8.4,20.1-14.3c10.4-11.1,16.7-25,23-38.8c1.8-4,3-7.8,1.1-12.1
					C719.9,735.9,719.9,735.9,719.8,735.9z M697,781.4c-1.7,3.1-6.2,5.7-9.8,6.4c-19.9,4.1-39.4,10.7-60,10.5
					c-21.2-0.2-40.7-5.8-57.5-18.8c-6.1-4.7-11.4-10.9-13.7-19.3c2.6,1.1,5.2,2.1,7.7,3.3c5.2,2.4,10.2,2.8,15.8,0.9
					c2.1-0.7,5,0.4,7.3,1.2c3,1.1,5.6,3,8.6,4.2c19.3,7.5,38.9,8.4,58.9,3.3c10-2.5,20.1-5.1,30.1-7.7c11-2.8,18.6-9.1,22.3-20.2
					c0.6-1.8,4.9-2.4,7.5-3.5c0.7,0.7,1.3,1.5,2,2.2C709.7,756.5,703.8,769.2,697,781.4z M626,757.9c-6.8,0.4-13.7,0.7-21.5,1.1
					c1.2-1.1,1.6-1.7,2.1-1.8c13.8-3.8,27.6-7.8,42.1-4.7c8.1,1.7,14.8-2.7,22.1-4.5c6.7-1.6,13.3-3.7,20.3-5.7
					c0.9,3.6,2.3,6.7,2,9.7c-0.2,2-2.3,4.8-4.2,5.6c-6.2,2.7-12.6,5.1-19.1,6.8c-15.1,3.9-30.3,8.5-46.1,7.1
					c-9.5-0.8-18.9-3.7-28.2-5.8c-1.1-0.3-1.9-1.9-2.5-3.5c11.9,4.5,22.3-0.7,33.1-3C626.1,758.7,626.1,758.3,626,757.9z
					 M700.2,739.2c-10.4-1.1-19.8,2.3-29.4,5c-5.2,1.4-10.1,3.9-15.3,5.3c-2.2,0.6-4.8-0.6-7.2-1.1c-17-4.1-33.1,0-48.8,5.7
					c-11.5,4.2-22.6,2.6-34.1-1.3c4.8-1.9,9.5-3.7,14.3-5.7c5.6-2.3,11-5.4,16.8-7.1c9.1-2.6,18.4-5.2,27.7-6
					c18.7-1.6,37.6-2.1,56-6.4c5.1-1.2,10.3-1.5,15.5-2.3c7.7-1.1,13.9,1.7,19.3,7c1.4,1.4,3.1,2.5,4.7,3.7
					C713.8,739.8,706.8,739.9,700.2,739.2z M908.8,987.3c-1.1-3-2.3-6.1-2.5-9.3c-2.3-25.9-6.8-51.4-14.4-76.4
					c-4.2-13.8-6.6-28.2-11.9-41.5c-6.7-16.8-15.3-32.9-23.7-49c-2.2-4.2-6.7-7.1-10.2-10.5c4.6,9.9,10,18.9,14.8,28.3
					c1.4,2.7,0.8,6.4,1.7,9.5c1,3.4,1.9,8.8,3.9,9.4c4.4,1.2,5.4,4.2,6.4,7.4c5.8,19.2,11.2,38.5,17.3,57.6
					c5.6,17.6,8.2,35.7,9.1,54.1c0.1,2.5-0.7,5.4-2.1,7.5c-7.2,11.5-14.8,22.8-22.2,34.2c-0.9,1.4-1.7,2.9-2.5,4.3
					c0.6,0.4,1.3,0.8,1.9,1.2c8.5-11.9,17-23.8,25.6-35.8c0.1,0.2,0.5,0.5,0.7,0.9c5.8,15.6,11.6,31.2,17.3,46.8
					c3.5,9.5,7,19.1,10.5,28.6c1.7,0,3.4,0,5.1,0C925.4,1032.2,917,1009.7,908.8,987.3z M882,1025.8c0.4,0.4,0.8,0.7,1.3,1.1
					c5.1-6.9,10.1-13.7,15.2-20.6c-0.4-0.3-0.8-0.6-1.2-0.9C892.1,1012.2,887,1019,882,1025.8z M828.1,420.8
					c12.8,1.1,24-2.5,33.1-11.9c2.8-2.9,6.3-5.2,9.7-7.5c2.7-1.8,2.9-3.6,1.5-6.3c-2.8-5.8-5.1-11.8-7.9-17.7
					c-1.3-2.8-1.2-4.9,0.7-7.4c4.6-6.2,9-12.7,13.4-19.1c-2.3-3.5-4.3-6.5-6.5-9.9c-1.3,1.1-2.4,1.8-3.4,2.7
					c-12.5,11-25,22-37.4,33.2c-3.2,2.9-6.2,5.8-11.1,3.7c-1-0.4-2.6,0.4-3.8,0.9c-2.7,1.2-5.4,2.5-8.4,3.9
					c-2.7-8.7-5.8-16.9-7.8-25.3c-3-13.3-9.4-24.3-18.8-34.2c-24.6-25.6-43.2-55.7-61.1-86.5c15.1-17.4,30.3-34.8,46.2-53.2
					c-14.1,0-26.8,0-40.2,0c5.5-15,10.9-29.5,16.6-45.1c-5.7,3-10.1,5.8-15,7.7c-11.7,4.4-19.5,12.2-23.3,24.2
					c-1.8,5.5-5,9.8-10.8,12.1c-1.4,0.6-2.8,3.2-2.8,4.9c-0.1,5.5,0.5,11,0.8,16.5c-48.2-14.4-95.7-28.6-143.6-43
					c2.5-6.5,4.7-12,6.6-17.6c0.7-1.9,1.4-4,1.1-5.9c-1.2-7.9-2.6-15.8-4.3-23.5c-0.3-1.5-2.5-3.5-3.8-3.6
					c-13.4-0.3-26.8-0.2-40.4-0.2c-1,5.7-1.8,10.8-2.8,16.3c-8.1-0.9-16.1-1.8-24-2.8c7.5,6.6,15.2,12.4,23,18
					c4.3,3.1,9.6,5.5,4.4,11.9c4.8,2.9,8.9,5.4,13.6,8.3c-8.2,2.7-15.8,4.6-22.9,7.7c-8.3,3.6-15.8,3.7-23.1-1.9
					c-0.7-0.6-1.8-0.7-2.8-1.1c-1.4,5.2-2.7,10-4.1,15.3c-10.1-1.2-19.8-2.4-29.6-3.6c-0.4,1.6-0.9,2.8-0.9,3.9
					c0.1,4.6-2.6,6.7-6.4,8.6c-10.8,5.4-21.4,11-32,16.9c-3.2,1.8-5.3,1.7-8.2-0.5c-9.2-6.9-18.4-14.1-30.8-14c-2.2,0-4.4-0.6-6.5-1
					c-7.4-1.1-14.8-2.2-23.3-3.5c3.5,5,6.4,9,9.5,13.3c-3.8,1.3-7,2.4-10.8,3.6c11.1,9,21.8,17.7,32.6,26.5
					c-9.2,8.4-17.8,16.8-27,24.7c-5.5,4.7-9.7,9.6-11.7,16.7c-0.5,1.9-2.9,4-4.9,4.8c-5.5,2.1-11.2,3.4-17.2,5.2
					c1.1,4.4,1.6,8.4,3.2,11.8c2.6,5.5-0.4,9-4,11.7c-1.6,1.1-5.1,0-7.7-0.7s-5.1-1.9-7.6-3c-7.4-3.1-14.9-6.2-23.1-9.7
					c1.3,3.6,2.2,6.3,3.3,9.7c-26.5,2.7-52.6,5.3-78.7,7.9c0,0.3-0.1,0.6-0.1,0.8c7.8,2.5,15.7,5.1,23.8,7.7
					c-2.8,7.9-5.5,15.3-8.7,24.1c9.8-5.5,18.7-10,26.9-15.5c5.9-3.9,11.3-3.2,17.9-1.1c-5.6,7.1-11,13.9-16.3,20.7
					c-5.4,6.9-10.9,13.8-16.2,20.7c3.4,3.4,5.9,2.6,8.9-0.3c6-5.8,12.5-11.2,19.3-17.1c0.8,7.1,1.5,13.2,2.3,19.8
					c7.2-3.6,13.6-6.7,20.3-10c3.8,6.5,8.1,12.4,10.6,18.9c2.4,6.2,3.8,13.1,3.6,19.6c-0.1,2.7-5.5,5.2-8.5,7.8
					c-0.4,0.3-0.7,0.7-1.2,1.2c0.2,0.6,0.3,1.2,0.5,1.8c6.6,20.5,13.3,41,19.9,61.5c1.9,5.9-1.2,14.1-6.6,16.8
					c-2.8,1.4-2.6,3.1-1.5,5.4c1.8,3.5,3.8,6.9,5.1,10.5c0.5,1.4-0.5,3.3-0.9,5c-3.4-3-5.6-5.6-7.3-8.5c-3.4-5.9-8.2-7.4-14.9-6.7
					c-19.6,2-39.3,3.2-58.9,4.9c-2.4,0.2-5.2,1.6-6.7,3.4c-6.2,7.2-12,14.8-17.9,22.3c-0.7,0.9-1.3,2.1-2.1,3.5
					c12.6,0.7,24.6,1.4,37.8,2.2c-2.3,1.9-3.5,3-4.8,3.9c-7.8,5.7-15.6,11.5-23.6,16.9c-3,2-3.7,4-2.4,7.2c0.5,1.2,0.6,2.7,1.1,3.9
					c3,7,2.1,13.2-2.4,19.4c-2.3,3.1-4.2,7.3-4.4,11c-0.7,16.5-0.7,33-1,49.5c0,1.4,0.2,2.8,0.3,4.9c2-1.7,3.5-2.8,4.8-4.1
					c19.6-20.3,42.7-35.5,68.9-46c4.2-1.7,8.2-3.8,12.9-6c0.6,10.3,1.2,19.8,1.9,30.2c5.8-5,10.7-9.2,15.7-13.5
					c8.4,5.9,16.4,11.5,25,17.5c-8,6.8-15.4,13.3-23.1,19.3c-3.2,2.5-4.6,5.4-5.4,9.3c-4.2,22.4-8.6,44.7-12.9,67
					c-2.6,13.5-5.2,27-8,42c24.1-23.7,47.2-46.3,71.1-69.8c2.3,20.8,4.6,40.5,6.8,60.4c16.7-1.1,32.7-2.1,48.8-3.1
					c0.1,1.1,0.3,1.6,0.2,2.1c-3.8,17.6-7.6,35.2-11.6,52.7c-0.4,1.8-1.7,3.7-3.1,5c-23.9,23.3-49.2,44.9-78.3,61.5
					c-2.9,1.7-5.6,3.8-8.6,5.5c-1.7,1-3.6,1.8-5.6,2.2c-21.9,4.7-43.8,9.3-65.8,13.8c-3.7,0.8-6.2,2.4-7.6,5.8
					c-1.8,4.2-4.6,7.2-9.4,8.4c-18.9,4.7-35.7,13.5-50.4,26.4c-5.5,4.8-12,8.5-16.9,13.8c-11.9,13-23.2,26.7-34.6,40.2
					c-1.6,1.9-2.9,4.2-3.6,6.6c-4.9,16.2-9.7,32.5-14.3,48.9c-0.8,2.7-0.8,5.6-1.2,8.5c1,0,2,0,3.1,0c6.5-37.7,23.8-69.9,49.9-97.4
					c18.3-19.3,38.7-35.6,65.1-42.8c4.7-1.3,9.3-2.9,14.1-3.5c2.1-0.2,4.9,1.3,6.7,2.9c11.5,10.5,19.8,23.4,27.5,36.8
					c4.9,8.6,11.6,16.3,16.6,24.9c13.5,22.9,23.8,47.3,30.3,73.2c0.5,2,1.3,3.9,1.9,5.8c180.9,0,361.8,0,542.7,0
					c-0.8-2.2-1.7-4.5-2.2-6.8c-3.1-13.2-5.7-26.6-9.2-39.7c-8.3-30.3-18.3-60.1-30.1-89.3c-0.5-1.3-1-2.6-1.7-3.7
					c-11.7-17.5-23.3-35.1-35.3-52.4c-5.7-8.2-12.1-15.8-18.8-24.4c20.6-20.9,44.6-39.2,56.2-67.6c0-0.9-0.3-2.4,0.1-3.7
					c1.5-4.9,3.3-9.6,4.9-14.5c8.4-25.4,19.9-50,19.4-77.5c-0.1-4.6,0.7-9.3-0.1-13.7c-2.9-16.6-6.3-33-9.4-49.5
					c-0.3-1.8-0.5-3.8-0.2-5.6c1-6.5,2.3-13,3.4-19.6c3.6-21.7,9.5-43.2,8.5-65.5c-0.2-3.7-1.5-7.8-0.4-11.1
					c2.8-9.1-2.3-13.1-9.1-16.6c-1.1-0.5-2.1-1.3-3.2-1.6c-2.9-0.8-3.4-2.4-2.2-5c1.2-2.8,2.1-5.7,3.4-8.5
					c3.6-7.7,4.8-15.6,2.1-23.7c-3-9-1.3-16.7,3.6-24.9C816.4,423.2,820.7,420.2,828.1,420.8z M391.9,497.7c-1,5.7-1.9,11.4-2.9,17
					C386.6,508.5,384.6,502.4,391.9,497.7z M347.2,659.7c-16.6-7.1-30.2-17.8-38-34.5c-5.8-12.2-11.7-24.5-16-37.3
					c-2.3-6.8-2.2-14.8-1.4-22c0.6-5.2,3.1-11.2,6.7-14.9c12.7-13.1,25-15,42.1-0.8c4.4,3.7,7.3,9.3,12,12.3
					c7.1,4.6,10,11.2,12.2,18.5c0.5,1.7-0.1,3.8-0.2,5.7c-0.1,2.1-0.2,4.2-0.2,6.3c2.1-0.4,4.3-0.6,6.2-1.4c1.1-0.4,2-1.7,2.7-2.2
					c-0.9,4.3-4.1,10.1-2.4,13.1c6.2,11.4,6.5,24.4,11.3,36.1c1.9,4.7,3.6,9.5,5.7,14.2c1.2,2.6,0.5,3.9-1.9,5.2
					C373.3,665,360.3,665.3,347.2,659.7z M702.6,971.3c-6.4,3.1-12.9,6.3-19.6,8.6c-30.8,10.2-61.6,20.4-92.7,29.8
					c-13.3,4-27.3,5.4-40.7,9.2c-32.2,9-65.3,10.6-98.3,13.4c-5.4,0.5-10.8,1.5-16.2,1.9c-6.2,0.4-12.6,0.9-18.8,0.5
					c-9.7-0.7-17-4.8-22.6-13.9c-9.1-14.7-20.1-28.2-30.1-42.4c-8.8-12.6-17.1-25.7-26-38.3c-13.1-18.8-26.5-37.4-39.8-56.1
					c-1-1.4-2-2.6-3.2-4.1c8.1-4.8,16.1-8.9,23.4-14c12.8-9.1,25.5-18.5,37.7-28.3c13.8-11.2,22.5-25.8,26.1-43.3
					c2.9-14,5.1-28.1,7.7-42.1c0.8-4.2,1.8-8.3,2.7-12.5c0.6-0.2,1.3-0.4,1.9-0.5c2.3,4.9,5.7,9.5,6.7,14.6
					c2.5,12.8,4,25.8,4.9,39.4c-3.5-3.9-6.9-7.7-10.4-11.6c-0.3,0.1-0.6,0.3-0.9,0.4c0.4,1.1,0.5,2.3,1.1,3.2
					c3.3,5,6.3,10.1,10,14.7c4.4,5.5,3.7,11.9,3.9,18.5c-4.4-5.3-8.7-10.6-13.1-15.9c-0.2,0.1-0.5,0.2-0.7,0.3
					c0.4,1.1,0.7,2.3,1.3,3.2c3.8,6.2,7.6,12.5,11.6,18.6c4.3,6.6,6.3,13.7,6.1,23.5c-3.2-4.2-5.8-7.8-8.5-11.4
					c-0.6,0.2-1.2,0.5-1.8,0.7c14.5,15.4,15.1,35,18.7,53.7c-0.5,0.2-0.9,0.5-1.4,0.7c-7.9-11.4-15.7-22.7-23.6-34.1
					c-0.2,0.1-0.4,0.2-0.6,0.3c0.5,1,0.8,2.1,1.4,3c8,12.8,16.1,25.6,24.1,38.5c0.5,0.9,1.6,2,1.4,2.6c-2.1,5.7,2.5,7.6,5.7,9.9
					c13.5,9.8,27.1,19.3,40.7,29c3.7,2.7,7.4,5.5,11.3,7.9c-14.7-19.3-37.4-29.7-53.1-47.9c0.3-0.4,0.6-0.7,0.8-1.1
					c2.1,1.5,4.3,3.1,6.4,4.6c17.2,11.6,34.5,23,51.6,34.7c2.2,1.5,3.7,4.1,6.3,7c0.5-1.6,1.7-3.3,1.3-4.4
					c-4.5-10.9-9.2-21.8-14-32.6c-1-2.2-2.4-4.5-4.2-5.8c-11.5-8.7-23.3-17.1-34.8-25.7c-2.3-1.7-4.1-4.2-6.1-6.3
					c0.4-0.4,0.8-0.9,1.2-1.3c5.4,3.8,10.8,7.6,16.1,11.5c17.5,12.9,35.2,25.6,52.6,38.7c11.7,8.8,24.4,13.4,39.2,13.7
					c15.3,0.2,30.5,0.3,45.8-1.9c5.3-0.8,8.4-2.7,10.9-6.6c6.4-9.8,12.7-19.6,19.1-29.6c-7.4,35.2-14.8,70.5-22.2,105.8
					c0.5,0.1,1,0.2,1.5,0.4c3.6-13.3,7.6-26.5,10.9-39.9c4.9-20.5,9.3-41.1,13.9-61.7c0.5-2.2,0.3-4.9,4.1-4.3
					c3.5,0.5,3.2,2.7,3.2,5.2c0,10,1.2,19.6,6.2,28.6c0.8,1.4-0.4,3.8-0.8,6.4c0.7,0.1,1.9,0.6,2.6,0.2c2.4-1.5,5.2-2.9,6.9-5
					c6.3-7.6,12.3-15.6,18.4-23.4c-0.5-0.4-0.9-0.8-1.4-1.2c-7.3,7.7-14.6,15.4-22.6,23.9c-3.6-11.3-2.6-21.7-1.5-32.3
					c9-0.5,17.9-1.2,26.7-1.3c2,0,4.7,1.2,5.9,2.7c10.4,13.7,21,27.2,30.3,41.6c3.6,5.6,4.5,13.3,5.7,20.2
					C710.2,966.7,706.3,969.4,702.6,971.3z M395.8,722.3c1.1,6.3,2.2,12.6,3.5,19.9C391.5,736.1,393.2,729.3,395.8,722.3z
					 M810.8,674.3c-0.3,8.3-1.2,16.7-2.9,24.7c-7.5,34.4-18.5,67.3-41.8,94.6c-5.1,6-11.3,11.1-17.2,16.5
					c-14.7,13.2-28.6,27.1-40.4,43.1c-8.8,12-20.1,21.2-32.2,29.4c-2.4,1.7-5.5,2.9-8.4,3.2c-17,1.7-34,2.4-50.8-0.8
					c-11-2.1-21.6-5.9-32.3-9.4c-29.6-9.6-59.1-19.3-88.6-29.2c-23.4-7.9-40.4-23.5-54.1-43.7c-18.6-27.4-27.8-58-32.3-90.4
					c-1.4-9.8-2-19.7-4.3-29.3c-2.3-9.8-5.6-19.5-9.3-28.9c-5.8-14.7-12.4-29-18.4-43.6c-1.1-2.7-3.4-6.1,1.9-8.1
					c1.4-0.5,2-5,1.6-7.5c-1.4-9,2.5-15.6,8.3-21.9c4.4-4.8,8.2-10.2,11.4-16.3c-1.1,0.4-2.2,0.7-3.5,1.1c0.1-0.6,0-1.1,0.2-1.2
					c3.8-2.7,3.3-6,1.3-9.4c-7.8-13.6-8.4-28.1-5.6-43c1.6-8.8,0.9-17.2-2.4-26.2c1.4,0.4,2.3,0.6,3.1,0.9c3.7,1.5,4.8-0.3,4.2-3.6
					c-0.7-4.2-1.9-8.3-2.6-12.5c-1.1-5.7-1.9-11.4-3-17c-0.6-3.2,1-4.6,3.7-4.8c2.9-0.3,5.8-0.5,8.6,0c1.4,0.3,2.8,2,3.5,3.4
					c8.9,16.5,17.6,33,26.4,49.5c1,1.9,2.4,3.7,4.4,5.1c-9.9-18.9-19.7-37.7-29.2-55.8c2.1-2.3,3.5-3.9,5-5.5
					c-1.8-1.5-3.6-3-5.8-4.8c0.3-0.2,1-1.3,1.7-1.3c5.3,0.1,4.8-3.1,3.2-6c-4.2-7.8-8.7-15.3-13.1-23c-1.5-2.7-2.9-5.5-4.3-8.3
					c0.5-0.4,1-0.8,1.4-1.2c3.1,2.4,6,5,9.2,7.3c1.6,1.1,3.4,1.9,5.2,2.8c0.3-1.9,0.7-3.7,0.8-5.6c0.1-2,0-4,0-5.9
					c10.7-2.9,21-5.6,31.7-2c0.8,0.3,1.7,0.4,2.5,0.5c7.4,1.1,9.2,0.4,9.6-7.1c0.3-5.7,2.7-9.3,6.7-12.4c0.6-0.5,1.6-1,2.1-0.8
					c6.4,3.3,7.2-8.8,14.2-4.9c3.3,1.9,3.8,1.1,13.9-6.4c3.2-0.4,6.5-1.3,9.7-1.3c8.7,0.2,16.6-5.5,25.8-2.3
					c3.2,1.1,7.7-0.3,11.2-1.6c8.5-3,16.6-7.1,25.1-9.9c4.7-1.6,10-2.2,15-2c9.1,0.4,17.4-1,25.6-5.1c3.2-1.6,7.5-1.8,11.2-1.7
					c10.7,0.2,21.3,0.8,32,1.3c1,0,2.1-0.2,3,0.1c14.3,4.1,28.6,8.3,42.9,12.3c2.9,0.8,6,1.1,9,1.3c4.5,0.4,8.1,1.7,11.6,5.2
					c5.9,6,13.8,9.2,22.2,10.6c5.1,0.9,9.6,1.8,10.7,8.2c0.3,1.9,2.4,3.6,3.8,5.3c22.5,26.9,33.9,58.2,35.4,92.9
					c1.5,32.2,1.7,64.5,2.3,96.8c0.3,13.9,3.4,27.3,8,40.3C806.3,630.2,811.7,651.7,810.8,674.3z M811.2,509.8
					c0.7,5.4,2,10.1,1.9,14.6c-0.4,21.7-5,42.7-10.9,63.5c-0.1,0.4-0.5,0.7-1.8,2.5c0-6-0.6-10.6,0.1-15c1.4-9,2.3-17.8-1.7-26.4
					C793.4,537.2,799.5,516.2,811.2,509.8z M807.7,503.1c-4.2,3.3-7.7,5.9-10.4,8c-1-3.4-0.2-9.6,2.9-10.2
					C802.6,500.5,805.3,502.3,807.7,503.1z M753.4,394.4c13,33.7,22.3,68,20.7,105.7c-1.9-1.4-3-2.1-4-3
					c-11.6-10-25.2-14.7-40.3-14.6c-12.2,0.1-24.4,1-36.6,1.7c-5.6,0.3-9,4-8.5,8.7s4.4,7.7,10,6.9c9.1-1.4,18.3-2.4,27-5
					c11.5-3.5,22.7-3.8,34-0.1c7,2.3,13.4,5.8,18.5,11.9c0.5-0.2,1.8-0.6,2.5-0.8c1.4-19.6,0.3-38.9-3.7-57.9
					C768.5,426.6,757.7,397.3,753.4,394.4z M779.4,514.3c0.7,0.1,1.5,0.2,2.2,0.2c0.9-8.7,1.9-17.4,2.8-26.1c-0.7,0-1.3-0.1-2-0.1
					C781.4,497,780.4,505.7,779.4,514.3z M696.6,626.2c19.2-20.6,43.7-24.9,71.3-22.3C752.8,590.9,706.3,606,696.6,626.2z
					 M481,528.4c9.9-9.2,21.6-14.6,35.1-16c19.8-2,39.6-4.1,59.3-6c6.3-0.6,12-2.2,15.8-8.4c1.2,2.6,2.2,4.6,3.2,6.7
					c0.5-0.2,1-0.4,1.4-0.6c-4.1-9.9-8.2-19.9-12.4-29.8c-0.5,0.2-1,0.4-1.6,0.6c2.3,5.4,4.7,10.7,7.4,16.9
					c-2.5-0.2-3.8-0.5-5.1-0.4c-23.5,2.9-47,5.3-69.3,13.9c-13,5-26,10.3-36,20.6c-2.1,2.1-3.8,4.6-6.3,7.7
					c-23.6-29.8-43.4-59.4-51.4-95.7c0.2,7,0.3,14.1,2.6,20.5c10,27.4,23.8,52.6,44.3,73.7c2.1,2.2,2.3,3.6,0.5,6
					c-1.8,2.5-3.1,5.5-4.6,8.3c0.3,0.2,0.6,0.3,0.9,0.5c2.7-3.2,5.3-6.5,8.1-9.8c2.4,1.5,4.4,2.8,6.3,4
					C474.9,534.2,474.8,534.2,481,528.4z M594,413.4c-0.6-0.3-1.2-0.6-1.8-0.9c-4.9,10.6-9.9,21.3-14.8,31.9
					c0.4,0.3,0.8,0.5,1.2,0.8C583.8,434.6,588.9,424,594,413.4z M600,500.8c-0.1,0-0.2,0-0.3,0.1c0,7.6,0,15.2,0,22.9
					c0.6,0,1.2-0.1,1.8-0.1C601,516,600.5,508.4,600,500.8z M563.4,549.6c-11.2-4.4-22.5-2.1-33.9-1.2c6.3,0.9,12.7,0.4,19.1,1
					c13.4,1.2,26,5.5,27.9,23.9c0.2,1.9,0.1,3.8,0.8,5.5c2.5,6.3,5.3,12.4,8.2,19.1c4.2-4.9,4.2-7.8,1.7-11.8
					c-1.9-3.1-3.7-6.5-4.4-9.9C580.5,564.2,575.8,554.4,563.4,549.6z M613.4,542.9c2.8,9.5,5.7,19.3,8.6,29.1
					C622.7,560.1,618.2,546.8,613.4,542.9z M582.4,634.8c0.2-0.8,0.5-1.6,0.7-2.4c-8.1-2.9-16.2-5.8-24.8-8.9
					c8.7-6.1,19-10.2,16.7-23.1c-5.5-0.4-1.7-3-1.9-4.7c0.4-0.2,0.8-0.3,1.3-0.5c2,2.7,3.9,5.5,5.9,8.2c0.5-0.1,1-0.2,1.4-0.3
					c-0.1-2,0.1-4.1-0.5-6c-1.4-4.8-3.3-9.4-4.6-14.2c-2.4-9.5-7.9-16.7-16.6-20.8c-9.9-4.7-20.7-4.1-31-2.4
					c-19.5,3.2-35.3,13.3-48.6,27.7c-2.5,2.7-2.2,4.5,0.1,7.3c9.2,11.1,21.5,16.3,35.3,18.4c15.9,2.4,31.7,1.7,48.3-3
					c-8.1,9.1-13.2,11.4-23.6,12c-15.6,0.9-31.2,1.7-46.7,3.2c-6.1,0.6-12,2.9-18,4.5c9.1-0.1,17.9-1.4,26.8-2.1
					c9-0.6,18-1,26.9-0.8c9.1,0.2,18.3,0.7,27.4,2C565.4,630.3,573.8,632.9,582.4,634.8z M551.3,610c-6.2,0.5-12.5,1-18.7,1.5
					c-0.1,0.3-0.2,0.5-0.2,0.8c-8.8-1.6-17.6-3.3-26.4-4.6c-6.9-1-9.6-6.2-11.5-11.6c-2.9-8.2-1.2-20.2,10.2-25.2
					c14.1-6.2,28.2-10.2,43.8-9.1c13.7,1,25.9,18.2,23.4,29.4C568.9,604.1,564.4,609,551.3,610z M480.1,596.9
					c0.2,5.8,6.8,11,13.1,11.4C488.5,604.2,484.3,600.6,480.1,596.9z M615.8,700.1L615.8,700.1C615.8,700.2,615.9,700.2,615.8,700.1
					L615.8,700.1z M554.5,568.9c-8-6.1-19.6-5.8-27.4,1.6c2.9-0.2,4.9-0.3,7-0.4c4.8,8.7-0.2,12.1-10.1,17c-1.3-0.8-2.7-1.7-4.2-2.7
					c-0.5,10.3,4,18,12,21.5c8.7,3.8,17.6,2.3,23.8-4.5c-2.7,0.1-5.4,0.6-7.8,1.5c-5.7,2.1-11.2,4.2-16.4-2.7c2.5-0.6,4.6-1,6.7-1.5
					c-2-2.5-3.9-4.9-5.9-7.4c4.2,4.5,8.6,7.8,15.2,5.6c4.8-1.6,7.1-5.1,7.2-10c0.1-7.7-4.7-11.3-12.6-12.7c3.7-0.3,6.3-0.5,8.9-0.7
					c0-0.6,0.1-1.2,0.1-1.7c-3.3-1.1-6.7-2.1-11.1-3.6c12.2-2.1,21.5,9.2,19,20.7c-0.5,2.4,0.1,5.1,0.2,7.7
					C565.4,586.4,563.2,575.5,554.5,568.9z M492.6,565.1c-6.5,5.2-13.9,9.9-17.6,17.8c0.4,0.4,0.8,0.7,1.2,1.1
					C481.7,577.7,487.2,571.4,492.6,565.1z M615.8,700.1L615.8,700.1c0.1,0,0.2-0.1,0.2-0.2C615.9,700,615.8,700,615.8,700.1z"/>
			</g>
		</g>
	</g>
</g>
</svg>
