<?xml version="1.0" encoding="utf-8"?>
<!-- Generator: Adobe Illustrator 25.4.1, SVG Export Plug-In . SVG Version: 6.00 Build 0)  -->
<svg version="1.1" id="Laag_1" xmlns="http://www.w3.org/2000/svg" xmlns:xlink="http://www.w3.org/1999/xlink" x="0px" y="0px"
	 viewBox="0 0 1050 1050" style="enable-background:new 0 0 1050 1050;" xml:space="preserve">
<style type="text/css">
	.st0{display:none;}
	.st1{clip-path:url(#SVGID_00000173152730284871075870000007013421974455762827_);}
	.st2{fill:#00F0A6;}
	.st3{fill:#BFB9AE;}
	.st4{fill:url(#SVGID_00000127037265581823391750000009472933200779560369_);}
	.st5{fill:url(#SVGID_00000075854281724331767970000011958501972797094819_);}
	.st6{fill:#4F536A;}
	.st7{fill:url(#SVGID_00000016760494452584084340000017476615615346351770_);}
	.st8{fill:url(#SVGID_00000099649072230325516320000015714055918210392197_);}
	.st9{fill:#FFFFFF;}
</style>
<g id="Kleuren" class="st0">
</g>
<g id="PNG">
</g>
<g id="Shirt">
</g>
<g>
	<defs>
		<circle id="SVGID_1_" cx="525" cy="525" r="525"/>
	</defs>
	<clipPath id="SVGID_00000039847819575859234200000014967868635491068834_">
		<use xlink:href="#SVGID_1_"  style="overflow:visible;"/>
	</clipPath>
	<g id="Back" style="clip-path:url(#SVGID_00000039847819575859234200000014967868635491068834_);">
		<rect class="st2" width="1050" height="1050"/>
	</g>
	<g id="Sjaal" style="clip-path:url(#SVGID_00000039847819575859234200000014967868635491068834_);">
		<polygon class="st3" points="-40.4,928.2 52.2,911.3 172.5,866.5 279.8,834.9 398.6,788.6 447.9,774 485.7,756.2 587.6,740 
			742.6,750.8 853.7,771.6 956.3,798.6 1090.5,849.6 1129.1,1177.4 -57.4,1128 -92.8,991.5 		"/>
	</g>
	<g id="Face" style="clip-path:url(#SVGID_00000039847819575859234200000014967868635491068834_);">
		<g>
			<g>
				
					<linearGradient id="SVGID_00000183968955308245705210000015167222477730239368_" gradientUnits="userSpaceOnUse" x1="-27.5402" y1="528.6223" x2="954.6" y2="528.6223" gradientTransform="matrix(1 0 0 -1 0 1050)">
					<stop  offset="0" style="stop-color:#B2471F"/>
					<stop  offset="0.4792" style="stop-color:#D19342"/>
					<stop  offset="0.8277" style="stop-color:#E5C358"/>
					<stop  offset="1" style="stop-color:#EDD661"/>
				</linearGradient>
				<path style="fill:url(#SVGID_00000183968955308245705210000015167222477730239368_);" d="M108.5,451.1c3.2,4.3,3.6,4.2,7,0
					c19.3-23.8,38.7-47.6,58.1-71.4c1.5-1.8,3-3.4,4.6-5.2c0.3,0.2,0.5,0.5,0.8,0.7c-21.3,26.8-42.6,53.6-64.4,81
					c7.4,3.4,7.5,8.7,4.7,14.8c-0.1,0.3-0.3,0.7-0.2,0.9c0.5,1.7,1.1,3.4,1.7,5.1c1.5-0.6,3.4-0.7,4.4-1.7
					c21.9-24,43.7-48,65.4-72.2c1.3-1.5,1.9-4.4,1.6-6.4c-1.3-8-3.5-15.9-4.7-23.9c-0.7-4.5-0.1-9.2-0.1-13.8
					c3.4,27.9,11.3,54.4,22.2,81.2c6.2-9.2,12-17.4,20.4-23.1c-1.1,1.7-2.2,3.3-4,6.1c4.9-3.9,8.8-7,12.6-10
					c0.4,0.5,0.8,0.9,1.2,1.4c-9,9.2-18,18.4-27.1,27.6c3.4-0.1,6.1-1.1,8.8-2.1C282.2,417,345,408.7,409.8,416
					c56.9,6.4,110.1,24.5,160.9,50.3c4.1,2.1,7.1,2.3,11-0.3c8.9-5.9,19-9,29.5-10.9c3.5-0.6,8.2-1.2,9.9-3.5
					c2.4-3.3,4.8-2.4,7.6-2.5c5.6,0,11.3,0,18,0c-2-3.7-3.6-6.8-5.3-9.8c-8.4-14.6-9.6-28.7,2.7-42c6.9-7.5,8-16.3,4.5-25.8
					c-2.5-6.8-4.9-13.7-7.7-20.4c-6.1-14.6-12.4-29.2-18.7-43.8c-0.9-2.2-1.7-4.4-2.6-6.6c5.2,8.6,9.5,17.5,13.5,26.5
					c6.6,14.9,13.3,29.8,19.6,44.9c4.1,9.9,4.3,19.8-1.8,29.3c-0.8,1.2-1.7,2.5-2,3.9c-1,3.8-2.7,7.8-2.5,11.6
					c0.4,8.1,2.8,16.1,2.5,24.1c-0.2,7,4,9.2,8.7,11.6c7.2,3.7,14.5,6.9,21.9,10.2c1.1,0.5,2.7,0.5,3.8,0
					c37.6-17.1,76.8-29.1,118-33.9c19.3-2.2,38.8-2.7,59.1-4c-0.4-5.2-0.7-11-1.4-16.7c-0.1-1.2-1.9-2.4-3.2-3.1
					c-4.9-2.4-10.2-4.1-14.9-6.9c-11.8-7-23.2-14.6-35.1-21.6c-8.7-5.1-17.7-9.6-26.6-14.2c-3-1.5-6.3-3.7-9.4-3.5
					c-7.7,0.5-16,0.7-22.9,3.6c-13.9,5.9-26.6,14.1-37.7,24.6c-12.4,11.7-20.9,26-28.9,40.7c-1.7,3.1-3.7,6-5.6,8.9
					c-0.6-0.5-1.2-0.9-1.8-1.4c10-33,31.1-56.8,63.3-72.4c-1.7-0.2-2-0.3-2.3-0.3c-1.1,0.3-2.2,0.7-3.3,0.9
					c-12.3,2.2-24.5,3.9-35.5-4.3c-5.9-4.4-11.3-9.7-17.7-13.4c-8.7-5-14.1-12.8-20-20.2c-2-2.6-2.7-5.9,0.3-7.7
					c1.8-1.1,5-0.3,7.4,0.3c2.4,0.5,4.7,2.5,7.1,2.6c12,0.6,24,1.3,36,0.9c10.5-0.4,19.7,3,29.2,7.5c-2.7,0.8-4.8,1.7-7,2
					c-10.8,1.7-21.6,3.1-32.4,4.9c-3.3,0.6-6.2,0.8-8.2-2.3c-1.6-2.5-3-4.8-6.7-4.2c-2.7,0.4-5.6,0.1-9.6,0.1c2.6,3.6,4.3,6,6.4,9
					c0.7-2.2,1.1-3.3,1.6-5.1c6,3,11.7,5.8,17.3,8.7c6.3,3.3,11.9,8,19.7,7.5c14.6-1,29.3-2.1,44-2.6c5.1-0.2,10.9,0.5,15.4,2.7
					c6.9,3.4,13.1,8.4,19.5,12.7c2.5,1.7,4.9,3.3,8.1,5.4c-0.2-1.6-0.1-2.1-0.3-2.4c-0.5-0.8-1.1-1.6-1.8-2.3
					c-11-10.8-24.6-16.7-39.3-20.6c-1.1-0.3-2.3-0.3-3.4-0.2c-11.3,0.5-22.7,1.1-34,1.6c-4.7,0.2-9.4,0.7-14.1,0.2
					c-2.2-0.2-4.3-2.3-6.4-3.6c2.3-1.8,4.5-3.8,6.9-5.5c0.7-0.5,1.9-0.2,2.9-0.2c4.2-0.3,8.4-0.6,12.6-0.8
					c17.3-0.7,34.5-4.1,51.4,4.9c7.1,3.8,14.1,7.5,20.3,12.6c8,6.7,15.9,13.6,23.7,20.6c2.5,2.2,4.5,4.9,6.8,7.3
					c1.5,1.5,3.2,2.9,4.8,4.3l1-1.2c-0.8-1.2-1.4-2.5-2.4-3.4c-6-5.2-9.1-12.1-11.7-19.3c-1.3-3.6-3.3-7-5-10.5
					c-3.7-7.7-8-15.2-10.9-23.1c-6.7-17.9-17.4-33.5-29.2-48c-13.2-16.2-29.8-28.9-48.7-38.2c-2.5-1.2-4.9-2.6-7.3-3.8
					c-2.3-1.2-4.6-2.3-6.8-3.5c0.3-0.5,0.6-1,0.9-1.6c15.7,9.1,31.3,18.3,47.2,27.5c-8.5-9.4-17-18.9-25.7-28.2
					c-7.3-7.8-14.5-15.8-22.6-22.8c-8.2-7.1-17.3-13-26.1-19.4c-0.9-0.7-1.9-1.2-3-1.6c-11.6-4.7-23.3-8.9-34-15.9
					c-10.1-6.6-21.1-11.8-32.2-16.7c-5.9-2.6-12.8-3.3-19.3-4.5c-2.4-0.5-5.3,0.7-7.6,0c-5.7-1.7-11.2-4.1-16.8-6.2
					c-8.1-3-16-6.8-25.1-5.8c-2.4,0.3-4.9-0.2-7.3-0.5c-4.8-0.7-9.5-2-14.3-2.1c-14.9-0.4-29.9-0.1-44.8-0.5
					c-19.4-0.6-37.9,5-56.7,7.7c-11.6,1.7-23,5.6-34.3,8.9c-20,5.9-40.2,11.5-59.8,18.6c-21.3,7.7-42.9,15.4-63.1,25.6
					C233.6,214,200.2,237,172.2,267c-7.5,8-14.4,16.2-18.9,26.3c-0.5,1.2-1.3,2.2-2,3.4c-12.8,21.9-27.7,42.8-34.1,67.9
					c-1.1,4.2-2.1,8.4-2.5,12.6c-0.4,4.3,0,8.8,0.1,13.1c0.1,4.2-1.5,7.5-5.5,8.8c-5.8,1.8-8.6,5.9-10.2,11.3
					c-1,3.3-2.4,6.4-3.7,9.5c-2.1,5.5-1.9,10.7,1.8,15.7C101.1,440.7,104.7,446,108.5,451.1z M687.8,393
					c-7.3,14.6-14.7,29.3-22.3,44.5C665.1,429.5,679.8,400.8,687.8,393z M690.8,197.4c1.1,3,2,6.1,2.6,9.2c2.1,10,4,20.1,5.9,30.1
					c0.2,1,0,2,0,3.1c-0.2,0-0.4,0-0.6,0.1c-4.4-14.4-8.7-28.8-13.3-43.7C687.5,194.2,689.5,193.8,690.8,197.4z M661.6,187
					c-21.1-4.2-44.3-8.9-64.6-12.9C605.1,173.4,652.2,182,661.6,187z M628.1,269.8c21.2,0.3,42.5,1.1,63.3,6.2
					c5.3,1.3,10.5,2.9,15.5,5.5c-4.2-0.4-8.4-1.2-12.6-1.1c-21.2,0.3-42.4,0.9-63.7,1.4c-19.3,0.5-38.5,1.2-57.8,1.6
					c-2.3,0.1-4.7-0.9-7.1-1.6c-5.9-1.6-11.7-3.4-17.5-5.1c-6.3-1.8-12.7-3.5-19.1-5.3c-10.8-2.9-21.7-3-32.6-0.5
					c-1.4,0.3-2.9,0.6-4.3,0.7c-9,0.6-18,1.1-26.7,1.7c3.5-0.9,7.3-2.4,11.3-2.8c15.3-1.5,30.5-3.3,45.9-3.8
					c7.6-0.3,15.3,2,22.9,3.1c8.3,1.2,16.7,2.4,25,3.6c0.6,0.1,1.3,0,1.9-0.1C590.9,268,609.6,269.5,628.1,269.8z M512.9,333.5
					c-1.9,5.1-3.5,10.4-6,15.3c-1,1.8-4.5,3.8-6.3,3.4c-3.6-0.9-2.8-4.4-1.3-6.8c4.6-7.6,8.8-15.3,10.1-24.2
					c0.8-0.4,1.5-0.8,1.7-0.9c0.8,3.3,1.7,6.3,2.2,9.5C513.6,331,513.3,332.4,512.9,333.5z M572.9,209.7c-0.9-1.6-1.9-3.3-2.8-4.9
					c-6-10.4-11.5-21.1-18.1-31.1c-3-4.5-5.2-9.5-8.3-13.9c-3.4-4.8-6.2-9.9-9.2-14.9c-1-1.7-1.8-3.6-2.6-5.4
					C548.1,161.5,562.9,184.2,572.9,209.7z M452.7,148c2.2,0.9,4.8,1.3,6.4,2.7c6.2,5.7,12.8,11.1,18,17.7
					c23.7,30.1,46.9,60.5,70.3,90.8c1,1.3,1.8,2.7,2.4,4.3c-31.5-38.9-61.1-79.4-98.3-113.3C451.9,149.4,452.3,148.7,452.7,148z
					 M412.5,161.9c16.5,17.3,32.6,34.9,48.9,52.4c-0.6,0.6-1.1,1.2-1.7,1.8c-6.9-6.2-13.9-12.4-20.8-18.6
					c-11.5-10.5-22.9-20.9-34.2-31.6c-2-1.9-3-5-4.9-8.3C405.8,156.5,409.8,159.1,412.5,161.9z M415.9,251.2
					c-31.7,12.7-64.1,25.6-96.2,38.5C328.6,282.6,400.4,253.9,415.9,251.2z M292.9,375.5c12.3-7.8,24.6-15.6,37-23.3
					c1.5-0.9,3-2.1,4.7-2.5c8.9-1.9,16.3-7,24-11.5c9.4-5.5,19.8-6.7,30.6-6c4,0.3,8.3-0.6,12.2-1.8c12.7-4,25-9.2,37.9-12.4
					c8.8-2.3,18.3-3.1,27.4-2.8c9.9,0.3,18.2-3.6,27-6.8c2-0.7,5-1.2,6.5-0.3c1.2,0.7,1.8,4.3,1.2,5.9c-3.3,8.6-7.1,17-10.7,25.5
					c-0.4,0.9-0.8,1.7-1.2,2.5l1.1,0.7c2.1-3.4,4.1-6.8,6.3-10.2c2.5-3.9,4.9-7.9,7.8-11.6c0.9-1.1,3.4-3.5,4.6,0.3l0,0
					c-1.3,1.7-2.9,3.2-3.8,5.1c-3.2,6.7-6.1,13.6-9.2,20.4c-2.3,5.1-6.4,6.4-11.6,5.7c-2.8-0.4-5.6-0.4-8.4-0.6
					c-0.1,0.5-0.3,1-0.4,1.5c6.2,3.6,12.2,7.8,18.6,10.8c16.8,7.7,27.4,20.8,34.7,37.2c3.2,7.2,6.1,14.5,8.2,22
					c-5.4-9.7-10.7-19.5-16.1-29.2c-6.3-11.3-15.4-19.4-26.9-25.3c-5.8-3-11.2-6.5-16.7-9.9c-6.9-4.3-13.9-6.8-22.2-3.6
					c-5.5,2.1-11.2,3.1-17,0c-1-0.5-2.9,0-4.1,0.6c-13.4,7-28,10.1-42.6,13.3c-5.5,1.2-11.2,1.4-16.9,2c-3,0.3-6.1,0.5-9.2,0.9
					c-11.9,1.2-23.8,2.2-35.7,3.7c-4.8,0.6-10,1.7-14.1,4.1c-19.3,11.6-38.3,23.7-57.5,35.5c-9.2,5.7-18.6,11.1-28,16.5
					c-2,1.2-4.3,1.9-6.5,2.8c-0.3-0.5-0.5-0.9-0.8-1.4c30.6-19.8,61.2-39.5,91.8-59.3c-0.2-0.4-0.4-0.8-0.6-1.2
					c-0.6,0.1-1.2,0.1-1.7,0.4c-13.7,8-27.9,15.3-40.8,24.5c-8.5,6-16.5,12.5-25.9,17c-1.2,0.6-2.3,1.2-3.5,1.7
					c-0.2,0.1-0.6-0.1-2.3-0.3c1.6-2,2.5-3.9,4-4.7c9-5,16.2-11.9,23.7-19C275.1,385.5,284.4,380.9,292.9,375.5z M96.3,426.6
					c5-6.6,9.7-13.6,15.2-19.8c21.9-25.2,43.9-50.3,66.2-75.2c10.6-11.8,21.8-23,32.7-34.6c0.7-0.8,1.3-1.8,1.7-2.9
					c0.5-1.4,0.7-2.8,1.1-4.2c1.1-3.9,3.5-8,2.8-11.6c-0.5-2.8-4.8-4.9-8.7-8.5c3.4,0.5,5.7,0.5,7.7,1.1c2.6,0.9,3.6,0,4.7-2.4
					c4.9-10.6,9.9-21.1,15.4-31.4c5.5-10.3,13.4-18.7,23-25.4c2.9-2.1,5.6-4.6,8.8-7.2c-0.1,0.9,0.1,1.9-0.3,2.3
					c-1.5,1.5-3,3-4.7,4.2c-20.2,14.8-29.8,36.7-38.9,58.8c-1.2,2.8,0,3.9,2.4,5.2c7.6,4,15.1,8.3,22.6,12.5
					c1.3,0.7,2.5,1.7,3.8,2.6c-0.2,0.3-0.3,0.7-0.5,1c-10-4.4-20-8.8-30.4-13.5c-4.6,12.2-6.8,24.3-7.9,36.5
					c-1.2,12.2-1.7,24.5-3,36.7c-2.7-16.1-1.3-32.1,0.8-49.1c-1.7,1.2-2.7,1.8-3.5,2.6c-1.5,1.5-2.9,3.1-4.3,4.6
					c-13,13.5-13.1,13.5-11.4,32c1.7,18,5.8,35.6,13,52.2c3.3,7.5,7.9,14.4,11.7,21.3c-5.1-3.6-9.4-8.7-12.2-14.9
					c-10.3-22.6-15.5-46.3-14.1-71.3c0.1-0.9-0.1-1.8-1.3-3.5C158,358.8,127.5,393,97,427.1L96.3,426.6z M953,768.4
					c-2.5,2.1-5,4.1-8,6.6c2.6,1.5,3.8,2.2,5.4,3.1c1.5-3,2.9-5.7,4.2-8.3C954.1,769.4,953.6,768.9,953,768.4z M913.7,597.6
					c0.2,0.5,0.5,0.9,0.7,1.4c0.1,0,0.1-0.1,0.2-0.1C914.3,598.4,914,598,913.7,597.6z M909.9,724.9c0.3-0.1,0.5-0.3,0.8-0.4
					c2.8,4.6,5.7,9.2,8.7,14c3.2-6.3,3.2-7.5,0.7-12.3c-1.1-2.1-2.2-4.3-3.2-6.6c-1.2-2.9-2.5-4.6-5.6-1.6c-0.5,0.5-2.1-0.1-3.1-0.2
					c0.4-1.1,0.6-2.8,1.3-3c1.9-0.7,4.1-0.7,6.1-0.9c2.2,4.1,4.2,8,6.3,11.9c0.5-0.1,1-0.2,1.5-0.2c3.5-19.3,7-38.7,10.5-58
					c0.4,0.1,0.8,0.1,1.2,0.2c-2,16.9-4.1,33.9-6.1,50.8c0.6,0.1,1.2,0.2,1.8,0.3c2.3-10,4.5-20,6.8-30c0.5-2.2,1.2-4.4,1.5-6.6
					c0.3-2.3,0.7-4.9,0.2-7.1c-3-12.2-6.1-24.5-9.6-36.6c-1.7-6.1-3.8-12.1-6.5-17.8c-3.2-6.7-7.9-12.9-8.2-20.8
					c0-0.4-0.2-0.8-0.3-1.1c-2.6,1.9-5.1,4.1-8,5.7c-8.9,4.9-17.9,9.8-27.1,14.4c-8.3,4.2-16.9,7.9-25.3,11.8
					c-0.2-0.4-0.4-0.8-0.6-1.3c8.4-4.9,16.7-9.7,26.1-15.2c-1.8-0.3-2.1-0.4-2.4-0.4c-1.7,0.4-3.5,0.9-5.2,1.4
					c-26.6,7.6-52.6,6.7-77.6-6.2c-11-5.6-21.7-11.6-32.6-17.4c-1.2-0.6-2.6-0.6-4-0.9c-1.9-0.3-4.2,0-5.6-1
					c-8.5-5.9-16.9-12.1-25.3-18.2c-1.3-0.9-2.6-1.8-3.9-2.7c0.8,2.4,2.1,4,3.6,5.5c14.9,15.5,29.8,31,44.9,46.3
					c4.1,4.1,9,7.5,13.6,11.2c-1.4-0.9-3.7-1-5.4-2c-7.8-4.9-15.5-10-23-15.3c-7.6-5.4-14.9-11.2-22.3-16.8
					c-0.4,0.3-0.9,0.6-1.3,0.9c0.4,2.3,1.1,4.5,1.2,6.8c0.3,8,1,16.1,0.5,24.1c-0.3,4.8-3.7,8.6-9.1,11.2v-13.2
					c-12.3,20.2-24.8,38.4-46.4,47.4c-0.1-1,0.2-1.5,0.7-1.9c15.9-12.4,29-27.4,39.3-44.7c1.2-2.1,3.1-3.7,4.4-5.8
					c1.1-1.9,2.2-3.9,2.6-6c0.3-1.8-0.5-3.8-0.6-5.8c-1.1-13.6-7.3-23.8-18.7-31.8c-9.1-6.3-17.7-13.7-25.4-21.6
					c-9.3-9.6-16.9-20.6-20.1-33.9c-1.9-7.7-3.1-15.6-4.3-23.4c-0.7-4.5-1.1-9.1-1.5-13.4c-7.8,0.7-15.5,1.9-23.3,1.9
					c-9.5,0.1-18.3,1.3-26,7.6c-4.4,3.6-9.5,6.2-14,9.6c-11.9,8.7-23.6,17.5-35.4,26.2c-0.6,0.5-1.3,1-1.7,1.6
					c-6.4,8.6-12.9,17.1-19.2,25.7c-14.3,19.6-29.9,38-47.1,55.1c-0.9,0.9-2,1.6-3,2.4c-0.4-0.4-0.9-0.7-1.3-1.1
					c11.7-18.5,23.4-36.9,35.3-55.7c-13.1,8.5-25.7,17.1-38.6,25c-16.4,10.1-33,19.9-49.6,29.6c-8,4.6-16.9,7.8-24.4,13.1
					c-12.1,8.5-25.2,10.7-39.3,9.7c-17.5-1.2-33.9-6.6-50.3-12.6c-41.9-15.2-81.8-34.7-122.2-53.5c-9.2-4.3-18.3-8.6-26.4-12.4
					c-0.6,3.7-0.5,7.3-1.8,10.2c-15.4,32.9-30.9,65.8-46.4,98.6c-1.1,2.4-1.6,5.1-3,7.3c-3.1,4.9-5.8,9.7-5.1,15.8
					c0.6,5.6,1.2,11.3,1.9,17.3c6-3,6.4-2.8,10.6-0.4c2.2,1.3,5.1,1.3,7.5,2.3c1.5,0.5,2.7,1.7,4,2.6c-1.1,1.4-2,3-3.3,4
					c-1,0.8-3,0.3-3.9,1.1c-5.1,4.5-10.1,6.6-15.5,0.8c-3.6,6.9-7.1,13.4-10.5,20.1c-0.5,1-0.8,2.6-0.3,3.6
					c1.9,4.7,8.5,8.2,13.7,7.2c4-0.8,7.8-2.2,11.8-3c5.1-1,7.9,0.9,8.8,5.9c1.3,7.1,1.5,14.1-1.3,21c-3.4,8.2-2.3,10.1,6.1,13.3
					c3.6,1.3,6.8,3,6.7,9c-5.5-1.2-11.2-1.3-15.5-3.8c-3.7-2.2-5.8-7-8.3-10.2c-5.4,3-11.7,6.4-17.8,9.8c3.5,4.7,6.6,9.1,9.8,13.3
					c0.6,0.8,1.8,1.6,2.8,1.7c11.8,2,18.6,8.9,20.2,21.5c3.2-3.9,5.5-6.6,3-11.6c-3.9-7.9,2.5-20.3,11.4-21.1
					c6.8-0.6,9.8-4.4,13.3-8.8c1.9-2.4,3.9-4.8,6-7c1-1.1,2.6-1.6,4-2.5c-6.8,10.7-13.2,20.9-19.7,31.1c0.4,0.3,0.7,0.5,1.1,0.8
					c2.2-1.3,4.3-3.3,6.7-3.8c6.2-1.4,12-2.8,13.9-10.4c0.4,0.4,0.8,0.8,1.2,1.1c-4.7,9.7-9.4,19.5-14,29c2.4,0.7,5.8,1.3,5.8,1.8
					c-0.1,5.9,5.8,5.9,8.1,9.5c4.3-9.3,8.4-18.2,12.6-27c0.5,0.2,1,0.4,1.5,0.7c-5.1,12.8-10.1,25.5-15.7,39.6
					c12.6-3,24.1-5.7,35.5-8.4c0.6-0.1,1.2-0.6,1.5-1.1c3.1-5.1,6.1-10.2,9.1-15.3c2.4-0.8,4.8-1.6,7.1-2.3
					c-0.5-7.9,3.1-13.1,8.4-18c5-4.7,9.2-10.2,13.7-15.2c-17.1-16.8-34-33.2-50.8-49.7c4.5,2.3,8.6,5.1,12.2,8.4
					c12.1,11.3,23.9,22.9,36.1,34.1c6.7,6.2,4.5,6,11.6,0.6c3.2-2.5,6.5-4.8,9.8-7.2c6-4.5,13.1-6.7,20.2-4.9
					c9.3,2.4,18.6,5.6,27.3,9.6c3.3,1.5,6,5.9,7.5,9.5c2.3,5.6,3.3,11.6,5.1,18.6c6.7-1.8,14-3.7,21.2-5.9c0.9-0.3,1.5-1.9,2.1-3.1
					c6.9-14.1,13.8-28.3,20.8-42.4c4.1-8.3,10.7-15.7,8.7-26.2c0.7,1.2,1.5,2.5,2.2,3.8c6.5-3.7,12.8-7.3,19.2-10.9
					c-9.2-8.3-9.2-8.3-7-11.6c10.4,12,10.9,10.3,21.1,4c31-19,61.9-38.1,93-57c3.1-1.9,6.8-3.2,10.3-3.9c2.1-0.4,4.5,0.8,6.7,1.3
					c0.1,0.7,0.2,1.4,0.3,2.1c-42.6,30.4-87.7,56.7-133.4,82.4c0.5,1,1,1.9,1.6,3.1c-1.8-0.3-3.1-0.5-4.4-0.7c0.3,0.3,0.7,0.7,1,1
					c-11.4,18.4-22.8,36.8-34.6,55.7c3.8-1.5,7.3-3,10.8-4.3c14.7-5.5,29.5-11,44.2-16.3c9.1-3.3,19-5.1,27.4-9.7
					c28.2-15.4,59-21.4,90.2-26c1.4-0.2,2.8-0.5,4.3-0.8c-4.2-2-7.9-3.6-11.4-5.6s-7-4.2-10.2-6.6c-10.6-8.2-13-15.2-7.5-27.5
					c5.9-13.3,13-26,19.6-38.9c0.7-1.4,1.9-2.5,3.6-4.5c-4.2,11-8.4,20.7-11.6,30.7c-2.1,6.5-2.9,13.5-3.8,20.3c-0.2,1.6,1,4,2.3,5
					c5.9,4.4,12.1,8.5,18.8,13.1c2.8-9.9,5.2-18.6,7.7-27.3c0.5,0.1,1,0.3,1.5,0.4c-1.9,8.9-3.9,17.8-5.8,26.6
					c6.7,3.8,7,3.7,9.4-2.9c1.8-4.9,3.6-9.7,5.7-15.5c0.7,1.6,1,1.9,0.9,2.1c-1.1,4.1-2.3,8.1-3.4,12.2c-2.2,7.6-2.3,7.8,5.1,10.9
					c4.1,1.7,8.4,3.8,12.7,4c13.9,0.5,27.9,0.1,41.8,0c9.2,0,18.3,0,27.1,0c2.3-18.7,4.6-36.9,6.8-55c0.5,0,1,0.1,1.5,0.1
					c-0.8,18.3-1.5,36.6-2.3,55.4c5,0.5,11.1,1.1,16.5,1.7c-0.3-3.3-1.1-6.3-0.6-9.1c2.3-12.9,5-25.8,7.6-38.7c0.3-1.4,1-2.7,1.5-4
					c0.4,0.1,0.7,0.2,1.1,0.4c-1.9,17.2-3.8,34.4-5.7,52.1c9.7,0.7,18.2,1.3,27.1,2c0-2.8-0.2-5.1,0-7.3c0.7-6.2,0-13.3,2.8-18.4
					c6.8-12.2,15.2-23.6,23.3-35c3.9-5.5,7.8-10.8,8.5-17.7c0.5-5.1,0.8-10.3,1.2-15.4c3.1,14.7,1.9,28.6-8.2,39.7
					c5.8,0,11.4-0.2,17,0.1c5.5,0.3,7.7,2.8,8.3,8.3c1.1,8.7-3,15.4-8.2,22c-0.2-2.8,0.4-5.3,1.1-7.9c0.8-3.2,2.2-6.4,2.4-9.7
					c0.4-7.7-2-9.1-9.5-6.5c1.6,0.3,3.2,0.7,5.7,1.2c-7.2,3.8-13.2,7.3-15.2,14.8c-0.2,0.8-1.1,1.6-1.9,2.2c-3,2.4-3.9,5-1.4,8.3
					c1.7,2.3,0.8,4.3-1.6,4.9c-2.2,0.6-5.5,1.1-6.7,0c-1.9-1.7-3.2-4.9-3.2-7.5c0-3.7,1.5-7.5,2.4-11.2c-0.5-0.1-0.9-0.3-1.4-0.4
					c-1,3.7-3,7.4-2.9,11.1c0.3,7.7,1.5,15.4,2.8,23c0.3,1.5,2.4,3.5,3.9,3.8c7.7,1.4,15.4,2.6,23.1,3.3c15.7,1.4,31.4,2.4,47.1,3.5
					c16.9,1.2,33.7,2.6,49.4,9.8c4,1.8,8.5,2.5,12.8,3.7c-0.2-2-0.9-3-1.7-4c-6-7.7-12.4-15.1-17.9-23.1
					c-9.1-13.2-18.8-26.1-26.1-40.3c-5-9.7-10.1-17.7-19.9-23.2c-6.4-3.6-11.4-9.5-17-14.4c0.4-0.5,0.8-0.9,1.1-1.4
					c5,3.6,9.6,8.2,15.2,10.7c13.7,6,25.6,13.5,31.5,28.1c0.4,1,1.3,1.8,1.9,2.8c13.8,21.2,27.5,42.5,41.4,63.6
					c1.4,2.1,3.9,4,6.2,4.7c15.2,4.2,30.4,8.1,45.7,12c2.3,0.6,4.6,1.1,7.7,1.8c-0.6-4.4-1.6-8.1-1.5-11.7c0.1-4.5-1.8-5.4-5.8-5.2
					c-3,0.2-6.2-0.2-9.2-0.8c-3.5-0.7-4.2-2.3-3.5-5.3c4.7,4.4,10.4,2.7,15.8,2.2c4.2-0.4,2.5-4.3,3.6-6.5c0.6-1.3,0.8-2.9,1.6-4
					c3.9-5.1,3.3-10.2,0.4-15.5C913.9,733.2,911.9,729,909.9,724.9z M220.7,819.2c0.4-1.3,1.4-2.6,2.4-3.5c1.1-1,2.5-1.5,3.8-2.3
					c0.1,1.5,0.2,3.1,0.3,4.7c0.4-0.1,1.2-0.3,3.6-0.8c-2.4,3-4.1,5.1-5.8,7.1c-1.6-0.2-3.6,0-4.5-0.9
					C219.9,822.8,220.3,820.6,220.7,819.2z M203.7,799.8c0.3-0.3,1.1-0.2,2.4-0.3c-1.8,6.9-3.6,13.3-5.6,21c3.3-1.2,5-1.8,7.3-2.6
					c-1,4.3-3.7,6.6-7.1,7.1c-1.5,0.3-4.9-2.2-5-3.6C195.3,813.3,198.5,806.1,203.7,799.8z M284.8,766.9
					c-17.7-7.6-35.4-15.4-53.2-23c-1.6-0.7-3.6-0.7-5.5-1.1c-2.2-1.7-4.5-3.8-7.1-5.4c-24.6-14.7-49.4-29.3-74-44.1
					c-5.7-3.4-10.9-7.5-16.3-11.4c-2.6-1.9-5.5-3.9-4.8-7.4c32.4,12.4,59.9,33,90.2,49.5c1.3-8.9,2.6-17.4,3.8-25.9
					c0.4,0,0.8,0.1,1.2,0.1c0,3.1,0.1,6.1,0,9.2c-0.2,3.7-0.7,7.4-1,11.1c-0.5,8.1-0.3,8.4,7.8,11.9c1.8-4,3.7-8,5.5-12
					c0.3,0.1,0.7,0.3,1,0.4c-0.9,3.2-1.7,6.3-2.7,9.5c-1,3.1,0,5,3,6.7c16.7,9.4,33.3,19,49.9,28.5c1.9,1.1,3.8,2.3,5.5,4.2
					C287,767.5,285.9,767.4,284.8,766.9z M288.2,633.2c-1-0.4-2-0.7-3-1.1c-36.5-14.8-71-33.4-103.7-55.3c-3.5-2.3-8.1-4.4-7.5-10.9
					c38.6,22.4,76.6,44.4,114.6,66.4C288.4,632.6,288.3,632.9,288.2,633.2z M290.7,642.4c6.5,0.4,13,0.8,19.5,1.1c0,0.3,0,0.6,0,0.9
					c-6.5-0.3-13-0.6-19.6-0.9C290.7,643.1,290.7,642.7,290.7,642.4z M290.8,658.1c14,2.7,26.7,5.2,37.9,7.4
					C317.1,665.6,304.4,663.2,290.8,658.1z M597.4,508.5c5.4,10.5,10.8,20.9,16.2,31.4c-0.4,0.3-0.9,0.6-1.3,0.8
					c-6.8-9.8-14.1-19.4-16.5-31.4C596.3,509,596.9,508.7,597.4,508.5z M577.1,631.1c6.8-13.7,13.2-26.6,20.1-40.7
					C598.6,597.4,582.8,629.3,577.1,631.1z M585.5,533.3c3.1,8,6.2,16,9.2,24.1c-0.5,0.2-1,0.4-1.5,0.6c-3.3-8-6.6-16-9.8-23.9
					C584.1,533.8,584.8,533.5,585.5,533.3z M584.9,598c1.6-10.7,2.4-21.5,3.9-32.3c-0.7,10.5-1.2,21-2.3,31.5
					c-0.3,3.3-1.7,6.6-3.4,9.5c-1.1,2-3.4,3.2-5.2,4.8c-0.3-0.4-0.6-0.7-0.8-1.1C582.7,608.3,584.2,603,584.9,598z M577.9,575.7
					c0-0.1,0.1-0.1,0.6-0.6c-1.7,12.6-0.3,25.1-6.2,35.7C574.1,599.6,576,587.6,577.9,575.7z M611.2,725.9c8.5,0.4,13.2-5,18.2-10.4
					c-6.2-4.3-12-8.9-18.4-12.6c-2.6-1.5-6.3-1.5-9.5-1.3c-8.7,0.5-17.7-2.2-26.1,2.8c-6.9,4.1-8.8,10.1-4.5,16.6
					c-4.3,1.9-8.4,0.9-9.4-3c-2.2-8.3-2.9-15.3,6.4-19.9c8.5-4.2,16.9-8.7,25.4-13.2c5.4-2.8,10.9-2.5,15.9,0.3
					c9.4,5.2,20,9,25.3,19.6c0.6,1.1,2.6,1.5,4,2.3C634.5,719.6,618.2,732.5,611.2,725.9z M626.8,660.4c8.4,3.3,15.8,6.2,22.8,8.9
					C641.6,669.4,634.4,665.9,626.8,660.4z M615.3,642.8c12.1,11.7,25.1,21.6,42.7,22.7C638.9,667.3,626.3,656.6,615.3,642.8z
					 M670.8,565.7c-7-2.1-14-4.2-21-6.4l0.6-1c6.9,2.1,13.8,4.2,20.7,6.2C671,565,670.9,565.4,670.8,565.7z M682.3,737.8
					c-0.6-3.1-1.6-5.2-1.1-6.8c3.2-11,6.7-22,10.1-32.9c0.1-0.4,0.7-0.6,1-0.9C694.1,699.8,686.6,732.6,682.3,737.8z M704.8,672.6
					c-0.4-0.3-0.8-0.6-1.3-0.9c4.8-7.3,7.7-15.9,16-20.6C714.6,658.2,709.7,665.4,704.8,672.6z M787.6,741.4h9c0,0.4,0,0.9,0,1.3
					h-9.1C787.5,742.3,787.5,741.8,787.6,741.4z M766.6,667.1c5.3,10.7,9.5,21.9,9.9,34.2c0.2,6.9-2.2,12.6-5.3,18.3
					c-3.5,6.5-6.6,13.2-9.8,19.9c-1.1,2.2-2,4.5-3.1,6.8c-0.6-0.2-1.2-0.5-1.7-0.7c1.4-5.1,2.7-10.2,4.4-16.3
					c-9.3,5-16.7,12.7-28.2,12.5c3.5-4.7,7-9.3,10.4-14c1.6-2.1,3.5-4.2,4.4-6.6c2.7-7,4.9-14.3,7.3-21.4c0.4,0.1,0.8,0.2,1.2,0.4
					c-2.1,7.2-4.1,14.4-6.3,21.9c9.4-2.6,17.3-12.2,17.7-21.2c0.5-11.1-1-22-5.8-32c-1.8-3.6-5.2-6.6-8.1-9.5c-2-2-4.6-3.6-6.9-5.3
					c0.6-0.6,1.2-1.3,1.8-1.9C755.2,656.1,762.9,659.5,766.6,667.1z M816.6,635.8c-0.2-0.4-0.3-0.8-0.5-1.3
					c7.6-2.9,15.2-5.8,22.8-8.8c0.2,0.4,0.3,0.8,0.5,1.3C831.8,629.9,824.2,632.8,816.6,635.8z M924.5,751.3c-0.6,0-1.2,0.1-1.8,0.1
					c-1.1,3.2-2.2,6.4-3.6,10.8c3.8-0.8,6-1.2,8.7-1.7C926.5,756.9,925.5,754.1,924.5,751.3z M929.9,767.7c-0.6-1.3-4.7-1.5-7.1-1.3
					c-1.2,0.1-3.2,2.1-3.3,3.4c-0.3,4.3-0.1,8.7,0.2,13.1c0.1,1.1,1.2,2.8,2.2,3.1c4.4,1.3,9,2.3,14,3.5c0-1.8,0.3-2.9,0-3.9
					C934,779.5,932.4,773.4,929.9,767.7z M952.3,752.7c-10.1,0.7-10.5-5.8-11.6-12.6c-1.8,1.7-3.6,3.6-3.4,5.3
					c0.5,4.5,1.5,8.9,3,13.2c0.8,2.4,3.2,4.6,6,1.9C948.4,758.5,949.9,755.9,952.3,752.7z M147.6,475.7
					c18.7-9.8,37.5-19.1,56.3-28.6c1.5-0.8,3.1-1.5,4.2-2.1c-5.1-14.2-10-27.8-15.2-42c-22.7,25.4-45.2,50.5-67.9,75.9
					c5.4,4,11,7.9,8.8,15.8c1.9,0.5,3.4,1,5.6,1.6c-0.1-1.3-0.1-1.9-0.2-2.5C137.2,482.9,137.8,480.9,147.6,475.7z M24.3,867.9
					c-1.3,1.5-1.9,1.9-2.1,2.4c-3.2,6.7-6.3,13.4-9.3,20.1c-0.3,0.8,0.3,2.1,0.7,3c1.3,2.6,2.8,5.1,4.3,7.5c1.7,2.9,3.6,5.7,8.3,2.3
					C14.8,892.5,23.1,880.6,24.3,867.9z M58.9,857.1c-2.4-2.8-6-4.7-8.9-7c-4,5.6-7.4,10.1-10.7,14.7c0.4,0.3,0.8,0.6,1.2,0.9
					c4.6-3.2,8.6-7.4,14.4-8.1c0.3,0.4,0.7,0.8,1,1.2c-2,3.6-4,7.1-6.3,11.3c1.8-0.9,2.9-1.8,4-2c2.7-0.6,5.4-0.8,8-1.2
					c-1.2,2.5-1.9,5.5-3.7,7.5c-1.4,1.6-4.1,2.5-6.3,2.7c-0.9,0.1-2.2-2.2-3.2-3.4c-5.1,10.1-5.8,10.4-13.8,6.8
					c-0.2,2.7-1.8,5.6,0.9,6.4c-0.6,4.5-1.2,8.4-1.9,13.5c9.7-4,18-8,26.7-11c6.5-2.2,11.9-11.3,8.4-18
					C66.1,866.3,62.6,861.5,58.9,857.1z M304.6,799.9c-1.1-0.4-2.3-4.3-1.5-5.3c1.4-1.9,3.9-3.6,6.2-4.2c4.2-1.1,8.6-1.4,13.3-2
					c-4.8-6.4-7.2-6.9-12.9-3.1c-1.5,1-2.9,2.6-4.5,2.8c-2,0.3-4.1-0.6-6.2-1c0.7-1.7,1.2-3.5,2.2-5.1c0.6-0.9,1.9-1.4,3.4-2.4
					c-9.6-4.1-18.6-4.8-26.8,1.2c-8.5,6.3-16.5,13.1-24.4,20.2c-7.5,6.7-8.4,15.4-5.4,24.6c2,6.4,3.6,6.9,10.1,3.5
					c-1-1.5-2-2.9-2.9-4.4c-3.3-5.7-3.8-11.3-0.1-14.4c8.3-7,15.6-15.8,27.4-17.4c1.1-0.2,2.2-0.6,3.3-0.9c0.1-0.7,0.1-1.4,0.4-2
					c0.7-1.5,1.5-3,2.3-4.5c1.4,0.8,3.4,1.3,4.2,2.6c2.7,4,5,8.3,7.4,12.5c0.9,1.5,1.5,3.1,2.4,4.7c0.6,1.1,2.2,2.9,1.9,3.2
					c-1.3,1.5-2.9,3-4.7,3.7c-1.3,0.5-3.1-0.3-4.2-0.5c-4.3,3.8-8.4,7.4-12.7,11.3c13.6-4.4,26.8-8.6,40-13c0.8-0.3,2-1,2.1-1.7
					c0.5-4.5,0.8-9.1,1.3-14.8c-5.4,2.9-9.2,5.4-13.4,6.9C310.2,801.2,307,800.8,304.6,799.9z M702.4,740.6
					c-0.3,4.3,1.4,5.5,5.2,4.4c-1.4-6.3-2.9-12.4-4.3-18.5C702.5,731.2,702.7,735.9,702.4,740.6z M100.9,860.6
					c-0.1-1.4-1.4-2.7-2.3-3.9c-3.8-4.6-4.1-10.3-1.2-14.9c2.6-4.2,5.1-8.6,7.2-13.1c3-6.4,2.8-6.5-3-10.8
					c-4.5,4.7-8.8,9.6-7.5,18.1c-3.1-1.2-5.6-1.4-6.9-2.8c-4.4-4.3-4.9-9.8-3.1-14.8c-2.1-0.9-3.7-1.6-5.2-2.3
					c1.2-1.1,2.2-2.4,3.5-3.3c2.2-1.5,5-2.6,4.3-4.8c-6.2-0.8-11.9-0.5-16.9-2.3c-7.7-2.8-14.7-7.4-22.3-10.6
					c-9.4-3.9-19.1-7.3-28.7-10.6c-3.3-1.1-7.4-2.5-10.3-1.5c-5.4,1.9-10.4,5.2-15.1,8.6c-4.7,3.4-8.7,7.8-13.2,11.4
					c-9.1,7.4-9.3,7.6-5.1,18.6c0.3,0.8,0.5,1.5,0.7,2.3c2.7,11.3,5.1,22.7,8.2,33.9c2.6,9.7,5.2,19.5,9.3,28.6
					c3.3,7.4,8.8,13.9,13.4,20.6c0.5,0.8,2.1,0.8,3.2,1.2c0.1-1,0.6-2.2,0.3-3.1c-0.9-2.4-1.9-4.8-3.3-6.9c-3.4-5.1-3.2-8.3,0-13.3
					c3.6-5.6,6.4-11.7,9.8-17.8c-4.9,0.6-9.4,1.1-13.9,1.6c-0.1-0.6-0.2-1.1-0.4-1.7c1.7-0.6,3.3-1.5,5-1.8
					c3.4-0.6,7.1-0.1,10.1-1.4c5-2.1,10.1-4.5,14-8c2.9-2.6,4-7.2,6.1-11.4c-3.8-2-7.8-4.2-11.8-6.1c-0.8-0.4-2.3-0.5-2.7,0
					c-4,5.1-11.3,5.8-14.8,12.1c-4.4,8-12.7,7.5-17.3-0.4c-5.2-9-6.2-19-6.2-29.1c0-3.9,3.3-6.1,7.6-5.3c4.6,0.9,9.3,1.9,13.6,3.7
					c21,8.5,41.9,17.5,62.9,26c6.8,2.7,10.3,7.1,12,14c1.5,6.2,3.7,12.3,5.8,18.9c7.7-2.8,14.5-5.3,22.6-8.2
					C101.2,868.3,101.3,868.3,100.9,860.6z M26.3,855.6c-7.7,4.1-19.3,6-25.2,2.9C9.6,857.5,18.1,856.5,26.3,855.6z"/>
			</g>
		</g>
	</g>
	<g id="Outline" style="clip-path:url(#SVGID_00000039847819575859234200000014967868635491068834_);">
		<g>
			<g>
				
					<linearGradient id="SVGID_00000062910392531975732490000014425825553965751201_" gradientUnits="userSpaceOnUse" x1="491.45" y1="-12.8999" x2="491.45" y2="1058.7698" gradientTransform="matrix(1 0 0 -1 0 1050)">
					<stop  offset="0" style="stop-color:#3329FF"/>
					<stop  offset="6.894553e-02" style="stop-color:#2E25DF"/>
					<stop  offset="0.1748" style="stop-color:#271FB5"/>
					<stop  offset="0.2866" style="stop-color:#211A90"/>
					<stop  offset="0.4031" style="stop-color:#1C1673"/>
					<stop  offset="0.5258" style="stop-color:#19135C"/>
					<stop  offset="0.6577" style="stop-color:#16114C"/>
					<stop  offset="0.8051" style="stop-color:#140F42"/>
					<stop  offset="1" style="stop-color:#140F3F"/>
				</linearGradient>
				<path style="fill:url(#SVGID_00000062910392531975732490000014425825553965751201_);" d="M987,1035.3c-1.6-0.8-3.3-1.4-5-2
					c-7.6-2.9-15.2-5.8-22.9-8.7c-0.1,0.3-0.2,0.6-0.3,0.9c12.4,6.7,24.7,13.4,37.1,20.1c-0.2,0.5-0.4,0.9-0.6,1.4
					c-1.6,0-3.2,0-4.8,0c-29.6,0.1-59.1,0.1-88.7,0.2c-57.8,0-115.6,0-173.4,0c-3.4,0-6.9,0.1-10.2-0.5
					c-18.5-3.4-37.1-6.7-55.4-10.8c-30.4-6.8-61.1-10.6-92.3-8.8c-30.5,1.8-60.9,4-91.3,6.9c-22.4,2.1-44.8,5.4-67.1,8.4
					c-8.2,1.1-16.2,4.3-24.3,4.4c-37.7,0.4-75.3,0.1-113,0.1c-1.3,0-2.7-0.2-4-0.3c18.7-6.4,37.6-11.7,56.4-17s37.6-11.3,56.6-15.9
					c19.2-4.7,38.7-8.5,58.2-11.9c19.2-3.3,38.5-5.7,57.7-8.5c-20.5,0.3-40.9,0.8-61.2,3c-33.4,3.6-66.2,10.6-98.4,20.4
					c-32,9.7-64.4,18.1-96.7,26.8c-5.9,1.6-12,3-18.1,3.2c-17.4,0.4-34.7,0.1-52.1,0.1c-1.5,0-2.9-0.2-4.4-0.3c0-0.4,0-0.7-0.1-1.1
					c13.9-4.7,27.8-9.5,41.7-14.2c-0.2-0.6-0.3-1.1-0.5-1.7c-1.8,0.3-3.6,0.5-5.3,1c-14.8,4.3-29.6,8.8-44.4,13
					c-5.3,1.5-10.7,2.9-16.2,3.2c-10.2,0.5-20.5,0.1-30.7,0.1c-1,0-1.9-0.3-4-0.6c1.9-0.7,2.6-1.1,3.4-1.3
					c32.4-10.5,64.8-20.9,97.2-31.5c1.8-0.6,3.2-2.1,4.8-3.2c-1.9-0.2-3.9-0.9-5.6-0.4c-8.4,2.5-16.6,5.5-24.9,7.9
					c-33.1,9.5-66.2,18.9-99.4,27.9c-6,1.6-12.7,1.1-19,1.6c-0.1-0.4-0.1-0.9-0.2-1.3c1.1-0.5,2.2-1,3.4-1.4
					c31.6-10.8,63.1-21.9,94.9-32.2c24.9-8.1,50-15.1,75.1-22.6c1.5-0.5,2.9-1.3,4.4-2c-0.1-0.6-0.3-1.1-0.4-1.7
					c-1.9,0.2-3.8,0.1-5.6,0.6c-34.7,10.1-69.5,20.1-104.1,30.4c-31.8,9.4-63.4,19.3-95.1,28.7c-3.3,1-6.8,0.9-10.3,1.3
					c-0.1-0.5-0.2-0.9-0.2-1.4c35.4-13.8,70.8-27.5,106.2-41.3c-0.2-0.6-0.4-1.1-0.6-1.7c-45.4,13.2-89.5,30.7-134.9,43.9
					c0.8-1,1.7-1.6,2.7-1.9c30-10.5,59.8-21.7,90.1-31.3c41.3-13.1,83-24.9,124.6-37.3c1.7-0.5,3.3-1.5,5-2.2
					c-0.3-0.8-0.6-1.6-0.9-2.4c-33.9,7.9-67.6,17.2-101.1,26.7c-33.8,9.6-67.3,20.2-101.1,30.4c35-15.9,70.9-29,107.9-39
					c-0.2-0.7-0.4-1.4-0.6-2.2l-43.3,11.2c14-5.4,28.1-10.2,42.4-14.6c12.7-3.9,25.4-9,38.4-10.4c37.6-4,75.3-7,113.1-9.3
					c43.7-2.7,87.7-2.7,131.1-9c27.7-4.1,55.3-9.6,82.8-15.4c13.9-2.9,26.6-9.5,38.6-17c6.1-3.8,6.2-6.5,0-10.1
					c-3.5-2-7.7-3-11.8-3.5c-5.9-0.6-12-0.3-18-0.5c-22-0.8-44.1-1.9-66.1-2.3c-10.5-0.2-21,0.8-31.6,1.3c2.3,0.6,4.5,0.8,6.8,0.6
					c37-2.5,73.9,1.7,110.9,2.8c5.3,0.1,8.9,3,12.9,6.8c-1.8,1.4-3,2.8-4.5,3.5c-13.4,5.8-26.4,13-40.3,16.8
					c-46.5,12.5-94.1,17.6-142,19.7c-54,2.4-108.1,3.9-161.9,9.7c-0.5,0.1-1-0.1-1.5-0.2c5.4-2.3,10.9-3.6,16.2-5.4
					c5.1-1.7,10.8-1.7,15-5.7c-22.5,4.7-44.6,10.8-67.1,15.4c-22.6,4.6-45.6,7.5-68.4,11.1c-0.1-0.4-0.2-0.7-0.3-1.1
					c52.2-14.3,104.4-28.6,156.7-43c-0.2-0.6-0.3-1.1-0.5-1.7c-82.9,19.1-166.1,37-245.9,67.4c0.7-1,1.6-1.7,2.6-2.1
					c40-17.5,79.7-35.7,121.6-48.7c20.3-6.3,40.3-13.5,61.6-15.9c5.4-0.6,10.7-2.2,16.1-3.3c-7.4,1.1-14.7,2.3-22.1,3.4
					c-0.1-0.4-0.2-0.8-0.2-1.3c16.2-3.5,32.4-7,48.6-10.5c-0.1-0.7-0.2-1.4-0.4-2.1c-2.9,0.4-5.8,0.7-8.6,1.1
					c-50.8,8.6-99.9,23.4-148.5,39.9c-26.6,9-52.3,20.4-78.5,30.7c-1.5,0.6-3.1,0.7-4.6,1.1c-0.2-0.6-0.4-1.3-0.6-1.9
					c4.5-2.4,9-4.8,13.6-7.1c26.1-12.9,52.8-24.2,80.4-33.6c1.8-0.6,3.4-1.9,5.1-2.8c-0.3-0.6-0.5-1.2-0.8-1.8
					c-1.6,0.3-3.3,0.3-4.9,0.9C35.2,961,3.8,973-26.1,988.6c-3.6,1.9-5.2,0.9-6.9-2.8c70.2-29.8,141.8-54.6,214.6-76
					c-48.5,10.5-95.8,25.2-143,40.4c25.9-10.4,51.9-20.8,77.8-31.3c-0.1-0.3-0.2-0.6-0.3-0.8l-90,30.1c-0.2-0.5-0.3-1-0.5-1.5
					c71.2-25.2,142-51.6,215.8-69.7c-0.6-0.6-0.9-1-1.1-1c-55.5,11.1-109.4,27.7-163.1,45.2c13.2-6.4,26.4-12.3,39.9-17.7
					s27.2-10.3,40.8-15.4c-21.1,3.5-40.9,11.2-61.1,17.8c19-13.3,149.9-59.4,167.5-59.1C230.8,859,198,871,166.5,886.3
					c3.8-0.2,7.4-0.9,10.9-2C227.9,867.6,278.5,851,329,834c38.5-13,76.7-26.4,115.1-39.7c26.8-9.3,54.4-13.7,82.7-13.9
					c15.6-0.1,31.2,1.3,46.7,0.5c51.7-2.6,103.4-6,155.1-8.7c18.9-1,37.9-1.4,56.9-1.4c23.2-0.1,45.8,4.1,68.5,8.8
					c4.5,0.9,8.5,2,11.4,5.6c0.2,0.3,0.8,0.2,1.5,0.4c-0.1-1.3-0.2-2.3-0.3-4c5.7,1.6,10.9,3.2,16.3,4.4c22.4,5.4,44.8,10.6,67.3,16
					c1.7,0.4,3.9,0.8,4.8,2c2.5,3.3,4.5,2,7.7-0.2c-7.4-1.2-1.5-5.8-2.9-8.3c-3.2-0.9-6.3-1.7-9.3-2.6c4.2-2.6,10.2,0.1,12.1-6.8
					c-3.9-0.2-7.3-0.3-10.8-0.5c0.3-0.9,0.3-1.3,0.5-1.5c2.1-3.1,4.1-6.2,6.2-9.3c4.9-7.3,4.7-8.3-2.8-13c3.1-6.3-6.1-11.7-1.7-18.5
					c2,1.2,3.7,2.3,5.5,3.4c2.9-2.7,2.7-4.8-0.6-6.6s-6.3-4-9.8-5.4c-2.5-1-3.1-2.3-3-4.6c0.3-10.7,0.4-21.3,0.6-32
					c0.1-5.3,1.4-10.9,0-15.8c-5.9-21.7-12.6-43.2-19-64.8c-0.3-0.9-0.4-2.4-1-2.7c-6.5-2.9-0.7-4.6,0.7-6.5
					c1.1-1.6,2.6-2.9,3.9-4.3c17.2-19.2,34.5-38.4,51.6-57.7c3.3-3.8,6.7-6.6,6.1-13.5c-1.9-22.7-2-45.6-2.9-68.5
					c-0.2-5.6-2.6-9.1-8.9-10.5c-8.4-1.8-16.4-4.9-24.6-7.4c-10.9-3.3-21.6-7.3-32.6-9.5c-13.3-2.6-27-4.1-40.5-5
					c-7-0.5-10.3-3.6-12.4-9.7c-4.4-12.9-9.2-25.6-13.5-38.5c-0.6-1.9,0-4.6,0.9-6.4c3.5-6.6,7.5-13,4.9-21
					c-1.8-5.4-0.7-10.5,1.2-15.6c1.3-3.3,2.4-6.7,3.2-10.2c0.5-2,0.3-4.1,0.1-6.1c-0.5-6.7-6.1-8.2-11-10.1
					c-11-4.3-12.4-6.1-13-17.8c-0.2-4-0.8-8.1-0.8-12.1c0-3.1-1.1-4.4-4-5.6c-3.5-1.4-7.5-2.9-9.7-5.6c-5.5-7-10.2-14.6-15-22.1
					c-0.9-1.3-1.4-3.3-1.2-4.8c2.8-16.8-6.7-37-21.8-44.7c-4.5-2.3-9.7-3.1-14.6-4.6c-2.5-0.8-5-1.3-7.3-2.5
					c-9.2-4.9-18.6-9.2-29-10.7c-7.7-1.1-12.9-5-17.5-11.3c-10.5-14.3-19.9-29.7-35.2-39.9c-5-3.3-11.1-6.7-13.5-11.6
					s-0.5-11.7-0.8-17.7c-0.1-2.5-0.4-5.3-1.7-7.3c-6.2-9.5-12.7-18.8-19.2-28.1c-1.2-1.7-2.8-3.2-4.5-4.3C630.9,54,618,45.4,605,37
					c-8.8-5.7-17.9-11-26.7-16.7c-5.8-3.8-11.5-7.7-16.7-12.2c-5-4.5-10.9-8.6-12.9-16.2h-5.6c-114.2,0-228.3,0-342.5,0
					c-12.7,0-25.8-1.9-37.9,0.7c-12.1,2.6-23,10.2-34.8,14.8c-25.3,9.8-48,23.8-69,41C29.7,72.3-2.6,92.8-26.6,123
					c-1.8,2.3-3.9,4.4-5.9,6.5c-5.5,5.8-10.9,11.5-16.4,17.2v12.7c5.9-6.6,12.7-12.6,17.6-19.9c9.9-14.4,22.7-25.7,35.9-36.8
					c1.2-1,2.6-1.6,4.7-1.6c-3,3.9-6.4,7.5-9.1,11.6c-12.1,18.2-24,36.6-36.1,54.8c-4.1,6.2-8.7,12-13,18v12.7
					c3.2-5.6,6.5-11.2,9.5-16.9c6-11.4,12.9-22.1,21.9-31.5c1.3-1.4,2.4-3,3.3-5.1c-1.2,0.7-2.4,1.3-3.6,2c0-0.4-0.2-0.8-0.1-1
					c15.7-22.6,29.2-47,49.4-66.1c11.3-10.7,24.2-19.6,35.7-30c11.1-10,23.8-17.2,37.2-23.3c4.1-1.9,7.9-4.6,11.6-7.2
					c14.2-9.9,31.1-13.7,46.8-20.3c2.1-0.9,4.8-0.8,7.2-0.8c113.7,0,227.4-0.2,341,0.3c9.9,0,19.8,4.7,29.7,7.2
					c-0.1,0.6-0.2,1.1-0.3,1.7c-8.3-0.5-16.6-0.9-24.9-1.4c-63.7-3.3-127-0.6-189.5,12.8c-23.8,5.1-47.3,11.7-70.4,19.1
					c-15.8,5.1-30.8,12.7-46.2,19.2c-1.5,0.6-2.9,1.2-4.9,0.9C220,46.4,235.6,35,251.1,23.6c0-0.1-0.1-0.3-0.1-0.4
					c-1.4,0.8-2.8,1.5-4.1,2.4c-15.9,11.4-31.5,23-47.7,33.8c-15,9.9-30.8,18.7-46,28.3c-32.7,20.7-62,45.4-88.5,73.6
					C34.7,193.2,9,228.4-11.7,267c-12.7,23.5-23.6,48-35.2,72.1c-0.6,1.1-1.3,2.2-1.9,3.3v17.5c6.6-15.7,13.1-31.4,19.9-46.9
					c3.8-8.7,8.3-17.1,12.4-25.7c0.4,0.1,0.8,0.2,1.3,0.3c1.6,27.7,3.2,55.4,4.9,83.5H-29c3.9-7.9,7.7-15.4,11.4-23l-0.9-0.7
					c-1,1.2-2.1,2.3-2.8,3.7c-3.1,5.7-5.9,11.6-9.2,17.1c-0.9,1.6-3.3,3-5.1,3.2c-4.3,0.5-8.7,0.2-13.1,0.2v3.9H-34
					c-5.1,11.2-9.9,21.6-14.7,32.1c0,3.2,0,6.5,0,9.7c4.4-10.6,8.5-21.3,13.2-31.7c5.8-12.8,2.1-10,15.6-10.4c2.8-0.1,5.7,0,9.6,0
					c-4.5,8.9-7.2,18-12.9,24.4c-4.7,5.3-6.3,11.2-8.8,17.1c-4.2,10-7.9,20.1-11.8,30.1c-0.5-0.1-0.9-0.1-1.4-0.2
					c-1.2-8.1-2.4-16.3-3.6-24.4c0,22.4,0,44.8,0,67.2c1.5-5.3,3.5-10.5,4.5-15.8c4-20.1,11.7-38.7,20.4-57.1
					c21.8-46,46.4-90.4,76.5-131.5c12.5-17.1,26.1-33.5,39.2-50.2c1.4-1.8,3-3.3,5.1-4.8c-1.2,7.7,3.1,15.8-2.5,23.2
					c-3.3,4.3-1.5,9.3-0.3,14c0.7,3.1,1.5,6.4,1.2,9.4c-0.9,8-2.3,16-3.8,24c-0.2,1.1-1.8,2.7-2.9,2.8c-5.9,0.6-11.9,0.8-17.9,1.3
					c-9.7,0.8-16.5,6-21,14.4c-2.1,3.8-4.9,7.1-7,11s-4.1,8-5.2,12.2c-1.6,6.4-2.8,7.2-8.9,9.2c-5.7,1.9-11,5.2-15.8,8.8
					c-2,1.5-2.5,5.4-3,8.3c-1.1,5.9-2,11.8-2.4,17.7c-0.8,9.2-1.3,18.4-1.5,27.6c-0.1,2.4,1.5,4.8,2.6,7.9
					c-5.9,1.9-11.9,4.4-18.1,5.8c-11.3,2.5-19.3,8-21.8,19.9c-0.8,3.6-2.9,6.9-4,10.4c-2.1,7-0.2,13,4.6,18.5
					c1.6,1.9,3.2,4.2,3.7,6.6c1.7,8,5.5,14.6,11.9,19.5c4.2,3.2,4.3,6.4,1.2,10.2c-4.3,5.3-9.3,10.1-12.8,15.8
					c-7.3,11.8-13.8,24.2-20.6,36.3c-0.5,0.8-0.9,1.7-1.4,2.5V722c1.6,3.7,4,7.2,4.7,11.1c1,5.5,0.6,11.2,1.2,16.8
					c0.5,5.1-1.7,8.5-5.9,11.1c0,6.8,0,13.6,0,20.4c2.8,3.5,5.7,6.9,8.5,10.5c2.9,3.8,5.6,7.7,8.9,12.2c-3.9,5.8-2.3,12.3,0.3,19.6
					c2.7,7.5,3.2,15.7,4,23.9c-4.6-14.8-10.6-28.7-21.7-39.9v21.4c1.6,4.3,3.6,8.6,4.6,13.1c1.6,7,3.3,13.9,8.5,19.3
					c3.9,4,7.9,7.5,13.1,4.8c5.6,15,11.2,29.8,17,45.2c-1.3,1.1-3.4,0.8-4.7-1.9c-1.6-3.2-2.6-6.6-4.3-9.7c-1.7-3-3.4-6.4-6-8.4
					c-5.1-4-9.2-8.4-11.8-14.5c-3.3-8-9.2-14-16.5-18.7v82.8c20.6-0.9,41-3.6,61-8.5c5.2-1.3,10.3-2.5,16-2.8
					c-1.4,0.7-2.7,1.5-4.2,2.2c-12.2,5.7-24.3,11.4-36.5,17.2c-12.3,5.8-21.6,15.7-32.3,23.6c-1.4,1-2.7,2.3-4,3.4
					c0,4.2,0,8.4,0,12.7c1.5,1,3.1,1.8,4.4,2.9c6.7,6,6.9,8.4,2.1,15.7c-2.3,3.4-4.3,7.1-6.5,10.6v44.8c229.4,0,458.7,0,688.1,0
					c130.8,0,261.7,0,392.5,0v-15.6C1015.2,1049.4,1001.1,1042.3,987,1035.3z M60.4,889.3c-8.7,3-17,6.9-26.7,11
					c0.7-5,1.3-8.9,1.9-13.5c-2.8-0.8-1.1-3.7-0.9-6.4c8,3.6,8.6,3.3,13.8-6.8c1.1,1.2,2.3,3.5,3.2,3.4c2.2-0.2,4.9-1.1,6.3-2.7
					c1.8-2,2.5-4.9,3.7-7.5c-2.7,0.4-5.4,0.7-8,1.2c-1.2,0.3-2.2,1.1-4,2c2.3-4.2,4.3-7.8,6.3-11.3c-0.3-0.4-0.7-0.8-1-1.2
					c-5.7,0.7-9.8,4.9-14.4,8.1c-0.4-0.3-0.8-0.6-1.2-0.9c3.3-4.6,6.6-9.1,10.7-14.7c3,2.2,6.5,4.1,8.9,7c3.7,4.4,7.2,9.1,9.9,14.2
					C72.3,878,66.9,887.1,60.4,889.3z M109.7,833.2c0.8-8.3,1.6-9,8.3-6.6C115,829,112.5,830.9,109.7,833.2z M127.5,851.5
					c-3.4-3.6-3.4-3.6,4.1-8.4C130,846.5,128.8,848.9,127.5,851.5z M153.8,839.6c-3.6,0.7-5.1,3.1-7.3,5.5c-2,2.2-5.9,2.6-8.9,3.9
					c-0.4-0.5-0.7-1-1.1-1.4c4.8-8.8,9.6-17.6,14.5-26.6c2.4,3.8,4.5,7,6.5,10.2C159.1,833.9,157.1,838.9,153.8,839.6z M160.8,814.1
					c2.3-2,4.8-3.8,7.3-5.6c1.2-0.8,2.5-1.4,5.1-2.9c-4.4,8.2-8.1,15.3-12,22.7C155.6,822.3,155.6,818.5,160.8,814.1z M168.4,843.4
					c-0.4,0.4-2.1-0.4-3.2-0.6c-1.8-0.4-3.7-0.8-5.5-1.2c0.1-0.4,0.3-0.7,0.4-1.1c3.1-0.4,6.2-0.8,10.1-1.3
					C169.5,840.9,169.2,842.4,168.4,843.4z M324.7,808.2c-0.1,0.7-1.3,1.4-2.1,1.7c-13.2,4.3-26.4,8.6-40,13
					c4.4-3.9,8.4-7.5,12.7-11.3c1.1,0.2,2.9,1,4.2,0.5c1.8-0.7,3.4-2.2,4.7-3.7c0.2-0.3-1.3-2.1-1.9-3.2c-0.8-1.5-1.5-3.2-2.4-4.7
					c-2.4-4.2-4.7-8.5-7.4-12.5c-0.8-1.2-2.8-1.7-4.2-2.6c-0.8,1.5-1.6,3-2.3,4.5c-0.3,0.6-0.2,1.2-0.4,2c-1.2,0.3-2.2,0.8-3.3,0.9
					c-11.8,1.6-19.1,10.4-27.4,17.4c-3.7,3.1-3.2,8.7,0.1,14.4c0.9,1.5,1.9,2.9,2.9,4.4c-6.4,3.3-8,2.8-10.1-3.5
					c-2.9-9.2-2-17.8,5.4-24.6c7.8-7,15.9-13.9,24.4-20.2c8.2-6.1,17.2-5.3,26.8-1.2c-1.5,1-2.8,1.5-3.4,2.4c-1,1.5-1.5,3.4-2.2,5.1
					c2.1,0.4,4.2,1.2,6.2,1c1.6-0.2,3-1.8,4.5-2.8c5.8-3.7,8.2-3.3,12.9,3.1c-4.7,0.7-9.1,0.9-13.3,2c-2.3,0.6-4.9,2.3-6.2,4.2
					c-0.7,1,0.4,4.9,1.5,5.3c2.4,0.9,5.7,1.3,8.1,0.4c4.2-1.5,8-4,13.4-6.9C325.5,799.1,325.3,803.7,324.7,808.2z M389.9,803.8
					c3.6-4,24.8-11.5,34.6-12C413.1,795.7,401.7,799.7,389.9,803.8z M765.3,764.7c-41,1.4-82,3-123,4.7c-25.1,1-50.2,2.8-75.3,3.6
					c-13.4,0.4-26.9-0.4-40.4-0.6c-26.1-0.4-51.8,3-76.8,10.8c-1,0.3-2.1,0.5-3.2,0.8c-0.2-0.4-0.4-0.8-0.5-1.2
					c9.6-4.7,18.8-10.5,28.8-14c25.4-8.7,51.6-13.6,78.3-16.7c19.6-2.3,39-3.8,58.7-2.7c15.5,0.8,31.1,1.1,46.6,2
					c12.1,0.7,24.3,1.2,36.3,3.2c8.5,1.4,17.1,1.1,25.5,2.6c8.8,1.6,17.7,2.4,26.6,3.1c17.3,1.4,34.6,2.4,51.9,3.6
					c1.6,0.1,3.2,0.4,4.9,0.7C791,764.6,778.1,764.3,765.3,764.7z M702.4,740.6c0.3-4.7,0.1-9.4,1-14.1c1.4,6.1,2.8,12.3,4.3,18.5
					C703.8,746.1,702.1,744.9,702.4,740.6z M935.9,789.4c-5-1.2-9.6-2.1-14-3.5c-1-0.3-2.1-2-2.2-3.1c-0.3-4.3-0.6-8.7-0.2-13.1
					c0.1-1.3,2.1-3.3,3.3-3.4c2.4-0.2,6.5,0,7.1,1.3c2.5,5.7,4.1,11.8,6,17.8C936.1,786.5,935.9,787.6,935.9,789.4z M919.1,762.2
					c1.5-4.4,2.5-7.6,3.6-10.8c0.6,0,1.2-0.1,1.8-0.1c1,2.8,2.1,5.6,3.3,9.1C925.1,761,922.9,761.4,919.1,762.2z M953,768.4
					c0.5,0.5,1.1,1,1.6,1.5c-1.3,2.6-2.7,5.3-4.2,8.3c-1.6-0.9-2.9-1.7-5.4-3.1C948.1,772.5,950.6,770.4,953,768.4z M940.8,740.2
					c1.1,6.8,1.5,13.3,11.6,12.6c-2.5,3.2-4,5.7-6,7.7c-2.8,2.8-5.1,0.5-6-1.9c-1.5-4.2-2.5-8.7-3-13.2
					C937.2,743.8,939,741.9,940.8,740.2z M929.5,638.6c3.5,12.1,6.6,24.3,9.6,36.6c0.5,2.2,0.1,4.8-0.2,7.1c-0.3,2.2-1,4.4-1.5,6.6
					c-2.3,10-4.5,20-6.8,30c-0.6-0.1-1.2-0.2-1.8-0.3c2-16.9,4.1-33.9,6.1-50.8c-0.4-0.1-0.8-0.1-1.2-0.2c-3.5,19.3-7,38.7-10.5,58
					c-0.5,0.1-1,0.2-1.5,0.2c-2.1-3.9-4.1-7.8-6.3-11.9c-2,0.3-4.2,0.3-6.1,0.9c-0.7,0.2-0.9,2-1.3,3c1.1,0.1,2.6,0.6,3.1,0.2
					c3-3,4.3-1.3,5.6,1.6c0.9,2.2,2,4.4,3.2,6.6c2.6,4.8,2.6,6-0.7,12.3c-3-4.9-5.8-9.5-8.7-14c-0.3,0.1-0.5,0.3-0.8,0.4
					c2.1,4.1,4,8.3,6.2,12.3c2.9,5.3,3.5,10.3-0.4,15.5c-0.8,1.1-1,2.7-1.6,4c-1.1,2.3,0.6,6.2-3.6,6.5c-5.4,0.5-11.1,2.2-15.8-2.2
					c-0.7,3,0,4.6,3.5,5.3c3,0.6,6.1,1,9.2,0.8c4-0.3,5.9,0.6,5.8,5.2c-0.1,3.6,0.9,7.2,1.5,11.7c-3.1-0.7-5.4-1.2-7.7-1.8
					c-15.2-4-30.5-7.8-45.7-12c-2.4-0.7-4.9-2.6-6.2-4.7c-13.9-21.1-27.6-42.4-41.4-63.6c-0.6-0.9-1.5-1.8-1.9-2.8
					c-5.8-14.6-17.8-22.1-31.5-28.1c-5.6-2.4-10.1-7.1-15.2-10.7c-0.4,0.5-0.8,0.9-1.1,1.4c5.6,4.9,10.7,10.8,17,14.4
					c9.7,5.5,14.9,13.5,19.9,23.2c7.3,14.2,17,27.1,26.1,40.3c5.5,8,11.9,15.4,17.9,23.1c0.8,1,1.5,2,1.7,4
					c-4.3-1.2-8.8-1.9-12.8-3.7c-15.7-7.2-32.5-8.6-49.4-9.8c-15.7-1.1-31.4-2.1-47.1-3.5c-7.7-0.7-15.5-1.9-23.1-3.3
					c-1.5-0.3-3.6-2.3-3.9-3.8c-1.3-7.6-2.5-15.3-2.8-23c-0.1-3.6,1.9-7.4,2.9-11.1c0.5,0.1,0.9,0.3,1.4,0.4
					c-0.9,3.7-2.3,7.4-2.4,11.2c0,2.6,1.3,5.8,3.2,7.5c1.2,1.1,4.5,0.6,6.7,0c2.4-0.6,3.3-2.6,1.6-4.9c-2.5-3.3-1.6-5.9,1.4-8.3
					c0.7-0.6,1.6-1.3,1.9-2.2c2-7.5,8-11,15.2-14.8c-2.5-0.5-4.1-0.8-5.7-1.2c7.6-2.6,9.9-1.2,9.5,6.5c-0.2,3.3-1.6,6.5-2.4,9.7
					c-0.6,2.6-1.3,5.1-1.1,7.9c5.2-6.5,9.3-13.3,8.2-22c-0.7-5.4-2.8-8-8.3-8.3c-5.6-0.3-11.2-0.1-17-0.1
					c10.1-11.1,11.3-25,8.2-39.7c-0.4,5.1-0.7,10.3-1.2,15.4c-0.6,6.9-4.6,12.2-8.5,17.7c-8.1,11.4-16.5,22.8-23.3,35
					c-2.8,5.1-2.1,12.2-2.8,18.4c-0.3,2.2,0,4.4,0,7.3c-8.9-0.7-17.4-1.3-27.1-2c2-17.7,3.8-34.9,5.7-52.1c-0.4-0.1-0.7-0.2-1.1-0.4
					c-0.5,1.3-1.3,2.6-1.5,4c-2.6,12.9-5.3,25.7-7.6,38.7c-0.5,2.8,0.3,5.8,0.6,9.1c-5.4-0.6-11.5-1.2-16.5-1.7
					c0.8-18.8,1.5-37.1,2.3-55.4c-0.5,0-1-0.1-1.5-0.1c-2.2,18.2-4.5,36.3-6.8,55c-8.8,0-18,0-27.1,0c-13.9,0-27.9,0.4-41.8,0
					c-4.3-0.1-8.6-2.2-12.7-4c-7.3-3.1-7.3-3.3-5.1-10.9c1.2-4,2.3-8.1,3.4-12.2c0.1-0.2-0.2-0.6-0.9-2.1
					c-2.1,5.8-3.9,10.7-5.7,15.5c-2.4,6.6-2.6,6.7-9.4,2.9c1.9-8.8,3.8-17.7,5.8-26.6c-0.5-0.1-1-0.3-1.5-0.4
					c-2.5,8.7-4.9,17.4-7.7,27.3c-6.7-4.6-12.9-8.7-18.8-13.1c-1.3-1-2.5-3.4-2.3-5c0.9-6.8,1.8-13.8,3.8-20.3
					c3.2-10,7.4-19.7,11.6-30.7c-1.6,2-2.9,3.1-3.6,4.5c-6.7,12.9-13.8,25.6-19.6,38.9c-5.5,12.4-3.1,19.3,7.5,27.5
					c3.2,2.5,6.7,4.7,10.2,6.6c3.5,2,7.2,3.5,11.4,5.6c-1.6,0.3-2.9,0.6-4.3,0.8c-31.2,4.6-62,10.6-90.2,26
					c-8.4,4.6-18.3,6.4-27.4,9.7c-14.8,5.3-29.5,10.8-44.2,16.3c-3.6,1.3-7.1,2.8-10.8,4.3c11.8-18.9,23.2-37.3,34.6-55.7
					c-0.3-0.3-0.7-0.7-1-1c1.3,0.2,2.7,0.4,4.4,0.7c-0.6-1.2-1.1-2.1-1.6-3.1c45.7-25.7,90.9-52,133.4-82.4
					c-0.1-0.7-0.2-1.4-0.3-2.1c-2.3-0.5-4.7-1.7-6.7-1.3c-3.6,0.8-7.2,2-10.3,3.9c-31,18.9-62,38-93,57c-10.2,6.2-10.7,8-21.1-4
					c-2.3,3.3-2.3,3.3,7,11.6c-6.4,3.7-12.7,7.2-19.2,10.9c-0.8-1.3-1.5-2.6-2.2-3.8c2,10.5-4.6,17.9-8.7,26.2
					c-7,14.1-13.9,28.3-20.8,42.4c-0.6,1.1-1.1,2.8-2.1,3.1c-7.2,2.2-14.5,4.1-21.2,5.9c-1.8-6.9-2.9-13-5.1-18.6
					c-1.5-3.6-4.2-8-7.5-9.5c-8.8-4-18-7.2-27.3-9.6c-7.1-1.8-14.2,0.4-20.2,4.9c-3.3,2.4-6.6,4.8-9.8,7.2
					c-7.1,5.4-4.9,5.6-11.6-0.6c-12.2-11.2-24-22.8-36.1-34.1c-3.6-3.4-7.7-6.1-12.2-8.4c16.8,16.5,33.6,32.9,50.8,49.7
					c-4.4,5-8.7,10.5-13.7,15.2c-5.2,4.9-8.9,10.2-8.4,18c-2.3,0.8-4.7,1.6-7.1,2.3c-3,5.1-6,10.2-9.1,15.3c-0.3,0.5-0.9,1-1.5,1.1
					c-11.4,2.8-22.9,5.5-35.5,8.4c5.6-14,10.6-26.8,15.7-39.6c-0.5-0.2-1-0.4-1.5-0.7c-4.1,8.8-8.2,17.7-12.6,27
					c-2.3-3.5-8.2-3.6-8.1-9.5c0-0.5-3.4-1.1-5.8-1.8c4.6-9.5,9.3-19.3,14-29c-0.4-0.4-0.8-0.8-1.2-1.1c-1.9,7.7-7.7,9.1-13.9,10.4
					c-2.4,0.5-4.5,2.5-6.7,3.8c-0.4-0.3-0.7-0.5-1.1-0.8c6.5-10.2,12.9-20.4,19.7-31.1c-1.5,0.9-3,1.5-4,2.5c-2.1,2.2-4.1,4.6-6,7
					c-3.5,4.4-6.5,8.2-13.3,8.8c-8.9,0.8-15.3,13.2-11.4,21.1c2.4,5,0.2,7.7-3,11.6c-1.6-12.6-8.3-19.5-20.2-21.5
					c-1-0.2-2.2-0.9-2.8-1.7c-3.2-4.2-6.3-8.5-9.8-13.3c6.1-3.3,12.4-6.8,17.8-9.8c2.4,3.2,4.5,8,8.3,10.2c4.3,2.5,10,2.6,15.5,3.8
					c0.1-6-3.1-7.7-6.7-9c-8.4-3.2-9.5-5-6.1-13.3c2.9-7,2.7-13.9,1.3-21c-0.9-4.9-3.8-6.9-8.8-5.9c-4,0.8-7.8,2.2-11.8,3
					c-5.2,1-11.7-2.4-13.7-7.2c-0.4-1-0.2-2.6,0.3-3.6c3.3-6.6,6.8-13.2,10.5-20.1c5.4,5.8,10.4,3.7,15.5-0.8
					c0.9-0.8,2.9-0.3,3.9-1.1c1.4-1,2.3-2.6,3.3-4c-1.3-0.9-2.6-2-4-2.6c-2.5-0.9-5.3-1-7.5-2.3c-4.2-2.4-4.6-2.7-10.6,0.4
					c-0.7-6.1-1.3-11.7-1.9-17.3c-0.7-6.1,2.1-10.9,5.1-15.8c1.4-2.2,1.9-4.9,3-7.3c15.5-32.9,31.1-65.7,46.4-98.6
					c1.3-2.9,1.2-6.5,1.8-10.2c8.1,3.8,17.2,8.2,26.4,12.4c40.3,18.7,80.3,38.3,122.2,53.5c16.4,5.9,32.8,11.4,50.3,12.6
					c14.1,1,27.2-1.3,39.3-9.7c7.5-5.3,16.4-8.4,24.4-13.1c16.7-9.7,33.2-19.5,49.6-29.6c12.9-8,25.5-16.5,38.6-25
					c-11.9,18.8-23.6,37.2-35.3,55.7c0.4,0.4,0.9,0.7,1.3,1.1c1-0.8,2.1-1.5,3-2.4c17.2-17.1,32.8-35.5,47.1-55.1
					c6.3-8.6,12.8-17.2,19.2-25.7c0.5-0.6,1.1-1.2,1.7-1.6c11.8-8.8,23.6-17.6,35.4-26.2c4.6-3.3,9.7-6,14-9.6
					c7.7-6.3,16.5-7.5,26-7.6c7.7-0.1,15.4-1.2,23.3-1.9c0.5,4.2,0.8,8.8,1.5,13.4c1.3,7.8,2.5,15.7,4.3,23.4
					c3.2,13.3,10.8,24.4,20.1,33.9c7.7,8,16.3,15.3,25.4,21.6c11.4,7.9,17.6,18.2,18.7,31.8c0.2,1.9,0.9,3.9,0.6,5.8
					c-0.4,2.1-1.5,4.2-2.6,6c-1.3,2.1-3.2,3.7-4.4,5.8c-10.4,17.3-23.4,32.2-39.3,44.7c-0.5,0.4-0.8,0.9-0.7,1.9
					c21.6-9,34.1-27.2,46.4-47.4v13.2c5.4-2.6,8.8-6.5,9.1-11.2c0.6-8-0.1-16.1-0.5-24.1c-0.1-2.3-0.8-4.5-1.2-6.8
					c0.4-0.3,0.9-0.6,1.3-0.9c7.4,5.6,14.7,11.4,22.3,16.8c7.5,5.3,15.2,10.4,23,15.3c1.7,1.1,4,1.1,5.4,2c-4.5-3.7-9.5-7-13.6-11.2
					c-15.1-15.3-30-30.8-44.9-46.3c-1.5-1.5-2.8-3.2-3.6-5.5c1.3,0.9,2.6,1.7,3.9,2.7c8.4,6.1,16.7,12.3,25.3,18.2
					c1.4,1,3.7,0.7,5.6,1c1.3,0.2,2.8,0.3,4,0.9c10.9,5.7,21.7,11.7,32.6,17.4c25,12.9,51,13.7,77.6,6.2c1.7-0.5,3.4-1,5.2-1.4
					c0.3-0.1,0.6,0.1,2.4,0.4c-9.3,5.4-17.7,10.3-26.1,15.2c0.2,0.4,0.4,0.8,0.6,1.3c8.4-3.9,17-7.6,25.3-11.8
					c9.1-4.6,18.1-9.4,27.1-14.4c2.8-1.6,5.3-3.7,8-5.7c0.2,0.4,0.3,0.8,0.3,1.1c0.4,7.9,5,14,8.2,20.8
					C925.7,626.5,927.7,632.5,929.5,638.6z M95.6,767.5c-9.3-1.9-9.8-2.9-5-10.4c2.4-3.8,5.4-7.2,7.5-10c5.7,2.8,10.5,6.7,15.8,7.3
					c5.4,0.6,11.2-2,17.6-3.3c-0.2,3.5-0.3,6.3-0.6,9.9c-7.3-4.8-14.8-3.3-22.1-3.2C100.6,758,98.6,759.4,95.6,767.5z M95.6,810.3
					c-1,2.1-2.7,3.8-4.2,5.6c-0.4-0.2-0.8-0.3-1.2-0.5c0.4-2.3,0.6-4.7,1.4-6.9c0.3-0.8,2-1.2,3-1.7C95,808,96.1,809.5,95.6,810.3z
					 M54.9,782.1c-0.7,1.4-1.5,2.8-2.4,4.7c-2.2-1.3-3.7-2.2-5.3-3.1c-7.9-4.4-7.9-4.4-4.4-12.9c30.8-75,61.6-150,92.4-225
					c0.6-1.5,1.3-2.9,2.5-5.4c2.1,5,3.7,9,5.5,12.9c3.2,6.5,6.7,12.8,9.7,19.3c0.6,1.3-0.2,3.7-1,5.3
					c-13.5,28.6-27.1,57.1-40.7,85.7C92.5,703,73.7,742.6,54.9,782.1z M65.7,784c1.9-4.2,3.4-7.3,4.9-10.5
					C75.4,777.1,74.8,776.1,65.7,784z M65.1,796.2c-4.9-2-5-3.1-0.6-8.5C64.8,790.5,64.9,793.3,65.1,796.2z M104.1,521.1
					c-2-5.8,0.2-11.6,3.4-15.5c2.3-2.9,8.1-3.1,13.5-4.9c-5.3,18.8-10.3,36.4-15.5,54.8c-2.2-1.8-3.3-2.9-4.8-4.1
					C108.8,542,107.7,531.7,104.1,521.1z M542.6,504c-0.1,1.1-0.2,2.3,0.2,3.4c0.3,1,1,2.2,1.8,2.4c0.8,0.2,2.2-0.4,2.9-1.1
					c1.3-1.4,2.2-3.2,3.2-4.8c12.9-19.2,28.8-34.7,51.7-41.3c4.7-1.3,9.5-2.1,14.3-2.7c1.3-0.2,3.5,1,4,2.1
					c2.9,7.2,1.1,14.4-1.3,21.3c-0.3,0.8-1.6,1.6-2.6,1.9c-29.2,7.5-56.2,20-81.1,37c-0.5,0.4-1.1,0.6-1.4,0.7
					c0-2.7,0.4-5.2-0.1-7.5c-5.1-23.9-17.6-43.7-34.2-61.2c-5.1-5.4-10.1-10.8-15.3-16.1c-0.8-0.9-2.2-1.4-3.4-1.6
					c-61.6-13.4-123.7-20.2-186.5-9.7c-19.1,3.2-37.8,9.1-56.5,14.5c-8.2,2.3-17.3,4-20.8,14.2c-0.4-0.1-0.8-0.3-1.2-0.4
					c-1.2-2.5-2.3-4.9-3.7-7.9c2.3-1,4-1.8,5.7-2.5c99.4-38.9,198.7-37,298.1,0.4c7.5,2.8,12.3,6.9,15.8,14
					C539,473.4,544.1,487.9,542.6,504z M535.6,454.5c0.3-0.4,0.6-0.8,0.9-1.2c12.1,5.7,24.2,11.4,36.2,17.1
					c-8.3,8.7-16,16.9-24.5,25.9C547.6,480.9,542.5,467.4,535.6,454.5z M527,524.7c-15.6,19.9-33.7,37.2-54,52.3
					c-7.9,5.9-16.5,10.9-24.6,16.6c-8.1,5.7-15.8,11.9-24,17.4c-4.9,3.3-10.3,5.7-15.5,8.5c-0.7,0.4-1.4,0.8-2,1.3
					c-10.8,10.8-24.3,13.1-38.7,11.9c-14.6-1.2-28.6-4.6-42.2-10.5c-13.8-6-28.5-9.8-42.3-15.9c-30-13.2-59.6-27.2-89.4-41
					c-9.7-4.5-19.3-9.2-29.3-14c0.5-1.3,0.7-1.9,1-2.5c19-30.9,38-61.9,57.3-92.7c1.7-2.7,5-5.1,8-6.4c36.7-15.1,75-21.4,114.5-22.5
					c44.3-1.3,87.8,4.3,130.9,13.8c2.8,0.6,5.4,3.2,7.5,5.4c9,9.6,18.3,18.9,26.4,29.2c9.2,11.7,15,25.4,18.4,39.9
					C529.9,519.2,529.4,521.5,527,524.7z M214.2,459.8c-12.3,19.1-24.3,38.3-36.2,57.6c-4.9,7.8-9.3,15.9-13.9,23.9
					c-0.3,0.6-0.6,1.1-0.9,1.7l-1.2-0.5c-5.1-20.5-10.2-41-15.6-62.4c7.9-4.4,16.8-9.7,26-14.3c11.1-5.6,22.5-10.8,33.9-16
					c1.5-0.7,4.9-0.4,5.2,0.3C212.7,453.1,217.2,455.1,214.2,459.8z M204,447.1c-18.8,9.5-37.7,18.8-56.3,28.6
					c-9.9,5.2-10.4,7.2-8.3,18.1c0.1,0.6,0.1,1.2,0.2,2.5c-2.2-0.6-3.7-1.1-5.6-1.6c2.2-8-3.3-11.8-8.8-15.8
					c22.7-25.4,45.2-50.5,67.9-75.9c5.1,14.2,10,27.8,15.2,42C207,445.6,205.5,446.4,204,447.1z M95.6,724c-0.4-0.2-0.7-0.4-1.1-0.6
					c1.7-3.6,3.4-7.2,5.1-10.7c0.5,0.2,0.9,0.4,1.4,0.6C101.5,718.1,98.6,721.1,95.6,724z M118.6,711.9c2.3,0.4,4.5,0.8,6.8,1.2
					c-2.1,3.4-3.9,6.1-6.8,3.3C117.8,715.8,118.6,713.5,118.6,711.9z M623.2,455c8.5,0,16.9-0.9,24.8,0.4c3.4,0.6,7.5,5.7,8.5,9.4
					c2.3,8.7,0.4,17.4-11.4,17.9c-3.2,0.1-6.5,0.4-9.7,0.7c-3.1,0.2-6.1,0.4-10.1,0.6C627.6,473.8,629.6,463.9,623.2,455z
					 M918.9,600c-3.1-4.9-1.4-7.1,8.1-10.2C924,593.7,921.5,596.8,918.9,600z M935.5,442.4c13.1,4.1,26.3,8.3,39.4,12.4
					c2.8,0.9,4.4,2.2,4.6,5.4c1.2,20.2,2.6,40.4,3.9,60.6c0.1,1.8-0.3,3.7-0.9,5.6c-4.9-16.1-10.8-31.7-20.5-45.4
					c-9.6-13.5-20.3-26.3-30.5-39.4C932.5,441.8,934.1,441.9,935.5,442.4z M874,437.4c2.2-0.2,4.2-2.1,6.3-3.3
					c-0.1-0.7-0.2-1.4-0.4-2c12.5,2,24.9,4.1,37.4,6.1c0.8,0.1,1.6,0.5,2.2,1c25.3,23.6,46.4,49.9,56,83.9c0.8,2.8,1.2,5.7,2,8.5
					c0.6,2.1,1.7,4,3,6.8c-6.4,5.8-13.2,12.2-20.3,18.3c-22.1,19.1-45.5,36.2-72.5,47.7c-22.1,9.4-44.9,13.9-68.9,8.4
					c-10.5-2.4-20.1-6.7-29.4-12.4c-10.2-6.3-21.4-10.9-31.6-17.1c-15.6-9.6-29.3-21.6-38.3-37.9c-0.9-1.6-1.4-3.6-1.4-5.4
					c0.3-17.7,0.7-35.3,1.3-53c0.1-2.2,1.3-4.7,2.6-6.6c5.7-8.2,13.9-13.5,22.7-17.8c21.1-10.2,43.8-15.3,66.9-18.4
					C832.3,441.3,853.2,439.7,874,437.4z M836.4,435.5c-26.7,3-53.2,6.7-78.6,15.8c-13.5,4.8-26.6,10.6-36.6,21.5
					c-9.9,10.8-12.8,23.1-8.3,37.4c1.2,3.8,0.5,8.3,0.3,12.5c-0.2,7.6-0.8,15.2-0.8,22.8c0,1.6,1.5,3.3,2.6,4.7
					c3.3,4.2,6.8,8.3,10.2,12.4c-0.4,0.4-0.8,0.8-1.2,1.1c-7-6.4-14-12.8-20.9-19.3c-0.6-0.6-0.7-1.8-0.8-2.7
					c-2.4-28-16.3-47.6-42.3-58.5c-0.3-0.1-0.5-0.4-1-0.9c3.7-6.9,5-14.4,1.5-23c2.5,0.9,3.8,1.2,5,1.8c20.3,9.4,32,25.7,37.6,46.9
					c0.7,2.5-0.2,7.7,4.4,6.5c3.9-1,1.2-5.1,0.6-7.6c-3.6-15-10.6-28.2-22-38.7c20.8-19.7,148.3-45.1,180.5-35.7
					C855.9,433.6,846.1,434.4,836.4,435.5z M846,392.2c1.3,0.6,2.6,1.8,3.8,1.8c6.6,0,6.2,4.9,6.1,9.9c-6.7-5-13.4-10-20-14.9
					c0.3-0.5,0.6-0.9,0.8-1.4C839.8,389.1,842.9,390.7,846,392.2z M792.4,213.6c-5.3,0.7-9.6-2.7-11.1-9.3
					C787,205.8,790.5,208.6,792.4,213.6z M771.5,242.5c1.7-3.3,4.2-6.2,6.8-10c7.6,3.5,15.6,1,24.2-1.4c0.2,1.9,0.4,3.4,0.4,4.9
					c-0.2,8.9,3.3,16,9.4,22.5c4.4,4.6,8.2,9.9,9.1,17.3c-1.5-0.7-2.7-0.8-3.3-1.5c-3.2-4.3-7.9-5.4-12.7-6.3
					c-9.1-1.7-18-4.4-25.5-10.1c-3.3-2.5-6.5-5.4-8.9-8.7C770,247.7,770.6,244.4,771.5,242.5z M777.3,278.6
					c11.8,14.5,22.5,30.1,29.2,48c3,8,7.2,15.4,10.9,23.1c1.7,3.5,3.7,6.9,5,10.5c2.6,7.3,5.7,14.1,11.7,19.3c1,0.9,1.6,2.3,2.4,3.4
					l-1,1.2c-1.6-1.4-3.3-2.8-4.8-4.3c-2.3-2.4-4.4-5.1-6.8-7.3c-7.8-7-15.7-13.9-23.7-20.6c-6.1-5.1-13.1-8.8-20.3-12.6
					c-16.9-9-34.1-5.6-51.4-4.9c-4.2,0.2-8.4,0.5-12.6,0.8c-1,0.1-2.2-0.2-2.9,0.2c-2.4,1.7-4.6,3.6-6.9,5.5
					c2.1,1.2,4.2,3.3,6.4,3.6c4.6,0.5,9.4,0,14.1-0.2c11.3-0.5,22.7-1.1,34-1.6c1.1-0.1,2.3-0.1,3.4,0.2
					c14.6,3.9,28.3,9.8,39.3,20.6c0.7,0.7,1.2,1.5,1.8,2.3c0.2,0.3,0.1,0.8,0.3,2.4c-3.2-2.1-5.6-3.8-8.1-5.4
					c-6.5-4.3-12.6-9.3-19.5-12.7c-4.5-2.2-10.3-2.9-15.4-2.7c-14.7,0.4-29.3,1.5-44,2.6c-7.8,0.5-13.4-4.2-19.7-7.5
					c-5.6-2.9-11.2-5.7-17.3-8.7c-0.6,1.8-0.9,2.9-1.6,5.1c-2.1-3-3.8-5.3-6.4-9c4,0,6.9,0.3,9.6-0.1c3.7-0.6,5,1.7,6.7,4.2
					c2,3.1,4.9,2.8,8.2,2.3c10.8-1.8,21.6-3.2,32.4-4.9c2.2-0.3,4.3-1.2,7-2c-9.6-4.6-18.7-7.9-29.2-7.5c-12,0.4-24-0.3-36-0.9
					c-2.4-0.1-4.6-2-7.1-2.6c-2.4-0.5-5.6-1.3-7.4-0.3c-3,1.8-2.3,5.1-0.3,7.7c5.9,7.5,11.3,15.3,20,20.2
					c6.4,3.6,11.8,8.9,17.7,13.4c11,8.2,23.3,6.5,35.5,4.3c1.1-0.2,2.2-0.6,3.3-0.9c0.3-0.1,0.6,0.1,2.3,0.3
					c-32.2,15.5-53.3,39.3-63.3,72.4c0.6,0.5,1.2,0.9,1.8,1.4c1.9-3,3.9-5.9,5.6-8.9c8-14.7,16.6-29,28.9-40.7
					c11.1-10.5,23.8-18.8,37.7-24.6c6.9-2.9,15.2-3.2,22.9-3.6c3.1-0.2,6.4,2,9.4,3.5c8.9,4.6,17.9,9.1,26.6,14.2
					c11.8,6.9,23.3,14.6,35.1,21.6c4.7,2.8,10,4.5,14.9,6.9c1.3,0.6,3,1.9,3.2,3.1c0.7,5.7,1,11.5,1.4,16.7
					c-20.3,1.3-39.8,1.8-59.1,4c-41.1,4.7-80.3,16.7-118,33.9c-1.1,0.5-2.7,0.5-3.8,0c-7.4-3.3-14.7-6.5-21.9-10.2
					c-4.6-2.3-8.9-4.5-8.7-11.6c0.2-8-2.1-16-2.5-24.1c-0.2-3.8,1.5-7.7,2.5-11.6c0.4-1.4,1.2-2.7,2-3.9c6.2-9.4,5.9-19.4,1.8-29.3
					c-6.3-15.1-12.9-30-19.6-44.9c-4-9-8.3-17.9-13.5-26.5c0.9,2.2,1.7,4.4,2.6,6.6c6.2,14.6,12.6,29.2,18.7,43.8
					c2.8,6.7,5.2,13.6,7.7,20.4c3.5,9.5,2.4,18.3-4.5,25.8c-12.3,13.4-11.2,27.4-2.7,42c1.7,3,3.3,6.1,5.3,9.8c-6.7,0-12.4,0-18,0
					c-2.7,0-5.1-0.9-7.6,2.5c-1.7,2.4-6.4,2.9-9.9,3.5c-10.5,1.9-20.6,5-29.5,10.9c-3.9,2.6-6.9,2.4-11,0.3
					c-50.8-25.8-104-43.9-160.9-50.3c-64.8-7.3-127.6,1-188.5,24.2c-2.7,1-5.4,2-8.8,2.1c9-9.2,18-18.4,27.1-27.6
					c-0.4-0.5-0.8-0.9-1.2-1.4c-3.9,3.1-7.7,6.1-12.6,10c1.8-2.8,2.9-4.4,4-6.1c-8.5,5.7-14.2,13.9-20.4,23.1
					c-10.9-26.8-18.8-53.3-22.2-81.2c0,4.6-0.6,9.3,0.1,13.8c1.2,8,3.4,15.9,4.7,23.9c0.3,2-0.3,5-1.6,6.4
					c-21.7,24.2-43.5,48.2-65.4,72.2c-1,1-2.9,1.2-4.4,1.7c-0.6-1.7-1.2-3.4-1.7-5.1c-0.1-0.3,0.1-0.6,0.2-0.9
					c2.8-6.1,2.7-11.4-4.7-14.8c21.8-27.4,43.1-54.2,64.4-81c-0.3-0.2-0.5-0.5-0.8-0.7c-1.5,1.7-3.1,3.4-4.6,5.2
					c-19.4,23.8-38.7,47.6-58.1,71.4c-3.4,4.2-3.8,4.3-7,0c-3.8-5.1-7.3-10.3-11.1-15.4c-3.7-4.9-3.9-10.2-1.8-15.7
					c1.2-3.2,2.7-6.3,3.7-9.5c1.6-5.4,4.4-9.5,10.2-11.3c4-1.2,5.7-4.6,5.5-8.8c-0.2-4.4-0.5-8.8-0.1-13.1c0.4-4.3,1.4-8.5,2.5-12.6
					c6.4-25.1,21.3-46,34.1-67.9c0.7-1.1,1.4-2.2,2-3.4c4.5-10.1,11.4-18.3,18.9-26.3c28-30,61.3-53,97.7-71.3
					c20.2-10.2,41.7-17.9,63.1-25.6c19.6-7,39.8-12.6,59.8-18.6c11.3-3.4,22.7-7.2,34.3-8.9c18.9-2.8,37.4-8.3,56.7-7.7
					c14.9,0.4,29.9,0.1,44.8,0.5c4.8,0.1,9.5,1.4,14.3,2.1c2.4,0.3,4.9,0.8,7.3,0.5c9.1-1,17,2.8,25.1,5.8
					c5.6,2.1,11.1,4.5,16.8,6.2c2.3,0.7,5.1-0.5,7.6,0c6.5,1.2,13.3,1.9,19.3,4.5c11.1,4.8,22.2,10.1,32.2,16.7
					c10.7,7,22.4,11.2,34,15.9c1,0.4,2.1,1,3,1.6c8.7,6.4,17.9,12.3,26.1,19.4c8.1,7,15.3,15,22.6,22.8c8.7,9.3,17.2,18.8,25.7,28.2
					c-15.8-9.2-31.5-18.4-47.2-27.5c-0.3,0.5-0.6,1-0.9,1.6c2.3,1.2,4.6,2.3,6.8,3.5c2.5,1.3,4.9,2.6,7.3,3.8
					C747.5,249.7,764.1,262.4,777.3,278.6z M103.8,353.4c0.6-1.5,1-2.6,1.6-4.4c1.8,2.4,3.3,4.4,4.5,6
					C108.7,354.7,106.6,354.1,103.8,353.4z M113.6,343.5c2-9.6,6.4-18,13.4-25.9c-3.9,10.4-7.5,20-11.5,30.6
					C114.7,346.3,113.3,344.7,113.6,343.5z M715.2,185.2c1.6-0.1,4,0.3,4.8,1.4c5.9,7.9,14.1,10.5,23.4,10.7c1.6,0,3.3-0.1,4.9,0.1
					c7.4,0.6,9.7,3.1,11.4,10.3c1.2,4.9,3.5,9.6,5.5,14.7c-1.4,0.4-3.4,0.4-4.7,1.4c-5.7,4.4-9.2,1.4-12.3-3.3
					c-2.8-4.1-5.9-8.1-8.4-12.4c-5.1-8.9-13.6-13.1-22.3-17.1c-2.6-1.2-5.2-2.3-8.8-3.8C711.6,186.2,713.4,185.3,715.2,185.2z
					 M666.4,126.7c10-2.5,13,6.4,18.2,11.3c3.8,3.5,6.8,8.1,9.4,12.6c1,1.7,0.1,4.8-0.7,7c-0.9,2.4-2.4,4.8-4.2,6.5
					c-1.3,1.2-3.6,1.8-5.5,1.8c-1,0-2-1.8-3.5-3.3c-0.9,0.4-2.5,1.1-4.1,1.6c-3.9,1.3-5.9,0-6.5-4.1c-0.2-1.4-0.4-3.2-1.3-4.1
					c-9.1-8.9-17.6-19.1-32.5-17.3c-6,0.7-11.5,2-15.8,6.6c-3.3,3.5-6,0.9-8.3-1.3c-6.4-6.2-13.6-10.8-22.7-10.8
					c-5.9,0-11.9,1.1-17.8,2.1c-5.6,1-10.5,0.2-15.3-3c-5.7-3.8-11.9-5.8-18.9-4.9c-1.4,0.2-2.9-0.8-4.4-1.3
					c-4.5-1.6-8.8-3.6-13.4-4.8c-5.3-1.4-11-1.3-16-3.3c-14.1-5.4-26-0.3-38,6.2c-1.7,0.9-4.2,1.2-6,0.8c-3.9-0.9-7.8-2.4-11.5-4
					c-9.8-4.3-19-1.8-28.4,1.5c-2.2,0.8-4.8,0.4-7.2,0.2c-2.6-0.2-5.1-1.5-7.6-1.3c-9.2,0.6-18.4,1.6-27.5,2.5
					c-3.1,0.3-6.1,0.7-9.2,0.6c-11.2-0.4-19.2,4.5-23.6,14.6c-1.8,4.1-4.1,5.6-8.5,6.2c-7,1-13.8,3.5-20.7,5
					c-4.6,1-9.3,1.4-13.8,2.3c-3.8,0.8-7.4,2.2-11.2,3.1c-1.7,0.4-3.5,0.2-5.2,0.4c-5.2,0.6-10.8,0.2-15.6,2
					c-8.6,3.2-16.9,7.5-25.1,11.7c-12,6.1-23.7,12.7-35.7,18.8c-2.8,1.4-6.1,2-9.3,2.5c-26.9,4.6-42.5,11.9-51.5,38.3
					c-4.2,12.4-10.1,24.1-14.8,36.4c-2.4,6.3-3.6,13-5.7,19.4c-0.5,1.4-2,3.4-3.2,3.6c-8.6,1.2-16.3,4.3-22.2,11
					c-0.5-0.2-1-0.4-1.5-0.6c0.8-5,1.4-10.1,2.5-15.1c1.5-7.1,2.5-13.9-0.7-21c-0.9-1.9,0.2-5,0.8-7.4c1-4,3.1-7.9,3.4-11.9
					c0.6-8.5,3.4-14.6,11.8-18.3c7.8-3.5,14.8-8.7,22.2-13.1c4.8-2.9,11-4.6,14.4-8.6c11-12.9,25.3-20.3,40.6-25.9
					c18-6.6,30.9-19.2,42.9-33.3c2.2-2.6,4.7-4.9,7.5-6.9c5.7-4,9.9-9.1,12.9-15.5c1.3-2.7,3.9-5,6.5-6.8c2.1-1.4,4.1-0.8,4.9,2.4
					c2.6,10.4,5.3,12.4,15.9,12.4c3.6,0,7.2-0.2,10.7,0c14.8,0.8,27.1-4.6,37.9-14.4c1.6-1.4,4.4-1.9,6.7-2.1
					c15.5-1.5,30.1-5.8,44.2-12.2c4.8-2.2,9.9-3.9,15.1-5.3c8-2.2,16-4.2,24.1-5.9c3.9-0.8,8-1.1,12-1.2c4.4-0.1,7.8,1,7.7,6.8
					c0,4.6,3.7,7.8,8.9,7.8c16.1,0.1,32.1,0,48.2-0.4c8.6-0.2,17.1-1.1,25.6-1.9c5.9-0.6,10.4-3.8,13.1-9c2.2-4.2,5.2-4.5,9.4-3.5
					c4.2,1.1,8.6,1.4,12.9,2.2c1.5,0.3,3.6,0.5,4.4,1.5c2.8,3.7,6.4,4.7,10.7,4.2c0.9-0.1,2-0.1,2.9,0.3
					c10.2,4.7,21.5,7.1,29.7,15.7c2,2.1,4.2,4,6.4,6c5.6,5.2,11.9,8.4,19.8,7.7c7.6-0.7,15.1-1.3,22.7-1.9c1.4-0.1,2.8,0.4,4.1,0.7
					C664.1,125.7,665.4,127,666.4,126.7z M109.5,215.4c42-43.6,89.6-79.6,144.9-106.8c-5.3,9.5-9.7,18-18.4,23.8
					c-5.5,3.7-9.6,9.6-14.1,14.7c-9,10.6-21.2,16.3-33.6,21.7c-6.5,2.8-13.3,5.5-19.3,9.2c-6.1,3.8-11.5,8.8-17.3,13.2
					c-4.2,3.2-8.4,6.4-12.9,9.1c-7.9,4.8-16,9.2-24,13.8c-1.5,0.9-3,1.6-4.6,2.5C110,216.2,109.7,215.8,109.5,215.4z M627.7,65.3
					c3.2,0.5,6.5,1.7,9.3,3.4c4.4,2.6,8.6,5.8,12.7,9c8.4,6.6,10.7,15.6,9.7,25.8c-0.3,2.8,0.5,5.7,0,8.4c-0.3,1.6-2,4.2-3.3,4.3
					c-8.8,0.7-17.7,1.2-26.5,0.9c-2.6-0.1-5.3-2.9-7.6-4.8c-3.8-3.3-6.7-8-11-10.3c-10.8-5.9-21.2-13.2-34.1-14.2
					c-0.9-0.1-2.3-0.1-2.7-0.6c-3.8-5-9.3-4.5-14.6-5.3c-4.5-0.6-8.9-1.8-13.3-2.6c-4.8-0.9-9.1,0.8-11.4,4.8
					c-4.2,7.2-11,8.5-17.9,8.6c-19.5,0.2-39-0.2-58.4-0.6c-1.3,0-2.6-1.6-3.7-2.7c-2.5-2.3-4.5-5.7-7.4-7c-8.3-3.7-17.1-3-25.8-0.7
					c-7.2,1.9-14.6,3.3-21.7,5.7c-7.5,2.5-14.7,5.8-22,8.8c-2.1,0.9-4.1,2-6.3,2.6c-8.5,2.2-17,4.3-25.5,6.2
					c-2.2,0.5-4.5,0.8-6.8,0.6c-4.9-0.4-8.5,1.6-12.4,4.4c-8.1,5.7-16.8,10.3-27.2,9.9c-5.2-0.2-10.4,0-15.6-0.6
					c-1.6-0.2-3.9-1.8-4.3-3.3c-2.9-9.6-3.8-10.6-14.1-12.2C365.1,58.4,469.6,48.2,577,58.6c0,0.5,0.1,0.9,0.1,1.4
					c-9.2,0.5-18.3,1.1-27.5,1.5c-9.3,0.4-18.7,0.7-28,2.1c6.6,0,13.3,0.1,19.9,0c17.8-0.4,35.7-1.2,53.5-1.4
					c5.8-0.1,11.6,1.6,17.4,2.1C617.5,64.8,622.7,64.5,627.7,65.3z M522.8-1.2c0-0.2,0-0.5,0.1-0.7c7.1,0,14.4-1,21.2,0.4
					c3.9,0.8,7,5.3,10.4,8.2c-0.3,0.4-0.6,0.7-0.9,1.1C543.3,4.8,533,1.8,522.8-1.2z M530.1,12c6.1,0.4,12.3,1.4,18.4,1.3
					c9.7-0.2,17,3.6,24.2,10.1c11,9.9,23.1,18.6,34.7,27.8c-0.1,0.2-0.1,0.4-0.2,0.7c-7.3-3.4-15.9-5.4-21.6-10.6
					c-8-7.3-18.5-7.9-27.2-12.9c-9.1-5.3-19-9.1-28.5-13.6c-1.3-0.6-2.5-1.3-3.7-2.8C527.5,12,528.8,11.9,530.1,12z M515.7,11.8
					c7.7,3.8,15.1,8,22.8,11.7c6.6,3.1,13.5,5.6,20.1,8.7c16.1,7.6,32.1,15.4,48.1,23.1c0.2,0.1,0.2,0.5,0.2,0.5
					c-33.2-2.4-66.5-4.8-100.3-7.3c0-0.6-0.3-1.7-0.2-2.7c1.3-10.3,2.8-20.6,4-30.9C511,11.1,512.8,10.4,515.7,11.8z M433.9,10.8
					H508c-1.7,12.9-3.3,25-5,37.7c-23.6-12.4-46.5-24.4-69.3-36.5C433.7,11.6,433.8,11.2,433.9,10.8z M428.7,13.1
					c15.5,8.1,31.2,15.9,46.8,24c6.5,3.4,12.8,7.4,19.1,11.2c0,0.4,0,0.8,0.1,1.2c-37,0.4-73.7,3.8-110.8,10.8
					c0.9-1.6,1.2-2.5,1.7-3.2c12.1-14.2,24.2-28.3,36.2-42.6C423.9,12,425.6,11.5,428.7,13.1z M419.1,11.7c-0.7,1.4-0.9,2.3-1.4,2.9
					C405.4,29,393,43.4,380.8,57.9c-2,2.3-3.7,2.9-6.6,1.7c-16.6-6.5-33.4-12.7-50-19.1c-7.8-3-15.4-6.5-23.1-9.7
					c0-0.4-0.1-0.8-0.1-1.2C339.5,20.1,378.7,14.2,419.1,11.7z M305.7,36.2c20.5,8,41,16,61.5,24c1.3,0.5,2.4,1.2,3.7,1.8
					c-36.5,9.2-71.7,19.7-106.4,35.9c0.8-2.4,1.1-3.6,1.6-4.6c8.4-16.7,16.9-33.3,25.3-49.9c0.3-0.6,0.6-1.1,0.9-1.7
					C296.7,32.6,296.7,32.6,305.7,36.2z M171.6,82.8c28.8-16.9,59.1-30.3,90.7-41c8.3-2.8,16.4-5.7,24.7-8.5c1.6-0.6,3.4-0.8,5-1.2
					c0.3,0.4,0.6,0.7,0.9,1.1c-6.5,13-13,26-19.5,39c-3.9,7.8-8,15.6-11.9,23.4c-1.1,2.3-2.3,3.6-5.1,3.2
					c-29.8-3.5-59.6-6.9-89.4-10.3c-0.5-0.1-0.9-0.3-2.4-0.9C167.3,85.7,169.3,84.2,171.6,82.8z M163.9,91.3
					c29.4,3.4,58.7,6.7,88.1,10.1c0.4,0.1,0.9,0.4,2.5,1.1c-38.1,18.6-72.6,41.1-105.5,68.5c0.2-3.1,0.3-4.6,0.5-6.2
					c3.2-23.1,6.4-46.3,9.5-69.4C159.4,92.2,160.5,90.9,163.9,91.3z M85.6,147.9c18.6-17.9,38.6-34.3,60.1-48.6
					c2.6-1.7,6-2.1,9.6-3.3c0,1.4,0.1,2.3,0,3.1c-3.2,23-6.4,45.9-9.4,68.9c-0.4,3-1.4,4.1-4.6,3.8c-22.6-2.2-45.3-4.2-67.9-6.3
					c-1.1-0.1-2.1-0.5-4.3-1C75,158.6,80.2,153.1,85.6,147.9z M-6.8,366.3c-0.9-15.7-1.8-30.8-2.7-45.8c-0.8-12.6-1.6-25.2-2.4-37.9
					c-0.4-5.6,0.7-6.6,6.2-6.2c15.7,1.2,31.4,2.3,47.1,3.5c1.7,0.1,3.5,0.3,5.2,0.5C28.8,309.1,11.2,337.3-6.8,366.3z M53.4,270.1
					c-0.2,4.2-2,6.6-6.7,6.2c-17.8-1.3-35.6-2.4-53.4-3.6c-0.3,0-0.5-0.3-1.5-0.9c18.6-33.7,40.1-65.2,65.9-94.7
					c0.3,1.6,0.7,2.4,0.6,3.3C56.8,210.3,55.1,240.2,53.4,270.1z M58.7,265.4c0-9.4-0.3-18.7,0.1-28c0.8-20.1,2-40.1,3.1-60.2
					c0.4-7.8,2.2-9.3,9.9-8.6c21.8,2,43.6,3.9,65.4,5.9c1.7,0.2,3.4,0.5,6.5,0.9C111.7,203.1,84.4,233.4,58.7,265.4z M17.6,386.3
					c0.3,3.1,0.9,6.2,0.9,9.3c-0.1,8.4,0.1,16.5,5.1,23.8c1.8,2.7,1,5.7-2.7,7.7c2.6-6.1,0.7-10.7-3.8-14.5
					c-0.1-0.1-0.2-0.3-0.2-0.4C16.8,403.6,16.8,395,17.6,386.3z M31.3,504.8c-0.4-11.9-3.1-23.1-14.1-29.3
					c-6.3-3.5-10.9-7.1-12.3-14.4c-0.3-1.6-1.7-3.1-2.1-3.8c8.2-3.6,16.3-6.9,24.3-10.7c11.3-5.3,16.6-17.9,11-29.2
					c-4-8-5.4-15.9-5.9-24.6c-0.4-6.6-3.3-13.1-4.8-19.8c-0.3-1.5,0.1-3.8,1.1-4.8C34.6,362,41,356,47.3,350c1.8-1.7,4-3.1,7.2-5.6
					c-3.3-1.1-6.1-2-9.7-3.2c0.9-1.8,1.9-4.1,3.2-6.1c2.7-4,5.9-7.7,8.3-11.9c3.6-6.4,8.8-9.7,16.1-9.8c8.1-0.2,16.1-0.6,23.7-0.9
					c2.8,4.3,5.6,8.9,8.9,14c-0.5,1.4-1.4,3.9-2.4,6.9c-7.6-0.1-13.7,4.1-19.3,9.3c-7.3,6.8-8.8,16.3-2.6,24.1
					c5.6,7,4.4,14.9,3,21.8c-1.2,5.6-6.7,10.4-10.4,15.5c-1.4,2-3.2,3.7-4.5,5.7c-7,10.6-4.3,22.3,6.6,28.9c0.4,0.3,0.8,0.6,1.3,0.7
					c9.4,2.1,9.7,8.7,8,16.3c-2.5,11.7-1.1,22.9,4,33.7c0.6,1.3,0.2,3.8-0.7,5.1c-3.2,5.2-7.2,10.1-10.2,15.4
					c-10.9,19.4-4.1,40.7,15.9,50.4c6.4,3.1,7,4.7,4.3,11.3c-8.1,19.8-16.2,39.6-24.4,59.4c-0.5,1.2-1.1,2.3-2.1,4.2
					c-3.5-2.6-7-4.6-9.9-7.2c-9.3-8.8-19.3-15.9-32.9-16c-1.2,0-2.5-1.9-3.5-3.1c-2.4-2.8-4.2-6.2-7.1-8.3c-2.4-1.8-4-3.4-4.2-6.5
					c-0.2-2.6-0.9-5.1-1.3-7.7c-0.9-5.6-3.7-9.9-10-13.6c1.5-0.7,2.4-1.1,3.2-1.6c7-4.9,11.8-11.6,14.6-19.6
					C25.9,536.6,31.9,521.4,31.3,504.8z M32.8,670.3c-2,5.3-4.1,10.5-6.7,16.8c-9.4-8.9-13-21.2-21.9-30.9
					c7.3-1.8,13.4-3.3,19.5-4.6c0.9-0.2,2.7,1,3.2,2c2.1,4.3,3.9,8.7,5.6,13.1C32.9,667.8,33.1,669.3,32.8,670.3z M-34.7,780.4
					c0.4-0.4,0.7-0.8,1.1-1.2c2.3,2.2,4.5,4.5,7,6.4c2.6,2,5.6,3.7,8.7,5.8c-1.1,1.3-2.1,2.4-2.9,3.3
					C-28.9,792.9-31.1,785.9-34.7,780.4z M17.8,901c-1.5-2.5-2.9-5-4.3-7.5c-0.5-0.9-1.1-2.3-0.7-3c3-6.8,6.2-13.5,9.3-20.1
					c0.2-0.5,0.8-0.9,2.1-2.4c-1.2,12.7-9.4,24.6,1.9,35.4C21.4,906.7,19.6,903.9,17.8,901z M17.4,863.7c-3,1.3-6.7,0.8-10.1,1.4
					c-1.7,0.3-3.4,1.2-5,1.8c0.1,0.6,0.2,1.1,0.4,1.7c4.5-0.5,8.9-1,13.9-1.6c-3.3,6.2-6.2,12.2-9.8,17.8c-3.2,5.1-3.5,8.2,0,13.3
					c1.4,2.1,2.4,4.5,3.3,6.9c0.3,0.9-0.2,2-0.3,3.1c-1.1-0.4-2.7-0.4-3.2-1.2c-4.7-6.8-10.1-13.2-13.4-20.6
					c-4.1-9.1-6.6-18.9-9.3-28.6c-3-11.2-5.5-22.6-8.2-33.9c-0.2-0.8-0.4-1.6-0.7-2.3c-4.2-11.1-4.1-11.3,5.1-18.6
					c4.5-3.7,8.5-8,13.2-11.4s9.7-6.6,15.1-8.6c2.9-1,7,0.3,10.3,1.5c9.7,3.3,19.3,6.7,28.7,10.6c7.6,3.2,14.6,7.8,22.3,10.6
					c5,1.8,10.8,1.6,16.9,2.3c0.7,2.2-2,3.3-4.3,4.8c-1.3,0.9-2.4,2.2-3.5,3.3c1.5,0.7,3.1,1.4,5.2,2.3c-1.8,5-1.3,10.5,3.1,14.8
					c1.4,1.4,3.9,1.6,6.9,2.8c-1.3-8.5,3-13.3,7.5-18.1c5.8,4.3,6,4.4,3,10.8c-2.1,4.5-4.5,8.9-7.2,13.1c-2.9,4.6-2.6,10.3,1.2,14.9
					c1,1.2,2.3,2.6,2.3,3.9c0.4,7.7,0.3,7.7,8.5,9.2c-8.1,2.9-14.9,5.4-22.6,8.2c-2.1-6.6-4.3-12.7-5.8-18.9
					c-1.6-6.9-5.2-11.3-12-14C47.8,836.6,27,827.6,6,819c-4.3-1.8-9-2.8-13.6-3.7c-4.3-0.9-7.6,1.3-7.6,5.3c0,10.1,1,20.1,6.2,29.1
					c4.6,7.9,12.9,8.3,17.3,0.4c3.5-6.4,10.8-7,14.8-12.1c0.3-0.4,1.9-0.3,2.7,0c4,2,8,4.1,11.8,6.1c-2.2,4.2-3.3,8.8-6.1,11.4
					C27.5,859.2,22.4,861.6,17.4,863.7z M-28.1,1021.8c5.7-1.4,10.8-4.9,16.2-7.3c3.8-1.7,7.7-3.4,11.7-4.9
					c16-5.9,31.7-12.7,48-17.4c15.8-4.5,32.3-6.9,48.5-10c8.4-1.6,16.9-2.7,25.4-4c-53.1,15.5-105.5,32.7-157.9,54.1
					C-34.6,1026.3-33.4,1023.1-28.1,1021.8z M409.9,1046.9c-0.1-0.4-0.1-0.7-0.2-1.1c4-0.6,8-1.4,12-1.7
					c54.4-3.8,108.8-8.2,163.2-11c31.5-1.6,62.3,5.3,92.8,12.6c0.2,0.1,0.4,0.4,1.1,1.2H409.9z M9.4,198.2
					c22.9-32.6,49.6-61.9,78.2-89.6c10.5-10.1,21.1-20.1,31.7-30.1c-4.5,3.6-9,7.1-13.3,11C54.6,134.8,9.8,185.9-27.2,243.7
					c-7.2,11.2-14.5,22.3-21.7,33.4c0,1.9,0,3.9,0,5.8c1.7-2.5,3.5-5,5.2-7.5C-26,249.7-8.5,223.8,9.4,198.2z M-29.9,497.8l-1.2-0.4
					c-1.2,2.1-2.6,4.2-3.5,6.5c-4.8,12.3-9.5,24.7-14.3,37.1v10.7c6.4-17.1,12.8-34.2,19.1-51.4C-29.5,499.6-29.9,498.6-29.9,497.8z
					 M-20.3,212.4c31.8-51.1,70.6-95.7,120.6-130c11.2-7.7,22.7-15,34.2-22.4c0.7-0.5,2.1,0,3.2,0c4.2-1.9,16.3-12.8,18.2-15.6
					C145.7,51,135.4,56.9,125.1,63c-24.2,14.4-47.2,30.4-67.9,49.5c-39.3,36.4-70.6,79-97.4,125.1c-2.9,5-5.8,10.1-8.7,15.1
					c0,2.9,0,5.8,0,8.8c0.5-0.6,1.1-1.2,1.5-1.9C-38.4,243.9-29.9,227.8-20.3,212.4z M328.7,665.5c-11.2-2.2-23.9-4.7-37.9-7.4
					C304.4,663.2,317.1,665.6,328.7,665.5z M181.5,576.9c32.7,21.9,67.2,40.5,103.7,55.3c1,0.4,2,0.7,3,1.1c0.1-0.3,0.3-0.6,0.4-0.9
					c-38-22-76-44-114.6-66.4C173.4,572.4,178,574.5,181.5,576.9z M310.2,643.5c-6.5-0.4-13-0.8-19.5-1.1c0,0.4,0,0.8-0.1,1.1
					c6.5,0.3,13,0.6,19.6,0.9C310.2,644.1,310.2,643.8,310.2,643.5z M613.6,539.8c-5.4-10.5-10.8-20.9-16.2-31.4
					c-0.6,0.3-1.1,0.6-1.7,0.8c2.4,12,9.7,21.6,16.5,31.4C612.7,540.4,613.2,540.1,613.6,539.8z M227.4,818.1
					c-0.1-1.7-0.2-3.2-0.3-4.7c-1.3,0.7-2.7,1.3-3.8,2.3c-1,0.9-2,2.2-2.4,3.5c-0.4,1.4-0.8,3.6-0.1,4.3c0.9,0.9,2.9,0.7,4.5,0.9
					c1.7-2.1,3.4-4.1,5.8-7.1C228.6,817.8,227.7,818,227.4,818.1z M282.7,763.6c-16.6-9.5-33.2-19.1-49.9-28.5
					c-2.9-1.7-3.9-3.5-3-6.7c1-3.1,1.8-6.3,2.7-9.5c-0.3-0.1-0.7-0.3-1-0.4c-1.8,4-3.7,8-5.5,12c-8.1-3.5-8.3-3.8-7.8-11.9
					c0.2-3.7,0.8-7.4,1-11.1c0.2-3.1,0-6.1,0-9.2c-0.4,0-0.8-0.1-1.2-0.1c-1.2,8.5-2.5,17-3.8,25.9c-30.3-16.5-57.8-37.1-90.2-49.5
					c-0.7,3.5,2.2,5.5,4.8,7.4c5.3,3.9,10.6,8,16.3,11.4c24.6,14.8,49.3,29.3,74,44.1c2.6,1.6,4.9,3.7,7.1,5.4
					c1.9,0.4,3.9,0.4,5.5,1.1c17.8,7.6,35.5,15.3,53.2,23c1,0.4,2.2,0.6,3.3,0.9C286.5,765.9,284.6,764.7,282.7,763.6z M225.1,824.4
					l-0.1,0.1l0,0l0,0l0,0l0,0L225.1,824.4C225.2,824.5,225.2,824.4,225.1,824.4C225.2,824.4,225.2,824.4,225.1,824.4z M195.7,821.5
					c0.1,1.4,3.5,3.8,5,3.6c3.4-0.6,6.1-2.9,7.1-7.1c-2.3,0.8-4,1.4-7.3,2.6c2.1-7.7,3.8-14.2,5.6-21c-1.2,0.2-2.1,0-2.4,0.3
					C198.5,806.1,195.3,813.3,195.7,821.5z M597.3,590.3c-7,14.1-13.4,27-20.1,40.7C582.8,629.3,598.6,597.4,597.3,590.3z
					 M906.8,913.2c37.7,11.4,75.3,22.7,113,34.1c0,0.1,0,0.2-0.1,0.3c-8.5-2.2-17.1-4.5-25.6-6.7c-0.1,0.3-0.2,0.6-0.2,0.9
					c12.6,5,25.2,9.9,37.9,14.9V947c-41.3-12.4-81.9-27.5-124.5-35.2C907.1,912.2,906.9,912.7,906.8,913.2z M988.8,845.6
					c-1.4-0.7-3-0.8-4.5-1.3c0.2,1.4,0.6,1.9,1.1,2.2c14.5,8.6,29,17.2,43.6,25.7c0.8,0.5,1.8,0.5,2.7,0.7v-5.8
					c-1.5-0.6-2.9-1.2-4.4-1.9C1014.5,858.6,1001.7,852.1,988.8,845.6z M979.1,863c17.5,10.2,35.1,20.3,52.6,30.4v-2.9
					c-19.9-10.8-39.8-21.6-59.7-32.5C974.2,859.9,976.6,861.5,979.1,863z M975.5,884.6c8.9,4.2,17.9,8.3,26.7,12.8
					c9.9,5,19.7,10.3,29.5,15.4V906c-19.8-9.2-39.6-18.5-60.9-23.9C972.3,883.2,973.9,883.9,975.5,884.6z M971.3,970.1
					c-3.1-7.5-8.4-12.8-15.9-15.5c-5.3-1.9-10.9-2.9-16.5-3.8c-17.9-3-36-4.9-53.7-8.9c-33.5-7.5-66.7-16.5-100.9-21
					c-31.9-4.2-63.9-6.6-96.1-6.8c-3.9,0-7.8,0.4-11.7,0.7c-3.7,0.3-7.4,0.8-11.1,1.2c1,0.8,2,0.9,2.9,0.9
					c59.3-1,117.5,6.5,174.2,24.2c32.3,10.1,64.7,19.3,98.8,20.8c3.9,0.2,8.2,1.4,11.5,3.5c2.7,1.7,5.9,5.1,6.1,8
					c0.5,7.4,4.5,10.8,10.8,13.3c16.1,6.4,32.1,13.2,48.2,19.8c4.6,1.9,9.2,3.8,13.9,5.8v-12.7c-18.7-8.3-37.4-16.5-56-24.9
					C973.9,973.8,972.1,971.9,971.3,970.1z M1030.8,1031.7c-13.5-5.1-27-10.2-40.5-15.4c-3.3-1.3-6.5-3-9.8-4.5
					c-0.1,0.3-0.2,0.6-0.4,0.9c17.2,8.6,34.4,17.2,51.6,25.7v-6.8C1031.4,1031.6,1031.1,1031.8,1030.8,1031.7z M560.8,884
					c15.6,8.4,31.2,16.7,46.8,25.1c0.2-0.4,0.5-0.9,0.7-1.3c-15.5-8.4-31-16.8-46.6-25.3C561.4,883,561.1,883.5,560.8,884z
					 M189.4,933.8c-0.1,0-0.1,0-0.2,0l0,0c-0.3,0.1-0.5,0.1-0.8,0.2c0.3,0,0.6-0.1,0.8-0.1C189.3,933.8,189.4,933.8,189.4,933.8z
					 M195.5,933.8c13.9-2.2,27.8-4.6,41.7-6.9c0-0.1,0-0.3-0.1-0.4l-47.7,7.2C191.5,933.8,193.5,934.1,195.5,933.8z M492.8,883.6
					c19.1,10.7,38.9,19.6,59.4,27C536.7,898.6,500.8,882,492.8,883.6z M367,857c24-9.7,47.6-20.1,71.9-28.8s49.2-15.7,73.8-23.5
					C461.9,815.8,413,832.3,367,857z M1009,820.4c2.4,2.2,5,3.7,7.6,5.2c5.1,3.1,10.1,6.2,15.2,9.3v-5.8
					C1024.2,826.2,1016.6,823.3,1009,820.4z M597.1,174.1c20.3,4.1,43.4,8.7,64.6,12.9C652.2,182,605.1,173.4,597.1,174.1z
					 M699.4,239.8c0-1,0.2-2.1,0-3.1c-1.9-10.1-3.9-20.1-5.9-30.1c-0.6-3.1-1.6-6.2-2.6-9.2c-1.3-3.6-3.3-3.2-5.2-1.3
					c4.5,14.9,8.9,29.3,13.3,43.7C699,239.8,699.2,239.8,699.4,239.8z M543.7,159.9c3.1,4.4,5.3,9.4,8.3,13.9
					c6.6,10,12.1,20.7,18.1,31.1c0.9,1.6,1.9,3.3,2.8,4.9c-10-25.5-24.8-48.3-41.1-70.2c0.9,1.8,1.6,3.7,2.6,5.4
					C537.4,150,540.3,155.1,543.7,159.9z M665.4,437.6c7.6-15.2,15-29.9,22.3-44.5C679.8,400.8,665.1,429.5,665.4,437.6z
					 M721.4,495.3c0.6,12.4-0.1,24.9-0.9,37.3c-0.4,7.4,1.5,13.6,6.6,18.8c14.6-28.1,17.9-59.2,25.3-90c-6.2,3.6-12.6,7.1-18.7,11
					C725.6,477.8,720.9,484.7,721.4,495.3z M481.6,447.8c-2.1-2-5-3.8-7.8-4.3c-19.8-3.5-39.5-7.1-59.4-9.7
					c-15.6-2.1-31.4-3.3-47.1-3.9c-24.1-0.9-48,1.4-71.9,4.8c-6.1,0.9-12.2,2.5-18.3,3.8c0,0.5,0,1.1,0.1,1.6c14.3,4,28.7,8,43,12
					c7.9,2.2,15.9,4.4,23.8,6.7c9.3,2.7,18.5,6.3,27.9,8.3c17.9,3.8,36.1,5.8,53,13.5c7.3,3.3,15.3,5.5,23.3,6.8
					c18.5,3,36.6,7.1,54.5,12.4c6.1,1.8,12.5,2.6,20,4.1c-3.4-6.9-6-12.6-9-18.1C505.7,470.9,493.6,459.3,481.6,447.8z M549.7,263.4
					c-0.6-1.6-1.4-3-2.4-4.3c-23.4-30.3-46.6-60.7-70.3-90.8c-5.2-6.6-11.8-12-18-17.7c-1.6-1.5-4.2-1.9-6.4-2.7
					c-0.4,0.7-0.8,1.4-1.2,2.1C488.7,184.1,518.3,224.5,549.7,263.4z M791.8,451.3c2.2,0.3,4.4,0.6,6.6,1c17.4,3.2,34.8,6,52.1,9.6
					c31.9,6.6,63.7,13.6,95.5,20.3c2.2,0.5,4.5,0.4,7.5,0.7c-10-16-22.4-28.5-35.1-40.7c-1.1-1-2.8-1.5-4.4-1.8
					c-7.6-1.4-15.1-3-22.8-3.7c-4-0.4-9-3-12.1,2.6c-0.4,0.7-2,0.9-3.1,1c-14.9,1.3-29.8,2.4-44.7,4c-13.2,1.5-26.3,3.7-39.5,5.5
					C791.9,450.4,791.9,450.9,791.8,451.3z M494.5,364c-6.5-3-12.4-7.1-18.6-10.8c0.1-0.5,0.3-1,0.4-1.5c2.8,0.2,5.6,0.2,8.4,0.6
					c5.2,0.7,9.3-0.6,11.6-5.7c3.1-6.8,6-13.6,9.2-20.4c0.9-1.9,2.5-3.4,3.8-5.1h0.1V321l-0.1,0.2c-1.3-3.8-3.7-1.5-4.6-0.3
					c-2.9,3.6-5.3,7.6-7.8,11.6c-2.2,3.4-4.2,6.8-6.3,10.2l-1.1-0.7c0.4-0.8,0.8-1.7,1.2-2.5c3.6-8.5,7.4-16.9,10.7-25.5
					c0.6-1.7,0-5.2-1.2-5.9c-1.6-1-4.5-0.5-6.5,0.3c-8.8,3.2-17.1,7.1-27,6.8c-9.1-0.3-18.6,0.5-27.4,2.8
					c-12.8,3.3-25.2,8.4-37.9,12.4c-3.9,1.2-8.2,2.1-12.2,1.8c-10.8-0.7-21.1,0.5-30.6,6c-7.7,4.5-15,9.6-24,11.5
					c-1.7,0.4-3.2,1.6-4.7,2.5c-12.3,7.8-24.7,15.5-37,23.3c-8.4,5.4-17.8,9.9-24.9,16.7c-7.4,7.1-14.6,14-23.7,19
					c-1.5,0.8-2.4,2.8-4,4.7c1.7,0.2,2,0.4,2.3,0.3c1.2-0.5,2.3-1.1,3.5-1.7c9.4-4.5,17.4-11,25.9-17c12.9-9.1,27.1-16.4,40.8-24.5
					c0.5-0.3,1.1-0.2,1.7-0.4c0.2,0.4,0.4,0.8,0.6,1.2c-30.6,19.8-61.2,39.5-91.8,59.3c0.3,0.5,0.5,0.9,0.8,1.4
					c2.2-0.9,4.5-1.6,6.5-2.8c9.4-5.4,18.8-10.8,28-16.5c19.2-11.8,38.2-24,57.5-35.5c4.1-2.4,9.3-3.5,14.1-4.1
					c11.9-1.6,23.8-2.5,35.7-3.7c3.1-0.3,6.1-0.5,9.2-0.9c5.6-0.6,11.4-0.7,16.9-2c14.5-3.3,29.2-6.3,42.6-13.3
					c1.2-0.6,3.1-1.1,4.1-0.6c5.7,3.1,11.5,2.1,17,0c8.2-3.2,15.2-0.8,22.2,3.6c5.5,3.4,11,7,16.7,9.9c11.4,5.9,20.6,14,26.9,25.3
					c5.4,9.7,10.8,19.5,16.1,29.2c-2.2-7.6-5-14.9-8.2-22C521.9,384.8,511.2,371.7,494.5,364z M318.7,371c-0.1-0.2-0.2-0.4-0.4-0.6
					c4.3-2.6,8.5-5.1,13.4-8c0.7,2,1.2,3.7,1.8,5.7C328.3,369.1,323.5,370.1,318.7,371z M356.8,352.3c-0.2-0.6-0.5-1.1-0.7-1.7
					c5.8-2.9,11.6-5.8,17.4-8.7c1.5,1.8,2.6,2.9,4.2,4.8C370.4,348.6,363.6,350.5,356.8,352.3z M370.4,362.6
					c-0.2-0.8-0.3-1.7-0.5-2.5c11.5-2.6,22.9-5.3,34.4-7.9c0.1,0.6,0.3,1.2,0.4,1.7C393.2,356.9,381.8,359.8,370.4,362.6z
					 M628.1,269.8c-18.6-0.3-37.3-1.8-55.5,3.5c-0.6,0.2-1.3,0.2-1.9,0.1c-8.3-1.2-16.7-2.4-25-3.6c-7.7-1.1-15.3-3.4-22.9-3.1
					c-15.3,0.5-30.6,2.3-45.9,3.8c-3.9,0.4-7.8,1.9-11.3,2.8c8.7-0.5,17.7-1.1,26.7-1.7c1.4-0.1,2.9-0.4,4.3-0.7
					c10.9-2.4,21.8-2.4,32.6,0.5c6.4,1.7,12.7,3.5,19.1,5.3c5.8,1.7,11.7,3.4,17.5,5.1c2.3,0.7,4.7,1.6,7.1,1.6
					c19.3-0.4,38.5-1.1,57.8-1.6c21.2-0.5,42.4-1.1,63.7-1.4c4.2-0.1,8.4,0.7,12.6,1.1c-5-2.5-10.3-4.2-15.5-5.5
					C670.6,270.9,649.4,270.1,628.1,269.8z M500.6,352.2c1.8,0.4,5.3-1.6,6.3-3.4c2.5-4.8,4.1-10.1,6-15.3c0.4-1.2,0.7-2.6,0.5-3.8
					c-0.6-3.1-1.4-6.2-2.2-9.5c-0.2,0.1-1,0.5-1.7,0.9c-1.2,9-5.5,16.7-10.1,24.2C497.8,347.8,497,351.3,500.6,352.2z M438.9,197.5
					c6.9,6.3,13.9,12.4,20.8,18.6c0.6-0.6,1.1-1.2,1.7-1.8c-16.3-17.5-32.4-35.2-48.9-52.4c-2.7-2.8-6.7-5.4-12.8-4.4
					c1.9,3.3,2.9,6.3,4.9,8.3C415.9,176.5,427.4,187,438.9,197.5z M251.7,290c-1.3-0.9-2.4-1.9-3.8-2.6c-7.5-4.2-15-8.5-22.6-12.5
					c-2.4-1.3-3.6-2.3-2.4-5.2c9.1-22.2,18.7-44,38.9-58.8c1.7-1.2,3.2-2.7,4.7-4.2c0.4-0.4,0.2-1.4,0.3-2.3
					c-3.2,2.6-5.8,5.1-8.8,7.2c-9.6,6.8-17.5,15.1-23,25.4c-5.5,10.3-10.4,20.9-15.4,31.4c-1.1,2.4-2.1,3.2-4.7,2.4
					c-2-0.7-4.3-0.7-7.7-1.1c3.9,3.6,8.2,5.7,8.7,8.5c0.6,3.6-1.8,7.7-2.8,11.6c-0.4,1.4-0.6,2.9-1.1,4.2c-0.4,1-0.9,2.1-1.7,2.9
					c-10.9,11.5-22.1,22.7-32.7,34.6c-22.3,24.9-44.3,50-66.2,75.2c-5.5,6.3-10.1,13.2-15.2,19.8l0.7,0.5
					c30.5-34.1,61-68.3,91.5-102.4c1.1,1.6,1.3,2.6,1.3,3.5c-1.4,25,3.8,48.7,14.1,71.3c2.8,6.2,7,11.3,12.2,14.9
					c-3.8-6.9-8.4-13.8-11.7-21.3c-7.2-16.6-11.3-34.2-13-52.2c-1.7-18.4-1.6-18.4,11.4-32c1.5-1.5,2.8-3.1,4.3-4.6
					c0.8-0.8,1.9-1.4,3.5-2.6c-2,17-3.5,33-0.8,49.1c1.3-12.2,1.9-24.5,3-36.7c1.2-12.2,3.4-24.3,7.9-36.5
					c10.4,4.6,20.4,9,30.4,13.5C251.3,290.6,251.5,290.3,251.7,290z M319.7,289.6c32.1-12.8,64.5-25.8,96.2-38.5
					C400.4,253.9,328.6,282.6,319.7,289.6z M577.9,575.7c-1.9,11.9-3.8,23.8-5.6,35.1c5.9-10.6,4.5-23.1,6.2-35.7
					C578.1,575.6,577.9,575.7,577.9,575.7z M634.4,704.9c-5.3-10.7-15.9-14.4-25.3-19.6c-5-2.8-10.5-3.1-15.9-0.3
					c-8.4,4.4-16.8,8.9-25.4,13.2c-9.3,4.6-8.6,11.7-6.4,19.9c1,3.9,5.2,4.9,9.4,3c-4.3-6.5-2.4-12.5,4.5-16.6
					c8.4-5,17.4-2.3,26.1-2.8c3.2-0.2,6.9-0.2,9.5,1.3c6.3,3.7,12.2,8.2,18.4,12.6c-4.9,5.4-9.7,10.8-18.2,10.4
					c7,6.6,23.3-6.3,27.1-18.7C637,706.4,634.9,706,634.4,704.9z M649.6,669.3c-7-2.7-14.4-5.6-22.8-8.9
					C634.4,665.9,641.6,669.4,649.6,669.3z M649.9,559.4c7,2.1,14,4.2,21,6.4c0.1-0.4,0.2-0.7,0.3-1.1c-6.9-2.1-13.8-4.2-20.7-6.2
					L649.9,559.4z M658,665.5c-17.6-1.1-30.6-11-42.7-22.7C626.3,656.6,638.9,667.3,658,665.5z M577.9,611.6
					c1.8-1.6,4.1-2.8,5.2-4.8c1.6-2.9,3-6.3,3.4-9.5c1.1-10.5,1.6-21,2.3-31.5c-1.5,10.8-2.3,21.6-3.9,32.3
					c-0.8,5-2.2,10.3-7.8,12.5C577.3,610.9,577.6,611.3,577.9,611.6z M594.7,557.4c-3.1-8-6.2-16-9.2-24.1c-0.7,0.2-1.4,0.5-2.1,0.7
					c3.3,8,6.6,16,9.8,23.9C593.7,557.7,594.2,557.5,594.7,557.4z M816.1,634.5c0.2,0.4,0.3,0.8,0.5,1.3c7.6-2.9,15.2-5.8,22.8-8.8
					c-0.2-0.4-0.3-0.8-0.5-1.3C831.3,628.7,823.7,631.6,816.1,634.5z M748.4,651.9c-0.6,0.6-1.2,1.3-1.8,1.9
					c2.3,1.8,4.9,3.3,6.9,5.3c3,3,6.4,5.9,8.1,9.5c4.8,10,6.3,20.9,5.8,32c-0.4,9-8.4,18.6-17.7,21.2c2.1-7.5,4.2-14.7,6.3-21.9
					c-0.4-0.1-0.8-0.2-1.2-0.4c-2.4,7.1-4.6,14.4-7.3,21.4c-0.9,2.4-2.8,4.5-4.4,6.6c-3.4,4.7-7,9.3-10.4,14
					c11.6,0.2,19-7.5,28.2-12.5c-1.7,6.1-3,11.2-4.4,16.3c0.6,0.2,1.2,0.5,1.7,0.7c1-2.3,2-4.5,3.1-6.8c3.2-6.6,6.3-13.4,9.8-19.9
					c3.1-5.8,5.5-11.5,5.3-18.3c-0.4-12.3-4.6-23.5-9.9-34.2C762.9,659.5,755.2,656.1,748.4,651.9z M235.7,450.9
					c-5.5,1.5-9.2,4.6-12.1,9.5c-14.8,24.2-29.9,48.2-44.9,72.4c-3.4,5.4-6.5,11-10.1,17c3.1,1.6,5.8,3.1,8.5,4.4
					c2.7,1.3,5.6,2.4,8.8,3.7c21.3-36.8,42.5-73.5,63.7-110.1c-0.5-0.5-0.9-0.9-1.4-1.4C244.1,448,240,449.8,235.7,450.9z
					 M691.3,698c-3.4,11-7,21.9-10.1,32.9c-0.5,1.6,0.6,3.7,1.1,6.8c4.3-5.2,11.7-37.9,10.1-40.7C692,697.4,691.5,697.6,691.3,698z
					 M26.3,855.6c-8.2,0.9-16.7,1.9-25.2,2.9C7,861.6,18.6,859.7,26.3,855.6z M703.5,671.7c0.4,0.3,0.8,0.6,1.3,0.9
					c4.9-7.2,9.8-14.3,14.8-21.5C711.3,655.8,708.3,664.4,703.5,671.7z M796.5,741.4h-9c0,0.4-0.1,0.9-0.1,1.3h9.1
					C796.5,742.3,796.5,741.8,796.5,741.4z"/>
			</g>
		</g>
	</g>
	<g id="Muts" style="clip-path:url(#SVGID_00000039847819575859234200000014967868635491068834_);">
		<g>
			<g>
				<path class="st3" d="M0.3,112.7c2.7-4.1,6-7.7,9.1-11.6c-2.1-0.1-3.5,0.6-4.7,1.6c-13.2,11.1-26,22.4-35.9,36.8
					c-5,7.2-11.7,13.3-17.6,19.9v26.3c4.4-6,8.9-11.9,13-18C-23.7,149.3-11.9,131,0.3,112.7z M9.4,198.2
					c-17.9,25.6-35.4,51.5-53.1,77.3c-1.7,2.5-3.5,5-5.2,7.5c0,19.8,0,39.6,0,59.4c0.6-1.1,1.3-2.2,1.9-3.3
					c11.7-24.1,22.6-48.6,35.2-72.1C9,228.4,34.6,193.2,64.7,161.2c26.5-28.1,55.8-52.9,88.5-73.6c15.2-9.6,31-18.4,46-28.3
					C215.4,48.6,231,37,246.9,25.8c1.3-0.9,2.7-1.6,4.1-2.4c0,0.1,0.1,0.3,0.1,0.4C235.6,35.2,220,46.6,204.5,58
					c2,0.3,3.5-0.3,4.9-0.9c15.4-6.5,30.4-14.1,46.2-19.2c23.2-7.4,46.7-14,70.4-19.1c62.5-13.5,125.8-16.2,189.5-13
					c8.3,0.4,16.6,0.9,24.9,1.4c0.1-0.6,0.2-1.1,0.3-1.7C530.8,3,520.9-1.6,511-1.7C397.4-2.1,283.7-1.9,170-1.9
					c-2.4,0-5.1-0.1-7.2,0.8C147.1,5.4,130.2,9.2,116,19.1c-3.7,2.6-7.5,5.3-11.6,7.2C91,32.5,78.3,39.6,67.2,49.7
					C55.7,60.1,42.8,69,31.5,79.7C11.2,98.8-2.3,123.2-18,145.8c-0.1,0.2,0,0.6,0.1,1c1.2-0.7,2.4-1.3,3.6-2
					c-0.8,2.1-1.9,3.7-3.3,5.1c-8.9,9.4-15.9,20.1-21.9,31.5c-3,5.7-6.3,11.3-9.5,16.9c0,18.2,0,36.3,0,54.5
					c2.9-5,5.8-10.1,8.7-15.1c26.8-46.1,58.1-88.7,97.4-125.1c20.7-19.1,43.8-35.1,67.9-49.5c10.3-6.1,20.6-12.1,30.7-18.5
					c-1.8,2.7-13.9,13.6-18.2,15.6c-1.1,0-2.5-0.5-3.2,0c-11.4,7.4-22.9,14.7-34.2,22.4c-49.9,34.3-88.8,78.9-120.6,130
					c-9.6,15.4-18.1,31.5-27.1,47.2c-0.4,0.7-1,1.3-1.5,1.9c0,5.2,0,10.4,0,15.6c7.2-11.1,14.6-22.2,21.7-33.4
					C9.6,186.1,54.3,135,105.7,89.6c4.3-3.8,8.9-7.3,13.3-11c-10.6,10-21.2,20-31.7,30.1C59,136.2,32.3,165.6,9.4,198.2z M554.4,6.7
					c-3.4-2.9-6.6-7.4-10.4-8.2c-6.8-1.3-14.1-0.4-21.2-0.4c0,0.2,0,0.5-0.1,0.7c10.3,3,20.5,6,30.8,9C553.8,7.4,554.1,7,554.4,6.7z
					 M145.9,168c3.1-23,6.3-46,9.4-68.9c0.1-0.9,0-1.8,0-3.1c-3.6,1.2-7,1.6-9.6,3.3c-21.5,14.4-41.5,30.7-60.1,48.6
					c-5.4,5.2-10.6,10.7-16.5,16.7c2.2,0.5,3.2,0.9,4.3,1c22.6,2.1,45.3,4.1,67.9,6.3C144.4,172.1,145.5,171,145.9,168z M71.8,168.6
					c-7.8-0.7-9.5,0.8-9.9,8.6c-1.1,20.1-2.2,40.1-3.1,60.2c-0.4,9.3-0.1,18.5-0.1,28c25.6-32,53-62.3,85-90
					c-3.1-0.5-4.8-0.8-6.5-0.9C115.4,172.5,93.6,170.5,71.8,168.6z M607,55.8c0,0,0-0.4-0.2-0.5c-16-7.7-32-15.5-48.1-23.1
					c-6.6-3.1-13.5-5.5-20.1-8.7c-7.7-3.7-15.2-7.9-22.8-11.7c-2.9-1.4-4.8-0.7-5.2,3.1c-1.2,10.3-2.7,20.6-4,30.9
					c-0.1,1,0.1,2.1,0.2,2.7C540.4,50.9,573.8,53.3,607,55.8z M530.1,12c-1.3-0.1-2.7,0-4,0c1.2,1.5,2.4,2.2,3.7,2.8
					c9.5,4.5,19.5,8.3,28.5,13.6c8.7,5.1,19.2,5.6,27.2,12.9c5.7,5.2,14.3,7.2,21.6,10.6c0.1-0.2,0.1-0.4,0.2-0.7
					c-11.6-9.2-23.7-17.9-34.7-27.8c-7.2-6.5-14.5-10.3-24.2-10.1C542.4,13.4,536.3,12.5,530.1,12z M419.1,11.7
					c-40.4,2.6-79.5,8.4-118.1,17.9c0,0.4,0.1,0.8,0.1,1.2c7.7,3.3,15.3,6.7,23.1,9.7c16.6,6.5,33.4,12.7,50,19.1
					c2.9,1.1,4.7,0.6,6.6-1.7C393,43.4,405.4,29,417.6,14.6C418.1,13.9,418.4,13,419.1,11.7z M-10.5,371.1
					c-1.6-28.2-3.2-55.8-4.9-83.5c-0.4-0.1-0.8-0.2-1.3-0.3c-4.2,8.5-8.6,17-12.4,25.7c-6.8,15.6-13.3,31.3-19.9,46.9v11.7
					c4.4,0,8.8,0.3,13.1-0.2c1.8-0.2,4.2-1.6,5.1-3.2c3.3-5.6,6.1-11.4,9.2-17.1c0.7-1.3,1.9-2.4,2.8-3.7l0.9,0.7
					c-3.7,7.5-7.5,15.1-11.4,23H-10.5z M507.9,10.8h-74.1c-0.1,0.4-0.1,0.8-0.2,1.2c22.9,12,45.8,24.1,69.3,36.5
					C504.7,35.7,506.3,23.6,507.9,10.8z M494.6,48.4c-6.4-3.8-12.6-7.8-19.1-11.2c-15.5-8.1-31.2-15.9-46.8-24
					c-3.1-1.6-4.8-1.2-7,1.4c-12,14.3-24.1,28.4-36.2,42.6c-0.6,0.7-0.9,1.6-1.7,3.2c37.1-7,73.8-10.3,110.8-10.8
					C494.6,49.2,494.6,48.8,494.6,48.4z M293,33.2c-0.3-0.4-0.6-0.7-0.9-1.1c-1.7,0.4-3.4,0.7-5,1.2c-8.2,2.8-16.4,5.8-24.7,8.5
					c-31.6,10.7-61.9,24.1-90.7,41c-2.2,1.3-4.3,2.9-7,4.7c1.5,0.6,1.9,0.8,2.4,0.9c29.8,3.4,59.6,6.8,89.4,10.3
					c2.9,0.3,4-1,5.1-3.2c3.9-7.8,8-15.6,11.9-23.4C280,59.2,286.5,46.2,293,33.2z M163.9,91.3c-3.5-0.4-4.5,0.9-5,4.1
					c-3.1,23.2-6.4,46.3-9.5,69.4c-0.2,1.5-0.3,3.1-0.5,6.2c32.9-27.4,67.4-50,105.5-68.5c-1.6-0.7-2-1.1-2.5-1.1
					C222.6,98,193.3,94.7,163.9,91.3z M659.4,103.5c1-10.3-1.3-19.2-9.7-25.8c-4.1-3.2-8.2-6.4-12.7-9c-2.8-1.7-6.1-2.9-9.3-3.4
					c-5-0.7-10.1-0.5-15.2-1c-5.8-0.6-11.6-2.2-17.4-2.1c-17.8,0.2-35.7,1-53.5,1.4c-6.6,0.2-13.3,0-19.9,0c9.3-1.4,18.6-1.7,28-2.1
					c9.2-0.4,18.3-1,27.5-1.5c0-0.5-0.1-0.9-0.1-1.4c-107.4-10.4-211.9-0.2-311.2,45.1c10.3,1.6,11.3,2.6,14.1,12.2
					c0.4,1.4,2.7,3.1,4.3,3.3c5.2,0.5,10.4,0.4,15.6,0.6c10.4,0.4,19.1-4.2,27.2-9.9c3.9-2.8,7.6-4.7,12.4-4.4
					c2.2,0.2,4.6-0.1,6.8-0.6c8.5-2,17.1-4,25.5-6.2c2.2-0.6,4.2-1.7,6.3-2.6c7.3-3,14.5-6.3,22-8.8c7.1-2.3,14.4-3.7,21.7-5.7
					c8.7-2.3,17.4-3,25.8,0.7c2.9,1.3,4.9,4.7,7.4,7c1.1,1.1,2.5,2.7,3.7,2.7c19.5,0.4,39,0.8,58.4,0.6c6.9-0.1,13.8-1.4,17.9-8.6
					c2.3-4,6.6-5.7,11.4-4.8c4.5,0.8,8.9,2,13.3,2.6c5.3,0.7,10.8,0.3,14.6,5.3c0.4,0.6,1.8,0.5,2.7,0.6
					c12.9,1.1,23.3,8.3,34.1,14.2c4.3,2.3,7.2,7,11,10.3c2.3,2,5,4.8,7.6,4.8c8.8,0.3,17.7-0.2,26.5-0.9c1.2-0.1,3-2.7,3.3-4.3
					C659.9,109.2,659.1,106.3,659.4,103.5z M367.3,60.2c-20.5-8-41-16-61.5-24c-9.1-3.5-9.1-3.5-13.3,5.4c-0.3,0.6-0.6,1.1-0.9,1.7
					c-8.4,16.6-16.9,33.3-25.3,49.9c-0.5,1-0.8,2.2-1.6,4.6c34.7-16.1,69.9-26.6,106.4-35.9C369.7,61.4,368.5,60.7,367.3,60.2z
					 M109.5,215.4c0.3,0.4,0.5,0.8,0.8,1.2c1.5-0.8,3.1-1.6,4.6-2.5c8-4.6,16.1-9,24-13.8c4.5-2.7,8.7-5.9,12.9-9.1
					c5.8-4.4,11.2-9.4,17.3-13.2c6-3.7,12.8-6.3,19.3-9.2c12.4-5.4,24.5-11.1,33.6-21.7c4.4-5.2,8.6-11,14.1-14.7
					c8.7-5.9,13.1-14.4,18.4-23.8C199,135.8,151.4,171.8,109.5,215.4z M-48.9,375.4c0,10.7,0,21.4,0,32.1c4.8-10.5,9.6-21,14.7-32.1
					H-48.9z M96.8,229.9c-2.1,1.5-3.7,3.1-5.1,4.8c-13.1,16.7-26.7,33.1-39.2,50.2C22.4,326-2.1,370.4-23.9,416.4
					c-8.7,18.4-16.4,37-20.4,57.1c-1.1,5.4-3,10.6-4.5,15.8c0,17.2,0,34.4,0,51.6c4.8-12.4,9.5-24.8,14.3-37.1
					c0.9-2.3,2.3-4.3,3.5-6.5l1.2,0.4c0.1,0.8,0.4,1.8,0.1,2.5c-6.3,17.1-12.7,34.3-19.1,51.4v15.6c0.5-0.8,0.9-1.7,1.4-2.5
					c6.8-12.1,13.3-24.4,20.6-36.3c3.5-5.7,8.5-10.6,12.8-15.8c3.1-3.8,3-7-1.2-10.2c-6.4-4.9-10.2-11.5-11.9-19.5
					c-0.5-2.4-2.1-4.7-3.7-6.6c-4.8-5.4-6.6-11.5-4.6-18.5c1.1-3.5,3.2-6.8,4-10.4c2.6-12,10.5-17.5,21.8-19.9
					c6.2-1.4,12.2-3.8,18.1-5.8c-1.1-3.1-2.6-5.5-2.6-7.9c0.2-9.2,0.7-18.4,1.5-27.6c0.5-5.9,1.4-11.9,2.4-17.7c0.5-2.9,1-6.8,3-8.3
					c4.8-3.6,10.2-6.9,15.8-8.8c6.1-2,7.3-2.8,8.9-9.2c1-4.3,3.1-8.3,5.2-12.2c2-3.8,4.9-7.2,7-11c4.6-8.5,11.3-13.6,21-14.4
					c6-0.5,11.9-0.6,17.9-1.3c1.1-0.1,2.7-1.7,2.9-2.8c1.5-8,2.9-15.9,3.8-24c0.3-3.1-0.4-6.4-1.2-9.4c-1.2-4.8-2.9-9.8,0.3-14
					C100,245.7,95.6,237.6,96.8,229.9z M-6.8,366.3c18-29,35.5-57.2,53.3-85.8c-1.7-0.2-3.4-0.4-5.2-0.5
					c-15.7-1.2-31.4-2.3-47.1-3.5c-5.5-0.4-6.5,0.5-6.2,6.2c0.8,12.6,1.6,25.2,2.4,37.9C-8.6,335.6-7.7,350.6-6.8,366.3z
					 M53.4,270.1c1.7-29.9,3.4-59.8,5-89.8c0-0.8-0.3-1.6-0.6-3.3C32,206.5,10.5,238-8.1,271.7c1,0.6,1.2,0.9,1.5,0.9
					c17.8,1.2,35.6,2.3,53.4,3.6C51.4,276.7,53.2,274.3,53.4,270.1z M-43.8,446.8c3.9-10.1,7.7-20.2,11.8-30.1
					c2.4-5.9,4-11.8,8.8-17.1c5.7-6.4,8.4-15.4,12.9-24.4c-3.9,0-6.8-0.1-9.6,0c-13.5,0.4-9.9-2.4-15.6,10.4
					c-4.7,10.4-8.9,21.1-13.2,31.7c0,1.6,0,3.2,0,4.9c1.2,8.1,2.4,16.3,3.6,24.4C-44.8,446.7-44.3,446.7-43.8,446.8z"/>
			</g>
		</g>
	</g>
	<g id="Haar" style="clip-path:url(#SVGID_00000039847819575859234200000014967868635491068834_);">
		<path class="st6" d="M113.6,343.5c-0.3,1.2,1.1,2.8,2,4.7c4-10.6,7.6-20.2,11.5-30.6C120,325.4,115.6,333.9,113.6,343.5z
			 M118.6,716.5c2.9,2.8,4.7,0.1,6.8-3.3c-2.3-0.4-4.5-0.8-6.8-1.2C118.6,713.5,117.8,715.8,118.6,716.5z M91.7,808.5
			c-0.8,2.2-1,4.6-1.4,6.9c0.4,0.2,0.8,0.3,1.2,0.5c1.4-1.9,3.1-3.6,4.2-5.6c0.4-0.8-0.6-2.4-1-3.6C93.6,807.3,92,807.7,91.7,808.5z
			 M107.5,505.6c-3.2,4-5.4,9.7-3.4,15.5c3.6,10.6,4.7,20.8-3.4,30.3c1.5,1.3,2.7,2.3,4.8,4.1c5.2-18.4,10.2-36,15.5-54.8
			C115.6,502.5,109.8,502.7,107.5,505.6z M103.8,353.4c2.8,0.7,4.9,1.3,6.2,1.6c-1.2-1.6-2.7-3.6-4.5-6
			C104.7,350.8,104.3,351.9,103.8,353.4z M93.9,560.5c-20-9.7-26.9-31-15.9-50.4c3-5.3,7-10.2,10.2-15.4c0.8-1.4,1.3-3.8,0.7-5.1
			c-5.1-10.8-6.4-22-4-33.7c1.6-7.6,1.4-14.2-8-16.3c-0.5-0.1-0.9-0.5-1.3-0.7C64.7,432.3,62,420.6,69,410c1.3-2,3.1-3.8,4.5-5.7
			c3.7-5.1,9.2-9.9,10.4-15.5c1.4-6.9,2.7-14.8-3-21.8c-6.2-7.8-4.7-17.3,2.6-24.1c5.5-5.2,11.6-9.4,19.3-9.3c1-3,1.9-5.5,2.4-6.9
			c-3.3-5.2-6.2-9.7-8.9-14c-7.6,0.3-15.6,0.7-23.7,0.9c-7.3,0.2-12.5,3.4-16.1,9.8c-2.4,4.2-5.6,7.9-8.3,11.9
			c-1.3,2-2.2,4.3-3.2,6.1c3.6,1.2,6.3,2.1,9.7,3.2c-3.2,2.5-5.4,3.9-7.2,5.6c-6.4,6-12.7,12.1-18.8,18.3c-1,1-1.5,3.3-1.1,4.8
			c1.5,6.6,4.4,13.1,4.8,19.8c0.5,8.7,2,16.6,5.9,24.6c5.6,11.3,0.3,24-11,29.2c-8,3.7-16.1,7.1-24.3,10.7c0.4,0.7,1.8,2.2,2.1,3.8
			c1.4,7.2,6,10.8,12.3,14.4c11,6.2,13.7,17.4,14.1,29.3c0.6,16.7-5.4,31.8-10.7,47.2c-2.8,8-7.6,14.7-14.6,19.6
			c-0.8,0.6-1.7,0.9-3.2,1.6c6.3,3.6,9.1,8,10,13.6c0.4,2.6,1.1,5.1,1.3,7.7c0.2,3,1.8,4.7,4.2,6.5c2.8,2.1,4.7,5.6,7.1,8.3
			c1,1.2,2.4,3.1,3.5,3.1c13.6,0.1,23.5,7.2,32.9,16c2.8,2.7,6.3,4.7,9.9,7.2c1-2,1.6-3.1,2.1-4.2c8.1-19.8,16.3-39.6,24.4-59.4
			C100.9,565.2,100.2,563.5,93.9,560.5z M17.1,412.6c4.5,3.8,6.4,8.4,3.8,14.5c3.8-2,4.6-5,2.7-7.7c-5-7.4-5.2-15.5-5.1-23.8
			c0.1-3.1-0.6-6.2-0.9-9.3c-0.8,8.7-0.8,17.3-0.8,25.9C16.8,412.3,16.9,412.5,17.1,412.6z M26.8,653.7c-0.5-1-2.2-2.1-3.2-2
			c-6.1,1.2-12.2,2.8-19.5,4.6c9,9.7,12.5,22,21.9,30.9c2.6-6.4,4.7-11.5,6.7-16.8c0.4-1,0.1-2.5-0.3-3.5
			C30.7,662.3,28.9,657.9,26.8,653.7z M792.4,213.6c-1.9-4.9-5.4-7.8-11.1-9.3C782.8,210.8,787.1,214.2,792.4,213.6z M131.1,761
			c0.2-3.7,0.4-6.5,0.6-9.9c-6.5,1.4-12.2,4-17.6,3.3c-5.3-0.6-10.2-4.6-15.8-7.3c-2.1,2.8-5.1,6.3-7.5,10c-4.8,7.5-4.3,8.4,5,10.4
			c3-8,5-9.5,13.4-9.6C116.3,757.8,123.8,756.2,131.1,761z M65.1,796.2c-0.2-2.9-0.4-5.7-0.6-8.5C60.1,793.1,60.2,794.1,65.1,796.2z
			 M70.6,773.5c-1.5,3.2-2.9,6.3-4.9,10.5C74.8,776.1,75.4,777.1,70.6,773.5z M94.5,723.5c0.4,0.2,0.7,0.4,1.1,0.6
			c3-2.9,5.9-5.9,5.4-10.7c-0.5-0.2-0.9-0.4-1.4-0.6C97.9,716.3,96.2,719.9,94.5,723.5z M748.3,197.3c-1.6-0.1-3.2,0-4.9-0.1
			c-9.3-0.2-17.5-2.8-23.4-10.7c-0.8-1.1-3.2-1.5-4.8-1.4c-1.9,0.1-3.7,1.1-6.6,2c3.5,1.5,6.2,2.6,8.8,3.8c8.8,4,17.2,8.3,22.3,17.1
			c2.5,4.3,5.6,8.2,8.4,12.4c3.2,4.7,6.6,7.7,12.3,3.3c1.3-1,3.4-1,4.7-1.4c-2-5.2-4.3-9.8-5.5-14.7
			C758,200.5,755.7,197.9,748.3,197.3z M109.7,833.2c2.8-2.2,5.3-4.2,8.3-6.6C111.3,824.1,110.5,824.9,109.7,833.2z M369.8,360.1
			c0.2,0.8,0.3,1.7,0.5,2.5c11.4-2.9,22.8-5.8,34.3-8.7c-0.1-0.6-0.3-1.2-0.4-1.7C392.8,354.9,381.3,357.5,369.8,360.1z M802.9,236
			c0-1.5-0.2-3-0.4-4.9c-8.6,2.4-16.6,4.9-24.2,1.4c-2.6,3.7-5.2,6.7-6.8,10c-1,1.9-1.5,5.3-0.5,6.7c2.4,3.3,5.6,6.2,8.9,8.7
			c7.5,5.7,16.4,8.3,25.5,10.1c4.8,0.9,9.5,2,12.7,6.3c0.5,0.7,1.8,0.9,3.3,1.5c-0.9-7.4-4.7-12.8-9.1-17.3
			C806.3,252,802.7,244.9,802.9,236z M373.6,341.9c-5.9,2.9-11.6,5.8-17.4,8.7c0.2,0.6,0.5,1.1,0.7,1.7c6.8-1.8,13.6-3.6,20.9-5.6
			C376.1,344.8,375.1,343.7,373.6,341.9z M849.8,394.1c-1.3,0-2.6-1.2-3.8-1.8c-3.1-1.5-6.2-3.1-9.3-4.6c-0.3,0.5-0.6,0.9-0.8,1.4
			c6.7,5,13.4,10,20,14.9C856,398.9,856.5,394,849.8,394.1z M684.7,138c-5.2-4.9-8.3-13.8-18.2-11.3c-1,0.3-2.3-1-3.6-1.3
			c-1.3-0.4-2.8-0.8-4.1-0.7c-7.6,0.5-15.1,1.2-22.7,1.9c-7.9,0.7-14.2-2.5-19.8-7.7c-2.1-2-4.4-3.9-6.4-6
			c-8.1-8.6-19.5-11-29.7-15.7c-0.8-0.4-1.9-0.4-2.9-0.3c-4.3,0.5-7.9-0.6-10.7-4.2c-0.8-1-2.8-1.2-4.4-1.5
			c-4.3-0.8-8.7-1.2-12.9-2.2c-4.1-1-7.2-0.7-9.4,3.5c-2.7,5.2-7.1,8.4-13.1,9c-8.5,0.8-17.1,1.7-25.6,1.9
			c-16.1,0.4-32.1,0.5-48.2,0.4c-5.2,0-9-3.2-8.9-7.8c0.1-5.8-3.3-6.9-7.7-6.8c-4,0.1-8.1,0.4-12,1.2c-8.1,1.7-16.1,3.7-24.1,5.9
			c-5.1,1.4-10.2,3.2-15.1,5.3c-14.1,6.4-28.8,10.7-44.2,12.2c-2.3,0.2-5.1,0.7-6.7,2.1c-10.8,9.8-23.1,15.2-37.9,14.4
			c-3.6-0.2-7.1,0-10.7,0c-10.5,0-13.3-2-15.9-12.4c-0.8-3.2-2.8-3.9-4.9-2.4c-2.5,1.8-5.2,4.1-6.5,6.8c-3,6.4-7.1,11.5-12.9,15.5
			c-2.8,1.9-5.3,4.3-7.5,6.9c-12,14.1-24.9,26.7-42.9,33.3c-15.3,5.6-29.6,13-40.6,25.9c-3.4,4-9.6,5.7-14.4,8.6
			c-7.4,4.4-14.4,9.6-22.2,13.1c-8.4,3.8-11.2,9.9-11.8,18.3c-0.3,4-2.4,7.9-3.4,11.9c-0.6,2.4-1.7,5.4-0.8,7.4
			c3.2,7,2.2,13.9,0.7,21c-1.1,5-1.7,10.1-2.5,15.1c0.5,0.2,1,0.4,1.5,0.6c6-6.7,13.6-9.8,22.2-11c1.3-0.2,2.8-2.1,3.2-3.6
			c2-6.4,3.3-13.1,5.7-19.4c4.7-12.2,10.6-24,14.8-36.4c9-26.4,24.6-33.7,51.5-38.3c3.1-0.5,6.5-1.1,9.3-2.5
			c12-6.1,23.7-12.7,35.7-18.8c8.2-4.2,16.5-8.5,25.1-11.7c4.8-1.8,10.4-1.4,15.6-2c1.7-0.2,3.5,0,5.2-0.4c3.8-0.9,7.4-2.3,11.2-3.1
			c4.6-1,9.3-1.3,13.8-2.3c6.9-1.6,13.7-4,20.7-5c4.4-0.6,6.7-2.1,8.5-6.2c4.4-10.1,12.4-15,23.6-14.6c3.1,0.1,6.1-0.3,9.2-0.6
			c9.2-0.8,18.4-1.9,27.5-2.5c2.5-0.2,5,1.1,7.6,1.3c2.4,0.2,5,0.6,7.2-0.2c9.4-3.3,18.6-5.8,28.4-1.5c3.7,1.6,7.5,3,11.5,4
			c1.9,0.5,4.4,0.1,6-0.8c12-6.4,23.9-11.5,38-6.2c5,1.9,10.7,1.9,16,3.3c4.6,1.2,8.9,3.2,13.4,4.8c1.4,0.5,3,1.5,4.4,1.3
			c7-0.9,13.2,1.1,18.9,4.9c4.7,3.2,9.7,4,15.3,3c5.9-1.1,11.9-2.1,17.8-2.1c9.1-0.1,16.3,4.6,22.7,10.8c2.3,2.2,4.9,4.8,8.3,1.3
			c4.3-4.5,9.8-5.8,15.8-6.6c14.9-1.8,23.4,8.5,32.5,17.3c0.9,0.9,1.1,2.7,1.3,4.1c0.6,4.1,2.5,5.4,6.5,4.1c1.6-0.5,3.2-1.3,4.1-1.6
			c1.5,1.5,2.5,3.3,3.5,3.3c1.9,0,4.2-0.6,5.5-1.8c1.8-1.7,3.3-4.1,4.2-6.5c0.8-2.2,1.7-5.3,0.7-7
			C691.5,146.1,688.4,141.5,684.7,138z M127.5,851.5c1.3-2.6,2.5-5,4.1-8.4C124.1,847.9,124.1,847.9,127.5,851.5z M150.9,820.9
			c-4.9,9-9.7,17.8-14.5,26.6c0.4,0.5,0.7,1,1.1,1.4c3.1-1.2,7-1.7,8.9-3.9c2.2-2.5,3.7-4.9,7.3-5.5c3.3-0.6,5.3-5.7,3.7-8.4
			C155.4,827.9,153.3,824.7,150.9,820.9z M160.8,814.1c-5.2,4.4-5.2,8.2,0.3,14.2c4-7.5,7.7-14.5,12-22.7c-2.6,1.4-3.9,2-5.1,2.9
			C165.6,810.3,163.1,812.1,160.8,814.1z M318.4,370.4c0.1,0.2,0.2,0.4,0.4,0.6c4.8-0.9,9.6-1.9,14.8-2.9c-0.6-2-1.2-3.7-1.8-5.7
			C326.9,365.3,322.6,367.9,318.4,370.4z M159.7,841.6c1.8,0.4,3.7,0.8,5.5,1.2c1.1,0.2,2.8,1,3.2,0.6c0.9-1,1.2-2.5,1.8-4.2
			c-3.9,0.5-7,0.9-10.1,1.3C159.9,840.9,159.8,841.2,159.7,841.6z"/>
	</g>
	<g id="Bril" style="clip-path:url(#SVGID_00000039847819575859234200000014967868635491068834_);">
		
			<linearGradient id="SVGID_00000007407726076085370690000008243027318087589288_" gradientUnits="userSpaceOnUse" x1="165.1" y1="520.0496" x2="529.4745" y2="520.0496" gradientTransform="matrix(1 0 0 -1 0 1050)">
			<stop  offset="0" style="stop-color:#BFB9AE"/>
			<stop  offset="0.1298" style="stop-color:#C2BCB2"/>
			<stop  offset="0.2452" style="stop-color:#CAC5BC"/>
			<stop  offset="0.3551" style="stop-color:#D9D5CF"/>
			<stop  offset="0.4609" style="stop-color:#EDEBE8"/>
			<stop  offset="0.5366" style="stop-color:#FFFFFF"/>
			<stop  offset="0.5393" style="stop-color:#FAFEFE"/>
			<stop  offset="0.5651" style="stop-color:#CEF1F9"/>
			<stop  offset="0.5934" style="stop-color:#A6E5F3"/>
			<stop  offset="0.6239" style="stop-color:#84DBEF"/>
			<stop  offset="0.6572" style="stop-color:#67D3EB"/>
			<stop  offset="0.694" style="stop-color:#4FCCE8"/>
			<stop  offset="0.7358" style="stop-color:#3DC6E6"/>
			<stop  offset="0.7858" style="stop-color:#30C3E4"/>
			<stop  offset="0.852" style="stop-color:#29C1E3"/>
			<stop  offset="0.9987" style="stop-color:#27C0E3"/>
		</linearGradient>
		<path style="fill:url(#SVGID_00000007407726076085370690000008243027318087589288_);" d="M165.1,551.3c0.5-1.3,0.7-1.9,1-2.5
			c19-30.9,38-61.9,57.3-92.7c1.7-2.7,5-5.1,8-6.4c36.7-15.1,75-21.4,114.5-22.5c44.3-1.3,87.8,4.3,130.9,13.8
			c2.8,0.6,5.4,3.2,7.5,5.4c9,9.6,18.3,18.9,26.4,29.2c9.2,11.7,15,25.4,18.4,39.9c0.8,3.6,0.4,5.9-2,9.1
			c-15.6,19.9-33.7,37.2-54,52.3c-7.9,5.9-16.5,10.9-24.6,16.6c-8.1,5.7-15.8,11.9-24,17.4c-4.9,3.3-10.3,5.7-15.5,8.5
			c-0.7,0.4-1.4,0.8-2,1.3c-10.8,10.8-24.3,13.1-38.7,11.9c-14.6-1.2-28.6-4.6-42.2-10.5c-13.8-6-28.5-9.8-42.3-15.9
			c-30-13.2-59.6-27.2-89.4-41C184.7,560.8,175.1,556.1,165.1,551.3z M277.2,438.4c0,0.5,0,1.1,0.1,1.6c14.3,4,28.7,8,43,12
			c7.9,2.2,15.9,4.4,23.8,6.7c9.3,2.7,18.5,6.3,27.9,8.3c17.9,3.8,36.1,5.8,53,13.5c7.3,3.3,15.3,5.5,23.3,6.8
			c18.5,3,36.6,7.1,54.5,12.4c6.1,1.8,12.5,2.6,20,4.1c-3.4-6.9-6-12.6-9-18.1c-8.1-14.9-20.2-26.4-32.2-38c-2.1-2-5-3.8-7.8-4.3
			c-19.8-3.5-39.5-7.1-59.4-9.7c-15.6-2.1-31.4-3.3-47.1-3.9c-24.1-0.9-48,1.4-71.9,4.8C289.3,435.5,283.2,437.2,277.2,438.4z
			 M249.6,447.8c-0.5-0.5-0.9-0.9-1.4-1.4c-4.2,1.5-8.3,3.3-12.5,4.5c-5.5,1.5-9.2,4.6-12.1,9.5c-14.8,24.2-29.9,48.2-44.9,72.4
			c-3.4,5.4-6.5,11-10.1,17c3.1,1.6,5.8,3.1,8.5,4.4c2.7,1.3,5.6,2.4,8.8,3.7C207.2,521.1,228.4,484.4,249.6,447.8z"/>
		
			<linearGradient id="SVGID_00000125574247719946810310000001638529238283407528_" gradientUnits="userSpaceOnUse" x1="718.1" y1="526.4561" x2="980.5001" y2="526.4561" gradientTransform="matrix(1 0 0 -1 0 1050)">
			<stop  offset="0" style="stop-color:#BFB9AE"/>
			<stop  offset="0.1298" style="stop-color:#C2BCB2"/>
			<stop  offset="0.2452" style="stop-color:#CAC5BC"/>
			<stop  offset="0.3551" style="stop-color:#D9D5CF"/>
			<stop  offset="0.4609" style="stop-color:#EDEBE8"/>
			<stop  offset="0.5366" style="stop-color:#FFFFFF"/>
			<stop  offset="0.5393" style="stop-color:#FAFEFE"/>
			<stop  offset="0.5651" style="stop-color:#CEF1F9"/>
			<stop  offset="0.5934" style="stop-color:#A6E5F3"/>
			<stop  offset="0.6239" style="stop-color:#84DBEF"/>
			<stop  offset="0.6572" style="stop-color:#67D3EB"/>
			<stop  offset="0.694" style="stop-color:#4FCCE8"/>
			<stop  offset="0.7358" style="stop-color:#3DC6E6"/>
			<stop  offset="0.7858" style="stop-color:#30C3E4"/>
			<stop  offset="0.852" style="stop-color:#29C1E3"/>
			<stop  offset="0.9987" style="stop-color:#27C0E3"/>
		</linearGradient>
		<path style="fill:url(#SVGID_00000125574247719946810310000001638529238283407528_);" d="M879.9,432c12.5,2,24.9,4.1,37.4,6.1
			c0.8,0.1,1.6,0.5,2.2,1c25.3,23.6,46.4,49.9,56,83.9c0.8,2.8,1.2,5.7,2,8.5c0.6,2.1,1.7,4,3,6.8c-6.4,5.8-13.2,12.2-20.3,18.3
			c-22.1,19.1-45.5,36.2-72.5,47.7c-22.1,9.4-44.9,13.9-68.9,8.4c-10.5-2.4-20.1-6.7-29.4-12.4c-10.2-6.3-21.4-10.9-31.6-17.1
			c-15.6-9.6-29.3-21.6-38.3-37.9c-0.9-1.6-1.4-3.6-1.4-5.4c0.3-17.7,0.7-35.3,1.3-53c0.1-2.2,1.3-4.7,2.6-6.6
			c5.7-8.2,13.9-13.5,22.7-17.8c21.1-10.2,43.8-15.3,66.9-18.4c20.7-2.8,41.6-4.3,62.4-6.7c2.2-0.2,4.2-2.1,6.3-3.3
			C880.1,433.4,880,432.7,879.9,432z M792,449.9c-0.1,0.5-0.1,1-0.2,1.4c2.2,0.3,4.4,0.6,6.6,1c17.4,3.2,34.8,6,52.1,9.6
			c31.9,6.6,63.7,13.6,95.5,20.3c2.2,0.5,4.5,0.4,7.5,0.7c-10-16-22.4-28.5-35.1-40.7c-1.1-1-2.8-1.5-4.4-1.8
			c-7.6-1.4-15.1-3-22.8-3.7c-4-0.4-9-3-12.1,2.6c-0.4,0.7-2,0.9-3.1,1c-14.9,1.3-29.8,2.4-44.7,4C818.2,445.9,805.1,448,792,449.9z
			 M752.5,461.5c-6.2,3.6-12.6,7.1-18.7,11c-8.1,5.3-12.9,12.2-12.4,22.8c0.6,12.4-0.1,24.9-0.9,37.3c-0.4,7.4,1.5,13.6,6.6,18.8
			C741.7,523.4,745,492.3,752.5,461.5z"/>
		<path class="st9" d="M52.5,786.8c-2.2-1.3-3.7-2.2-5.3-3.1c-7.9-4.4-7.9-4.4-4.4-12.9c30.8-75,61.6-150,92.4-225
			c0.6-1.5,1.3-2.9,2.5-5.4c2.1,5,3.7,9,5.5,12.9c3.2,6.5,6.7,12.8,9.7,19.3c0.6,1.3-0.2,3.7-1,5.3c-13.5,28.6-27.1,57.1-40.7,85.7
			c-18.7,39.4-37.5,79-56.3,118.5C54.3,783.5,53.5,784.9,52.5,786.8z"/>
		<path class="st9" d="M534.3,523c0-2.7,0.4-5.2-0.1-7.5c-5.1-23.9-17.6-43.7-34.2-61.2c-5.1-5.4-10.1-10.8-15.3-16.1
			c-0.8-0.9-2.2-1.4-3.4-1.6c-61.6-13.4-123.7-20.2-186.5-9.7c-19.1,3.2-37.8,9.1-56.5,14.5c-8.2,2.3-17.3,4-20.8,14.2
			c-0.4-0.1-0.8-0.3-1.2-0.4c-1.2-2.5-2.3-4.9-3.7-7.9c2.3-1,4-1.8,5.7-2.5c99.4-38.9,198.7-37,298.1,0.4c7.5,2.8,12.3,6.9,15.8,14
			c6.9,14.2,11.9,28.7,10.5,44.9c-0.1,1.1-0.2,2.3,0.2,3.4c0.3,1,1,2.2,1.8,2.4c0.8,0.2,2.2-0.4,2.9-1.1c1.3-1.4,2.2-3.2,3.2-4.8
			c12.9-19.2,28.8-34.7,51.7-41.3c4.7-1.3,9.5-2.1,14.3-2.7c1.3-0.2,3.5,1,4,2.1c2.9,7.2,1.1,14.4-1.3,21.3
			c-0.3,0.8-1.6,1.6-2.6,1.9c-29.2,7.5-56.2,20-81.1,37C535.2,522.7,534.6,522.9,534.3,523z"/>
		<path class="st9" d="M866.7,432.5c-10.8,1.1-20.6,1.9-30.4,3c-26.7,3-53.2,6.7-78.6,15.8c-13.5,4.8-26.6,10.6-36.6,21.5
			c-9.9,10.8-12.8,23.1-8.3,37.4c1.2,3.8,0.5,8.3,0.3,12.5c-0.2,7.6-0.8,15.2-0.8,22.8c0,1.6,1.5,3.3,2.6,4.7
			c3.3,4.2,6.8,8.3,10.2,12.4c-0.4,0.4-0.8,0.8-1.2,1.1c-7-6.4-14-12.8-20.9-19.3c-0.6-0.6-0.7-1.8-0.8-2.7
			c-2.4-28-16.3-47.6-42.3-58.5c-0.3-0.1-0.5-0.4-1-0.9c3.7-6.9,5-14.4,1.5-23c2.5,0.9,3.8,1.2,5,1.8c20.3,9.4,32,25.7,37.6,46.9
			c0.7,2.5-0.2,7.7,4.4,6.5c3.9-1,1.2-5.1,0.6-7.6c-3.6-15-10.6-28.2-22-38.7C707.1,448.5,834.6,423.1,866.7,432.5z"/>
		<path class="st9" d="M161.9,542.5c-5.1-20.5-10.2-41-15.6-62.4c7.9-4.4,16.8-9.7,26-14.3c11.1-5.6,22.5-10.8,33.9-16
			c1.5-0.7,4.9-0.4,5.2,0.3c1.2,3.1,5.8,5,2.7,9.7c-12.3,19.1-24.3,38.3-36.2,57.6c-4.9,7.8-9.3,15.9-13.9,23.9
			c-0.3,0.6-0.6,1.1-0.9,1.7C162.7,542.8,162.3,542.7,161.9,542.5z"/>
		<path class="st9" d="M931.5,441.6c1,0.2,2.6,0.4,4,0.8c13.1,4.1,26.3,8.3,39.4,12.4c2.8,0.9,4.4,2.2,4.6,5.4
			c1.2,20.2,2.6,40.4,3.9,60.6c0.1,1.8-0.3,3.7-0.9,5.6c-4.9-16.1-10.8-31.7-20.5-45.4C952.4,467.5,941.7,454.7,931.5,441.6z"/>
		<path class="st9" d="M625.3,484.1c2.3-10.3,4.3-20.2-2.1-29.1c8.5,0,16.9-0.9,24.8,0.4c3.4,0.6,7.5,5.7,8.5,9.4
			c2.3,8.7,0.4,17.4-11.4,17.9c-3.2,0.1-6.5,0.4-9.7,0.7C632.4,483.7,629.3,483.8,625.3,484.1z"/>
		<path class="st9" d="M548.2,496.4c-0.6-15.4-5.8-28.9-12.7-41.9c0.3-0.4,0.6-0.8,0.9-1.2c12.1,5.7,24.2,11.4,36.2,17.1
			C564.5,479.2,556.8,487.3,548.2,496.4z"/>
	</g>
</g>
</svg>
