<svg id="evocoin" data-name="Evocoin" xmlns="http://www.w3.org/2000/svg" viewBox="0 0 81 93">
	<path class="coinpath" d="M87.3,34.17a3.66,3.66,0,0,0,2.64-.82,3.62,3.62,0,0,0,.81-2.63V19.51a3.63,3.63,0,0,0-.81-2.64,3.66,3.66,0,0,0-2.64-.81H58.75v-10a2.5,2.5,0,0,0-5,0v10h-7v-10a2.5,2.5,0,0,0-5,0v10H13.2a3.66,3.66,0,0,0-2.64.81,3.63,3.63,0,0,0-.81,2.64V81.59a3.63,3.63,0,0,0,.81,2.64A3.66,3.66,0,0,0,13.2,85H41.75v9a2.5,2.5,0,0,0,5,0V85h7v9a2.5,2.5,0,0,0,5,0V85H87.3a2.95,2.95,0,0,0,3.45-3.45V70.38a3.62,3.62,0,0,0-.81-2.63,3.66,3.66,0,0,0-2.64-.82H58.75V58.69H69.54A3,3,0,0,0,73,55.24V45a3.57,3.57,0,0,0-.82-2.63,3.62,3.62,0,0,0-2.63-.82H58.75V34.17Zm-56.09,0H41.75v7.37H31.21Zm0,32.76V58.69H41.75v8.24Zm22.54,0h-7V58.69h7Zm0-25.39h-7V34.17h7Z" transform="translate(-9.75 -3.56)"/>
</svg>